M48
;GenerationSoftware,Autodesk,EAGLE,9.5.2*%
;CreationDate,2020-04-08T10:12:48Z*%
FMAT,2
ICI,OFF
METRIC,TZ,000.000
T4C0.400
T3C0.550
T2C0.600
T1C1.000
%
G90
M71
T1
X23622Y6985
X114554Y22733
X112014Y25273
X31242Y4445
X114554Y25273
X109474Y25273
X117094Y25273
X117094Y22733
X119634Y25273
X36322Y4445
X109474Y22733
X36322Y6985
X112014Y22733
X122174Y22733
X33782Y6985
X31242Y6985
X119634Y22733
X122174Y25273
X33782Y4445
X28702Y4445
X28702Y6985
X26162Y4445
X26162Y6985
X23622Y4445
T2
X5080Y4064
X6350Y4064
X4572Y20701
X3556Y19685
X139446Y14859
X140716Y16764
X139446Y16764
X140716Y28194
X2794Y20447
X3810Y21463
X139446Y28194
X145796Y1524
X144526Y1524
X145796Y3429
X145796Y5334
X144526Y3429
X144526Y5334
X5080Y11049
X6350Y11049
X5080Y17399
X5080Y14859
X6350Y14859
X5080Y12954
X6350Y12954
X5080Y1524
X6350Y1524
X0Y28194
X1270Y28194
X0Y26289
X0Y24384
X140716Y18669
X1270Y26289
X1270Y24384
X140716Y25654
X139446Y25654
X141224Y9017
X142240Y10033
X143002Y9271
X141986Y8255
X6350Y17399
X139446Y18669
X140716Y12319
X139446Y12319
X140716Y14859
T3
X7493Y6604
X8890Y4064
X6223Y21590
X6350Y19304
X125857Y9906
X129159Y6731
X11303Y10922
X11303Y8382
X11303Y5842
X15367Y8382
X15367Y10922
X134493Y21336
X134493Y23876
X130429Y23876
X132969Y5461
X139573Y8128
X130429Y21336
X130429Y18796
X123317Y7366
X139446Y10414
X136906Y25654
X138303Y23114
X134493Y18796
X15367Y5842
X12827Y24257
X16637Y22987
X19939Y19812
X22479Y22352
T4
X50673Y8289
X44450Y3500
X44450Y4572
X50546Y1778
X43942Y1143
X95250Y27940
X54102Y2454
X91694Y27264
X49276Y1778
X91186Y22699
X28575Y8509
X96520Y27940
X107950Y24003
X106299Y26980
X130302Y8509
X91694Y25908
X101346Y26218
X15494Y21209
X117221Y21209
X54102Y3810
X101854Y28575
X101346Y25146
X95123Y21429
X86614Y24096
X86868Y27264
X39497Y2738
X58928Y2454
X59182Y5622
X54610Y7019
X37846Y5715
M30