G04 EAGLE Gerber X2 export*
%TF.Part,Single*%
%TF.FileFunction,Other,solder mask bottom*%
%TF.FilePolarity,Positive*%
%TF.GenerationSoftware,Autodesk,EAGLE,9.5.2*%
%TF.CreationDate,2020-04-08T10:12:48Z*%
G75*
%MOMM*%
%FSLAX34Y34*%
%LPD*%
%INsolder mask bottom*%
%AMOC8*
5,1,8,0,0,1.08239X$1,22.5*%
G01*
%ADD10C,0.000000*%
%ADD11R,2.641600X1.371600*%
%ADD12R,1.371600X2.641600*%
%ADD13R,1.601600X1.601600*%
%ADD14C,1.601600*%
%ADD15C,1.101600*%


D10*
X0Y232410D02*
X50800Y181610D01*
X50800Y100330D01*
X60960Y90170D01*
X60960Y59690D01*
X50800Y49530D01*
X50800Y6350D01*
X55880Y1270D01*
X213360Y1270D01*
X0Y232410D02*
X0Y290830D01*
X5080Y295910D01*
X220980Y199390D02*
X220980Y142240D01*
X220980Y199390D02*
X228600Y207010D01*
X1074420Y207010D01*
X1056640Y295910D02*
X5080Y295910D01*
X1074420Y207010D02*
X1098550Y182880D01*
X1209040Y182880D01*
X1073150Y279400D02*
X1056640Y295910D01*
X1073150Y279400D02*
X1228090Y279400D01*
X1407160Y115570D02*
X1457960Y64770D01*
X1407160Y115570D02*
X1407160Y196850D01*
X1397000Y207010D01*
X1397000Y237490D01*
X1407160Y247650D01*
X1407160Y290830D01*
X1402080Y295910D01*
X1244600Y295910D01*
X1457960Y64770D02*
X1457960Y6350D01*
X1452880Y1270D01*
X1236980Y97790D02*
X1236980Y154940D01*
X1236980Y97790D02*
X1229360Y90170D01*
X383540Y90170D01*
X401320Y1270D02*
X1452880Y1270D01*
X383540Y90170D02*
X359410Y114300D01*
X248920Y114300D01*
X384810Y17780D02*
X401320Y1270D01*
X384810Y17780D02*
X229870Y17780D01*
X1228090Y279400D02*
X1244600Y295910D01*
X1209040Y182880D02*
X1236980Y154940D01*
X248920Y114300D02*
X220980Y142240D01*
X229870Y17780D02*
X213360Y1270D01*
D11*
X50800Y173990D03*
X50800Y148590D03*
X50800Y129540D03*
X50800Y110490D03*
X50800Y40640D03*
X50800Y15240D03*
D12*
G36*
X15022Y202610D02*
X24720Y212308D01*
X43398Y193630D01*
X33700Y183932D01*
X15022Y202610D01*
G37*
G36*
X21372Y208960D02*
X31070Y218658D01*
X49748Y199980D01*
X40050Y190282D01*
X21372Y208960D01*
G37*
D13*
X1221740Y227330D03*
D14*
X1221740Y252730D03*
X1196340Y227330D03*
X1196340Y252730D03*
X1170940Y227330D03*
X1170940Y252730D03*
X1120140Y252730D03*
D10*
X1115140Y227330D02*
X1115142Y227471D01*
X1115148Y227612D01*
X1115158Y227752D01*
X1115172Y227892D01*
X1115190Y228032D01*
X1115211Y228171D01*
X1115237Y228310D01*
X1115266Y228448D01*
X1115300Y228584D01*
X1115337Y228720D01*
X1115378Y228855D01*
X1115423Y228989D01*
X1115472Y229121D01*
X1115524Y229252D01*
X1115580Y229381D01*
X1115640Y229508D01*
X1115703Y229634D01*
X1115769Y229758D01*
X1115840Y229881D01*
X1115913Y230001D01*
X1115990Y230119D01*
X1116070Y230235D01*
X1116154Y230348D01*
X1116240Y230459D01*
X1116330Y230568D01*
X1116423Y230674D01*
X1116518Y230777D01*
X1116617Y230878D01*
X1116718Y230976D01*
X1116822Y231071D01*
X1116929Y231163D01*
X1117038Y231252D01*
X1117150Y231337D01*
X1117264Y231420D01*
X1117380Y231500D01*
X1117499Y231576D01*
X1117620Y231648D01*
X1117742Y231718D01*
X1117867Y231783D01*
X1117993Y231846D01*
X1118121Y231904D01*
X1118251Y231959D01*
X1118382Y232011D01*
X1118515Y232058D01*
X1118649Y232102D01*
X1118784Y232143D01*
X1118920Y232179D01*
X1119057Y232211D01*
X1119195Y232240D01*
X1119333Y232265D01*
X1119473Y232285D01*
X1119613Y232302D01*
X1119753Y232315D01*
X1119894Y232324D01*
X1120034Y232329D01*
X1120175Y232330D01*
X1120316Y232327D01*
X1120457Y232320D01*
X1120597Y232309D01*
X1120737Y232294D01*
X1120877Y232275D01*
X1121016Y232253D01*
X1121154Y232226D01*
X1121292Y232196D01*
X1121428Y232161D01*
X1121564Y232123D01*
X1121698Y232081D01*
X1121832Y232035D01*
X1121964Y231986D01*
X1122094Y231932D01*
X1122223Y231875D01*
X1122350Y231815D01*
X1122476Y231751D01*
X1122599Y231683D01*
X1122721Y231612D01*
X1122841Y231538D01*
X1122958Y231460D01*
X1123073Y231379D01*
X1123186Y231295D01*
X1123297Y231208D01*
X1123405Y231117D01*
X1123510Y231024D01*
X1123613Y230927D01*
X1123713Y230828D01*
X1123810Y230726D01*
X1123904Y230621D01*
X1123995Y230514D01*
X1124083Y230404D01*
X1124168Y230292D01*
X1124250Y230177D01*
X1124329Y230060D01*
X1124404Y229941D01*
X1124476Y229820D01*
X1124544Y229697D01*
X1124609Y229572D01*
X1124671Y229445D01*
X1124728Y229316D01*
X1124783Y229186D01*
X1124833Y229055D01*
X1124880Y228922D01*
X1124923Y228788D01*
X1124962Y228652D01*
X1124997Y228516D01*
X1125029Y228379D01*
X1125056Y228241D01*
X1125080Y228102D01*
X1125100Y227962D01*
X1125116Y227822D01*
X1125128Y227682D01*
X1125136Y227541D01*
X1125140Y227400D01*
X1125140Y227260D01*
X1125136Y227119D01*
X1125128Y226978D01*
X1125116Y226838D01*
X1125100Y226698D01*
X1125080Y226558D01*
X1125056Y226419D01*
X1125029Y226281D01*
X1124997Y226144D01*
X1124962Y226008D01*
X1124923Y225872D01*
X1124880Y225738D01*
X1124833Y225605D01*
X1124783Y225474D01*
X1124728Y225344D01*
X1124671Y225215D01*
X1124609Y225088D01*
X1124544Y224963D01*
X1124476Y224840D01*
X1124404Y224719D01*
X1124329Y224600D01*
X1124250Y224483D01*
X1124168Y224368D01*
X1124083Y224256D01*
X1123995Y224146D01*
X1123904Y224039D01*
X1123810Y223934D01*
X1123713Y223832D01*
X1123613Y223733D01*
X1123510Y223636D01*
X1123405Y223543D01*
X1123297Y223452D01*
X1123186Y223365D01*
X1123073Y223281D01*
X1122958Y223200D01*
X1122841Y223122D01*
X1122721Y223048D01*
X1122599Y222977D01*
X1122476Y222909D01*
X1122350Y222845D01*
X1122223Y222785D01*
X1122094Y222728D01*
X1121964Y222674D01*
X1121832Y222625D01*
X1121698Y222579D01*
X1121564Y222537D01*
X1121428Y222499D01*
X1121292Y222464D01*
X1121154Y222434D01*
X1121016Y222407D01*
X1120877Y222385D01*
X1120737Y222366D01*
X1120597Y222351D01*
X1120457Y222340D01*
X1120316Y222333D01*
X1120175Y222330D01*
X1120034Y222331D01*
X1119894Y222336D01*
X1119753Y222345D01*
X1119613Y222358D01*
X1119473Y222375D01*
X1119333Y222395D01*
X1119195Y222420D01*
X1119057Y222449D01*
X1118920Y222481D01*
X1118784Y222517D01*
X1118649Y222558D01*
X1118515Y222602D01*
X1118382Y222649D01*
X1118251Y222701D01*
X1118121Y222756D01*
X1117993Y222814D01*
X1117867Y222877D01*
X1117742Y222942D01*
X1117620Y223012D01*
X1117499Y223084D01*
X1117380Y223160D01*
X1117264Y223240D01*
X1117150Y223323D01*
X1117038Y223408D01*
X1116929Y223497D01*
X1116822Y223589D01*
X1116718Y223684D01*
X1116617Y223782D01*
X1116518Y223883D01*
X1116423Y223986D01*
X1116330Y224092D01*
X1116240Y224201D01*
X1116154Y224312D01*
X1116070Y224425D01*
X1115990Y224541D01*
X1115913Y224659D01*
X1115840Y224779D01*
X1115769Y224902D01*
X1115703Y225026D01*
X1115640Y225152D01*
X1115580Y225279D01*
X1115524Y225408D01*
X1115472Y225539D01*
X1115423Y225671D01*
X1115378Y225805D01*
X1115337Y225940D01*
X1115300Y226076D01*
X1115266Y226212D01*
X1115237Y226350D01*
X1115211Y226489D01*
X1115190Y226628D01*
X1115172Y226768D01*
X1115158Y226908D01*
X1115148Y227048D01*
X1115142Y227189D01*
X1115140Y227330D01*
D15*
X1120140Y227330D03*
D10*
X1089740Y227330D02*
X1089742Y227471D01*
X1089748Y227612D01*
X1089758Y227752D01*
X1089772Y227892D01*
X1089790Y228032D01*
X1089811Y228171D01*
X1089837Y228310D01*
X1089866Y228448D01*
X1089900Y228584D01*
X1089937Y228720D01*
X1089978Y228855D01*
X1090023Y228989D01*
X1090072Y229121D01*
X1090124Y229252D01*
X1090180Y229381D01*
X1090240Y229508D01*
X1090303Y229634D01*
X1090369Y229758D01*
X1090440Y229881D01*
X1090513Y230001D01*
X1090590Y230119D01*
X1090670Y230235D01*
X1090754Y230348D01*
X1090840Y230459D01*
X1090930Y230568D01*
X1091023Y230674D01*
X1091118Y230777D01*
X1091217Y230878D01*
X1091318Y230976D01*
X1091422Y231071D01*
X1091529Y231163D01*
X1091638Y231252D01*
X1091750Y231337D01*
X1091864Y231420D01*
X1091980Y231500D01*
X1092099Y231576D01*
X1092220Y231648D01*
X1092342Y231718D01*
X1092467Y231783D01*
X1092593Y231846D01*
X1092721Y231904D01*
X1092851Y231959D01*
X1092982Y232011D01*
X1093115Y232058D01*
X1093249Y232102D01*
X1093384Y232143D01*
X1093520Y232179D01*
X1093657Y232211D01*
X1093795Y232240D01*
X1093933Y232265D01*
X1094073Y232285D01*
X1094213Y232302D01*
X1094353Y232315D01*
X1094494Y232324D01*
X1094634Y232329D01*
X1094775Y232330D01*
X1094916Y232327D01*
X1095057Y232320D01*
X1095197Y232309D01*
X1095337Y232294D01*
X1095477Y232275D01*
X1095616Y232253D01*
X1095754Y232226D01*
X1095892Y232196D01*
X1096028Y232161D01*
X1096164Y232123D01*
X1096298Y232081D01*
X1096432Y232035D01*
X1096564Y231986D01*
X1096694Y231932D01*
X1096823Y231875D01*
X1096950Y231815D01*
X1097076Y231751D01*
X1097199Y231683D01*
X1097321Y231612D01*
X1097441Y231538D01*
X1097558Y231460D01*
X1097673Y231379D01*
X1097786Y231295D01*
X1097897Y231208D01*
X1098005Y231117D01*
X1098110Y231024D01*
X1098213Y230927D01*
X1098313Y230828D01*
X1098410Y230726D01*
X1098504Y230621D01*
X1098595Y230514D01*
X1098683Y230404D01*
X1098768Y230292D01*
X1098850Y230177D01*
X1098929Y230060D01*
X1099004Y229941D01*
X1099076Y229820D01*
X1099144Y229697D01*
X1099209Y229572D01*
X1099271Y229445D01*
X1099328Y229316D01*
X1099383Y229186D01*
X1099433Y229055D01*
X1099480Y228922D01*
X1099523Y228788D01*
X1099562Y228652D01*
X1099597Y228516D01*
X1099629Y228379D01*
X1099656Y228241D01*
X1099680Y228102D01*
X1099700Y227962D01*
X1099716Y227822D01*
X1099728Y227682D01*
X1099736Y227541D01*
X1099740Y227400D01*
X1099740Y227260D01*
X1099736Y227119D01*
X1099728Y226978D01*
X1099716Y226838D01*
X1099700Y226698D01*
X1099680Y226558D01*
X1099656Y226419D01*
X1099629Y226281D01*
X1099597Y226144D01*
X1099562Y226008D01*
X1099523Y225872D01*
X1099480Y225738D01*
X1099433Y225605D01*
X1099383Y225474D01*
X1099328Y225344D01*
X1099271Y225215D01*
X1099209Y225088D01*
X1099144Y224963D01*
X1099076Y224840D01*
X1099004Y224719D01*
X1098929Y224600D01*
X1098850Y224483D01*
X1098768Y224368D01*
X1098683Y224256D01*
X1098595Y224146D01*
X1098504Y224039D01*
X1098410Y223934D01*
X1098313Y223832D01*
X1098213Y223733D01*
X1098110Y223636D01*
X1098005Y223543D01*
X1097897Y223452D01*
X1097786Y223365D01*
X1097673Y223281D01*
X1097558Y223200D01*
X1097441Y223122D01*
X1097321Y223048D01*
X1097199Y222977D01*
X1097076Y222909D01*
X1096950Y222845D01*
X1096823Y222785D01*
X1096694Y222728D01*
X1096564Y222674D01*
X1096432Y222625D01*
X1096298Y222579D01*
X1096164Y222537D01*
X1096028Y222499D01*
X1095892Y222464D01*
X1095754Y222434D01*
X1095616Y222407D01*
X1095477Y222385D01*
X1095337Y222366D01*
X1095197Y222351D01*
X1095057Y222340D01*
X1094916Y222333D01*
X1094775Y222330D01*
X1094634Y222331D01*
X1094494Y222336D01*
X1094353Y222345D01*
X1094213Y222358D01*
X1094073Y222375D01*
X1093933Y222395D01*
X1093795Y222420D01*
X1093657Y222449D01*
X1093520Y222481D01*
X1093384Y222517D01*
X1093249Y222558D01*
X1093115Y222602D01*
X1092982Y222649D01*
X1092851Y222701D01*
X1092721Y222756D01*
X1092593Y222814D01*
X1092467Y222877D01*
X1092342Y222942D01*
X1092220Y223012D01*
X1092099Y223084D01*
X1091980Y223160D01*
X1091864Y223240D01*
X1091750Y223323D01*
X1091638Y223408D01*
X1091529Y223497D01*
X1091422Y223589D01*
X1091318Y223684D01*
X1091217Y223782D01*
X1091118Y223883D01*
X1091023Y223986D01*
X1090930Y224092D01*
X1090840Y224201D01*
X1090754Y224312D01*
X1090670Y224425D01*
X1090590Y224541D01*
X1090513Y224659D01*
X1090440Y224779D01*
X1090369Y224902D01*
X1090303Y225026D01*
X1090240Y225152D01*
X1090180Y225279D01*
X1090124Y225408D01*
X1090072Y225539D01*
X1090023Y225671D01*
X1089978Y225805D01*
X1089937Y225940D01*
X1089900Y226076D01*
X1089866Y226212D01*
X1089837Y226350D01*
X1089811Y226489D01*
X1089790Y226628D01*
X1089772Y226768D01*
X1089758Y226908D01*
X1089748Y227048D01*
X1089742Y227189D01*
X1089740Y227330D01*
D15*
X1094740Y227330D03*
D10*
X1089740Y252730D02*
X1089742Y252871D01*
X1089748Y253012D01*
X1089758Y253152D01*
X1089772Y253292D01*
X1089790Y253432D01*
X1089811Y253571D01*
X1089837Y253710D01*
X1089866Y253848D01*
X1089900Y253984D01*
X1089937Y254120D01*
X1089978Y254255D01*
X1090023Y254389D01*
X1090072Y254521D01*
X1090124Y254652D01*
X1090180Y254781D01*
X1090240Y254908D01*
X1090303Y255034D01*
X1090369Y255158D01*
X1090440Y255281D01*
X1090513Y255401D01*
X1090590Y255519D01*
X1090670Y255635D01*
X1090754Y255748D01*
X1090840Y255859D01*
X1090930Y255968D01*
X1091023Y256074D01*
X1091118Y256177D01*
X1091217Y256278D01*
X1091318Y256376D01*
X1091422Y256471D01*
X1091529Y256563D01*
X1091638Y256652D01*
X1091750Y256737D01*
X1091864Y256820D01*
X1091980Y256900D01*
X1092099Y256976D01*
X1092220Y257048D01*
X1092342Y257118D01*
X1092467Y257183D01*
X1092593Y257246D01*
X1092721Y257304D01*
X1092851Y257359D01*
X1092982Y257411D01*
X1093115Y257458D01*
X1093249Y257502D01*
X1093384Y257543D01*
X1093520Y257579D01*
X1093657Y257611D01*
X1093795Y257640D01*
X1093933Y257665D01*
X1094073Y257685D01*
X1094213Y257702D01*
X1094353Y257715D01*
X1094494Y257724D01*
X1094634Y257729D01*
X1094775Y257730D01*
X1094916Y257727D01*
X1095057Y257720D01*
X1095197Y257709D01*
X1095337Y257694D01*
X1095477Y257675D01*
X1095616Y257653D01*
X1095754Y257626D01*
X1095892Y257596D01*
X1096028Y257561D01*
X1096164Y257523D01*
X1096298Y257481D01*
X1096432Y257435D01*
X1096564Y257386D01*
X1096694Y257332D01*
X1096823Y257275D01*
X1096950Y257215D01*
X1097076Y257151D01*
X1097199Y257083D01*
X1097321Y257012D01*
X1097441Y256938D01*
X1097558Y256860D01*
X1097673Y256779D01*
X1097786Y256695D01*
X1097897Y256608D01*
X1098005Y256517D01*
X1098110Y256424D01*
X1098213Y256327D01*
X1098313Y256228D01*
X1098410Y256126D01*
X1098504Y256021D01*
X1098595Y255914D01*
X1098683Y255804D01*
X1098768Y255692D01*
X1098850Y255577D01*
X1098929Y255460D01*
X1099004Y255341D01*
X1099076Y255220D01*
X1099144Y255097D01*
X1099209Y254972D01*
X1099271Y254845D01*
X1099328Y254716D01*
X1099383Y254586D01*
X1099433Y254455D01*
X1099480Y254322D01*
X1099523Y254188D01*
X1099562Y254052D01*
X1099597Y253916D01*
X1099629Y253779D01*
X1099656Y253641D01*
X1099680Y253502D01*
X1099700Y253362D01*
X1099716Y253222D01*
X1099728Y253082D01*
X1099736Y252941D01*
X1099740Y252800D01*
X1099740Y252660D01*
X1099736Y252519D01*
X1099728Y252378D01*
X1099716Y252238D01*
X1099700Y252098D01*
X1099680Y251958D01*
X1099656Y251819D01*
X1099629Y251681D01*
X1099597Y251544D01*
X1099562Y251408D01*
X1099523Y251272D01*
X1099480Y251138D01*
X1099433Y251005D01*
X1099383Y250874D01*
X1099328Y250744D01*
X1099271Y250615D01*
X1099209Y250488D01*
X1099144Y250363D01*
X1099076Y250240D01*
X1099004Y250119D01*
X1098929Y250000D01*
X1098850Y249883D01*
X1098768Y249768D01*
X1098683Y249656D01*
X1098595Y249546D01*
X1098504Y249439D01*
X1098410Y249334D01*
X1098313Y249232D01*
X1098213Y249133D01*
X1098110Y249036D01*
X1098005Y248943D01*
X1097897Y248852D01*
X1097786Y248765D01*
X1097673Y248681D01*
X1097558Y248600D01*
X1097441Y248522D01*
X1097321Y248448D01*
X1097199Y248377D01*
X1097076Y248309D01*
X1096950Y248245D01*
X1096823Y248185D01*
X1096694Y248128D01*
X1096564Y248074D01*
X1096432Y248025D01*
X1096298Y247979D01*
X1096164Y247937D01*
X1096028Y247899D01*
X1095892Y247864D01*
X1095754Y247834D01*
X1095616Y247807D01*
X1095477Y247785D01*
X1095337Y247766D01*
X1095197Y247751D01*
X1095057Y247740D01*
X1094916Y247733D01*
X1094775Y247730D01*
X1094634Y247731D01*
X1094494Y247736D01*
X1094353Y247745D01*
X1094213Y247758D01*
X1094073Y247775D01*
X1093933Y247795D01*
X1093795Y247820D01*
X1093657Y247849D01*
X1093520Y247881D01*
X1093384Y247917D01*
X1093249Y247958D01*
X1093115Y248002D01*
X1092982Y248049D01*
X1092851Y248101D01*
X1092721Y248156D01*
X1092593Y248214D01*
X1092467Y248277D01*
X1092342Y248342D01*
X1092220Y248412D01*
X1092099Y248484D01*
X1091980Y248560D01*
X1091864Y248640D01*
X1091750Y248723D01*
X1091638Y248808D01*
X1091529Y248897D01*
X1091422Y248989D01*
X1091318Y249084D01*
X1091217Y249182D01*
X1091118Y249283D01*
X1091023Y249386D01*
X1090930Y249492D01*
X1090840Y249601D01*
X1090754Y249712D01*
X1090670Y249825D01*
X1090590Y249941D01*
X1090513Y250059D01*
X1090440Y250179D01*
X1090369Y250302D01*
X1090303Y250426D01*
X1090240Y250552D01*
X1090180Y250679D01*
X1090124Y250808D01*
X1090072Y250939D01*
X1090023Y251071D01*
X1089978Y251205D01*
X1089937Y251340D01*
X1089900Y251476D01*
X1089866Y251612D01*
X1089837Y251750D01*
X1089811Y251889D01*
X1089790Y252028D01*
X1089772Y252168D01*
X1089758Y252308D01*
X1089748Y252448D01*
X1089742Y252589D01*
X1089740Y252730D01*
D15*
X1094740Y252730D03*
D14*
X1145540Y227330D03*
D10*
X1140540Y252730D02*
X1140542Y252871D01*
X1140548Y253012D01*
X1140558Y253152D01*
X1140572Y253292D01*
X1140590Y253432D01*
X1140611Y253571D01*
X1140637Y253710D01*
X1140666Y253848D01*
X1140700Y253984D01*
X1140737Y254120D01*
X1140778Y254255D01*
X1140823Y254389D01*
X1140872Y254521D01*
X1140924Y254652D01*
X1140980Y254781D01*
X1141040Y254908D01*
X1141103Y255034D01*
X1141169Y255158D01*
X1141240Y255281D01*
X1141313Y255401D01*
X1141390Y255519D01*
X1141470Y255635D01*
X1141554Y255748D01*
X1141640Y255859D01*
X1141730Y255968D01*
X1141823Y256074D01*
X1141918Y256177D01*
X1142017Y256278D01*
X1142118Y256376D01*
X1142222Y256471D01*
X1142329Y256563D01*
X1142438Y256652D01*
X1142550Y256737D01*
X1142664Y256820D01*
X1142780Y256900D01*
X1142899Y256976D01*
X1143020Y257048D01*
X1143142Y257118D01*
X1143267Y257183D01*
X1143393Y257246D01*
X1143521Y257304D01*
X1143651Y257359D01*
X1143782Y257411D01*
X1143915Y257458D01*
X1144049Y257502D01*
X1144184Y257543D01*
X1144320Y257579D01*
X1144457Y257611D01*
X1144595Y257640D01*
X1144733Y257665D01*
X1144873Y257685D01*
X1145013Y257702D01*
X1145153Y257715D01*
X1145294Y257724D01*
X1145434Y257729D01*
X1145575Y257730D01*
X1145716Y257727D01*
X1145857Y257720D01*
X1145997Y257709D01*
X1146137Y257694D01*
X1146277Y257675D01*
X1146416Y257653D01*
X1146554Y257626D01*
X1146692Y257596D01*
X1146828Y257561D01*
X1146964Y257523D01*
X1147098Y257481D01*
X1147232Y257435D01*
X1147364Y257386D01*
X1147494Y257332D01*
X1147623Y257275D01*
X1147750Y257215D01*
X1147876Y257151D01*
X1147999Y257083D01*
X1148121Y257012D01*
X1148241Y256938D01*
X1148358Y256860D01*
X1148473Y256779D01*
X1148586Y256695D01*
X1148697Y256608D01*
X1148805Y256517D01*
X1148910Y256424D01*
X1149013Y256327D01*
X1149113Y256228D01*
X1149210Y256126D01*
X1149304Y256021D01*
X1149395Y255914D01*
X1149483Y255804D01*
X1149568Y255692D01*
X1149650Y255577D01*
X1149729Y255460D01*
X1149804Y255341D01*
X1149876Y255220D01*
X1149944Y255097D01*
X1150009Y254972D01*
X1150071Y254845D01*
X1150128Y254716D01*
X1150183Y254586D01*
X1150233Y254455D01*
X1150280Y254322D01*
X1150323Y254188D01*
X1150362Y254052D01*
X1150397Y253916D01*
X1150429Y253779D01*
X1150456Y253641D01*
X1150480Y253502D01*
X1150500Y253362D01*
X1150516Y253222D01*
X1150528Y253082D01*
X1150536Y252941D01*
X1150540Y252800D01*
X1150540Y252660D01*
X1150536Y252519D01*
X1150528Y252378D01*
X1150516Y252238D01*
X1150500Y252098D01*
X1150480Y251958D01*
X1150456Y251819D01*
X1150429Y251681D01*
X1150397Y251544D01*
X1150362Y251408D01*
X1150323Y251272D01*
X1150280Y251138D01*
X1150233Y251005D01*
X1150183Y250874D01*
X1150128Y250744D01*
X1150071Y250615D01*
X1150009Y250488D01*
X1149944Y250363D01*
X1149876Y250240D01*
X1149804Y250119D01*
X1149729Y250000D01*
X1149650Y249883D01*
X1149568Y249768D01*
X1149483Y249656D01*
X1149395Y249546D01*
X1149304Y249439D01*
X1149210Y249334D01*
X1149113Y249232D01*
X1149013Y249133D01*
X1148910Y249036D01*
X1148805Y248943D01*
X1148697Y248852D01*
X1148586Y248765D01*
X1148473Y248681D01*
X1148358Y248600D01*
X1148241Y248522D01*
X1148121Y248448D01*
X1147999Y248377D01*
X1147876Y248309D01*
X1147750Y248245D01*
X1147623Y248185D01*
X1147494Y248128D01*
X1147364Y248074D01*
X1147232Y248025D01*
X1147098Y247979D01*
X1146964Y247937D01*
X1146828Y247899D01*
X1146692Y247864D01*
X1146554Y247834D01*
X1146416Y247807D01*
X1146277Y247785D01*
X1146137Y247766D01*
X1145997Y247751D01*
X1145857Y247740D01*
X1145716Y247733D01*
X1145575Y247730D01*
X1145434Y247731D01*
X1145294Y247736D01*
X1145153Y247745D01*
X1145013Y247758D01*
X1144873Y247775D01*
X1144733Y247795D01*
X1144595Y247820D01*
X1144457Y247849D01*
X1144320Y247881D01*
X1144184Y247917D01*
X1144049Y247958D01*
X1143915Y248002D01*
X1143782Y248049D01*
X1143651Y248101D01*
X1143521Y248156D01*
X1143393Y248214D01*
X1143267Y248277D01*
X1143142Y248342D01*
X1143020Y248412D01*
X1142899Y248484D01*
X1142780Y248560D01*
X1142664Y248640D01*
X1142550Y248723D01*
X1142438Y248808D01*
X1142329Y248897D01*
X1142222Y248989D01*
X1142118Y249084D01*
X1142017Y249182D01*
X1141918Y249283D01*
X1141823Y249386D01*
X1141730Y249492D01*
X1141640Y249601D01*
X1141554Y249712D01*
X1141470Y249825D01*
X1141390Y249941D01*
X1141313Y250059D01*
X1141240Y250179D01*
X1141169Y250302D01*
X1141103Y250426D01*
X1141040Y250552D01*
X1140980Y250679D01*
X1140924Y250808D01*
X1140872Y250939D01*
X1140823Y251071D01*
X1140778Y251205D01*
X1140737Y251340D01*
X1140700Y251476D01*
X1140666Y251612D01*
X1140637Y251750D01*
X1140611Y251889D01*
X1140590Y252028D01*
X1140572Y252168D01*
X1140558Y252308D01*
X1140548Y252448D01*
X1140542Y252589D01*
X1140540Y252730D01*
D15*
X1145540Y252730D03*
D11*
X0Y281940D03*
X0Y262890D03*
X0Y243840D03*
X1407160Y123190D03*
X1407160Y148590D03*
X1407160Y167640D03*
X1407160Y186690D03*
X1407160Y256540D03*
X1407160Y281940D03*
D12*
G36*
X1442938Y94570D02*
X1433240Y84872D01*
X1414562Y103550D01*
X1424260Y113248D01*
X1442938Y94570D01*
G37*
G36*
X1436588Y88220D02*
X1426890Y78522D01*
X1408212Y97200D01*
X1417910Y106898D01*
X1436588Y88220D01*
G37*
D13*
X236220Y69850D03*
D14*
X236220Y44450D03*
X261620Y69850D03*
X261620Y44450D03*
X287020Y69850D03*
X287020Y44450D03*
X337820Y44450D03*
D10*
X332820Y69850D02*
X332822Y69991D01*
X332828Y70132D01*
X332838Y70272D01*
X332852Y70412D01*
X332870Y70552D01*
X332891Y70691D01*
X332917Y70830D01*
X332946Y70968D01*
X332980Y71104D01*
X333017Y71240D01*
X333058Y71375D01*
X333103Y71509D01*
X333152Y71641D01*
X333204Y71772D01*
X333260Y71901D01*
X333320Y72028D01*
X333383Y72154D01*
X333449Y72278D01*
X333520Y72401D01*
X333593Y72521D01*
X333670Y72639D01*
X333750Y72755D01*
X333834Y72868D01*
X333920Y72979D01*
X334010Y73088D01*
X334103Y73194D01*
X334198Y73297D01*
X334297Y73398D01*
X334398Y73496D01*
X334502Y73591D01*
X334609Y73683D01*
X334718Y73772D01*
X334830Y73857D01*
X334944Y73940D01*
X335060Y74020D01*
X335179Y74096D01*
X335300Y74168D01*
X335422Y74238D01*
X335547Y74303D01*
X335673Y74366D01*
X335801Y74424D01*
X335931Y74479D01*
X336062Y74531D01*
X336195Y74578D01*
X336329Y74622D01*
X336464Y74663D01*
X336600Y74699D01*
X336737Y74731D01*
X336875Y74760D01*
X337013Y74785D01*
X337153Y74805D01*
X337293Y74822D01*
X337433Y74835D01*
X337574Y74844D01*
X337714Y74849D01*
X337855Y74850D01*
X337996Y74847D01*
X338137Y74840D01*
X338277Y74829D01*
X338417Y74814D01*
X338557Y74795D01*
X338696Y74773D01*
X338834Y74746D01*
X338972Y74716D01*
X339108Y74681D01*
X339244Y74643D01*
X339378Y74601D01*
X339512Y74555D01*
X339644Y74506D01*
X339774Y74452D01*
X339903Y74395D01*
X340030Y74335D01*
X340156Y74271D01*
X340279Y74203D01*
X340401Y74132D01*
X340521Y74058D01*
X340638Y73980D01*
X340753Y73899D01*
X340866Y73815D01*
X340977Y73728D01*
X341085Y73637D01*
X341190Y73544D01*
X341293Y73447D01*
X341393Y73348D01*
X341490Y73246D01*
X341584Y73141D01*
X341675Y73034D01*
X341763Y72924D01*
X341848Y72812D01*
X341930Y72697D01*
X342009Y72580D01*
X342084Y72461D01*
X342156Y72340D01*
X342224Y72217D01*
X342289Y72092D01*
X342351Y71965D01*
X342408Y71836D01*
X342463Y71706D01*
X342513Y71575D01*
X342560Y71442D01*
X342603Y71308D01*
X342642Y71172D01*
X342677Y71036D01*
X342709Y70899D01*
X342736Y70761D01*
X342760Y70622D01*
X342780Y70482D01*
X342796Y70342D01*
X342808Y70202D01*
X342816Y70061D01*
X342820Y69920D01*
X342820Y69780D01*
X342816Y69639D01*
X342808Y69498D01*
X342796Y69358D01*
X342780Y69218D01*
X342760Y69078D01*
X342736Y68939D01*
X342709Y68801D01*
X342677Y68664D01*
X342642Y68528D01*
X342603Y68392D01*
X342560Y68258D01*
X342513Y68125D01*
X342463Y67994D01*
X342408Y67864D01*
X342351Y67735D01*
X342289Y67608D01*
X342224Y67483D01*
X342156Y67360D01*
X342084Y67239D01*
X342009Y67120D01*
X341930Y67003D01*
X341848Y66888D01*
X341763Y66776D01*
X341675Y66666D01*
X341584Y66559D01*
X341490Y66454D01*
X341393Y66352D01*
X341293Y66253D01*
X341190Y66156D01*
X341085Y66063D01*
X340977Y65972D01*
X340866Y65885D01*
X340753Y65801D01*
X340638Y65720D01*
X340521Y65642D01*
X340401Y65568D01*
X340279Y65497D01*
X340156Y65429D01*
X340030Y65365D01*
X339903Y65305D01*
X339774Y65248D01*
X339644Y65194D01*
X339512Y65145D01*
X339378Y65099D01*
X339244Y65057D01*
X339108Y65019D01*
X338972Y64984D01*
X338834Y64954D01*
X338696Y64927D01*
X338557Y64905D01*
X338417Y64886D01*
X338277Y64871D01*
X338137Y64860D01*
X337996Y64853D01*
X337855Y64850D01*
X337714Y64851D01*
X337574Y64856D01*
X337433Y64865D01*
X337293Y64878D01*
X337153Y64895D01*
X337013Y64915D01*
X336875Y64940D01*
X336737Y64969D01*
X336600Y65001D01*
X336464Y65037D01*
X336329Y65078D01*
X336195Y65122D01*
X336062Y65169D01*
X335931Y65221D01*
X335801Y65276D01*
X335673Y65334D01*
X335547Y65397D01*
X335422Y65462D01*
X335300Y65532D01*
X335179Y65604D01*
X335060Y65680D01*
X334944Y65760D01*
X334830Y65843D01*
X334718Y65928D01*
X334609Y66017D01*
X334502Y66109D01*
X334398Y66204D01*
X334297Y66302D01*
X334198Y66403D01*
X334103Y66506D01*
X334010Y66612D01*
X333920Y66721D01*
X333834Y66832D01*
X333750Y66945D01*
X333670Y67061D01*
X333593Y67179D01*
X333520Y67299D01*
X333449Y67422D01*
X333383Y67546D01*
X333320Y67672D01*
X333260Y67799D01*
X333204Y67928D01*
X333152Y68059D01*
X333103Y68191D01*
X333058Y68325D01*
X333017Y68460D01*
X332980Y68596D01*
X332946Y68732D01*
X332917Y68870D01*
X332891Y69009D01*
X332870Y69148D01*
X332852Y69288D01*
X332838Y69428D01*
X332828Y69568D01*
X332822Y69709D01*
X332820Y69850D01*
D15*
X337820Y69850D03*
D10*
X358220Y69850D02*
X358222Y69991D01*
X358228Y70132D01*
X358238Y70272D01*
X358252Y70412D01*
X358270Y70552D01*
X358291Y70691D01*
X358317Y70830D01*
X358346Y70968D01*
X358380Y71104D01*
X358417Y71240D01*
X358458Y71375D01*
X358503Y71509D01*
X358552Y71641D01*
X358604Y71772D01*
X358660Y71901D01*
X358720Y72028D01*
X358783Y72154D01*
X358849Y72278D01*
X358920Y72401D01*
X358993Y72521D01*
X359070Y72639D01*
X359150Y72755D01*
X359234Y72868D01*
X359320Y72979D01*
X359410Y73088D01*
X359503Y73194D01*
X359598Y73297D01*
X359697Y73398D01*
X359798Y73496D01*
X359902Y73591D01*
X360009Y73683D01*
X360118Y73772D01*
X360230Y73857D01*
X360344Y73940D01*
X360460Y74020D01*
X360579Y74096D01*
X360700Y74168D01*
X360822Y74238D01*
X360947Y74303D01*
X361073Y74366D01*
X361201Y74424D01*
X361331Y74479D01*
X361462Y74531D01*
X361595Y74578D01*
X361729Y74622D01*
X361864Y74663D01*
X362000Y74699D01*
X362137Y74731D01*
X362275Y74760D01*
X362413Y74785D01*
X362553Y74805D01*
X362693Y74822D01*
X362833Y74835D01*
X362974Y74844D01*
X363114Y74849D01*
X363255Y74850D01*
X363396Y74847D01*
X363537Y74840D01*
X363677Y74829D01*
X363817Y74814D01*
X363957Y74795D01*
X364096Y74773D01*
X364234Y74746D01*
X364372Y74716D01*
X364508Y74681D01*
X364644Y74643D01*
X364778Y74601D01*
X364912Y74555D01*
X365044Y74506D01*
X365174Y74452D01*
X365303Y74395D01*
X365430Y74335D01*
X365556Y74271D01*
X365679Y74203D01*
X365801Y74132D01*
X365921Y74058D01*
X366038Y73980D01*
X366153Y73899D01*
X366266Y73815D01*
X366377Y73728D01*
X366485Y73637D01*
X366590Y73544D01*
X366693Y73447D01*
X366793Y73348D01*
X366890Y73246D01*
X366984Y73141D01*
X367075Y73034D01*
X367163Y72924D01*
X367248Y72812D01*
X367330Y72697D01*
X367409Y72580D01*
X367484Y72461D01*
X367556Y72340D01*
X367624Y72217D01*
X367689Y72092D01*
X367751Y71965D01*
X367808Y71836D01*
X367863Y71706D01*
X367913Y71575D01*
X367960Y71442D01*
X368003Y71308D01*
X368042Y71172D01*
X368077Y71036D01*
X368109Y70899D01*
X368136Y70761D01*
X368160Y70622D01*
X368180Y70482D01*
X368196Y70342D01*
X368208Y70202D01*
X368216Y70061D01*
X368220Y69920D01*
X368220Y69780D01*
X368216Y69639D01*
X368208Y69498D01*
X368196Y69358D01*
X368180Y69218D01*
X368160Y69078D01*
X368136Y68939D01*
X368109Y68801D01*
X368077Y68664D01*
X368042Y68528D01*
X368003Y68392D01*
X367960Y68258D01*
X367913Y68125D01*
X367863Y67994D01*
X367808Y67864D01*
X367751Y67735D01*
X367689Y67608D01*
X367624Y67483D01*
X367556Y67360D01*
X367484Y67239D01*
X367409Y67120D01*
X367330Y67003D01*
X367248Y66888D01*
X367163Y66776D01*
X367075Y66666D01*
X366984Y66559D01*
X366890Y66454D01*
X366793Y66352D01*
X366693Y66253D01*
X366590Y66156D01*
X366485Y66063D01*
X366377Y65972D01*
X366266Y65885D01*
X366153Y65801D01*
X366038Y65720D01*
X365921Y65642D01*
X365801Y65568D01*
X365679Y65497D01*
X365556Y65429D01*
X365430Y65365D01*
X365303Y65305D01*
X365174Y65248D01*
X365044Y65194D01*
X364912Y65145D01*
X364778Y65099D01*
X364644Y65057D01*
X364508Y65019D01*
X364372Y64984D01*
X364234Y64954D01*
X364096Y64927D01*
X363957Y64905D01*
X363817Y64886D01*
X363677Y64871D01*
X363537Y64860D01*
X363396Y64853D01*
X363255Y64850D01*
X363114Y64851D01*
X362974Y64856D01*
X362833Y64865D01*
X362693Y64878D01*
X362553Y64895D01*
X362413Y64915D01*
X362275Y64940D01*
X362137Y64969D01*
X362000Y65001D01*
X361864Y65037D01*
X361729Y65078D01*
X361595Y65122D01*
X361462Y65169D01*
X361331Y65221D01*
X361201Y65276D01*
X361073Y65334D01*
X360947Y65397D01*
X360822Y65462D01*
X360700Y65532D01*
X360579Y65604D01*
X360460Y65680D01*
X360344Y65760D01*
X360230Y65843D01*
X360118Y65928D01*
X360009Y66017D01*
X359902Y66109D01*
X359798Y66204D01*
X359697Y66302D01*
X359598Y66403D01*
X359503Y66506D01*
X359410Y66612D01*
X359320Y66721D01*
X359234Y66832D01*
X359150Y66945D01*
X359070Y67061D01*
X358993Y67179D01*
X358920Y67299D01*
X358849Y67422D01*
X358783Y67546D01*
X358720Y67672D01*
X358660Y67799D01*
X358604Y67928D01*
X358552Y68059D01*
X358503Y68191D01*
X358458Y68325D01*
X358417Y68460D01*
X358380Y68596D01*
X358346Y68732D01*
X358317Y68870D01*
X358291Y69009D01*
X358270Y69148D01*
X358252Y69288D01*
X358238Y69428D01*
X358228Y69568D01*
X358222Y69709D01*
X358220Y69850D01*
D15*
X363220Y69850D03*
D10*
X358220Y44450D02*
X358222Y44591D01*
X358228Y44732D01*
X358238Y44872D01*
X358252Y45012D01*
X358270Y45152D01*
X358291Y45291D01*
X358317Y45430D01*
X358346Y45568D01*
X358380Y45704D01*
X358417Y45840D01*
X358458Y45975D01*
X358503Y46109D01*
X358552Y46241D01*
X358604Y46372D01*
X358660Y46501D01*
X358720Y46628D01*
X358783Y46754D01*
X358849Y46878D01*
X358920Y47001D01*
X358993Y47121D01*
X359070Y47239D01*
X359150Y47355D01*
X359234Y47468D01*
X359320Y47579D01*
X359410Y47688D01*
X359503Y47794D01*
X359598Y47897D01*
X359697Y47998D01*
X359798Y48096D01*
X359902Y48191D01*
X360009Y48283D01*
X360118Y48372D01*
X360230Y48457D01*
X360344Y48540D01*
X360460Y48620D01*
X360579Y48696D01*
X360700Y48768D01*
X360822Y48838D01*
X360947Y48903D01*
X361073Y48966D01*
X361201Y49024D01*
X361331Y49079D01*
X361462Y49131D01*
X361595Y49178D01*
X361729Y49222D01*
X361864Y49263D01*
X362000Y49299D01*
X362137Y49331D01*
X362275Y49360D01*
X362413Y49385D01*
X362553Y49405D01*
X362693Y49422D01*
X362833Y49435D01*
X362974Y49444D01*
X363114Y49449D01*
X363255Y49450D01*
X363396Y49447D01*
X363537Y49440D01*
X363677Y49429D01*
X363817Y49414D01*
X363957Y49395D01*
X364096Y49373D01*
X364234Y49346D01*
X364372Y49316D01*
X364508Y49281D01*
X364644Y49243D01*
X364778Y49201D01*
X364912Y49155D01*
X365044Y49106D01*
X365174Y49052D01*
X365303Y48995D01*
X365430Y48935D01*
X365556Y48871D01*
X365679Y48803D01*
X365801Y48732D01*
X365921Y48658D01*
X366038Y48580D01*
X366153Y48499D01*
X366266Y48415D01*
X366377Y48328D01*
X366485Y48237D01*
X366590Y48144D01*
X366693Y48047D01*
X366793Y47948D01*
X366890Y47846D01*
X366984Y47741D01*
X367075Y47634D01*
X367163Y47524D01*
X367248Y47412D01*
X367330Y47297D01*
X367409Y47180D01*
X367484Y47061D01*
X367556Y46940D01*
X367624Y46817D01*
X367689Y46692D01*
X367751Y46565D01*
X367808Y46436D01*
X367863Y46306D01*
X367913Y46175D01*
X367960Y46042D01*
X368003Y45908D01*
X368042Y45772D01*
X368077Y45636D01*
X368109Y45499D01*
X368136Y45361D01*
X368160Y45222D01*
X368180Y45082D01*
X368196Y44942D01*
X368208Y44802D01*
X368216Y44661D01*
X368220Y44520D01*
X368220Y44380D01*
X368216Y44239D01*
X368208Y44098D01*
X368196Y43958D01*
X368180Y43818D01*
X368160Y43678D01*
X368136Y43539D01*
X368109Y43401D01*
X368077Y43264D01*
X368042Y43128D01*
X368003Y42992D01*
X367960Y42858D01*
X367913Y42725D01*
X367863Y42594D01*
X367808Y42464D01*
X367751Y42335D01*
X367689Y42208D01*
X367624Y42083D01*
X367556Y41960D01*
X367484Y41839D01*
X367409Y41720D01*
X367330Y41603D01*
X367248Y41488D01*
X367163Y41376D01*
X367075Y41266D01*
X366984Y41159D01*
X366890Y41054D01*
X366793Y40952D01*
X366693Y40853D01*
X366590Y40756D01*
X366485Y40663D01*
X366377Y40572D01*
X366266Y40485D01*
X366153Y40401D01*
X366038Y40320D01*
X365921Y40242D01*
X365801Y40168D01*
X365679Y40097D01*
X365556Y40029D01*
X365430Y39965D01*
X365303Y39905D01*
X365174Y39848D01*
X365044Y39794D01*
X364912Y39745D01*
X364778Y39699D01*
X364644Y39657D01*
X364508Y39619D01*
X364372Y39584D01*
X364234Y39554D01*
X364096Y39527D01*
X363957Y39505D01*
X363817Y39486D01*
X363677Y39471D01*
X363537Y39460D01*
X363396Y39453D01*
X363255Y39450D01*
X363114Y39451D01*
X362974Y39456D01*
X362833Y39465D01*
X362693Y39478D01*
X362553Y39495D01*
X362413Y39515D01*
X362275Y39540D01*
X362137Y39569D01*
X362000Y39601D01*
X361864Y39637D01*
X361729Y39678D01*
X361595Y39722D01*
X361462Y39769D01*
X361331Y39821D01*
X361201Y39876D01*
X361073Y39934D01*
X360947Y39997D01*
X360822Y40062D01*
X360700Y40132D01*
X360579Y40204D01*
X360460Y40280D01*
X360344Y40360D01*
X360230Y40443D01*
X360118Y40528D01*
X360009Y40617D01*
X359902Y40709D01*
X359798Y40804D01*
X359697Y40902D01*
X359598Y41003D01*
X359503Y41106D01*
X359410Y41212D01*
X359320Y41321D01*
X359234Y41432D01*
X359150Y41545D01*
X359070Y41661D01*
X358993Y41779D01*
X358920Y41899D01*
X358849Y42022D01*
X358783Y42146D01*
X358720Y42272D01*
X358660Y42399D01*
X358604Y42528D01*
X358552Y42659D01*
X358503Y42791D01*
X358458Y42925D01*
X358417Y43060D01*
X358380Y43196D01*
X358346Y43332D01*
X358317Y43470D01*
X358291Y43609D01*
X358270Y43748D01*
X358252Y43888D01*
X358238Y44028D01*
X358228Y44168D01*
X358222Y44309D01*
X358220Y44450D01*
D15*
X363220Y44450D03*
D14*
X312420Y69850D03*
D10*
X307420Y44450D02*
X307422Y44591D01*
X307428Y44732D01*
X307438Y44872D01*
X307452Y45012D01*
X307470Y45152D01*
X307491Y45291D01*
X307517Y45430D01*
X307546Y45568D01*
X307580Y45704D01*
X307617Y45840D01*
X307658Y45975D01*
X307703Y46109D01*
X307752Y46241D01*
X307804Y46372D01*
X307860Y46501D01*
X307920Y46628D01*
X307983Y46754D01*
X308049Y46878D01*
X308120Y47001D01*
X308193Y47121D01*
X308270Y47239D01*
X308350Y47355D01*
X308434Y47468D01*
X308520Y47579D01*
X308610Y47688D01*
X308703Y47794D01*
X308798Y47897D01*
X308897Y47998D01*
X308998Y48096D01*
X309102Y48191D01*
X309209Y48283D01*
X309318Y48372D01*
X309430Y48457D01*
X309544Y48540D01*
X309660Y48620D01*
X309779Y48696D01*
X309900Y48768D01*
X310022Y48838D01*
X310147Y48903D01*
X310273Y48966D01*
X310401Y49024D01*
X310531Y49079D01*
X310662Y49131D01*
X310795Y49178D01*
X310929Y49222D01*
X311064Y49263D01*
X311200Y49299D01*
X311337Y49331D01*
X311475Y49360D01*
X311613Y49385D01*
X311753Y49405D01*
X311893Y49422D01*
X312033Y49435D01*
X312174Y49444D01*
X312314Y49449D01*
X312455Y49450D01*
X312596Y49447D01*
X312737Y49440D01*
X312877Y49429D01*
X313017Y49414D01*
X313157Y49395D01*
X313296Y49373D01*
X313434Y49346D01*
X313572Y49316D01*
X313708Y49281D01*
X313844Y49243D01*
X313978Y49201D01*
X314112Y49155D01*
X314244Y49106D01*
X314374Y49052D01*
X314503Y48995D01*
X314630Y48935D01*
X314756Y48871D01*
X314879Y48803D01*
X315001Y48732D01*
X315121Y48658D01*
X315238Y48580D01*
X315353Y48499D01*
X315466Y48415D01*
X315577Y48328D01*
X315685Y48237D01*
X315790Y48144D01*
X315893Y48047D01*
X315993Y47948D01*
X316090Y47846D01*
X316184Y47741D01*
X316275Y47634D01*
X316363Y47524D01*
X316448Y47412D01*
X316530Y47297D01*
X316609Y47180D01*
X316684Y47061D01*
X316756Y46940D01*
X316824Y46817D01*
X316889Y46692D01*
X316951Y46565D01*
X317008Y46436D01*
X317063Y46306D01*
X317113Y46175D01*
X317160Y46042D01*
X317203Y45908D01*
X317242Y45772D01*
X317277Y45636D01*
X317309Y45499D01*
X317336Y45361D01*
X317360Y45222D01*
X317380Y45082D01*
X317396Y44942D01*
X317408Y44802D01*
X317416Y44661D01*
X317420Y44520D01*
X317420Y44380D01*
X317416Y44239D01*
X317408Y44098D01*
X317396Y43958D01*
X317380Y43818D01*
X317360Y43678D01*
X317336Y43539D01*
X317309Y43401D01*
X317277Y43264D01*
X317242Y43128D01*
X317203Y42992D01*
X317160Y42858D01*
X317113Y42725D01*
X317063Y42594D01*
X317008Y42464D01*
X316951Y42335D01*
X316889Y42208D01*
X316824Y42083D01*
X316756Y41960D01*
X316684Y41839D01*
X316609Y41720D01*
X316530Y41603D01*
X316448Y41488D01*
X316363Y41376D01*
X316275Y41266D01*
X316184Y41159D01*
X316090Y41054D01*
X315993Y40952D01*
X315893Y40853D01*
X315790Y40756D01*
X315685Y40663D01*
X315577Y40572D01*
X315466Y40485D01*
X315353Y40401D01*
X315238Y40320D01*
X315121Y40242D01*
X315001Y40168D01*
X314879Y40097D01*
X314756Y40029D01*
X314630Y39965D01*
X314503Y39905D01*
X314374Y39848D01*
X314244Y39794D01*
X314112Y39745D01*
X313978Y39699D01*
X313844Y39657D01*
X313708Y39619D01*
X313572Y39584D01*
X313434Y39554D01*
X313296Y39527D01*
X313157Y39505D01*
X313017Y39486D01*
X312877Y39471D01*
X312737Y39460D01*
X312596Y39453D01*
X312455Y39450D01*
X312314Y39451D01*
X312174Y39456D01*
X312033Y39465D01*
X311893Y39478D01*
X311753Y39495D01*
X311613Y39515D01*
X311475Y39540D01*
X311337Y39569D01*
X311200Y39601D01*
X311064Y39637D01*
X310929Y39678D01*
X310795Y39722D01*
X310662Y39769D01*
X310531Y39821D01*
X310401Y39876D01*
X310273Y39934D01*
X310147Y39997D01*
X310022Y40062D01*
X309900Y40132D01*
X309779Y40204D01*
X309660Y40280D01*
X309544Y40360D01*
X309430Y40443D01*
X309318Y40528D01*
X309209Y40617D01*
X309102Y40709D01*
X308998Y40804D01*
X308897Y40902D01*
X308798Y41003D01*
X308703Y41106D01*
X308610Y41212D01*
X308520Y41321D01*
X308434Y41432D01*
X308350Y41545D01*
X308270Y41661D01*
X308193Y41779D01*
X308120Y41899D01*
X308049Y42022D01*
X307983Y42146D01*
X307920Y42272D01*
X307860Y42399D01*
X307804Y42528D01*
X307752Y42659D01*
X307703Y42791D01*
X307658Y42925D01*
X307617Y43060D01*
X307580Y43196D01*
X307546Y43332D01*
X307517Y43470D01*
X307491Y43609D01*
X307470Y43748D01*
X307452Y43888D01*
X307438Y44028D01*
X307428Y44168D01*
X307422Y44309D01*
X307420Y44450D01*
D15*
X312420Y44450D03*
D11*
X1457960Y15240D03*
X1457960Y34290D03*
X1457960Y53340D03*
M02*
