G04 EAGLE Gerber X2 export*
%TF.Part,Single*%
%TF.FileFunction,Other,silk bottom*%
%TF.FilePolarity,Positive*%
%TF.GenerationSoftware,Autodesk,EAGLE,9.5.2*%
%TF.CreationDate,2020-04-08T10:12:48Z*%
G75*
%MOMM*%
%FSLAX34Y34*%
%LPD*%
%INsilk bottom*%
%AMOC8*
5,1,8,0,0,1.08239X$1,22.5*%
G01*
%ADD10C,0.000000*%
%ADD11C,0.152400*%


D10*
X0Y232410D02*
X50800Y181610D01*
X50800Y100330D01*
X60960Y90170D01*
X60960Y59690D01*
X50800Y49530D01*
X50800Y6350D01*
X55880Y1270D01*
X213360Y1270D01*
D11*
X788670Y212090D02*
X796324Y219744D01*
X803395Y226815D02*
X811049Y234469D01*
X818120Y241540D02*
X825774Y249194D01*
X832846Y256266D02*
X840500Y263920D01*
X847571Y270991D02*
X855225Y278645D01*
X862296Y285716D02*
X869950Y293370D01*
X863600Y293370D02*
X784860Y214630D01*
X784860Y293370D01*
X863600Y293370D01*
X789686Y219456D02*
X784860Y219456D01*
X784860Y227584D02*
X797814Y227584D01*
X805942Y235712D02*
X784860Y235712D01*
X784860Y243840D02*
X814070Y243840D01*
X822198Y251968D02*
X784860Y251968D01*
X784860Y260096D02*
X830326Y260096D01*
X838454Y268224D02*
X784860Y268224D01*
X784860Y276352D02*
X846582Y276352D01*
X854710Y284480D02*
X784860Y284480D01*
X784860Y292608D02*
X862838Y292608D01*
X788416Y293370D02*
X788416Y218186D01*
X796544Y226314D02*
X796544Y293370D01*
X804672Y293370D02*
X804672Y234442D01*
X812800Y242570D02*
X812800Y293370D01*
X820928Y293370D02*
X820928Y250698D01*
X829056Y258826D02*
X829056Y293370D01*
X837184Y293370D02*
X837184Y266954D01*
X845312Y275082D02*
X845312Y293370D01*
X853440Y293370D02*
X853440Y283210D01*
X861568Y291338D02*
X861568Y293370D01*
X868429Y289900D02*
X874536Y283794D01*
X872840Y282097D01*
X872785Y282046D01*
X872728Y281997D01*
X872668Y281951D01*
X872606Y281908D01*
X872542Y281869D01*
X872475Y281833D01*
X872407Y281800D01*
X872338Y281772D01*
X872267Y281746D01*
X872194Y281725D01*
X872121Y281707D01*
X872047Y281694D01*
X871972Y281684D01*
X871897Y281678D01*
X871822Y281676D01*
X871747Y281678D01*
X871672Y281684D01*
X871597Y281694D01*
X871523Y281707D01*
X871450Y281725D01*
X871377Y281746D01*
X871306Y281772D01*
X871237Y281800D01*
X871169Y281833D01*
X871103Y281869D01*
X871038Y281908D01*
X870976Y281951D01*
X870916Y281997D01*
X870859Y282046D01*
X870805Y282097D01*
X870804Y282097D02*
X868769Y284133D01*
X868768Y284133D02*
X868718Y284186D01*
X868671Y284242D01*
X868626Y284299D01*
X868584Y284359D01*
X868546Y284421D01*
X868511Y284485D01*
X868478Y284550D01*
X868450Y284617D01*
X868424Y284686D01*
X868403Y284755D01*
X868384Y284826D01*
X868370Y284897D01*
X868359Y284969D01*
X868351Y285042D01*
X868347Y285115D01*
X868347Y285187D01*
X868351Y285260D01*
X868359Y285333D01*
X868370Y285405D01*
X868384Y285476D01*
X868403Y285547D01*
X868424Y285616D01*
X868450Y285685D01*
X868478Y285752D01*
X868511Y285817D01*
X868546Y285881D01*
X868584Y285943D01*
X868626Y286003D01*
X868671Y286060D01*
X868718Y286116D01*
X868768Y286169D01*
X868769Y286168D02*
X870465Y287865D01*
X867963Y277220D02*
X866266Y275524D01*
X867963Y277220D02*
X868013Y277273D01*
X868060Y277329D01*
X868105Y277386D01*
X868147Y277446D01*
X868185Y277508D01*
X868220Y277572D01*
X868253Y277637D01*
X868281Y277704D01*
X868307Y277773D01*
X868328Y277842D01*
X868347Y277913D01*
X868361Y277984D01*
X868372Y278056D01*
X868380Y278129D01*
X868384Y278202D01*
X868384Y278274D01*
X868380Y278347D01*
X868372Y278420D01*
X868361Y278492D01*
X868347Y278563D01*
X868328Y278634D01*
X868307Y278703D01*
X868281Y278772D01*
X868253Y278839D01*
X868220Y278904D01*
X868185Y278968D01*
X868147Y279030D01*
X868105Y279090D01*
X868060Y279147D01*
X868013Y279203D01*
X867963Y279256D01*
X867963Y279255D02*
X866266Y280952D01*
X866203Y281012D01*
X866137Y281070D01*
X866069Y281124D01*
X865998Y281175D01*
X865925Y281223D01*
X865850Y281268D01*
X865772Y281309D01*
X865694Y281346D01*
X865613Y281380D01*
X865531Y281410D01*
X865448Y281437D01*
X865363Y281459D01*
X865278Y281478D01*
X865192Y281493D01*
X865105Y281504D01*
X865018Y281511D01*
X864931Y281514D01*
X864843Y281513D01*
X864756Y281508D01*
X864669Y281499D01*
X864583Y281486D01*
X864497Y281469D01*
X864412Y281449D01*
X864328Y281424D01*
X864246Y281396D01*
X864165Y281364D01*
X864085Y281328D01*
X864007Y281289D01*
X863931Y281246D01*
X863857Y281200D01*
X863785Y281150D01*
X863715Y281097D01*
X863648Y281041D01*
X863583Y280982D01*
X863522Y280921D01*
X863463Y280856D01*
X863407Y280789D01*
X863354Y280719D01*
X863304Y280647D01*
X863258Y280573D01*
X863215Y280497D01*
X863176Y280419D01*
X863140Y280339D01*
X863108Y280258D01*
X863080Y280176D01*
X863055Y280092D01*
X863035Y280007D01*
X863018Y279921D01*
X863005Y279835D01*
X862996Y279748D01*
X862991Y279661D01*
X862990Y279573D01*
X862993Y279486D01*
X863000Y279399D01*
X863011Y279312D01*
X863026Y279226D01*
X863045Y279141D01*
X863067Y279056D01*
X863094Y278973D01*
X863124Y278891D01*
X863158Y278811D01*
X863195Y278732D01*
X863236Y278654D01*
X863281Y278579D01*
X863329Y278506D01*
X863380Y278435D01*
X863434Y278367D01*
X863492Y278301D01*
X863552Y278238D01*
X864231Y277559D01*
X866945Y280273D01*
X863161Y272419D02*
X859090Y276490D01*
X857394Y274793D01*
X857343Y274738D01*
X857294Y274681D01*
X857248Y274621D01*
X857205Y274559D01*
X857166Y274495D01*
X857130Y274428D01*
X857097Y274360D01*
X857069Y274291D01*
X857043Y274220D01*
X857022Y274147D01*
X857004Y274074D01*
X856991Y274000D01*
X856981Y273925D01*
X856975Y273850D01*
X856973Y273775D01*
X856975Y273700D01*
X856981Y273625D01*
X856991Y273550D01*
X857004Y273476D01*
X857022Y273403D01*
X857043Y273330D01*
X857069Y273259D01*
X857097Y273190D01*
X857130Y273122D01*
X857166Y273056D01*
X857205Y272991D01*
X857248Y272929D01*
X857294Y272869D01*
X857343Y272812D01*
X857394Y272758D01*
X860447Y269704D01*
X854676Y263933D02*
X848569Y270040D01*
X854676Y263933D02*
X856372Y265629D01*
X856422Y265682D01*
X856469Y265738D01*
X856514Y265795D01*
X856556Y265855D01*
X856594Y265917D01*
X856629Y265981D01*
X856662Y266046D01*
X856690Y266113D01*
X856716Y266182D01*
X856737Y266251D01*
X856756Y266322D01*
X856770Y266393D01*
X856781Y266465D01*
X856789Y266538D01*
X856793Y266611D01*
X856793Y266683D01*
X856789Y266756D01*
X856781Y266829D01*
X856770Y266901D01*
X856756Y266972D01*
X856737Y267043D01*
X856716Y267112D01*
X856690Y267181D01*
X856662Y267248D01*
X856629Y267313D01*
X856594Y267377D01*
X856556Y267439D01*
X856514Y267499D01*
X856469Y267556D01*
X856422Y267612D01*
X856372Y267665D01*
X854337Y269700D01*
X854337Y269701D02*
X854282Y269752D01*
X854225Y269801D01*
X854165Y269847D01*
X854103Y269890D01*
X854039Y269929D01*
X853972Y269965D01*
X853904Y269998D01*
X853835Y270026D01*
X853764Y270052D01*
X853691Y270073D01*
X853618Y270091D01*
X853544Y270104D01*
X853469Y270114D01*
X853394Y270120D01*
X853319Y270122D01*
X853244Y270120D01*
X853169Y270114D01*
X853094Y270104D01*
X853020Y270091D01*
X852947Y270073D01*
X852874Y270052D01*
X852803Y270026D01*
X852734Y269998D01*
X852666Y269965D01*
X852600Y269929D01*
X852535Y269890D01*
X852473Y269847D01*
X852413Y269801D01*
X852356Y269752D01*
X852301Y269701D01*
X852301Y269700D02*
X850605Y268004D01*
X847046Y256303D02*
X845689Y254946D01*
X847046Y256303D02*
X847096Y256356D01*
X847143Y256412D01*
X847188Y256469D01*
X847230Y256529D01*
X847268Y256591D01*
X847303Y256655D01*
X847336Y256720D01*
X847364Y256787D01*
X847390Y256856D01*
X847411Y256925D01*
X847430Y256996D01*
X847444Y257067D01*
X847455Y257139D01*
X847463Y257212D01*
X847467Y257285D01*
X847467Y257357D01*
X847463Y257430D01*
X847455Y257503D01*
X847444Y257575D01*
X847430Y257646D01*
X847411Y257717D01*
X847390Y257786D01*
X847364Y257855D01*
X847336Y257922D01*
X847303Y257987D01*
X847268Y258051D01*
X847230Y258113D01*
X847188Y258173D01*
X847143Y258230D01*
X847096Y258286D01*
X847046Y258339D01*
X845010Y260374D01*
X845011Y260374D02*
X844956Y260425D01*
X844899Y260474D01*
X844839Y260520D01*
X844777Y260563D01*
X844713Y260602D01*
X844646Y260638D01*
X844578Y260671D01*
X844509Y260699D01*
X844438Y260725D01*
X844365Y260746D01*
X844292Y260764D01*
X844218Y260777D01*
X844143Y260787D01*
X844068Y260793D01*
X843993Y260795D01*
X843918Y260793D01*
X843843Y260787D01*
X843768Y260777D01*
X843694Y260764D01*
X843621Y260746D01*
X843548Y260725D01*
X843477Y260699D01*
X843408Y260671D01*
X843340Y260638D01*
X843274Y260602D01*
X843209Y260563D01*
X843147Y260520D01*
X843087Y260474D01*
X843030Y260425D01*
X842975Y260374D01*
X841618Y259017D01*
X839603Y253610D02*
X838077Y252083D01*
X839604Y253610D02*
X839662Y253666D01*
X839724Y253719D01*
X839788Y253769D01*
X839854Y253816D01*
X839922Y253860D01*
X839993Y253900D01*
X840065Y253937D01*
X840139Y253970D01*
X840215Y254000D01*
X840291Y254026D01*
X840370Y254048D01*
X840449Y254067D01*
X840528Y254081D01*
X840609Y254092D01*
X840690Y254099D01*
X840771Y254102D01*
X840852Y254101D01*
X840933Y254096D01*
X841013Y254087D01*
X841094Y254074D01*
X841173Y254058D01*
X841252Y254038D01*
X841329Y254013D01*
X841405Y253986D01*
X841480Y253954D01*
X841553Y253919D01*
X841625Y253880D01*
X841694Y253838D01*
X841761Y253793D01*
X841826Y253745D01*
X841889Y253693D01*
X841949Y253639D01*
X842007Y253581D01*
X842061Y253521D01*
X842113Y253458D01*
X842161Y253393D01*
X842206Y253326D01*
X842248Y253257D01*
X842287Y253185D01*
X842322Y253112D01*
X842354Y253037D01*
X842381Y252961D01*
X842406Y252884D01*
X842426Y252805D01*
X842442Y252726D01*
X842455Y252645D01*
X842464Y252565D01*
X842469Y252484D01*
X842470Y252403D01*
X842467Y252322D01*
X842460Y252241D01*
X842449Y252160D01*
X842435Y252081D01*
X842416Y252002D01*
X842394Y251923D01*
X842368Y251847D01*
X842338Y251771D01*
X842305Y251697D01*
X842268Y251625D01*
X842228Y251554D01*
X842184Y251486D01*
X842137Y251420D01*
X842087Y251356D01*
X842034Y251294D01*
X841978Y251236D01*
X841978Y251235D02*
X840451Y249708D01*
X837398Y252762D01*
X837348Y252815D01*
X837301Y252871D01*
X837256Y252928D01*
X837214Y252988D01*
X837176Y253050D01*
X837141Y253114D01*
X837108Y253179D01*
X837080Y253246D01*
X837054Y253315D01*
X837033Y253384D01*
X837014Y253455D01*
X837000Y253526D01*
X836989Y253598D01*
X836981Y253671D01*
X836977Y253744D01*
X836977Y253816D01*
X836981Y253889D01*
X836989Y253962D01*
X837000Y254034D01*
X837014Y254105D01*
X837033Y254176D01*
X837054Y254245D01*
X837080Y254314D01*
X837108Y254381D01*
X837141Y254446D01*
X837176Y254510D01*
X837214Y254572D01*
X837256Y254632D01*
X837301Y254689D01*
X837348Y254745D01*
X837399Y254798D01*
X837398Y254797D02*
X838755Y256154D01*
X830928Y252399D02*
X837035Y246292D01*
X835339Y244596D01*
X835284Y244545D01*
X835227Y244496D01*
X835167Y244450D01*
X835105Y244407D01*
X835041Y244368D01*
X834974Y244332D01*
X834906Y244299D01*
X834837Y244271D01*
X834766Y244245D01*
X834693Y244224D01*
X834620Y244206D01*
X834546Y244193D01*
X834471Y244183D01*
X834396Y244177D01*
X834321Y244175D01*
X834246Y244177D01*
X834171Y244183D01*
X834096Y244193D01*
X834022Y244206D01*
X833949Y244224D01*
X833876Y244245D01*
X833805Y244271D01*
X833736Y244299D01*
X833668Y244332D01*
X833602Y244368D01*
X833537Y244407D01*
X833475Y244450D01*
X833415Y244496D01*
X833358Y244545D01*
X833304Y244596D01*
X833303Y244596D02*
X831268Y246631D01*
X831267Y246631D02*
X831217Y246684D01*
X831170Y246740D01*
X831125Y246797D01*
X831083Y246857D01*
X831045Y246919D01*
X831010Y246983D01*
X830977Y247048D01*
X830949Y247115D01*
X830923Y247184D01*
X830902Y247253D01*
X830883Y247324D01*
X830869Y247395D01*
X830858Y247467D01*
X830850Y247540D01*
X830846Y247613D01*
X830846Y247685D01*
X830850Y247758D01*
X830858Y247831D01*
X830869Y247903D01*
X830883Y247974D01*
X830902Y248045D01*
X830923Y248114D01*
X830949Y248183D01*
X830977Y248250D01*
X831010Y248315D01*
X831045Y248379D01*
X831083Y248441D01*
X831125Y248501D01*
X831170Y248558D01*
X831217Y248614D01*
X831267Y248667D01*
X831268Y248667D02*
X832964Y250363D01*
X825345Y246815D02*
X830434Y241727D01*
X830485Y241672D01*
X830534Y241615D01*
X830580Y241555D01*
X830623Y241493D01*
X830662Y241429D01*
X830698Y241362D01*
X830731Y241294D01*
X830759Y241225D01*
X830785Y241154D01*
X830806Y241081D01*
X830824Y241008D01*
X830837Y240934D01*
X830847Y240859D01*
X830853Y240784D01*
X830855Y240709D01*
X830853Y240634D01*
X830847Y240559D01*
X830837Y240484D01*
X830824Y240410D01*
X830806Y240337D01*
X830785Y240264D01*
X830759Y240193D01*
X830731Y240124D01*
X830698Y240056D01*
X830662Y239990D01*
X830623Y239925D01*
X830580Y239863D01*
X830534Y239803D01*
X830485Y239746D01*
X830434Y239691D01*
X827013Y236270D02*
X825317Y234574D01*
X827013Y236270D02*
X827063Y236323D01*
X827110Y236379D01*
X827155Y236436D01*
X827197Y236496D01*
X827235Y236558D01*
X827270Y236622D01*
X827303Y236687D01*
X827331Y236754D01*
X827357Y236823D01*
X827378Y236892D01*
X827397Y236963D01*
X827411Y237034D01*
X827422Y237106D01*
X827430Y237179D01*
X827434Y237252D01*
X827434Y237324D01*
X827430Y237397D01*
X827422Y237470D01*
X827411Y237542D01*
X827397Y237613D01*
X827378Y237684D01*
X827357Y237753D01*
X827331Y237822D01*
X827303Y237889D01*
X827270Y237954D01*
X827235Y238018D01*
X827197Y238080D01*
X827155Y238140D01*
X827110Y238197D01*
X827063Y238253D01*
X827013Y238306D01*
X825317Y240002D01*
X825254Y240062D01*
X825188Y240120D01*
X825120Y240174D01*
X825049Y240225D01*
X824976Y240273D01*
X824901Y240318D01*
X824823Y240359D01*
X824745Y240396D01*
X824664Y240430D01*
X824582Y240460D01*
X824499Y240487D01*
X824414Y240509D01*
X824329Y240528D01*
X824243Y240543D01*
X824156Y240554D01*
X824069Y240561D01*
X823982Y240564D01*
X823894Y240563D01*
X823807Y240558D01*
X823720Y240549D01*
X823634Y240536D01*
X823548Y240519D01*
X823463Y240499D01*
X823379Y240474D01*
X823297Y240446D01*
X823216Y240414D01*
X823136Y240378D01*
X823058Y240339D01*
X822982Y240296D01*
X822908Y240250D01*
X822836Y240200D01*
X822766Y240147D01*
X822699Y240091D01*
X822634Y240032D01*
X822573Y239971D01*
X822514Y239906D01*
X822458Y239839D01*
X822405Y239769D01*
X822355Y239697D01*
X822309Y239623D01*
X822266Y239547D01*
X822227Y239469D01*
X822191Y239389D01*
X822159Y239308D01*
X822131Y239226D01*
X822106Y239142D01*
X822086Y239057D01*
X822069Y238971D01*
X822056Y238885D01*
X822047Y238798D01*
X822042Y238711D01*
X822041Y238623D01*
X822044Y238536D01*
X822051Y238449D01*
X822062Y238362D01*
X822077Y238276D01*
X822096Y238191D01*
X822118Y238106D01*
X822145Y238023D01*
X822175Y237941D01*
X822209Y237861D01*
X822246Y237782D01*
X822287Y237704D01*
X822332Y237629D01*
X822380Y237556D01*
X822431Y237485D01*
X822485Y237417D01*
X822543Y237351D01*
X822603Y237288D01*
X823281Y236609D01*
X825995Y239323D01*
X818763Y228020D02*
X812657Y234127D01*
X814692Y232091D02*
X812996Y230395D01*
X812945Y230340D01*
X812896Y230283D01*
X812850Y230223D01*
X812807Y230161D01*
X812768Y230097D01*
X812732Y230030D01*
X812699Y229962D01*
X812671Y229893D01*
X812645Y229822D01*
X812624Y229749D01*
X812606Y229676D01*
X812593Y229602D01*
X812583Y229527D01*
X812577Y229452D01*
X812575Y229377D01*
X812577Y229302D01*
X812583Y229227D01*
X812593Y229152D01*
X812606Y229078D01*
X812624Y229005D01*
X812645Y228932D01*
X812671Y228861D01*
X812699Y228792D01*
X812732Y228724D01*
X812768Y228658D01*
X812807Y228593D01*
X812850Y228531D01*
X812896Y228471D01*
X812945Y228414D01*
X812996Y228360D01*
X812996Y228359D02*
X816049Y225306D01*
X811926Y221183D02*
X810230Y219487D01*
X811927Y221183D02*
X811977Y221236D01*
X812024Y221292D01*
X812069Y221349D01*
X812111Y221409D01*
X812149Y221471D01*
X812184Y221535D01*
X812217Y221600D01*
X812245Y221667D01*
X812271Y221736D01*
X812292Y221805D01*
X812311Y221876D01*
X812325Y221947D01*
X812336Y222019D01*
X812344Y222092D01*
X812348Y222165D01*
X812348Y222237D01*
X812344Y222310D01*
X812336Y222383D01*
X812325Y222455D01*
X812311Y222526D01*
X812292Y222597D01*
X812271Y222666D01*
X812245Y222735D01*
X812217Y222802D01*
X812184Y222867D01*
X812149Y222931D01*
X812111Y222993D01*
X812069Y223053D01*
X812024Y223110D01*
X811977Y223166D01*
X811927Y223219D01*
X811926Y223219D02*
X810230Y224915D01*
X810167Y224975D01*
X810101Y225033D01*
X810033Y225087D01*
X809962Y225138D01*
X809889Y225186D01*
X809814Y225231D01*
X809736Y225272D01*
X809658Y225309D01*
X809577Y225343D01*
X809495Y225373D01*
X809412Y225400D01*
X809327Y225422D01*
X809242Y225441D01*
X809156Y225456D01*
X809069Y225467D01*
X808982Y225474D01*
X808895Y225477D01*
X808807Y225476D01*
X808720Y225471D01*
X808633Y225462D01*
X808547Y225449D01*
X808461Y225432D01*
X808376Y225412D01*
X808292Y225387D01*
X808210Y225359D01*
X808129Y225327D01*
X808049Y225291D01*
X807971Y225252D01*
X807895Y225209D01*
X807821Y225163D01*
X807749Y225113D01*
X807679Y225060D01*
X807612Y225004D01*
X807547Y224945D01*
X807486Y224884D01*
X807427Y224819D01*
X807371Y224752D01*
X807318Y224682D01*
X807268Y224610D01*
X807222Y224536D01*
X807179Y224460D01*
X807140Y224382D01*
X807104Y224302D01*
X807072Y224221D01*
X807044Y224139D01*
X807019Y224055D01*
X806999Y223970D01*
X806982Y223884D01*
X806969Y223798D01*
X806960Y223711D01*
X806955Y223624D01*
X806954Y223536D01*
X806957Y223449D01*
X806964Y223362D01*
X806975Y223275D01*
X806990Y223189D01*
X807009Y223104D01*
X807031Y223019D01*
X807058Y222936D01*
X807088Y222854D01*
X807122Y222774D01*
X807159Y222695D01*
X807200Y222617D01*
X807245Y222542D01*
X807293Y222469D01*
X807344Y222398D01*
X807398Y222330D01*
X807456Y222264D01*
X807516Y222201D01*
X808195Y221522D01*
X810909Y224236D01*
X807071Y216328D02*
X803000Y220399D01*
X800964Y218363D01*
X801643Y217685D01*
X801797Y211053D02*
X800101Y209357D01*
X801797Y211053D02*
X801847Y211106D01*
X801894Y211162D01*
X801939Y211219D01*
X801981Y211279D01*
X802019Y211341D01*
X802054Y211405D01*
X802087Y211470D01*
X802115Y211537D01*
X802141Y211606D01*
X802162Y211675D01*
X802181Y211746D01*
X802195Y211817D01*
X802206Y211889D01*
X802214Y211962D01*
X802218Y212035D01*
X802218Y212107D01*
X802214Y212180D01*
X802206Y212253D01*
X802195Y212325D01*
X802181Y212396D01*
X802162Y212467D01*
X802141Y212536D01*
X802115Y212605D01*
X802087Y212672D01*
X802054Y212737D01*
X802019Y212801D01*
X801981Y212863D01*
X801939Y212923D01*
X801894Y212980D01*
X801847Y213036D01*
X801797Y213089D01*
X800101Y214785D01*
X800038Y214845D01*
X799972Y214903D01*
X799904Y214957D01*
X799833Y215008D01*
X799760Y215056D01*
X799685Y215101D01*
X799607Y215142D01*
X799529Y215179D01*
X799448Y215213D01*
X799366Y215243D01*
X799283Y215270D01*
X799198Y215292D01*
X799113Y215311D01*
X799027Y215326D01*
X798940Y215337D01*
X798853Y215344D01*
X798766Y215347D01*
X798678Y215346D01*
X798591Y215341D01*
X798504Y215332D01*
X798418Y215319D01*
X798332Y215302D01*
X798247Y215282D01*
X798163Y215257D01*
X798081Y215229D01*
X798000Y215197D01*
X797920Y215161D01*
X797842Y215122D01*
X797766Y215079D01*
X797692Y215033D01*
X797620Y214983D01*
X797550Y214930D01*
X797483Y214874D01*
X797418Y214815D01*
X797357Y214754D01*
X797298Y214689D01*
X797242Y214622D01*
X797189Y214552D01*
X797139Y214480D01*
X797093Y214406D01*
X797050Y214330D01*
X797011Y214252D01*
X796975Y214172D01*
X796943Y214091D01*
X796915Y214009D01*
X796890Y213925D01*
X796870Y213840D01*
X796853Y213754D01*
X796840Y213668D01*
X796831Y213581D01*
X796826Y213494D01*
X796825Y213406D01*
X796828Y213319D01*
X796835Y213232D01*
X796846Y213145D01*
X796861Y213059D01*
X796880Y212974D01*
X796902Y212889D01*
X796929Y212806D01*
X796959Y212724D01*
X796993Y212644D01*
X797030Y212565D01*
X797071Y212487D01*
X797116Y212412D01*
X797164Y212339D01*
X797215Y212268D01*
X797269Y212200D01*
X797327Y212134D01*
X797387Y212071D01*
X798065Y211393D01*
X800779Y214107D01*
X107188Y145020D02*
X98552Y145020D01*
X98552Y147419D01*
X98554Y147494D01*
X98560Y147569D01*
X98570Y147644D01*
X98583Y147718D01*
X98601Y147791D01*
X98622Y147864D01*
X98648Y147935D01*
X98676Y148004D01*
X98709Y148072D01*
X98745Y148138D01*
X98784Y148203D01*
X98827Y148265D01*
X98873Y148325D01*
X98922Y148382D01*
X98973Y148437D01*
X99028Y148488D01*
X99085Y148537D01*
X99145Y148583D01*
X99207Y148626D01*
X99271Y148665D01*
X99338Y148701D01*
X99406Y148734D01*
X99475Y148762D01*
X99546Y148788D01*
X99619Y148809D01*
X99692Y148827D01*
X99766Y148840D01*
X99841Y148850D01*
X99916Y148856D01*
X99991Y148858D01*
X102870Y148858D01*
X102945Y148856D01*
X103020Y148850D01*
X103095Y148840D01*
X103169Y148827D01*
X103242Y148809D01*
X103315Y148788D01*
X103386Y148762D01*
X103455Y148734D01*
X103523Y148701D01*
X103590Y148665D01*
X103654Y148626D01*
X103716Y148583D01*
X103776Y148537D01*
X103833Y148488D01*
X103888Y148437D01*
X103939Y148382D01*
X103988Y148325D01*
X104034Y148265D01*
X104077Y148203D01*
X104116Y148139D01*
X104152Y148072D01*
X104185Y148004D01*
X104213Y147935D01*
X104239Y147864D01*
X104260Y147791D01*
X104278Y147718D01*
X104291Y147644D01*
X104301Y147569D01*
X104307Y147494D01*
X104309Y147419D01*
X104309Y145020D01*
X98552Y154317D02*
X98552Y156715D01*
X98552Y154317D02*
X98554Y154242D01*
X98560Y154167D01*
X98570Y154092D01*
X98583Y154018D01*
X98601Y153945D01*
X98622Y153872D01*
X98648Y153801D01*
X98676Y153732D01*
X98709Y153664D01*
X98745Y153598D01*
X98784Y153533D01*
X98827Y153471D01*
X98873Y153411D01*
X98922Y153354D01*
X98973Y153299D01*
X99028Y153248D01*
X99085Y153199D01*
X99145Y153153D01*
X99207Y153110D01*
X99272Y153071D01*
X99338Y153035D01*
X99406Y153002D01*
X99475Y152974D01*
X99546Y152948D01*
X99619Y152927D01*
X99692Y152909D01*
X99766Y152896D01*
X99841Y152886D01*
X99916Y152880D01*
X99991Y152878D01*
X99991Y152877D02*
X102390Y152877D01*
X102476Y152879D01*
X102562Y152885D01*
X102648Y152894D01*
X102733Y152908D01*
X102817Y152925D01*
X102901Y152946D01*
X102983Y152971D01*
X103064Y152999D01*
X103144Y153031D01*
X103223Y153067D01*
X103299Y153106D01*
X103374Y153149D01*
X103447Y153194D01*
X103518Y153243D01*
X103586Y153296D01*
X103653Y153351D01*
X103716Y153409D01*
X103777Y153470D01*
X103835Y153533D01*
X103890Y153600D01*
X103943Y153668D01*
X103992Y153739D01*
X104037Y153812D01*
X104080Y153887D01*
X104119Y153963D01*
X104155Y154042D01*
X104187Y154122D01*
X104215Y154203D01*
X104240Y154285D01*
X104261Y154369D01*
X104278Y154453D01*
X104292Y154538D01*
X104301Y154624D01*
X104307Y154710D01*
X104309Y154796D01*
X104307Y154882D01*
X104301Y154968D01*
X104292Y155054D01*
X104278Y155139D01*
X104261Y155223D01*
X104240Y155307D01*
X104215Y155389D01*
X104187Y155470D01*
X104155Y155550D01*
X104119Y155629D01*
X104080Y155705D01*
X104037Y155780D01*
X103992Y155853D01*
X103943Y155924D01*
X103890Y155992D01*
X103835Y156059D01*
X103777Y156122D01*
X103716Y156183D01*
X103653Y156241D01*
X103586Y156296D01*
X103518Y156349D01*
X103447Y156398D01*
X103374Y156443D01*
X103299Y156486D01*
X103223Y156525D01*
X103144Y156561D01*
X103064Y156593D01*
X102983Y156621D01*
X102901Y156646D01*
X102817Y156667D01*
X102733Y156684D01*
X102648Y156698D01*
X102562Y156707D01*
X102476Y156713D01*
X102390Y156715D01*
X101431Y156715D01*
X101431Y152877D01*
X104309Y161107D02*
X98552Y161107D01*
X104309Y161107D02*
X104309Y163506D01*
X104307Y163581D01*
X104301Y163656D01*
X104291Y163731D01*
X104278Y163805D01*
X104260Y163878D01*
X104239Y163951D01*
X104213Y164022D01*
X104185Y164091D01*
X104152Y164159D01*
X104116Y164226D01*
X104077Y164290D01*
X104034Y164352D01*
X103988Y164412D01*
X103939Y164469D01*
X103888Y164524D01*
X103833Y164575D01*
X103776Y164624D01*
X103716Y164670D01*
X103654Y164713D01*
X103590Y164752D01*
X103523Y164788D01*
X103455Y164821D01*
X103386Y164849D01*
X103315Y164875D01*
X103242Y164896D01*
X103169Y164914D01*
X103095Y164927D01*
X103020Y164937D01*
X102945Y164943D01*
X102870Y164945D01*
X98552Y164945D01*
X98552Y173107D02*
X107188Y173107D01*
X98552Y173107D02*
X98552Y170708D01*
X98554Y170633D01*
X98560Y170558D01*
X98570Y170483D01*
X98583Y170409D01*
X98601Y170336D01*
X98622Y170263D01*
X98648Y170192D01*
X98676Y170123D01*
X98709Y170055D01*
X98745Y169989D01*
X98784Y169924D01*
X98827Y169862D01*
X98873Y169802D01*
X98922Y169745D01*
X98973Y169690D01*
X99028Y169639D01*
X99085Y169590D01*
X99145Y169544D01*
X99207Y169501D01*
X99272Y169462D01*
X99338Y169426D01*
X99406Y169393D01*
X99475Y169365D01*
X99546Y169339D01*
X99619Y169318D01*
X99692Y169300D01*
X99766Y169287D01*
X99841Y169277D01*
X99916Y169271D01*
X99991Y169269D01*
X102870Y169269D01*
X102945Y169271D01*
X103020Y169277D01*
X103095Y169287D01*
X103169Y169300D01*
X103242Y169318D01*
X103315Y169339D01*
X103386Y169365D01*
X103455Y169393D01*
X103523Y169426D01*
X103590Y169462D01*
X103654Y169501D01*
X103716Y169544D01*
X103776Y169590D01*
X103833Y169639D01*
X103888Y169690D01*
X103939Y169745D01*
X103988Y169802D01*
X104034Y169862D01*
X104077Y169924D01*
X104116Y169989D01*
X104152Y170055D01*
X104185Y170123D01*
X104213Y170192D01*
X104239Y170263D01*
X104260Y170336D01*
X104278Y170409D01*
X104291Y170483D01*
X104301Y170558D01*
X104307Y170633D01*
X104309Y170708D01*
X104309Y173107D01*
X101910Y184054D02*
X101910Y186213D01*
X101910Y184054D02*
X101908Y183973D01*
X101902Y183892D01*
X101892Y183811D01*
X101879Y183731D01*
X101861Y183652D01*
X101840Y183574D01*
X101815Y183497D01*
X101786Y183421D01*
X101754Y183346D01*
X101718Y183274D01*
X101678Y183203D01*
X101635Y183134D01*
X101589Y183067D01*
X101540Y183003D01*
X101488Y182941D01*
X101432Y182881D01*
X101374Y182825D01*
X101314Y182771D01*
X101250Y182720D01*
X101185Y182672D01*
X101117Y182628D01*
X101047Y182587D01*
X100975Y182549D01*
X100902Y182515D01*
X100826Y182484D01*
X100750Y182457D01*
X100672Y182434D01*
X100593Y182415D01*
X100514Y182399D01*
X100433Y182387D01*
X100353Y182379D01*
X100272Y182375D01*
X100190Y182375D01*
X100109Y182379D01*
X100029Y182387D01*
X99948Y182399D01*
X99869Y182415D01*
X99790Y182434D01*
X99712Y182457D01*
X99636Y182484D01*
X99560Y182515D01*
X99487Y182549D01*
X99415Y182587D01*
X99345Y182628D01*
X99277Y182672D01*
X99212Y182720D01*
X99148Y182771D01*
X99088Y182825D01*
X99030Y182881D01*
X98974Y182941D01*
X98922Y183003D01*
X98873Y183067D01*
X98827Y183134D01*
X98784Y183203D01*
X98744Y183274D01*
X98708Y183346D01*
X98676Y183421D01*
X98647Y183497D01*
X98622Y183574D01*
X98601Y183652D01*
X98583Y183731D01*
X98570Y183811D01*
X98560Y183892D01*
X98554Y183973D01*
X98552Y184054D01*
X98552Y186213D01*
X102870Y186213D01*
X102945Y186211D01*
X103020Y186205D01*
X103095Y186195D01*
X103169Y186182D01*
X103242Y186164D01*
X103315Y186143D01*
X103386Y186117D01*
X103455Y186089D01*
X103523Y186056D01*
X103590Y186020D01*
X103654Y185981D01*
X103716Y185938D01*
X103776Y185892D01*
X103833Y185843D01*
X103888Y185792D01*
X103939Y185737D01*
X103988Y185680D01*
X104034Y185620D01*
X104077Y185558D01*
X104116Y185494D01*
X104152Y185427D01*
X104185Y185359D01*
X104213Y185290D01*
X104239Y185219D01*
X104260Y185146D01*
X104278Y185073D01*
X104291Y184999D01*
X104301Y184924D01*
X104307Y184849D01*
X104309Y184774D01*
X104309Y182855D01*
X104309Y191053D02*
X98552Y191053D01*
X104309Y191053D02*
X104309Y193932D01*
X103350Y193932D01*
X102390Y197073D02*
X100471Y197073D01*
X102390Y197073D02*
X102476Y197075D01*
X102562Y197081D01*
X102648Y197090D01*
X102733Y197104D01*
X102817Y197121D01*
X102901Y197142D01*
X102983Y197167D01*
X103064Y197195D01*
X103144Y197227D01*
X103223Y197263D01*
X103299Y197302D01*
X103374Y197345D01*
X103447Y197390D01*
X103518Y197439D01*
X103586Y197492D01*
X103653Y197547D01*
X103716Y197605D01*
X103777Y197666D01*
X103835Y197729D01*
X103890Y197796D01*
X103943Y197864D01*
X103992Y197935D01*
X104037Y198008D01*
X104080Y198083D01*
X104119Y198159D01*
X104155Y198238D01*
X104187Y198318D01*
X104215Y198399D01*
X104240Y198481D01*
X104261Y198565D01*
X104278Y198649D01*
X104292Y198734D01*
X104301Y198820D01*
X104307Y198906D01*
X104309Y198992D01*
X104307Y199078D01*
X104301Y199164D01*
X104292Y199250D01*
X104278Y199335D01*
X104261Y199419D01*
X104240Y199503D01*
X104215Y199585D01*
X104187Y199666D01*
X104155Y199746D01*
X104119Y199825D01*
X104080Y199901D01*
X104037Y199976D01*
X103992Y200049D01*
X103943Y200120D01*
X103890Y200188D01*
X103835Y200255D01*
X103777Y200318D01*
X103716Y200379D01*
X103653Y200437D01*
X103586Y200492D01*
X103518Y200545D01*
X103447Y200594D01*
X103374Y200639D01*
X103299Y200682D01*
X103223Y200721D01*
X103144Y200757D01*
X103064Y200789D01*
X102983Y200817D01*
X102901Y200842D01*
X102817Y200863D01*
X102733Y200880D01*
X102648Y200894D01*
X102562Y200903D01*
X102476Y200909D01*
X102390Y200911D01*
X100471Y200911D01*
X100385Y200909D01*
X100299Y200903D01*
X100213Y200894D01*
X100128Y200880D01*
X100044Y200863D01*
X99960Y200842D01*
X99878Y200817D01*
X99797Y200789D01*
X99717Y200757D01*
X99638Y200721D01*
X99562Y200682D01*
X99487Y200639D01*
X99414Y200594D01*
X99343Y200545D01*
X99275Y200492D01*
X99208Y200437D01*
X99145Y200379D01*
X99084Y200318D01*
X99026Y200255D01*
X98971Y200188D01*
X98918Y200120D01*
X98869Y200049D01*
X98824Y199976D01*
X98781Y199901D01*
X98742Y199825D01*
X98706Y199746D01*
X98674Y199666D01*
X98646Y199585D01*
X98621Y199503D01*
X98600Y199419D01*
X98583Y199335D01*
X98569Y199250D01*
X98560Y199164D01*
X98554Y199078D01*
X98552Y198992D01*
X98554Y198906D01*
X98560Y198820D01*
X98569Y198734D01*
X98583Y198649D01*
X98600Y198565D01*
X98621Y198481D01*
X98646Y198399D01*
X98674Y198318D01*
X98706Y198238D01*
X98742Y198159D01*
X98781Y198083D01*
X98824Y198008D01*
X98869Y197935D01*
X98918Y197864D01*
X98971Y197796D01*
X99026Y197729D01*
X99084Y197666D01*
X99145Y197605D01*
X99208Y197547D01*
X99275Y197492D01*
X99343Y197439D01*
X99414Y197390D01*
X99487Y197345D01*
X99562Y197302D01*
X99638Y197263D01*
X99717Y197227D01*
X99797Y197195D01*
X99878Y197167D01*
X99960Y197142D01*
X100044Y197121D01*
X100128Y197104D01*
X100213Y197090D01*
X100299Y197081D01*
X100385Y197075D01*
X100471Y197073D01*
X99991Y205303D02*
X104309Y205303D01*
X99991Y205303D02*
X99916Y205305D01*
X99841Y205311D01*
X99766Y205321D01*
X99692Y205334D01*
X99619Y205352D01*
X99546Y205373D01*
X99475Y205399D01*
X99406Y205427D01*
X99338Y205460D01*
X99272Y205496D01*
X99207Y205535D01*
X99145Y205578D01*
X99085Y205624D01*
X99028Y205673D01*
X98973Y205724D01*
X98922Y205779D01*
X98873Y205836D01*
X98827Y205896D01*
X98784Y205958D01*
X98745Y206023D01*
X98709Y206089D01*
X98676Y206157D01*
X98648Y206226D01*
X98622Y206297D01*
X98601Y206370D01*
X98583Y206443D01*
X98570Y206517D01*
X98560Y206592D01*
X98554Y206667D01*
X98552Y206742D01*
X98552Y209141D01*
X104309Y209141D01*
X104309Y213837D02*
X98552Y213837D01*
X104309Y213837D02*
X104309Y216236D01*
X104307Y216311D01*
X104301Y216386D01*
X104291Y216461D01*
X104278Y216535D01*
X104260Y216608D01*
X104239Y216681D01*
X104213Y216752D01*
X104185Y216821D01*
X104152Y216889D01*
X104116Y216956D01*
X104077Y217020D01*
X104034Y217082D01*
X103988Y217142D01*
X103939Y217199D01*
X103888Y217254D01*
X103833Y217305D01*
X103776Y217354D01*
X103716Y217400D01*
X103654Y217443D01*
X103590Y217482D01*
X103523Y217518D01*
X103455Y217551D01*
X103386Y217579D01*
X103315Y217605D01*
X103242Y217626D01*
X103169Y217644D01*
X103095Y217657D01*
X103020Y217667D01*
X102945Y217673D01*
X102870Y217675D01*
X98552Y217675D01*
X98552Y225837D02*
X107188Y225837D01*
X98552Y225837D02*
X98552Y223438D01*
X98554Y223363D01*
X98560Y223288D01*
X98570Y223213D01*
X98583Y223139D01*
X98601Y223066D01*
X98622Y222993D01*
X98648Y222922D01*
X98676Y222853D01*
X98709Y222785D01*
X98745Y222719D01*
X98784Y222654D01*
X98827Y222592D01*
X98873Y222532D01*
X98922Y222475D01*
X98973Y222420D01*
X99028Y222369D01*
X99085Y222320D01*
X99145Y222274D01*
X99207Y222231D01*
X99272Y222192D01*
X99338Y222156D01*
X99406Y222123D01*
X99475Y222095D01*
X99546Y222069D01*
X99619Y222048D01*
X99692Y222030D01*
X99766Y222017D01*
X99841Y222007D01*
X99916Y222001D01*
X99991Y221999D01*
X102870Y221999D01*
X102945Y222001D01*
X103020Y222007D01*
X103095Y222017D01*
X103169Y222030D01*
X103242Y222048D01*
X103315Y222069D01*
X103386Y222095D01*
X103455Y222123D01*
X103523Y222156D01*
X103590Y222192D01*
X103654Y222231D01*
X103716Y222274D01*
X103776Y222320D01*
X103833Y222369D01*
X103888Y222420D01*
X103939Y222475D01*
X103988Y222532D01*
X104034Y222592D01*
X104077Y222654D01*
X104116Y222719D01*
X104152Y222785D01*
X104185Y222853D01*
X104213Y222922D01*
X104239Y222993D01*
X104260Y223066D01*
X104278Y223139D01*
X104291Y223213D01*
X104301Y223288D01*
X104307Y223363D01*
X104309Y223438D01*
X104309Y225837D01*
X107188Y235478D02*
X98552Y235478D01*
X104309Y235478D02*
X104309Y237876D01*
X104307Y237951D01*
X104301Y238026D01*
X104291Y238101D01*
X104278Y238175D01*
X104260Y238248D01*
X104239Y238321D01*
X104213Y238392D01*
X104185Y238461D01*
X104152Y238529D01*
X104116Y238596D01*
X104077Y238660D01*
X104034Y238722D01*
X103988Y238782D01*
X103939Y238839D01*
X103888Y238894D01*
X103833Y238945D01*
X103776Y238994D01*
X103716Y239040D01*
X103654Y239083D01*
X103590Y239122D01*
X103523Y239158D01*
X103455Y239191D01*
X103386Y239219D01*
X103315Y239245D01*
X103242Y239266D01*
X103169Y239284D01*
X103095Y239297D01*
X103020Y239307D01*
X102945Y239313D01*
X102870Y239315D01*
X102870Y239316D02*
X98552Y239316D01*
X98552Y245146D02*
X98552Y247545D01*
X98552Y245146D02*
X98554Y245071D01*
X98560Y244996D01*
X98570Y244921D01*
X98583Y244847D01*
X98601Y244774D01*
X98622Y244701D01*
X98648Y244630D01*
X98676Y244561D01*
X98709Y244493D01*
X98745Y244427D01*
X98784Y244362D01*
X98827Y244300D01*
X98873Y244240D01*
X98922Y244183D01*
X98973Y244128D01*
X99028Y244077D01*
X99085Y244028D01*
X99145Y243982D01*
X99207Y243939D01*
X99272Y243900D01*
X99338Y243864D01*
X99406Y243831D01*
X99475Y243803D01*
X99546Y243777D01*
X99619Y243756D01*
X99692Y243738D01*
X99766Y243725D01*
X99841Y243715D01*
X99916Y243709D01*
X99991Y243707D01*
X102390Y243707D01*
X102476Y243709D01*
X102562Y243715D01*
X102648Y243724D01*
X102733Y243738D01*
X102817Y243755D01*
X102901Y243776D01*
X102983Y243801D01*
X103064Y243829D01*
X103144Y243861D01*
X103223Y243897D01*
X103299Y243936D01*
X103374Y243979D01*
X103447Y244024D01*
X103518Y244073D01*
X103586Y244126D01*
X103653Y244181D01*
X103716Y244239D01*
X103777Y244300D01*
X103835Y244363D01*
X103890Y244430D01*
X103943Y244498D01*
X103992Y244569D01*
X104037Y244642D01*
X104080Y244717D01*
X104119Y244793D01*
X104155Y244872D01*
X104187Y244952D01*
X104215Y245033D01*
X104240Y245115D01*
X104261Y245199D01*
X104278Y245283D01*
X104292Y245368D01*
X104301Y245454D01*
X104307Y245540D01*
X104309Y245626D01*
X104307Y245712D01*
X104301Y245798D01*
X104292Y245884D01*
X104278Y245969D01*
X104261Y246053D01*
X104240Y246137D01*
X104215Y246219D01*
X104187Y246300D01*
X104155Y246380D01*
X104119Y246459D01*
X104080Y246535D01*
X104037Y246610D01*
X103992Y246683D01*
X103943Y246754D01*
X103890Y246822D01*
X103835Y246889D01*
X103777Y246952D01*
X103716Y247013D01*
X103653Y247071D01*
X103586Y247126D01*
X103518Y247179D01*
X103447Y247228D01*
X103374Y247273D01*
X103299Y247316D01*
X103223Y247355D01*
X103144Y247391D01*
X103064Y247423D01*
X102983Y247451D01*
X102901Y247476D01*
X102817Y247497D01*
X102733Y247514D01*
X102648Y247528D01*
X102562Y247537D01*
X102476Y247543D01*
X102390Y247545D01*
X101431Y247545D01*
X101431Y243707D01*
X101910Y253243D02*
X101910Y255402D01*
X101910Y253243D02*
X101908Y253162D01*
X101902Y253081D01*
X101892Y253000D01*
X101879Y252920D01*
X101861Y252841D01*
X101840Y252763D01*
X101815Y252686D01*
X101786Y252610D01*
X101754Y252535D01*
X101718Y252463D01*
X101678Y252392D01*
X101635Y252323D01*
X101589Y252256D01*
X101540Y252192D01*
X101488Y252130D01*
X101432Y252070D01*
X101374Y252014D01*
X101314Y251960D01*
X101250Y251909D01*
X101185Y251861D01*
X101117Y251817D01*
X101047Y251776D01*
X100975Y251738D01*
X100902Y251704D01*
X100826Y251673D01*
X100750Y251646D01*
X100672Y251623D01*
X100593Y251604D01*
X100514Y251588D01*
X100433Y251576D01*
X100353Y251568D01*
X100272Y251564D01*
X100190Y251564D01*
X100109Y251568D01*
X100029Y251576D01*
X99948Y251588D01*
X99869Y251604D01*
X99790Y251623D01*
X99712Y251646D01*
X99636Y251673D01*
X99560Y251704D01*
X99487Y251738D01*
X99415Y251776D01*
X99345Y251817D01*
X99277Y251861D01*
X99212Y251909D01*
X99148Y251960D01*
X99088Y252014D01*
X99030Y252070D01*
X98974Y252130D01*
X98922Y252192D01*
X98873Y252256D01*
X98827Y252323D01*
X98784Y252392D01*
X98744Y252463D01*
X98708Y252535D01*
X98676Y252610D01*
X98647Y252686D01*
X98622Y252763D01*
X98601Y252841D01*
X98583Y252920D01*
X98570Y253000D01*
X98560Y253081D01*
X98554Y253162D01*
X98552Y253243D01*
X98552Y255402D01*
X102870Y255402D01*
X102945Y255400D01*
X103020Y255394D01*
X103095Y255384D01*
X103169Y255371D01*
X103242Y255353D01*
X103315Y255332D01*
X103386Y255306D01*
X103455Y255278D01*
X103523Y255245D01*
X103590Y255209D01*
X103654Y255170D01*
X103716Y255127D01*
X103776Y255081D01*
X103833Y255032D01*
X103888Y254981D01*
X103939Y254926D01*
X103988Y254869D01*
X104034Y254809D01*
X104077Y254747D01*
X104116Y254683D01*
X104152Y254616D01*
X104185Y254548D01*
X104213Y254479D01*
X104239Y254408D01*
X104260Y254335D01*
X104278Y254262D01*
X104291Y254188D01*
X104301Y254113D01*
X104307Y254038D01*
X104309Y253963D01*
X104309Y252044D01*
X104309Y259016D02*
X104309Y261894D01*
X107188Y259975D02*
X99991Y259975D01*
X99991Y259976D02*
X99918Y259978D01*
X99845Y259983D01*
X99773Y259993D01*
X99701Y260005D01*
X99630Y260022D01*
X99560Y260042D01*
X99491Y260066D01*
X99424Y260093D01*
X99357Y260123D01*
X99293Y260157D01*
X99230Y260194D01*
X99169Y260234D01*
X99110Y260277D01*
X99054Y260323D01*
X99000Y260372D01*
X98948Y260424D01*
X98899Y260478D01*
X98853Y260534D01*
X98810Y260593D01*
X98770Y260654D01*
X98733Y260717D01*
X98699Y260781D01*
X98669Y260848D01*
X98642Y260915D01*
X98618Y260984D01*
X98598Y261054D01*
X98581Y261125D01*
X98569Y261197D01*
X98559Y261269D01*
X98554Y261342D01*
X98552Y261415D01*
X98552Y261894D01*
X101910Y266372D02*
X100951Y268771D01*
X101910Y266372D02*
X101937Y266309D01*
X101968Y266247D01*
X102003Y266187D01*
X102040Y266129D01*
X102081Y266073D01*
X102124Y266020D01*
X102171Y265969D01*
X102220Y265921D01*
X102272Y265875D01*
X102327Y265833D01*
X102384Y265793D01*
X102442Y265757D01*
X102503Y265724D01*
X102566Y265695D01*
X102629Y265669D01*
X102695Y265646D01*
X102761Y265628D01*
X102829Y265613D01*
X102897Y265601D01*
X102965Y265594D01*
X103034Y265590D01*
X103103Y265591D01*
X103172Y265595D01*
X103241Y265603D01*
X103309Y265614D01*
X103376Y265630D01*
X103443Y265649D01*
X103508Y265671D01*
X103572Y265698D01*
X103634Y265728D01*
X103694Y265761D01*
X103753Y265798D01*
X103809Y265837D01*
X103864Y265880D01*
X103915Y265926D01*
X103964Y265974D01*
X104011Y266026D01*
X104054Y266079D01*
X104094Y266135D01*
X104131Y266194D01*
X104165Y266254D01*
X104196Y266316D01*
X104223Y266379D01*
X104246Y266444D01*
X104266Y266510D01*
X104282Y266577D01*
X104295Y266645D01*
X104303Y266714D01*
X104308Y266783D01*
X104309Y266852D01*
X104306Y266991D01*
X104298Y267130D01*
X104287Y267269D01*
X104273Y267407D01*
X104255Y267545D01*
X104234Y267683D01*
X104209Y267820D01*
X104180Y267956D01*
X104148Y268092D01*
X104113Y268226D01*
X104074Y268360D01*
X104032Y268493D01*
X103986Y268624D01*
X103937Y268754D01*
X103885Y268883D01*
X103830Y269011D01*
X100951Y268771D02*
X100924Y268834D01*
X100893Y268896D01*
X100858Y268956D01*
X100821Y269014D01*
X100780Y269070D01*
X100737Y269123D01*
X100690Y269174D01*
X100641Y269222D01*
X100589Y269268D01*
X100534Y269310D01*
X100477Y269350D01*
X100419Y269386D01*
X100358Y269419D01*
X100296Y269448D01*
X100232Y269474D01*
X100166Y269497D01*
X100100Y269515D01*
X100032Y269530D01*
X99964Y269542D01*
X99896Y269549D01*
X99827Y269553D01*
X99758Y269552D01*
X99689Y269548D01*
X99620Y269540D01*
X99552Y269529D01*
X99485Y269513D01*
X99418Y269494D01*
X99353Y269472D01*
X99289Y269445D01*
X99227Y269415D01*
X99167Y269382D01*
X99108Y269345D01*
X99052Y269306D01*
X98997Y269263D01*
X98946Y269217D01*
X98897Y269169D01*
X98850Y269117D01*
X98807Y269064D01*
X98767Y269008D01*
X98730Y268949D01*
X98696Y268889D01*
X98665Y268827D01*
X98638Y268764D01*
X98615Y268699D01*
X98595Y268633D01*
X98579Y268566D01*
X98566Y268498D01*
X98558Y268429D01*
X98553Y268360D01*
X98552Y268291D01*
X98552Y268292D02*
X98557Y268099D01*
X98566Y267907D01*
X98581Y267715D01*
X98599Y267524D01*
X98622Y267333D01*
X98650Y267142D01*
X98682Y266952D01*
X98719Y266763D01*
X98760Y266575D01*
X98806Y266388D01*
X98856Y266203D01*
X98910Y266018D01*
X98969Y265835D01*
X99032Y265653D01*
X98552Y273363D02*
X104309Y273363D01*
X106708Y273123D02*
X107188Y273123D01*
X107188Y273603D01*
X106708Y273603D01*
X106708Y273123D01*
X104309Y277540D02*
X98552Y277540D01*
X104309Y277540D02*
X104309Y279939D01*
X104307Y280014D01*
X104301Y280089D01*
X104291Y280164D01*
X104278Y280238D01*
X104260Y280311D01*
X104239Y280384D01*
X104213Y280455D01*
X104185Y280524D01*
X104152Y280592D01*
X104116Y280659D01*
X104077Y280723D01*
X104034Y280785D01*
X103988Y280845D01*
X103939Y280902D01*
X103888Y280957D01*
X103833Y281008D01*
X103776Y281057D01*
X103716Y281103D01*
X103654Y281146D01*
X103590Y281185D01*
X103523Y281221D01*
X103455Y281254D01*
X103386Y281282D01*
X103315Y281308D01*
X103242Y281329D01*
X103169Y281347D01*
X103095Y281360D01*
X103020Y281370D01*
X102945Y281376D01*
X102870Y281378D01*
X98552Y281378D01*
X98552Y286230D02*
X107188Y286230D01*
X104309Y290068D02*
X101431Y286230D01*
X102630Y287909D02*
X98552Y290068D01*
D10*
X0Y290830D02*
X0Y232410D01*
X0Y290830D02*
X5080Y295910D01*
X220980Y199390D02*
X220980Y142240D01*
X220980Y199390D02*
X228600Y207010D01*
X1074420Y207010D01*
X1056640Y295910D02*
X5080Y295910D01*
X1074420Y207010D02*
X1098550Y182880D01*
X1209040Y182880D01*
D11*
X322580Y292100D02*
X314926Y284446D01*
X307855Y277375D02*
X300201Y269721D01*
X293130Y262650D02*
X285476Y254996D01*
X278404Y247924D02*
X270750Y240270D01*
X263679Y233199D02*
X256025Y225545D01*
X248954Y218474D02*
X241300Y210820D01*
X236220Y212090D02*
X314960Y290830D01*
X236220Y290830D02*
X236220Y212090D01*
X236220Y290830D02*
X314960Y290830D01*
X243586Y219456D02*
X236220Y219456D01*
X236220Y227584D02*
X251714Y227584D01*
X259842Y235712D02*
X236220Y235712D01*
X236220Y243840D02*
X267970Y243840D01*
X276098Y251968D02*
X236220Y251968D01*
X236220Y260096D02*
X284226Y260096D01*
X292354Y268224D02*
X236220Y268224D01*
X236220Y276352D02*
X300482Y276352D01*
X308610Y284480D02*
X236220Y284480D01*
X243840Y290830D02*
X243840Y219710D01*
X251968Y227838D02*
X251968Y290830D01*
X260096Y290830D02*
X260096Y235966D01*
X268224Y244094D02*
X268224Y290830D01*
X276352Y290830D02*
X276352Y252222D01*
X284480Y260350D02*
X284480Y290830D01*
X292608Y290830D02*
X292608Y268478D01*
X300736Y276606D02*
X300736Y290830D01*
X308864Y290830D02*
X308864Y284734D01*
X324286Y290587D02*
X330392Y284480D01*
X328696Y282784D01*
X328696Y282783D02*
X328641Y282732D01*
X328584Y282683D01*
X328524Y282637D01*
X328462Y282594D01*
X328398Y282555D01*
X328331Y282519D01*
X328263Y282486D01*
X328194Y282458D01*
X328123Y282432D01*
X328050Y282411D01*
X327977Y282393D01*
X327903Y282380D01*
X327828Y282370D01*
X327753Y282364D01*
X327678Y282362D01*
X327603Y282364D01*
X327528Y282370D01*
X327453Y282380D01*
X327379Y282393D01*
X327306Y282411D01*
X327233Y282432D01*
X327162Y282458D01*
X327093Y282486D01*
X327025Y282519D01*
X326959Y282555D01*
X326894Y282594D01*
X326832Y282637D01*
X326772Y282683D01*
X326715Y282732D01*
X326661Y282783D01*
X326661Y282784D02*
X324625Y284819D01*
X324575Y284872D01*
X324528Y284928D01*
X324483Y284985D01*
X324441Y285045D01*
X324403Y285107D01*
X324368Y285171D01*
X324335Y285236D01*
X324307Y285303D01*
X324281Y285372D01*
X324260Y285441D01*
X324241Y285512D01*
X324227Y285583D01*
X324216Y285655D01*
X324208Y285728D01*
X324204Y285801D01*
X324204Y285873D01*
X324208Y285946D01*
X324216Y286019D01*
X324227Y286091D01*
X324241Y286162D01*
X324260Y286233D01*
X324281Y286302D01*
X324307Y286371D01*
X324335Y286438D01*
X324368Y286503D01*
X324403Y286567D01*
X324441Y286629D01*
X324483Y286689D01*
X324528Y286746D01*
X324575Y286802D01*
X324625Y286855D01*
X326321Y288551D01*
X323819Y277906D02*
X322123Y276210D01*
X323819Y277906D02*
X323869Y277959D01*
X323916Y278015D01*
X323961Y278072D01*
X324003Y278132D01*
X324041Y278194D01*
X324076Y278258D01*
X324109Y278323D01*
X324137Y278390D01*
X324163Y278459D01*
X324184Y278528D01*
X324203Y278599D01*
X324217Y278670D01*
X324228Y278742D01*
X324236Y278815D01*
X324240Y278888D01*
X324240Y278960D01*
X324236Y279033D01*
X324228Y279106D01*
X324217Y279178D01*
X324203Y279249D01*
X324184Y279320D01*
X324163Y279389D01*
X324137Y279458D01*
X324109Y279525D01*
X324076Y279590D01*
X324041Y279654D01*
X324003Y279716D01*
X323961Y279776D01*
X323916Y279833D01*
X323869Y279889D01*
X323819Y279942D01*
X322123Y281638D01*
X322060Y281698D01*
X321994Y281756D01*
X321926Y281810D01*
X321855Y281861D01*
X321782Y281909D01*
X321707Y281954D01*
X321629Y281995D01*
X321551Y282032D01*
X321470Y282066D01*
X321388Y282096D01*
X321305Y282123D01*
X321220Y282145D01*
X321135Y282164D01*
X321049Y282179D01*
X320962Y282190D01*
X320875Y282197D01*
X320788Y282200D01*
X320700Y282199D01*
X320613Y282194D01*
X320526Y282185D01*
X320440Y282172D01*
X320354Y282155D01*
X320269Y282135D01*
X320185Y282110D01*
X320103Y282082D01*
X320022Y282050D01*
X319942Y282014D01*
X319864Y281975D01*
X319788Y281932D01*
X319714Y281886D01*
X319642Y281836D01*
X319572Y281783D01*
X319505Y281727D01*
X319440Y281668D01*
X319379Y281607D01*
X319320Y281542D01*
X319264Y281475D01*
X319211Y281405D01*
X319161Y281333D01*
X319115Y281259D01*
X319072Y281183D01*
X319033Y281105D01*
X318997Y281025D01*
X318965Y280944D01*
X318937Y280862D01*
X318912Y280778D01*
X318892Y280693D01*
X318875Y280607D01*
X318862Y280521D01*
X318853Y280434D01*
X318848Y280347D01*
X318847Y280259D01*
X318850Y280172D01*
X318857Y280085D01*
X318868Y279998D01*
X318883Y279912D01*
X318902Y279827D01*
X318924Y279742D01*
X318951Y279659D01*
X318981Y279577D01*
X319015Y279497D01*
X319052Y279418D01*
X319093Y279340D01*
X319138Y279265D01*
X319186Y279192D01*
X319237Y279121D01*
X319291Y279053D01*
X319349Y278987D01*
X319409Y278924D01*
X320087Y278246D01*
X322801Y280960D01*
X319017Y273105D02*
X314946Y277176D01*
X313250Y275480D01*
X313199Y275425D01*
X313150Y275368D01*
X313104Y275308D01*
X313061Y275246D01*
X313022Y275182D01*
X312986Y275115D01*
X312953Y275047D01*
X312925Y274978D01*
X312899Y274907D01*
X312878Y274834D01*
X312860Y274761D01*
X312847Y274687D01*
X312837Y274612D01*
X312831Y274537D01*
X312829Y274462D01*
X312831Y274387D01*
X312837Y274312D01*
X312847Y274237D01*
X312860Y274163D01*
X312878Y274090D01*
X312899Y274017D01*
X312925Y273946D01*
X312953Y273877D01*
X312986Y273809D01*
X313022Y273743D01*
X313061Y273678D01*
X313104Y273616D01*
X313150Y273556D01*
X313199Y273499D01*
X313250Y273445D01*
X313250Y273444D02*
X316303Y270391D01*
X310532Y264620D02*
X304426Y270726D01*
X310532Y264620D02*
X312229Y266316D01*
X312279Y266369D01*
X312326Y266425D01*
X312371Y266482D01*
X312413Y266542D01*
X312451Y266604D01*
X312486Y266668D01*
X312519Y266733D01*
X312547Y266800D01*
X312573Y266869D01*
X312594Y266938D01*
X312613Y267009D01*
X312627Y267080D01*
X312638Y267152D01*
X312646Y267225D01*
X312650Y267298D01*
X312650Y267370D01*
X312646Y267443D01*
X312638Y267516D01*
X312627Y267588D01*
X312613Y267659D01*
X312594Y267730D01*
X312573Y267799D01*
X312547Y267868D01*
X312519Y267935D01*
X312486Y268000D01*
X312451Y268064D01*
X312413Y268126D01*
X312371Y268186D01*
X312326Y268243D01*
X312279Y268299D01*
X312229Y268352D01*
X312229Y268351D02*
X310193Y270387D01*
X310138Y270438D01*
X310081Y270487D01*
X310021Y270533D01*
X309959Y270576D01*
X309895Y270615D01*
X309828Y270651D01*
X309760Y270684D01*
X309691Y270712D01*
X309620Y270738D01*
X309547Y270759D01*
X309474Y270777D01*
X309400Y270790D01*
X309325Y270800D01*
X309250Y270806D01*
X309175Y270808D01*
X309100Y270806D01*
X309025Y270800D01*
X308950Y270790D01*
X308876Y270777D01*
X308803Y270759D01*
X308730Y270738D01*
X308659Y270712D01*
X308590Y270684D01*
X308522Y270651D01*
X308456Y270615D01*
X308391Y270576D01*
X308329Y270533D01*
X308269Y270487D01*
X308212Y270438D01*
X308157Y270387D01*
X306461Y268691D01*
X302902Y256990D02*
X301545Y255633D01*
X302903Y256989D02*
X302953Y257042D01*
X303000Y257098D01*
X303045Y257155D01*
X303087Y257215D01*
X303125Y257277D01*
X303160Y257341D01*
X303193Y257406D01*
X303221Y257473D01*
X303247Y257542D01*
X303268Y257611D01*
X303287Y257682D01*
X303301Y257753D01*
X303312Y257825D01*
X303320Y257898D01*
X303324Y257971D01*
X303324Y258043D01*
X303320Y258116D01*
X303312Y258189D01*
X303301Y258261D01*
X303287Y258332D01*
X303268Y258403D01*
X303247Y258472D01*
X303221Y258541D01*
X303193Y258608D01*
X303160Y258673D01*
X303125Y258737D01*
X303087Y258799D01*
X303045Y258859D01*
X303000Y258916D01*
X302953Y258972D01*
X302903Y259025D01*
X302902Y259025D02*
X300867Y261061D01*
X300812Y261112D01*
X300755Y261161D01*
X300695Y261207D01*
X300633Y261250D01*
X300569Y261289D01*
X300502Y261325D01*
X300434Y261358D01*
X300365Y261386D01*
X300294Y261412D01*
X300221Y261433D01*
X300148Y261451D01*
X300074Y261464D01*
X299999Y261474D01*
X299924Y261480D01*
X299849Y261482D01*
X299774Y261480D01*
X299699Y261474D01*
X299624Y261464D01*
X299550Y261451D01*
X299477Y261433D01*
X299404Y261412D01*
X299333Y261386D01*
X299264Y261358D01*
X299196Y261325D01*
X299130Y261289D01*
X299065Y261250D01*
X299003Y261207D01*
X298943Y261161D01*
X298886Y261112D01*
X298831Y261061D01*
X297474Y259704D01*
X295460Y254296D02*
X293933Y252770D01*
X295460Y254296D02*
X295518Y254352D01*
X295580Y254405D01*
X295644Y254455D01*
X295710Y254502D01*
X295778Y254546D01*
X295849Y254586D01*
X295921Y254623D01*
X295995Y254656D01*
X296071Y254686D01*
X296147Y254712D01*
X296226Y254734D01*
X296305Y254753D01*
X296384Y254767D01*
X296465Y254778D01*
X296546Y254785D01*
X296627Y254788D01*
X296708Y254787D01*
X296789Y254782D01*
X296869Y254773D01*
X296950Y254760D01*
X297029Y254744D01*
X297108Y254724D01*
X297185Y254699D01*
X297261Y254672D01*
X297336Y254640D01*
X297409Y254605D01*
X297481Y254566D01*
X297550Y254524D01*
X297617Y254479D01*
X297682Y254431D01*
X297745Y254379D01*
X297805Y254325D01*
X297863Y254267D01*
X297917Y254207D01*
X297969Y254144D01*
X298017Y254079D01*
X298062Y254012D01*
X298104Y253943D01*
X298143Y253871D01*
X298178Y253798D01*
X298210Y253723D01*
X298237Y253647D01*
X298262Y253570D01*
X298282Y253491D01*
X298298Y253412D01*
X298311Y253331D01*
X298320Y253251D01*
X298325Y253170D01*
X298326Y253089D01*
X298323Y253008D01*
X298316Y252927D01*
X298305Y252846D01*
X298291Y252767D01*
X298272Y252688D01*
X298250Y252609D01*
X298224Y252533D01*
X298194Y252457D01*
X298161Y252383D01*
X298124Y252311D01*
X298084Y252240D01*
X298040Y252172D01*
X297993Y252106D01*
X297943Y252042D01*
X297890Y251980D01*
X297834Y251922D01*
X296308Y250395D01*
X293254Y253448D01*
X293204Y253501D01*
X293157Y253557D01*
X293112Y253614D01*
X293070Y253674D01*
X293032Y253736D01*
X292997Y253800D01*
X292964Y253865D01*
X292936Y253932D01*
X292910Y254001D01*
X292889Y254070D01*
X292870Y254141D01*
X292856Y254212D01*
X292845Y254284D01*
X292837Y254357D01*
X292833Y254430D01*
X292833Y254502D01*
X292837Y254575D01*
X292845Y254648D01*
X292856Y254720D01*
X292870Y254791D01*
X292889Y254862D01*
X292910Y254931D01*
X292936Y255000D01*
X292964Y255067D01*
X292997Y255132D01*
X293032Y255196D01*
X293070Y255258D01*
X293112Y255318D01*
X293157Y255375D01*
X293204Y255431D01*
X293255Y255484D01*
X293254Y255484D02*
X294611Y256841D01*
X286785Y253085D02*
X292891Y246978D01*
X291195Y245282D01*
X291140Y245231D01*
X291083Y245182D01*
X291023Y245136D01*
X290961Y245093D01*
X290897Y245054D01*
X290830Y245018D01*
X290762Y244985D01*
X290693Y244957D01*
X290622Y244931D01*
X290549Y244910D01*
X290476Y244892D01*
X290402Y244879D01*
X290327Y244869D01*
X290252Y244863D01*
X290177Y244861D01*
X290102Y244863D01*
X290027Y244869D01*
X289952Y244879D01*
X289878Y244892D01*
X289805Y244910D01*
X289732Y244931D01*
X289661Y244957D01*
X289592Y244985D01*
X289524Y245018D01*
X289458Y245054D01*
X289393Y245093D01*
X289331Y245136D01*
X289271Y245182D01*
X289214Y245231D01*
X289160Y245282D01*
X287124Y247318D01*
X287124Y247317D02*
X287074Y247370D01*
X287027Y247426D01*
X286982Y247483D01*
X286940Y247543D01*
X286902Y247605D01*
X286867Y247669D01*
X286834Y247734D01*
X286806Y247801D01*
X286780Y247870D01*
X286759Y247939D01*
X286740Y248010D01*
X286726Y248081D01*
X286715Y248153D01*
X286707Y248226D01*
X286703Y248299D01*
X286703Y248371D01*
X286707Y248444D01*
X286715Y248517D01*
X286726Y248589D01*
X286740Y248660D01*
X286759Y248731D01*
X286780Y248800D01*
X286806Y248869D01*
X286834Y248936D01*
X286867Y249001D01*
X286902Y249065D01*
X286940Y249127D01*
X286982Y249187D01*
X287027Y249244D01*
X287074Y249300D01*
X287124Y249353D01*
X288820Y251050D01*
X281202Y247502D02*
X286291Y242413D01*
X286342Y242358D01*
X286391Y242301D01*
X286437Y242241D01*
X286480Y242179D01*
X286519Y242115D01*
X286555Y242048D01*
X286588Y241980D01*
X286616Y241911D01*
X286642Y241840D01*
X286663Y241767D01*
X286681Y241694D01*
X286694Y241620D01*
X286704Y241545D01*
X286710Y241470D01*
X286712Y241395D01*
X286710Y241320D01*
X286704Y241245D01*
X286694Y241170D01*
X286681Y241096D01*
X286663Y241023D01*
X286642Y240950D01*
X286616Y240879D01*
X286588Y240810D01*
X286555Y240742D01*
X286519Y240676D01*
X286480Y240611D01*
X286437Y240549D01*
X286391Y240489D01*
X286342Y240432D01*
X286291Y240377D01*
X282870Y236957D02*
X281173Y235260D01*
X282870Y236956D02*
X282920Y237009D01*
X282967Y237065D01*
X283012Y237122D01*
X283054Y237182D01*
X283092Y237244D01*
X283127Y237308D01*
X283160Y237373D01*
X283188Y237440D01*
X283214Y237509D01*
X283235Y237578D01*
X283254Y237649D01*
X283268Y237720D01*
X283279Y237792D01*
X283287Y237865D01*
X283291Y237938D01*
X283291Y238010D01*
X283287Y238083D01*
X283279Y238156D01*
X283268Y238228D01*
X283254Y238299D01*
X283235Y238370D01*
X283214Y238439D01*
X283188Y238508D01*
X283160Y238575D01*
X283127Y238640D01*
X283092Y238704D01*
X283054Y238766D01*
X283012Y238826D01*
X282967Y238883D01*
X282920Y238939D01*
X282870Y238992D01*
X281173Y240688D01*
X281110Y240748D01*
X281044Y240806D01*
X280976Y240860D01*
X280905Y240911D01*
X280832Y240959D01*
X280757Y241004D01*
X280679Y241045D01*
X280601Y241082D01*
X280520Y241116D01*
X280438Y241146D01*
X280355Y241173D01*
X280270Y241195D01*
X280185Y241214D01*
X280099Y241229D01*
X280012Y241240D01*
X279925Y241247D01*
X279838Y241250D01*
X279750Y241249D01*
X279663Y241244D01*
X279576Y241235D01*
X279490Y241222D01*
X279404Y241205D01*
X279319Y241185D01*
X279235Y241160D01*
X279153Y241132D01*
X279072Y241100D01*
X278992Y241064D01*
X278914Y241025D01*
X278838Y240982D01*
X278764Y240936D01*
X278692Y240886D01*
X278622Y240833D01*
X278555Y240777D01*
X278490Y240718D01*
X278429Y240657D01*
X278370Y240592D01*
X278314Y240525D01*
X278261Y240455D01*
X278211Y240383D01*
X278165Y240309D01*
X278122Y240233D01*
X278083Y240155D01*
X278047Y240075D01*
X278015Y239994D01*
X277987Y239912D01*
X277962Y239828D01*
X277942Y239743D01*
X277925Y239657D01*
X277912Y239571D01*
X277903Y239484D01*
X277898Y239397D01*
X277897Y239309D01*
X277900Y239222D01*
X277907Y239135D01*
X277918Y239048D01*
X277933Y238962D01*
X277952Y238877D01*
X277974Y238792D01*
X278001Y238709D01*
X278031Y238627D01*
X278065Y238547D01*
X278102Y238468D01*
X278143Y238390D01*
X278188Y238315D01*
X278236Y238242D01*
X278287Y238171D01*
X278341Y238103D01*
X278399Y238037D01*
X278459Y237974D01*
X279138Y237296D01*
X281852Y240010D01*
X274620Y228707D02*
X268513Y234813D01*
X270549Y232778D02*
X268852Y231081D01*
X268852Y231082D02*
X268801Y231027D01*
X268752Y230970D01*
X268706Y230910D01*
X268663Y230848D01*
X268624Y230784D01*
X268588Y230717D01*
X268555Y230649D01*
X268527Y230580D01*
X268501Y230509D01*
X268480Y230436D01*
X268462Y230363D01*
X268449Y230289D01*
X268439Y230214D01*
X268433Y230139D01*
X268431Y230064D01*
X268433Y229989D01*
X268439Y229914D01*
X268449Y229839D01*
X268462Y229765D01*
X268480Y229692D01*
X268501Y229619D01*
X268527Y229548D01*
X268555Y229479D01*
X268588Y229411D01*
X268624Y229345D01*
X268663Y229280D01*
X268706Y229218D01*
X268752Y229158D01*
X268801Y229101D01*
X268852Y229047D01*
X268852Y229046D02*
X271906Y225993D01*
X267783Y221870D02*
X266087Y220173D01*
X267783Y221869D02*
X267833Y221922D01*
X267880Y221978D01*
X267925Y222035D01*
X267967Y222095D01*
X268005Y222157D01*
X268040Y222221D01*
X268073Y222286D01*
X268101Y222353D01*
X268127Y222422D01*
X268148Y222491D01*
X268167Y222562D01*
X268181Y222633D01*
X268192Y222705D01*
X268200Y222778D01*
X268204Y222851D01*
X268204Y222923D01*
X268200Y222996D01*
X268192Y223069D01*
X268181Y223141D01*
X268167Y223212D01*
X268148Y223283D01*
X268127Y223352D01*
X268101Y223421D01*
X268073Y223488D01*
X268040Y223553D01*
X268005Y223617D01*
X267967Y223679D01*
X267925Y223739D01*
X267880Y223796D01*
X267833Y223852D01*
X267783Y223905D01*
X266087Y225601D01*
X266024Y225661D01*
X265958Y225719D01*
X265890Y225773D01*
X265819Y225824D01*
X265746Y225872D01*
X265671Y225917D01*
X265593Y225958D01*
X265515Y225995D01*
X265434Y226029D01*
X265352Y226059D01*
X265269Y226086D01*
X265184Y226108D01*
X265099Y226127D01*
X265013Y226142D01*
X264926Y226153D01*
X264839Y226160D01*
X264752Y226163D01*
X264664Y226162D01*
X264577Y226157D01*
X264490Y226148D01*
X264404Y226135D01*
X264318Y226118D01*
X264233Y226098D01*
X264149Y226073D01*
X264067Y226045D01*
X263986Y226013D01*
X263906Y225977D01*
X263828Y225938D01*
X263752Y225895D01*
X263678Y225849D01*
X263606Y225799D01*
X263536Y225746D01*
X263469Y225690D01*
X263404Y225631D01*
X263343Y225570D01*
X263284Y225505D01*
X263228Y225438D01*
X263175Y225368D01*
X263125Y225296D01*
X263079Y225222D01*
X263036Y225146D01*
X262997Y225068D01*
X262961Y224988D01*
X262929Y224907D01*
X262901Y224825D01*
X262876Y224741D01*
X262856Y224656D01*
X262839Y224570D01*
X262826Y224484D01*
X262817Y224397D01*
X262812Y224310D01*
X262811Y224222D01*
X262814Y224135D01*
X262821Y224048D01*
X262832Y223961D01*
X262847Y223875D01*
X262866Y223790D01*
X262888Y223705D01*
X262915Y223622D01*
X262945Y223540D01*
X262979Y223460D01*
X263016Y223381D01*
X263057Y223303D01*
X263102Y223228D01*
X263150Y223155D01*
X263201Y223084D01*
X263255Y223016D01*
X263313Y222950D01*
X263373Y222887D01*
X264051Y222209D01*
X266765Y224923D01*
X262927Y217014D02*
X258856Y221085D01*
X256821Y219050D01*
X257499Y218371D01*
X257653Y211740D02*
X255957Y210044D01*
X257654Y211740D02*
X257704Y211793D01*
X257751Y211849D01*
X257796Y211906D01*
X257838Y211966D01*
X257876Y212028D01*
X257911Y212092D01*
X257944Y212157D01*
X257972Y212224D01*
X257998Y212293D01*
X258019Y212362D01*
X258038Y212433D01*
X258052Y212504D01*
X258063Y212576D01*
X258071Y212649D01*
X258075Y212722D01*
X258075Y212794D01*
X258071Y212867D01*
X258063Y212940D01*
X258052Y213012D01*
X258038Y213083D01*
X258019Y213154D01*
X257998Y213223D01*
X257972Y213292D01*
X257944Y213359D01*
X257911Y213424D01*
X257876Y213488D01*
X257838Y213550D01*
X257796Y213610D01*
X257751Y213667D01*
X257704Y213723D01*
X257654Y213776D01*
X257653Y213775D02*
X255957Y215472D01*
X255894Y215532D01*
X255828Y215590D01*
X255760Y215644D01*
X255689Y215695D01*
X255616Y215743D01*
X255541Y215788D01*
X255463Y215829D01*
X255385Y215866D01*
X255304Y215900D01*
X255222Y215930D01*
X255139Y215957D01*
X255054Y215979D01*
X254969Y215998D01*
X254883Y216013D01*
X254796Y216024D01*
X254709Y216031D01*
X254622Y216034D01*
X254534Y216033D01*
X254447Y216028D01*
X254360Y216019D01*
X254274Y216006D01*
X254188Y215989D01*
X254103Y215969D01*
X254019Y215944D01*
X253937Y215916D01*
X253856Y215884D01*
X253776Y215848D01*
X253698Y215809D01*
X253622Y215766D01*
X253548Y215720D01*
X253476Y215670D01*
X253406Y215617D01*
X253339Y215561D01*
X253274Y215502D01*
X253213Y215441D01*
X253154Y215376D01*
X253098Y215309D01*
X253045Y215239D01*
X252995Y215167D01*
X252949Y215093D01*
X252906Y215017D01*
X252867Y214939D01*
X252831Y214859D01*
X252799Y214778D01*
X252771Y214696D01*
X252746Y214612D01*
X252726Y214527D01*
X252709Y214441D01*
X252696Y214355D01*
X252687Y214268D01*
X252682Y214181D01*
X252681Y214093D01*
X252684Y214006D01*
X252691Y213919D01*
X252702Y213832D01*
X252717Y213746D01*
X252736Y213661D01*
X252758Y213576D01*
X252785Y213493D01*
X252815Y213411D01*
X252849Y213331D01*
X252886Y213252D01*
X252927Y213174D01*
X252972Y213099D01*
X253020Y213026D01*
X253071Y212955D01*
X253125Y212887D01*
X253183Y212821D01*
X253243Y212758D01*
X253921Y212079D01*
X256635Y214793D01*
X111760Y293370D02*
X111760Y6350D01*
X111760Y293370D02*
X215900Y293370D01*
X215900Y6350D01*
X111760Y6350D01*
X111760Y8128D02*
X215900Y8128D01*
X215900Y16256D02*
X111760Y16256D01*
X111760Y24384D02*
X215900Y24384D01*
X215900Y32512D02*
X111760Y32512D01*
X111760Y40640D02*
X215900Y40640D01*
X215900Y48768D02*
X111760Y48768D01*
X111760Y56896D02*
X215900Y56896D01*
X215900Y65024D02*
X111760Y65024D01*
X111760Y73152D02*
X215900Y73152D01*
X215900Y81280D02*
X111760Y81280D01*
X111760Y89408D02*
X215900Y89408D01*
X215900Y97536D02*
X111760Y97536D01*
X111760Y105664D02*
X215900Y105664D01*
X215900Y113792D02*
X111760Y113792D01*
X111760Y121920D02*
X215900Y121920D01*
X215900Y130048D02*
X111760Y130048D01*
X111760Y138176D02*
X215900Y138176D01*
X215900Y146304D02*
X111760Y146304D01*
X111760Y154432D02*
X215900Y154432D01*
X215900Y162560D02*
X111760Y162560D01*
X111760Y170688D02*
X215900Y170688D01*
X215900Y178816D02*
X111760Y178816D01*
X111760Y186944D02*
X215900Y186944D01*
X215900Y195072D02*
X111760Y195072D01*
X111760Y203200D02*
X215900Y203200D01*
X215900Y211328D02*
X111760Y211328D01*
X111760Y219456D02*
X215900Y219456D01*
X215900Y227584D02*
X111760Y227584D01*
X111760Y235712D02*
X215900Y235712D01*
X215900Y243840D02*
X111760Y243840D01*
X111760Y251968D02*
X215900Y251968D01*
X215900Y260096D02*
X111760Y260096D01*
X111760Y268224D02*
X215900Y268224D01*
X215900Y276352D02*
X111760Y276352D01*
X111760Y284480D02*
X215900Y284480D01*
X215900Y292608D02*
X111760Y292608D01*
X113792Y293370D02*
X113792Y6350D01*
X121920Y6350D02*
X121920Y293370D01*
X130048Y293370D02*
X130048Y6350D01*
X138176Y6350D02*
X138176Y293370D01*
X146304Y293370D02*
X146304Y6350D01*
X154432Y6350D02*
X154432Y293370D01*
X162560Y293370D02*
X162560Y6350D01*
X170688Y6350D02*
X170688Y293370D01*
X178816Y293370D02*
X178816Y6350D01*
X186944Y6350D02*
X186944Y293370D01*
X195072Y293370D02*
X195072Y6350D01*
X203200Y6350D02*
X203200Y293370D01*
X211328Y293370D02*
X211328Y6350D01*
D10*
X1056640Y295910D02*
X1073150Y279400D01*
X1228090Y279400D01*
X1407160Y115570D02*
X1457960Y64770D01*
X1407160Y115570D02*
X1407160Y196850D01*
X1397000Y207010D01*
X1397000Y237490D01*
X1407160Y247650D01*
X1407160Y290830D01*
X1402080Y295910D01*
X1244600Y295910D01*
D11*
X669290Y85090D02*
X661636Y77436D01*
X654565Y70365D02*
X646911Y62711D01*
X639840Y55640D02*
X632186Y47986D01*
X625114Y40914D02*
X617460Y33260D01*
X610389Y26189D02*
X602735Y18535D01*
X595664Y11464D02*
X588010Y3810D01*
X594360Y3810D02*
X673100Y82550D01*
X673100Y3810D01*
X594360Y3810D01*
X598678Y8128D02*
X673100Y8128D01*
X673100Y16256D02*
X606806Y16256D01*
X614934Y24384D02*
X673100Y24384D01*
X673100Y32512D02*
X623062Y32512D01*
X631190Y40640D02*
X673100Y40640D01*
X673100Y48768D02*
X639318Y48768D01*
X647446Y56896D02*
X673100Y56896D01*
X673100Y65024D02*
X655574Y65024D01*
X663702Y73152D02*
X673100Y73152D01*
X673100Y81280D02*
X671830Y81280D01*
X601472Y10922D02*
X601472Y3810D01*
X609600Y3810D02*
X609600Y19050D01*
X617728Y27178D02*
X617728Y3810D01*
X625856Y3810D02*
X625856Y35306D01*
X633984Y43434D02*
X633984Y3810D01*
X642112Y3810D02*
X642112Y51562D01*
X650240Y59690D02*
X650240Y3810D01*
X658368Y3810D02*
X658368Y67818D01*
X666496Y75946D02*
X666496Y3810D01*
X588261Y7280D02*
X582154Y13386D01*
X583850Y15083D01*
X583905Y15134D01*
X583962Y15183D01*
X584022Y15229D01*
X584084Y15272D01*
X584148Y15311D01*
X584215Y15347D01*
X584283Y15380D01*
X584352Y15408D01*
X584423Y15434D01*
X584496Y15455D01*
X584569Y15473D01*
X584643Y15486D01*
X584718Y15496D01*
X584793Y15502D01*
X584868Y15504D01*
X584943Y15502D01*
X585018Y15496D01*
X585093Y15486D01*
X585167Y15473D01*
X585240Y15455D01*
X585313Y15434D01*
X585384Y15408D01*
X585453Y15380D01*
X585521Y15347D01*
X585587Y15311D01*
X585652Y15272D01*
X585714Y15229D01*
X585774Y15183D01*
X585831Y15134D01*
X585885Y15083D01*
X585886Y15083D02*
X587921Y13047D01*
X587922Y13047D02*
X587972Y12994D01*
X588019Y12938D01*
X588064Y12881D01*
X588106Y12821D01*
X588144Y12759D01*
X588179Y12695D01*
X588212Y12630D01*
X588240Y12563D01*
X588266Y12494D01*
X588287Y12425D01*
X588306Y12354D01*
X588320Y12283D01*
X588331Y12211D01*
X588339Y12138D01*
X588343Y12065D01*
X588343Y11993D01*
X588339Y11920D01*
X588331Y11847D01*
X588320Y11775D01*
X588306Y11704D01*
X588287Y11633D01*
X588266Y11564D01*
X588240Y11495D01*
X588212Y11428D01*
X588179Y11363D01*
X588144Y11299D01*
X588106Y11237D01*
X588064Y11177D01*
X588019Y11120D01*
X587972Y11064D01*
X587922Y11011D01*
X587921Y11012D02*
X586225Y9315D01*
X588728Y19960D02*
X590424Y21656D01*
X588727Y19960D02*
X588676Y19905D01*
X588627Y19848D01*
X588581Y19788D01*
X588538Y19726D01*
X588499Y19662D01*
X588463Y19595D01*
X588430Y19527D01*
X588402Y19458D01*
X588376Y19387D01*
X588355Y19314D01*
X588337Y19241D01*
X588324Y19167D01*
X588314Y19092D01*
X588308Y19017D01*
X588306Y18942D01*
X588308Y18867D01*
X588314Y18792D01*
X588324Y18717D01*
X588337Y18643D01*
X588355Y18570D01*
X588376Y18497D01*
X588402Y18426D01*
X588430Y18357D01*
X588463Y18289D01*
X588499Y18223D01*
X588538Y18158D01*
X588581Y18096D01*
X588627Y18036D01*
X588676Y17979D01*
X588727Y17924D01*
X588728Y17924D02*
X590424Y16228D01*
X590486Y16169D01*
X590551Y16112D01*
X590618Y16058D01*
X590688Y16008D01*
X590760Y15960D01*
X590834Y15916D01*
X590910Y15875D01*
X590987Y15838D01*
X591067Y15804D01*
X591147Y15774D01*
X591229Y15747D01*
X591312Y15724D01*
X591396Y15705D01*
X591481Y15690D01*
X591566Y15678D01*
X591652Y15670D01*
X591738Y15666D01*
X591824Y15666D01*
X591910Y15670D01*
X591996Y15678D01*
X592081Y15690D01*
X592166Y15705D01*
X592250Y15724D01*
X592333Y15747D01*
X592415Y15774D01*
X592495Y15804D01*
X592575Y15838D01*
X592652Y15875D01*
X592728Y15916D01*
X592802Y15960D01*
X592874Y16008D01*
X592944Y16058D01*
X593011Y16112D01*
X593076Y16169D01*
X593138Y16228D01*
X593197Y16290D01*
X593254Y16355D01*
X593308Y16422D01*
X593358Y16492D01*
X593406Y16564D01*
X593450Y16638D01*
X593491Y16714D01*
X593528Y16791D01*
X593562Y16871D01*
X593592Y16951D01*
X593619Y17033D01*
X593642Y17116D01*
X593661Y17200D01*
X593676Y17285D01*
X593688Y17370D01*
X593696Y17456D01*
X593700Y17542D01*
X593700Y17628D01*
X593696Y17714D01*
X593688Y17800D01*
X593676Y17885D01*
X593661Y17970D01*
X593642Y18054D01*
X593619Y18137D01*
X593592Y18219D01*
X593562Y18299D01*
X593528Y18379D01*
X593491Y18456D01*
X593450Y18532D01*
X593406Y18606D01*
X593358Y18678D01*
X593308Y18748D01*
X593254Y18815D01*
X593197Y18880D01*
X593138Y18942D01*
X592460Y19621D01*
X589745Y16907D01*
X593529Y24761D02*
X597600Y20690D01*
X599296Y22387D01*
X599297Y22386D02*
X599348Y22441D01*
X599397Y22498D01*
X599443Y22558D01*
X599486Y22620D01*
X599525Y22684D01*
X599561Y22751D01*
X599594Y22819D01*
X599622Y22888D01*
X599648Y22959D01*
X599669Y23032D01*
X599687Y23105D01*
X599700Y23179D01*
X599710Y23254D01*
X599716Y23329D01*
X599718Y23404D01*
X599716Y23479D01*
X599710Y23554D01*
X599700Y23629D01*
X599687Y23703D01*
X599669Y23776D01*
X599648Y23849D01*
X599622Y23920D01*
X599594Y23989D01*
X599561Y24057D01*
X599525Y24123D01*
X599486Y24188D01*
X599443Y24250D01*
X599397Y24310D01*
X599348Y24367D01*
X599297Y24421D01*
X599297Y24422D02*
X596243Y27475D01*
X602015Y33247D02*
X608121Y27140D01*
X602015Y33247D02*
X600318Y31550D01*
X600318Y31551D02*
X600267Y31496D01*
X600218Y31439D01*
X600172Y31379D01*
X600129Y31317D01*
X600090Y31253D01*
X600054Y31186D01*
X600021Y31118D01*
X599993Y31049D01*
X599967Y30978D01*
X599946Y30905D01*
X599928Y30832D01*
X599915Y30758D01*
X599905Y30683D01*
X599899Y30608D01*
X599897Y30533D01*
X599899Y30458D01*
X599905Y30383D01*
X599915Y30308D01*
X599928Y30234D01*
X599946Y30161D01*
X599967Y30088D01*
X599993Y30017D01*
X600021Y29948D01*
X600054Y29880D01*
X600090Y29814D01*
X600129Y29749D01*
X600172Y29687D01*
X600218Y29627D01*
X600267Y29570D01*
X600318Y29515D01*
X602354Y27479D01*
X602409Y27428D01*
X602466Y27379D01*
X602526Y27333D01*
X602588Y27290D01*
X602653Y27251D01*
X602719Y27215D01*
X602787Y27182D01*
X602856Y27154D01*
X602927Y27128D01*
X603000Y27107D01*
X603073Y27089D01*
X603147Y27076D01*
X603222Y27066D01*
X603297Y27060D01*
X603372Y27058D01*
X603447Y27060D01*
X603522Y27066D01*
X603597Y27076D01*
X603671Y27089D01*
X603744Y27107D01*
X603817Y27128D01*
X603888Y27154D01*
X603957Y27182D01*
X604025Y27215D01*
X604092Y27251D01*
X604156Y27290D01*
X604218Y27333D01*
X604278Y27379D01*
X604335Y27428D01*
X604390Y27479D01*
X604389Y27479D02*
X606086Y29176D01*
X609645Y40876D02*
X611002Y42233D01*
X609644Y40877D02*
X609593Y40822D01*
X609544Y40765D01*
X609498Y40705D01*
X609455Y40643D01*
X609416Y40579D01*
X609380Y40512D01*
X609347Y40444D01*
X609319Y40375D01*
X609293Y40304D01*
X609272Y40231D01*
X609254Y40158D01*
X609241Y40084D01*
X609231Y40009D01*
X609225Y39934D01*
X609223Y39859D01*
X609225Y39784D01*
X609231Y39709D01*
X609241Y39634D01*
X609254Y39560D01*
X609272Y39487D01*
X609293Y39414D01*
X609319Y39343D01*
X609347Y39274D01*
X609380Y39206D01*
X609416Y39140D01*
X609455Y39075D01*
X609498Y39013D01*
X609544Y38953D01*
X609593Y38896D01*
X609644Y38841D01*
X609645Y38841D02*
X611680Y36805D01*
X611735Y36754D01*
X611792Y36705D01*
X611852Y36659D01*
X611914Y36616D01*
X611979Y36577D01*
X612045Y36541D01*
X612113Y36508D01*
X612182Y36480D01*
X612253Y36454D01*
X612326Y36433D01*
X612399Y36415D01*
X612473Y36402D01*
X612548Y36392D01*
X612623Y36386D01*
X612698Y36384D01*
X612773Y36386D01*
X612848Y36392D01*
X612923Y36402D01*
X612997Y36415D01*
X613070Y36433D01*
X613143Y36454D01*
X613214Y36480D01*
X613283Y36508D01*
X613351Y36541D01*
X613418Y36577D01*
X613482Y36616D01*
X613544Y36659D01*
X613604Y36705D01*
X613661Y36754D01*
X613716Y36805D01*
X615073Y38162D01*
X617087Y43570D02*
X618614Y45096D01*
X617087Y43570D02*
X617029Y43514D01*
X616967Y43461D01*
X616903Y43411D01*
X616837Y43364D01*
X616769Y43320D01*
X616698Y43280D01*
X616626Y43243D01*
X616552Y43210D01*
X616476Y43180D01*
X616400Y43154D01*
X616321Y43132D01*
X616242Y43113D01*
X616163Y43099D01*
X616082Y43088D01*
X616001Y43081D01*
X615920Y43078D01*
X615839Y43079D01*
X615758Y43084D01*
X615678Y43093D01*
X615597Y43106D01*
X615518Y43122D01*
X615439Y43142D01*
X615362Y43167D01*
X615286Y43194D01*
X615211Y43226D01*
X615138Y43261D01*
X615066Y43300D01*
X614997Y43342D01*
X614930Y43387D01*
X614865Y43435D01*
X614802Y43487D01*
X614742Y43541D01*
X614684Y43599D01*
X614630Y43659D01*
X614578Y43722D01*
X614530Y43787D01*
X614485Y43854D01*
X614443Y43923D01*
X614404Y43995D01*
X614369Y44068D01*
X614337Y44143D01*
X614310Y44219D01*
X614285Y44296D01*
X614265Y44375D01*
X614249Y44454D01*
X614236Y44535D01*
X614227Y44615D01*
X614222Y44696D01*
X614221Y44777D01*
X614224Y44858D01*
X614231Y44939D01*
X614242Y45020D01*
X614256Y45099D01*
X614275Y45178D01*
X614297Y45257D01*
X614323Y45333D01*
X614353Y45409D01*
X614386Y45483D01*
X614423Y45555D01*
X614463Y45626D01*
X614507Y45694D01*
X614554Y45760D01*
X614604Y45824D01*
X614657Y45886D01*
X614713Y45944D01*
X616239Y47471D01*
X619293Y44418D01*
X619343Y44365D01*
X619390Y44309D01*
X619435Y44252D01*
X619477Y44192D01*
X619515Y44130D01*
X619550Y44066D01*
X619583Y44001D01*
X619611Y43934D01*
X619637Y43865D01*
X619658Y43796D01*
X619677Y43725D01*
X619691Y43654D01*
X619702Y43582D01*
X619710Y43509D01*
X619714Y43436D01*
X619714Y43364D01*
X619710Y43291D01*
X619702Y43218D01*
X619691Y43146D01*
X619677Y43075D01*
X619658Y43004D01*
X619637Y42935D01*
X619611Y42866D01*
X619583Y42799D01*
X619550Y42734D01*
X619515Y42670D01*
X619477Y42608D01*
X619435Y42548D01*
X619390Y42491D01*
X619343Y42435D01*
X619292Y42382D01*
X617935Y41025D01*
X625762Y44781D02*
X619656Y50887D01*
X621352Y52584D01*
X621407Y52635D01*
X621464Y52684D01*
X621524Y52730D01*
X621586Y52773D01*
X621650Y52812D01*
X621717Y52848D01*
X621785Y52881D01*
X621854Y52909D01*
X621925Y52935D01*
X621998Y52956D01*
X622071Y52974D01*
X622145Y52987D01*
X622220Y52997D01*
X622295Y53003D01*
X622370Y53005D01*
X622445Y53003D01*
X622520Y52997D01*
X622595Y52987D01*
X622669Y52974D01*
X622742Y52956D01*
X622815Y52935D01*
X622886Y52909D01*
X622955Y52881D01*
X623023Y52848D01*
X623089Y52812D01*
X623154Y52773D01*
X623216Y52730D01*
X623276Y52684D01*
X623333Y52635D01*
X623387Y52584D01*
X625423Y50548D01*
X625473Y50495D01*
X625520Y50439D01*
X625565Y50382D01*
X625607Y50322D01*
X625645Y50260D01*
X625680Y50196D01*
X625713Y50131D01*
X625741Y50064D01*
X625767Y49995D01*
X625788Y49926D01*
X625807Y49855D01*
X625821Y49784D01*
X625832Y49712D01*
X625840Y49639D01*
X625844Y49566D01*
X625844Y49494D01*
X625840Y49421D01*
X625832Y49348D01*
X625821Y49276D01*
X625807Y49205D01*
X625788Y49134D01*
X625767Y49065D01*
X625741Y48996D01*
X625713Y48929D01*
X625680Y48864D01*
X625645Y48800D01*
X625607Y48738D01*
X625565Y48678D01*
X625520Y48621D01*
X625473Y48565D01*
X625423Y48512D01*
X625423Y48513D02*
X623727Y46816D01*
X631345Y50364D02*
X626257Y55453D01*
X626256Y55452D02*
X626206Y55505D01*
X626159Y55561D01*
X626114Y55618D01*
X626072Y55678D01*
X626034Y55740D01*
X625999Y55804D01*
X625966Y55869D01*
X625938Y55936D01*
X625912Y56005D01*
X625891Y56074D01*
X625872Y56145D01*
X625858Y56216D01*
X625847Y56288D01*
X625839Y56361D01*
X625835Y56434D01*
X625835Y56506D01*
X625839Y56579D01*
X625847Y56652D01*
X625858Y56724D01*
X625872Y56795D01*
X625891Y56866D01*
X625912Y56935D01*
X625938Y57004D01*
X625966Y57071D01*
X625999Y57136D01*
X626034Y57200D01*
X626072Y57262D01*
X626114Y57322D01*
X626159Y57379D01*
X626206Y57435D01*
X626256Y57488D01*
X629678Y60909D02*
X631374Y62606D01*
X629677Y60910D02*
X629626Y60855D01*
X629577Y60798D01*
X629531Y60738D01*
X629488Y60676D01*
X629449Y60612D01*
X629413Y60545D01*
X629380Y60477D01*
X629352Y60408D01*
X629326Y60337D01*
X629305Y60264D01*
X629287Y60191D01*
X629274Y60117D01*
X629264Y60042D01*
X629258Y59967D01*
X629256Y59892D01*
X629258Y59817D01*
X629264Y59742D01*
X629274Y59667D01*
X629287Y59593D01*
X629305Y59520D01*
X629326Y59447D01*
X629352Y59376D01*
X629380Y59307D01*
X629413Y59239D01*
X629449Y59173D01*
X629488Y59108D01*
X629531Y59046D01*
X629577Y58986D01*
X629626Y58929D01*
X629677Y58874D01*
X629678Y58874D02*
X631374Y57178D01*
X631436Y57119D01*
X631501Y57062D01*
X631568Y57008D01*
X631638Y56958D01*
X631710Y56910D01*
X631784Y56866D01*
X631860Y56825D01*
X631937Y56788D01*
X632017Y56754D01*
X632097Y56724D01*
X632179Y56697D01*
X632262Y56674D01*
X632346Y56655D01*
X632431Y56640D01*
X632516Y56628D01*
X632602Y56620D01*
X632688Y56616D01*
X632774Y56616D01*
X632860Y56620D01*
X632946Y56628D01*
X633031Y56640D01*
X633116Y56655D01*
X633200Y56674D01*
X633283Y56697D01*
X633365Y56724D01*
X633445Y56754D01*
X633525Y56788D01*
X633602Y56825D01*
X633678Y56866D01*
X633752Y56910D01*
X633824Y56958D01*
X633894Y57008D01*
X633961Y57062D01*
X634026Y57119D01*
X634088Y57178D01*
X634147Y57240D01*
X634204Y57305D01*
X634258Y57372D01*
X634308Y57442D01*
X634356Y57514D01*
X634400Y57588D01*
X634441Y57664D01*
X634478Y57741D01*
X634512Y57821D01*
X634542Y57901D01*
X634569Y57983D01*
X634592Y58066D01*
X634611Y58150D01*
X634626Y58235D01*
X634638Y58320D01*
X634646Y58406D01*
X634650Y58492D01*
X634650Y58578D01*
X634646Y58664D01*
X634638Y58750D01*
X634626Y58835D01*
X634611Y58920D01*
X634592Y59004D01*
X634569Y59087D01*
X634542Y59169D01*
X634512Y59249D01*
X634478Y59329D01*
X634441Y59406D01*
X634400Y59482D01*
X634356Y59556D01*
X634308Y59628D01*
X634258Y59698D01*
X634204Y59765D01*
X634147Y59830D01*
X634088Y59892D01*
X633409Y60570D01*
X630695Y57856D01*
X637927Y69159D02*
X644034Y63052D01*
X641999Y65088D02*
X643695Y66784D01*
X643746Y66839D01*
X643795Y66896D01*
X643841Y66956D01*
X643884Y67018D01*
X643923Y67082D01*
X643959Y67149D01*
X643992Y67217D01*
X644020Y67286D01*
X644046Y67357D01*
X644067Y67430D01*
X644085Y67503D01*
X644098Y67577D01*
X644108Y67652D01*
X644114Y67727D01*
X644116Y67802D01*
X644114Y67877D01*
X644108Y67952D01*
X644098Y68027D01*
X644085Y68101D01*
X644067Y68174D01*
X644046Y68247D01*
X644020Y68318D01*
X643992Y68387D01*
X643959Y68455D01*
X643923Y68521D01*
X643884Y68586D01*
X643841Y68648D01*
X643795Y68708D01*
X643746Y68765D01*
X643695Y68819D01*
X643695Y68820D02*
X640642Y71873D01*
X644764Y75996D02*
X646461Y77692D01*
X644764Y75996D02*
X644713Y75941D01*
X644664Y75884D01*
X644618Y75824D01*
X644575Y75762D01*
X644536Y75698D01*
X644500Y75631D01*
X644467Y75563D01*
X644439Y75494D01*
X644413Y75423D01*
X644392Y75350D01*
X644374Y75277D01*
X644361Y75203D01*
X644351Y75128D01*
X644345Y75053D01*
X644343Y74978D01*
X644345Y74903D01*
X644351Y74828D01*
X644361Y74753D01*
X644374Y74679D01*
X644392Y74606D01*
X644413Y74533D01*
X644439Y74462D01*
X644467Y74393D01*
X644500Y74325D01*
X644536Y74259D01*
X644575Y74194D01*
X644618Y74132D01*
X644664Y74072D01*
X644713Y74015D01*
X644764Y73960D01*
X646461Y72264D01*
X646523Y72205D01*
X646588Y72148D01*
X646655Y72094D01*
X646725Y72044D01*
X646797Y71996D01*
X646871Y71952D01*
X646947Y71911D01*
X647024Y71874D01*
X647104Y71840D01*
X647184Y71810D01*
X647266Y71783D01*
X647349Y71760D01*
X647433Y71741D01*
X647518Y71726D01*
X647603Y71714D01*
X647689Y71706D01*
X647775Y71702D01*
X647861Y71702D01*
X647947Y71706D01*
X648033Y71714D01*
X648118Y71726D01*
X648203Y71741D01*
X648287Y71760D01*
X648370Y71783D01*
X648452Y71810D01*
X648532Y71840D01*
X648612Y71874D01*
X648689Y71911D01*
X648765Y71952D01*
X648839Y71996D01*
X648911Y72044D01*
X648981Y72094D01*
X649048Y72148D01*
X649113Y72205D01*
X649175Y72264D01*
X649234Y72326D01*
X649291Y72391D01*
X649345Y72458D01*
X649395Y72528D01*
X649443Y72600D01*
X649487Y72674D01*
X649528Y72750D01*
X649565Y72827D01*
X649599Y72907D01*
X649629Y72987D01*
X649656Y73069D01*
X649679Y73152D01*
X649698Y73236D01*
X649713Y73321D01*
X649725Y73406D01*
X649733Y73492D01*
X649737Y73578D01*
X649737Y73664D01*
X649733Y73750D01*
X649725Y73836D01*
X649713Y73921D01*
X649698Y74006D01*
X649679Y74090D01*
X649656Y74173D01*
X649629Y74255D01*
X649599Y74335D01*
X649565Y74415D01*
X649528Y74492D01*
X649487Y74568D01*
X649443Y74642D01*
X649395Y74714D01*
X649345Y74784D01*
X649291Y74851D01*
X649234Y74916D01*
X649175Y74978D01*
X648496Y75657D01*
X645782Y72943D01*
X649620Y80851D02*
X653691Y76780D01*
X655726Y78816D01*
X655048Y79494D01*
X654894Y86126D02*
X656590Y87822D01*
X654894Y86126D02*
X654843Y86071D01*
X654794Y86014D01*
X654748Y85954D01*
X654705Y85892D01*
X654666Y85828D01*
X654630Y85761D01*
X654597Y85693D01*
X654569Y85624D01*
X654543Y85553D01*
X654522Y85480D01*
X654504Y85407D01*
X654491Y85333D01*
X654481Y85258D01*
X654475Y85183D01*
X654473Y85108D01*
X654475Y85033D01*
X654481Y84958D01*
X654491Y84883D01*
X654504Y84809D01*
X654522Y84736D01*
X654543Y84663D01*
X654569Y84592D01*
X654597Y84523D01*
X654630Y84455D01*
X654666Y84389D01*
X654705Y84324D01*
X654748Y84262D01*
X654794Y84202D01*
X654843Y84145D01*
X654894Y84090D01*
X656590Y82394D01*
X656652Y82335D01*
X656717Y82278D01*
X656784Y82224D01*
X656854Y82174D01*
X656926Y82126D01*
X657000Y82082D01*
X657076Y82041D01*
X657153Y82004D01*
X657233Y81970D01*
X657313Y81940D01*
X657395Y81913D01*
X657478Y81890D01*
X657562Y81871D01*
X657647Y81856D01*
X657732Y81844D01*
X657818Y81836D01*
X657904Y81832D01*
X657990Y81832D01*
X658076Y81836D01*
X658162Y81844D01*
X658247Y81856D01*
X658332Y81871D01*
X658416Y81890D01*
X658499Y81913D01*
X658581Y81940D01*
X658661Y81970D01*
X658741Y82004D01*
X658818Y82041D01*
X658894Y82082D01*
X658968Y82126D01*
X659040Y82174D01*
X659110Y82224D01*
X659177Y82278D01*
X659242Y82335D01*
X659304Y82394D01*
X659363Y82456D01*
X659420Y82521D01*
X659474Y82588D01*
X659524Y82658D01*
X659572Y82730D01*
X659616Y82804D01*
X659657Y82880D01*
X659694Y82957D01*
X659728Y83037D01*
X659758Y83117D01*
X659785Y83199D01*
X659808Y83282D01*
X659827Y83366D01*
X659842Y83451D01*
X659854Y83536D01*
X659862Y83622D01*
X659866Y83708D01*
X659866Y83794D01*
X659862Y83880D01*
X659854Y83966D01*
X659842Y84051D01*
X659827Y84136D01*
X659808Y84220D01*
X659785Y84303D01*
X659758Y84385D01*
X659728Y84465D01*
X659694Y84545D01*
X659657Y84622D01*
X659616Y84698D01*
X659572Y84772D01*
X659524Y84844D01*
X659474Y84914D01*
X659420Y84981D01*
X659363Y85046D01*
X659304Y85108D01*
X659305Y85108D02*
X658626Y85786D01*
X655912Y83072D01*
X1350772Y7112D02*
X1359408Y7112D01*
X1350772Y7112D02*
X1350772Y9511D01*
X1350774Y9586D01*
X1350780Y9661D01*
X1350790Y9736D01*
X1350803Y9810D01*
X1350821Y9883D01*
X1350842Y9956D01*
X1350868Y10027D01*
X1350896Y10096D01*
X1350929Y10164D01*
X1350965Y10230D01*
X1351004Y10295D01*
X1351047Y10357D01*
X1351093Y10417D01*
X1351142Y10474D01*
X1351193Y10529D01*
X1351248Y10580D01*
X1351305Y10629D01*
X1351365Y10675D01*
X1351427Y10718D01*
X1351491Y10757D01*
X1351558Y10793D01*
X1351626Y10826D01*
X1351695Y10854D01*
X1351766Y10880D01*
X1351839Y10901D01*
X1351912Y10919D01*
X1351986Y10932D01*
X1352061Y10942D01*
X1352136Y10948D01*
X1352211Y10950D01*
X1355090Y10950D01*
X1355165Y10948D01*
X1355240Y10942D01*
X1355315Y10932D01*
X1355389Y10919D01*
X1355462Y10901D01*
X1355535Y10880D01*
X1355606Y10854D01*
X1355675Y10826D01*
X1355743Y10793D01*
X1355810Y10757D01*
X1355874Y10718D01*
X1355936Y10675D01*
X1355996Y10629D01*
X1356053Y10580D01*
X1356108Y10529D01*
X1356159Y10474D01*
X1356208Y10417D01*
X1356254Y10357D01*
X1356297Y10295D01*
X1356336Y10231D01*
X1356372Y10164D01*
X1356405Y10096D01*
X1356433Y10027D01*
X1356459Y9956D01*
X1356480Y9883D01*
X1356498Y9810D01*
X1356511Y9736D01*
X1356521Y9661D01*
X1356527Y9586D01*
X1356529Y9511D01*
X1356529Y7112D01*
X1350772Y16408D02*
X1350772Y18807D01*
X1350772Y16408D02*
X1350774Y16333D01*
X1350780Y16258D01*
X1350790Y16183D01*
X1350803Y16109D01*
X1350821Y16036D01*
X1350842Y15963D01*
X1350868Y15892D01*
X1350896Y15823D01*
X1350929Y15755D01*
X1350965Y15689D01*
X1351004Y15624D01*
X1351047Y15562D01*
X1351093Y15502D01*
X1351142Y15445D01*
X1351193Y15390D01*
X1351248Y15339D01*
X1351305Y15290D01*
X1351365Y15244D01*
X1351427Y15201D01*
X1351492Y15162D01*
X1351558Y15126D01*
X1351626Y15093D01*
X1351695Y15065D01*
X1351766Y15039D01*
X1351839Y15018D01*
X1351912Y15000D01*
X1351986Y14987D01*
X1352061Y14977D01*
X1352136Y14971D01*
X1352211Y14969D01*
X1354610Y14969D01*
X1354696Y14971D01*
X1354782Y14977D01*
X1354868Y14986D01*
X1354953Y15000D01*
X1355037Y15017D01*
X1355121Y15038D01*
X1355203Y15063D01*
X1355284Y15091D01*
X1355364Y15123D01*
X1355443Y15159D01*
X1355519Y15198D01*
X1355594Y15241D01*
X1355667Y15286D01*
X1355738Y15335D01*
X1355806Y15388D01*
X1355873Y15443D01*
X1355936Y15501D01*
X1355997Y15562D01*
X1356055Y15625D01*
X1356110Y15692D01*
X1356163Y15760D01*
X1356212Y15831D01*
X1356257Y15904D01*
X1356300Y15979D01*
X1356339Y16055D01*
X1356375Y16134D01*
X1356407Y16214D01*
X1356435Y16295D01*
X1356460Y16377D01*
X1356481Y16461D01*
X1356498Y16545D01*
X1356512Y16630D01*
X1356521Y16716D01*
X1356527Y16802D01*
X1356529Y16888D01*
X1356527Y16974D01*
X1356521Y17060D01*
X1356512Y17146D01*
X1356498Y17231D01*
X1356481Y17315D01*
X1356460Y17399D01*
X1356435Y17481D01*
X1356407Y17562D01*
X1356375Y17642D01*
X1356339Y17721D01*
X1356300Y17797D01*
X1356257Y17872D01*
X1356212Y17945D01*
X1356163Y18016D01*
X1356110Y18084D01*
X1356055Y18151D01*
X1355997Y18214D01*
X1355936Y18275D01*
X1355873Y18333D01*
X1355806Y18388D01*
X1355738Y18441D01*
X1355667Y18490D01*
X1355594Y18535D01*
X1355519Y18578D01*
X1355443Y18617D01*
X1355364Y18653D01*
X1355284Y18685D01*
X1355203Y18713D01*
X1355121Y18738D01*
X1355037Y18759D01*
X1354953Y18776D01*
X1354868Y18790D01*
X1354782Y18799D01*
X1354696Y18805D01*
X1354610Y18807D01*
X1353651Y18807D01*
X1353651Y14969D01*
X1356529Y23199D02*
X1350772Y23199D01*
X1356529Y23199D02*
X1356529Y25597D01*
X1356527Y25672D01*
X1356521Y25747D01*
X1356511Y25822D01*
X1356498Y25896D01*
X1356480Y25969D01*
X1356459Y26042D01*
X1356433Y26113D01*
X1356405Y26182D01*
X1356372Y26250D01*
X1356336Y26317D01*
X1356297Y26381D01*
X1356254Y26443D01*
X1356208Y26503D01*
X1356159Y26560D01*
X1356108Y26615D01*
X1356053Y26666D01*
X1355996Y26715D01*
X1355936Y26761D01*
X1355874Y26804D01*
X1355810Y26843D01*
X1355743Y26879D01*
X1355675Y26912D01*
X1355606Y26940D01*
X1355535Y26966D01*
X1355462Y26987D01*
X1355389Y27005D01*
X1355315Y27018D01*
X1355240Y27028D01*
X1355165Y27034D01*
X1355090Y27036D01*
X1355090Y27037D02*
X1350772Y27037D01*
X1350772Y35199D02*
X1359408Y35199D01*
X1350772Y35199D02*
X1350772Y32800D01*
X1350774Y32725D01*
X1350780Y32650D01*
X1350790Y32575D01*
X1350803Y32501D01*
X1350821Y32428D01*
X1350842Y32355D01*
X1350868Y32284D01*
X1350896Y32215D01*
X1350929Y32147D01*
X1350965Y32081D01*
X1351004Y32016D01*
X1351047Y31954D01*
X1351093Y31894D01*
X1351142Y31837D01*
X1351193Y31782D01*
X1351248Y31731D01*
X1351305Y31682D01*
X1351365Y31636D01*
X1351427Y31593D01*
X1351492Y31554D01*
X1351558Y31518D01*
X1351626Y31485D01*
X1351695Y31457D01*
X1351766Y31431D01*
X1351839Y31410D01*
X1351912Y31392D01*
X1351986Y31379D01*
X1352061Y31369D01*
X1352136Y31363D01*
X1352211Y31361D01*
X1352211Y31360D02*
X1355090Y31360D01*
X1355090Y31361D02*
X1355165Y31363D01*
X1355240Y31369D01*
X1355315Y31379D01*
X1355389Y31392D01*
X1355462Y31410D01*
X1355535Y31431D01*
X1355606Y31457D01*
X1355675Y31485D01*
X1355743Y31518D01*
X1355810Y31554D01*
X1355874Y31593D01*
X1355936Y31636D01*
X1355996Y31682D01*
X1356053Y31731D01*
X1356108Y31782D01*
X1356159Y31837D01*
X1356208Y31894D01*
X1356254Y31954D01*
X1356297Y32016D01*
X1356336Y32081D01*
X1356372Y32147D01*
X1356405Y32215D01*
X1356433Y32284D01*
X1356459Y32355D01*
X1356480Y32428D01*
X1356498Y32501D01*
X1356511Y32575D01*
X1356521Y32650D01*
X1356527Y32725D01*
X1356529Y32800D01*
X1356529Y35199D01*
X1354130Y46146D02*
X1354130Y48305D01*
X1354130Y46146D02*
X1354128Y46065D01*
X1354122Y45984D01*
X1354112Y45903D01*
X1354099Y45823D01*
X1354081Y45744D01*
X1354060Y45666D01*
X1354035Y45589D01*
X1354006Y45513D01*
X1353974Y45438D01*
X1353938Y45366D01*
X1353898Y45295D01*
X1353855Y45226D01*
X1353809Y45159D01*
X1353760Y45095D01*
X1353708Y45033D01*
X1353652Y44973D01*
X1353594Y44917D01*
X1353534Y44863D01*
X1353470Y44812D01*
X1353405Y44764D01*
X1353337Y44720D01*
X1353267Y44679D01*
X1353195Y44641D01*
X1353122Y44607D01*
X1353046Y44576D01*
X1352970Y44549D01*
X1352892Y44526D01*
X1352813Y44507D01*
X1352734Y44491D01*
X1352653Y44479D01*
X1352573Y44471D01*
X1352492Y44467D01*
X1352410Y44467D01*
X1352329Y44471D01*
X1352249Y44479D01*
X1352168Y44491D01*
X1352089Y44507D01*
X1352010Y44526D01*
X1351932Y44549D01*
X1351856Y44576D01*
X1351780Y44607D01*
X1351707Y44641D01*
X1351635Y44679D01*
X1351565Y44720D01*
X1351497Y44764D01*
X1351432Y44812D01*
X1351368Y44863D01*
X1351308Y44917D01*
X1351250Y44973D01*
X1351194Y45033D01*
X1351142Y45095D01*
X1351093Y45159D01*
X1351047Y45226D01*
X1351004Y45295D01*
X1350964Y45366D01*
X1350928Y45438D01*
X1350896Y45513D01*
X1350867Y45589D01*
X1350842Y45666D01*
X1350821Y45744D01*
X1350803Y45823D01*
X1350790Y45903D01*
X1350780Y45984D01*
X1350774Y46065D01*
X1350772Y46146D01*
X1350772Y48305D01*
X1355090Y48305D01*
X1355165Y48303D01*
X1355240Y48297D01*
X1355315Y48287D01*
X1355389Y48274D01*
X1355462Y48256D01*
X1355535Y48235D01*
X1355606Y48209D01*
X1355675Y48181D01*
X1355743Y48148D01*
X1355810Y48112D01*
X1355874Y48073D01*
X1355936Y48030D01*
X1355996Y47984D01*
X1356053Y47935D01*
X1356108Y47884D01*
X1356159Y47829D01*
X1356208Y47772D01*
X1356254Y47712D01*
X1356297Y47650D01*
X1356336Y47586D01*
X1356372Y47519D01*
X1356405Y47451D01*
X1356433Y47382D01*
X1356459Y47311D01*
X1356480Y47238D01*
X1356498Y47165D01*
X1356511Y47091D01*
X1356521Y47016D01*
X1356527Y46941D01*
X1356529Y46866D01*
X1356529Y44946D01*
X1356529Y53145D02*
X1350772Y53145D01*
X1356529Y53145D02*
X1356529Y56024D01*
X1355570Y56024D01*
X1354610Y59165D02*
X1352691Y59165D01*
X1354610Y59165D02*
X1354696Y59167D01*
X1354782Y59173D01*
X1354868Y59182D01*
X1354953Y59196D01*
X1355037Y59213D01*
X1355121Y59234D01*
X1355203Y59259D01*
X1355284Y59287D01*
X1355364Y59319D01*
X1355443Y59355D01*
X1355519Y59394D01*
X1355594Y59437D01*
X1355667Y59482D01*
X1355738Y59531D01*
X1355806Y59584D01*
X1355873Y59639D01*
X1355936Y59697D01*
X1355997Y59758D01*
X1356055Y59821D01*
X1356110Y59888D01*
X1356163Y59956D01*
X1356212Y60027D01*
X1356257Y60100D01*
X1356300Y60175D01*
X1356339Y60251D01*
X1356375Y60330D01*
X1356407Y60410D01*
X1356435Y60491D01*
X1356460Y60573D01*
X1356481Y60657D01*
X1356498Y60741D01*
X1356512Y60826D01*
X1356521Y60912D01*
X1356527Y60998D01*
X1356529Y61084D01*
X1356527Y61170D01*
X1356521Y61256D01*
X1356512Y61342D01*
X1356498Y61427D01*
X1356481Y61511D01*
X1356460Y61595D01*
X1356435Y61677D01*
X1356407Y61758D01*
X1356375Y61838D01*
X1356339Y61917D01*
X1356300Y61993D01*
X1356257Y62068D01*
X1356212Y62141D01*
X1356163Y62212D01*
X1356110Y62280D01*
X1356055Y62347D01*
X1355997Y62410D01*
X1355936Y62471D01*
X1355873Y62529D01*
X1355806Y62584D01*
X1355738Y62637D01*
X1355667Y62686D01*
X1355594Y62731D01*
X1355519Y62774D01*
X1355443Y62813D01*
X1355364Y62849D01*
X1355284Y62881D01*
X1355203Y62909D01*
X1355121Y62934D01*
X1355037Y62955D01*
X1354953Y62972D01*
X1354868Y62986D01*
X1354782Y62995D01*
X1354696Y63001D01*
X1354610Y63003D01*
X1352691Y63003D01*
X1352605Y63001D01*
X1352519Y62995D01*
X1352433Y62986D01*
X1352348Y62972D01*
X1352264Y62955D01*
X1352180Y62934D01*
X1352098Y62909D01*
X1352017Y62881D01*
X1351937Y62849D01*
X1351858Y62813D01*
X1351782Y62774D01*
X1351707Y62731D01*
X1351634Y62686D01*
X1351563Y62637D01*
X1351495Y62584D01*
X1351428Y62529D01*
X1351365Y62471D01*
X1351304Y62410D01*
X1351246Y62347D01*
X1351191Y62280D01*
X1351138Y62212D01*
X1351089Y62141D01*
X1351044Y62068D01*
X1351001Y61993D01*
X1350962Y61917D01*
X1350926Y61838D01*
X1350894Y61758D01*
X1350866Y61677D01*
X1350841Y61595D01*
X1350820Y61511D01*
X1350803Y61427D01*
X1350789Y61342D01*
X1350780Y61256D01*
X1350774Y61170D01*
X1350772Y61084D01*
X1350774Y60998D01*
X1350780Y60912D01*
X1350789Y60826D01*
X1350803Y60741D01*
X1350820Y60657D01*
X1350841Y60573D01*
X1350866Y60491D01*
X1350894Y60410D01*
X1350926Y60330D01*
X1350962Y60251D01*
X1351001Y60175D01*
X1351044Y60100D01*
X1351089Y60027D01*
X1351138Y59956D01*
X1351191Y59888D01*
X1351246Y59821D01*
X1351304Y59758D01*
X1351365Y59697D01*
X1351428Y59639D01*
X1351495Y59584D01*
X1351563Y59531D01*
X1351634Y59482D01*
X1351707Y59437D01*
X1351782Y59394D01*
X1351858Y59355D01*
X1351937Y59319D01*
X1352017Y59287D01*
X1352098Y59259D01*
X1352180Y59234D01*
X1352264Y59213D01*
X1352348Y59196D01*
X1352433Y59182D01*
X1352519Y59173D01*
X1352605Y59167D01*
X1352691Y59165D01*
X1352211Y67394D02*
X1356529Y67394D01*
X1352211Y67395D02*
X1352136Y67397D01*
X1352061Y67403D01*
X1351986Y67413D01*
X1351912Y67426D01*
X1351839Y67444D01*
X1351766Y67465D01*
X1351695Y67491D01*
X1351626Y67519D01*
X1351558Y67552D01*
X1351492Y67588D01*
X1351427Y67627D01*
X1351365Y67670D01*
X1351305Y67716D01*
X1351248Y67765D01*
X1351193Y67816D01*
X1351142Y67871D01*
X1351093Y67928D01*
X1351047Y67988D01*
X1351004Y68050D01*
X1350965Y68115D01*
X1350929Y68181D01*
X1350896Y68249D01*
X1350868Y68318D01*
X1350842Y68389D01*
X1350821Y68462D01*
X1350803Y68535D01*
X1350790Y68609D01*
X1350780Y68684D01*
X1350774Y68759D01*
X1350772Y68834D01*
X1350772Y71233D01*
X1356529Y71233D01*
X1356529Y75929D02*
X1350772Y75929D01*
X1356529Y75929D02*
X1356529Y78328D01*
X1356527Y78403D01*
X1356521Y78478D01*
X1356511Y78553D01*
X1356498Y78627D01*
X1356480Y78700D01*
X1356459Y78773D01*
X1356433Y78844D01*
X1356405Y78913D01*
X1356372Y78981D01*
X1356336Y79048D01*
X1356297Y79112D01*
X1356254Y79174D01*
X1356208Y79234D01*
X1356159Y79291D01*
X1356108Y79346D01*
X1356053Y79397D01*
X1355996Y79446D01*
X1355936Y79492D01*
X1355874Y79535D01*
X1355810Y79574D01*
X1355743Y79610D01*
X1355675Y79643D01*
X1355606Y79671D01*
X1355535Y79697D01*
X1355462Y79718D01*
X1355389Y79736D01*
X1355315Y79749D01*
X1355240Y79759D01*
X1355165Y79765D01*
X1355090Y79767D01*
X1350772Y79767D01*
X1350772Y87929D02*
X1359408Y87929D01*
X1350772Y87929D02*
X1350772Y85530D01*
X1350774Y85455D01*
X1350780Y85380D01*
X1350790Y85305D01*
X1350803Y85231D01*
X1350821Y85158D01*
X1350842Y85085D01*
X1350868Y85014D01*
X1350896Y84945D01*
X1350929Y84877D01*
X1350965Y84811D01*
X1351004Y84746D01*
X1351047Y84684D01*
X1351093Y84624D01*
X1351142Y84567D01*
X1351193Y84512D01*
X1351248Y84461D01*
X1351305Y84412D01*
X1351365Y84366D01*
X1351427Y84323D01*
X1351492Y84284D01*
X1351558Y84248D01*
X1351626Y84215D01*
X1351695Y84187D01*
X1351766Y84161D01*
X1351839Y84140D01*
X1351912Y84122D01*
X1351986Y84109D01*
X1352061Y84099D01*
X1352136Y84093D01*
X1352211Y84091D01*
X1352211Y84090D02*
X1355090Y84090D01*
X1355090Y84091D02*
X1355165Y84093D01*
X1355240Y84099D01*
X1355315Y84109D01*
X1355389Y84122D01*
X1355462Y84140D01*
X1355535Y84161D01*
X1355606Y84187D01*
X1355675Y84215D01*
X1355743Y84248D01*
X1355810Y84284D01*
X1355874Y84323D01*
X1355936Y84366D01*
X1355996Y84412D01*
X1356053Y84461D01*
X1356108Y84512D01*
X1356159Y84567D01*
X1356208Y84624D01*
X1356254Y84684D01*
X1356297Y84746D01*
X1356336Y84811D01*
X1356372Y84877D01*
X1356405Y84945D01*
X1356433Y85014D01*
X1356459Y85085D01*
X1356480Y85158D01*
X1356498Y85231D01*
X1356511Y85305D01*
X1356521Y85380D01*
X1356527Y85455D01*
X1356529Y85530D01*
X1356529Y87929D01*
X1359408Y97569D02*
X1350772Y97569D01*
X1356529Y97569D02*
X1356529Y99968D01*
X1356527Y100043D01*
X1356521Y100118D01*
X1356511Y100193D01*
X1356498Y100267D01*
X1356480Y100340D01*
X1356459Y100413D01*
X1356433Y100484D01*
X1356405Y100553D01*
X1356372Y100621D01*
X1356336Y100688D01*
X1356297Y100752D01*
X1356254Y100814D01*
X1356208Y100874D01*
X1356159Y100931D01*
X1356108Y100986D01*
X1356053Y101037D01*
X1355996Y101086D01*
X1355936Y101132D01*
X1355874Y101175D01*
X1355810Y101214D01*
X1355743Y101250D01*
X1355675Y101283D01*
X1355606Y101311D01*
X1355535Y101337D01*
X1355462Y101358D01*
X1355389Y101376D01*
X1355315Y101389D01*
X1355240Y101399D01*
X1355165Y101405D01*
X1355090Y101407D01*
X1355090Y101408D02*
X1350772Y101408D01*
X1350772Y107238D02*
X1350772Y109637D01*
X1350772Y107238D02*
X1350774Y107163D01*
X1350780Y107088D01*
X1350790Y107013D01*
X1350803Y106939D01*
X1350821Y106866D01*
X1350842Y106793D01*
X1350868Y106722D01*
X1350896Y106653D01*
X1350929Y106585D01*
X1350965Y106519D01*
X1351004Y106454D01*
X1351047Y106392D01*
X1351093Y106332D01*
X1351142Y106275D01*
X1351193Y106220D01*
X1351248Y106169D01*
X1351305Y106120D01*
X1351365Y106074D01*
X1351427Y106031D01*
X1351492Y105992D01*
X1351558Y105956D01*
X1351626Y105923D01*
X1351695Y105895D01*
X1351766Y105869D01*
X1351839Y105848D01*
X1351912Y105830D01*
X1351986Y105817D01*
X1352061Y105807D01*
X1352136Y105801D01*
X1352211Y105799D01*
X1354610Y105799D01*
X1354696Y105801D01*
X1354782Y105807D01*
X1354868Y105816D01*
X1354953Y105830D01*
X1355037Y105847D01*
X1355121Y105868D01*
X1355203Y105893D01*
X1355284Y105921D01*
X1355364Y105953D01*
X1355443Y105989D01*
X1355519Y106028D01*
X1355594Y106071D01*
X1355667Y106116D01*
X1355738Y106165D01*
X1355806Y106218D01*
X1355873Y106273D01*
X1355936Y106331D01*
X1355997Y106392D01*
X1356055Y106455D01*
X1356110Y106522D01*
X1356163Y106590D01*
X1356212Y106661D01*
X1356257Y106734D01*
X1356300Y106809D01*
X1356339Y106885D01*
X1356375Y106964D01*
X1356407Y107044D01*
X1356435Y107125D01*
X1356460Y107207D01*
X1356481Y107291D01*
X1356498Y107375D01*
X1356512Y107460D01*
X1356521Y107546D01*
X1356527Y107632D01*
X1356529Y107718D01*
X1356527Y107804D01*
X1356521Y107890D01*
X1356512Y107976D01*
X1356498Y108061D01*
X1356481Y108145D01*
X1356460Y108229D01*
X1356435Y108311D01*
X1356407Y108392D01*
X1356375Y108472D01*
X1356339Y108551D01*
X1356300Y108627D01*
X1356257Y108702D01*
X1356212Y108775D01*
X1356163Y108846D01*
X1356110Y108914D01*
X1356055Y108981D01*
X1355997Y109044D01*
X1355936Y109105D01*
X1355873Y109163D01*
X1355806Y109218D01*
X1355738Y109271D01*
X1355667Y109320D01*
X1355594Y109365D01*
X1355519Y109408D01*
X1355443Y109447D01*
X1355364Y109483D01*
X1355284Y109515D01*
X1355203Y109543D01*
X1355121Y109568D01*
X1355037Y109589D01*
X1354953Y109606D01*
X1354868Y109620D01*
X1354782Y109629D01*
X1354696Y109635D01*
X1354610Y109637D01*
X1353651Y109637D01*
X1353651Y105799D01*
X1354130Y115335D02*
X1354130Y117494D01*
X1354130Y115335D02*
X1354128Y115254D01*
X1354122Y115173D01*
X1354112Y115092D01*
X1354099Y115012D01*
X1354081Y114933D01*
X1354060Y114855D01*
X1354035Y114778D01*
X1354006Y114702D01*
X1353974Y114627D01*
X1353938Y114555D01*
X1353898Y114484D01*
X1353855Y114415D01*
X1353809Y114348D01*
X1353760Y114284D01*
X1353708Y114222D01*
X1353652Y114162D01*
X1353594Y114106D01*
X1353534Y114052D01*
X1353470Y114001D01*
X1353405Y113953D01*
X1353337Y113909D01*
X1353267Y113868D01*
X1353195Y113830D01*
X1353122Y113796D01*
X1353046Y113765D01*
X1352970Y113738D01*
X1352892Y113715D01*
X1352813Y113696D01*
X1352734Y113680D01*
X1352653Y113668D01*
X1352573Y113660D01*
X1352492Y113656D01*
X1352410Y113656D01*
X1352329Y113660D01*
X1352249Y113668D01*
X1352168Y113680D01*
X1352089Y113696D01*
X1352010Y113715D01*
X1351932Y113738D01*
X1351856Y113765D01*
X1351780Y113796D01*
X1351707Y113830D01*
X1351635Y113868D01*
X1351565Y113909D01*
X1351497Y113953D01*
X1351432Y114001D01*
X1351368Y114052D01*
X1351308Y114106D01*
X1351250Y114162D01*
X1351194Y114222D01*
X1351142Y114284D01*
X1351093Y114348D01*
X1351047Y114415D01*
X1351004Y114484D01*
X1350964Y114555D01*
X1350928Y114627D01*
X1350896Y114702D01*
X1350867Y114778D01*
X1350842Y114855D01*
X1350821Y114933D01*
X1350803Y115012D01*
X1350790Y115092D01*
X1350780Y115173D01*
X1350774Y115254D01*
X1350772Y115335D01*
X1350772Y117494D01*
X1355090Y117494D01*
X1355165Y117492D01*
X1355240Y117486D01*
X1355315Y117476D01*
X1355389Y117463D01*
X1355462Y117445D01*
X1355535Y117424D01*
X1355606Y117398D01*
X1355675Y117370D01*
X1355743Y117337D01*
X1355810Y117301D01*
X1355874Y117262D01*
X1355936Y117219D01*
X1355996Y117173D01*
X1356053Y117124D01*
X1356108Y117073D01*
X1356159Y117018D01*
X1356208Y116961D01*
X1356254Y116901D01*
X1356297Y116839D01*
X1356336Y116775D01*
X1356372Y116708D01*
X1356405Y116640D01*
X1356433Y116571D01*
X1356459Y116500D01*
X1356480Y116427D01*
X1356498Y116354D01*
X1356511Y116280D01*
X1356521Y116205D01*
X1356527Y116130D01*
X1356529Y116055D01*
X1356529Y114136D01*
X1356529Y121108D02*
X1356529Y123986D01*
X1359408Y122067D02*
X1352211Y122067D01*
X1352138Y122069D01*
X1352065Y122074D01*
X1351993Y122084D01*
X1351921Y122096D01*
X1351850Y122113D01*
X1351780Y122133D01*
X1351711Y122157D01*
X1351644Y122184D01*
X1351577Y122214D01*
X1351513Y122248D01*
X1351450Y122285D01*
X1351389Y122325D01*
X1351330Y122368D01*
X1351274Y122414D01*
X1351220Y122463D01*
X1351168Y122515D01*
X1351119Y122569D01*
X1351073Y122625D01*
X1351030Y122684D01*
X1350990Y122745D01*
X1350953Y122808D01*
X1350919Y122872D01*
X1350889Y122939D01*
X1350862Y123006D01*
X1350838Y123075D01*
X1350818Y123145D01*
X1350801Y123216D01*
X1350789Y123288D01*
X1350779Y123360D01*
X1350774Y123433D01*
X1350772Y123506D01*
X1350772Y123986D01*
X1354130Y128464D02*
X1353171Y130863D01*
X1354130Y128464D02*
X1354157Y128401D01*
X1354188Y128339D01*
X1354223Y128279D01*
X1354260Y128221D01*
X1354301Y128165D01*
X1354344Y128112D01*
X1354391Y128061D01*
X1354440Y128013D01*
X1354492Y127967D01*
X1354547Y127925D01*
X1354604Y127885D01*
X1354662Y127849D01*
X1354723Y127816D01*
X1354786Y127787D01*
X1354849Y127761D01*
X1354915Y127738D01*
X1354981Y127720D01*
X1355049Y127705D01*
X1355117Y127693D01*
X1355185Y127686D01*
X1355254Y127682D01*
X1355323Y127683D01*
X1355392Y127687D01*
X1355461Y127695D01*
X1355529Y127706D01*
X1355596Y127722D01*
X1355663Y127741D01*
X1355728Y127763D01*
X1355792Y127790D01*
X1355854Y127820D01*
X1355914Y127853D01*
X1355973Y127890D01*
X1356029Y127929D01*
X1356084Y127972D01*
X1356135Y128018D01*
X1356184Y128066D01*
X1356231Y128118D01*
X1356274Y128171D01*
X1356314Y128227D01*
X1356351Y128286D01*
X1356385Y128346D01*
X1356416Y128408D01*
X1356443Y128471D01*
X1356466Y128536D01*
X1356486Y128602D01*
X1356502Y128669D01*
X1356515Y128737D01*
X1356523Y128806D01*
X1356528Y128875D01*
X1356529Y128944D01*
X1356526Y129083D01*
X1356518Y129222D01*
X1356507Y129361D01*
X1356493Y129499D01*
X1356475Y129637D01*
X1356454Y129775D01*
X1356429Y129912D01*
X1356400Y130048D01*
X1356368Y130184D01*
X1356333Y130318D01*
X1356294Y130452D01*
X1356252Y130585D01*
X1356206Y130716D01*
X1356157Y130846D01*
X1356105Y130975D01*
X1356050Y131103D01*
X1353171Y130863D02*
X1353144Y130926D01*
X1353113Y130988D01*
X1353078Y131048D01*
X1353041Y131106D01*
X1353000Y131162D01*
X1352957Y131215D01*
X1352910Y131266D01*
X1352861Y131314D01*
X1352809Y131360D01*
X1352754Y131402D01*
X1352697Y131442D01*
X1352639Y131478D01*
X1352578Y131511D01*
X1352516Y131540D01*
X1352452Y131566D01*
X1352386Y131589D01*
X1352320Y131607D01*
X1352252Y131622D01*
X1352184Y131634D01*
X1352116Y131641D01*
X1352047Y131645D01*
X1351978Y131644D01*
X1351909Y131640D01*
X1351840Y131632D01*
X1351772Y131621D01*
X1351705Y131605D01*
X1351638Y131586D01*
X1351573Y131564D01*
X1351509Y131537D01*
X1351447Y131507D01*
X1351387Y131474D01*
X1351328Y131437D01*
X1351272Y131398D01*
X1351217Y131355D01*
X1351166Y131309D01*
X1351117Y131261D01*
X1351070Y131209D01*
X1351027Y131156D01*
X1350987Y131100D01*
X1350950Y131041D01*
X1350916Y130981D01*
X1350885Y130919D01*
X1350858Y130856D01*
X1350835Y130791D01*
X1350815Y130725D01*
X1350799Y130658D01*
X1350786Y130590D01*
X1350778Y130521D01*
X1350773Y130452D01*
X1350772Y130383D01*
X1350777Y130190D01*
X1350786Y129998D01*
X1350801Y129806D01*
X1350819Y129615D01*
X1350842Y129424D01*
X1350870Y129233D01*
X1350902Y129043D01*
X1350939Y128854D01*
X1350980Y128666D01*
X1351026Y128479D01*
X1351076Y128294D01*
X1351130Y128109D01*
X1351189Y127926D01*
X1351252Y127744D01*
X1350772Y135455D02*
X1356529Y135455D01*
X1358928Y135215D02*
X1359408Y135215D01*
X1359408Y135694D01*
X1358928Y135694D01*
X1358928Y135215D01*
X1356529Y139631D02*
X1350772Y139631D01*
X1356529Y139631D02*
X1356529Y142030D01*
X1356527Y142105D01*
X1356521Y142180D01*
X1356511Y142255D01*
X1356498Y142329D01*
X1356480Y142402D01*
X1356459Y142475D01*
X1356433Y142546D01*
X1356405Y142615D01*
X1356372Y142683D01*
X1356336Y142750D01*
X1356297Y142814D01*
X1356254Y142876D01*
X1356208Y142936D01*
X1356159Y142993D01*
X1356108Y143048D01*
X1356053Y143099D01*
X1355996Y143148D01*
X1355936Y143194D01*
X1355874Y143237D01*
X1355810Y143276D01*
X1355743Y143312D01*
X1355675Y143345D01*
X1355606Y143373D01*
X1355535Y143399D01*
X1355462Y143420D01*
X1355389Y143438D01*
X1355315Y143451D01*
X1355240Y143461D01*
X1355165Y143467D01*
X1355090Y143469D01*
X1355090Y143470D02*
X1350772Y143470D01*
X1350772Y148322D02*
X1359408Y148322D01*
X1356529Y152160D02*
X1353651Y148322D01*
X1354850Y150001D02*
X1350772Y152160D01*
D10*
X1457960Y64770D02*
X1457960Y6350D01*
X1452880Y1270D01*
X1236980Y97790D02*
X1236980Y154940D01*
X1236980Y97790D02*
X1229360Y90170D01*
X383540Y90170D01*
X401320Y1270D02*
X1452880Y1270D01*
X383540Y90170D02*
X359410Y114300D01*
X248920Y114300D01*
D11*
X1135380Y5080D02*
X1143034Y12734D01*
X1150105Y19805D02*
X1157759Y27459D01*
X1164830Y34530D02*
X1172484Y42184D01*
X1179556Y49256D02*
X1187210Y56910D01*
X1194281Y63981D02*
X1201935Y71635D01*
X1209006Y78706D02*
X1216660Y86360D01*
X1221740Y85090D02*
X1143000Y6350D01*
X1221740Y6350D02*
X1221740Y85090D01*
X1221740Y6350D02*
X1143000Y6350D01*
X1144778Y8128D02*
X1221740Y8128D01*
X1221740Y16256D02*
X1152906Y16256D01*
X1161034Y24384D02*
X1221740Y24384D01*
X1221740Y32512D02*
X1169162Y32512D01*
X1177290Y40640D02*
X1221740Y40640D01*
X1221740Y48768D02*
X1185418Y48768D01*
X1193546Y56896D02*
X1221740Y56896D01*
X1221740Y65024D02*
X1201674Y65024D01*
X1209802Y73152D02*
X1221740Y73152D01*
X1221740Y81280D02*
X1217930Y81280D01*
X1146048Y9398D02*
X1146048Y6350D01*
X1154176Y6350D02*
X1154176Y17526D01*
X1162304Y25654D02*
X1162304Y6350D01*
X1170432Y6350D02*
X1170432Y33782D01*
X1178560Y41910D02*
X1178560Y6350D01*
X1186688Y6350D02*
X1186688Y50038D01*
X1194816Y58166D02*
X1194816Y6350D01*
X1202944Y6350D02*
X1202944Y66294D01*
X1211072Y74422D02*
X1211072Y6350D01*
X1219200Y6350D02*
X1219200Y82550D01*
X1133674Y6593D02*
X1127568Y12700D01*
X1129264Y14396D01*
X1129319Y14447D01*
X1129376Y14496D01*
X1129436Y14542D01*
X1129498Y14585D01*
X1129562Y14624D01*
X1129629Y14660D01*
X1129697Y14693D01*
X1129766Y14721D01*
X1129837Y14747D01*
X1129910Y14768D01*
X1129983Y14786D01*
X1130057Y14799D01*
X1130132Y14809D01*
X1130207Y14815D01*
X1130282Y14817D01*
X1130357Y14815D01*
X1130432Y14809D01*
X1130507Y14799D01*
X1130581Y14786D01*
X1130654Y14768D01*
X1130727Y14747D01*
X1130798Y14721D01*
X1130867Y14693D01*
X1130935Y14660D01*
X1131001Y14624D01*
X1131066Y14585D01*
X1131128Y14542D01*
X1131188Y14496D01*
X1131245Y14447D01*
X1131299Y14396D01*
X1133335Y12361D01*
X1133385Y12308D01*
X1133432Y12252D01*
X1133477Y12195D01*
X1133519Y12135D01*
X1133557Y12073D01*
X1133592Y12009D01*
X1133625Y11944D01*
X1133653Y11877D01*
X1133679Y11808D01*
X1133700Y11739D01*
X1133719Y11668D01*
X1133733Y11597D01*
X1133744Y11525D01*
X1133752Y11452D01*
X1133756Y11379D01*
X1133756Y11307D01*
X1133752Y11234D01*
X1133744Y11161D01*
X1133733Y11089D01*
X1133719Y11018D01*
X1133700Y10947D01*
X1133679Y10878D01*
X1133653Y10809D01*
X1133625Y10742D01*
X1133592Y10677D01*
X1133557Y10613D01*
X1133519Y10551D01*
X1133477Y10491D01*
X1133432Y10434D01*
X1133385Y10378D01*
X1133335Y10325D01*
X1131639Y8629D01*
X1134141Y19273D02*
X1135838Y20970D01*
X1134141Y19274D02*
X1134090Y19219D01*
X1134041Y19162D01*
X1133995Y19102D01*
X1133952Y19040D01*
X1133913Y18976D01*
X1133877Y18909D01*
X1133844Y18841D01*
X1133816Y18772D01*
X1133790Y18701D01*
X1133769Y18628D01*
X1133751Y18555D01*
X1133738Y18481D01*
X1133728Y18406D01*
X1133722Y18331D01*
X1133720Y18256D01*
X1133722Y18181D01*
X1133728Y18106D01*
X1133738Y18031D01*
X1133751Y17957D01*
X1133769Y17884D01*
X1133790Y17811D01*
X1133816Y17740D01*
X1133844Y17671D01*
X1133877Y17603D01*
X1133913Y17537D01*
X1133952Y17472D01*
X1133995Y17410D01*
X1134041Y17350D01*
X1134090Y17293D01*
X1134141Y17238D01*
X1135838Y15542D01*
X1135900Y15483D01*
X1135965Y15426D01*
X1136032Y15372D01*
X1136102Y15322D01*
X1136174Y15274D01*
X1136248Y15230D01*
X1136324Y15189D01*
X1136401Y15152D01*
X1136481Y15118D01*
X1136561Y15088D01*
X1136643Y15061D01*
X1136726Y15038D01*
X1136810Y15019D01*
X1136895Y15004D01*
X1136980Y14992D01*
X1137066Y14984D01*
X1137152Y14980D01*
X1137238Y14980D01*
X1137324Y14984D01*
X1137410Y14992D01*
X1137495Y15004D01*
X1137580Y15019D01*
X1137664Y15038D01*
X1137747Y15061D01*
X1137829Y15088D01*
X1137909Y15118D01*
X1137989Y15152D01*
X1138066Y15189D01*
X1138142Y15230D01*
X1138216Y15274D01*
X1138288Y15322D01*
X1138358Y15372D01*
X1138425Y15426D01*
X1138490Y15483D01*
X1138552Y15542D01*
X1138611Y15604D01*
X1138668Y15669D01*
X1138722Y15736D01*
X1138772Y15806D01*
X1138820Y15878D01*
X1138864Y15952D01*
X1138905Y16028D01*
X1138942Y16105D01*
X1138976Y16185D01*
X1139006Y16265D01*
X1139033Y16347D01*
X1139056Y16430D01*
X1139075Y16514D01*
X1139090Y16599D01*
X1139102Y16684D01*
X1139110Y16770D01*
X1139114Y16856D01*
X1139114Y16942D01*
X1139110Y17028D01*
X1139102Y17114D01*
X1139090Y17199D01*
X1139075Y17284D01*
X1139056Y17368D01*
X1139033Y17451D01*
X1139006Y17533D01*
X1138976Y17613D01*
X1138942Y17693D01*
X1138905Y17770D01*
X1138864Y17846D01*
X1138820Y17920D01*
X1138772Y17992D01*
X1138722Y18062D01*
X1138668Y18129D01*
X1138611Y18194D01*
X1138552Y18256D01*
X1137873Y18934D01*
X1135159Y16220D01*
X1138943Y24075D02*
X1143014Y20004D01*
X1144710Y21700D01*
X1144761Y21755D01*
X1144810Y21812D01*
X1144856Y21872D01*
X1144899Y21934D01*
X1144938Y21998D01*
X1144974Y22065D01*
X1145007Y22133D01*
X1145035Y22202D01*
X1145061Y22273D01*
X1145082Y22346D01*
X1145100Y22419D01*
X1145113Y22493D01*
X1145123Y22568D01*
X1145129Y22643D01*
X1145131Y22718D01*
X1145129Y22793D01*
X1145123Y22868D01*
X1145113Y22943D01*
X1145100Y23017D01*
X1145082Y23090D01*
X1145061Y23163D01*
X1145035Y23234D01*
X1145007Y23303D01*
X1144974Y23371D01*
X1144938Y23437D01*
X1144899Y23502D01*
X1144856Y23564D01*
X1144810Y23624D01*
X1144761Y23681D01*
X1144710Y23735D01*
X1144710Y23736D02*
X1141657Y26789D01*
X1147428Y32560D02*
X1153535Y26454D01*
X1147428Y32560D02*
X1145732Y30864D01*
X1145681Y30809D01*
X1145632Y30752D01*
X1145586Y30692D01*
X1145543Y30630D01*
X1145504Y30566D01*
X1145468Y30499D01*
X1145435Y30431D01*
X1145407Y30362D01*
X1145381Y30291D01*
X1145360Y30218D01*
X1145342Y30145D01*
X1145329Y30071D01*
X1145319Y29996D01*
X1145313Y29921D01*
X1145311Y29846D01*
X1145313Y29771D01*
X1145319Y29696D01*
X1145329Y29621D01*
X1145342Y29547D01*
X1145360Y29474D01*
X1145381Y29401D01*
X1145407Y29330D01*
X1145435Y29261D01*
X1145468Y29193D01*
X1145504Y29127D01*
X1145543Y29062D01*
X1145586Y29000D01*
X1145632Y28940D01*
X1145681Y28883D01*
X1145732Y28828D01*
X1147767Y26793D01*
X1147822Y26742D01*
X1147879Y26693D01*
X1147939Y26647D01*
X1148001Y26604D01*
X1148066Y26565D01*
X1148132Y26529D01*
X1148200Y26496D01*
X1148269Y26468D01*
X1148340Y26442D01*
X1148413Y26421D01*
X1148486Y26403D01*
X1148560Y26390D01*
X1148635Y26380D01*
X1148710Y26374D01*
X1148785Y26372D01*
X1148860Y26374D01*
X1148935Y26380D01*
X1149010Y26390D01*
X1149084Y26403D01*
X1149157Y26421D01*
X1149230Y26442D01*
X1149301Y26468D01*
X1149370Y26496D01*
X1149438Y26529D01*
X1149505Y26565D01*
X1149569Y26604D01*
X1149631Y26647D01*
X1149691Y26693D01*
X1149748Y26742D01*
X1149803Y26793D01*
X1151499Y28489D01*
X1155058Y40190D02*
X1156415Y41547D01*
X1155058Y40190D02*
X1155007Y40135D01*
X1154958Y40078D01*
X1154912Y40018D01*
X1154869Y39956D01*
X1154830Y39892D01*
X1154794Y39825D01*
X1154761Y39757D01*
X1154733Y39688D01*
X1154707Y39617D01*
X1154686Y39544D01*
X1154668Y39471D01*
X1154655Y39397D01*
X1154645Y39322D01*
X1154639Y39247D01*
X1154637Y39172D01*
X1154639Y39097D01*
X1154645Y39022D01*
X1154655Y38947D01*
X1154668Y38873D01*
X1154686Y38800D01*
X1154707Y38727D01*
X1154733Y38656D01*
X1154761Y38587D01*
X1154794Y38519D01*
X1154830Y38453D01*
X1154869Y38388D01*
X1154912Y38326D01*
X1154958Y38266D01*
X1155007Y38209D01*
X1155058Y38154D01*
X1155058Y38155D02*
X1157094Y36119D01*
X1157093Y36119D02*
X1157148Y36068D01*
X1157205Y36019D01*
X1157265Y35973D01*
X1157327Y35930D01*
X1157392Y35891D01*
X1157458Y35855D01*
X1157526Y35822D01*
X1157595Y35794D01*
X1157666Y35768D01*
X1157739Y35747D01*
X1157812Y35729D01*
X1157886Y35716D01*
X1157961Y35706D01*
X1158036Y35700D01*
X1158111Y35698D01*
X1158186Y35700D01*
X1158261Y35706D01*
X1158336Y35716D01*
X1158410Y35729D01*
X1158483Y35747D01*
X1158556Y35768D01*
X1158627Y35794D01*
X1158696Y35822D01*
X1158764Y35855D01*
X1158831Y35891D01*
X1158895Y35930D01*
X1158957Y35973D01*
X1159017Y36019D01*
X1159074Y36068D01*
X1159129Y36119D01*
X1160486Y37476D01*
X1162501Y42883D02*
X1164028Y44410D01*
X1162501Y42884D02*
X1162443Y42828D01*
X1162381Y42775D01*
X1162317Y42725D01*
X1162251Y42678D01*
X1162183Y42634D01*
X1162112Y42594D01*
X1162040Y42557D01*
X1161966Y42524D01*
X1161890Y42494D01*
X1161814Y42468D01*
X1161735Y42446D01*
X1161656Y42427D01*
X1161577Y42413D01*
X1161496Y42402D01*
X1161415Y42395D01*
X1161334Y42392D01*
X1161253Y42393D01*
X1161172Y42398D01*
X1161092Y42407D01*
X1161011Y42420D01*
X1160932Y42436D01*
X1160853Y42456D01*
X1160776Y42481D01*
X1160700Y42508D01*
X1160625Y42540D01*
X1160552Y42575D01*
X1160480Y42614D01*
X1160411Y42656D01*
X1160344Y42701D01*
X1160279Y42749D01*
X1160216Y42801D01*
X1160156Y42855D01*
X1160098Y42913D01*
X1160044Y42973D01*
X1159992Y43036D01*
X1159944Y43101D01*
X1159899Y43168D01*
X1159857Y43237D01*
X1159818Y43309D01*
X1159783Y43382D01*
X1159751Y43457D01*
X1159724Y43533D01*
X1159699Y43610D01*
X1159679Y43689D01*
X1159663Y43768D01*
X1159650Y43849D01*
X1159641Y43929D01*
X1159636Y44010D01*
X1159635Y44091D01*
X1159638Y44172D01*
X1159645Y44253D01*
X1159656Y44334D01*
X1159670Y44413D01*
X1159689Y44492D01*
X1159711Y44571D01*
X1159737Y44647D01*
X1159767Y44723D01*
X1159800Y44797D01*
X1159837Y44869D01*
X1159877Y44940D01*
X1159921Y45008D01*
X1159968Y45074D01*
X1160018Y45138D01*
X1160071Y45200D01*
X1160127Y45258D01*
X1160126Y45258D02*
X1161653Y46785D01*
X1164706Y43731D01*
X1164706Y43732D02*
X1164756Y43679D01*
X1164803Y43623D01*
X1164848Y43566D01*
X1164890Y43506D01*
X1164928Y43444D01*
X1164963Y43380D01*
X1164996Y43315D01*
X1165024Y43248D01*
X1165050Y43179D01*
X1165071Y43110D01*
X1165090Y43039D01*
X1165104Y42968D01*
X1165115Y42896D01*
X1165123Y42823D01*
X1165127Y42750D01*
X1165127Y42678D01*
X1165123Y42605D01*
X1165115Y42532D01*
X1165104Y42460D01*
X1165090Y42389D01*
X1165071Y42318D01*
X1165050Y42249D01*
X1165024Y42180D01*
X1164996Y42113D01*
X1164963Y42048D01*
X1164928Y41984D01*
X1164890Y41922D01*
X1164848Y41862D01*
X1164803Y41805D01*
X1164756Y41749D01*
X1164705Y41696D01*
X1164706Y41696D02*
X1163349Y40339D01*
X1171176Y44094D02*
X1165069Y50201D01*
X1166765Y51897D01*
X1166765Y51898D02*
X1166820Y51949D01*
X1166877Y51998D01*
X1166937Y52044D01*
X1166999Y52087D01*
X1167063Y52126D01*
X1167130Y52162D01*
X1167198Y52195D01*
X1167267Y52223D01*
X1167338Y52249D01*
X1167411Y52270D01*
X1167484Y52288D01*
X1167558Y52301D01*
X1167633Y52311D01*
X1167708Y52317D01*
X1167783Y52319D01*
X1167858Y52317D01*
X1167933Y52311D01*
X1168008Y52301D01*
X1168082Y52288D01*
X1168155Y52270D01*
X1168228Y52249D01*
X1168299Y52223D01*
X1168368Y52195D01*
X1168436Y52162D01*
X1168502Y52126D01*
X1168567Y52087D01*
X1168629Y52044D01*
X1168689Y51998D01*
X1168746Y51949D01*
X1168800Y51898D01*
X1168801Y51897D02*
X1170837Y49862D01*
X1170887Y49809D01*
X1170934Y49753D01*
X1170979Y49696D01*
X1171021Y49636D01*
X1171059Y49574D01*
X1171094Y49510D01*
X1171127Y49445D01*
X1171155Y49378D01*
X1171181Y49309D01*
X1171202Y49240D01*
X1171221Y49169D01*
X1171235Y49098D01*
X1171246Y49026D01*
X1171254Y48953D01*
X1171258Y48880D01*
X1171258Y48808D01*
X1171254Y48735D01*
X1171246Y48662D01*
X1171235Y48590D01*
X1171221Y48519D01*
X1171202Y48448D01*
X1171181Y48379D01*
X1171155Y48310D01*
X1171127Y48243D01*
X1171094Y48178D01*
X1171059Y48114D01*
X1171021Y48052D01*
X1170979Y47992D01*
X1170934Y47935D01*
X1170887Y47879D01*
X1170837Y47826D01*
X1169140Y46130D01*
X1176759Y49678D02*
X1171670Y54766D01*
X1171620Y54819D01*
X1171573Y54875D01*
X1171528Y54932D01*
X1171486Y54992D01*
X1171448Y55054D01*
X1171413Y55118D01*
X1171380Y55183D01*
X1171352Y55250D01*
X1171326Y55319D01*
X1171305Y55388D01*
X1171286Y55459D01*
X1171272Y55530D01*
X1171261Y55602D01*
X1171253Y55675D01*
X1171249Y55748D01*
X1171249Y55820D01*
X1171253Y55893D01*
X1171261Y55966D01*
X1171272Y56038D01*
X1171286Y56109D01*
X1171305Y56180D01*
X1171326Y56249D01*
X1171352Y56318D01*
X1171380Y56385D01*
X1171413Y56450D01*
X1171448Y56514D01*
X1171486Y56576D01*
X1171528Y56636D01*
X1171573Y56693D01*
X1171620Y56749D01*
X1171670Y56802D01*
X1175091Y60223D02*
X1176787Y61919D01*
X1175091Y60223D02*
X1175040Y60168D01*
X1174991Y60111D01*
X1174945Y60051D01*
X1174902Y59989D01*
X1174863Y59925D01*
X1174827Y59858D01*
X1174794Y59790D01*
X1174766Y59721D01*
X1174740Y59650D01*
X1174719Y59577D01*
X1174701Y59504D01*
X1174688Y59430D01*
X1174678Y59355D01*
X1174672Y59280D01*
X1174670Y59205D01*
X1174672Y59130D01*
X1174678Y59055D01*
X1174688Y58980D01*
X1174701Y58906D01*
X1174719Y58833D01*
X1174740Y58760D01*
X1174766Y58689D01*
X1174794Y58620D01*
X1174827Y58552D01*
X1174863Y58486D01*
X1174902Y58421D01*
X1174945Y58359D01*
X1174991Y58299D01*
X1175040Y58242D01*
X1175091Y58187D01*
X1176787Y56491D01*
X1176849Y56432D01*
X1176914Y56375D01*
X1176981Y56321D01*
X1177051Y56271D01*
X1177123Y56223D01*
X1177197Y56179D01*
X1177273Y56138D01*
X1177350Y56101D01*
X1177430Y56067D01*
X1177510Y56037D01*
X1177592Y56010D01*
X1177675Y55987D01*
X1177759Y55968D01*
X1177844Y55953D01*
X1177929Y55941D01*
X1178015Y55933D01*
X1178101Y55929D01*
X1178187Y55929D01*
X1178273Y55933D01*
X1178359Y55941D01*
X1178444Y55953D01*
X1178529Y55968D01*
X1178613Y55987D01*
X1178696Y56010D01*
X1178778Y56037D01*
X1178858Y56067D01*
X1178938Y56101D01*
X1179015Y56138D01*
X1179091Y56179D01*
X1179165Y56223D01*
X1179237Y56271D01*
X1179307Y56321D01*
X1179374Y56375D01*
X1179439Y56432D01*
X1179501Y56491D01*
X1179560Y56553D01*
X1179617Y56618D01*
X1179671Y56685D01*
X1179721Y56755D01*
X1179769Y56827D01*
X1179813Y56901D01*
X1179854Y56977D01*
X1179891Y57054D01*
X1179925Y57134D01*
X1179955Y57214D01*
X1179982Y57296D01*
X1180005Y57379D01*
X1180024Y57463D01*
X1180039Y57548D01*
X1180051Y57633D01*
X1180059Y57719D01*
X1180063Y57805D01*
X1180063Y57891D01*
X1180059Y57977D01*
X1180051Y58063D01*
X1180039Y58148D01*
X1180024Y58233D01*
X1180005Y58317D01*
X1179982Y58400D01*
X1179955Y58482D01*
X1179925Y58562D01*
X1179891Y58642D01*
X1179854Y58719D01*
X1179813Y58795D01*
X1179769Y58869D01*
X1179721Y58941D01*
X1179671Y59011D01*
X1179617Y59078D01*
X1179560Y59143D01*
X1179501Y59205D01*
X1178823Y59884D01*
X1176109Y57170D01*
X1183341Y68473D02*
X1189448Y62366D01*
X1187412Y64402D02*
X1189108Y66098D01*
X1189109Y66098D02*
X1189160Y66153D01*
X1189209Y66210D01*
X1189255Y66270D01*
X1189298Y66332D01*
X1189337Y66396D01*
X1189373Y66463D01*
X1189406Y66531D01*
X1189434Y66600D01*
X1189460Y66671D01*
X1189481Y66744D01*
X1189499Y66817D01*
X1189512Y66891D01*
X1189522Y66966D01*
X1189528Y67041D01*
X1189530Y67116D01*
X1189528Y67191D01*
X1189522Y67266D01*
X1189512Y67341D01*
X1189499Y67415D01*
X1189481Y67488D01*
X1189460Y67561D01*
X1189434Y67632D01*
X1189406Y67701D01*
X1189373Y67769D01*
X1189337Y67835D01*
X1189298Y67900D01*
X1189255Y67962D01*
X1189209Y68022D01*
X1189160Y68079D01*
X1189109Y68133D01*
X1189108Y68133D02*
X1186055Y71187D01*
X1190178Y75310D02*
X1191874Y77006D01*
X1190178Y75310D02*
X1190127Y75255D01*
X1190078Y75198D01*
X1190032Y75138D01*
X1189989Y75076D01*
X1189950Y75012D01*
X1189914Y74945D01*
X1189881Y74877D01*
X1189853Y74808D01*
X1189827Y74737D01*
X1189806Y74664D01*
X1189788Y74591D01*
X1189775Y74517D01*
X1189765Y74442D01*
X1189759Y74367D01*
X1189757Y74292D01*
X1189759Y74217D01*
X1189765Y74142D01*
X1189775Y74067D01*
X1189788Y73993D01*
X1189806Y73920D01*
X1189827Y73847D01*
X1189853Y73776D01*
X1189881Y73707D01*
X1189914Y73639D01*
X1189950Y73573D01*
X1189989Y73508D01*
X1190032Y73446D01*
X1190078Y73386D01*
X1190127Y73329D01*
X1190178Y73274D01*
X1191874Y71578D01*
X1191936Y71519D01*
X1192001Y71462D01*
X1192068Y71408D01*
X1192138Y71358D01*
X1192210Y71310D01*
X1192284Y71266D01*
X1192360Y71225D01*
X1192437Y71188D01*
X1192517Y71154D01*
X1192597Y71124D01*
X1192679Y71097D01*
X1192762Y71074D01*
X1192846Y71055D01*
X1192931Y71040D01*
X1193016Y71028D01*
X1193102Y71020D01*
X1193188Y71016D01*
X1193274Y71016D01*
X1193360Y71020D01*
X1193446Y71028D01*
X1193531Y71040D01*
X1193616Y71055D01*
X1193700Y71074D01*
X1193783Y71097D01*
X1193865Y71124D01*
X1193945Y71154D01*
X1194025Y71188D01*
X1194102Y71225D01*
X1194178Y71266D01*
X1194252Y71310D01*
X1194324Y71358D01*
X1194394Y71408D01*
X1194461Y71462D01*
X1194526Y71519D01*
X1194588Y71578D01*
X1194647Y71640D01*
X1194704Y71705D01*
X1194758Y71772D01*
X1194808Y71842D01*
X1194856Y71914D01*
X1194900Y71988D01*
X1194941Y72064D01*
X1194978Y72141D01*
X1195012Y72221D01*
X1195042Y72301D01*
X1195069Y72383D01*
X1195092Y72466D01*
X1195111Y72550D01*
X1195126Y72635D01*
X1195138Y72720D01*
X1195146Y72806D01*
X1195150Y72892D01*
X1195150Y72978D01*
X1195146Y73064D01*
X1195138Y73150D01*
X1195126Y73235D01*
X1195111Y73320D01*
X1195092Y73404D01*
X1195069Y73487D01*
X1195042Y73569D01*
X1195012Y73649D01*
X1194978Y73729D01*
X1194941Y73806D01*
X1194900Y73882D01*
X1194856Y73956D01*
X1194808Y74028D01*
X1194758Y74098D01*
X1194704Y74165D01*
X1194647Y74230D01*
X1194588Y74292D01*
X1193910Y74970D01*
X1191196Y72256D01*
X1195033Y80165D02*
X1199105Y76094D01*
X1201140Y78129D01*
X1200462Y78808D01*
X1200308Y85439D02*
X1202004Y87135D01*
X1200308Y85439D02*
X1200257Y85384D01*
X1200208Y85327D01*
X1200162Y85267D01*
X1200119Y85205D01*
X1200080Y85141D01*
X1200044Y85074D01*
X1200011Y85006D01*
X1199983Y84937D01*
X1199957Y84866D01*
X1199936Y84793D01*
X1199918Y84720D01*
X1199905Y84646D01*
X1199895Y84571D01*
X1199889Y84496D01*
X1199887Y84421D01*
X1199889Y84346D01*
X1199895Y84271D01*
X1199905Y84196D01*
X1199918Y84122D01*
X1199936Y84049D01*
X1199957Y83976D01*
X1199983Y83905D01*
X1200011Y83836D01*
X1200044Y83768D01*
X1200080Y83702D01*
X1200119Y83637D01*
X1200162Y83575D01*
X1200208Y83515D01*
X1200257Y83458D01*
X1200308Y83403D01*
X1200308Y83404D02*
X1202004Y81707D01*
X1202066Y81648D01*
X1202131Y81591D01*
X1202198Y81537D01*
X1202268Y81487D01*
X1202340Y81439D01*
X1202414Y81395D01*
X1202490Y81354D01*
X1202567Y81317D01*
X1202647Y81283D01*
X1202727Y81253D01*
X1202809Y81226D01*
X1202892Y81203D01*
X1202976Y81184D01*
X1203061Y81169D01*
X1203146Y81157D01*
X1203232Y81149D01*
X1203318Y81145D01*
X1203404Y81145D01*
X1203490Y81149D01*
X1203576Y81157D01*
X1203661Y81169D01*
X1203746Y81184D01*
X1203830Y81203D01*
X1203913Y81226D01*
X1203995Y81253D01*
X1204075Y81283D01*
X1204155Y81317D01*
X1204232Y81354D01*
X1204308Y81395D01*
X1204382Y81439D01*
X1204454Y81487D01*
X1204524Y81537D01*
X1204591Y81591D01*
X1204656Y81648D01*
X1204718Y81707D01*
X1204777Y81769D01*
X1204834Y81834D01*
X1204888Y81901D01*
X1204938Y81971D01*
X1204986Y82043D01*
X1205030Y82117D01*
X1205071Y82193D01*
X1205108Y82270D01*
X1205142Y82350D01*
X1205172Y82430D01*
X1205199Y82512D01*
X1205222Y82595D01*
X1205241Y82679D01*
X1205256Y82764D01*
X1205268Y82849D01*
X1205276Y82935D01*
X1205280Y83021D01*
X1205280Y83107D01*
X1205276Y83193D01*
X1205268Y83279D01*
X1205256Y83364D01*
X1205241Y83449D01*
X1205222Y83533D01*
X1205199Y83616D01*
X1205172Y83698D01*
X1205142Y83778D01*
X1205108Y83858D01*
X1205071Y83935D01*
X1205030Y84011D01*
X1204986Y84085D01*
X1204938Y84157D01*
X1204888Y84227D01*
X1204834Y84294D01*
X1204777Y84359D01*
X1204718Y84421D01*
X1204040Y85100D01*
X1201326Y82386D01*
X1346200Y3810D02*
X1346200Y290830D01*
X1346200Y3810D02*
X1242060Y3810D01*
X1242060Y290830D01*
X1346200Y290830D01*
X1346200Y8128D02*
X1242060Y8128D01*
X1242060Y16256D02*
X1346200Y16256D01*
X1346200Y24384D02*
X1242060Y24384D01*
X1242060Y32512D02*
X1346200Y32512D01*
X1346200Y40640D02*
X1242060Y40640D01*
X1242060Y48768D02*
X1346200Y48768D01*
X1346200Y56896D02*
X1242060Y56896D01*
X1242060Y65024D02*
X1346200Y65024D01*
X1346200Y73152D02*
X1242060Y73152D01*
X1242060Y81280D02*
X1346200Y81280D01*
X1346200Y89408D02*
X1242060Y89408D01*
X1242060Y97536D02*
X1346200Y97536D01*
X1346200Y105664D02*
X1242060Y105664D01*
X1242060Y113792D02*
X1346200Y113792D01*
X1346200Y121920D02*
X1242060Y121920D01*
X1242060Y130048D02*
X1346200Y130048D01*
X1346200Y138176D02*
X1242060Y138176D01*
X1242060Y146304D02*
X1346200Y146304D01*
X1346200Y154432D02*
X1242060Y154432D01*
X1242060Y162560D02*
X1346200Y162560D01*
X1346200Y170688D02*
X1242060Y170688D01*
X1242060Y178816D02*
X1346200Y178816D01*
X1346200Y186944D02*
X1242060Y186944D01*
X1242060Y195072D02*
X1346200Y195072D01*
X1346200Y203200D02*
X1242060Y203200D01*
X1242060Y211328D02*
X1346200Y211328D01*
X1346200Y219456D02*
X1242060Y219456D01*
X1242060Y227584D02*
X1346200Y227584D01*
X1346200Y235712D02*
X1242060Y235712D01*
X1242060Y243840D02*
X1346200Y243840D01*
X1346200Y251968D02*
X1242060Y251968D01*
X1242060Y260096D02*
X1346200Y260096D01*
X1346200Y268224D02*
X1242060Y268224D01*
X1242060Y276352D02*
X1346200Y276352D01*
X1346200Y284480D02*
X1242060Y284480D01*
X1243584Y290830D02*
X1243584Y3810D01*
X1251712Y3810D02*
X1251712Y290830D01*
X1259840Y290830D02*
X1259840Y3810D01*
X1267968Y3810D02*
X1267968Y290830D01*
X1276096Y290830D02*
X1276096Y3810D01*
X1284224Y3810D02*
X1284224Y290830D01*
X1292352Y290830D02*
X1292352Y3810D01*
X1300480Y3810D02*
X1300480Y290830D01*
X1308608Y290830D02*
X1308608Y3810D01*
X1316736Y3810D02*
X1316736Y290830D01*
X1324864Y290830D02*
X1324864Y3810D01*
X1332992Y3810D02*
X1332992Y290830D01*
X1341120Y290830D02*
X1341120Y3810D01*
D10*
X401320Y1270D02*
X384810Y17780D01*
X229870Y17780D01*
X1228090Y279400D02*
X1244600Y295910D01*
X1209040Y182880D02*
X1236980Y154940D01*
X248920Y114300D02*
X220980Y142240D01*
X229870Y17780D02*
X213360Y1270D01*
D11*
X237851Y103231D02*
X247650Y113030D01*
X230779Y96159D02*
X220980Y86360D01*
X220980Y73130D01*
X220980Y63130D02*
X220980Y49900D01*
X220980Y39900D02*
X220980Y26670D01*
X220980Y12700D01*
X220980Y86360D02*
X220980Y97473D01*
X220980Y107473D02*
X220980Y118587D01*
X220980Y128587D02*
X220980Y139700D01*
X1236980Y270510D02*
X1236980Y285750D01*
X1236980Y270510D02*
X1236980Y257280D01*
X1236980Y247280D02*
X1236980Y234050D01*
X1236980Y224050D02*
X1236980Y210820D01*
X1220109Y193949D02*
X1210310Y184150D01*
X1227181Y201021D02*
X1236980Y210820D01*
X1236980Y199707D01*
X1236980Y189707D02*
X1236980Y178593D01*
X1236980Y168593D02*
X1236980Y157480D01*
X228600Y19050D02*
X220980Y26670D01*
X1229360Y278130D02*
X1236980Y270510D01*
D10*
X1115140Y227330D02*
X1115142Y227471D01*
X1115148Y227612D01*
X1115158Y227752D01*
X1115172Y227892D01*
X1115190Y228032D01*
X1115211Y228171D01*
X1115237Y228310D01*
X1115266Y228448D01*
X1115300Y228584D01*
X1115337Y228720D01*
X1115378Y228855D01*
X1115423Y228989D01*
X1115472Y229121D01*
X1115524Y229252D01*
X1115580Y229381D01*
X1115640Y229508D01*
X1115703Y229634D01*
X1115769Y229758D01*
X1115840Y229881D01*
X1115913Y230001D01*
X1115990Y230119D01*
X1116070Y230235D01*
X1116154Y230348D01*
X1116240Y230459D01*
X1116330Y230568D01*
X1116423Y230674D01*
X1116518Y230777D01*
X1116617Y230878D01*
X1116718Y230976D01*
X1116822Y231071D01*
X1116929Y231163D01*
X1117038Y231252D01*
X1117150Y231337D01*
X1117264Y231420D01*
X1117380Y231500D01*
X1117499Y231576D01*
X1117620Y231648D01*
X1117742Y231718D01*
X1117867Y231783D01*
X1117993Y231846D01*
X1118121Y231904D01*
X1118251Y231959D01*
X1118382Y232011D01*
X1118515Y232058D01*
X1118649Y232102D01*
X1118784Y232143D01*
X1118920Y232179D01*
X1119057Y232211D01*
X1119195Y232240D01*
X1119333Y232265D01*
X1119473Y232285D01*
X1119613Y232302D01*
X1119753Y232315D01*
X1119894Y232324D01*
X1120034Y232329D01*
X1120175Y232330D01*
X1120316Y232327D01*
X1120457Y232320D01*
X1120597Y232309D01*
X1120737Y232294D01*
X1120877Y232275D01*
X1121016Y232253D01*
X1121154Y232226D01*
X1121292Y232196D01*
X1121428Y232161D01*
X1121564Y232123D01*
X1121698Y232081D01*
X1121832Y232035D01*
X1121964Y231986D01*
X1122094Y231932D01*
X1122223Y231875D01*
X1122350Y231815D01*
X1122476Y231751D01*
X1122599Y231683D01*
X1122721Y231612D01*
X1122841Y231538D01*
X1122958Y231460D01*
X1123073Y231379D01*
X1123186Y231295D01*
X1123297Y231208D01*
X1123405Y231117D01*
X1123510Y231024D01*
X1123613Y230927D01*
X1123713Y230828D01*
X1123810Y230726D01*
X1123904Y230621D01*
X1123995Y230514D01*
X1124083Y230404D01*
X1124168Y230292D01*
X1124250Y230177D01*
X1124329Y230060D01*
X1124404Y229941D01*
X1124476Y229820D01*
X1124544Y229697D01*
X1124609Y229572D01*
X1124671Y229445D01*
X1124728Y229316D01*
X1124783Y229186D01*
X1124833Y229055D01*
X1124880Y228922D01*
X1124923Y228788D01*
X1124962Y228652D01*
X1124997Y228516D01*
X1125029Y228379D01*
X1125056Y228241D01*
X1125080Y228102D01*
X1125100Y227962D01*
X1125116Y227822D01*
X1125128Y227682D01*
X1125136Y227541D01*
X1125140Y227400D01*
X1125140Y227260D01*
X1125136Y227119D01*
X1125128Y226978D01*
X1125116Y226838D01*
X1125100Y226698D01*
X1125080Y226558D01*
X1125056Y226419D01*
X1125029Y226281D01*
X1124997Y226144D01*
X1124962Y226008D01*
X1124923Y225872D01*
X1124880Y225738D01*
X1124833Y225605D01*
X1124783Y225474D01*
X1124728Y225344D01*
X1124671Y225215D01*
X1124609Y225088D01*
X1124544Y224963D01*
X1124476Y224840D01*
X1124404Y224719D01*
X1124329Y224600D01*
X1124250Y224483D01*
X1124168Y224368D01*
X1124083Y224256D01*
X1123995Y224146D01*
X1123904Y224039D01*
X1123810Y223934D01*
X1123713Y223832D01*
X1123613Y223733D01*
X1123510Y223636D01*
X1123405Y223543D01*
X1123297Y223452D01*
X1123186Y223365D01*
X1123073Y223281D01*
X1122958Y223200D01*
X1122841Y223122D01*
X1122721Y223048D01*
X1122599Y222977D01*
X1122476Y222909D01*
X1122350Y222845D01*
X1122223Y222785D01*
X1122094Y222728D01*
X1121964Y222674D01*
X1121832Y222625D01*
X1121698Y222579D01*
X1121564Y222537D01*
X1121428Y222499D01*
X1121292Y222464D01*
X1121154Y222434D01*
X1121016Y222407D01*
X1120877Y222385D01*
X1120737Y222366D01*
X1120597Y222351D01*
X1120457Y222340D01*
X1120316Y222333D01*
X1120175Y222330D01*
X1120034Y222331D01*
X1119894Y222336D01*
X1119753Y222345D01*
X1119613Y222358D01*
X1119473Y222375D01*
X1119333Y222395D01*
X1119195Y222420D01*
X1119057Y222449D01*
X1118920Y222481D01*
X1118784Y222517D01*
X1118649Y222558D01*
X1118515Y222602D01*
X1118382Y222649D01*
X1118251Y222701D01*
X1118121Y222756D01*
X1117993Y222814D01*
X1117867Y222877D01*
X1117742Y222942D01*
X1117620Y223012D01*
X1117499Y223084D01*
X1117380Y223160D01*
X1117264Y223240D01*
X1117150Y223323D01*
X1117038Y223408D01*
X1116929Y223497D01*
X1116822Y223589D01*
X1116718Y223684D01*
X1116617Y223782D01*
X1116518Y223883D01*
X1116423Y223986D01*
X1116330Y224092D01*
X1116240Y224201D01*
X1116154Y224312D01*
X1116070Y224425D01*
X1115990Y224541D01*
X1115913Y224659D01*
X1115840Y224779D01*
X1115769Y224902D01*
X1115703Y225026D01*
X1115640Y225152D01*
X1115580Y225279D01*
X1115524Y225408D01*
X1115472Y225539D01*
X1115423Y225671D01*
X1115378Y225805D01*
X1115337Y225940D01*
X1115300Y226076D01*
X1115266Y226212D01*
X1115237Y226350D01*
X1115211Y226489D01*
X1115190Y226628D01*
X1115172Y226768D01*
X1115158Y226908D01*
X1115148Y227048D01*
X1115142Y227189D01*
X1115140Y227330D01*
X1089740Y227330D02*
X1089742Y227471D01*
X1089748Y227612D01*
X1089758Y227752D01*
X1089772Y227892D01*
X1089790Y228032D01*
X1089811Y228171D01*
X1089837Y228310D01*
X1089866Y228448D01*
X1089900Y228584D01*
X1089937Y228720D01*
X1089978Y228855D01*
X1090023Y228989D01*
X1090072Y229121D01*
X1090124Y229252D01*
X1090180Y229381D01*
X1090240Y229508D01*
X1090303Y229634D01*
X1090369Y229758D01*
X1090440Y229881D01*
X1090513Y230001D01*
X1090590Y230119D01*
X1090670Y230235D01*
X1090754Y230348D01*
X1090840Y230459D01*
X1090930Y230568D01*
X1091023Y230674D01*
X1091118Y230777D01*
X1091217Y230878D01*
X1091318Y230976D01*
X1091422Y231071D01*
X1091529Y231163D01*
X1091638Y231252D01*
X1091750Y231337D01*
X1091864Y231420D01*
X1091980Y231500D01*
X1092099Y231576D01*
X1092220Y231648D01*
X1092342Y231718D01*
X1092467Y231783D01*
X1092593Y231846D01*
X1092721Y231904D01*
X1092851Y231959D01*
X1092982Y232011D01*
X1093115Y232058D01*
X1093249Y232102D01*
X1093384Y232143D01*
X1093520Y232179D01*
X1093657Y232211D01*
X1093795Y232240D01*
X1093933Y232265D01*
X1094073Y232285D01*
X1094213Y232302D01*
X1094353Y232315D01*
X1094494Y232324D01*
X1094634Y232329D01*
X1094775Y232330D01*
X1094916Y232327D01*
X1095057Y232320D01*
X1095197Y232309D01*
X1095337Y232294D01*
X1095477Y232275D01*
X1095616Y232253D01*
X1095754Y232226D01*
X1095892Y232196D01*
X1096028Y232161D01*
X1096164Y232123D01*
X1096298Y232081D01*
X1096432Y232035D01*
X1096564Y231986D01*
X1096694Y231932D01*
X1096823Y231875D01*
X1096950Y231815D01*
X1097076Y231751D01*
X1097199Y231683D01*
X1097321Y231612D01*
X1097441Y231538D01*
X1097558Y231460D01*
X1097673Y231379D01*
X1097786Y231295D01*
X1097897Y231208D01*
X1098005Y231117D01*
X1098110Y231024D01*
X1098213Y230927D01*
X1098313Y230828D01*
X1098410Y230726D01*
X1098504Y230621D01*
X1098595Y230514D01*
X1098683Y230404D01*
X1098768Y230292D01*
X1098850Y230177D01*
X1098929Y230060D01*
X1099004Y229941D01*
X1099076Y229820D01*
X1099144Y229697D01*
X1099209Y229572D01*
X1099271Y229445D01*
X1099328Y229316D01*
X1099383Y229186D01*
X1099433Y229055D01*
X1099480Y228922D01*
X1099523Y228788D01*
X1099562Y228652D01*
X1099597Y228516D01*
X1099629Y228379D01*
X1099656Y228241D01*
X1099680Y228102D01*
X1099700Y227962D01*
X1099716Y227822D01*
X1099728Y227682D01*
X1099736Y227541D01*
X1099740Y227400D01*
X1099740Y227260D01*
X1099736Y227119D01*
X1099728Y226978D01*
X1099716Y226838D01*
X1099700Y226698D01*
X1099680Y226558D01*
X1099656Y226419D01*
X1099629Y226281D01*
X1099597Y226144D01*
X1099562Y226008D01*
X1099523Y225872D01*
X1099480Y225738D01*
X1099433Y225605D01*
X1099383Y225474D01*
X1099328Y225344D01*
X1099271Y225215D01*
X1099209Y225088D01*
X1099144Y224963D01*
X1099076Y224840D01*
X1099004Y224719D01*
X1098929Y224600D01*
X1098850Y224483D01*
X1098768Y224368D01*
X1098683Y224256D01*
X1098595Y224146D01*
X1098504Y224039D01*
X1098410Y223934D01*
X1098313Y223832D01*
X1098213Y223733D01*
X1098110Y223636D01*
X1098005Y223543D01*
X1097897Y223452D01*
X1097786Y223365D01*
X1097673Y223281D01*
X1097558Y223200D01*
X1097441Y223122D01*
X1097321Y223048D01*
X1097199Y222977D01*
X1097076Y222909D01*
X1096950Y222845D01*
X1096823Y222785D01*
X1096694Y222728D01*
X1096564Y222674D01*
X1096432Y222625D01*
X1096298Y222579D01*
X1096164Y222537D01*
X1096028Y222499D01*
X1095892Y222464D01*
X1095754Y222434D01*
X1095616Y222407D01*
X1095477Y222385D01*
X1095337Y222366D01*
X1095197Y222351D01*
X1095057Y222340D01*
X1094916Y222333D01*
X1094775Y222330D01*
X1094634Y222331D01*
X1094494Y222336D01*
X1094353Y222345D01*
X1094213Y222358D01*
X1094073Y222375D01*
X1093933Y222395D01*
X1093795Y222420D01*
X1093657Y222449D01*
X1093520Y222481D01*
X1093384Y222517D01*
X1093249Y222558D01*
X1093115Y222602D01*
X1092982Y222649D01*
X1092851Y222701D01*
X1092721Y222756D01*
X1092593Y222814D01*
X1092467Y222877D01*
X1092342Y222942D01*
X1092220Y223012D01*
X1092099Y223084D01*
X1091980Y223160D01*
X1091864Y223240D01*
X1091750Y223323D01*
X1091638Y223408D01*
X1091529Y223497D01*
X1091422Y223589D01*
X1091318Y223684D01*
X1091217Y223782D01*
X1091118Y223883D01*
X1091023Y223986D01*
X1090930Y224092D01*
X1090840Y224201D01*
X1090754Y224312D01*
X1090670Y224425D01*
X1090590Y224541D01*
X1090513Y224659D01*
X1090440Y224779D01*
X1090369Y224902D01*
X1090303Y225026D01*
X1090240Y225152D01*
X1090180Y225279D01*
X1090124Y225408D01*
X1090072Y225539D01*
X1090023Y225671D01*
X1089978Y225805D01*
X1089937Y225940D01*
X1089900Y226076D01*
X1089866Y226212D01*
X1089837Y226350D01*
X1089811Y226489D01*
X1089790Y226628D01*
X1089772Y226768D01*
X1089758Y226908D01*
X1089748Y227048D01*
X1089742Y227189D01*
X1089740Y227330D01*
X1089740Y252730D02*
X1089742Y252871D01*
X1089748Y253012D01*
X1089758Y253152D01*
X1089772Y253292D01*
X1089790Y253432D01*
X1089811Y253571D01*
X1089837Y253710D01*
X1089866Y253848D01*
X1089900Y253984D01*
X1089937Y254120D01*
X1089978Y254255D01*
X1090023Y254389D01*
X1090072Y254521D01*
X1090124Y254652D01*
X1090180Y254781D01*
X1090240Y254908D01*
X1090303Y255034D01*
X1090369Y255158D01*
X1090440Y255281D01*
X1090513Y255401D01*
X1090590Y255519D01*
X1090670Y255635D01*
X1090754Y255748D01*
X1090840Y255859D01*
X1090930Y255968D01*
X1091023Y256074D01*
X1091118Y256177D01*
X1091217Y256278D01*
X1091318Y256376D01*
X1091422Y256471D01*
X1091529Y256563D01*
X1091638Y256652D01*
X1091750Y256737D01*
X1091864Y256820D01*
X1091980Y256900D01*
X1092099Y256976D01*
X1092220Y257048D01*
X1092342Y257118D01*
X1092467Y257183D01*
X1092593Y257246D01*
X1092721Y257304D01*
X1092851Y257359D01*
X1092982Y257411D01*
X1093115Y257458D01*
X1093249Y257502D01*
X1093384Y257543D01*
X1093520Y257579D01*
X1093657Y257611D01*
X1093795Y257640D01*
X1093933Y257665D01*
X1094073Y257685D01*
X1094213Y257702D01*
X1094353Y257715D01*
X1094494Y257724D01*
X1094634Y257729D01*
X1094775Y257730D01*
X1094916Y257727D01*
X1095057Y257720D01*
X1095197Y257709D01*
X1095337Y257694D01*
X1095477Y257675D01*
X1095616Y257653D01*
X1095754Y257626D01*
X1095892Y257596D01*
X1096028Y257561D01*
X1096164Y257523D01*
X1096298Y257481D01*
X1096432Y257435D01*
X1096564Y257386D01*
X1096694Y257332D01*
X1096823Y257275D01*
X1096950Y257215D01*
X1097076Y257151D01*
X1097199Y257083D01*
X1097321Y257012D01*
X1097441Y256938D01*
X1097558Y256860D01*
X1097673Y256779D01*
X1097786Y256695D01*
X1097897Y256608D01*
X1098005Y256517D01*
X1098110Y256424D01*
X1098213Y256327D01*
X1098313Y256228D01*
X1098410Y256126D01*
X1098504Y256021D01*
X1098595Y255914D01*
X1098683Y255804D01*
X1098768Y255692D01*
X1098850Y255577D01*
X1098929Y255460D01*
X1099004Y255341D01*
X1099076Y255220D01*
X1099144Y255097D01*
X1099209Y254972D01*
X1099271Y254845D01*
X1099328Y254716D01*
X1099383Y254586D01*
X1099433Y254455D01*
X1099480Y254322D01*
X1099523Y254188D01*
X1099562Y254052D01*
X1099597Y253916D01*
X1099629Y253779D01*
X1099656Y253641D01*
X1099680Y253502D01*
X1099700Y253362D01*
X1099716Y253222D01*
X1099728Y253082D01*
X1099736Y252941D01*
X1099740Y252800D01*
X1099740Y252660D01*
X1099736Y252519D01*
X1099728Y252378D01*
X1099716Y252238D01*
X1099700Y252098D01*
X1099680Y251958D01*
X1099656Y251819D01*
X1099629Y251681D01*
X1099597Y251544D01*
X1099562Y251408D01*
X1099523Y251272D01*
X1099480Y251138D01*
X1099433Y251005D01*
X1099383Y250874D01*
X1099328Y250744D01*
X1099271Y250615D01*
X1099209Y250488D01*
X1099144Y250363D01*
X1099076Y250240D01*
X1099004Y250119D01*
X1098929Y250000D01*
X1098850Y249883D01*
X1098768Y249768D01*
X1098683Y249656D01*
X1098595Y249546D01*
X1098504Y249439D01*
X1098410Y249334D01*
X1098313Y249232D01*
X1098213Y249133D01*
X1098110Y249036D01*
X1098005Y248943D01*
X1097897Y248852D01*
X1097786Y248765D01*
X1097673Y248681D01*
X1097558Y248600D01*
X1097441Y248522D01*
X1097321Y248448D01*
X1097199Y248377D01*
X1097076Y248309D01*
X1096950Y248245D01*
X1096823Y248185D01*
X1096694Y248128D01*
X1096564Y248074D01*
X1096432Y248025D01*
X1096298Y247979D01*
X1096164Y247937D01*
X1096028Y247899D01*
X1095892Y247864D01*
X1095754Y247834D01*
X1095616Y247807D01*
X1095477Y247785D01*
X1095337Y247766D01*
X1095197Y247751D01*
X1095057Y247740D01*
X1094916Y247733D01*
X1094775Y247730D01*
X1094634Y247731D01*
X1094494Y247736D01*
X1094353Y247745D01*
X1094213Y247758D01*
X1094073Y247775D01*
X1093933Y247795D01*
X1093795Y247820D01*
X1093657Y247849D01*
X1093520Y247881D01*
X1093384Y247917D01*
X1093249Y247958D01*
X1093115Y248002D01*
X1092982Y248049D01*
X1092851Y248101D01*
X1092721Y248156D01*
X1092593Y248214D01*
X1092467Y248277D01*
X1092342Y248342D01*
X1092220Y248412D01*
X1092099Y248484D01*
X1091980Y248560D01*
X1091864Y248640D01*
X1091750Y248723D01*
X1091638Y248808D01*
X1091529Y248897D01*
X1091422Y248989D01*
X1091318Y249084D01*
X1091217Y249182D01*
X1091118Y249283D01*
X1091023Y249386D01*
X1090930Y249492D01*
X1090840Y249601D01*
X1090754Y249712D01*
X1090670Y249825D01*
X1090590Y249941D01*
X1090513Y250059D01*
X1090440Y250179D01*
X1090369Y250302D01*
X1090303Y250426D01*
X1090240Y250552D01*
X1090180Y250679D01*
X1090124Y250808D01*
X1090072Y250939D01*
X1090023Y251071D01*
X1089978Y251205D01*
X1089937Y251340D01*
X1089900Y251476D01*
X1089866Y251612D01*
X1089837Y251750D01*
X1089811Y251889D01*
X1089790Y252028D01*
X1089772Y252168D01*
X1089758Y252308D01*
X1089748Y252448D01*
X1089742Y252589D01*
X1089740Y252730D01*
X1140540Y252730D02*
X1140542Y252871D01*
X1140548Y253012D01*
X1140558Y253152D01*
X1140572Y253292D01*
X1140590Y253432D01*
X1140611Y253571D01*
X1140637Y253710D01*
X1140666Y253848D01*
X1140700Y253984D01*
X1140737Y254120D01*
X1140778Y254255D01*
X1140823Y254389D01*
X1140872Y254521D01*
X1140924Y254652D01*
X1140980Y254781D01*
X1141040Y254908D01*
X1141103Y255034D01*
X1141169Y255158D01*
X1141240Y255281D01*
X1141313Y255401D01*
X1141390Y255519D01*
X1141470Y255635D01*
X1141554Y255748D01*
X1141640Y255859D01*
X1141730Y255968D01*
X1141823Y256074D01*
X1141918Y256177D01*
X1142017Y256278D01*
X1142118Y256376D01*
X1142222Y256471D01*
X1142329Y256563D01*
X1142438Y256652D01*
X1142550Y256737D01*
X1142664Y256820D01*
X1142780Y256900D01*
X1142899Y256976D01*
X1143020Y257048D01*
X1143142Y257118D01*
X1143267Y257183D01*
X1143393Y257246D01*
X1143521Y257304D01*
X1143651Y257359D01*
X1143782Y257411D01*
X1143915Y257458D01*
X1144049Y257502D01*
X1144184Y257543D01*
X1144320Y257579D01*
X1144457Y257611D01*
X1144595Y257640D01*
X1144733Y257665D01*
X1144873Y257685D01*
X1145013Y257702D01*
X1145153Y257715D01*
X1145294Y257724D01*
X1145434Y257729D01*
X1145575Y257730D01*
X1145716Y257727D01*
X1145857Y257720D01*
X1145997Y257709D01*
X1146137Y257694D01*
X1146277Y257675D01*
X1146416Y257653D01*
X1146554Y257626D01*
X1146692Y257596D01*
X1146828Y257561D01*
X1146964Y257523D01*
X1147098Y257481D01*
X1147232Y257435D01*
X1147364Y257386D01*
X1147494Y257332D01*
X1147623Y257275D01*
X1147750Y257215D01*
X1147876Y257151D01*
X1147999Y257083D01*
X1148121Y257012D01*
X1148241Y256938D01*
X1148358Y256860D01*
X1148473Y256779D01*
X1148586Y256695D01*
X1148697Y256608D01*
X1148805Y256517D01*
X1148910Y256424D01*
X1149013Y256327D01*
X1149113Y256228D01*
X1149210Y256126D01*
X1149304Y256021D01*
X1149395Y255914D01*
X1149483Y255804D01*
X1149568Y255692D01*
X1149650Y255577D01*
X1149729Y255460D01*
X1149804Y255341D01*
X1149876Y255220D01*
X1149944Y255097D01*
X1150009Y254972D01*
X1150071Y254845D01*
X1150128Y254716D01*
X1150183Y254586D01*
X1150233Y254455D01*
X1150280Y254322D01*
X1150323Y254188D01*
X1150362Y254052D01*
X1150397Y253916D01*
X1150429Y253779D01*
X1150456Y253641D01*
X1150480Y253502D01*
X1150500Y253362D01*
X1150516Y253222D01*
X1150528Y253082D01*
X1150536Y252941D01*
X1150540Y252800D01*
X1150540Y252660D01*
X1150536Y252519D01*
X1150528Y252378D01*
X1150516Y252238D01*
X1150500Y252098D01*
X1150480Y251958D01*
X1150456Y251819D01*
X1150429Y251681D01*
X1150397Y251544D01*
X1150362Y251408D01*
X1150323Y251272D01*
X1150280Y251138D01*
X1150233Y251005D01*
X1150183Y250874D01*
X1150128Y250744D01*
X1150071Y250615D01*
X1150009Y250488D01*
X1149944Y250363D01*
X1149876Y250240D01*
X1149804Y250119D01*
X1149729Y250000D01*
X1149650Y249883D01*
X1149568Y249768D01*
X1149483Y249656D01*
X1149395Y249546D01*
X1149304Y249439D01*
X1149210Y249334D01*
X1149113Y249232D01*
X1149013Y249133D01*
X1148910Y249036D01*
X1148805Y248943D01*
X1148697Y248852D01*
X1148586Y248765D01*
X1148473Y248681D01*
X1148358Y248600D01*
X1148241Y248522D01*
X1148121Y248448D01*
X1147999Y248377D01*
X1147876Y248309D01*
X1147750Y248245D01*
X1147623Y248185D01*
X1147494Y248128D01*
X1147364Y248074D01*
X1147232Y248025D01*
X1147098Y247979D01*
X1146964Y247937D01*
X1146828Y247899D01*
X1146692Y247864D01*
X1146554Y247834D01*
X1146416Y247807D01*
X1146277Y247785D01*
X1146137Y247766D01*
X1145997Y247751D01*
X1145857Y247740D01*
X1145716Y247733D01*
X1145575Y247730D01*
X1145434Y247731D01*
X1145294Y247736D01*
X1145153Y247745D01*
X1145013Y247758D01*
X1144873Y247775D01*
X1144733Y247795D01*
X1144595Y247820D01*
X1144457Y247849D01*
X1144320Y247881D01*
X1144184Y247917D01*
X1144049Y247958D01*
X1143915Y248002D01*
X1143782Y248049D01*
X1143651Y248101D01*
X1143521Y248156D01*
X1143393Y248214D01*
X1143267Y248277D01*
X1143142Y248342D01*
X1143020Y248412D01*
X1142899Y248484D01*
X1142780Y248560D01*
X1142664Y248640D01*
X1142550Y248723D01*
X1142438Y248808D01*
X1142329Y248897D01*
X1142222Y248989D01*
X1142118Y249084D01*
X1142017Y249182D01*
X1141918Y249283D01*
X1141823Y249386D01*
X1141730Y249492D01*
X1141640Y249601D01*
X1141554Y249712D01*
X1141470Y249825D01*
X1141390Y249941D01*
X1141313Y250059D01*
X1141240Y250179D01*
X1141169Y250302D01*
X1141103Y250426D01*
X1141040Y250552D01*
X1140980Y250679D01*
X1140924Y250808D01*
X1140872Y250939D01*
X1140823Y251071D01*
X1140778Y251205D01*
X1140737Y251340D01*
X1140700Y251476D01*
X1140666Y251612D01*
X1140637Y251750D01*
X1140611Y251889D01*
X1140590Y252028D01*
X1140572Y252168D01*
X1140558Y252308D01*
X1140548Y252448D01*
X1140542Y252589D01*
X1140540Y252730D01*
X332820Y69850D02*
X332822Y69991D01*
X332828Y70132D01*
X332838Y70272D01*
X332852Y70412D01*
X332870Y70552D01*
X332891Y70691D01*
X332917Y70830D01*
X332946Y70968D01*
X332980Y71104D01*
X333017Y71240D01*
X333058Y71375D01*
X333103Y71509D01*
X333152Y71641D01*
X333204Y71772D01*
X333260Y71901D01*
X333320Y72028D01*
X333383Y72154D01*
X333449Y72278D01*
X333520Y72401D01*
X333593Y72521D01*
X333670Y72639D01*
X333750Y72755D01*
X333834Y72868D01*
X333920Y72979D01*
X334010Y73088D01*
X334103Y73194D01*
X334198Y73297D01*
X334297Y73398D01*
X334398Y73496D01*
X334502Y73591D01*
X334609Y73683D01*
X334718Y73772D01*
X334830Y73857D01*
X334944Y73940D01*
X335060Y74020D01*
X335179Y74096D01*
X335300Y74168D01*
X335422Y74238D01*
X335547Y74303D01*
X335673Y74366D01*
X335801Y74424D01*
X335931Y74479D01*
X336062Y74531D01*
X336195Y74578D01*
X336329Y74622D01*
X336464Y74663D01*
X336600Y74699D01*
X336737Y74731D01*
X336875Y74760D01*
X337013Y74785D01*
X337153Y74805D01*
X337293Y74822D01*
X337433Y74835D01*
X337574Y74844D01*
X337714Y74849D01*
X337855Y74850D01*
X337996Y74847D01*
X338137Y74840D01*
X338277Y74829D01*
X338417Y74814D01*
X338557Y74795D01*
X338696Y74773D01*
X338834Y74746D01*
X338972Y74716D01*
X339108Y74681D01*
X339244Y74643D01*
X339378Y74601D01*
X339512Y74555D01*
X339644Y74506D01*
X339774Y74452D01*
X339903Y74395D01*
X340030Y74335D01*
X340156Y74271D01*
X340279Y74203D01*
X340401Y74132D01*
X340521Y74058D01*
X340638Y73980D01*
X340753Y73899D01*
X340866Y73815D01*
X340977Y73728D01*
X341085Y73637D01*
X341190Y73544D01*
X341293Y73447D01*
X341393Y73348D01*
X341490Y73246D01*
X341584Y73141D01*
X341675Y73034D01*
X341763Y72924D01*
X341848Y72812D01*
X341930Y72697D01*
X342009Y72580D01*
X342084Y72461D01*
X342156Y72340D01*
X342224Y72217D01*
X342289Y72092D01*
X342351Y71965D01*
X342408Y71836D01*
X342463Y71706D01*
X342513Y71575D01*
X342560Y71442D01*
X342603Y71308D01*
X342642Y71172D01*
X342677Y71036D01*
X342709Y70899D01*
X342736Y70761D01*
X342760Y70622D01*
X342780Y70482D01*
X342796Y70342D01*
X342808Y70202D01*
X342816Y70061D01*
X342820Y69920D01*
X342820Y69780D01*
X342816Y69639D01*
X342808Y69498D01*
X342796Y69358D01*
X342780Y69218D01*
X342760Y69078D01*
X342736Y68939D01*
X342709Y68801D01*
X342677Y68664D01*
X342642Y68528D01*
X342603Y68392D01*
X342560Y68258D01*
X342513Y68125D01*
X342463Y67994D01*
X342408Y67864D01*
X342351Y67735D01*
X342289Y67608D01*
X342224Y67483D01*
X342156Y67360D01*
X342084Y67239D01*
X342009Y67120D01*
X341930Y67003D01*
X341848Y66888D01*
X341763Y66776D01*
X341675Y66666D01*
X341584Y66559D01*
X341490Y66454D01*
X341393Y66352D01*
X341293Y66253D01*
X341190Y66156D01*
X341085Y66063D01*
X340977Y65972D01*
X340866Y65885D01*
X340753Y65801D01*
X340638Y65720D01*
X340521Y65642D01*
X340401Y65568D01*
X340279Y65497D01*
X340156Y65429D01*
X340030Y65365D01*
X339903Y65305D01*
X339774Y65248D01*
X339644Y65194D01*
X339512Y65145D01*
X339378Y65099D01*
X339244Y65057D01*
X339108Y65019D01*
X338972Y64984D01*
X338834Y64954D01*
X338696Y64927D01*
X338557Y64905D01*
X338417Y64886D01*
X338277Y64871D01*
X338137Y64860D01*
X337996Y64853D01*
X337855Y64850D01*
X337714Y64851D01*
X337574Y64856D01*
X337433Y64865D01*
X337293Y64878D01*
X337153Y64895D01*
X337013Y64915D01*
X336875Y64940D01*
X336737Y64969D01*
X336600Y65001D01*
X336464Y65037D01*
X336329Y65078D01*
X336195Y65122D01*
X336062Y65169D01*
X335931Y65221D01*
X335801Y65276D01*
X335673Y65334D01*
X335547Y65397D01*
X335422Y65462D01*
X335300Y65532D01*
X335179Y65604D01*
X335060Y65680D01*
X334944Y65760D01*
X334830Y65843D01*
X334718Y65928D01*
X334609Y66017D01*
X334502Y66109D01*
X334398Y66204D01*
X334297Y66302D01*
X334198Y66403D01*
X334103Y66506D01*
X334010Y66612D01*
X333920Y66721D01*
X333834Y66832D01*
X333750Y66945D01*
X333670Y67061D01*
X333593Y67179D01*
X333520Y67299D01*
X333449Y67422D01*
X333383Y67546D01*
X333320Y67672D01*
X333260Y67799D01*
X333204Y67928D01*
X333152Y68059D01*
X333103Y68191D01*
X333058Y68325D01*
X333017Y68460D01*
X332980Y68596D01*
X332946Y68732D01*
X332917Y68870D01*
X332891Y69009D01*
X332870Y69148D01*
X332852Y69288D01*
X332838Y69428D01*
X332828Y69568D01*
X332822Y69709D01*
X332820Y69850D01*
X358220Y69850D02*
X358222Y69991D01*
X358228Y70132D01*
X358238Y70272D01*
X358252Y70412D01*
X358270Y70552D01*
X358291Y70691D01*
X358317Y70830D01*
X358346Y70968D01*
X358380Y71104D01*
X358417Y71240D01*
X358458Y71375D01*
X358503Y71509D01*
X358552Y71641D01*
X358604Y71772D01*
X358660Y71901D01*
X358720Y72028D01*
X358783Y72154D01*
X358849Y72278D01*
X358920Y72401D01*
X358993Y72521D01*
X359070Y72639D01*
X359150Y72755D01*
X359234Y72868D01*
X359320Y72979D01*
X359410Y73088D01*
X359503Y73194D01*
X359598Y73297D01*
X359697Y73398D01*
X359798Y73496D01*
X359902Y73591D01*
X360009Y73683D01*
X360118Y73772D01*
X360230Y73857D01*
X360344Y73940D01*
X360460Y74020D01*
X360579Y74096D01*
X360700Y74168D01*
X360822Y74238D01*
X360947Y74303D01*
X361073Y74366D01*
X361201Y74424D01*
X361331Y74479D01*
X361462Y74531D01*
X361595Y74578D01*
X361729Y74622D01*
X361864Y74663D01*
X362000Y74699D01*
X362137Y74731D01*
X362275Y74760D01*
X362413Y74785D01*
X362553Y74805D01*
X362693Y74822D01*
X362833Y74835D01*
X362974Y74844D01*
X363114Y74849D01*
X363255Y74850D01*
X363396Y74847D01*
X363537Y74840D01*
X363677Y74829D01*
X363817Y74814D01*
X363957Y74795D01*
X364096Y74773D01*
X364234Y74746D01*
X364372Y74716D01*
X364508Y74681D01*
X364644Y74643D01*
X364778Y74601D01*
X364912Y74555D01*
X365044Y74506D01*
X365174Y74452D01*
X365303Y74395D01*
X365430Y74335D01*
X365556Y74271D01*
X365679Y74203D01*
X365801Y74132D01*
X365921Y74058D01*
X366038Y73980D01*
X366153Y73899D01*
X366266Y73815D01*
X366377Y73728D01*
X366485Y73637D01*
X366590Y73544D01*
X366693Y73447D01*
X366793Y73348D01*
X366890Y73246D01*
X366984Y73141D01*
X367075Y73034D01*
X367163Y72924D01*
X367248Y72812D01*
X367330Y72697D01*
X367409Y72580D01*
X367484Y72461D01*
X367556Y72340D01*
X367624Y72217D01*
X367689Y72092D01*
X367751Y71965D01*
X367808Y71836D01*
X367863Y71706D01*
X367913Y71575D01*
X367960Y71442D01*
X368003Y71308D01*
X368042Y71172D01*
X368077Y71036D01*
X368109Y70899D01*
X368136Y70761D01*
X368160Y70622D01*
X368180Y70482D01*
X368196Y70342D01*
X368208Y70202D01*
X368216Y70061D01*
X368220Y69920D01*
X368220Y69780D01*
X368216Y69639D01*
X368208Y69498D01*
X368196Y69358D01*
X368180Y69218D01*
X368160Y69078D01*
X368136Y68939D01*
X368109Y68801D01*
X368077Y68664D01*
X368042Y68528D01*
X368003Y68392D01*
X367960Y68258D01*
X367913Y68125D01*
X367863Y67994D01*
X367808Y67864D01*
X367751Y67735D01*
X367689Y67608D01*
X367624Y67483D01*
X367556Y67360D01*
X367484Y67239D01*
X367409Y67120D01*
X367330Y67003D01*
X367248Y66888D01*
X367163Y66776D01*
X367075Y66666D01*
X366984Y66559D01*
X366890Y66454D01*
X366793Y66352D01*
X366693Y66253D01*
X366590Y66156D01*
X366485Y66063D01*
X366377Y65972D01*
X366266Y65885D01*
X366153Y65801D01*
X366038Y65720D01*
X365921Y65642D01*
X365801Y65568D01*
X365679Y65497D01*
X365556Y65429D01*
X365430Y65365D01*
X365303Y65305D01*
X365174Y65248D01*
X365044Y65194D01*
X364912Y65145D01*
X364778Y65099D01*
X364644Y65057D01*
X364508Y65019D01*
X364372Y64984D01*
X364234Y64954D01*
X364096Y64927D01*
X363957Y64905D01*
X363817Y64886D01*
X363677Y64871D01*
X363537Y64860D01*
X363396Y64853D01*
X363255Y64850D01*
X363114Y64851D01*
X362974Y64856D01*
X362833Y64865D01*
X362693Y64878D01*
X362553Y64895D01*
X362413Y64915D01*
X362275Y64940D01*
X362137Y64969D01*
X362000Y65001D01*
X361864Y65037D01*
X361729Y65078D01*
X361595Y65122D01*
X361462Y65169D01*
X361331Y65221D01*
X361201Y65276D01*
X361073Y65334D01*
X360947Y65397D01*
X360822Y65462D01*
X360700Y65532D01*
X360579Y65604D01*
X360460Y65680D01*
X360344Y65760D01*
X360230Y65843D01*
X360118Y65928D01*
X360009Y66017D01*
X359902Y66109D01*
X359798Y66204D01*
X359697Y66302D01*
X359598Y66403D01*
X359503Y66506D01*
X359410Y66612D01*
X359320Y66721D01*
X359234Y66832D01*
X359150Y66945D01*
X359070Y67061D01*
X358993Y67179D01*
X358920Y67299D01*
X358849Y67422D01*
X358783Y67546D01*
X358720Y67672D01*
X358660Y67799D01*
X358604Y67928D01*
X358552Y68059D01*
X358503Y68191D01*
X358458Y68325D01*
X358417Y68460D01*
X358380Y68596D01*
X358346Y68732D01*
X358317Y68870D01*
X358291Y69009D01*
X358270Y69148D01*
X358252Y69288D01*
X358238Y69428D01*
X358228Y69568D01*
X358222Y69709D01*
X358220Y69850D01*
X358220Y44450D02*
X358222Y44591D01*
X358228Y44732D01*
X358238Y44872D01*
X358252Y45012D01*
X358270Y45152D01*
X358291Y45291D01*
X358317Y45430D01*
X358346Y45568D01*
X358380Y45704D01*
X358417Y45840D01*
X358458Y45975D01*
X358503Y46109D01*
X358552Y46241D01*
X358604Y46372D01*
X358660Y46501D01*
X358720Y46628D01*
X358783Y46754D01*
X358849Y46878D01*
X358920Y47001D01*
X358993Y47121D01*
X359070Y47239D01*
X359150Y47355D01*
X359234Y47468D01*
X359320Y47579D01*
X359410Y47688D01*
X359503Y47794D01*
X359598Y47897D01*
X359697Y47998D01*
X359798Y48096D01*
X359902Y48191D01*
X360009Y48283D01*
X360118Y48372D01*
X360230Y48457D01*
X360344Y48540D01*
X360460Y48620D01*
X360579Y48696D01*
X360700Y48768D01*
X360822Y48838D01*
X360947Y48903D01*
X361073Y48966D01*
X361201Y49024D01*
X361331Y49079D01*
X361462Y49131D01*
X361595Y49178D01*
X361729Y49222D01*
X361864Y49263D01*
X362000Y49299D01*
X362137Y49331D01*
X362275Y49360D01*
X362413Y49385D01*
X362553Y49405D01*
X362693Y49422D01*
X362833Y49435D01*
X362974Y49444D01*
X363114Y49449D01*
X363255Y49450D01*
X363396Y49447D01*
X363537Y49440D01*
X363677Y49429D01*
X363817Y49414D01*
X363957Y49395D01*
X364096Y49373D01*
X364234Y49346D01*
X364372Y49316D01*
X364508Y49281D01*
X364644Y49243D01*
X364778Y49201D01*
X364912Y49155D01*
X365044Y49106D01*
X365174Y49052D01*
X365303Y48995D01*
X365430Y48935D01*
X365556Y48871D01*
X365679Y48803D01*
X365801Y48732D01*
X365921Y48658D01*
X366038Y48580D01*
X366153Y48499D01*
X366266Y48415D01*
X366377Y48328D01*
X366485Y48237D01*
X366590Y48144D01*
X366693Y48047D01*
X366793Y47948D01*
X366890Y47846D01*
X366984Y47741D01*
X367075Y47634D01*
X367163Y47524D01*
X367248Y47412D01*
X367330Y47297D01*
X367409Y47180D01*
X367484Y47061D01*
X367556Y46940D01*
X367624Y46817D01*
X367689Y46692D01*
X367751Y46565D01*
X367808Y46436D01*
X367863Y46306D01*
X367913Y46175D01*
X367960Y46042D01*
X368003Y45908D01*
X368042Y45772D01*
X368077Y45636D01*
X368109Y45499D01*
X368136Y45361D01*
X368160Y45222D01*
X368180Y45082D01*
X368196Y44942D01*
X368208Y44802D01*
X368216Y44661D01*
X368220Y44520D01*
X368220Y44380D01*
X368216Y44239D01*
X368208Y44098D01*
X368196Y43958D01*
X368180Y43818D01*
X368160Y43678D01*
X368136Y43539D01*
X368109Y43401D01*
X368077Y43264D01*
X368042Y43128D01*
X368003Y42992D01*
X367960Y42858D01*
X367913Y42725D01*
X367863Y42594D01*
X367808Y42464D01*
X367751Y42335D01*
X367689Y42208D01*
X367624Y42083D01*
X367556Y41960D01*
X367484Y41839D01*
X367409Y41720D01*
X367330Y41603D01*
X367248Y41488D01*
X367163Y41376D01*
X367075Y41266D01*
X366984Y41159D01*
X366890Y41054D01*
X366793Y40952D01*
X366693Y40853D01*
X366590Y40756D01*
X366485Y40663D01*
X366377Y40572D01*
X366266Y40485D01*
X366153Y40401D01*
X366038Y40320D01*
X365921Y40242D01*
X365801Y40168D01*
X365679Y40097D01*
X365556Y40029D01*
X365430Y39965D01*
X365303Y39905D01*
X365174Y39848D01*
X365044Y39794D01*
X364912Y39745D01*
X364778Y39699D01*
X364644Y39657D01*
X364508Y39619D01*
X364372Y39584D01*
X364234Y39554D01*
X364096Y39527D01*
X363957Y39505D01*
X363817Y39486D01*
X363677Y39471D01*
X363537Y39460D01*
X363396Y39453D01*
X363255Y39450D01*
X363114Y39451D01*
X362974Y39456D01*
X362833Y39465D01*
X362693Y39478D01*
X362553Y39495D01*
X362413Y39515D01*
X362275Y39540D01*
X362137Y39569D01*
X362000Y39601D01*
X361864Y39637D01*
X361729Y39678D01*
X361595Y39722D01*
X361462Y39769D01*
X361331Y39821D01*
X361201Y39876D01*
X361073Y39934D01*
X360947Y39997D01*
X360822Y40062D01*
X360700Y40132D01*
X360579Y40204D01*
X360460Y40280D01*
X360344Y40360D01*
X360230Y40443D01*
X360118Y40528D01*
X360009Y40617D01*
X359902Y40709D01*
X359798Y40804D01*
X359697Y40902D01*
X359598Y41003D01*
X359503Y41106D01*
X359410Y41212D01*
X359320Y41321D01*
X359234Y41432D01*
X359150Y41545D01*
X359070Y41661D01*
X358993Y41779D01*
X358920Y41899D01*
X358849Y42022D01*
X358783Y42146D01*
X358720Y42272D01*
X358660Y42399D01*
X358604Y42528D01*
X358552Y42659D01*
X358503Y42791D01*
X358458Y42925D01*
X358417Y43060D01*
X358380Y43196D01*
X358346Y43332D01*
X358317Y43470D01*
X358291Y43609D01*
X358270Y43748D01*
X358252Y43888D01*
X358238Y44028D01*
X358228Y44168D01*
X358222Y44309D01*
X358220Y44450D01*
X307420Y44450D02*
X307422Y44591D01*
X307428Y44732D01*
X307438Y44872D01*
X307452Y45012D01*
X307470Y45152D01*
X307491Y45291D01*
X307517Y45430D01*
X307546Y45568D01*
X307580Y45704D01*
X307617Y45840D01*
X307658Y45975D01*
X307703Y46109D01*
X307752Y46241D01*
X307804Y46372D01*
X307860Y46501D01*
X307920Y46628D01*
X307983Y46754D01*
X308049Y46878D01*
X308120Y47001D01*
X308193Y47121D01*
X308270Y47239D01*
X308350Y47355D01*
X308434Y47468D01*
X308520Y47579D01*
X308610Y47688D01*
X308703Y47794D01*
X308798Y47897D01*
X308897Y47998D01*
X308998Y48096D01*
X309102Y48191D01*
X309209Y48283D01*
X309318Y48372D01*
X309430Y48457D01*
X309544Y48540D01*
X309660Y48620D01*
X309779Y48696D01*
X309900Y48768D01*
X310022Y48838D01*
X310147Y48903D01*
X310273Y48966D01*
X310401Y49024D01*
X310531Y49079D01*
X310662Y49131D01*
X310795Y49178D01*
X310929Y49222D01*
X311064Y49263D01*
X311200Y49299D01*
X311337Y49331D01*
X311475Y49360D01*
X311613Y49385D01*
X311753Y49405D01*
X311893Y49422D01*
X312033Y49435D01*
X312174Y49444D01*
X312314Y49449D01*
X312455Y49450D01*
X312596Y49447D01*
X312737Y49440D01*
X312877Y49429D01*
X313017Y49414D01*
X313157Y49395D01*
X313296Y49373D01*
X313434Y49346D01*
X313572Y49316D01*
X313708Y49281D01*
X313844Y49243D01*
X313978Y49201D01*
X314112Y49155D01*
X314244Y49106D01*
X314374Y49052D01*
X314503Y48995D01*
X314630Y48935D01*
X314756Y48871D01*
X314879Y48803D01*
X315001Y48732D01*
X315121Y48658D01*
X315238Y48580D01*
X315353Y48499D01*
X315466Y48415D01*
X315577Y48328D01*
X315685Y48237D01*
X315790Y48144D01*
X315893Y48047D01*
X315993Y47948D01*
X316090Y47846D01*
X316184Y47741D01*
X316275Y47634D01*
X316363Y47524D01*
X316448Y47412D01*
X316530Y47297D01*
X316609Y47180D01*
X316684Y47061D01*
X316756Y46940D01*
X316824Y46817D01*
X316889Y46692D01*
X316951Y46565D01*
X317008Y46436D01*
X317063Y46306D01*
X317113Y46175D01*
X317160Y46042D01*
X317203Y45908D01*
X317242Y45772D01*
X317277Y45636D01*
X317309Y45499D01*
X317336Y45361D01*
X317360Y45222D01*
X317380Y45082D01*
X317396Y44942D01*
X317408Y44802D01*
X317416Y44661D01*
X317420Y44520D01*
X317420Y44380D01*
X317416Y44239D01*
X317408Y44098D01*
X317396Y43958D01*
X317380Y43818D01*
X317360Y43678D01*
X317336Y43539D01*
X317309Y43401D01*
X317277Y43264D01*
X317242Y43128D01*
X317203Y42992D01*
X317160Y42858D01*
X317113Y42725D01*
X317063Y42594D01*
X317008Y42464D01*
X316951Y42335D01*
X316889Y42208D01*
X316824Y42083D01*
X316756Y41960D01*
X316684Y41839D01*
X316609Y41720D01*
X316530Y41603D01*
X316448Y41488D01*
X316363Y41376D01*
X316275Y41266D01*
X316184Y41159D01*
X316090Y41054D01*
X315993Y40952D01*
X315893Y40853D01*
X315790Y40756D01*
X315685Y40663D01*
X315577Y40572D01*
X315466Y40485D01*
X315353Y40401D01*
X315238Y40320D01*
X315121Y40242D01*
X315001Y40168D01*
X314879Y40097D01*
X314756Y40029D01*
X314630Y39965D01*
X314503Y39905D01*
X314374Y39848D01*
X314244Y39794D01*
X314112Y39745D01*
X313978Y39699D01*
X313844Y39657D01*
X313708Y39619D01*
X313572Y39584D01*
X313434Y39554D01*
X313296Y39527D01*
X313157Y39505D01*
X313017Y39486D01*
X312877Y39471D01*
X312737Y39460D01*
X312596Y39453D01*
X312455Y39450D01*
X312314Y39451D01*
X312174Y39456D01*
X312033Y39465D01*
X311893Y39478D01*
X311753Y39495D01*
X311613Y39515D01*
X311475Y39540D01*
X311337Y39569D01*
X311200Y39601D01*
X311064Y39637D01*
X310929Y39678D01*
X310795Y39722D01*
X310662Y39769D01*
X310531Y39821D01*
X310401Y39876D01*
X310273Y39934D01*
X310147Y39997D01*
X310022Y40062D01*
X309900Y40132D01*
X309779Y40204D01*
X309660Y40280D01*
X309544Y40360D01*
X309430Y40443D01*
X309318Y40528D01*
X309209Y40617D01*
X309102Y40709D01*
X308998Y40804D01*
X308897Y40902D01*
X308798Y41003D01*
X308703Y41106D01*
X308610Y41212D01*
X308520Y41321D01*
X308434Y41432D01*
X308350Y41545D01*
X308270Y41661D01*
X308193Y41779D01*
X308120Y41899D01*
X308049Y42022D01*
X307983Y42146D01*
X307920Y42272D01*
X307860Y42399D01*
X307804Y42528D01*
X307752Y42659D01*
X307703Y42791D01*
X307658Y42925D01*
X307617Y43060D01*
X307580Y43196D01*
X307546Y43332D01*
X307517Y43470D01*
X307491Y43609D01*
X307470Y43748D01*
X307452Y43888D01*
X307438Y44028D01*
X307428Y44168D01*
X307422Y44309D01*
X307420Y44450D01*
M02*
