G04 EAGLE Gerber X2 export*
%TF.Part,Single*%
%TF.FileFunction,Other,top copper*%
%TF.FilePolarity,Positive*%
%TF.GenerationSoftware,Autodesk,EAGLE,9.6.2*%
%TF.CreationDate,2020-07-07T11:07:30Z*%
G75*
%MOMM*%
%FSLAX34Y34*%
%LPD*%
%INtop copper*%
%AMOC8*
5,1,8,0,0,1.08239X$1,22.5*%
G01*
%ADD10C,0.000000*%
%ADD11R,0.900000X0.500000*%
%ADD12R,1.270000X1.524000*%
%ADD13R,1.350000X0.450000*%
%ADD14R,1.600000X0.800000*%
%ADD15R,2.540000X1.270000*%
%ADD16R,1.300000X1.500000*%
%ADD17R,1.100000X1.000000*%
%ADD18R,0.990600X0.304800*%
%ADD19R,0.800000X0.350000*%
%ADD20C,0.454000*%
%ADD21C,0.254000*%
%ADD22C,0.935000*%
%ADD23C,1.020000*%
%ADD24C,0.203200*%
%ADD25C,0.290000*%
%ADD26C,0.680000*%
%ADD27C,0.850000*%
%ADD28C,0.127000*%
%ADD29C,0.609600*%
%ADD30C,1.016000*%
%ADD31C,0.304800*%

G36*
X1470124Y79259D02*
X1470124Y79259D01*
X1470210Y79259D01*
X1470324Y79282D01*
X1470439Y79296D01*
X1470521Y79322D01*
X1470605Y79340D01*
X1470741Y79394D01*
X1470822Y79421D01*
X1470860Y79442D01*
X1470912Y79463D01*
X1483104Y85559D01*
X1483133Y85577D01*
X1483163Y85590D01*
X1483248Y85647D01*
X1483331Y85692D01*
X1483380Y85733D01*
X1483445Y85774D01*
X1483469Y85797D01*
X1483496Y85816D01*
X1483576Y85896D01*
X1483640Y85950D01*
X1483676Y85994D01*
X1483736Y86052D01*
X1483755Y86079D01*
X1483779Y86103D01*
X1483846Y86205D01*
X1483893Y86264D01*
X1483915Y86308D01*
X1483967Y86382D01*
X1483981Y86412D01*
X1483999Y86440D01*
X1484047Y86562D01*
X1484078Y86621D01*
X1484090Y86663D01*
X1484129Y86751D01*
X1484136Y86783D01*
X1484148Y86814D01*
X1484173Y86950D01*
X1484190Y87008D01*
X1484193Y87046D01*
X1484214Y87144D01*
X1484214Y87177D01*
X1484220Y87210D01*
X1484218Y87354D01*
X1484222Y87409D01*
X1484219Y87443D01*
X1484220Y87547D01*
X1484214Y87579D01*
X1484213Y87613D01*
X1484182Y87758D01*
X1484176Y87809D01*
X1484166Y87839D01*
X1484147Y87942D01*
X1484134Y87973D01*
X1484127Y88006D01*
X1484066Y88144D01*
X1484051Y88192D01*
X1484036Y88218D01*
X1483997Y88316D01*
X1483978Y88344D01*
X1483965Y88374D01*
X1483878Y88498D01*
X1483853Y88543D01*
X1483833Y88565D01*
X1483776Y88653D01*
X1483752Y88676D01*
X1483733Y88704D01*
X1483624Y88807D01*
X1483590Y88847D01*
X1483565Y88866D01*
X1483493Y88939D01*
X1483465Y88958D01*
X1483441Y88981D01*
X1483292Y89078D01*
X1483272Y89094D01*
X1483255Y89102D01*
X1483163Y89162D01*
X1483159Y89164D01*
X1470971Y95766D01*
X1470862Y95812D01*
X1470757Y95867D01*
X1470677Y95890D01*
X1470600Y95922D01*
X1470484Y95945D01*
X1470370Y95978D01*
X1470287Y95985D01*
X1470205Y96001D01*
X1470087Y96001D01*
X1469968Y96011D01*
X1469886Y96001D01*
X1469803Y96001D01*
X1469686Y95978D01*
X1469569Y95964D01*
X1469490Y95938D01*
X1469408Y95922D01*
X1469299Y95876D01*
X1469186Y95839D01*
X1469113Y95798D01*
X1469037Y95766D01*
X1468939Y95700D01*
X1468835Y95641D01*
X1468772Y95587D01*
X1468704Y95540D01*
X1468620Y95456D01*
X1468531Y95378D01*
X1468480Y95313D01*
X1468421Y95253D01*
X1468356Y95154D01*
X1468284Y95060D01*
X1468247Y94986D01*
X1468201Y94916D01*
X1468157Y94806D01*
X1468104Y94700D01*
X1468083Y94619D01*
X1468052Y94542D01*
X1468031Y94425D01*
X1468000Y94311D01*
X1467992Y94213D01*
X1467980Y94146D01*
X1467981Y94078D01*
X1467973Y93980D01*
X1467973Y81280D01*
X1467981Y81195D01*
X1467980Y81109D01*
X1468001Y80995D01*
X1468013Y80879D01*
X1468038Y80798D01*
X1468053Y80714D01*
X1468097Y80606D01*
X1468131Y80494D01*
X1468172Y80419D01*
X1468203Y80340D01*
X1468267Y80243D01*
X1468323Y80140D01*
X1468377Y80075D01*
X1468424Y80003D01*
X1468506Y79920D01*
X1468580Y79831D01*
X1468647Y79778D01*
X1468707Y79717D01*
X1468803Y79652D01*
X1468894Y79579D01*
X1468970Y79540D01*
X1469041Y79492D01*
X1469148Y79447D01*
X1469251Y79393D01*
X1469333Y79370D01*
X1469412Y79337D01*
X1469527Y79314D01*
X1469638Y79282D01*
X1469723Y79275D01*
X1469807Y79258D01*
X1469924Y79259D01*
X1470040Y79249D01*
X1470124Y79259D01*
G37*
D10*
X0Y-23000D02*
X3000Y-26000D01*
X17000Y-26000D01*
X39750Y136500D02*
X252500Y136500D01*
X39750Y136500D02*
X23750Y120500D01*
X7000Y120500D01*
X0Y113500D01*
X0Y107500D01*
X0Y94000D02*
X0Y75000D01*
X1000Y74000D01*
X4000Y74000D01*
X5000Y73000D01*
X5000Y70000D02*
X4000Y69000D01*
X1000Y69000D01*
X0Y68000D01*
X5000Y70000D02*
X5000Y73000D01*
X0Y68000D02*
X0Y42500D01*
X1000Y41500D01*
X4000Y41500D01*
X5000Y40500D01*
X5000Y37500D02*
X4000Y36500D01*
X1000Y36500D01*
X0Y35500D01*
X5000Y37500D02*
X5000Y40500D01*
X0Y-16500D02*
X0Y-23000D01*
X0Y-3000D02*
X0Y9500D01*
X0Y16500D02*
X0Y35500D01*
X0Y-3000D02*
X1000Y-4000D01*
X4000Y-4000D02*
X5000Y-5000D01*
X4000Y-4000D02*
X1000Y-4000D01*
X5000Y-5000D02*
X5000Y-14500D01*
X4000Y-15500D01*
X1000Y-15500D01*
X0Y-16500D01*
X1000Y106500D02*
X0Y107500D01*
X1000Y106500D02*
X4000Y106500D01*
X5000Y105500D01*
X5000Y96000D01*
X4000Y95000D01*
X1000Y95000D01*
X0Y94000D01*
X252500Y136500D02*
X294500Y94500D01*
X1427610Y94500D01*
X1466610Y133500D01*
X1490010Y133500D01*
X1494000Y129500D01*
X1494000Y-70000D01*
X1490500Y-73500D01*
X1355000Y-74000D01*
X1293500Y-12500D01*
X390500Y-12000D01*
X368000Y-34500D01*
X25500Y-34500D01*
X1000Y15500D02*
X0Y16500D01*
X1000Y15500D02*
X4000Y15500D01*
X5000Y14500D01*
X5000Y11500D01*
X4000Y10500D01*
X1000Y10500D01*
X0Y9500D01*
X17000Y-26000D02*
X25500Y-34500D01*
D11*
X135500Y106000D03*
X135500Y98000D03*
X135500Y90000D03*
X135500Y82000D03*
X151500Y82000D03*
X151500Y90000D03*
X151500Y98000D03*
X151500Y106000D03*
X135500Y64000D03*
X135500Y56000D03*
X135500Y48000D03*
X135500Y40000D03*
X151500Y40000D03*
X151500Y48000D03*
X151500Y56000D03*
X151500Y64000D03*
X135500Y22000D03*
X135500Y14000D03*
X135500Y6000D03*
X135500Y-2000D03*
X151500Y-2000D03*
X151500Y6000D03*
X151500Y14000D03*
X151500Y22000D03*
D12*
X94000Y-24750D03*
X118000Y-24750D03*
D13*
X6500Y0D03*
X6500Y6500D03*
X6500Y19500D03*
X6500Y26000D03*
X6500Y32500D03*
X6500Y45500D03*
X6500Y52000D03*
X6500Y58500D03*
X6500Y65000D03*
X6500Y78000D03*
X6500Y84500D03*
X6500Y91000D03*
X6500Y-19500D03*
X6500Y110500D03*
D14*
X1493690Y38110D03*
X1493690Y-63490D03*
X1493690Y-50790D03*
X1493690Y-38090D03*
X1493690Y-25390D03*
X1493690Y-12690D03*
X1493690Y10D03*
X1493690Y12710D03*
X1493690Y25410D03*
D15*
X1488610Y87640D03*
X1488610Y119390D03*
D14*
X1493690Y50810D03*
X1493690Y63510D03*
D15*
X109650Y125940D03*
D16*
X76000Y124000D03*
X57000Y124000D03*
D17*
X75500Y101500D03*
X58500Y101500D03*
D18*
X42322Y81250D03*
X42322Y74750D03*
X42322Y68250D03*
X42322Y61750D03*
X42322Y55250D03*
X42322Y48750D03*
X42322Y42250D03*
X42322Y35750D03*
X42322Y29250D03*
X42322Y22750D03*
X100678Y22750D03*
X100678Y29250D03*
X100678Y35750D03*
X100678Y42250D03*
X100678Y48750D03*
X100678Y55250D03*
X100678Y61750D03*
X100678Y68250D03*
X100678Y74750D03*
X100678Y81250D03*
D19*
X74750Y-7250D03*
X74750Y5750D03*
X55750Y5750D03*
X55750Y-750D03*
X55750Y-7250D03*
D17*
X91000Y5500D03*
X108000Y5500D03*
D20*
X6500Y0D03*
X0Y0D03*
D21*
X6500Y0D02*
X17500Y0D01*
X45500Y-750D02*
X55750Y-750D01*
X45500Y-750D02*
X17500Y0D01*
D20*
X0Y65000D03*
X6500Y65000D03*
X0Y110500D03*
D21*
X3270Y110500D02*
X6500Y110500D01*
D20*
X6500Y110500D03*
X0Y6500D03*
D22*
X44516Y-22388D03*
D20*
X0Y-19500D03*
X6500Y-19500D03*
X6500Y6500D03*
D21*
X0Y6500D01*
X3270Y6500D02*
X6500Y6500D01*
D20*
X6500Y32500D03*
X0Y32500D03*
D23*
X1494642Y87376D03*
X1481942Y87376D03*
D24*
X1488610Y87640D01*
X42322Y22750D02*
X42322Y22750D01*
X49062Y22750D01*
X49062Y22750D01*
X42322Y22750D01*
X143016Y60251D02*
X143016Y67749D01*
X141249Y69516D01*
X132381Y69516D01*
X134915Y71543D01*
X135694Y71723D01*
X136248Y72609D01*
X137064Y73262D01*
X137152Y74056D01*
X137284Y74267D01*
X137745Y74484D01*
X137817Y74681D01*
X137998Y74785D01*
X138051Y74980D01*
X140227Y76484D01*
X141249Y76484D01*
X143016Y78251D01*
X143016Y81369D01*
X143035Y81476D01*
X143016Y81504D01*
X143016Y85749D01*
X142765Y86000D01*
X143016Y86251D01*
X143016Y93749D01*
X142765Y94000D01*
X143016Y94251D01*
X143016Y101749D01*
X142671Y102094D01*
X142810Y102336D01*
X143016Y103103D01*
X143016Y105766D01*
X135734Y105766D01*
X135734Y106234D01*
X143016Y106234D01*
X143016Y108897D01*
X142810Y109664D01*
X142413Y110352D01*
X141852Y110913D01*
X141164Y111310D01*
X140397Y111516D01*
X135734Y111516D01*
X135734Y106234D01*
X135266Y106234D01*
X135266Y111516D01*
X130603Y111516D01*
X129836Y111310D01*
X129148Y110913D01*
X128587Y110352D01*
X128190Y109664D01*
X127984Y108897D01*
X127984Y106234D01*
X135266Y106234D01*
X135266Y105766D01*
X127984Y105766D01*
X127984Y103103D01*
X128190Y102336D01*
X128218Y102286D01*
X128125Y102286D01*
X127570Y101731D01*
X123482Y100327D01*
X122418Y100325D01*
X121868Y99773D01*
X121131Y99519D01*
X120664Y98563D01*
X118934Y96827D01*
X118354Y96678D01*
X117724Y95612D01*
X116851Y94735D01*
X116852Y94136D01*
X115402Y91682D01*
X114867Y91384D01*
X114530Y90207D01*
X113907Y89152D01*
X114059Y88559D01*
X113540Y86742D01*
X110651Y82037D01*
X108647Y80167D01*
X108647Y84023D01*
X106880Y85790D01*
X94476Y85790D01*
X94222Y85536D01*
X88553Y85536D01*
X86892Y85700D01*
X83821Y86971D01*
X82531Y88031D01*
X82531Y88031D01*
X81328Y89402D01*
X79508Y92554D01*
X79259Y93484D01*
X82249Y93484D01*
X84016Y95251D01*
X84016Y107749D01*
X82249Y109516D01*
X81270Y109516D01*
X81270Y112479D01*
X82275Y113484D01*
X83749Y113484D01*
X85516Y115251D01*
X85516Y116440D01*
X88952Y119876D01*
X93934Y119876D01*
X93934Y118341D01*
X95701Y116574D01*
X123599Y116574D01*
X125366Y118341D01*
X125366Y119876D01*
X145795Y119876D01*
X146594Y119077D01*
X149570Y117844D01*
X178190Y117844D01*
X181166Y119077D01*
X181965Y119876D01*
X240559Y119876D01*
X243083Y119711D01*
X247959Y118404D01*
X252330Y115880D01*
X254232Y114213D01*
X282237Y86208D01*
X282835Y85609D01*
X285789Y82656D01*
X286942Y81503D01*
X286942Y81503D01*
X294116Y77360D01*
X294116Y77360D01*
X302119Y75216D01*
X1419071Y75216D01*
X1427074Y77360D01*
X1427074Y77360D01*
X1434248Y81503D01*
X1434248Y81503D01*
X1435401Y82656D01*
X1435401Y82656D01*
X1460408Y107663D01*
X1462310Y109330D01*
X1466681Y111854D01*
X1470981Y113006D01*
X1470981Y109806D01*
X1471948Y108839D01*
X1490984Y108839D01*
X1490984Y97006D01*
X1489626Y97006D01*
X1489626Y93785D01*
X1489468Y93680D01*
X1488338Y92550D01*
X1488292Y92481D01*
X1488246Y92550D01*
X1487594Y93202D01*
X1487594Y97006D01*
X1475513Y97006D01*
X1474746Y96800D01*
X1474058Y96403D01*
X1473497Y95842D01*
X1473100Y95154D01*
X1472894Y94387D01*
X1472894Y88656D01*
X1473922Y88656D01*
X1473826Y88175D01*
X1473826Y87860D01*
X1481458Y87860D01*
X1481458Y86892D01*
X1473826Y86892D01*
X1473826Y86624D01*
X1472894Y86624D01*
X1472894Y80893D01*
X1473100Y80126D01*
X1473497Y79438D01*
X1474058Y78877D01*
X1474746Y78480D01*
X1475513Y78274D01*
X1487594Y78274D01*
X1487594Y81550D01*
X1488246Y82202D01*
X1488292Y82271D01*
X1488338Y82202D01*
X1489468Y81072D01*
X1489626Y80967D01*
X1489626Y78274D01*
X1490984Y78274D01*
X1490984Y72671D01*
X1490884Y72771D01*
X1472178Y72771D01*
X1471211Y71804D01*
X1471211Y-70555D01*
X1356245Y-70979D01*
X1333237Y-47972D01*
X1333452Y-48015D01*
X1333851Y-48015D01*
X1333851Y-40683D01*
X1334569Y-40683D01*
X1334569Y-48015D01*
X1334968Y-48015D01*
X1336453Y-47719D01*
X1337853Y-47140D01*
X1339113Y-46298D01*
X1340184Y-45227D01*
X1341026Y-43967D01*
X1341605Y-42567D01*
X1341901Y-41082D01*
X1341901Y-40683D01*
X1334569Y-40683D01*
X1334569Y-39965D01*
X1341901Y-39965D01*
X1341901Y-39566D01*
X1341605Y-38081D01*
X1341026Y-36681D01*
X1340184Y-35421D01*
X1339113Y-34350D01*
X1337853Y-33508D01*
X1336453Y-32929D01*
X1334968Y-32633D01*
X1334569Y-32633D01*
X1334569Y-39965D01*
X1333851Y-39965D01*
X1333851Y-32633D01*
X1333452Y-32633D01*
X1331967Y-32929D01*
X1330567Y-33508D01*
X1329307Y-34350D01*
X1328236Y-35421D01*
X1327394Y-36681D01*
X1326815Y-38081D01*
X1326519Y-39566D01*
X1326519Y-39965D01*
X1333851Y-39965D01*
X1333851Y-40683D01*
X1326519Y-40683D01*
X1326519Y-41082D01*
X1326562Y-41297D01*
X1295648Y-10383D01*
X1294751Y-9485D01*
X1294750Y-9485D01*
X1294749Y-9484D01*
X1293510Y-9484D01*
X391750Y-8985D01*
X391749Y-8984D01*
X390493Y-8984D01*
X389252Y-8983D01*
X389252Y-8984D01*
X389251Y-8984D01*
X388382Y-9853D01*
X387485Y-10749D01*
X387485Y-10750D01*
X366751Y-31484D01*
X127366Y-31484D01*
X127366Y-31133D01*
X129828Y-29036D01*
X131816Y-29036D01*
X135587Y-27474D01*
X135587Y-27474D01*
X135775Y-27286D01*
X135775Y-27286D01*
X136563Y-26499D01*
X137031Y-26031D01*
X138286Y-24775D01*
X138286Y-24775D01*
X138354Y-24708D01*
X138354Y-24707D01*
X139786Y-21250D01*
X139786Y-8187D01*
X140189Y-7516D01*
X141249Y-7516D01*
X143016Y-5749D01*
X143016Y-2804D01*
X143089Y-2683D01*
X143016Y-2392D01*
X143016Y1749D01*
X142765Y2000D01*
X143016Y2251D01*
X143016Y9749D01*
X142765Y10000D01*
X143016Y10251D01*
X143016Y17749D01*
X142765Y18000D01*
X143016Y18251D01*
X143016Y25749D01*
X141249Y27516D01*
X129751Y27516D01*
X128622Y26387D01*
X125996Y27044D01*
X122540Y28772D01*
X117300Y31828D01*
X116635Y32619D01*
X115827Y32688D01*
X115278Y33008D01*
X124099Y34782D01*
X128706Y35529D01*
X129751Y34484D01*
X141249Y34484D01*
X143016Y36251D01*
X143016Y43749D01*
X142765Y44000D01*
X143016Y44251D01*
X143016Y51749D01*
X142765Y52000D01*
X143016Y52251D01*
X143016Y59749D01*
X142765Y60000D01*
X143016Y60251D01*
X243916Y11276D02*
X243916Y8724D01*
X243916Y11276D02*
X242939Y13634D01*
X241134Y15439D01*
X238776Y16416D01*
X237145Y16416D01*
X208715Y44846D01*
X208715Y44846D01*
X207207Y46355D01*
X207207Y46355D01*
X200437Y50263D01*
X200437Y50263D01*
X195022Y51714D01*
X200979Y51714D01*
X203735Y51533D01*
X209059Y50107D01*
X213832Y47351D01*
X215909Y45530D01*
X251084Y10355D01*
X251084Y8724D01*
X252061Y6366D01*
X253866Y4561D01*
X256224Y3584D01*
X258776Y3584D01*
X261134Y4561D01*
X262939Y6366D01*
X263916Y8724D01*
X263916Y11276D01*
X262939Y13634D01*
X261134Y15439D01*
X258776Y16416D01*
X257145Y16416D01*
X220715Y52846D01*
X220715Y52846D01*
X219207Y54355D01*
X219207Y54355D01*
X212437Y58263D01*
X212437Y58263D01*
X207022Y59714D01*
X212979Y59714D01*
X215735Y59533D01*
X221059Y58107D01*
X225832Y55351D01*
X227909Y53530D01*
X271084Y10355D01*
X271084Y8724D01*
X272061Y6366D01*
X273866Y4561D01*
X276224Y3584D01*
X278776Y3584D01*
X281134Y4561D01*
X282939Y6366D01*
X283916Y8724D01*
X283916Y11276D01*
X282939Y13634D01*
X281134Y15439D01*
X278776Y16416D01*
X277145Y16416D01*
X232715Y60846D01*
X232715Y60846D01*
X231207Y62355D01*
X231207Y62355D01*
X224437Y66263D01*
X224437Y66263D01*
X216887Y68286D01*
X175867Y68286D01*
X175888Y68307D01*
X176730Y69567D01*
X177309Y70967D01*
X177605Y72452D01*
X177605Y72851D01*
X170273Y72851D01*
X170273Y73569D01*
X177605Y73569D01*
X177605Y73968D01*
X177309Y75453D01*
X176730Y76853D01*
X176154Y77714D01*
X214979Y77714D01*
X217735Y77533D01*
X223059Y76107D01*
X227832Y73351D01*
X229909Y71530D01*
X231147Y70292D01*
X231164Y70275D01*
X319084Y-17645D01*
X319084Y-19276D01*
X320061Y-21634D01*
X321866Y-23439D01*
X324224Y-24416D01*
X326776Y-24416D01*
X329134Y-23439D01*
X330939Y-21634D01*
X331916Y-19276D01*
X331916Y-16724D01*
X330939Y-14366D01*
X329134Y-12561D01*
X326776Y-11584D01*
X325145Y-11584D01*
X237225Y76336D01*
X237208Y76353D01*
X234715Y78846D01*
X234715Y78846D01*
X233207Y80355D01*
X233207Y80355D01*
X226437Y84263D01*
X226437Y84263D01*
X221022Y85714D01*
X226979Y85714D01*
X229735Y85533D01*
X229735Y85533D01*
X235059Y84107D01*
X239832Y81351D01*
X241909Y79530D01*
X242663Y78776D01*
X243164Y78275D01*
X243164Y78275D01*
X339084Y-17645D01*
X339084Y-19276D01*
X340061Y-21634D01*
X341866Y-23439D01*
X344224Y-24416D01*
X346776Y-24416D01*
X349134Y-23439D01*
X350939Y-21634D01*
X351916Y-19276D01*
X351916Y-16724D01*
X350939Y-14366D01*
X349134Y-12561D01*
X346776Y-11584D01*
X345145Y-11584D01*
X249225Y84336D01*
X249225Y84336D01*
X248723Y84838D01*
X246715Y86846D01*
X246715Y86846D01*
X245207Y88355D01*
X245207Y88355D01*
X238437Y92263D01*
X238437Y92263D01*
X233022Y93714D01*
X238979Y93714D01*
X241735Y93533D01*
X247059Y92107D01*
X251832Y89351D01*
X253909Y87530D01*
X359084Y-17645D01*
X359084Y-19276D01*
X360061Y-21634D01*
X361866Y-23439D01*
X364224Y-24416D01*
X366776Y-24416D01*
X369134Y-23439D01*
X370939Y-21634D01*
X371916Y-19276D01*
X371916Y-16724D01*
X370939Y-14366D01*
X369134Y-12561D01*
X366776Y-11584D01*
X365145Y-11584D01*
X258715Y94846D01*
X258715Y94846D01*
X257207Y96355D01*
X257207Y96355D01*
X250437Y100263D01*
X250437Y100263D01*
X242887Y102286D01*
X158782Y102286D01*
X158810Y102336D01*
X159016Y103103D01*
X159016Y105766D01*
X151734Y105766D01*
X151734Y106234D01*
X159016Y106234D01*
X159016Y108897D01*
X158810Y109664D01*
X158413Y110352D01*
X157852Y110913D01*
X157164Y111310D01*
X156397Y111516D01*
X151734Y111516D01*
X151734Y106234D01*
X151266Y106234D01*
X151266Y111516D01*
X146603Y111516D01*
X145836Y111310D01*
X145148Y110913D01*
X144587Y110352D01*
X144190Y109664D01*
X143984Y108897D01*
X143984Y106234D01*
X151266Y106234D01*
X151266Y105766D01*
X143984Y105766D01*
X143984Y103103D01*
X144190Y102336D01*
X144329Y102094D01*
X143984Y101749D01*
X143984Y94251D01*
X144235Y94000D01*
X143984Y93749D01*
X143984Y86251D01*
X144235Y86000D01*
X143984Y85749D01*
X143984Y78251D01*
X145751Y76484D01*
X157249Y76484D01*
X158479Y77714D01*
X163674Y77714D01*
X163098Y76853D01*
X162519Y75453D01*
X162223Y73968D01*
X162223Y73569D01*
X169555Y73569D01*
X169555Y72851D01*
X162223Y72851D01*
X162223Y72452D01*
X162519Y70967D01*
X163098Y69567D01*
X163940Y68307D01*
X163961Y68286D01*
X158479Y68286D01*
X157249Y69516D01*
X145751Y69516D01*
X143984Y67749D01*
X143984Y60251D01*
X144235Y60000D01*
X143984Y59749D01*
X143984Y52251D01*
X144235Y52000D01*
X143984Y51749D01*
X143984Y44251D01*
X144235Y44000D01*
X143984Y43749D01*
X143984Y36251D01*
X145751Y34484D01*
X157249Y34484D01*
X158479Y35714D01*
X161585Y35714D01*
X164864Y35391D01*
X170084Y33229D01*
X170084Y32546D01*
X171061Y30188D01*
X172866Y28383D01*
X175224Y27406D01*
X177776Y27406D01*
X180134Y28383D01*
X181939Y30188D01*
X182916Y32546D01*
X182916Y35098D01*
X181939Y37456D01*
X180134Y39261D01*
X177776Y40238D01*
X176145Y40238D01*
X175961Y40422D01*
X175961Y40422D01*
X168014Y43714D01*
X188979Y43714D01*
X191735Y43533D01*
X197059Y42107D01*
X201832Y39351D01*
X203909Y37530D01*
X231084Y10355D01*
X231084Y8724D01*
X232061Y6366D01*
X233866Y4561D01*
X236224Y3584D01*
X238776Y3584D01*
X241134Y4561D01*
X242939Y6366D01*
X243916Y8724D01*
X234877Y110471D02*
X234877Y117803D01*
X234877Y110471D02*
X234159Y110471D01*
X234159Y117803D01*
X233760Y117803D01*
X232275Y117507D01*
X230875Y116928D01*
X229615Y116086D01*
X228544Y115015D01*
X227702Y113755D01*
X227123Y112355D01*
X226827Y110870D01*
X226827Y110471D01*
X234159Y110471D01*
X234159Y109753D01*
X226827Y109753D01*
X226827Y109354D01*
X227123Y107869D01*
X227702Y106469D01*
X228544Y105209D01*
X229615Y104138D01*
X230875Y103296D01*
X232275Y102717D01*
X233760Y102421D01*
X234159Y102421D01*
X234159Y109753D01*
X234877Y109753D01*
X234877Y102421D01*
X235276Y102421D01*
X236761Y102717D01*
X238161Y103296D01*
X239421Y104138D01*
X240492Y105209D01*
X241334Y106469D01*
X241913Y107869D01*
X242209Y109354D01*
X242209Y109753D01*
X234877Y109753D01*
X234877Y110471D01*
X242209Y110471D01*
X242209Y110870D01*
X241913Y112355D01*
X241334Y113755D01*
X240492Y115015D01*
X239421Y116086D01*
X238161Y116928D01*
X236761Y117507D01*
X235276Y117803D01*
X234877Y117803D01*
X1410091Y44071D02*
X1410091Y36739D01*
X1409373Y36739D01*
X1409373Y44071D01*
X1408974Y44071D01*
X1407489Y43775D01*
X1406089Y43196D01*
X1404829Y42354D01*
X1403758Y41283D01*
X1402916Y40023D01*
X1402337Y38623D01*
X1402041Y37138D01*
X1402041Y36739D01*
X1409373Y36739D01*
X1409373Y36021D01*
X1402041Y36021D01*
X1402041Y35622D01*
X1402337Y34137D01*
X1402916Y32737D01*
X1403758Y31477D01*
X1404829Y30406D01*
X1406089Y29564D01*
X1407489Y28985D01*
X1408974Y28689D01*
X1409373Y28689D01*
X1409373Y36021D01*
X1410091Y36021D01*
X1410091Y28689D01*
X1410490Y28689D01*
X1411975Y28985D01*
X1413375Y29564D01*
X1414635Y30406D01*
X1415706Y31477D01*
X1416548Y32737D01*
X1417127Y34137D01*
X1417423Y35622D01*
X1417423Y36021D01*
X1410091Y36021D01*
X1410091Y36739D01*
X1417423Y36739D01*
X1417423Y37138D01*
X1417127Y38623D01*
X1416548Y40023D01*
X1415706Y41283D01*
X1414635Y42354D01*
X1413375Y43196D01*
X1411975Y43775D01*
X1410490Y44071D01*
X1410091Y44071D01*
X1360069Y-633D02*
X1360069Y-7965D01*
X1359351Y-7965D01*
X1359351Y-633D01*
X1358952Y-633D01*
X1357467Y-929D01*
X1356067Y-1508D01*
X1354807Y-2350D01*
X1353736Y-3421D01*
X1352894Y-4681D01*
X1352315Y-6081D01*
X1352019Y-7566D01*
X1352019Y-7965D01*
X1359351Y-7965D01*
X1359351Y-8683D01*
X1352019Y-8683D01*
X1352019Y-9082D01*
X1352315Y-10567D01*
X1352894Y-11967D01*
X1353736Y-13227D01*
X1354807Y-14298D01*
X1356067Y-15140D01*
X1357467Y-15719D01*
X1358952Y-16015D01*
X1359351Y-16015D01*
X1359351Y-8683D01*
X1360069Y-8683D01*
X1360069Y-16015D01*
X1360468Y-16015D01*
X1361953Y-15719D01*
X1363353Y-15140D01*
X1364613Y-14298D01*
X1365684Y-13227D01*
X1366526Y-11967D01*
X1367105Y-10567D01*
X1367401Y-9082D01*
X1367401Y-8683D01*
X1360069Y-8683D01*
X1360069Y-7965D01*
X1367401Y-7965D01*
X1367401Y-7566D01*
X1367105Y-6081D01*
X1366526Y-4681D01*
X1365684Y-3421D01*
X1364613Y-2350D01*
X1363353Y-1508D01*
X1361953Y-929D01*
X1360468Y-633D01*
X1360069Y-633D01*
X1449969Y83761D02*
X1449969Y91093D01*
X1449969Y83761D02*
X1449251Y83761D01*
X1449251Y91093D01*
X1448852Y91093D01*
X1447367Y90797D01*
X1445967Y90218D01*
X1444707Y89376D01*
X1443636Y88305D01*
X1442794Y87045D01*
X1442215Y85645D01*
X1441919Y84160D01*
X1441919Y83761D01*
X1449251Y83761D01*
X1449251Y83043D01*
X1441919Y83043D01*
X1441919Y82644D01*
X1442215Y81159D01*
X1442794Y79759D01*
X1443636Y78499D01*
X1444707Y77428D01*
X1445967Y76586D01*
X1447367Y76007D01*
X1448852Y75711D01*
X1449251Y75711D01*
X1449251Y83043D01*
X1449969Y83043D01*
X1449969Y75711D01*
X1450368Y75711D01*
X1451853Y76007D01*
X1453253Y76586D01*
X1454513Y77428D01*
X1455584Y78499D01*
X1456426Y79759D01*
X1457005Y81159D01*
X1457301Y82644D01*
X1457301Y83043D01*
X1449969Y83043D01*
X1449969Y83761D01*
X1457301Y83761D01*
X1457301Y84160D01*
X1457005Y85645D01*
X1456426Y87045D01*
X1455584Y88305D01*
X1454513Y89376D01*
X1453253Y90218D01*
X1451853Y90797D01*
X1450368Y91093D01*
X1449969Y91093D01*
X190051Y-12571D02*
X190051Y-19903D01*
X189333Y-19903D01*
X189333Y-12571D01*
X188934Y-12571D01*
X187449Y-12867D01*
X186049Y-13446D01*
X184789Y-14288D01*
X183718Y-15359D01*
X182876Y-16619D01*
X182297Y-18019D01*
X182001Y-19504D01*
X182001Y-19903D01*
X189333Y-19903D01*
X189333Y-20621D01*
X182001Y-20621D01*
X182001Y-21020D01*
X182297Y-22505D01*
X182876Y-23905D01*
X183718Y-25165D01*
X184789Y-26236D01*
X186049Y-27078D01*
X187449Y-27657D01*
X188934Y-27953D01*
X189333Y-27953D01*
X189333Y-20621D01*
X190051Y-20621D01*
X190051Y-27953D01*
X190450Y-27953D01*
X191935Y-27657D01*
X193335Y-27078D01*
X194595Y-26236D01*
X195666Y-25165D01*
X196508Y-23905D01*
X197087Y-22505D01*
X197383Y-21020D01*
X197383Y-20621D01*
X190051Y-20621D01*
X190051Y-19903D01*
X197383Y-19903D01*
X197383Y-19504D01*
X197087Y-18019D01*
X196508Y-16619D01*
X195666Y-15359D01*
X194595Y-14288D01*
X193335Y-13446D01*
X191935Y-12867D01*
X190450Y-12571D01*
X190051Y-12571D01*
X106377Y99471D02*
X106377Y106803D01*
X106377Y99471D02*
X105659Y99471D01*
X105659Y106803D01*
X105260Y106803D01*
X103775Y106507D01*
X102375Y105928D01*
X101115Y105086D01*
X100044Y104015D01*
X99202Y102755D01*
X98623Y101355D01*
X98327Y99870D01*
X98327Y99471D01*
X105659Y99471D01*
X105659Y98753D01*
X98327Y98753D01*
X98327Y98354D01*
X98623Y96869D01*
X99202Y95469D01*
X100044Y94209D01*
X101115Y93138D01*
X102375Y92296D01*
X103775Y91717D01*
X105260Y91421D01*
X105659Y91421D01*
X105659Y98753D01*
X106377Y98753D01*
X106377Y91421D01*
X106776Y91421D01*
X108261Y91717D01*
X109661Y92296D01*
X110921Y93138D01*
X111992Y94209D01*
X112834Y95469D01*
X113413Y96869D01*
X113709Y98354D01*
X113709Y98753D01*
X106377Y98753D01*
X106377Y99471D01*
X113709Y99471D01*
X113709Y99870D01*
X113413Y101355D01*
X112834Y102755D01*
X111992Y104015D01*
X110921Y105086D01*
X109661Y105928D01*
X108261Y106507D01*
X106776Y106803D01*
X106377Y106803D01*
X301041Y-10353D02*
X301041Y-17685D01*
X300323Y-17685D01*
X300323Y-10353D01*
X299924Y-10353D01*
X298439Y-10649D01*
X297039Y-11228D01*
X295779Y-12070D01*
X294708Y-13141D01*
X293866Y-14401D01*
X293287Y-15801D01*
X292991Y-17286D01*
X292991Y-17685D01*
X300323Y-17685D01*
X300323Y-18403D01*
X292991Y-18403D01*
X292991Y-18802D01*
X293287Y-20287D01*
X293866Y-21687D01*
X294708Y-22947D01*
X295779Y-24018D01*
X297039Y-24860D01*
X298439Y-25439D01*
X299924Y-25735D01*
X300323Y-25735D01*
X300323Y-18403D01*
X301041Y-18403D01*
X301041Y-25735D01*
X301440Y-25735D01*
X302925Y-25439D01*
X304325Y-24860D01*
X305585Y-24018D01*
X306656Y-22947D01*
X307498Y-21687D01*
X308077Y-20287D01*
X308373Y-18802D01*
X308373Y-18403D01*
X301041Y-18403D01*
X301041Y-17685D01*
X308373Y-17685D01*
X308373Y-17286D01*
X308077Y-15801D01*
X307498Y-14401D01*
X306656Y-13141D01*
X305585Y-12070D01*
X304325Y-11228D01*
X302925Y-10649D01*
X301440Y-10353D01*
X301041Y-10353D01*
X163911Y-12317D02*
X163911Y-19649D01*
X163193Y-19649D01*
X163193Y-12317D01*
X162794Y-12317D01*
X161309Y-12613D01*
X159909Y-13192D01*
X158649Y-14034D01*
X157578Y-15105D01*
X156736Y-16365D01*
X156157Y-17765D01*
X155861Y-19250D01*
X155861Y-19649D01*
X163193Y-19649D01*
X163193Y-20367D01*
X155861Y-20367D01*
X155861Y-20766D01*
X156157Y-22251D01*
X156736Y-23651D01*
X157578Y-24911D01*
X158649Y-25982D01*
X159909Y-26824D01*
X161309Y-27403D01*
X162794Y-27699D01*
X163193Y-27699D01*
X163193Y-20367D01*
X163911Y-20367D01*
X163911Y-27699D01*
X164310Y-27699D01*
X165795Y-27403D01*
X167195Y-26824D01*
X168455Y-25982D01*
X169526Y-24911D01*
X170368Y-23651D01*
X170947Y-22251D01*
X171243Y-20766D01*
X171243Y-20367D01*
X163911Y-20367D01*
X163911Y-19649D01*
X171243Y-19649D01*
X171243Y-19250D01*
X170947Y-17765D01*
X170368Y-16365D01*
X169526Y-15105D01*
X168455Y-14034D01*
X167195Y-13192D01*
X165795Y-12613D01*
X164310Y-12317D01*
X163911Y-12317D01*
X1464725Y100771D02*
X1464725Y108103D01*
X1464725Y100771D02*
X1464007Y100771D01*
X1464007Y108103D01*
X1463608Y108103D01*
X1462123Y107807D01*
X1460723Y107228D01*
X1459463Y106386D01*
X1458392Y105315D01*
X1457550Y104055D01*
X1456971Y102655D01*
X1456675Y101170D01*
X1456675Y100771D01*
X1464007Y100771D01*
X1464007Y100053D01*
X1456675Y100053D01*
X1456675Y99654D01*
X1456971Y98169D01*
X1457550Y96769D01*
X1458392Y95509D01*
X1459463Y94438D01*
X1460723Y93596D01*
X1462123Y93017D01*
X1463608Y92721D01*
X1464007Y92721D01*
X1464007Y100053D01*
X1464725Y100053D01*
X1464725Y92721D01*
X1465124Y92721D01*
X1466609Y93017D01*
X1468009Y93596D01*
X1469269Y94438D01*
X1470340Y95509D01*
X1471182Y96769D01*
X1471761Y98169D01*
X1472057Y99654D01*
X1472057Y100053D01*
X1464725Y100053D01*
X1464725Y100771D01*
X1472057Y100771D01*
X1472057Y101170D01*
X1471761Y102655D01*
X1471182Y104055D01*
X1470340Y105315D01*
X1469269Y106386D01*
X1468009Y107228D01*
X1466609Y107807D01*
X1465124Y108103D01*
X1464725Y108103D01*
X1391581Y34197D02*
X1391581Y26865D01*
X1390863Y26865D01*
X1390863Y34197D01*
X1390464Y34197D01*
X1388979Y33901D01*
X1387579Y33322D01*
X1386319Y32480D01*
X1385248Y31409D01*
X1384406Y30149D01*
X1383827Y28749D01*
X1383531Y27264D01*
X1383531Y26865D01*
X1390863Y26865D01*
X1390863Y26147D01*
X1383531Y26147D01*
X1383531Y25748D01*
X1383827Y24263D01*
X1384406Y22863D01*
X1385248Y21603D01*
X1386319Y20532D01*
X1387579Y19690D01*
X1388979Y19111D01*
X1390464Y18815D01*
X1390863Y18815D01*
X1390863Y26147D01*
X1391581Y26147D01*
X1391581Y18815D01*
X1391980Y18815D01*
X1393465Y19111D01*
X1394865Y19690D01*
X1396125Y20532D01*
X1397196Y21603D01*
X1398038Y22863D01*
X1398617Y24263D01*
X1398913Y25748D01*
X1398913Y26147D01*
X1391581Y26147D01*
X1391581Y26865D01*
X1398913Y26865D01*
X1398913Y27264D01*
X1398617Y28749D01*
X1398038Y30149D01*
X1397196Y31409D01*
X1396125Y32480D01*
X1394865Y33322D01*
X1393465Y33901D01*
X1391980Y34197D01*
X1391581Y34197D01*
X1429157Y49185D02*
X1429157Y56517D01*
X1429157Y49185D02*
X1428439Y49185D01*
X1428439Y56517D01*
X1428040Y56517D01*
X1426555Y56221D01*
X1425155Y55642D01*
X1423895Y54800D01*
X1422824Y53729D01*
X1421982Y52469D01*
X1421403Y51069D01*
X1421107Y49584D01*
X1421107Y49185D01*
X1428439Y49185D01*
X1428439Y48467D01*
X1421107Y48467D01*
X1421107Y48068D01*
X1421403Y46583D01*
X1421982Y45183D01*
X1422824Y43923D01*
X1423895Y42852D01*
X1425155Y42010D01*
X1426555Y41431D01*
X1428040Y41135D01*
X1428439Y41135D01*
X1428439Y48467D01*
X1429157Y48467D01*
X1429157Y41135D01*
X1429556Y41135D01*
X1431041Y41431D01*
X1432441Y42010D01*
X1433701Y42852D01*
X1434772Y43923D01*
X1435614Y45183D01*
X1436193Y46583D01*
X1436489Y48068D01*
X1436489Y48467D01*
X1429157Y48467D01*
X1429157Y49185D01*
X1436489Y49185D01*
X1436489Y49584D01*
X1436193Y51069D01*
X1435614Y52469D01*
X1434772Y53729D01*
X1433701Y54800D01*
X1432441Y55642D01*
X1431041Y56221D01*
X1429556Y56517D01*
X1429157Y56517D01*
X195877Y110471D02*
X195877Y117803D01*
X195877Y110471D02*
X195159Y110471D01*
X195159Y117803D01*
X194760Y117803D01*
X193275Y117507D01*
X191875Y116928D01*
X190615Y116086D01*
X189544Y115015D01*
X188702Y113755D01*
X188123Y112355D01*
X187827Y110870D01*
X187827Y110471D01*
X195159Y110471D01*
X195159Y109753D01*
X187827Y109753D01*
X187827Y109354D01*
X188123Y107869D01*
X188702Y106469D01*
X189544Y105209D01*
X190615Y104138D01*
X191875Y103296D01*
X193275Y102717D01*
X194760Y102421D01*
X195159Y102421D01*
X195159Y109753D01*
X195877Y109753D01*
X195877Y102421D01*
X196276Y102421D01*
X197761Y102717D01*
X199161Y103296D01*
X200421Y104138D01*
X201492Y105209D01*
X202334Y106469D01*
X202913Y107869D01*
X203209Y109354D01*
X203209Y109753D01*
X195877Y109753D01*
X195877Y110471D01*
X203209Y110471D01*
X203209Y110870D01*
X202913Y112355D01*
X202334Y113755D01*
X201492Y115015D01*
X200421Y116086D01*
X199161Y116928D01*
X197761Y117507D01*
X196276Y117803D01*
X195877Y117803D01*
X1449657Y67017D02*
X1449657Y59685D01*
X1448939Y59685D01*
X1448939Y67017D01*
X1448540Y67017D01*
X1447055Y66721D01*
X1445655Y66142D01*
X1444395Y65300D01*
X1443324Y64229D01*
X1442482Y62969D01*
X1441903Y61569D01*
X1441607Y60084D01*
X1441607Y59685D01*
X1448939Y59685D01*
X1448939Y58967D01*
X1441607Y58967D01*
X1441607Y58568D01*
X1441903Y57083D01*
X1442482Y55683D01*
X1443324Y54423D01*
X1444395Y53352D01*
X1445655Y52510D01*
X1447055Y51931D01*
X1448540Y51635D01*
X1448939Y51635D01*
X1448939Y58967D01*
X1449657Y58967D01*
X1449657Y51635D01*
X1450056Y51635D01*
X1451541Y51931D01*
X1452941Y52510D01*
X1454201Y53352D01*
X1455272Y54423D01*
X1456114Y55683D01*
X1456693Y57083D01*
X1456989Y58568D01*
X1456989Y58967D01*
X1449657Y58967D01*
X1449657Y59685D01*
X1456989Y59685D01*
X1456989Y60084D01*
X1456693Y61569D01*
X1456114Y62969D01*
X1455272Y64229D01*
X1454201Y65300D01*
X1452941Y66142D01*
X1451541Y66721D01*
X1450056Y67017D01*
X1449657Y67017D01*
X207258Y214D02*
X188246Y214D01*
X207258Y214D02*
X213124Y1786D01*
X213124Y1786D01*
X216239Y3584D01*
X218776Y3584D01*
X221134Y4561D01*
X222939Y6366D01*
X223916Y8724D01*
X223916Y11276D01*
X222939Y13634D01*
X221134Y15439D01*
X218776Y16416D01*
X216224Y16416D01*
X213866Y15439D01*
X212061Y13634D01*
X211084Y11276D01*
X211084Y10649D01*
X209768Y9889D01*
X206113Y8910D01*
X204222Y8786D01*
X191500Y8786D01*
X189981Y8936D01*
X187175Y10098D01*
X185995Y11066D01*
X184757Y12304D01*
X184740Y12322D01*
X183275Y13786D01*
X183275Y13786D01*
X181767Y15294D01*
X181767Y15294D01*
X175925Y17714D01*
X187608Y17714D01*
X189506Y17529D01*
X193193Y16415D01*
X194584Y15552D01*
X194584Y14724D01*
X195561Y12366D01*
X197366Y10561D01*
X199724Y9584D01*
X202276Y9584D01*
X204634Y10561D01*
X206439Y12366D01*
X207416Y14724D01*
X207416Y17276D01*
X206439Y19634D01*
X204634Y21439D01*
X202276Y22416D01*
X200019Y22416D01*
X196805Y24410D01*
X196805Y24410D01*
X190927Y26186D01*
X190927Y26186D01*
X189553Y26230D01*
X189497Y26286D01*
X187790Y26286D01*
X186083Y26340D01*
X186026Y26286D01*
X158479Y26286D01*
X157249Y27516D01*
X145751Y27516D01*
X143984Y25749D01*
X143984Y18251D01*
X144235Y18000D01*
X143984Y17749D01*
X143984Y10251D01*
X144235Y10000D01*
X143984Y9749D01*
X143984Y2251D01*
X144235Y2000D01*
X143984Y1749D01*
X143984Y-5749D01*
X145751Y-7516D01*
X157249Y-7516D01*
X157496Y-7270D01*
X158061Y-8634D01*
X159866Y-10439D01*
X162224Y-11416D01*
X164776Y-11416D01*
X167134Y-10439D01*
X168939Y-8634D01*
X169916Y-6276D01*
X169916Y-3724D01*
X168939Y-1366D01*
X167433Y141D01*
X167559Y107D01*
X172084Y-2506D01*
X172084Y-3776D01*
X173061Y-6134D01*
X174866Y-7939D01*
X177224Y-8916D01*
X179776Y-8916D01*
X182134Y-7939D01*
X183939Y-6134D01*
X184916Y-3776D01*
X184916Y-1224D01*
X183939Y1134D01*
X182465Y2609D01*
X188246Y214D01*
X69364Y45492D02*
X68619Y45598D01*
X68003Y46029D01*
X66929Y45840D01*
X63770Y46291D01*
X63525Y46536D01*
X62055Y46536D01*
X60599Y46744D01*
X60321Y46536D01*
X50291Y46536D01*
X50291Y51523D01*
X49814Y52000D01*
X50291Y52477D01*
X50291Y58023D01*
X49814Y58500D01*
X50291Y58977D01*
X50291Y64523D01*
X49814Y65000D01*
X50291Y65477D01*
X50291Y71023D01*
X49814Y71500D01*
X50291Y71977D01*
X50291Y77523D01*
X49814Y78000D01*
X50291Y78477D01*
X50291Y84023D01*
X48524Y85790D01*
X36120Y85790D01*
X35898Y85568D01*
X35609Y85641D01*
X33117Y86353D01*
X30553Y88632D01*
X30533Y88793D01*
X29242Y89797D01*
X28021Y90883D01*
X27858Y90873D01*
X25124Y93000D01*
X24456Y93936D01*
X23775Y94049D01*
X23230Y94473D01*
X22088Y94330D01*
X18059Y95002D01*
X17775Y95286D01*
X16355Y95286D01*
X15304Y95461D01*
X14499Y96266D01*
X8710Y96266D01*
X8690Y96286D01*
X8016Y96286D01*
X8016Y105234D01*
X13647Y105234D01*
X14414Y105440D01*
X15102Y105837D01*
X15663Y106398D01*
X16060Y107086D01*
X16266Y107853D01*
X16266Y110391D01*
X11786Y110391D01*
X11786Y110500D01*
X6609Y110500D01*
X6609Y110500D01*
X11786Y110500D01*
X11786Y110609D01*
X16266Y110609D01*
X16266Y113147D01*
X16060Y113914D01*
X15663Y114602D01*
X15102Y115163D01*
X14414Y115560D01*
X13647Y115766D01*
X7271Y115766D01*
X7196Y115786D01*
X6551Y115786D01*
X8249Y117484D01*
X24999Y117484D01*
X26766Y119251D01*
X40999Y133484D01*
X48219Y133484D01*
X48087Y133352D01*
X47690Y132664D01*
X47484Y131897D01*
X47484Y125016D01*
X55984Y125016D01*
X55984Y122984D01*
X47484Y122984D01*
X47484Y116103D01*
X47690Y115336D01*
X48087Y114648D01*
X48648Y114087D01*
X49336Y113690D01*
X50103Y113484D01*
X55984Y113484D01*
X55984Y122984D01*
X58016Y122984D01*
X58016Y113484D01*
X63897Y113484D01*
X64664Y113690D01*
X65352Y114087D01*
X65913Y114648D01*
X66310Y115336D01*
X66484Y115984D01*
X66484Y115251D01*
X68251Y113484D01*
X71185Y113484D01*
X72190Y112479D01*
X72190Y110881D01*
X70849Y109540D01*
X69619Y109540D01*
X69595Y109516D01*
X68751Y109516D01*
X66984Y107749D01*
X66984Y107016D01*
X66810Y107664D01*
X66413Y108352D01*
X65852Y108913D01*
X65164Y109310D01*
X64397Y109516D01*
X59516Y109516D01*
X59516Y102516D01*
X57484Y102516D01*
X57484Y109516D01*
X52603Y109516D01*
X51836Y109310D01*
X51148Y108913D01*
X50587Y108352D01*
X50190Y107664D01*
X49984Y106897D01*
X49984Y102516D01*
X57484Y102516D01*
X57484Y100484D01*
X49984Y100484D01*
X49984Y96103D01*
X50190Y95336D01*
X50587Y94648D01*
X51148Y94087D01*
X51836Y93690D01*
X52603Y93484D01*
X57484Y93484D01*
X57484Y100484D01*
X59516Y100484D01*
X59516Y93484D01*
X64397Y93484D01*
X65164Y93690D01*
X65852Y94087D01*
X66413Y94648D01*
X66810Y95336D01*
X66984Y95984D01*
X66984Y95251D01*
X67964Y94271D01*
X67964Y49389D01*
X69843Y44852D01*
X69364Y45492D01*
X41021Y105963D02*
X41021Y113295D01*
X41021Y105963D02*
X40303Y105963D01*
X40303Y113295D01*
X39904Y113295D01*
X38419Y112999D01*
X37019Y112420D01*
X35759Y111578D01*
X34688Y110507D01*
X33846Y109247D01*
X33267Y107847D01*
X32971Y106362D01*
X32971Y105963D01*
X40303Y105963D01*
X40303Y105245D01*
X32971Y105245D01*
X32971Y104846D01*
X33267Y103361D01*
X33846Y101961D01*
X34688Y100701D01*
X35759Y99630D01*
X37019Y98788D01*
X38419Y98209D01*
X39904Y97913D01*
X40303Y97913D01*
X40303Y105245D01*
X41021Y105245D01*
X41021Y97913D01*
X41420Y97913D01*
X42905Y98209D01*
X44305Y98788D01*
X45565Y99630D01*
X46636Y100701D01*
X47478Y101961D01*
X48057Y103361D01*
X48353Y104846D01*
X48353Y105245D01*
X41021Y105245D01*
X41021Y105963D01*
X48353Y105963D01*
X48353Y106362D01*
X48057Y107847D01*
X47478Y109247D01*
X46636Y110507D01*
X45565Y111578D01*
X44305Y112420D01*
X42905Y112999D01*
X41420Y113295D01*
X41021Y113295D01*
X60003Y68091D02*
X60003Y60759D01*
X59285Y60759D01*
X59285Y68091D01*
X58886Y68091D01*
X57401Y67795D01*
X56001Y67216D01*
X54741Y66374D01*
X53670Y65303D01*
X52828Y64043D01*
X52249Y62643D01*
X51953Y61158D01*
X51953Y60759D01*
X59285Y60759D01*
X59285Y60041D01*
X51953Y60041D01*
X51953Y59642D01*
X52249Y58157D01*
X52828Y56757D01*
X53670Y55497D01*
X54741Y54426D01*
X56001Y53584D01*
X57401Y53005D01*
X58886Y52709D01*
X59285Y52709D01*
X59285Y60041D01*
X60003Y60041D01*
X60003Y52709D01*
X60402Y52709D01*
X61887Y53005D01*
X63287Y53584D01*
X64547Y54426D01*
X65618Y55497D01*
X66460Y56757D01*
X67039Y58157D01*
X67335Y59642D01*
X67335Y60041D01*
X60003Y60041D01*
X60003Y60759D01*
X67335Y60759D01*
X67335Y61158D01*
X67039Y62643D01*
X66460Y64043D01*
X65618Y65303D01*
X64547Y66374D01*
X63287Y67216D01*
X61887Y67795D01*
X60402Y68091D01*
X60003Y68091D01*
X88531Y-5969D02*
X89692Y-6922D01*
X88531Y-5969D02*
X87275Y-4714D01*
X87275Y-4714D01*
X87087Y-4526D01*
X87087Y-4526D01*
X83316Y-2964D01*
X80479Y-2964D01*
X79999Y-2484D01*
X69786Y-2484D01*
X69786Y984D01*
X79999Y984D01*
X80414Y1399D01*
X80587Y1391D01*
X80667Y1464D01*
X82484Y1464D01*
X82484Y-749D01*
X84251Y-2516D01*
X93584Y-2516D01*
X93331Y-3129D01*
X93084Y-4368D01*
X93084Y-5000D01*
X99500Y-5000D01*
X99500Y-5000D01*
X93084Y-5000D01*
X93084Y-5632D01*
X93331Y-6871D01*
X93814Y-8039D01*
X93930Y-8212D01*
X92455Y-8067D01*
X89692Y-6922D01*
X105365Y-7607D02*
X107713Y-6978D01*
X105669Y-6871D02*
X105365Y-7607D01*
X105669Y-6871D02*
X105916Y-5632D01*
X105916Y-5000D01*
X99500Y-5000D01*
X99500Y-5000D01*
X105916Y-5000D01*
X105916Y-4368D01*
X105669Y-3129D01*
X105416Y-2516D01*
X106984Y-2516D01*
X106984Y4484D01*
X109016Y4484D01*
X109016Y-2516D01*
X113897Y-2516D01*
X113932Y-2507D01*
X112980Y-3459D01*
X111383Y-4859D01*
X107713Y-6978D01*
X115247Y14854D02*
X113773Y15738D01*
X115247Y14854D02*
X116697Y13931D01*
X116761Y13945D01*
X119376Y12376D01*
X119738Y11773D01*
X120842Y11497D01*
X121817Y10911D01*
X122500Y11082D01*
X126309Y10130D01*
X126474Y9965D01*
X123793Y8854D01*
X123792Y8854D01*
X123575Y8637D01*
X123365Y8619D01*
X122340Y7401D01*
X121214Y6275D01*
X121214Y6064D01*
X116516Y485D01*
X116516Y4484D01*
X109016Y4484D01*
X109016Y6516D01*
X116516Y6516D01*
X116516Y10897D01*
X116310Y11664D01*
X115913Y12352D01*
X115352Y12913D01*
X114664Y13310D01*
X113897Y13516D01*
X109016Y13516D01*
X109016Y6516D01*
X106984Y6516D01*
X106984Y13516D01*
X102103Y13516D01*
X101336Y13310D01*
X100648Y12913D01*
X100087Y12352D01*
X99690Y11664D01*
X99516Y11016D01*
X99516Y11749D01*
X97749Y13516D01*
X86286Y13516D01*
X86286Y34177D01*
X83035Y42027D01*
X83035Y42027D01*
X81286Y43775D01*
X81286Y43775D01*
X80031Y45031D01*
X78547Y46839D01*
X76765Y51140D01*
X76536Y53468D01*
X76536Y81903D01*
X77725Y80714D01*
X77725Y80714D01*
X78873Y79566D01*
X78873Y79566D01*
X85154Y76964D01*
X92709Y76964D01*
X92709Y71977D01*
X93186Y71500D01*
X92709Y71023D01*
X92709Y65477D01*
X93186Y65000D01*
X92709Y64523D01*
X92709Y58977D01*
X93186Y58500D01*
X92709Y58023D01*
X92709Y52477D01*
X93186Y52000D01*
X92709Y51523D01*
X92709Y45977D01*
X93186Y45500D01*
X92709Y45023D01*
X92709Y39477D01*
X93186Y39000D01*
X92709Y38523D01*
X92709Y32977D01*
X93186Y32500D01*
X92709Y32023D01*
X92709Y26477D01*
X93186Y26000D01*
X92709Y25523D01*
X92709Y19977D01*
X94476Y18210D01*
X106880Y18210D01*
X106932Y18262D01*
X108127Y18224D01*
X110479Y17888D01*
X113757Y15802D01*
X113773Y15738D01*
X85003Y67259D02*
X85003Y74591D01*
X85003Y67259D02*
X84285Y67259D01*
X84285Y74591D01*
X83886Y74591D01*
X82401Y74295D01*
X81001Y73716D01*
X79741Y72874D01*
X78670Y71803D01*
X77828Y70543D01*
X77249Y69143D01*
X76953Y67658D01*
X76953Y67259D01*
X84285Y67259D01*
X84285Y66541D01*
X76953Y66541D01*
X76953Y66142D01*
X77249Y64657D01*
X77828Y63257D01*
X78670Y61997D01*
X79741Y60926D01*
X81001Y60084D01*
X82401Y59505D01*
X83886Y59209D01*
X84285Y59209D01*
X84285Y66541D01*
X85003Y66541D01*
X85003Y59209D01*
X85402Y59209D01*
X86887Y59505D01*
X88287Y60084D01*
X89547Y60926D01*
X90618Y61997D01*
X91460Y63257D01*
X92039Y64657D01*
X92335Y66142D01*
X92335Y66541D01*
X85003Y66541D01*
X85003Y67259D01*
X92335Y67259D01*
X92335Y67658D01*
X92039Y69143D01*
X91460Y70543D01*
X90618Y71803D01*
X89547Y72874D01*
X88287Y73716D01*
X86887Y74295D01*
X85402Y74591D01*
X85003Y74591D01*
X6500Y110609D02*
X6500Y115735D01*
X6500Y115735D01*
X6500Y110609D01*
X6500Y110609D01*
X1487594Y87860D02*
X1487594Y86892D01*
X1482426Y86892D01*
X1482426Y87860D01*
X1487594Y87860D01*
X65640Y-21965D02*
X65242Y-21720D01*
X65640Y-21965D02*
X65833Y-22390D01*
X67107Y-22867D01*
X72213Y-26010D01*
X72460Y-26505D01*
X73675Y-26910D01*
X74766Y-27581D01*
X75304Y-27452D01*
X78435Y-28496D01*
X78975Y-29036D01*
X80054Y-29036D01*
X81079Y-29377D01*
X81631Y-29101D01*
X84090Y-30986D01*
X84090Y-30986D01*
X84135Y-31021D01*
X84143Y-31076D01*
X84634Y-31435D01*
X84634Y-31484D01*
X26749Y-31484D01*
X18249Y-22984D01*
X16020Y-22984D01*
X16060Y-22914D01*
X16266Y-22147D01*
X16266Y-19609D01*
X11786Y-19609D01*
X11786Y-19500D01*
X6609Y-19500D01*
X6609Y-19500D01*
X11786Y-19500D01*
X11786Y-19391D01*
X16266Y-19391D01*
X16266Y-16853D01*
X16060Y-16086D01*
X15663Y-15398D01*
X15102Y-14837D01*
X14414Y-14440D01*
X13647Y-14234D01*
X8016Y-14234D01*
X8016Y-5286D01*
X8690Y-5286D01*
X8710Y-5266D01*
X14499Y-5266D01*
X15479Y-4286D01*
X17442Y-4286D01*
X43677Y-4989D01*
X43725Y-5036D01*
X45443Y-5036D01*
X47160Y-5082D01*
X47208Y-5036D01*
X48752Y-5036D01*
X48734Y-5103D01*
X48734Y-7250D01*
X55750Y-7250D01*
X55750Y-7250D01*
X48734Y-7250D01*
X48734Y-9397D01*
X48940Y-10164D01*
X49337Y-10852D01*
X49898Y-11413D01*
X50586Y-11810D01*
X51353Y-12016D01*
X55750Y-12016D01*
X55750Y-7250D01*
X55750Y-7250D01*
X55750Y-12016D01*
X60147Y-12016D01*
X60914Y-11810D01*
X61602Y-11413D01*
X61903Y-11112D01*
X62122Y-12968D01*
X61864Y-13657D01*
X62322Y-14665D01*
X62451Y-15764D01*
X63028Y-16220D01*
X64927Y-20396D01*
X65242Y-21720D01*
X44875Y-22029D02*
X44875Y-14697D01*
X44875Y-22029D02*
X44157Y-22029D01*
X44157Y-14697D01*
X43758Y-14697D01*
X42273Y-14993D01*
X40873Y-15572D01*
X39613Y-16414D01*
X38542Y-17485D01*
X37700Y-18745D01*
X37121Y-20145D01*
X36825Y-21630D01*
X36825Y-22029D01*
X44157Y-22029D01*
X44157Y-22747D01*
X36825Y-22747D01*
X36825Y-23146D01*
X37121Y-24631D01*
X37700Y-26031D01*
X38542Y-27291D01*
X39613Y-28362D01*
X40873Y-29204D01*
X42273Y-29783D01*
X43758Y-30079D01*
X44157Y-30079D01*
X44157Y-22747D01*
X44875Y-22747D01*
X44875Y-30079D01*
X45274Y-30079D01*
X46759Y-29783D01*
X48159Y-29204D01*
X49419Y-28362D01*
X50490Y-27291D01*
X51332Y-26031D01*
X51911Y-24631D01*
X52207Y-23146D01*
X52207Y-22747D01*
X44875Y-22747D01*
X44875Y-22029D01*
X52207Y-22029D01*
X52207Y-21630D01*
X51911Y-20145D01*
X51332Y-18745D01*
X50490Y-17485D01*
X49419Y-16414D01*
X48159Y-15572D01*
X46759Y-14993D01*
X45274Y-14697D01*
X44875Y-14697D01*
X31659Y3908D02*
X32460Y5107D01*
X33039Y6507D01*
X33335Y7992D01*
X33335Y8391D01*
X26003Y8391D01*
X26003Y9109D01*
X33335Y9109D01*
X33335Y9508D01*
X33039Y10993D01*
X32678Y11867D01*
X44269Y8669D01*
X44725Y8214D01*
X45653Y8214D01*
X44714Y7275D01*
X44714Y3725D01*
X44885Y3554D01*
X31659Y3908D01*
X49857Y16786D02*
X55390Y17155D01*
X49857Y16786D02*
X47080Y16786D01*
X41918Y18210D01*
X42322Y18210D01*
X42322Y22750D01*
X42322Y22750D01*
X42322Y18210D01*
X47672Y18210D01*
X48439Y18416D01*
X49127Y18813D01*
X49688Y19374D01*
X50085Y20062D01*
X50269Y20748D01*
X51241Y19776D01*
X52501Y18934D01*
X53901Y18355D01*
X55386Y18059D01*
X55785Y18059D01*
X55785Y25391D01*
X56503Y25391D01*
X56503Y18059D01*
X56902Y18059D01*
X58387Y18355D01*
X59787Y18934D01*
X60655Y19514D01*
X60144Y18852D01*
X55390Y17155D01*
X42322Y22750D02*
X34353Y22750D01*
X42322Y22750D02*
X42322Y22750D01*
X34353Y22750D01*
X34353Y20829D01*
X34507Y20255D01*
X33158Y20627D01*
X26074Y22651D01*
X30437Y23814D01*
X34353Y24526D01*
X34353Y22750D01*
X19953Y38646D02*
X20249Y40131D01*
X19953Y38646D02*
X19953Y38247D01*
X27285Y38247D01*
X27285Y37529D01*
X19953Y37529D01*
X19953Y37130D01*
X20249Y35645D01*
X20828Y34245D01*
X21670Y32985D01*
X22741Y31914D01*
X24001Y31072D01*
X24152Y31010D01*
X21438Y30286D01*
X16266Y30286D01*
X16266Y32391D01*
X11786Y32391D01*
X11786Y32500D01*
X6609Y32500D01*
X6609Y32500D01*
X11786Y32500D01*
X11786Y32609D01*
X16266Y32609D01*
X16266Y35147D01*
X16060Y35914D01*
X15663Y36602D01*
X15102Y37163D01*
X14414Y37560D01*
X13647Y37766D01*
X8016Y37766D01*
X8016Y40214D01*
X8690Y40214D01*
X8710Y40234D01*
X14499Y40234D01*
X15479Y41214D01*
X18549Y41214D01*
X19296Y40865D01*
X20255Y41214D01*
X20697Y41214D01*
X20249Y40131D01*
X11786Y64891D02*
X11786Y65000D01*
X6609Y65000D01*
X6609Y65000D01*
X11786Y65000D01*
X11786Y65109D01*
X15235Y65109D01*
X15278Y64891D01*
X11786Y64891D01*
X20741Y14724D02*
X19670Y13653D01*
X18828Y12393D01*
X18249Y10993D01*
X17953Y9508D01*
X17953Y9109D01*
X25285Y9109D01*
X25285Y8391D01*
X17953Y8391D01*
X17953Y7992D01*
X18249Y6507D01*
X18828Y5107D01*
X19410Y4236D01*
X19323Y4239D01*
X19275Y4286D01*
X17557Y4286D01*
X16266Y4321D01*
X16266Y6391D01*
X11786Y6391D01*
X11786Y6500D01*
X6609Y6500D01*
X6609Y6500D01*
X11786Y6500D01*
X11786Y6609D01*
X16266Y6609D01*
X16266Y9147D01*
X16060Y9914D01*
X15663Y10602D01*
X15102Y11163D01*
X14414Y11560D01*
X13647Y11766D01*
X8016Y11766D01*
X8016Y14214D01*
X8690Y14214D01*
X8710Y14234D01*
X14499Y14234D01*
X15479Y15214D01*
X20900Y15214D01*
X21302Y15099D01*
X20741Y14724D01*
X1350289Y-65024D02*
X1471211Y-65024D01*
X1471211Y-56896D02*
X1342161Y-56896D01*
X1334033Y-48768D02*
X1471211Y-48768D01*
X1333851Y-40640D02*
X1325905Y-40640D01*
X1334569Y-40640D02*
X1471211Y-40640D01*
X1471211Y-32512D02*
X1317777Y-32512D01*
X37071Y-24384D02*
X19649Y-24384D01*
X44157Y-24384D02*
X44875Y-24384D01*
X51961Y-24384D02*
X69571Y-24384D01*
X138488Y-24384D02*
X157226Y-24384D01*
X163193Y-24384D02*
X163911Y-24384D01*
X169878Y-24384D02*
X183196Y-24384D01*
X189333Y-24384D02*
X190051Y-24384D01*
X196188Y-24384D02*
X296327Y-24384D01*
X300323Y-24384D02*
X301041Y-24384D01*
X305037Y-24384D02*
X324147Y-24384D01*
X326853Y-24384D02*
X344147Y-24384D01*
X346853Y-24384D02*
X364147Y-24384D01*
X366853Y-24384D02*
X373851Y-24384D01*
X1309649Y-24384D02*
X1471211Y-24384D01*
X39850Y-16256D02*
X16106Y-16256D01*
X44157Y-16256D02*
X44875Y-16256D01*
X49182Y-16256D02*
X63045Y-16256D01*
X139786Y-16256D02*
X156809Y-16256D01*
X163193Y-16256D02*
X163911Y-16256D01*
X170295Y-16256D02*
X183119Y-16256D01*
X189333Y-16256D02*
X190051Y-16256D01*
X196265Y-16256D02*
X293196Y-16256D01*
X300323Y-16256D02*
X301041Y-16256D01*
X308168Y-16256D02*
X317695Y-16256D01*
X331722Y-16256D02*
X337695Y-16256D01*
X351722Y-16256D02*
X357695Y-16256D01*
X371722Y-16256D02*
X381979Y-16256D01*
X1301521Y-16256D02*
X1471211Y-16256D01*
X48734Y-8128D02*
X8016Y-8128D01*
X55750Y-8128D02*
X55750Y-8128D01*
X93077Y-8128D02*
X93874Y-8128D01*
X139821Y-8128D02*
X157851Y-8128D01*
X169149Y-8128D02*
X175321Y-8128D01*
X181679Y-8128D02*
X309567Y-8128D01*
X321689Y-8128D02*
X329567Y-8128D01*
X341689Y-8128D02*
X349567Y-8128D01*
X361689Y-8128D02*
X1359351Y-8128D01*
X1360069Y-8128D02*
X1471211Y-8128D01*
X82484Y0D02*
X69786Y0D01*
X106984Y0D02*
X109016Y0D01*
X143016Y0D02*
X143984Y0D01*
X167574Y0D02*
X167744Y0D01*
X184409Y0D02*
X301439Y0D01*
X313561Y0D02*
X321439Y0D01*
X333561Y0D02*
X341439Y0D01*
X353561Y0D02*
X1471211Y0D01*
X17953Y8128D02*
X16266Y8128D01*
X33335Y8128D02*
X45567Y8128D01*
X106984Y8128D02*
X109016Y8128D01*
X116516Y8128D02*
X122952Y8128D01*
X143016Y8128D02*
X143984Y8128D01*
X223669Y8128D02*
X231331Y8128D01*
X243669Y8128D02*
X251331Y8128D01*
X263669Y8128D02*
X271331Y8128D01*
X283669Y8128D02*
X293311Y8128D01*
X305433Y8128D02*
X313311Y8128D01*
X325433Y8128D02*
X333311Y8128D01*
X345433Y8128D02*
X1471211Y8128D01*
X113043Y16256D02*
X86286Y16256D01*
X143016Y16256D02*
X143984Y16256D01*
X179445Y16256D02*
X193449Y16256D01*
X207416Y16256D02*
X215838Y16256D01*
X219162Y16256D02*
X225183Y16256D01*
X239162Y16256D02*
X245183Y16256D01*
X259162Y16256D02*
X265183Y16256D01*
X279162Y16256D02*
X285183Y16256D01*
X297305Y16256D02*
X305183Y16256D01*
X317305Y16256D02*
X325183Y16256D01*
X337305Y16256D02*
X1471211Y16256D01*
X34353Y24384D02*
X33571Y24384D01*
X55785Y24384D02*
X56503Y24384D01*
X86286Y24384D02*
X92709Y24384D01*
X143016Y24384D02*
X143984Y24384D01*
X196847Y24384D02*
X217055Y24384D01*
X229177Y24384D02*
X237055Y24384D01*
X249177Y24384D02*
X257055Y24384D01*
X269177Y24384D02*
X277055Y24384D01*
X289177Y24384D02*
X297055Y24384D01*
X309177Y24384D02*
X317055Y24384D01*
X329177Y24384D02*
X1383802Y24384D01*
X1390863Y24384D02*
X1391581Y24384D01*
X1398642Y24384D02*
X1471211Y24384D01*
X22143Y32512D02*
X11786Y32512D01*
X86286Y32512D02*
X93174Y32512D01*
X116725Y32512D02*
X170098Y32512D01*
X182902Y32512D02*
X208927Y32512D01*
X221049Y32512D02*
X228927Y32512D01*
X241049Y32512D02*
X248927Y32512D01*
X261049Y32512D02*
X268927Y32512D01*
X281049Y32512D02*
X288927Y32512D01*
X301049Y32512D02*
X308927Y32512D01*
X321049Y32512D02*
X1386367Y32512D01*
X1390863Y32512D02*
X1391581Y32512D01*
X1396077Y32512D02*
X1403067Y32512D01*
X1409373Y32512D02*
X1410091Y32512D01*
X1416397Y32512D02*
X1471211Y32512D01*
X20459Y40640D02*
X14905Y40640D01*
X83609Y40640D02*
X92709Y40640D01*
X143016Y40640D02*
X143984Y40640D01*
X175436Y40640D02*
X199599Y40640D01*
X212921Y40640D02*
X220799Y40640D01*
X232921Y40640D02*
X240799Y40640D01*
X252921Y40640D02*
X260799Y40640D01*
X272921Y40640D02*
X280799Y40640D01*
X292921Y40640D02*
X300799Y40640D01*
X312921Y40640D02*
X1403329Y40640D01*
X1409373Y40640D02*
X1410091Y40640D01*
X1416135Y40640D02*
X1471211Y40640D01*
X68221Y48768D02*
X50291Y48768D01*
X77748Y48768D02*
X92709Y48768D01*
X143016Y48768D02*
X143984Y48768D01*
X203027Y48768D02*
X211378Y48768D01*
X224793Y48768D02*
X232671Y48768D01*
X244793Y48768D02*
X252671Y48768D01*
X264793Y48768D02*
X272671Y48768D01*
X284793Y48768D02*
X292671Y48768D01*
X304793Y48768D02*
X1428439Y48768D01*
X1429157Y48768D02*
X1471211Y48768D01*
X52771Y56896D02*
X50291Y56896D01*
X59285Y56896D02*
X60003Y56896D01*
X66517Y56896D02*
X67964Y56896D01*
X76536Y56896D02*
X92709Y56896D01*
X143016Y56896D02*
X143984Y56896D01*
X214805Y56896D02*
X223156Y56896D01*
X236665Y56896D02*
X244543Y56896D01*
X256665Y56896D02*
X264543Y56896D01*
X276665Y56896D02*
X284543Y56896D01*
X296665Y56896D02*
X1441980Y56896D01*
X1448939Y56896D02*
X1449657Y56896D01*
X1456616Y56896D02*
X1471211Y56896D01*
X15252Y65024D02*
X11786Y65024D01*
X49838Y65024D02*
X53484Y65024D01*
X59285Y65024D02*
X60003Y65024D01*
X65804Y65024D02*
X67964Y65024D01*
X76536Y65024D02*
X77175Y65024D01*
X84285Y65024D02*
X85003Y65024D01*
X92112Y65024D02*
X93162Y65024D01*
X143016Y65024D02*
X143984Y65024D01*
X226583Y65024D02*
X236415Y65024D01*
X248537Y65024D02*
X256415Y65024D01*
X268537Y65024D02*
X276415Y65024D01*
X288537Y65024D02*
X1444119Y65024D01*
X1448939Y65024D02*
X1449657Y65024D01*
X1454477Y65024D02*
X1471211Y65024D01*
X67964Y73152D02*
X50291Y73152D01*
X76536Y73152D02*
X80157Y73152D01*
X84285Y73152D02*
X85003Y73152D01*
X89131Y73152D02*
X92709Y73152D01*
X136926Y73152D02*
X169555Y73152D01*
X170273Y73152D02*
X228059Y73152D01*
X240409Y73152D02*
X248287Y73152D01*
X260409Y73152D02*
X268287Y73152D01*
X280409Y73152D02*
X1490984Y73152D01*
X67964Y81280D02*
X50291Y81280D01*
X76536Y81280D02*
X77159Y81280D01*
X108647Y81280D02*
X109840Y81280D01*
X143016Y81280D02*
X143984Y81280D01*
X231604Y81280D02*
X239913Y81280D01*
X252281Y81280D02*
X260159Y81280D01*
X272281Y81280D02*
X287327Y81280D01*
X1433863Y81280D02*
X1442190Y81280D01*
X1449251Y81280D02*
X1449969Y81280D01*
X1457030Y81280D02*
X1472894Y81280D01*
X1487594Y81280D02*
X1489260Y81280D01*
X67964Y89408D02*
X29742Y89408D01*
X81325Y89408D02*
X114058Y89408D01*
X143016Y89408D02*
X143984Y89408D01*
X243382Y89408D02*
X251733Y89408D01*
X264153Y89408D02*
X279036Y89408D01*
X1442154Y89408D02*
X1444755Y89408D01*
X1449251Y89408D02*
X1449969Y89408D01*
X1454465Y89408D02*
X1472894Y89408D01*
X49984Y97536D02*
X8016Y97536D01*
X57484Y97536D02*
X59516Y97536D01*
X84016Y97536D02*
X98490Y97536D01*
X105659Y97536D02*
X106377Y97536D01*
X113546Y97536D02*
X119640Y97536D01*
X143016Y97536D02*
X143984Y97536D01*
X255161Y97536D02*
X270908Y97536D01*
X1450282Y97536D02*
X1457233Y97536D01*
X1464007Y97536D02*
X1464725Y97536D01*
X1471499Y97536D02*
X1490984Y97536D01*
X40303Y105664D02*
X14803Y105664D01*
X41021Y105664D02*
X49984Y105664D01*
X57484Y105664D02*
X59516Y105664D01*
X84016Y105664D02*
X101980Y105664D01*
X105659Y105664D02*
X106377Y105664D01*
X110056Y105664D02*
X127984Y105664D01*
X143016Y105664D02*
X143984Y105664D01*
X159016Y105664D02*
X189240Y105664D01*
X195159Y105664D02*
X195877Y105664D01*
X201796Y105664D02*
X228240Y105664D01*
X234159Y105664D02*
X234877Y105664D01*
X240796Y105664D02*
X262780Y105664D01*
X1458410Y105664D02*
X1458741Y105664D01*
X1464007Y105664D02*
X1464725Y105664D01*
X1469991Y105664D02*
X1490984Y105664D01*
X6500Y113792D02*
X6500Y113792D01*
X16093Y113792D02*
X49158Y113792D01*
X55984Y113792D02*
X58016Y113792D01*
X64842Y113792D02*
X67943Y113792D01*
X84057Y113792D02*
X188727Y113792D01*
X195159Y113792D02*
X195877Y113792D01*
X202309Y113792D02*
X227727Y113792D01*
X234159Y113792D02*
X234877Y113792D01*
X241309Y113792D02*
X254652Y113792D01*
X47484Y121920D02*
X29435Y121920D01*
X55984Y121920D02*
X58016Y121920D01*
X47484Y130048D02*
X37563Y130048D01*
X8128Y-19500D02*
X8128Y-19500D01*
X8128Y-14234D02*
X8128Y-5286D01*
X8128Y6500D02*
X8128Y6500D01*
X8128Y11766D02*
X8128Y14214D01*
X8128Y32500D02*
X8128Y32500D01*
X8128Y37766D02*
X8128Y40214D01*
X8128Y65000D02*
X8128Y65000D01*
X8128Y96286D02*
X8128Y105234D01*
X8128Y110500D02*
X8128Y110500D01*
X8128Y115766D02*
X8128Y117363D01*
X16256Y-22184D02*
X16256Y-22984D01*
X16256Y-19609D02*
X16256Y-19391D01*
X16256Y-16816D02*
X16256Y-4286D01*
X16256Y6391D02*
X16256Y6609D01*
X16256Y9184D02*
X16256Y15214D01*
X16256Y32391D02*
X16256Y32609D01*
X16256Y35184D02*
X16256Y41214D01*
X16256Y95302D02*
X16256Y107816D01*
X16256Y110391D02*
X16256Y110609D01*
X16256Y113184D02*
X16256Y117484D01*
X24384Y-4472D02*
X24384Y-29119D01*
X24384Y8391D02*
X24384Y9109D01*
X24384Y37529D02*
X24384Y38247D01*
X24384Y93948D02*
X24384Y117484D01*
X32512Y-4690D02*
X32512Y-31484D01*
X32512Y3885D02*
X32512Y5233D01*
X32512Y8391D02*
X32512Y9109D01*
X32512Y20811D02*
X32512Y24191D01*
X32512Y86890D02*
X32512Y124997D01*
X40640Y-29048D02*
X40640Y-31484D01*
X40640Y-22747D02*
X40640Y-22029D01*
X40640Y-15728D02*
X40640Y-4907D01*
X40640Y3668D02*
X40640Y9670D01*
X40640Y22750D02*
X40640Y22750D01*
X40640Y85790D02*
X40640Y105245D01*
X40640Y105963D02*
X40640Y133125D01*
X48768Y-28797D02*
X48768Y-31484D01*
X48768Y-22747D02*
X48768Y-22029D01*
X48768Y-15979D02*
X48768Y-9524D01*
X48768Y-7250D02*
X48768Y-7250D01*
X48768Y16786D02*
X48768Y18605D01*
X48768Y22750D02*
X48768Y22750D01*
X48768Y85546D02*
X48768Y114017D01*
X48768Y122984D02*
X48768Y125016D01*
X56896Y-12016D02*
X56896Y-31484D01*
X56896Y17693D02*
X56896Y18059D01*
X56896Y46536D02*
X56896Y53214D01*
X56896Y60041D02*
X56896Y60759D01*
X56896Y67586D02*
X56896Y93484D01*
X56896Y100484D02*
X56896Y102516D01*
X56896Y109516D02*
X56896Y122984D01*
X65024Y-20805D02*
X65024Y-31484D01*
X65024Y46112D02*
X65024Y54903D01*
X65024Y60041D02*
X65024Y60759D01*
X65024Y65897D02*
X65024Y93652D01*
X65024Y109348D02*
X65024Y113897D01*
X73152Y-26735D02*
X73152Y-31484D01*
X73152Y-2484D02*
X73152Y984D01*
X81280Y-29277D02*
X81280Y-31484D01*
X81280Y-2964D02*
X81280Y1464D01*
X81280Y43781D02*
X81280Y59969D01*
X81280Y66541D02*
X81280Y67259D01*
X81280Y73831D02*
X81280Y78569D01*
X81280Y89485D02*
X81280Y93484D01*
X81280Y109516D02*
X81280Y112489D01*
X89408Y-2516D02*
X89408Y-6689D01*
X89408Y13516D02*
X89408Y60833D01*
X89408Y66541D02*
X89408Y67259D01*
X89408Y72967D02*
X89408Y76964D01*
X89408Y85536D02*
X89408Y119876D01*
X97536Y-5000D02*
X97536Y-5000D01*
X97536Y13516D02*
X97536Y18210D01*
X97536Y85790D02*
X97536Y116574D01*
X105664Y-6885D02*
X105664Y-7527D01*
X105664Y-5000D02*
X105664Y-5000D01*
X105664Y-3115D02*
X105664Y-2516D01*
X105664Y13516D02*
X105664Y18210D01*
X105664Y85790D02*
X105664Y98753D01*
X105664Y99471D02*
X105664Y116574D01*
X113792Y-2516D02*
X113792Y-2647D01*
X113792Y4484D02*
X113792Y6516D01*
X113792Y13516D02*
X113792Y15727D01*
X113792Y87623D02*
X113792Y116574D01*
X121920Y10937D02*
X121920Y6981D01*
X121920Y29134D02*
X121920Y34344D01*
X121920Y99825D02*
X121920Y116574D01*
X130048Y-29036D02*
X130048Y-31484D01*
X130048Y27516D02*
X130048Y34484D01*
X130048Y105766D02*
X130048Y106234D01*
X130048Y111367D02*
X130048Y119876D01*
X138176Y-24885D02*
X138176Y-31484D01*
X138176Y27516D02*
X138176Y34484D01*
X138176Y69516D02*
X138176Y75067D01*
X138176Y105766D02*
X138176Y106234D01*
X138176Y111516D02*
X138176Y119876D01*
X146304Y-7516D02*
X146304Y-31484D01*
X146304Y27516D02*
X146304Y34484D01*
X146304Y69516D02*
X146304Y76484D01*
X146304Y105766D02*
X146304Y106234D01*
X146304Y111436D02*
X146304Y119367D01*
X154432Y-7516D02*
X154432Y-31484D01*
X154432Y27516D02*
X154432Y34484D01*
X154432Y69516D02*
X154432Y76484D01*
X154432Y105766D02*
X154432Y106234D01*
X154432Y111516D02*
X154432Y117844D01*
X162560Y-27652D02*
X162560Y-31484D01*
X162560Y-20367D02*
X162560Y-19649D01*
X162560Y-12364D02*
X162560Y-11416D01*
X162560Y26286D02*
X162560Y35618D01*
X162560Y68286D02*
X162560Y70867D01*
X162560Y72851D02*
X162560Y73569D01*
X162560Y75553D02*
X162560Y77714D01*
X162560Y102286D02*
X162560Y117844D01*
X170688Y-22878D02*
X170688Y-31484D01*
X170688Y-20367D02*
X170688Y-19649D01*
X170688Y-17138D02*
X170688Y-1700D01*
X170688Y26286D02*
X170688Y31088D01*
X170688Y42606D02*
X170688Y43714D01*
X170688Y72851D02*
X170688Y73569D01*
X170688Y102286D02*
X170688Y117844D01*
X178816Y-8916D02*
X178816Y-31484D01*
X178816Y16517D02*
X178816Y17714D01*
X178816Y26286D02*
X178816Y27837D01*
X178816Y39807D02*
X178816Y43714D01*
X178816Y68286D02*
X178816Y77714D01*
X178816Y102286D02*
X178816Y118103D01*
X186944Y-27448D02*
X186944Y-31484D01*
X186944Y-20621D02*
X186944Y-19903D01*
X186944Y-13076D02*
X186944Y753D01*
X186944Y10287D02*
X186944Y17714D01*
X186944Y26313D02*
X186944Y43714D01*
X186944Y68286D02*
X186944Y77714D01*
X186944Y102286D02*
X186944Y119876D01*
X195072Y-25759D02*
X195072Y-31484D01*
X195072Y-20621D02*
X195072Y-19903D01*
X195072Y-14765D02*
X195072Y214D01*
X195072Y8786D02*
X195072Y13546D01*
X195072Y24934D02*
X195072Y42639D01*
X195072Y51701D02*
X195072Y51714D01*
X195072Y68286D02*
X195072Y77714D01*
X195072Y102286D02*
X195072Y102421D01*
X195072Y109753D02*
X195072Y110471D01*
X195072Y117803D02*
X195072Y119876D01*
X203200Y214D02*
X203200Y-31484D01*
X203200Y8786D02*
X203200Y9967D01*
X203200Y22033D02*
X203200Y38152D01*
X203200Y48668D02*
X203200Y51568D01*
X203200Y68286D02*
X203200Y77714D01*
X203200Y102286D02*
X203200Y109309D01*
X203200Y109753D02*
X203200Y110471D01*
X203200Y110915D02*
X203200Y119876D01*
X211328Y1304D02*
X211328Y-31484D01*
X211328Y11865D02*
X211328Y30111D01*
X211328Y42233D02*
X211328Y48797D01*
X211328Y58560D02*
X211328Y59714D01*
X211328Y68286D02*
X211328Y77714D01*
X211328Y102286D02*
X211328Y119876D01*
X219456Y3866D02*
X219456Y-31484D01*
X219456Y16134D02*
X219456Y21983D01*
X219456Y34105D02*
X219456Y41983D01*
X219456Y54105D02*
X219456Y58536D01*
X219456Y67598D02*
X219456Y77072D01*
X219456Y102286D02*
X219456Y119876D01*
X227584Y13855D02*
X227584Y-31484D01*
X227584Y25977D02*
X227584Y33855D01*
X227584Y45977D02*
X227584Y53815D01*
X227584Y64446D02*
X227584Y73494D01*
X227584Y83601D02*
X227584Y85674D01*
X227584Y102286D02*
X227584Y106755D01*
X227584Y109753D02*
X227584Y110471D01*
X227584Y113469D02*
X227584Y119876D01*
X235712Y3796D02*
X235712Y-31484D01*
X235712Y17849D02*
X235712Y25727D01*
X235712Y37849D02*
X235712Y45727D01*
X235712Y57849D02*
X235712Y65727D01*
X235712Y77849D02*
X235712Y83730D01*
X235712Y92993D02*
X235712Y93714D01*
X235712Y102286D02*
X235712Y102508D01*
X235712Y109753D02*
X235712Y110471D01*
X235712Y117716D02*
X235712Y119876D01*
X243840Y8540D02*
X243840Y-31484D01*
X243840Y11460D02*
X243840Y17599D01*
X243840Y29721D02*
X243840Y37599D01*
X243840Y49721D02*
X243840Y57599D01*
X243840Y69721D02*
X243840Y77599D01*
X243840Y89144D02*
X243840Y92969D01*
X243840Y102031D02*
X243840Y119508D01*
X251968Y6590D02*
X251968Y-31484D01*
X251968Y21593D02*
X251968Y29471D01*
X251968Y41593D02*
X251968Y49471D01*
X251968Y61593D02*
X251968Y69471D01*
X251968Y81593D02*
X251968Y89232D01*
X251968Y99379D02*
X251968Y116089D01*
X260096Y4131D02*
X260096Y-31484D01*
X260096Y15869D02*
X260096Y21343D01*
X260096Y33465D02*
X260096Y41343D01*
X260096Y53465D02*
X260096Y61343D01*
X260096Y73465D02*
X260096Y81343D01*
X260096Y93465D02*
X260096Y108348D01*
X268224Y13215D02*
X268224Y-31484D01*
X268224Y25337D02*
X268224Y33215D01*
X268224Y45337D02*
X268224Y53215D01*
X268224Y65337D02*
X268224Y73215D01*
X268224Y85337D02*
X268224Y100220D01*
X276352Y3584D02*
X276352Y-31484D01*
X276352Y17209D02*
X276352Y25087D01*
X276352Y37209D02*
X276352Y45087D01*
X276352Y57209D02*
X276352Y65087D01*
X276352Y77209D02*
X276352Y92092D01*
X284480Y16959D02*
X284480Y-31484D01*
X284480Y29081D02*
X284480Y36959D01*
X284480Y49081D02*
X284480Y56959D01*
X284480Y69081D02*
X284480Y83964D01*
X292608Y8831D02*
X292608Y-31484D01*
X292608Y20953D02*
X292608Y28831D01*
X292608Y40953D02*
X292608Y48831D01*
X292608Y60953D02*
X292608Y78231D01*
X300736Y-18403D02*
X300736Y-31484D01*
X300736Y-17685D02*
X300736Y703D01*
X300736Y12825D02*
X300736Y20703D01*
X300736Y32825D02*
X300736Y40703D01*
X300736Y52825D02*
X300736Y75587D01*
X308864Y-7425D02*
X308864Y-31484D01*
X308864Y4697D02*
X308864Y12575D01*
X308864Y24697D02*
X308864Y32575D01*
X308864Y44697D02*
X308864Y75216D01*
X316992Y-15553D02*
X316992Y-31484D01*
X316992Y-3431D02*
X316992Y4447D01*
X316992Y16569D02*
X316992Y24447D01*
X316992Y36569D02*
X316992Y75216D01*
X325120Y-24416D02*
X325120Y-31484D01*
X325120Y-11559D02*
X325120Y-3681D01*
X325120Y8441D02*
X325120Y16319D01*
X325120Y28441D02*
X325120Y75216D01*
X333248Y-11809D02*
X333248Y-31484D01*
X333248Y313D02*
X333248Y8191D01*
X333248Y20313D02*
X333248Y75216D01*
X341376Y-22950D02*
X341376Y-31484D01*
X341376Y-7815D02*
X341376Y63D01*
X341376Y12185D02*
X341376Y75216D01*
X349504Y-23070D02*
X349504Y-31484D01*
X349504Y-12930D02*
X349504Y-8065D01*
X349504Y4057D02*
X349504Y75216D01*
X357632Y-16193D02*
X357632Y-31484D01*
X357632Y-4071D02*
X357632Y75216D01*
X365760Y-24416D02*
X365760Y-31484D01*
X365760Y-11584D02*
X365760Y75216D01*
X373888Y75216D02*
X373888Y-24347D01*
X382016Y-16219D02*
X382016Y75216D01*
X390144Y75216D02*
X390144Y-8984D01*
X398272Y-8988D02*
X398272Y75216D01*
X406400Y75216D02*
X406400Y-8993D01*
X414528Y-8997D02*
X414528Y75216D01*
X422656Y75216D02*
X422656Y-9002D01*
X430784Y-9006D02*
X430784Y75216D01*
X438912Y75216D02*
X438912Y-9011D01*
X447040Y-9015D02*
X447040Y75216D01*
X455168Y75216D02*
X455168Y-9020D01*
X463296Y-9024D02*
X463296Y75216D01*
X471424Y75216D02*
X471424Y-9029D01*
X479552Y-9033D02*
X479552Y75216D01*
X487680Y75216D02*
X487680Y-9038D01*
X495808Y-9042D02*
X495808Y75216D01*
X503936Y75216D02*
X503936Y-9047D01*
X512064Y-9051D02*
X512064Y75216D01*
X520192Y75216D02*
X520192Y-9056D01*
X528320Y-9060D02*
X528320Y75216D01*
X536448Y75216D02*
X536448Y-9065D01*
X544576Y-9069D02*
X544576Y75216D01*
X552704Y75216D02*
X552704Y-9074D01*
X560832Y-9078D02*
X560832Y75216D01*
X568960Y75216D02*
X568960Y-9083D01*
X577088Y-9087D02*
X577088Y75216D01*
X585216Y75216D02*
X585216Y-9092D01*
X593344Y-9096D02*
X593344Y75216D01*
X601472Y75216D02*
X601472Y-9101D01*
X609600Y-9105D02*
X609600Y75216D01*
X617728Y75216D02*
X617728Y-9110D01*
X625856Y-9114D02*
X625856Y75216D01*
X633984Y75216D02*
X633984Y-9119D01*
X642112Y-9123D02*
X642112Y75216D01*
X650240Y75216D02*
X650240Y-9128D01*
X658368Y-9132D02*
X658368Y75216D01*
X666496Y75216D02*
X666496Y-9137D01*
X674624Y-9141D02*
X674624Y75216D01*
X682752Y75216D02*
X682752Y-9146D01*
X690880Y-9150D02*
X690880Y75216D01*
X699008Y75216D02*
X699008Y-9155D01*
X707136Y-9159D02*
X707136Y75216D01*
X715264Y75216D02*
X715264Y-9164D01*
X723392Y-9168D02*
X723392Y75216D01*
X731520Y75216D02*
X731520Y-9173D01*
X739648Y-9177D02*
X739648Y75216D01*
X747776Y75216D02*
X747776Y-9182D01*
X755904Y-9186D02*
X755904Y75216D01*
X764032Y75216D02*
X764032Y-9191D01*
X772160Y-9195D02*
X772160Y75216D01*
X780288Y75216D02*
X780288Y-9200D01*
X788416Y-9204D02*
X788416Y75216D01*
X796544Y75216D02*
X796544Y-9209D01*
X804672Y-9213D02*
X804672Y75216D01*
X812800Y75216D02*
X812800Y-9218D01*
X820928Y-9222D02*
X820928Y75216D01*
X829056Y75216D02*
X829056Y-9227D01*
X837184Y-9231D02*
X837184Y75216D01*
X845312Y75216D02*
X845312Y-9236D01*
X853440Y-9240D02*
X853440Y75216D01*
X861568Y75216D02*
X861568Y-9245D01*
X869696Y-9249D02*
X869696Y75216D01*
X877824Y75216D02*
X877824Y-9254D01*
X885952Y-9258D02*
X885952Y75216D01*
X894080Y75216D02*
X894080Y-9263D01*
X902208Y-9267D02*
X902208Y75216D01*
X910336Y75216D02*
X910336Y-9272D01*
X918464Y-9276D02*
X918464Y75216D01*
X926592Y75216D02*
X926592Y-9281D01*
X934720Y-9285D02*
X934720Y75216D01*
X942848Y75216D02*
X942848Y-9290D01*
X950976Y-9294D02*
X950976Y75216D01*
X959104Y75216D02*
X959104Y-9299D01*
X967232Y-9303D02*
X967232Y75216D01*
X975360Y75216D02*
X975360Y-9308D01*
X983488Y-9312D02*
X983488Y75216D01*
X991616Y75216D02*
X991616Y-9317D01*
X999744Y-9321D02*
X999744Y75216D01*
X1007872Y75216D02*
X1007872Y-9326D01*
X1016000Y-9330D02*
X1016000Y75216D01*
X1024128Y75216D02*
X1024128Y-9335D01*
X1032256Y-9339D02*
X1032256Y75216D01*
X1040384Y75216D02*
X1040384Y-9344D01*
X1048512Y-9348D02*
X1048512Y75216D01*
X1056640Y75216D02*
X1056640Y-9353D01*
X1064768Y-9357D02*
X1064768Y75216D01*
X1072896Y75216D02*
X1072896Y-9362D01*
X1081024Y-9366D02*
X1081024Y75216D01*
X1089152Y75216D02*
X1089152Y-9371D01*
X1097280Y-9375D02*
X1097280Y75216D01*
X1105408Y75216D02*
X1105408Y-9380D01*
X1113536Y-9384D02*
X1113536Y75216D01*
X1121664Y75216D02*
X1121664Y-9389D01*
X1129792Y-9393D02*
X1129792Y75216D01*
X1137920Y75216D02*
X1137920Y-9398D01*
X1146048Y-9402D02*
X1146048Y75216D01*
X1154176Y75216D02*
X1154176Y-9407D01*
X1162304Y-9411D02*
X1162304Y75216D01*
X1170432Y75216D02*
X1170432Y-9416D01*
X1178560Y-9420D02*
X1178560Y75216D01*
X1186688Y75216D02*
X1186688Y-9425D01*
X1194816Y-9429D02*
X1194816Y75216D01*
X1202944Y75216D02*
X1202944Y-9434D01*
X1211072Y-9438D02*
X1211072Y75216D01*
X1219200Y75216D02*
X1219200Y-9443D01*
X1227328Y-9447D02*
X1227328Y75216D01*
X1235456Y75216D02*
X1235456Y-9452D01*
X1243584Y-9456D02*
X1243584Y75216D01*
X1251712Y75216D02*
X1251712Y-9461D01*
X1259840Y-9465D02*
X1259840Y75216D01*
X1267968Y75216D02*
X1267968Y-9470D01*
X1276096Y-9474D02*
X1276096Y75216D01*
X1284224Y75216D02*
X1284224Y-9479D01*
X1292352Y-9483D02*
X1292352Y75216D01*
X1300480Y75216D02*
X1300480Y-15215D01*
X1308608Y-23343D02*
X1308608Y75216D01*
X1316736Y75216D02*
X1316736Y-31471D01*
X1324864Y-39599D02*
X1324864Y75216D01*
X1332992Y-39965D02*
X1332992Y-40683D01*
X1332992Y-32725D02*
X1332992Y75216D01*
X1341120Y-43739D02*
X1341120Y-55855D01*
X1341120Y-40683D02*
X1341120Y-39965D01*
X1341120Y-36909D02*
X1341120Y75216D01*
X1349248Y75216D02*
X1349248Y-63983D01*
X1357376Y-70975D02*
X1357376Y-15682D01*
X1357376Y-8683D02*
X1357376Y-7965D01*
X1357376Y-966D02*
X1357376Y75216D01*
X1365504Y-13407D02*
X1365504Y-70945D01*
X1365504Y-8683D02*
X1365504Y-7965D01*
X1365504Y-3241D02*
X1365504Y75216D01*
X1373632Y75216D02*
X1373632Y-70915D01*
X1381760Y-70885D02*
X1381760Y75216D01*
X1389888Y18930D02*
X1389888Y-70855D01*
X1389888Y26147D02*
X1389888Y26865D01*
X1389888Y34082D02*
X1389888Y75216D01*
X1398016Y22831D02*
X1398016Y-70825D01*
X1398016Y26147D02*
X1398016Y26865D01*
X1398016Y30181D02*
X1398016Y75216D01*
X1406144Y29542D02*
X1406144Y-70795D01*
X1406144Y36021D02*
X1406144Y36739D01*
X1406144Y43218D02*
X1406144Y75216D01*
X1414272Y30164D02*
X1414272Y-70765D01*
X1414272Y36021D02*
X1414272Y36739D01*
X1414272Y42596D02*
X1414272Y75216D01*
X1422400Y44558D02*
X1422400Y-70735D01*
X1422400Y48467D02*
X1422400Y49185D01*
X1422400Y53094D02*
X1422400Y76108D01*
X1430528Y41328D02*
X1430528Y-70705D01*
X1430528Y48467D02*
X1430528Y49185D01*
X1430528Y56324D02*
X1430528Y79355D01*
X1438656Y85910D02*
X1438656Y-70675D01*
X1446784Y-70645D02*
X1446784Y52043D01*
X1446784Y58967D02*
X1446784Y59685D01*
X1446784Y66609D02*
X1446784Y76248D01*
X1446784Y83043D02*
X1446784Y83761D01*
X1446784Y90556D02*
X1446784Y94038D01*
X1454912Y54063D02*
X1454912Y-70615D01*
X1454912Y58967D02*
X1454912Y59685D01*
X1454912Y64589D02*
X1454912Y77827D01*
X1454912Y83043D02*
X1454912Y83761D01*
X1454912Y88977D02*
X1454912Y102166D01*
X1463040Y92834D02*
X1463040Y-70585D01*
X1463040Y100053D02*
X1463040Y100771D01*
X1463040Y107990D02*
X1463040Y109752D01*
X1471168Y96748D02*
X1471168Y-70555D01*
X1471168Y100053D02*
X1471168Y100771D01*
X1471168Y104075D02*
X1471168Y109619D01*
X1479296Y78274D02*
X1479296Y72771D01*
X1479296Y86892D02*
X1479296Y87860D01*
X1479296Y97006D02*
X1479296Y108839D01*
X1487424Y78274D02*
X1487424Y72771D01*
X1487424Y86892D02*
X1487424Y87860D01*
X1487424Y97006D02*
X1487424Y108839D01*
D22*
X106018Y99112D03*
X169914Y73210D03*
X300682Y-18044D03*
X59644Y60400D03*
X27644Y37888D03*
X56144Y25750D03*
X163552Y-20008D03*
X189692Y-20262D03*
X1464366Y100412D03*
X1449610Y83402D03*
X1359710Y-8324D03*
X1391222Y26506D03*
X1409732Y36380D03*
X1428798Y48826D03*
D21*
X16232Y112512D02*
X11748Y110474D01*
X16232Y112512D02*
X16232Y108436D01*
X11748Y110474D01*
D25*
X143524Y112522D02*
X143524Y100076D01*
D21*
X16218Y-18086D02*
X12284Y-19874D01*
X16218Y-18086D02*
X16218Y-21662D01*
X12284Y-19874D01*
X12284Y6288D02*
X12834Y6538D01*
X16218Y8076D01*
X16218Y5000D01*
X12834Y6538D01*
D24*
X11988Y32446D02*
X16472Y34484D01*
X16472Y30408D01*
X11988Y32446D01*
D21*
X11734Y64958D02*
X19218Y68496D01*
X16218Y63500D01*
X16218Y63420D01*
X11734Y64958D01*
D22*
X40662Y105604D03*
X195518Y110112D03*
X234518Y110112D03*
X1334210Y-40324D03*
X25644Y8750D03*
D21*
X42322Y22750D02*
X48901Y22750D01*
X49145Y22753D01*
X49388Y22762D01*
X49632Y22776D01*
X49875Y22796D01*
X50117Y22822D01*
X50359Y22854D01*
X50600Y22892D01*
X50839Y22935D01*
X51078Y22984D01*
X51316Y23039D01*
X51552Y23099D01*
X51787Y23165D01*
X52020Y23236D01*
X52251Y23313D01*
X52481Y23396D01*
X52708Y23484D01*
X52933Y23577D01*
X53156Y23676D01*
X53377Y23780D01*
X53595Y23889D01*
X53810Y24003D01*
X54022Y24122D01*
X54232Y24247D01*
X54439Y24376D01*
X54642Y24510D01*
X54843Y24649D01*
X55039Y24793D01*
X55233Y24941D01*
X55423Y25094D01*
X55609Y25252D01*
X55791Y25414D01*
X55969Y25580D01*
X56144Y25750D01*
D24*
X17742Y30908D02*
X16472Y30408D01*
D22*
X1449298Y59326D03*
D21*
X25644Y8750D02*
X21000Y14500D01*
X25644Y8750D02*
X19000Y5000D01*
X24000Y31500D02*
X27644Y37888D01*
X22000Y41500D01*
X20500Y41000D01*
X169914Y73210D02*
X176000Y77000D01*
X164000Y69000D01*
X169914Y73210D02*
X176000Y69000D01*
X169914Y73210D02*
X164000Y77000D01*
D26*
X21500Y66500D03*
D21*
X16218Y63500D01*
X21500Y66500D02*
X21500Y69000D01*
X19218Y68496D02*
X21500Y66500D01*
X21500Y69000D02*
X19218Y68496D01*
D22*
X84644Y66900D03*
D26*
X99500Y-5000D03*
D24*
X97016Y-2516D01*
X93000Y-2516D01*
X99500Y-5000D02*
X102000Y-2500D01*
X106500Y-2500D01*
X99500Y-5000D02*
X96500Y-8000D01*
X94000Y-8000D01*
X99500Y-5000D02*
X100000Y-5000D01*
X102559Y-7559D01*
X105441Y-7559D02*
X106000Y-7000D01*
X105441Y-7559D02*
X102559Y-7559D01*
D20*
X6500Y19500D03*
X0Y19500D03*
D21*
X6500Y19500D02*
X21500Y19500D01*
X32000Y16500D01*
X46500Y12500D01*
X50000Y12500D01*
X56271Y12918D01*
X62767Y15238D01*
X66833Y20500D01*
X68000Y25750D01*
X68000Y27375D01*
X66000Y33000D01*
X62250Y35500D01*
X42572Y35500D01*
X42322Y35750D01*
D20*
X6500Y26000D03*
X0Y26000D03*
D21*
X6500Y26000D02*
X22000Y26000D01*
X29500Y28000D01*
X35000Y29000D01*
X42322Y29250D01*
D20*
X6500Y45500D03*
X0Y45500D03*
D21*
X6500Y45500D02*
X19500Y45500D01*
X25000Y47500D01*
X30000Y48500D01*
X42322Y48750D01*
D20*
X6500Y52000D03*
X0Y52000D03*
D21*
X6500Y52000D02*
X19000Y52000D01*
X25000Y54000D01*
X30000Y55000D01*
X42322Y55250D01*
D20*
X6500Y58500D03*
X0Y58500D03*
D21*
X6500Y58500D02*
X19000Y58500D01*
X27000Y60000D01*
X35500Y61500D01*
X42322Y61750D01*
D20*
X6500Y84500D03*
X0Y84500D03*
D21*
X6500Y84500D02*
X16500Y84500D01*
X22000Y82500D01*
X25000Y80000D01*
X29000Y77000D01*
X34500Y75000D01*
X42322Y74750D01*
D20*
X6500Y78000D03*
X0Y78000D03*
D21*
X6500Y78000D02*
X15500Y78000D01*
X19500Y76500D01*
X23500Y73500D01*
X27500Y71000D01*
X32500Y69000D01*
X35500Y68500D01*
X42322Y68250D01*
D20*
X6500Y91000D03*
X0Y91000D03*
D21*
X6500Y91000D02*
X16000Y91000D01*
X22000Y90000D01*
X26500Y86500D01*
X31000Y82500D01*
X34500Y81500D01*
X36500Y81000D01*
X42322Y81250D01*
X87500Y-24750D02*
X94000Y-24750D01*
X87500Y-24750D02*
X83000Y-24750D01*
X80750Y-24750D01*
X65500Y-5000D02*
X65500Y2000D01*
X75000Y21214D02*
X75000Y26000D01*
X61750Y42250D02*
X42322Y42250D01*
X75500Y-23000D02*
X80750Y-24750D01*
X75500Y-23000D02*
X69000Y-19000D01*
X66500Y-13500D01*
X65500Y-5000D01*
X65500Y2000D02*
X66000Y8000D01*
X67500Y11000D01*
X70000Y13000D01*
X75000Y21214D01*
X67000Y41500D02*
X61750Y42250D01*
X67000Y41500D02*
X72000Y38000D01*
X74000Y34000D01*
X74272Y32551D01*
X75000Y26000D01*
X88128Y-20744D02*
X83000Y-24750D01*
X88128Y-20744D02*
X91000Y-18500D01*
X83000Y-24750D02*
X88107Y-28665D01*
X90500Y-30500D01*
X87500Y-24750D02*
X88128Y-20744D01*
X87500Y-24750D02*
X88107Y-28665D01*
X118000Y-24750D02*
X125500Y-24750D01*
X128250Y-24750D01*
X122000Y-19500D01*
X125500Y-24750D01*
X128250Y-24750D02*
X121500Y-30500D01*
X125500Y-24750D01*
X134000Y-23000D02*
X134097Y-22901D01*
X134191Y-22799D01*
X134282Y-22694D01*
X134370Y-22587D01*
X134456Y-22478D01*
X134538Y-22367D01*
X134618Y-22253D01*
X134694Y-22137D01*
X134767Y-22019D01*
X134837Y-21899D01*
X134903Y-21778D01*
X134967Y-21654D01*
X135027Y-21529D01*
X135083Y-21403D01*
X135136Y-21274D01*
X135186Y-21145D01*
X135232Y-21014D01*
X135274Y-20882D01*
X135313Y-20749D01*
X135349Y-20615D01*
X135380Y-20480D01*
X135408Y-20344D01*
X135433Y-20207D01*
X135453Y-20070D01*
X135470Y-19933D01*
X135483Y-19795D01*
X135492Y-19656D01*
X135498Y-19518D01*
X135500Y-19379D01*
X134000Y-23000D02*
X133892Y-23106D01*
X133781Y-23209D01*
X133667Y-23309D01*
X133551Y-23406D01*
X133432Y-23500D01*
X133311Y-23591D01*
X133188Y-23679D01*
X133063Y-23764D01*
X132936Y-23846D01*
X132806Y-23924D01*
X132675Y-23999D01*
X132541Y-24071D01*
X132406Y-24139D01*
X132270Y-24204D01*
X132131Y-24266D01*
X131991Y-24324D01*
X131850Y-24378D01*
X131708Y-24429D01*
X131564Y-24476D01*
X131419Y-24519D01*
X131273Y-24559D01*
X131126Y-24595D01*
X130978Y-24628D01*
X130829Y-24656D01*
X130680Y-24681D01*
X130530Y-24702D01*
X130379Y-24719D01*
X130229Y-24733D01*
X130078Y-24742D01*
X129926Y-24748D01*
X129775Y-24750D01*
X128250Y-24750D01*
X135500Y-7000D02*
X135500Y-2000D01*
X135500Y-7000D02*
X135500Y-19379D01*
X135500Y-7000D02*
X138500Y-2000D01*
X135500Y-7000D02*
X132500Y-2000D01*
D26*
X163500Y-5000D03*
D27*
X1493880Y63500D03*
D26*
X1486260Y63500D03*
D24*
X1490200Y63505D02*
X1493690Y63510D01*
D28*
X1493685Y63505D01*
D21*
X1493690Y63510D02*
X1493680Y63500D01*
X1486260Y63500D01*
X1480820Y63500D01*
X1478280Y63500D01*
X1480820Y63500D02*
X1487170Y66040D01*
X1487170Y60960D02*
X1480820Y63500D01*
X152636Y-2000D02*
X151500Y-2000D01*
X156257Y-2000D01*
X156501Y-2003D01*
X156744Y-2012D01*
X156988Y-2026D01*
X157231Y-2046D01*
X157473Y-2072D01*
X157715Y-2104D01*
X157956Y-2142D01*
X158195Y-2185D01*
X158434Y-2234D01*
X158672Y-2289D01*
X158908Y-2349D01*
X159143Y-2415D01*
X159376Y-2486D01*
X159607Y-2563D01*
X159837Y-2646D01*
X160064Y-2734D01*
X160289Y-2827D01*
X160512Y-2926D01*
X160733Y-3030D01*
X160951Y-3139D01*
X161166Y-3253D01*
X161378Y-3372D01*
X161588Y-3497D01*
X161795Y-3626D01*
X161998Y-3760D01*
X162199Y-3899D01*
X162395Y-4043D01*
X162589Y-4191D01*
X162779Y-4344D01*
X162965Y-4502D01*
X163147Y-4664D01*
X163325Y-4830D01*
X163500Y-5000D01*
D26*
X365500Y-18000D03*
D21*
X238979Y98000D02*
X151500Y98000D01*
X238979Y98000D02*
X239602Y97992D01*
X240225Y97969D01*
X240848Y97931D01*
X241469Y97878D01*
X242088Y97809D01*
X242706Y97725D01*
X243321Y97626D01*
X243934Y97512D01*
X244544Y97383D01*
X245151Y97239D01*
X245754Y97080D01*
X246352Y96906D01*
X246947Y96718D01*
X247536Y96515D01*
X248120Y96298D01*
X248699Y96067D01*
X249272Y95821D01*
X249839Y95561D01*
X250399Y95288D01*
X250952Y95001D01*
X251499Y94700D01*
X252037Y94386D01*
X252568Y94059D01*
X253090Y93719D01*
X253605Y93367D01*
X254110Y93001D01*
X254606Y92624D01*
X255093Y92234D01*
X255570Y91833D01*
X256037Y91420D01*
X256493Y90996D01*
X256940Y90561D01*
X365500Y-18000D01*
D27*
X1493880Y-63500D03*
D26*
X1486260Y-63500D03*
D24*
X1486260Y-63490D02*
X1493690Y-63490D01*
D21*
X1478290Y-63490D01*
X1478280Y-63500D01*
X1480820Y-63500D02*
X1487170Y-60960D01*
X1487170Y-66040D02*
X1480820Y-63500D01*
D26*
X345500Y-18000D03*
D21*
X226979Y90000D02*
X151500Y90000D01*
X226979Y90000D02*
X227602Y89992D01*
X228225Y89969D01*
X228848Y89931D01*
X229469Y89878D01*
X230088Y89809D01*
X230706Y89725D01*
X231321Y89626D01*
X231934Y89512D01*
X232544Y89383D01*
X233151Y89239D01*
X233754Y89080D01*
X234352Y88906D01*
X234947Y88718D01*
X235536Y88515D01*
X236120Y88298D01*
X236699Y88067D01*
X237272Y87821D01*
X237839Y87561D01*
X238399Y87288D01*
X238952Y87001D01*
X239499Y86700D01*
X240037Y86386D01*
X240568Y86059D01*
X241090Y85719D01*
X241605Y85367D01*
X242110Y85001D01*
X242606Y84624D01*
X243093Y84234D01*
X243570Y83833D01*
X244037Y83420D01*
X244493Y82996D01*
X244940Y82561D01*
X345500Y-18000D01*
D27*
X1493880Y-50800D03*
D26*
X1486260Y-50800D03*
D21*
X1493690Y-50790D02*
X1478290Y-50790D01*
X1478280Y-50800D01*
X1480820Y-50800D02*
X1487170Y-48260D01*
X1487170Y-53340D02*
X1480820Y-50800D01*
D26*
X325500Y-18000D03*
D21*
X232940Y74561D01*
X232493Y74996D01*
X232037Y75420D01*
X231570Y75833D01*
X231093Y76234D01*
X230606Y76624D01*
X230110Y77001D01*
X229605Y77367D01*
X229090Y77719D01*
X228568Y78059D01*
X228037Y78386D01*
X227499Y78700D01*
X226952Y79001D01*
X226399Y79288D01*
X225839Y79561D01*
X225272Y79821D01*
X224699Y80067D01*
X224120Y80298D01*
X223536Y80515D01*
X222947Y80718D01*
X222352Y80906D01*
X221754Y81080D01*
X221151Y81239D01*
X220544Y81383D01*
X219934Y81512D01*
X219321Y81626D01*
X218706Y81725D01*
X218088Y81809D01*
X217469Y81878D01*
X216848Y81931D01*
X216225Y81969D01*
X215602Y81992D01*
X214979Y82000D01*
X151500Y82000D01*
D27*
X1493880Y-38100D03*
D26*
X1486260Y-38100D03*
D24*
X1486260Y-38090D02*
X1493690Y-38090D01*
D21*
X1478290Y-38090D01*
X1478280Y-38100D01*
X1480820Y-38100D02*
X1487170Y-35560D01*
X1487170Y-40640D02*
X1480820Y-38100D01*
D26*
X277500Y10000D03*
D21*
X212979Y64000D02*
X151500Y64000D01*
X212979Y64000D02*
X213602Y63992D01*
X214225Y63969D01*
X214848Y63931D01*
X215469Y63878D01*
X216088Y63809D01*
X216706Y63725D01*
X217321Y63626D01*
X217934Y63512D01*
X218544Y63383D01*
X219151Y63239D01*
X219754Y63080D01*
X220352Y62906D01*
X220947Y62718D01*
X221536Y62515D01*
X222120Y62298D01*
X222699Y62067D01*
X223272Y61821D01*
X223839Y61561D01*
X224399Y61288D01*
X224952Y61001D01*
X225499Y60700D01*
X226037Y60386D01*
X226568Y60059D01*
X227090Y59719D01*
X227605Y59367D01*
X228110Y59001D01*
X228606Y58624D01*
X229093Y58234D01*
X229570Y57833D01*
X230037Y57420D01*
X230493Y56996D01*
X230940Y56561D01*
X277500Y10000D01*
D27*
X1493880Y-25400D03*
D26*
X1486260Y-25400D03*
D24*
X1486260Y-25390D02*
X1493690Y-25390D01*
D21*
X1478290Y-25390D01*
X1478280Y-25400D01*
X1480820Y-25400D02*
X1487170Y-22860D01*
X1487170Y-27940D02*
X1480820Y-25400D01*
X1493352Y-12550D02*
X1493383Y-12578D01*
X1493416Y-12604D01*
X1493451Y-12626D01*
X1493488Y-12645D01*
X1493527Y-12661D01*
X1493566Y-12674D01*
X1493607Y-12683D01*
X1493648Y-12688D01*
X1493690Y-12690D01*
D26*
X257500Y10000D03*
D21*
X200979Y56000D02*
X151500Y56000D01*
X200979Y56000D02*
X201602Y55992D01*
X202225Y55969D01*
X202848Y55931D01*
X203469Y55878D01*
X204088Y55809D01*
X204706Y55725D01*
X205321Y55626D01*
X205934Y55512D01*
X206544Y55383D01*
X207151Y55239D01*
X207754Y55080D01*
X208352Y54906D01*
X208947Y54718D01*
X209536Y54515D01*
X210120Y54298D01*
X210699Y54067D01*
X211272Y53821D01*
X211839Y53561D01*
X212399Y53288D01*
X212952Y53001D01*
X213499Y52700D01*
X214037Y52386D01*
X214568Y52059D01*
X215090Y51719D01*
X215605Y51367D01*
X216110Y51001D01*
X216606Y50624D01*
X217093Y50234D01*
X217570Y49833D01*
X218037Y49420D01*
X218493Y48996D01*
X218940Y48561D01*
X257500Y10000D01*
D27*
X1493880Y-12700D03*
D26*
X1486260Y-12700D03*
D24*
X1486260Y-12690D02*
X1493690Y-12690D01*
D21*
X1478290Y-12690D01*
X1478280Y-12700D01*
X1480820Y-12700D02*
X1487170Y-10160D01*
X1487170Y-15240D02*
X1480820Y-12700D01*
D26*
X237500Y10000D03*
D21*
X188979Y48000D02*
X151500Y48000D01*
X188979Y48000D02*
X189602Y47992D01*
X190225Y47969D01*
X190848Y47931D01*
X191469Y47878D01*
X192088Y47809D01*
X192706Y47725D01*
X193321Y47626D01*
X193934Y47512D01*
X194544Y47383D01*
X195151Y47239D01*
X195754Y47080D01*
X196352Y46906D01*
X196947Y46718D01*
X197536Y46515D01*
X198120Y46298D01*
X198699Y46067D01*
X199272Y45821D01*
X199839Y45561D01*
X200399Y45288D01*
X200952Y45001D01*
X201499Y44700D01*
X202037Y44386D01*
X202568Y44059D01*
X203090Y43719D01*
X203605Y43367D01*
X204110Y43001D01*
X204606Y42624D01*
X205093Y42234D01*
X205570Y41833D01*
X206037Y41420D01*
X206493Y40996D01*
X206940Y40561D01*
X237500Y10000D01*
D27*
X1493880Y0D03*
D26*
X1486260Y0D03*
D24*
X1486260Y10D02*
X1493690Y10D01*
D21*
X1478290Y10D01*
X1478280Y0D01*
X1480820Y0D02*
X1487170Y2540D01*
X1487170Y-2540D02*
X1480820Y0D01*
D26*
X217500Y10000D03*
D27*
X1493880Y12700D03*
D26*
X1486260Y12700D03*
D24*
X1493690Y12710D01*
D21*
X1478290Y12710D01*
X1478280Y12700D01*
X1480820Y12700D02*
X1487170Y15240D01*
X1487170Y10160D02*
X1480820Y12700D01*
X170636Y14000D02*
X151500Y14000D01*
X170636Y14000D02*
X171013Y13995D01*
X171390Y13981D01*
X171766Y13958D01*
X172142Y13926D01*
X172517Y13884D01*
X172890Y13834D01*
X173263Y13774D01*
X173633Y13705D01*
X174002Y13627D01*
X174369Y13540D01*
X174734Y13443D01*
X175096Y13338D01*
X175455Y13225D01*
X175812Y13102D01*
X176165Y12971D01*
X176516Y12830D01*
X176862Y12682D01*
X177205Y12525D01*
X177544Y12359D01*
X177879Y12186D01*
X178209Y12004D01*
X178535Y11814D01*
X178856Y11616D01*
X179172Y11411D01*
X179483Y11197D01*
X179788Y10976D01*
X180088Y10748D01*
X180383Y10513D01*
X180671Y10270D01*
X180954Y10020D01*
X181230Y9763D01*
X181500Y9500D01*
X182964Y8036D01*
X182965Y8036D02*
X183177Y7829D01*
X183394Y7627D01*
X183616Y7431D01*
X183842Y7240D01*
X184074Y7055D01*
X184309Y6875D01*
X184549Y6702D01*
X184794Y6534D01*
X185042Y6373D01*
X185294Y6217D01*
X185550Y6068D01*
X185810Y5925D01*
X186073Y5789D01*
X186339Y5659D01*
X186608Y5536D01*
X186881Y5419D01*
X187156Y5309D01*
X187433Y5206D01*
X187714Y5109D01*
X187996Y5020D01*
X188281Y4937D01*
X188567Y4862D01*
X188855Y4793D01*
X189145Y4732D01*
X189436Y4678D01*
X189729Y4631D01*
X190022Y4591D01*
X190317Y4558D01*
X190612Y4533D01*
X190908Y4515D01*
X191204Y4504D01*
X191500Y4500D01*
X204222Y4500D01*
X204669Y4505D01*
X205115Y4521D01*
X205562Y4548D01*
X206007Y4585D01*
X206451Y4633D01*
X206894Y4691D01*
X207336Y4760D01*
X207776Y4839D01*
X208214Y4929D01*
X208649Y5029D01*
X209082Y5140D01*
X209512Y5261D01*
X209940Y5392D01*
X210364Y5533D01*
X210784Y5684D01*
X211201Y5845D01*
X211614Y6016D01*
X212023Y6197D01*
X212427Y6387D01*
X212827Y6587D01*
X213221Y6797D01*
X213611Y7016D01*
X213995Y7244D01*
X214374Y7481D01*
X214747Y7727D01*
X215114Y7982D01*
X215475Y8245D01*
X215830Y8517D01*
X216178Y8798D01*
X216519Y9087D01*
X216853Y9383D01*
X217180Y9688D01*
X217500Y10000D01*
D26*
X201000Y16000D03*
D27*
X1493880Y25400D03*
D26*
X1486260Y25400D03*
D21*
X1493690Y25410D02*
X1478290Y25410D01*
X1478280Y25400D01*
X1480820Y25400D02*
X1487170Y27940D01*
X1487170Y22860D02*
X1480820Y25400D01*
X201000Y16000D02*
X200686Y16327D01*
X200364Y16646D01*
X200035Y16957D01*
X199699Y17261D01*
X199355Y17556D01*
X199004Y17843D01*
X198647Y18122D01*
X198283Y18392D01*
X197913Y18653D01*
X197537Y18906D01*
X197155Y19149D01*
X196767Y19384D01*
X196374Y19609D01*
X195975Y19824D01*
X195572Y20030D01*
X195163Y20226D01*
X194750Y20413D01*
X194333Y20590D01*
X193912Y20756D01*
X193487Y20913D01*
X193058Y21060D01*
X192626Y21196D01*
X192191Y21322D01*
X191753Y21437D01*
X191312Y21542D01*
X190869Y21637D01*
X190423Y21721D01*
X189976Y21794D01*
X189528Y21857D01*
X189077Y21909D01*
X188626Y21950D01*
X188174Y21981D01*
X187722Y22000D01*
X151500Y22000D01*
D27*
X1493880Y38100D03*
D26*
X1486260Y38100D03*
D24*
X1486260Y38110D02*
X1493690Y38110D01*
D21*
X1478290Y38110D01*
X1478280Y38100D01*
X1480820Y38100D02*
X1487170Y40640D01*
X1487170Y35560D02*
X1480820Y38100D01*
X159479Y6000D02*
X151500Y6000D01*
X159479Y6000D02*
X160102Y5992D01*
X160725Y5969D01*
X161348Y5931D01*
X161969Y5878D01*
X162588Y5809D01*
X163206Y5725D01*
X163821Y5626D01*
X164434Y5512D01*
X165044Y5383D01*
X165651Y5239D01*
X166254Y5080D01*
X166852Y4906D01*
X167447Y4718D01*
X168036Y4515D01*
X168620Y4298D01*
X169199Y4067D01*
X169772Y3821D01*
X170339Y3561D01*
X170899Y3288D01*
X171452Y3001D01*
X171999Y2700D01*
X172537Y2386D01*
X173068Y2059D01*
X173590Y1719D01*
X174105Y1367D01*
X174610Y1001D01*
X175106Y624D01*
X175593Y234D01*
X176070Y-167D01*
X176537Y-580D01*
X176993Y-1004D01*
X177440Y-1439D01*
X177440Y-1440D02*
X178500Y-2500D01*
D26*
X178500Y-2500D03*
D27*
X1493880Y50800D03*
D26*
X1486260Y50800D03*
D24*
X1493690Y50810D02*
X1493880Y50800D01*
X1493690Y50810D02*
X1486260Y50810D01*
D21*
X1493690Y50810D02*
X1478290Y50810D01*
X1478280Y50800D01*
X1480820Y50800D02*
X1487170Y53340D01*
X1487170Y48260D02*
X1480820Y50800D01*
X161585Y40000D02*
X151500Y40000D01*
X161585Y40000D02*
X162103Y39994D01*
X162620Y39975D01*
X163137Y39943D01*
X163652Y39898D01*
X164167Y39841D01*
X164680Y39772D01*
X165191Y39689D01*
X165700Y39595D01*
X166206Y39487D01*
X166710Y39368D01*
X167211Y39236D01*
X167708Y39092D01*
X168201Y38935D01*
X168691Y38767D01*
X169176Y38587D01*
X169657Y38394D01*
X170133Y38190D01*
X170603Y37975D01*
X171069Y37748D01*
X171528Y37509D01*
X171982Y37260D01*
X172429Y36999D01*
X172870Y36727D01*
X173304Y36445D01*
X173731Y36152D01*
X174150Y35849D01*
X174562Y35536D01*
X174966Y35212D01*
X175362Y34879D01*
X175750Y34536D01*
X176129Y34184D01*
X176500Y33822D01*
D26*
X176500Y33822D03*
D23*
X1494134Y119380D03*
X1481434Y119380D03*
D24*
X1488610Y119390D01*
D29*
X258520Y118501D02*
X258073Y118936D01*
X257617Y119360D01*
X257150Y119773D01*
X256673Y120174D01*
X256186Y120564D01*
X255690Y120941D01*
X255185Y121307D01*
X254670Y121659D01*
X254148Y121999D01*
X253617Y122326D01*
X253079Y122640D01*
X252532Y122941D01*
X251979Y123228D01*
X251419Y123501D01*
X250852Y123761D01*
X250279Y124007D01*
X249700Y124238D01*
X249116Y124455D01*
X248527Y124658D01*
X247932Y124846D01*
X247334Y125020D01*
X246731Y125179D01*
X246124Y125323D01*
X245514Y125452D01*
X244901Y125566D01*
X244286Y125665D01*
X243668Y125749D01*
X243049Y125818D01*
X242428Y125871D01*
X241805Y125909D01*
X241182Y125932D01*
X240559Y125940D01*
X258520Y118501D02*
X288301Y88720D01*
X288300Y88719D02*
X288747Y88284D01*
X289203Y87860D01*
X289670Y87447D01*
X290147Y87046D01*
X290634Y86656D01*
X291130Y86279D01*
X291635Y85913D01*
X292150Y85561D01*
X292672Y85221D01*
X293203Y84894D01*
X293741Y84580D01*
X294288Y84279D01*
X294841Y83992D01*
X295401Y83719D01*
X295968Y83459D01*
X296541Y83213D01*
X297120Y82982D01*
X297704Y82765D01*
X298293Y82562D01*
X298888Y82374D01*
X299486Y82200D01*
X300089Y82041D01*
X300696Y81897D01*
X301306Y81768D01*
X301919Y81654D01*
X302534Y81555D01*
X303152Y81471D01*
X303771Y81402D01*
X304392Y81349D01*
X305015Y81311D01*
X305638Y81288D01*
X306261Y81280D01*
X1414929Y81280D01*
X1415552Y81288D01*
X1416175Y81311D01*
X1416798Y81349D01*
X1417419Y81402D01*
X1418038Y81471D01*
X1418656Y81555D01*
X1419271Y81654D01*
X1419884Y81768D01*
X1420494Y81897D01*
X1421101Y82041D01*
X1421704Y82200D01*
X1422302Y82374D01*
X1422897Y82562D01*
X1423486Y82765D01*
X1424070Y82982D01*
X1424649Y83213D01*
X1425222Y83459D01*
X1425789Y83719D01*
X1426349Y83992D01*
X1426902Y84279D01*
X1427449Y84580D01*
X1427987Y84894D01*
X1428518Y85221D01*
X1429040Y85561D01*
X1429555Y85913D01*
X1430060Y86279D01*
X1430556Y86656D01*
X1431043Y87046D01*
X1431520Y87447D01*
X1431987Y87860D01*
X1432443Y88284D01*
X1432890Y88719D01*
X1456120Y111951D02*
X1456567Y112386D01*
X1457023Y112810D01*
X1457490Y113223D01*
X1457967Y113624D01*
X1458454Y114014D01*
X1458950Y114391D01*
X1459455Y114757D01*
X1459970Y115109D01*
X1460492Y115449D01*
X1461023Y115776D01*
X1461561Y116090D01*
X1462108Y116391D01*
X1462661Y116678D01*
X1463221Y116951D01*
X1463788Y117211D01*
X1464361Y117457D01*
X1464940Y117688D01*
X1465524Y117905D01*
X1466113Y118108D01*
X1466708Y118296D01*
X1467306Y118470D01*
X1467909Y118629D01*
X1468516Y118773D01*
X1469126Y118902D01*
X1469739Y119016D01*
X1470354Y119115D01*
X1470972Y119199D01*
X1471591Y119268D01*
X1472212Y119321D01*
X1472835Y119359D01*
X1473458Y119382D01*
X1474081Y119390D01*
X1456121Y111951D02*
X1432890Y88720D01*
X1474081Y119390D02*
X1488610Y119390D01*
X151180Y125940D02*
X109650Y125940D01*
D22*
X151180Y125940D03*
X163880Y125940D03*
X176580Y125940D03*
D30*
X151180Y125940D01*
D29*
X109650Y125940D02*
X77940Y125940D01*
X76000Y124000D01*
X80500Y120000D02*
X86500Y126000D01*
X176580Y125940D02*
X240559Y125940D01*
D21*
X76500Y124000D02*
X76000Y124000D01*
X76500Y124000D02*
X80500Y120000D01*
X76000Y119950D02*
X76000Y124000D01*
X76730Y122238D02*
X76730Y114000D01*
X76730Y122238D02*
X76728Y122336D01*
X76722Y122434D01*
X76713Y122531D01*
X76699Y122628D01*
X76682Y122724D01*
X76661Y122820D01*
X76636Y122914D01*
X76608Y123008D01*
X76576Y123101D01*
X76540Y123192D01*
X76501Y123281D01*
X76458Y123369D01*
X76412Y123456D01*
X76363Y123540D01*
X76310Y123622D01*
X76254Y123703D01*
X76195Y123781D01*
X76133Y123856D01*
X76068Y123930D01*
X76000Y124000D01*
X75500Y101500D02*
X74161Y97890D01*
X74160Y97890D02*
X74165Y97456D01*
X74181Y97023D01*
X74206Y96589D01*
X74243Y96157D01*
X74289Y95726D01*
X74346Y95296D01*
X74412Y94867D01*
X74489Y94440D01*
X74577Y94015D01*
X74674Y93592D01*
X74781Y93172D01*
X74898Y92754D01*
X75026Y92339D01*
X75163Y91928D01*
X75309Y91519D01*
X75466Y91115D01*
X75632Y90714D01*
X75807Y90317D01*
X75992Y89925D01*
X76187Y89537D01*
X76390Y89153D01*
X76602Y88775D01*
X76824Y88402D01*
X77054Y88034D01*
X77293Y87672D01*
X77540Y87316D01*
X77796Y86965D01*
X78060Y86621D01*
X78332Y86283D01*
X78613Y85952D01*
X78901Y85627D01*
X79196Y85310D01*
X79499Y84999D01*
X79500Y85000D02*
X79725Y84780D01*
X79955Y84567D01*
X80190Y84358D01*
X80431Y84156D01*
X80676Y83960D01*
X80926Y83770D01*
X81181Y83585D01*
X81440Y83408D01*
X81703Y83236D01*
X81971Y83071D01*
X82242Y82913D01*
X82518Y82762D01*
X82797Y82617D01*
X83079Y82479D01*
X83365Y82348D01*
X83654Y82225D01*
X83945Y82108D01*
X84240Y81998D01*
X84537Y81896D01*
X84836Y81801D01*
X85138Y81714D01*
X85442Y81634D01*
X85748Y81561D01*
X86055Y81496D01*
X86364Y81438D01*
X86674Y81389D01*
X86986Y81346D01*
X87298Y81312D01*
X87611Y81285D01*
X87925Y81265D01*
X88239Y81254D01*
X88553Y81250D01*
X100678Y81250D01*
X76730Y114000D02*
X71000Y119730D01*
X71000Y120500D01*
X76730Y114000D02*
X80500Y117770D01*
X80500Y120000D01*
D31*
X76730Y114000D02*
X76730Y109000D01*
X76730Y102730D01*
X75500Y101500D01*
X72730Y105000D02*
X76730Y109000D01*
X72730Y105000D02*
X71500Y105000D01*
X75500Y101500D02*
X75500Y98500D01*
X72250Y97750D01*
D21*
X72250Y53468D01*
X74750Y5750D02*
X79000Y5750D01*
X82000Y5750D01*
X85500Y5750D01*
X90750Y5750D01*
X91000Y5500D01*
X82000Y29929D02*
X81995Y30348D01*
X81979Y30767D01*
X81954Y31185D01*
X81918Y31602D01*
X81872Y32019D01*
X81815Y32434D01*
X81749Y32847D01*
X81672Y33259D01*
X81585Y33669D01*
X81488Y34077D01*
X81382Y34482D01*
X81265Y34884D01*
X81138Y35284D01*
X81002Y35680D01*
X80856Y36073D01*
X80701Y36462D01*
X80535Y36847D01*
X80361Y37228D01*
X80177Y37604D01*
X79984Y37976D01*
X79782Y38343D01*
X79571Y38705D01*
X79351Y39062D01*
X79123Y39413D01*
X78886Y39759D01*
X78641Y40098D01*
X78387Y40432D01*
X78125Y40759D01*
X77855Y41079D01*
X77578Y41393D01*
X77293Y41700D01*
X77000Y42000D01*
X76999Y42000D02*
X76729Y42276D01*
X76466Y42559D01*
X76210Y42847D01*
X75961Y43142D01*
X75719Y43443D01*
X75484Y43749D01*
X75256Y44061D01*
X75036Y44378D01*
X74824Y44700D01*
X74619Y45027D01*
X74422Y45359D01*
X74233Y45696D01*
X74052Y46036D01*
X73879Y46382D01*
X73715Y46731D01*
X73558Y47084D01*
X73411Y47440D01*
X73272Y47800D01*
X73141Y48164D01*
X73019Y48530D01*
X72906Y48899D01*
X72802Y49270D01*
X72706Y49644D01*
X72620Y50021D01*
X72542Y50399D01*
X72474Y50779D01*
X72414Y51160D01*
X72364Y51543D01*
X72322Y51926D01*
X72290Y52311D01*
X72267Y52696D01*
X72254Y53082D01*
X72249Y53468D01*
X82000Y8500D02*
X82000Y5750D01*
X82000Y8500D02*
X82000Y29929D01*
X82000Y8500D02*
X79000Y5750D01*
X82000Y8500D02*
X85500Y5750D01*
X128500Y14000D02*
X135500Y14000D01*
X128500Y14000D02*
X122500Y15500D01*
X117500Y18500D01*
X112000Y22000D01*
X108500Y22500D01*
X100678Y22750D01*
X100678Y74750D02*
X106750Y74750D01*
X129900Y98000D02*
X135500Y98000D01*
X111000Y76500D02*
X106750Y74750D01*
X111000Y76500D02*
X114000Y79300D01*
X117500Y85000D01*
X118500Y88500D01*
X121141Y92969D01*
X124202Y96043D01*
X129900Y98000D01*
X105671Y68250D02*
X100678Y68250D01*
X129000Y90000D02*
X135500Y90000D01*
X111000Y69000D02*
X105671Y68250D01*
X111000Y69000D02*
X115000Y71000D01*
X118500Y74500D01*
X121500Y78500D01*
X127000Y89000D02*
X129000Y90000D01*
X123500Y83500D02*
X121500Y78500D01*
X123500Y83500D02*
X127000Y89000D01*
X105591Y61750D02*
X100678Y61750D01*
X135500Y79500D02*
X135500Y82000D01*
X135500Y79500D02*
X134320Y77612D01*
X133000Y75500D01*
X128000Y71500D01*
X121000Y66500D01*
X116000Y64000D01*
X112000Y62500D01*
X105591Y61750D01*
X134320Y77612D02*
X135500Y82000D01*
X138500Y80500D02*
X134320Y77612D01*
X132500Y81500D01*
X105512Y55250D02*
X100678Y55250D01*
X105512Y55250D02*
X110500Y55500D01*
X116000Y57000D01*
X121500Y60000D01*
X126000Y63000D01*
X130000Y64000D01*
X135500Y64000D01*
X105932Y48750D02*
X100678Y48750D01*
X105932Y48750D02*
X112500Y49500D01*
X120000Y52000D01*
X124000Y54500D01*
X128500Y56000D01*
X135500Y56000D01*
X105853Y42250D02*
X100678Y42250D01*
X105853Y42250D02*
X113500Y43500D01*
X119000Y45500D01*
X130500Y48000D01*
X135500Y48000D01*
X105750Y29250D02*
X100678Y29250D01*
X105750Y29250D02*
X114500Y28500D01*
X120500Y25000D01*
X124500Y23000D01*
X128500Y22000D01*
X135500Y22000D01*
X107178Y35750D02*
X100678Y35750D01*
X129500Y40000D02*
X135500Y40000D01*
X123333Y39000D02*
X107178Y35750D01*
X123333Y39000D02*
X129500Y40000D01*
X129121Y6000D02*
X135500Y6000D01*
X129121Y6000D02*
X128982Y5998D01*
X128844Y5992D01*
X128705Y5983D01*
X128567Y5970D01*
X128430Y5953D01*
X128293Y5933D01*
X128156Y5908D01*
X128020Y5880D01*
X127885Y5849D01*
X127751Y5813D01*
X127618Y5774D01*
X127486Y5732D01*
X127355Y5686D01*
X127226Y5636D01*
X127097Y5583D01*
X126971Y5527D01*
X126846Y5467D01*
X126722Y5403D01*
X126601Y5337D01*
X126481Y5267D01*
X126363Y5194D01*
X126247Y5118D01*
X126133Y5038D01*
X126022Y4956D01*
X125913Y4870D01*
X125806Y4782D01*
X125701Y4691D01*
X125599Y4597D01*
X125500Y4500D01*
X117500Y-5000D01*
X81275Y-7250D02*
X74750Y-7250D01*
X81275Y-7250D02*
X81426Y-7252D01*
X81578Y-7258D01*
X81729Y-7267D01*
X81879Y-7281D01*
X82030Y-7298D01*
X82180Y-7319D01*
X82329Y-7344D01*
X82478Y-7372D01*
X82626Y-7405D01*
X82773Y-7441D01*
X82919Y-7481D01*
X83064Y-7524D01*
X83208Y-7571D01*
X83350Y-7622D01*
X83491Y-7676D01*
X83631Y-7734D01*
X83770Y-7796D01*
X83906Y-7861D01*
X84041Y-7929D01*
X84175Y-8001D01*
X84306Y-8076D01*
X84436Y-8154D01*
X84563Y-8236D01*
X84688Y-8321D01*
X84811Y-8409D01*
X84932Y-8500D01*
X85051Y-8594D01*
X85167Y-8691D01*
X85281Y-8791D01*
X85392Y-8894D01*
X85500Y-9000D01*
X85704Y-9199D01*
X85912Y-9392D01*
X86124Y-9581D01*
X86342Y-9765D01*
X86563Y-9943D01*
X86789Y-10116D01*
X87018Y-10284D01*
X87252Y-10446D01*
X87489Y-10603D01*
X87730Y-10754D01*
X87975Y-10899D01*
X88223Y-11038D01*
X88474Y-11172D01*
X88729Y-11299D01*
X88986Y-11420D01*
X89246Y-11535D01*
X89509Y-11644D01*
X89774Y-11747D01*
X90042Y-11843D01*
X90311Y-11933D01*
X90583Y-12016D01*
X90857Y-12093D01*
X91133Y-12163D01*
X91410Y-12227D01*
X91688Y-12284D01*
X91968Y-12335D01*
X92249Y-12378D01*
X92531Y-12415D01*
X92814Y-12446D01*
X93097Y-12470D01*
X93381Y-12486D01*
X93666Y-12497D01*
X93950Y-12500D01*
X101500Y-12500D01*
X101988Y-12494D01*
X102476Y-12477D01*
X102964Y-12448D01*
X103451Y-12407D01*
X103936Y-12355D01*
X104420Y-12291D01*
X104903Y-12216D01*
X105384Y-12129D01*
X105862Y-12031D01*
X106338Y-11922D01*
X106811Y-11801D01*
X107281Y-11669D01*
X107748Y-11526D01*
X108212Y-11371D01*
X108671Y-11206D01*
X109127Y-11030D01*
X109578Y-10843D01*
X110025Y-10646D01*
X110467Y-10437D01*
X110903Y-10219D01*
X111335Y-9990D01*
X111760Y-9751D01*
X112181Y-9501D01*
X112594Y-9242D01*
X113002Y-8973D01*
X113403Y-8695D01*
X113798Y-8407D01*
X114185Y-8110D01*
X114566Y-7803D01*
X114938Y-7488D01*
X115304Y-7164D01*
X115661Y-6831D01*
X116011Y-6490D01*
X116010Y-6490D02*
X117500Y-5000D01*
X56500Y5500D02*
X49000Y5500D01*
M02*
