G04 EAGLE Gerber X2 export*
%TF.Part,Single*%
%TF.FileFunction,Other,bottom copper*%
%TF.FilePolarity,Positive*%
%TF.GenerationSoftware,Autodesk,EAGLE,9.6.2*%
%TF.CreationDate,2020-07-07T11:07:30Z*%
G75*
%MOMM*%
%FSLAX34Y34*%
%LPD*%
%INbottom copper*%
%AMOC8*
5,1,8,0,0,1.08239X$1,22.5*%
G01*
%ADD10C,0.000000*%
%ADD11R,1.350000X0.450000*%
%ADD12R,1.600000X0.800000*%
%ADD13R,2.540000X1.270000*%
%ADD14C,0.454000*%
%ADD15C,0.254000*%
%ADD16C,0.935000*%
%ADD17C,1.020000*%
%ADD18C,0.203200*%
%ADD19C,0.304800*%
%ADD20C,0.127000*%
%ADD21C,0.680000*%
%ADD22C,0.850000*%
%ADD23C,0.152400*%
%ADD24C,0.406400*%
%ADD25C,0.609600*%
%ADD26C,1.016000*%

G36*
X1462315Y75870D02*
X1462315Y75870D01*
X1462432Y75870D01*
X1462515Y75887D01*
X1462600Y75894D01*
X1462712Y75927D01*
X1462827Y75951D01*
X1462920Y75988D01*
X1462986Y76007D01*
X1463046Y76039D01*
X1463134Y76074D01*
X1482104Y85559D01*
X1482133Y85577D01*
X1482163Y85590D01*
X1482302Y85684D01*
X1482445Y85774D01*
X1482469Y85797D01*
X1482496Y85816D01*
X1482615Y85936D01*
X1482736Y86052D01*
X1482755Y86079D01*
X1482779Y86103D01*
X1482871Y86244D01*
X1482967Y86382D01*
X1482981Y86412D01*
X1482999Y86440D01*
X1483061Y86596D01*
X1483129Y86751D01*
X1483136Y86783D01*
X1483148Y86814D01*
X1483178Y86979D01*
X1483214Y87144D01*
X1483214Y87177D01*
X1483220Y87210D01*
X1483218Y87378D01*
X1483220Y87547D01*
X1483214Y87579D01*
X1483213Y87613D01*
X1483177Y87777D01*
X1483147Y87942D01*
X1483134Y87973D01*
X1483127Y88006D01*
X1483059Y88160D01*
X1482997Y88316D01*
X1482978Y88344D01*
X1482965Y88374D01*
X1482868Y88512D01*
X1482776Y88653D01*
X1482752Y88676D01*
X1482733Y88704D01*
X1482611Y88819D01*
X1482493Y88939D01*
X1482466Y88958D01*
X1482441Y88981D01*
X1482163Y89162D01*
X1482159Y89164D01*
X1463193Y99438D01*
X1463018Y99511D01*
X1462841Y99587D01*
X1462831Y99589D01*
X1462822Y99593D01*
X1462636Y99631D01*
X1462447Y99671D01*
X1462437Y99671D01*
X1462427Y99673D01*
X1462236Y99673D01*
X1462044Y99675D01*
X1462035Y99673D01*
X1462025Y99673D01*
X1461837Y99635D01*
X1461649Y99599D01*
X1461640Y99595D01*
X1461630Y99593D01*
X1461455Y99520D01*
X1461276Y99447D01*
X1461268Y99441D01*
X1461259Y99438D01*
X1461101Y99331D01*
X1460941Y99224D01*
X1460934Y99217D01*
X1460926Y99212D01*
X1460791Y99075D01*
X1460656Y98940D01*
X1460650Y98932D01*
X1460643Y98925D01*
X1460538Y98763D01*
X1460432Y98605D01*
X1460429Y98596D01*
X1460423Y98588D01*
X1460352Y98408D01*
X1460280Y98232D01*
X1460278Y98223D01*
X1460274Y98214D01*
X1460240Y98025D01*
X1460203Y97837D01*
X1460203Y97826D01*
X1460202Y97818D01*
X1460203Y97762D01*
X1460200Y97505D01*
X1460621Y91679D01*
X1460196Y77954D01*
X1460204Y77837D01*
X1460202Y77720D01*
X1460217Y77637D01*
X1460223Y77552D01*
X1460254Y77439D01*
X1460275Y77325D01*
X1460307Y77246D01*
X1460329Y77164D01*
X1460382Y77059D01*
X1460425Y76951D01*
X1460472Y76880D01*
X1460510Y76804D01*
X1460582Y76712D01*
X1460646Y76614D01*
X1460706Y76554D01*
X1460758Y76487D01*
X1460847Y76411D01*
X1460929Y76328D01*
X1460999Y76280D01*
X1461064Y76225D01*
X1461166Y76168D01*
X1461263Y76103D01*
X1461341Y76070D01*
X1461415Y76029D01*
X1461527Y75993D01*
X1461634Y75948D01*
X1461718Y75931D01*
X1461799Y75905D01*
X1461915Y75892D01*
X1462029Y75869D01*
X1462114Y75869D01*
X1462199Y75860D01*
X1462315Y75870D01*
G37*
D10*
X0Y-23000D02*
X3000Y-26000D01*
X17000Y-26000D01*
X39750Y136500D02*
X252500Y136500D01*
X39750Y136500D02*
X23750Y120500D01*
X7000Y120500D01*
X0Y113500D01*
X0Y107500D01*
X0Y94000D02*
X0Y75000D01*
X1000Y74000D01*
X4000Y74000D01*
X5000Y73000D01*
X5000Y70000D02*
X4000Y69000D01*
X1000Y69000D01*
X0Y68000D01*
X5000Y70000D02*
X5000Y73000D01*
X0Y68000D02*
X0Y42500D01*
X1000Y41500D01*
X4000Y41500D01*
X5000Y40500D01*
X5000Y37500D02*
X4000Y36500D01*
X1000Y36500D01*
X0Y35500D01*
X5000Y37500D02*
X5000Y40500D01*
X0Y-16500D02*
X0Y-23000D01*
X0Y-3000D02*
X0Y9500D01*
X0Y16500D02*
X0Y35500D01*
X0Y-3000D02*
X1000Y-4000D01*
X4000Y-4000D02*
X5000Y-5000D01*
X4000Y-4000D02*
X1000Y-4000D01*
X5000Y-5000D02*
X5000Y-14500D01*
X4000Y-15500D01*
X1000Y-15500D01*
X0Y-16500D01*
X1000Y106500D02*
X0Y107500D01*
X1000Y106500D02*
X4000Y106500D01*
X5000Y105500D01*
X5000Y96000D01*
X4000Y95000D01*
X1000Y95000D01*
X0Y94000D01*
X252500Y136500D02*
X294500Y94500D01*
X1427610Y94500D01*
X1466610Y133500D01*
X1490010Y133500D01*
X1494000Y129500D01*
X1494000Y-70000D01*
X1490500Y-73500D01*
X1355000Y-74000D01*
X1293500Y-12500D01*
X390500Y-12000D01*
X368000Y-34500D01*
X25500Y-34500D01*
X1000Y15500D02*
X0Y16500D01*
X1000Y15500D02*
X4000Y15500D01*
X5000Y14500D01*
X5000Y11500D01*
X4000Y10500D01*
X1000Y10500D01*
X0Y9500D01*
X17000Y-26000D02*
X25500Y-34500D01*
D11*
X2000Y91000D03*
X2000Y84500D03*
X2000Y78000D03*
X2000Y65000D03*
X2000Y58500D03*
X2000Y52000D03*
X2000Y45500D03*
X2000Y32500D03*
X2000Y26000D03*
X2000Y19500D03*
X2000Y6500D03*
X2000Y0D03*
X2000Y-19500D03*
X2000Y110500D03*
D12*
X1487190Y38110D03*
X1487190Y-63490D03*
X1487190Y-50790D03*
X1487190Y-38090D03*
X1487190Y-25390D03*
X1487190Y-12690D03*
X1487190Y10D03*
X1487190Y12710D03*
X1487190Y25410D03*
D13*
X1482110Y87640D03*
X1482110Y119390D03*
D12*
X1487190Y50810D03*
X1487190Y63510D03*
D14*
X6500Y0D03*
X0Y0D03*
D15*
X2000Y0D02*
X13500Y0D01*
D14*
X0Y65000D03*
X6500Y65000D03*
X0Y110500D03*
X6500Y110500D03*
X0Y6500D03*
D16*
X44516Y-22388D03*
D14*
X0Y-19500D03*
X6500Y-19500D03*
X6500Y6500D03*
X6500Y32500D03*
X0Y32500D03*
D17*
X1494642Y87376D03*
X1481942Y87376D03*
D18*
X195143Y63626D02*
X195143Y63626D01*
X186742Y60146D01*
X186742Y60146D01*
X184782Y58186D01*
X184782Y58186D01*
X179300Y52704D01*
X179300Y52704D01*
X177904Y51309D01*
X177904Y51309D01*
X174155Y44815D01*
X174155Y44815D01*
X172594Y38990D01*
X171061Y37456D01*
X170084Y35098D01*
X170084Y32546D01*
X171061Y30188D01*
X172866Y28383D01*
X175224Y27406D01*
X177776Y27406D01*
X180134Y28383D01*
X181939Y30188D01*
X182916Y32546D01*
X182916Y35098D01*
X181939Y37456D01*
X181383Y38013D01*
X182301Y41440D01*
X184900Y45941D01*
X186616Y47898D01*
X189588Y50870D01*
X191753Y52646D01*
X196902Y54780D01*
X199689Y55054D01*
X1424276Y55054D01*
X1423895Y54800D01*
X1422824Y53729D01*
X1421982Y52469D01*
X1421403Y51069D01*
X1421107Y49584D01*
X1421107Y49185D01*
X1428439Y49185D01*
X1428439Y48467D01*
X1421107Y48467D01*
X1421107Y48068D01*
X1421403Y46583D01*
X1421982Y45183D01*
X1422824Y43923D01*
X1423144Y43604D01*
X1419605Y45647D01*
X1418058Y47003D01*
X1416837Y48224D01*
X1416803Y48259D01*
X1416775Y48286D01*
X1416775Y48286D01*
X1415753Y49308D01*
X1415753Y49308D01*
X1410175Y52529D01*
X1410175Y52529D01*
X1403953Y54196D01*
X216023Y54196D01*
X208473Y52173D01*
X208473Y52173D01*
X201703Y48265D01*
X200195Y46756D01*
X200195Y46756D01*
X181654Y28215D01*
X181654Y28215D01*
X180145Y26707D01*
X180145Y26707D01*
X180145Y26707D01*
X176237Y19937D01*
X176237Y19937D01*
X174214Y12387D01*
X174214Y2288D01*
X173061Y1134D01*
X172084Y-1224D01*
X172084Y-3776D01*
X173061Y-6134D01*
X174866Y-7939D01*
X177224Y-8916D01*
X179776Y-8916D01*
X182134Y-7939D01*
X183939Y-6134D01*
X184916Y-3776D01*
X184916Y-1224D01*
X183939Y1134D01*
X182786Y2288D01*
X182786Y8479D01*
X182967Y11235D01*
X184393Y16559D01*
X187149Y21332D01*
X188970Y23409D01*
X205001Y39440D01*
X207078Y41261D01*
X207078Y41261D01*
X211851Y44017D01*
X217175Y45443D01*
X219931Y45624D01*
X1400732Y45624D01*
X1402806Y45488D01*
X1406814Y44414D01*
X1407810Y43839D01*
X1407489Y43775D01*
X1406089Y43196D01*
X1404829Y42354D01*
X1403758Y41283D01*
X1402916Y40023D01*
X1402337Y38623D01*
X1402041Y37138D01*
X1402041Y36739D01*
X1409373Y36739D01*
X1409373Y36021D01*
X1402041Y36021D01*
X1402041Y35622D01*
X1402161Y35021D01*
X1401181Y35880D01*
X1396775Y40286D01*
X1396775Y40286D01*
X1395166Y41895D01*
X1395166Y41895D01*
X1387680Y44996D01*
X229664Y44996D01*
X229390Y45202D01*
X227930Y44996D01*
X226456Y44996D01*
X226213Y44754D01*
X224412Y44499D01*
X218425Y41954D01*
X218425Y41954D01*
X213302Y37946D01*
X213302Y37946D01*
X211400Y35420D01*
X200723Y22416D01*
X199724Y22416D01*
X197366Y21439D01*
X195561Y19634D01*
X194584Y17276D01*
X194584Y14724D01*
X195561Y12366D01*
X197366Y10561D01*
X199724Y9584D01*
X202276Y9584D01*
X204634Y10561D01*
X206439Y12366D01*
X207416Y14724D01*
X207416Y17060D01*
X217023Y28760D01*
X217127Y28775D01*
X218140Y30121D01*
X218303Y30319D01*
X219571Y31793D01*
X222889Y34387D01*
X226764Y36035D01*
X228628Y36424D01*
X1383629Y36424D01*
X1385930Y36197D01*
X1390182Y34436D01*
X1390474Y34197D01*
X1390464Y34197D01*
X1388979Y33901D01*
X1387579Y33322D01*
X1386319Y32480D01*
X1385248Y31409D01*
X1384406Y30149D01*
X1383827Y28749D01*
X1383531Y27264D01*
X1383531Y26865D01*
X1390863Y26865D01*
X1390863Y26147D01*
X1383531Y26147D01*
X1383531Y25748D01*
X1383585Y25476D01*
X1380205Y28856D01*
X1380205Y28856D01*
X1378697Y30365D01*
X1378697Y30365D01*
X1371927Y34273D01*
X1371927Y34273D01*
X1364377Y36296D01*
X246123Y36296D01*
X238573Y34273D01*
X238573Y34273D01*
X231803Y30365D01*
X231803Y30365D01*
X230295Y28856D01*
X230295Y28856D01*
X227889Y26450D01*
X227785Y26346D01*
X227785Y26346D01*
X217855Y16416D01*
X216224Y16416D01*
X213866Y15439D01*
X212061Y13634D01*
X211084Y11276D01*
X211084Y8724D01*
X212061Y6366D01*
X213866Y4561D01*
X216224Y3584D01*
X218776Y3584D01*
X221134Y4561D01*
X222939Y6366D01*
X223916Y8724D01*
X223916Y10355D01*
X233846Y20285D01*
X233846Y20285D01*
X233950Y20389D01*
X235101Y21540D01*
X237178Y23361D01*
X241951Y26117D01*
X247275Y27543D01*
X250031Y27724D01*
X250897Y27724D01*
X246793Y25355D01*
X246793Y25355D01*
X245285Y23846D01*
X245285Y23846D01*
X242879Y21440D01*
X242775Y21336D01*
X242775Y21336D01*
X237855Y16416D01*
X236224Y16416D01*
X233866Y15439D01*
X232061Y13634D01*
X231084Y11276D01*
X231084Y8724D01*
X232061Y6366D01*
X233866Y4561D01*
X236224Y3584D01*
X238776Y3584D01*
X241134Y4561D01*
X242939Y6366D01*
X243916Y8724D01*
X243916Y10355D01*
X248836Y15275D01*
X248836Y15275D01*
X248940Y15379D01*
X250091Y16530D01*
X252168Y18351D01*
X256941Y21107D01*
X262265Y22533D01*
X265021Y22714D01*
X265880Y22714D01*
X261793Y20355D01*
X261793Y20355D01*
X260285Y18846D01*
X260285Y18846D01*
X257879Y16440D01*
X257855Y16416D01*
X256224Y16416D01*
X253866Y15439D01*
X252061Y13634D01*
X251084Y11276D01*
X251084Y8724D01*
X252061Y6366D01*
X253866Y4561D01*
X256224Y3584D01*
X258776Y3584D01*
X261134Y4561D01*
X262939Y6366D01*
X263916Y8724D01*
X263916Y10355D01*
X263940Y10379D01*
X265091Y11530D01*
X267168Y13351D01*
X271941Y16107D01*
X277265Y17533D01*
X280021Y17714D01*
X280660Y17714D01*
X278412Y16416D01*
X276224Y16416D01*
X273866Y15439D01*
X272061Y13634D01*
X271084Y11276D01*
X271084Y8724D01*
X272061Y6366D01*
X273866Y4561D01*
X276224Y3584D01*
X278776Y3584D01*
X281134Y4561D01*
X282939Y6366D01*
X283916Y8724D01*
X283916Y9502D01*
X286894Y11221D01*
X291839Y12546D01*
X294399Y12714D01*
X1339479Y12714D01*
X1342802Y12496D01*
X1349222Y10776D01*
X1354978Y7453D01*
X1357481Y5257D01*
X1382465Y-19726D01*
X1382481Y-19743D01*
X1384975Y-22236D01*
X1384975Y-22236D01*
X1386483Y-23745D01*
X1386483Y-23745D01*
X1393253Y-27653D01*
X1393253Y-27653D01*
X1400803Y-29676D01*
X1469211Y-29676D01*
X1469211Y-33804D01*
X1381411Y-33804D01*
X1378655Y-33623D01*
X1373331Y-32197D01*
X1368558Y-29441D01*
X1366481Y-27620D01*
X1365243Y-26381D01*
X1365226Y-26365D01*
X1337288Y1574D01*
X1337288Y1574D01*
X1335375Y3486D01*
X1335375Y3486D01*
X1327615Y7967D01*
X1327615Y7967D01*
X1318959Y10286D01*
X356113Y10286D01*
X348563Y8263D01*
X348563Y8263D01*
X341793Y4355D01*
X341793Y4355D01*
X340285Y2846D01*
X340285Y2846D01*
X337878Y439D01*
X337775Y336D01*
X325855Y-11584D01*
X324224Y-11584D01*
X321866Y-12561D01*
X320061Y-14366D01*
X319084Y-16724D01*
X319084Y-19276D01*
X320061Y-21634D01*
X321866Y-23439D01*
X324224Y-24416D01*
X326776Y-24416D01*
X329134Y-23439D01*
X330939Y-21634D01*
X331916Y-19276D01*
X331916Y-17645D01*
X343836Y-5725D01*
X343939Y-5622D01*
X345091Y-4470D01*
X347168Y-2649D01*
X351941Y107D01*
X357265Y1533D01*
X360021Y1714D01*
X360880Y1714D01*
X356793Y-645D01*
X356793Y-645D01*
X355285Y-2154D01*
X355285Y-2154D01*
X352878Y-4561D01*
X352775Y-4664D01*
X352775Y-4664D01*
X345855Y-11584D01*
X344224Y-11584D01*
X341866Y-12561D01*
X340061Y-14366D01*
X339084Y-16724D01*
X339084Y-19276D01*
X340061Y-21634D01*
X341866Y-23439D01*
X344224Y-24416D01*
X346776Y-24416D01*
X349134Y-23439D01*
X350939Y-21634D01*
X351916Y-19276D01*
X351916Y-17645D01*
X358836Y-10725D01*
X358836Y-10725D01*
X358940Y-10622D01*
X360091Y-9470D01*
X362168Y-7649D01*
X366941Y-4893D01*
X372265Y-3467D01*
X375021Y-3286D01*
X375880Y-3286D01*
X371793Y-5645D01*
X371793Y-5645D01*
X370285Y-7154D01*
X370285Y-7154D01*
X367878Y-9561D01*
X367775Y-9664D01*
X365855Y-11584D01*
X364224Y-11584D01*
X361866Y-12561D01*
X360061Y-14366D01*
X359084Y-16724D01*
X359084Y-19276D01*
X360061Y-21634D01*
X361866Y-23439D01*
X364224Y-24416D01*
X366776Y-24416D01*
X369134Y-23439D01*
X370939Y-21634D01*
X371916Y-19276D01*
X371916Y-17645D01*
X373836Y-15725D01*
X373939Y-15622D01*
X375091Y-14470D01*
X377168Y-12649D01*
X381941Y-9893D01*
X387265Y-8467D01*
X390021Y-8286D01*
X1300479Y-8286D01*
X1303802Y-8504D01*
X1310222Y-10224D01*
X1315978Y-13547D01*
X1318481Y-15743D01*
X1335472Y-32733D01*
X1334968Y-32633D01*
X1334569Y-32633D01*
X1334569Y-39965D01*
X1333851Y-39965D01*
X1333851Y-32633D01*
X1333452Y-32633D01*
X1331967Y-32929D01*
X1330567Y-33508D01*
X1329307Y-34350D01*
X1328236Y-35421D01*
X1327394Y-36681D01*
X1326815Y-38081D01*
X1326519Y-39566D01*
X1326519Y-39965D01*
X1333851Y-39965D01*
X1333851Y-40683D01*
X1326519Y-40683D01*
X1326519Y-41082D01*
X1326562Y-41297D01*
X1295648Y-10383D01*
X1294751Y-9485D01*
X1294750Y-9485D01*
X1294749Y-9484D01*
X1293510Y-9484D01*
X391750Y-8985D01*
X391749Y-8984D01*
X390493Y-8984D01*
X389252Y-8983D01*
X389252Y-8984D01*
X389251Y-8984D01*
X388382Y-9853D01*
X387485Y-10749D01*
X387485Y-10750D01*
X366751Y-31484D01*
X26749Y-31484D01*
X18249Y-22984D01*
X11520Y-22984D01*
X11560Y-22914D01*
X11766Y-22147D01*
X11766Y-20271D01*
X11786Y-20196D01*
X11786Y-19500D01*
X6500Y-19500D01*
X6500Y-19500D01*
X11786Y-19500D01*
X11786Y-18804D01*
X11766Y-18729D01*
X11766Y-16853D01*
X11578Y-16151D01*
X13884Y-16151D01*
X14851Y-15184D01*
X14851Y-4286D01*
X15275Y-4286D01*
X17786Y-1775D01*
X17786Y1775D01*
X15275Y4286D01*
X11766Y4286D01*
X11766Y5729D01*
X11786Y5804D01*
X11786Y6500D01*
X6500Y6500D01*
X6500Y6500D01*
X11786Y6500D01*
X11786Y7196D01*
X11766Y7271D01*
X11766Y9147D01*
X11578Y9849D01*
X13884Y9849D01*
X14851Y10816D01*
X14851Y15214D01*
X15175Y15214D01*
X17686Y17725D01*
X17686Y21275D01*
X16261Y22700D01*
X17786Y24225D01*
X17786Y27775D01*
X15275Y30286D01*
X11766Y30286D01*
X11766Y31729D01*
X11786Y31804D01*
X11786Y32500D01*
X6500Y32500D01*
X6500Y32500D01*
X11786Y32500D01*
X11786Y33196D01*
X11766Y33271D01*
X11766Y35147D01*
X11578Y35849D01*
X13884Y35849D01*
X14851Y36816D01*
X14851Y41214D01*
X15375Y41214D01*
X17886Y43725D01*
X17886Y47275D01*
X16311Y48850D01*
X17686Y50225D01*
X17686Y53775D01*
X16261Y55200D01*
X17786Y56725D01*
X17786Y60275D01*
X15275Y62786D01*
X11766Y62786D01*
X11766Y64229D01*
X11786Y64304D01*
X11786Y65000D01*
X6500Y65000D01*
X6500Y65000D01*
X11786Y65000D01*
X11786Y65696D01*
X11766Y65771D01*
X11766Y67647D01*
X11578Y68349D01*
X13884Y68349D01*
X14851Y69316D01*
X14851Y73714D01*
X15275Y73714D01*
X17786Y76225D01*
X17786Y79775D01*
X16261Y81300D01*
X17686Y82725D01*
X17686Y86275D01*
X16211Y87750D01*
X17686Y89225D01*
X17686Y92775D01*
X15175Y95286D01*
X14851Y95286D01*
X14851Y105804D01*
X13884Y106771D01*
X11536Y106771D01*
X11766Y107001D01*
X11766Y109729D01*
X11786Y109804D01*
X11786Y110500D01*
X11766Y110500D01*
X11766Y110500D01*
X11786Y110500D01*
X11786Y111196D01*
X11766Y111271D01*
X11766Y113999D01*
X9999Y115766D01*
X7271Y115766D01*
X7196Y115786D01*
X6551Y115786D01*
X8249Y117484D01*
X24999Y117484D01*
X26766Y119251D01*
X40999Y133484D01*
X148237Y133484D01*
X146594Y132803D01*
X144317Y130526D01*
X143084Y127550D01*
X143084Y124330D01*
X144317Y121354D01*
X146594Y119077D01*
X149570Y117844D01*
X178190Y117844D01*
X181166Y119077D01*
X181965Y119876D01*
X240559Y119876D01*
X243083Y119711D01*
X247959Y118404D01*
X252330Y115880D01*
X254232Y114213D01*
X282237Y86208D01*
X282237Y86208D01*
X284013Y84432D01*
X286942Y81503D01*
X286942Y81503D01*
X294116Y77360D01*
X294116Y77360D01*
X302119Y75216D01*
X1419071Y75216D01*
X1427074Y77360D01*
X1427074Y77360D01*
X1434248Y81503D01*
X1434248Y81503D01*
X1437177Y84432D01*
X1438953Y86208D01*
X1438953Y86208D01*
X1458632Y105887D01*
X1458632Y105887D01*
X1460408Y107663D01*
X1462310Y109330D01*
X1466459Y111726D01*
X1468161Y110024D01*
X1470981Y110024D01*
X1470981Y109806D01*
X1471948Y108839D01*
X1490984Y108839D01*
X1490984Y97006D01*
X1483126Y97006D01*
X1483126Y95415D01*
X1482741Y95492D01*
X1482426Y95492D01*
X1482426Y88656D01*
X1481458Y88656D01*
X1481458Y95492D01*
X1481143Y95492D01*
X1481094Y95482D01*
X1481094Y97006D01*
X1471280Y97006D01*
X1471761Y98169D01*
X1472057Y99654D01*
X1472057Y100053D01*
X1464725Y100053D01*
X1464725Y100771D01*
X1472057Y100771D01*
X1472057Y101170D01*
X1471761Y102655D01*
X1471182Y104055D01*
X1470340Y105315D01*
X1469269Y106386D01*
X1468009Y107228D01*
X1466609Y107807D01*
X1465124Y108103D01*
X1464725Y108103D01*
X1464725Y100771D01*
X1464007Y100771D01*
X1464007Y108103D01*
X1463608Y108103D01*
X1462123Y107807D01*
X1460723Y107228D01*
X1459463Y106386D01*
X1458392Y105315D01*
X1457550Y104055D01*
X1456971Y102655D01*
X1456675Y101170D01*
X1456675Y100771D01*
X1464007Y100771D01*
X1464007Y100053D01*
X1456675Y100053D01*
X1456675Y99654D01*
X1456971Y98169D01*
X1457550Y96769D01*
X1458392Y95509D01*
X1459463Y94438D01*
X1460723Y93596D01*
X1462123Y93017D01*
X1463608Y92721D01*
X1464007Y92721D01*
X1464007Y100053D01*
X1464725Y100053D01*
X1464725Y92721D01*
X1465124Y92721D01*
X1466394Y92974D01*
X1466394Y88656D01*
X1473922Y88656D01*
X1473826Y88175D01*
X1473826Y87860D01*
X1481094Y87860D01*
X1481094Y86892D01*
X1473826Y86892D01*
X1473826Y86624D01*
X1466394Y86624D01*
X1466394Y80893D01*
X1466600Y80126D01*
X1466997Y79438D01*
X1467558Y78877D01*
X1468246Y78480D01*
X1469013Y78274D01*
X1481094Y78274D01*
X1481094Y79270D01*
X1481143Y79260D01*
X1481458Y79260D01*
X1481458Y86624D01*
X1482426Y86624D01*
X1482426Y79260D01*
X1482741Y79260D01*
X1483126Y79337D01*
X1483126Y78274D01*
X1490984Y78274D01*
X1490984Y72671D01*
X1490884Y72771D01*
X1470178Y72771D01*
X1469211Y71804D01*
X1469211Y68132D01*
X1463790Y68725D01*
X1458187Y70219D01*
X1458112Y70334D01*
X1456490Y70672D01*
X1454889Y71099D01*
X1454770Y71030D01*
X1445629Y72934D01*
X1445281Y73284D01*
X1443945Y73285D01*
X1442636Y73558D01*
X1442224Y73288D01*
X1437768Y73294D01*
X1437765Y73296D01*
X1436002Y73296D01*
X1434220Y73298D01*
X1434218Y73296D01*
X188837Y73296D01*
X188447Y73558D01*
X187114Y73296D01*
X185756Y73296D01*
X185424Y72964D01*
X182511Y72392D01*
X182511Y72392D01*
X176720Y69553D01*
X176730Y69567D01*
X177309Y70967D01*
X177605Y72452D01*
X177605Y72851D01*
X170273Y72851D01*
X170273Y73569D01*
X177605Y73569D01*
X177605Y73968D01*
X177309Y75453D01*
X176730Y76853D01*
X175888Y78113D01*
X174817Y79184D01*
X173557Y80026D01*
X172157Y80605D01*
X170672Y80901D01*
X170273Y80901D01*
X170273Y73569D01*
X169555Y73569D01*
X169555Y80901D01*
X169156Y80901D01*
X167671Y80605D01*
X166271Y80026D01*
X165011Y79184D01*
X163940Y78113D01*
X163098Y76853D01*
X162519Y75453D01*
X162223Y73968D01*
X162223Y73569D01*
X169555Y73569D01*
X169555Y72851D01*
X162223Y72851D01*
X162223Y72452D01*
X162519Y70967D01*
X163098Y69567D01*
X163940Y68307D01*
X165011Y67236D01*
X166271Y66394D01*
X167671Y65815D01*
X169156Y65519D01*
X169555Y65519D01*
X169555Y72851D01*
X170273Y72851D01*
X170273Y65519D01*
X170672Y65519D01*
X171449Y65674D01*
X168395Y63008D01*
X168395Y63008D01*
X168395Y63008D01*
X166245Y59806D01*
X166221Y59783D01*
X164214Y57775D01*
X164214Y57775D01*
X163322Y56884D01*
X163322Y56884D01*
X160286Y51624D01*
X160286Y51624D01*
X158714Y45758D01*
X158714Y44471D01*
X158696Y44452D01*
X158714Y42697D01*
X158714Y40946D01*
X158733Y40928D01*
X159164Y-262D01*
X158061Y-1366D01*
X157084Y-3724D01*
X157084Y-6276D01*
X158061Y-8634D01*
X159866Y-10439D01*
X162224Y-11416D01*
X164776Y-11416D01*
X167134Y-10439D01*
X168939Y-8634D01*
X169916Y-6276D01*
X169916Y-3724D01*
X168939Y-1366D01*
X167736Y-162D01*
X167286Y42725D01*
X167410Y44613D01*
X168389Y48268D01*
X170281Y51544D01*
X171530Y52969D01*
X171678Y53117D01*
X172139Y53207D01*
X172896Y54335D01*
X173856Y55295D01*
X173856Y55625D01*
X175037Y57156D01*
X179736Y61257D01*
X185337Y64003D01*
X188054Y64724D01*
X1435989Y64724D01*
X1443055Y64715D01*
X1443680Y64585D01*
X1443324Y64229D01*
X1442482Y62969D01*
X1441903Y61569D01*
X1441607Y60084D01*
X1441607Y59685D01*
X1448939Y59685D01*
X1448939Y58967D01*
X1441607Y58967D01*
X1441607Y58568D01*
X1441728Y57959D01*
X1441303Y58385D01*
X1441285Y58402D01*
X1441045Y58642D01*
X1441045Y58642D01*
X1439304Y60383D01*
X1439304Y60383D01*
X1431475Y63626D01*
X197914Y63626D01*
X195143Y63626D01*
X85003Y67259D02*
X85003Y74591D01*
X85003Y67259D02*
X84285Y67259D01*
X84285Y74591D01*
X83886Y74591D01*
X82401Y74295D01*
X81001Y73716D01*
X79741Y72874D01*
X78670Y71803D01*
X77828Y70543D01*
X77249Y69143D01*
X76953Y67658D01*
X76953Y67259D01*
X84285Y67259D01*
X84285Y66541D01*
X76953Y66541D01*
X76953Y66142D01*
X77249Y64657D01*
X77828Y63257D01*
X78670Y61997D01*
X79741Y60926D01*
X81001Y60084D01*
X82401Y59505D01*
X83886Y59209D01*
X84285Y59209D01*
X84285Y66541D01*
X85003Y66541D01*
X85003Y59209D01*
X85402Y59209D01*
X86887Y59505D01*
X88287Y60084D01*
X89547Y60926D01*
X90618Y61997D01*
X91460Y63257D01*
X92039Y64657D01*
X92335Y66142D01*
X92335Y66541D01*
X85003Y66541D01*
X85003Y67259D01*
X92335Y67259D01*
X92335Y67658D01*
X92039Y69143D01*
X91460Y70543D01*
X90618Y71803D01*
X89547Y72874D01*
X88287Y73716D01*
X86887Y74295D01*
X85402Y74591D01*
X85003Y74591D01*
X195877Y110471D02*
X195877Y117803D01*
X195877Y110471D02*
X195159Y110471D01*
X195159Y117803D01*
X194760Y117803D01*
X193275Y117507D01*
X191875Y116928D01*
X190615Y116086D01*
X189544Y115015D01*
X188702Y113755D01*
X188123Y112355D01*
X187827Y110870D01*
X187827Y110471D01*
X195159Y110471D01*
X195159Y109753D01*
X187827Y109753D01*
X187827Y109354D01*
X188123Y107869D01*
X188702Y106469D01*
X189544Y105209D01*
X190615Y104138D01*
X191875Y103296D01*
X193275Y102717D01*
X194760Y102421D01*
X195159Y102421D01*
X195159Y109753D01*
X195877Y109753D01*
X195877Y102421D01*
X196276Y102421D01*
X197761Y102717D01*
X199161Y103296D01*
X200421Y104138D01*
X201492Y105209D01*
X202334Y106469D01*
X202913Y107869D01*
X203209Y109354D01*
X203209Y109753D01*
X195877Y109753D01*
X195877Y110471D01*
X203209Y110471D01*
X203209Y110870D01*
X202913Y112355D01*
X202334Y113755D01*
X201492Y115015D01*
X200421Y116086D01*
X199161Y116928D01*
X197761Y117507D01*
X196276Y117803D01*
X195877Y117803D01*
X163911Y-12317D02*
X163911Y-19649D01*
X163193Y-19649D01*
X163193Y-12317D01*
X162794Y-12317D01*
X161309Y-12613D01*
X159909Y-13192D01*
X158649Y-14034D01*
X157578Y-15105D01*
X156736Y-16365D01*
X156157Y-17765D01*
X155861Y-19250D01*
X155861Y-19649D01*
X163193Y-19649D01*
X163193Y-20367D01*
X155861Y-20367D01*
X155861Y-20766D01*
X156157Y-22251D01*
X156736Y-23651D01*
X157578Y-24911D01*
X158649Y-25982D01*
X159909Y-26824D01*
X161309Y-27403D01*
X162794Y-27699D01*
X163193Y-27699D01*
X163193Y-20367D01*
X163911Y-20367D01*
X163911Y-27699D01*
X164310Y-27699D01*
X165795Y-27403D01*
X167195Y-26824D01*
X168455Y-25982D01*
X169526Y-24911D01*
X170368Y-23651D01*
X170947Y-22251D01*
X171243Y-20766D01*
X171243Y-20367D01*
X163911Y-20367D01*
X163911Y-19649D01*
X171243Y-19649D01*
X171243Y-19250D01*
X170947Y-17765D01*
X170368Y-16365D01*
X169526Y-15105D01*
X168455Y-14034D01*
X167195Y-13192D01*
X165795Y-12613D01*
X164310Y-12317D01*
X163911Y-12317D01*
X28003Y38247D02*
X28003Y45579D01*
X28003Y38247D02*
X27285Y38247D01*
X27285Y45579D01*
X26886Y45579D01*
X25401Y45283D01*
X24001Y44704D01*
X22741Y43862D01*
X21670Y42791D01*
X20828Y41531D01*
X20249Y40131D01*
X19953Y38646D01*
X19953Y38247D01*
X27285Y38247D01*
X27285Y37529D01*
X19953Y37529D01*
X19953Y37130D01*
X20249Y35645D01*
X20828Y34245D01*
X21670Y32985D01*
X22741Y31914D01*
X24001Y31072D01*
X25401Y30493D01*
X26886Y30197D01*
X27285Y30197D01*
X27285Y37529D01*
X28003Y37529D01*
X28003Y30197D01*
X28402Y30197D01*
X29887Y30493D01*
X31287Y31072D01*
X32547Y31914D01*
X33618Y32985D01*
X34460Y34245D01*
X35039Y35645D01*
X35335Y37130D01*
X35335Y37529D01*
X28003Y37529D01*
X28003Y38247D01*
X35335Y38247D01*
X35335Y38646D01*
X35039Y40131D01*
X34460Y41531D01*
X33618Y42791D01*
X32547Y43862D01*
X31287Y44704D01*
X29887Y45283D01*
X28402Y45579D01*
X28003Y45579D01*
X301041Y-10353D02*
X301041Y-17685D01*
X300323Y-17685D01*
X300323Y-10353D01*
X299924Y-10353D01*
X298439Y-10649D01*
X297039Y-11228D01*
X295779Y-12070D01*
X294708Y-13141D01*
X293866Y-14401D01*
X293287Y-15801D01*
X292991Y-17286D01*
X292991Y-17685D01*
X300323Y-17685D01*
X300323Y-18403D01*
X292991Y-18403D01*
X292991Y-18802D01*
X293287Y-20287D01*
X293866Y-21687D01*
X294708Y-22947D01*
X295779Y-24018D01*
X297039Y-24860D01*
X298439Y-25439D01*
X299924Y-25735D01*
X300323Y-25735D01*
X300323Y-18403D01*
X301041Y-18403D01*
X301041Y-25735D01*
X301440Y-25735D01*
X302925Y-25439D01*
X304325Y-24860D01*
X305585Y-24018D01*
X306656Y-22947D01*
X307498Y-21687D01*
X308077Y-20287D01*
X308373Y-18802D01*
X308373Y-18403D01*
X301041Y-18403D01*
X301041Y-17685D01*
X308373Y-17685D01*
X308373Y-17286D01*
X308077Y-15801D01*
X307498Y-14401D01*
X306656Y-13141D01*
X305585Y-12070D01*
X304325Y-11228D01*
X302925Y-10649D01*
X301440Y-10353D01*
X301041Y-10353D01*
X106377Y99471D02*
X106377Y106803D01*
X106377Y99471D02*
X105659Y99471D01*
X105659Y106803D01*
X105260Y106803D01*
X103775Y106507D01*
X102375Y105928D01*
X101115Y105086D01*
X100044Y104015D01*
X99202Y102755D01*
X98623Y101355D01*
X98327Y99870D01*
X98327Y99471D01*
X105659Y99471D01*
X105659Y98753D01*
X98327Y98753D01*
X98327Y98354D01*
X98623Y96869D01*
X99202Y95469D01*
X100044Y94209D01*
X101115Y93138D01*
X102375Y92296D01*
X103775Y91717D01*
X105260Y91421D01*
X105659Y91421D01*
X105659Y98753D01*
X106377Y98753D01*
X106377Y91421D01*
X106776Y91421D01*
X108261Y91717D01*
X109661Y92296D01*
X110921Y93138D01*
X111992Y94209D01*
X112834Y95469D01*
X113413Y96869D01*
X113709Y98354D01*
X113709Y98753D01*
X106377Y98753D01*
X106377Y99471D01*
X113709Y99471D01*
X113709Y99870D01*
X113413Y101355D01*
X112834Y102755D01*
X111992Y104015D01*
X110921Y105086D01*
X109661Y105928D01*
X108261Y106507D01*
X106776Y106803D01*
X106377Y106803D01*
X44875Y-14697D02*
X44875Y-22029D01*
X44157Y-22029D01*
X44157Y-14697D01*
X43758Y-14697D01*
X42273Y-14993D01*
X40873Y-15572D01*
X39613Y-16414D01*
X38542Y-17485D01*
X37700Y-18745D01*
X37121Y-20145D01*
X36825Y-21630D01*
X36825Y-22029D01*
X44157Y-22029D01*
X44157Y-22747D01*
X36825Y-22747D01*
X36825Y-23146D01*
X37121Y-24631D01*
X37700Y-26031D01*
X38542Y-27291D01*
X39613Y-28362D01*
X40873Y-29204D01*
X42273Y-29783D01*
X43758Y-30079D01*
X44157Y-30079D01*
X44157Y-22747D01*
X44875Y-22747D01*
X44875Y-30079D01*
X45274Y-30079D01*
X46759Y-29783D01*
X48159Y-29204D01*
X49419Y-28362D01*
X50490Y-27291D01*
X51332Y-26031D01*
X51911Y-24631D01*
X52207Y-23146D01*
X52207Y-22747D01*
X44875Y-22747D01*
X44875Y-22029D01*
X52207Y-22029D01*
X52207Y-21630D01*
X51911Y-20145D01*
X51332Y-18745D01*
X50490Y-17485D01*
X49419Y-16414D01*
X48159Y-15572D01*
X46759Y-14993D01*
X45274Y-14697D01*
X44875Y-14697D01*
X60003Y60759D02*
X60003Y68091D01*
X60003Y60759D02*
X59285Y60759D01*
X59285Y68091D01*
X58886Y68091D01*
X57401Y67795D01*
X56001Y67216D01*
X54741Y66374D01*
X53670Y65303D01*
X52828Y64043D01*
X52249Y62643D01*
X51953Y61158D01*
X51953Y60759D01*
X59285Y60759D01*
X59285Y60041D01*
X51953Y60041D01*
X51953Y59642D01*
X52249Y58157D01*
X52828Y56757D01*
X53670Y55497D01*
X54741Y54426D01*
X56001Y53584D01*
X57401Y53005D01*
X58886Y52709D01*
X59285Y52709D01*
X59285Y60041D01*
X60003Y60041D01*
X60003Y52709D01*
X60402Y52709D01*
X61887Y53005D01*
X63287Y53584D01*
X64547Y54426D01*
X65618Y55497D01*
X66460Y56757D01*
X67039Y58157D01*
X67335Y59642D01*
X67335Y60041D01*
X60003Y60041D01*
X60003Y60759D01*
X67335Y60759D01*
X67335Y61158D01*
X67039Y62643D01*
X66460Y64043D01*
X65618Y65303D01*
X64547Y66374D01*
X63287Y67216D01*
X61887Y67795D01*
X60402Y68091D01*
X60003Y68091D01*
X56503Y33441D02*
X56503Y26109D01*
X55785Y26109D01*
X55785Y33441D01*
X55386Y33441D01*
X53901Y33145D01*
X52501Y32566D01*
X51241Y31724D01*
X50170Y30653D01*
X49328Y29393D01*
X48749Y27993D01*
X48453Y26508D01*
X48453Y26109D01*
X55785Y26109D01*
X55785Y25391D01*
X48453Y25391D01*
X48453Y24992D01*
X48749Y23507D01*
X49328Y22107D01*
X50170Y20847D01*
X51241Y19776D01*
X52501Y18934D01*
X53901Y18355D01*
X55386Y18059D01*
X55785Y18059D01*
X55785Y25391D01*
X56503Y25391D01*
X56503Y18059D01*
X56902Y18059D01*
X58387Y18355D01*
X59787Y18934D01*
X61047Y19776D01*
X62118Y20847D01*
X62960Y22107D01*
X63539Y23507D01*
X63835Y24992D01*
X63835Y25391D01*
X56503Y25391D01*
X56503Y26109D01*
X63835Y26109D01*
X63835Y26508D01*
X63539Y27993D01*
X62960Y29393D01*
X62118Y30653D01*
X61047Y31724D01*
X59787Y32566D01*
X58387Y33145D01*
X56902Y33441D01*
X56503Y33441D01*
X190051Y-12571D02*
X190051Y-19903D01*
X189333Y-19903D01*
X189333Y-12571D01*
X188934Y-12571D01*
X187449Y-12867D01*
X186049Y-13446D01*
X184789Y-14288D01*
X183718Y-15359D01*
X182876Y-16619D01*
X182297Y-18019D01*
X182001Y-19504D01*
X182001Y-19903D01*
X189333Y-19903D01*
X189333Y-20621D01*
X182001Y-20621D01*
X182001Y-21020D01*
X182297Y-22505D01*
X182876Y-23905D01*
X183718Y-25165D01*
X184789Y-26236D01*
X186049Y-27078D01*
X187449Y-27657D01*
X188934Y-27953D01*
X189333Y-27953D01*
X189333Y-20621D01*
X190051Y-20621D01*
X190051Y-27953D01*
X190450Y-27953D01*
X191935Y-27657D01*
X193335Y-27078D01*
X194595Y-26236D01*
X195666Y-25165D01*
X196508Y-23905D01*
X197087Y-22505D01*
X197383Y-21020D01*
X197383Y-20621D01*
X190051Y-20621D01*
X190051Y-19903D01*
X197383Y-19903D01*
X197383Y-19504D01*
X197087Y-18019D01*
X196508Y-16619D01*
X195666Y-15359D01*
X194595Y-14288D01*
X193335Y-13446D01*
X191935Y-12867D01*
X190450Y-12571D01*
X190051Y-12571D01*
X1449969Y83761D02*
X1449969Y91093D01*
X1449969Y83761D02*
X1449251Y83761D01*
X1449251Y91093D01*
X1448852Y91093D01*
X1447367Y90797D01*
X1445967Y90218D01*
X1444707Y89376D01*
X1443636Y88305D01*
X1442794Y87045D01*
X1442215Y85645D01*
X1441919Y84160D01*
X1441919Y83761D01*
X1449251Y83761D01*
X1449251Y83043D01*
X1441919Y83043D01*
X1441919Y82644D01*
X1442215Y81159D01*
X1442794Y79759D01*
X1443636Y78499D01*
X1444707Y77428D01*
X1445967Y76586D01*
X1447367Y76007D01*
X1448852Y75711D01*
X1449251Y75711D01*
X1449251Y83043D01*
X1449969Y83043D01*
X1449969Y75711D01*
X1450368Y75711D01*
X1451853Y76007D01*
X1453253Y76586D01*
X1454513Y77428D01*
X1455584Y78499D01*
X1456426Y79759D01*
X1457005Y81159D01*
X1457301Y82644D01*
X1457301Y83043D01*
X1449969Y83043D01*
X1449969Y83761D01*
X1457301Y83761D01*
X1457301Y84160D01*
X1457005Y85645D01*
X1456426Y87045D01*
X1455584Y88305D01*
X1454513Y89376D01*
X1453253Y90218D01*
X1451853Y90797D01*
X1450368Y91093D01*
X1449969Y91093D01*
X1360069Y-633D02*
X1360069Y-7965D01*
X1359351Y-7965D01*
X1359351Y-633D01*
X1358952Y-633D01*
X1357467Y-929D01*
X1356067Y-1508D01*
X1354807Y-2350D01*
X1353736Y-3421D01*
X1352894Y-4681D01*
X1352315Y-6081D01*
X1352019Y-7566D01*
X1352019Y-7965D01*
X1359351Y-7965D01*
X1359351Y-8683D01*
X1352019Y-8683D01*
X1352019Y-9082D01*
X1352315Y-10567D01*
X1352894Y-11967D01*
X1353736Y-13227D01*
X1354807Y-14298D01*
X1356067Y-15140D01*
X1357467Y-15719D01*
X1358952Y-16015D01*
X1359351Y-16015D01*
X1359351Y-8683D01*
X1360069Y-8683D01*
X1360069Y-16015D01*
X1360468Y-16015D01*
X1361953Y-15719D01*
X1363353Y-15140D01*
X1364613Y-14298D01*
X1365684Y-13227D01*
X1366526Y-11967D01*
X1367105Y-10567D01*
X1367401Y-9082D01*
X1367401Y-8683D01*
X1360069Y-8683D01*
X1360069Y-7965D01*
X1367401Y-7965D01*
X1367401Y-7566D01*
X1367105Y-6081D01*
X1366526Y-4681D01*
X1365684Y-3421D01*
X1364613Y-2350D01*
X1363353Y-1508D01*
X1361953Y-929D01*
X1360468Y-633D01*
X1360069Y-633D01*
X41021Y105963D02*
X41021Y113295D01*
X41021Y105963D02*
X40303Y105963D01*
X40303Y113295D01*
X39904Y113295D01*
X38419Y112999D01*
X37019Y112420D01*
X35759Y111578D01*
X34688Y110507D01*
X33846Y109247D01*
X33267Y107847D01*
X32971Y106362D01*
X32971Y105963D01*
X40303Y105963D01*
X40303Y105245D01*
X32971Y105245D01*
X32971Y104846D01*
X33267Y103361D01*
X33846Y101961D01*
X34688Y100701D01*
X35759Y99630D01*
X37019Y98788D01*
X38419Y98209D01*
X39904Y97913D01*
X40303Y97913D01*
X40303Y105245D01*
X41021Y105245D01*
X41021Y97913D01*
X41420Y97913D01*
X42905Y98209D01*
X44305Y98788D01*
X45565Y99630D01*
X46636Y100701D01*
X47478Y101961D01*
X48057Y103361D01*
X48353Y104846D01*
X48353Y105245D01*
X41021Y105245D01*
X41021Y105963D01*
X48353Y105963D01*
X48353Y106362D01*
X48057Y107847D01*
X47478Y109247D01*
X46636Y110507D01*
X45565Y111578D01*
X44305Y112420D01*
X42905Y112999D01*
X41420Y113295D01*
X41021Y113295D01*
X234877Y110471D02*
X234877Y117803D01*
X234877Y110471D02*
X234159Y110471D01*
X234159Y117803D01*
X233760Y117803D01*
X232275Y117507D01*
X230875Y116928D01*
X229615Y116086D01*
X228544Y115015D01*
X227702Y113755D01*
X227123Y112355D01*
X226827Y110870D01*
X226827Y110471D01*
X234159Y110471D01*
X234159Y109753D01*
X226827Y109753D01*
X226827Y109354D01*
X227123Y107869D01*
X227702Y106469D01*
X228544Y105209D01*
X229615Y104138D01*
X230875Y103296D01*
X232275Y102717D01*
X233760Y102421D01*
X234159Y102421D01*
X234159Y109753D01*
X234877Y109753D01*
X234877Y102421D01*
X235276Y102421D01*
X236761Y102717D01*
X238161Y103296D01*
X239421Y104138D01*
X240492Y105209D01*
X241334Y106469D01*
X241913Y107869D01*
X242209Y109354D01*
X242209Y109753D01*
X234877Y109753D01*
X234877Y110471D01*
X242209Y110471D01*
X242209Y110870D01*
X241913Y112355D01*
X241334Y113755D01*
X240492Y115015D01*
X239421Y116086D01*
X238161Y116928D01*
X236761Y117507D01*
X235276Y117803D01*
X234877Y117803D01*
X26003Y16441D02*
X26003Y9109D01*
X25285Y9109D01*
X25285Y16441D01*
X24886Y16441D01*
X23401Y16145D01*
X22001Y15566D01*
X20741Y14724D01*
X19670Y13653D01*
X18828Y12393D01*
X18249Y10993D01*
X17953Y9508D01*
X17953Y9109D01*
X25285Y9109D01*
X25285Y8391D01*
X17953Y8391D01*
X17953Y7992D01*
X18249Y6507D01*
X18828Y5107D01*
X19670Y3847D01*
X20741Y2776D01*
X22001Y1934D01*
X23401Y1355D01*
X24886Y1059D01*
X25285Y1059D01*
X25285Y8391D01*
X26003Y8391D01*
X26003Y1059D01*
X26402Y1059D01*
X27887Y1355D01*
X29287Y1934D01*
X30547Y2776D01*
X31618Y3847D01*
X32460Y5107D01*
X33039Y6507D01*
X33335Y7992D01*
X33335Y8391D01*
X26003Y8391D01*
X26003Y9109D01*
X33335Y9109D01*
X33335Y9508D01*
X33039Y10993D01*
X32460Y12393D01*
X31618Y13653D01*
X30547Y14724D01*
X29287Y15566D01*
X27887Y16145D01*
X26402Y16441D01*
X26003Y16441D01*
X21500Y66500D02*
X21500Y72916D01*
X21500Y66500D02*
X21500Y66500D01*
X21500Y72916D01*
X20868Y72916D01*
X19629Y72669D01*
X18461Y72186D01*
X17410Y71484D01*
X16516Y70590D01*
X15814Y69539D01*
X15331Y68371D01*
X15084Y67132D01*
X15084Y66500D01*
X21500Y66500D01*
X21500Y66500D01*
X15084Y66500D01*
X15084Y65868D01*
X15331Y64629D01*
X15814Y63461D01*
X16516Y62410D01*
X17410Y61516D01*
X18461Y60814D01*
X19629Y60331D01*
X20868Y60084D01*
X21500Y60084D01*
X21500Y66500D01*
X21500Y66500D01*
X21500Y60084D01*
X22132Y60084D01*
X23371Y60331D01*
X24539Y60814D01*
X25590Y61516D01*
X26484Y62410D01*
X27186Y63461D01*
X27669Y64629D01*
X27916Y65868D01*
X27916Y66500D01*
X21500Y66500D01*
X21500Y66500D01*
X27916Y66500D01*
X27916Y67132D01*
X27669Y68371D01*
X27186Y69539D01*
X26484Y70590D01*
X25590Y71484D01*
X24539Y72186D01*
X23371Y72669D01*
X22132Y72916D01*
X21500Y72916D01*
X99500Y1416D02*
X99500Y-5000D01*
X99500Y-5000D01*
X99500Y1416D01*
X98868Y1416D01*
X97629Y1169D01*
X96461Y686D01*
X95410Y-16D01*
X94516Y-910D01*
X93814Y-1961D01*
X93331Y-3129D01*
X93084Y-4368D01*
X93084Y-5000D01*
X99500Y-5000D01*
X99500Y-5000D01*
X93084Y-5000D01*
X93084Y-5632D01*
X93331Y-6871D01*
X93814Y-8039D01*
X94516Y-9090D01*
X95410Y-9984D01*
X96461Y-10686D01*
X97629Y-11169D01*
X98868Y-11416D01*
X99500Y-11416D01*
X99500Y-5000D01*
X99500Y-5000D01*
X99500Y-11416D01*
X100132Y-11416D01*
X101371Y-11169D01*
X102539Y-10686D01*
X103590Y-9984D01*
X104484Y-9090D01*
X105186Y-8039D01*
X105669Y-6871D01*
X105916Y-5632D01*
X105916Y-5000D01*
X99500Y-5000D01*
X99500Y-5000D01*
X105916Y-5000D01*
X105916Y-4368D01*
X105669Y-3129D01*
X105186Y-1961D01*
X104484Y-910D01*
X103590Y-16D01*
X102539Y686D01*
X101371Y1169D01*
X100132Y1416D01*
X99500Y1416D01*
X1400811Y16996D02*
X1469211Y16996D01*
X1400811Y16996D02*
X1398055Y17177D01*
X1392731Y18603D01*
X1392266Y18872D01*
X1393465Y19111D01*
X1394865Y19690D01*
X1396125Y20532D01*
X1397196Y21603D01*
X1398038Y22863D01*
X1398617Y24263D01*
X1398913Y25748D01*
X1398913Y26147D01*
X1391581Y26147D01*
X1391581Y26865D01*
X1398213Y26865D01*
X1404653Y23147D01*
X1404653Y23147D01*
X1412203Y21124D01*
X1469211Y21124D01*
X1469211Y16996D01*
X1469211Y42396D02*
X1469211Y46524D01*
X1469211Y42396D02*
X1433018Y42396D01*
X1433701Y42852D01*
X1434772Y43923D01*
X1435614Y45183D01*
X1436193Y46583D01*
X1436489Y48068D01*
X1436489Y48467D01*
X1429157Y48467D01*
X1429157Y49185D01*
X1436489Y49185D01*
X1436489Y49584D01*
X1436193Y51069D01*
X1436009Y51514D01*
X1436239Y51326D01*
X1437735Y49830D01*
X1437735Y49830D01*
X1438670Y48895D01*
X1438670Y48895D01*
X1444394Y46524D01*
X1449267Y46524D01*
X1469211Y46524D01*
X1456114Y55683D02*
X1456693Y57083D01*
X1456989Y58568D01*
X1456989Y58967D01*
X1449657Y58967D01*
X1449657Y59685D01*
X1456989Y59685D01*
X1456989Y60084D01*
X1456693Y61569D01*
X1456611Y61768D01*
X1460538Y60721D01*
X1460769Y60433D01*
X1462210Y60275D01*
X1463611Y59901D01*
X1463931Y60087D01*
X1469211Y59509D01*
X1469211Y55096D01*
X1455721Y55096D01*
X1456114Y55683D01*
X1469211Y29696D02*
X1416111Y29696D01*
X1413799Y29848D01*
X1414635Y30406D01*
X1415706Y31477D01*
X1416548Y32737D01*
X1417127Y34137D01*
X1417423Y35622D01*
X1417423Y36021D01*
X1410091Y36021D01*
X1410091Y36739D01*
X1417423Y36739D01*
X1417423Y36853D01*
X1419801Y35480D01*
X1419801Y35480D01*
X1425982Y33824D01*
X1469211Y33824D01*
X1469211Y29696D01*
X1483126Y86892D02*
X1490984Y86892D01*
X1483126Y86892D02*
X1483126Y87860D01*
X1490984Y87860D01*
X1490984Y86892D01*
X1469211Y-67776D02*
X1381036Y-67776D01*
X1469211Y-67776D02*
X1469211Y-70563D01*
X1356245Y-70979D01*
X1333237Y-47972D01*
X1333452Y-48015D01*
X1333851Y-48015D01*
X1333851Y-40683D01*
X1334569Y-40683D01*
X1334569Y-48015D01*
X1334968Y-48015D01*
X1336453Y-47719D01*
X1337853Y-47140D01*
X1339113Y-46298D01*
X1340184Y-45227D01*
X1341026Y-43967D01*
X1341605Y-42567D01*
X1341901Y-41082D01*
X1341901Y-40683D01*
X1334569Y-40683D01*
X1334569Y-39965D01*
X1341901Y-39965D01*
X1341901Y-39566D01*
X1341801Y-39062D01*
X1360565Y-57826D01*
X1360581Y-57843D01*
X1363075Y-60336D01*
X1363075Y-60336D01*
X1364583Y-61845D01*
X1364583Y-61845D01*
X1371353Y-65753D01*
X1371353Y-65753D01*
X1378903Y-67776D01*
X1381036Y-67776D01*
X1370090Y-65024D02*
X1350289Y-65024D01*
X1342161Y-56896D02*
X1359635Y-56896D01*
X1351507Y-48768D02*
X1334033Y-48768D01*
X1333851Y-40640D02*
X1325905Y-40640D01*
X1334569Y-40640D02*
X1343379Y-40640D01*
X1335251Y-32512D02*
X1317777Y-32512D01*
X1374507Y-32512D02*
X1469211Y-32512D01*
X37071Y-24384D02*
X19649Y-24384D01*
X44157Y-24384D02*
X44875Y-24384D01*
X51961Y-24384D02*
X157226Y-24384D01*
X163193Y-24384D02*
X163911Y-24384D01*
X169878Y-24384D02*
X183196Y-24384D01*
X189333Y-24384D02*
X190051Y-24384D01*
X196188Y-24384D02*
X296327Y-24384D01*
X300323Y-24384D02*
X301041Y-24384D01*
X305037Y-24384D02*
X324147Y-24384D01*
X326853Y-24384D02*
X344147Y-24384D01*
X346853Y-24384D02*
X364147Y-24384D01*
X366853Y-24384D02*
X373851Y-24384D01*
X1309649Y-24384D02*
X1327123Y-24384D01*
X1363245Y-24384D02*
X1387591Y-24384D01*
X39850Y-16256D02*
X11606Y-16256D01*
X44157Y-16256D02*
X44875Y-16256D01*
X49182Y-16256D02*
X156809Y-16256D01*
X163193Y-16256D02*
X163911Y-16256D01*
X170295Y-16256D02*
X183119Y-16256D01*
X189333Y-16256D02*
X190051Y-16256D01*
X196265Y-16256D02*
X293196Y-16256D01*
X300323Y-16256D02*
X301041Y-16256D01*
X308168Y-16256D02*
X319278Y-16256D01*
X333305Y-16256D02*
X339278Y-16256D01*
X353305Y-16256D02*
X359278Y-16256D01*
X373305Y-16256D02*
X381979Y-16256D01*
X1301521Y-16256D02*
X1318995Y-16256D01*
X1355117Y-16256D02*
X1378995Y-16256D01*
X93874Y-8128D02*
X14851Y-8128D01*
X99500Y-8128D02*
X99500Y-8128D01*
X105126Y-8128D02*
X157851Y-8128D01*
X169149Y-8128D02*
X175321Y-8128D01*
X181679Y-8128D02*
X329311Y-8128D01*
X341433Y-8128D02*
X349311Y-8128D01*
X361622Y-8128D02*
X369311Y-8128D01*
X1346989Y-8128D02*
X1359351Y-8128D01*
X1360069Y-8128D02*
X1370867Y-8128D01*
X95435Y0D02*
X17786Y0D01*
X99500Y0D02*
X99500Y0D01*
X103565Y0D02*
X159161Y0D01*
X167734Y0D02*
X172591Y0D01*
X184409Y0D02*
X337439Y0D01*
X351756Y0D02*
X357911Y0D01*
X1338861Y0D02*
X1362739Y0D01*
X17953Y8128D02*
X11766Y8128D01*
X25285Y8128D02*
X26003Y8128D01*
X33335Y8128D02*
X159076Y8128D01*
X167649Y8128D02*
X174214Y8128D01*
X182786Y8128D02*
X211331Y8128D01*
X223669Y8128D02*
X231331Y8128D01*
X243669Y8128D02*
X251331Y8128D01*
X263669Y8128D02*
X271331Y8128D01*
X283669Y8128D02*
X348329Y8128D01*
X1327013Y8128D02*
X1353808Y8128D01*
X23957Y16256D02*
X16217Y16256D01*
X25285Y16256D02*
X26003Y16256D01*
X27331Y16256D02*
X158991Y16256D01*
X167564Y16256D02*
X175251Y16256D01*
X184312Y16256D02*
X194584Y16256D01*
X207416Y16256D02*
X215838Y16256D01*
X229817Y16256D02*
X235838Y16256D01*
X249817Y16256D02*
X255838Y16256D01*
X272498Y16256D02*
X275838Y16256D01*
X48574Y24384D02*
X17786Y24384D01*
X55785Y24384D02*
X56503Y24384D01*
X63714Y24384D02*
X158906Y24384D01*
X167478Y24384D02*
X178804Y24384D01*
X189945Y24384D02*
X202339Y24384D01*
X213430Y24384D02*
X225823Y24384D01*
X238950Y24384D02*
X245823Y24384D01*
X1398642Y24384D02*
X1402510Y24384D01*
X22143Y32512D02*
X11786Y32512D01*
X27285Y32512D02*
X28003Y32512D01*
X33145Y32512D02*
X52421Y32512D01*
X55785Y32512D02*
X56503Y32512D01*
X59867Y32512D02*
X158821Y32512D01*
X167393Y32512D02*
X170098Y32512D01*
X182902Y32512D02*
X185951Y32512D01*
X198073Y32512D02*
X209013Y32512D01*
X220491Y32512D02*
X235523Y32512D01*
X1374977Y32512D02*
X1386367Y32512D01*
X1416397Y32512D02*
X1469211Y32512D01*
X20459Y40640D02*
X14851Y40640D01*
X27285Y40640D02*
X28003Y40640D01*
X34829Y40640D02*
X158736Y40640D01*
X167308Y40640D02*
X173036Y40640D01*
X182087Y40640D02*
X194079Y40640D01*
X206370Y40640D02*
X216745Y40640D01*
X1396421Y40640D02*
X1403329Y40640D01*
X159520Y48768D02*
X16393Y48768D01*
X168678Y48768D02*
X176437Y48768D01*
X187486Y48768D02*
X202575Y48768D01*
X1416293Y48768D02*
X1428439Y48768D01*
X1429157Y48768D02*
X1438976Y48768D01*
X52771Y56896D02*
X17786Y56896D01*
X59285Y56896D02*
X60003Y56896D01*
X66517Y56896D02*
X163335Y56896D01*
X174837Y56896D02*
X183492Y56896D01*
X1456616Y56896D02*
X1469211Y56896D01*
X15252Y65024D02*
X11786Y65024D01*
X21500Y65024D02*
X21500Y65024D01*
X27748Y65024D02*
X53484Y65024D01*
X59285Y65024D02*
X60003Y65024D01*
X65804Y65024D02*
X77175Y65024D01*
X84285Y65024D02*
X85003Y65024D01*
X92112Y65024D02*
X170705Y65024D01*
X80157Y73152D02*
X14851Y73152D01*
X84285Y73152D02*
X85003Y73152D01*
X89131Y73152D02*
X169555Y73152D01*
X170273Y73152D02*
X185612Y73152D01*
X1445412Y73152D02*
X1490984Y73152D01*
X287327Y81280D02*
X16281Y81280D01*
X1433863Y81280D02*
X1442190Y81280D01*
X1449251Y81280D02*
X1449969Y81280D01*
X1457030Y81280D02*
X1466394Y81280D01*
X1481458Y81280D02*
X1482426Y81280D01*
X279036Y89408D02*
X17686Y89408D01*
X1442154Y89408D02*
X1444755Y89408D01*
X1449251Y89408D02*
X1449969Y89408D01*
X1454465Y89408D02*
X1466394Y89408D01*
X1481458Y89408D02*
X1482426Y89408D01*
X98490Y97536D02*
X14851Y97536D01*
X105659Y97536D02*
X106377Y97536D01*
X113546Y97536D02*
X270908Y97536D01*
X1450282Y97536D02*
X1457233Y97536D01*
X1464007Y97536D02*
X1464725Y97536D01*
X1471499Y97536D02*
X1490984Y97536D01*
X40303Y105664D02*
X14851Y105664D01*
X41021Y105664D02*
X101980Y105664D01*
X105659Y105664D02*
X106377Y105664D01*
X110056Y105664D02*
X189240Y105664D01*
X195159Y105664D02*
X195877Y105664D01*
X201796Y105664D02*
X228240Y105664D01*
X234159Y105664D02*
X234877Y105664D01*
X240796Y105664D02*
X262780Y105664D01*
X1458410Y105664D02*
X1458741Y105664D01*
X1464007Y105664D02*
X1464725Y105664D01*
X1469991Y105664D02*
X1490984Y105664D01*
X188727Y113792D02*
X11766Y113792D01*
X195159Y113792D02*
X195877Y113792D01*
X202309Y113792D02*
X227727Y113792D01*
X234159Y113792D02*
X234877Y113792D01*
X241309Y113792D02*
X254652Y113792D01*
X144082Y121920D02*
X29435Y121920D01*
X37563Y130048D02*
X144119Y130048D01*
X8128Y-19500D02*
X8128Y-19500D01*
X8128Y6500D02*
X8128Y6500D01*
X8128Y32500D02*
X8128Y32500D01*
X8128Y65000D02*
X8128Y65000D01*
X8128Y115766D02*
X8128Y117363D01*
X16256Y-3305D02*
X16256Y-22984D01*
X16256Y3305D02*
X16256Y16295D01*
X16256Y29305D02*
X16256Y42095D01*
X16256Y61805D02*
X16256Y62800D01*
X16256Y66500D02*
X16256Y66500D01*
X16256Y70200D02*
X16256Y74695D01*
X16256Y87705D02*
X16256Y87795D01*
X16256Y94205D02*
X16256Y117484D01*
X24384Y1159D02*
X24384Y-29119D01*
X24384Y8391D02*
X24384Y9109D01*
X24384Y16341D02*
X24384Y30914D01*
X24384Y37529D02*
X24384Y38247D01*
X24384Y44862D02*
X24384Y60750D01*
X24384Y66500D02*
X24384Y66500D01*
X24384Y72250D02*
X24384Y117484D01*
X32512Y5233D02*
X32512Y-31484D01*
X32512Y8391D02*
X32512Y9109D01*
X32512Y12267D02*
X32512Y31891D01*
X32512Y37529D02*
X32512Y38247D01*
X32512Y43885D02*
X32512Y124997D01*
X40640Y-29048D02*
X40640Y-31484D01*
X40640Y-22747D02*
X40640Y-22029D01*
X40640Y-15728D02*
X40640Y105245D01*
X40640Y105963D02*
X40640Y133125D01*
X48768Y-28797D02*
X48768Y-31484D01*
X48768Y-22747D02*
X48768Y-22029D01*
X48768Y-15979D02*
X48768Y23460D01*
X48768Y25391D02*
X48768Y26109D01*
X48768Y28040D02*
X48768Y133484D01*
X56896Y18059D02*
X56896Y-31484D01*
X56896Y25391D02*
X56896Y26109D01*
X56896Y33441D02*
X56896Y53214D01*
X56896Y60041D02*
X56896Y60759D01*
X56896Y67586D02*
X56896Y133484D01*
X65024Y54903D02*
X65024Y-31484D01*
X65024Y60041D02*
X65024Y60759D01*
X65024Y65897D02*
X65024Y133484D01*
X73152Y133484D02*
X73152Y-31484D01*
X81280Y-31484D02*
X81280Y59969D01*
X81280Y66541D02*
X81280Y67259D01*
X81280Y73831D02*
X81280Y133484D01*
X89408Y60833D02*
X89408Y-31484D01*
X89408Y66541D02*
X89408Y67259D01*
X89408Y72967D02*
X89408Y133484D01*
X97536Y-11131D02*
X97536Y-31484D01*
X97536Y-5000D02*
X97536Y-5000D01*
X97536Y1131D02*
X97536Y133484D01*
X105664Y-6885D02*
X105664Y-31484D01*
X105664Y-5000D02*
X105664Y-5000D01*
X105664Y-3115D02*
X105664Y98753D01*
X105664Y99471D02*
X105664Y133484D01*
X113792Y133484D02*
X113792Y-31484D01*
X121920Y-31484D02*
X121920Y133484D01*
X130048Y133484D02*
X130048Y-31484D01*
X138176Y-31484D02*
X138176Y133484D01*
X146304Y119367D02*
X146304Y-31484D01*
X146304Y132513D02*
X146304Y133484D01*
X154432Y117844D02*
X154432Y-31484D01*
X162560Y-31484D02*
X162560Y-27652D01*
X162560Y-20367D02*
X162560Y-19649D01*
X162560Y-12364D02*
X162560Y-11416D01*
X162560Y55563D02*
X162560Y70867D01*
X162560Y72851D02*
X162560Y73569D01*
X162560Y75553D02*
X162560Y117844D01*
X170688Y-22878D02*
X170688Y-31484D01*
X170688Y-20367D02*
X170688Y-19649D01*
X170688Y-17138D02*
X170688Y31088D01*
X170688Y36557D02*
X170688Y52008D01*
X170688Y65009D02*
X170688Y65522D01*
X170688Y72851D02*
X170688Y73569D01*
X170688Y80898D02*
X170688Y117844D01*
X178816Y-8916D02*
X178816Y-31484D01*
X178816Y24404D02*
X178816Y27837D01*
X178816Y52220D02*
X178816Y60454D01*
X178816Y70580D02*
X178816Y118103D01*
X186944Y-27448D02*
X186944Y-31484D01*
X186944Y-20621D02*
X186944Y-19903D01*
X186944Y-13076D02*
X186944Y20977D01*
X186944Y33505D02*
X186944Y48226D01*
X186944Y60230D02*
X186944Y64429D01*
X186944Y73296D02*
X186944Y119876D01*
X195072Y-25759D02*
X195072Y-31484D01*
X195072Y-20621D02*
X195072Y-19903D01*
X195072Y-14765D02*
X195072Y13546D01*
X195072Y18454D02*
X195072Y29511D01*
X195072Y41633D02*
X195072Y54021D01*
X195072Y63597D02*
X195072Y64724D01*
X195072Y73296D02*
X195072Y102421D01*
X195072Y109753D02*
X195072Y110471D01*
X195072Y117803D02*
X195072Y119876D01*
X203200Y9967D02*
X203200Y-31484D01*
X203200Y25433D02*
X203200Y37639D01*
X203200Y49129D02*
X203200Y55054D01*
X203200Y63626D02*
X203200Y64724D01*
X203200Y73296D02*
X203200Y109309D01*
X203200Y109753D02*
X203200Y110471D01*
X203200Y110915D02*
X203200Y119876D01*
X211328Y8135D02*
X211328Y-31484D01*
X211328Y11865D02*
X211328Y21824D01*
X211328Y35332D02*
X211328Y43715D01*
X211328Y52938D02*
X211328Y55054D01*
X211328Y63626D02*
X211328Y64724D01*
X211328Y73296D02*
X211328Y119876D01*
X219456Y3866D02*
X219456Y-31484D01*
X219456Y18017D02*
X219456Y31658D01*
X219456Y42392D02*
X219456Y45593D01*
X219456Y54196D02*
X219456Y55054D01*
X219456Y63626D02*
X219456Y64724D01*
X219456Y73296D02*
X219456Y119876D01*
X227584Y14023D02*
X227584Y-31484D01*
X227584Y26145D02*
X227584Y36206D01*
X227584Y44996D02*
X227584Y45624D01*
X227584Y54196D02*
X227584Y55054D01*
X227584Y63626D02*
X227584Y64724D01*
X227584Y73296D02*
X227584Y106755D01*
X227584Y109753D02*
X227584Y110471D01*
X227584Y113469D02*
X227584Y119876D01*
X235712Y3796D02*
X235712Y-31484D01*
X235712Y16204D02*
X235712Y22076D01*
X235712Y32621D02*
X235712Y36424D01*
X235712Y44996D02*
X235712Y45624D01*
X235712Y54196D02*
X235712Y55054D01*
X235712Y63626D02*
X235712Y64724D01*
X235712Y73296D02*
X235712Y102508D01*
X235712Y109753D02*
X235712Y110471D01*
X235712Y117716D02*
X235712Y119876D01*
X243840Y8540D02*
X243840Y-31484D01*
X243840Y22401D02*
X243840Y26623D01*
X243840Y35684D02*
X243840Y36424D01*
X243840Y44996D02*
X243840Y45624D01*
X243840Y54196D02*
X243840Y55054D01*
X243840Y63626D02*
X243840Y64724D01*
X243840Y73296D02*
X243840Y119508D01*
X251968Y6590D02*
X251968Y-31484D01*
X251968Y13410D02*
X251968Y18176D01*
X251968Y36296D02*
X251968Y36424D01*
X251968Y44996D02*
X251968Y45624D01*
X251968Y54196D02*
X251968Y55054D01*
X251968Y63626D02*
X251968Y64724D01*
X251968Y73296D02*
X251968Y116089D01*
X260096Y4131D02*
X260096Y-31484D01*
X260096Y18657D02*
X260096Y21952D01*
X260096Y36296D02*
X260096Y36424D01*
X260096Y44996D02*
X260096Y45624D01*
X260096Y54196D02*
X260096Y55054D01*
X260096Y63626D02*
X260096Y64724D01*
X260096Y73296D02*
X260096Y108348D01*
X268224Y13961D02*
X268224Y-31484D01*
X268224Y36296D02*
X268224Y36424D01*
X268224Y44996D02*
X268224Y45624D01*
X268224Y54196D02*
X268224Y55054D01*
X268224Y63626D02*
X268224Y64724D01*
X268224Y73296D02*
X268224Y100220D01*
X276352Y3584D02*
X276352Y-31484D01*
X276352Y16416D02*
X276352Y17289D01*
X276352Y36296D02*
X276352Y36424D01*
X276352Y44996D02*
X276352Y45624D01*
X276352Y54196D02*
X276352Y55054D01*
X276352Y63626D02*
X276352Y64724D01*
X276352Y73296D02*
X276352Y92092D01*
X284480Y9827D02*
X284480Y-31484D01*
X284480Y36296D02*
X284480Y36424D01*
X284480Y44996D02*
X284480Y45624D01*
X284480Y54196D02*
X284480Y55054D01*
X284480Y63626D02*
X284480Y64724D01*
X284480Y73296D02*
X284480Y83964D01*
X292608Y12597D02*
X292608Y-31484D01*
X292608Y36296D02*
X292608Y36424D01*
X292608Y44996D02*
X292608Y45624D01*
X292608Y54196D02*
X292608Y55054D01*
X292608Y63626D02*
X292608Y64724D01*
X292608Y73296D02*
X292608Y78231D01*
X300736Y-18403D02*
X300736Y-31484D01*
X300736Y-17685D02*
X300736Y12714D01*
X300736Y36296D02*
X300736Y36424D01*
X300736Y44996D02*
X300736Y45624D01*
X300736Y54196D02*
X300736Y55054D01*
X300736Y63626D02*
X300736Y64724D01*
X300736Y73296D02*
X300736Y75587D01*
X308864Y12714D02*
X308864Y-31484D01*
X308864Y36296D02*
X308864Y36424D01*
X308864Y44996D02*
X308864Y45624D01*
X308864Y54196D02*
X308864Y55054D01*
X308864Y63626D02*
X308864Y64724D01*
X308864Y73296D02*
X308864Y75216D01*
X316992Y12714D02*
X316992Y-31484D01*
X316992Y36296D02*
X316992Y36424D01*
X316992Y44996D02*
X316992Y45624D01*
X316992Y54196D02*
X316992Y55054D01*
X316992Y63626D02*
X316992Y64724D01*
X316992Y73296D02*
X316992Y75216D01*
X325120Y-24416D02*
X325120Y-31484D01*
X325120Y-11584D02*
X325120Y12714D01*
X325120Y36296D02*
X325120Y36424D01*
X325120Y44996D02*
X325120Y45624D01*
X325120Y54196D02*
X325120Y55054D01*
X325120Y63626D02*
X325120Y64724D01*
X325120Y73296D02*
X325120Y75216D01*
X333248Y-16313D02*
X333248Y-31484D01*
X333248Y-4191D02*
X333248Y12714D01*
X333248Y36296D02*
X333248Y36424D01*
X333248Y44996D02*
X333248Y45624D01*
X333248Y54196D02*
X333248Y55054D01*
X333248Y63626D02*
X333248Y64724D01*
X333248Y73296D02*
X333248Y75216D01*
X341376Y-22950D02*
X341376Y-31484D01*
X341376Y-13050D02*
X341376Y-8185D01*
X341376Y3937D02*
X341376Y12714D01*
X341376Y36296D02*
X341376Y36424D01*
X341376Y44996D02*
X341376Y45624D01*
X341376Y54196D02*
X341376Y55054D01*
X341376Y63626D02*
X341376Y64724D01*
X341376Y73296D02*
X341376Y75216D01*
X349504Y-23070D02*
X349504Y-31484D01*
X349504Y-7935D02*
X349504Y-1300D01*
X349504Y8515D02*
X349504Y12714D01*
X349504Y36296D02*
X349504Y36424D01*
X349504Y44996D02*
X349504Y45624D01*
X349504Y54196D02*
X349504Y55054D01*
X349504Y63626D02*
X349504Y64724D01*
X349504Y73296D02*
X349504Y75216D01*
X357632Y-11929D02*
X357632Y-31484D01*
X357632Y-161D02*
X357632Y1557D01*
X357632Y10286D02*
X357632Y12714D01*
X357632Y36296D02*
X357632Y36424D01*
X357632Y44996D02*
X357632Y45624D01*
X357632Y54196D02*
X357632Y55054D01*
X357632Y63626D02*
X357632Y64724D01*
X357632Y73296D02*
X357632Y75216D01*
X365760Y-24416D02*
X365760Y-31484D01*
X365760Y-11584D02*
X365760Y-5575D01*
X365760Y10286D02*
X365760Y12714D01*
X365760Y36296D02*
X365760Y36424D01*
X365760Y44996D02*
X365760Y45624D01*
X365760Y54196D02*
X365760Y55054D01*
X365760Y63626D02*
X365760Y64724D01*
X365760Y73296D02*
X365760Y75216D01*
X373888Y-15673D02*
X373888Y-24347D01*
X373888Y-4436D02*
X373888Y-3360D01*
X373888Y10286D02*
X373888Y12714D01*
X373888Y36296D02*
X373888Y36424D01*
X373888Y44996D02*
X373888Y45624D01*
X373888Y54196D02*
X373888Y55054D01*
X373888Y63626D02*
X373888Y64724D01*
X373888Y73296D02*
X373888Y75216D01*
X382016Y-9873D02*
X382016Y-16219D01*
X382016Y10286D02*
X382016Y12714D01*
X382016Y36296D02*
X382016Y36424D01*
X382016Y44996D02*
X382016Y45624D01*
X382016Y54196D02*
X382016Y55054D01*
X382016Y63626D02*
X382016Y64724D01*
X382016Y73296D02*
X382016Y75216D01*
X390144Y-8286D02*
X390144Y-8984D01*
X390144Y10286D02*
X390144Y12714D01*
X390144Y36296D02*
X390144Y36424D01*
X390144Y44996D02*
X390144Y45624D01*
X390144Y54196D02*
X390144Y55054D01*
X390144Y63626D02*
X390144Y64724D01*
X390144Y73296D02*
X390144Y75216D01*
X398272Y-8286D02*
X398272Y-8988D01*
X398272Y10286D02*
X398272Y12714D01*
X398272Y36296D02*
X398272Y36424D01*
X398272Y44996D02*
X398272Y45624D01*
X398272Y54196D02*
X398272Y55054D01*
X398272Y63626D02*
X398272Y64724D01*
X398272Y73296D02*
X398272Y75216D01*
X406400Y-8286D02*
X406400Y-8993D01*
X406400Y10286D02*
X406400Y12714D01*
X406400Y36296D02*
X406400Y36424D01*
X406400Y44996D02*
X406400Y45624D01*
X406400Y54196D02*
X406400Y55054D01*
X406400Y63626D02*
X406400Y64724D01*
X406400Y73296D02*
X406400Y75216D01*
X414528Y-8286D02*
X414528Y-8997D01*
X414528Y10286D02*
X414528Y12714D01*
X414528Y36296D02*
X414528Y36424D01*
X414528Y44996D02*
X414528Y45624D01*
X414528Y54196D02*
X414528Y55054D01*
X414528Y63626D02*
X414528Y64724D01*
X414528Y73296D02*
X414528Y75216D01*
X422656Y-8286D02*
X422656Y-9002D01*
X422656Y10286D02*
X422656Y12714D01*
X422656Y36296D02*
X422656Y36424D01*
X422656Y44996D02*
X422656Y45624D01*
X422656Y54196D02*
X422656Y55054D01*
X422656Y63626D02*
X422656Y64724D01*
X422656Y73296D02*
X422656Y75216D01*
X430784Y-8286D02*
X430784Y-9006D01*
X430784Y10286D02*
X430784Y12714D01*
X430784Y36296D02*
X430784Y36424D01*
X430784Y44996D02*
X430784Y45624D01*
X430784Y54196D02*
X430784Y55054D01*
X430784Y63626D02*
X430784Y64724D01*
X430784Y73296D02*
X430784Y75216D01*
X438912Y-8286D02*
X438912Y-9011D01*
X438912Y10286D02*
X438912Y12714D01*
X438912Y36296D02*
X438912Y36424D01*
X438912Y44996D02*
X438912Y45624D01*
X438912Y54196D02*
X438912Y55054D01*
X438912Y63626D02*
X438912Y64724D01*
X438912Y73296D02*
X438912Y75216D01*
X447040Y-8286D02*
X447040Y-9015D01*
X447040Y10286D02*
X447040Y12714D01*
X447040Y36296D02*
X447040Y36424D01*
X447040Y44996D02*
X447040Y45624D01*
X447040Y54196D02*
X447040Y55054D01*
X447040Y63626D02*
X447040Y64724D01*
X447040Y73296D02*
X447040Y75216D01*
X455168Y-8286D02*
X455168Y-9020D01*
X455168Y10286D02*
X455168Y12714D01*
X455168Y36296D02*
X455168Y36424D01*
X455168Y44996D02*
X455168Y45624D01*
X455168Y54196D02*
X455168Y55054D01*
X455168Y63626D02*
X455168Y64724D01*
X455168Y73296D02*
X455168Y75216D01*
X463296Y-8286D02*
X463296Y-9024D01*
X463296Y10286D02*
X463296Y12714D01*
X463296Y36296D02*
X463296Y36424D01*
X463296Y44996D02*
X463296Y45624D01*
X463296Y54196D02*
X463296Y55054D01*
X463296Y63626D02*
X463296Y64724D01*
X463296Y73296D02*
X463296Y75216D01*
X471424Y-8286D02*
X471424Y-9029D01*
X471424Y10286D02*
X471424Y12714D01*
X471424Y36296D02*
X471424Y36424D01*
X471424Y44996D02*
X471424Y45624D01*
X471424Y54196D02*
X471424Y55054D01*
X471424Y63626D02*
X471424Y64724D01*
X471424Y73296D02*
X471424Y75216D01*
X479552Y-8286D02*
X479552Y-9033D01*
X479552Y10286D02*
X479552Y12714D01*
X479552Y36296D02*
X479552Y36424D01*
X479552Y44996D02*
X479552Y45624D01*
X479552Y54196D02*
X479552Y55054D01*
X479552Y63626D02*
X479552Y64724D01*
X479552Y73296D02*
X479552Y75216D01*
X487680Y-8286D02*
X487680Y-9038D01*
X487680Y10286D02*
X487680Y12714D01*
X487680Y36296D02*
X487680Y36424D01*
X487680Y44996D02*
X487680Y45624D01*
X487680Y54196D02*
X487680Y55054D01*
X487680Y63626D02*
X487680Y64724D01*
X487680Y73296D02*
X487680Y75216D01*
X495808Y-8286D02*
X495808Y-9042D01*
X495808Y10286D02*
X495808Y12714D01*
X495808Y36296D02*
X495808Y36424D01*
X495808Y44996D02*
X495808Y45624D01*
X495808Y54196D02*
X495808Y55054D01*
X495808Y63626D02*
X495808Y64724D01*
X495808Y73296D02*
X495808Y75216D01*
X503936Y-8286D02*
X503936Y-9047D01*
X503936Y10286D02*
X503936Y12714D01*
X503936Y36296D02*
X503936Y36424D01*
X503936Y44996D02*
X503936Y45624D01*
X503936Y54196D02*
X503936Y55054D01*
X503936Y63626D02*
X503936Y64724D01*
X503936Y73296D02*
X503936Y75216D01*
X512064Y-8286D02*
X512064Y-9051D01*
X512064Y10286D02*
X512064Y12714D01*
X512064Y36296D02*
X512064Y36424D01*
X512064Y44996D02*
X512064Y45624D01*
X512064Y54196D02*
X512064Y55054D01*
X512064Y63626D02*
X512064Y64724D01*
X512064Y73296D02*
X512064Y75216D01*
X520192Y-8286D02*
X520192Y-9056D01*
X520192Y10286D02*
X520192Y12714D01*
X520192Y36296D02*
X520192Y36424D01*
X520192Y44996D02*
X520192Y45624D01*
X520192Y54196D02*
X520192Y55054D01*
X520192Y63626D02*
X520192Y64724D01*
X520192Y73296D02*
X520192Y75216D01*
X528320Y-8286D02*
X528320Y-9060D01*
X528320Y10286D02*
X528320Y12714D01*
X528320Y36296D02*
X528320Y36424D01*
X528320Y44996D02*
X528320Y45624D01*
X528320Y54196D02*
X528320Y55054D01*
X528320Y63626D02*
X528320Y64724D01*
X528320Y73296D02*
X528320Y75216D01*
X536448Y-8286D02*
X536448Y-9065D01*
X536448Y10286D02*
X536448Y12714D01*
X536448Y36296D02*
X536448Y36424D01*
X536448Y44996D02*
X536448Y45624D01*
X536448Y54196D02*
X536448Y55054D01*
X536448Y63626D02*
X536448Y64724D01*
X536448Y73296D02*
X536448Y75216D01*
X544576Y-8286D02*
X544576Y-9069D01*
X544576Y10286D02*
X544576Y12714D01*
X544576Y36296D02*
X544576Y36424D01*
X544576Y44996D02*
X544576Y45624D01*
X544576Y54196D02*
X544576Y55054D01*
X544576Y63626D02*
X544576Y64724D01*
X544576Y73296D02*
X544576Y75216D01*
X552704Y-8286D02*
X552704Y-9074D01*
X552704Y10286D02*
X552704Y12714D01*
X552704Y36296D02*
X552704Y36424D01*
X552704Y44996D02*
X552704Y45624D01*
X552704Y54196D02*
X552704Y55054D01*
X552704Y63626D02*
X552704Y64724D01*
X552704Y73296D02*
X552704Y75216D01*
X560832Y-8286D02*
X560832Y-9078D01*
X560832Y10286D02*
X560832Y12714D01*
X560832Y36296D02*
X560832Y36424D01*
X560832Y44996D02*
X560832Y45624D01*
X560832Y54196D02*
X560832Y55054D01*
X560832Y63626D02*
X560832Y64724D01*
X560832Y73296D02*
X560832Y75216D01*
X568960Y-8286D02*
X568960Y-9083D01*
X568960Y10286D02*
X568960Y12714D01*
X568960Y36296D02*
X568960Y36424D01*
X568960Y44996D02*
X568960Y45624D01*
X568960Y54196D02*
X568960Y55054D01*
X568960Y63626D02*
X568960Y64724D01*
X568960Y73296D02*
X568960Y75216D01*
X577088Y-8286D02*
X577088Y-9087D01*
X577088Y10286D02*
X577088Y12714D01*
X577088Y36296D02*
X577088Y36424D01*
X577088Y44996D02*
X577088Y45624D01*
X577088Y54196D02*
X577088Y55054D01*
X577088Y63626D02*
X577088Y64724D01*
X577088Y73296D02*
X577088Y75216D01*
X585216Y-8286D02*
X585216Y-9092D01*
X585216Y10286D02*
X585216Y12714D01*
X585216Y36296D02*
X585216Y36424D01*
X585216Y44996D02*
X585216Y45624D01*
X585216Y54196D02*
X585216Y55054D01*
X585216Y63626D02*
X585216Y64724D01*
X585216Y73296D02*
X585216Y75216D01*
X593344Y-8286D02*
X593344Y-9096D01*
X593344Y10286D02*
X593344Y12714D01*
X593344Y36296D02*
X593344Y36424D01*
X593344Y44996D02*
X593344Y45624D01*
X593344Y54196D02*
X593344Y55054D01*
X593344Y63626D02*
X593344Y64724D01*
X593344Y73296D02*
X593344Y75216D01*
X601472Y-8286D02*
X601472Y-9101D01*
X601472Y10286D02*
X601472Y12714D01*
X601472Y36296D02*
X601472Y36424D01*
X601472Y44996D02*
X601472Y45624D01*
X601472Y54196D02*
X601472Y55054D01*
X601472Y63626D02*
X601472Y64724D01*
X601472Y73296D02*
X601472Y75216D01*
X609600Y-8286D02*
X609600Y-9105D01*
X609600Y10286D02*
X609600Y12714D01*
X609600Y36296D02*
X609600Y36424D01*
X609600Y44996D02*
X609600Y45624D01*
X609600Y54196D02*
X609600Y55054D01*
X609600Y63626D02*
X609600Y64724D01*
X609600Y73296D02*
X609600Y75216D01*
X617728Y-8286D02*
X617728Y-9110D01*
X617728Y10286D02*
X617728Y12714D01*
X617728Y36296D02*
X617728Y36424D01*
X617728Y44996D02*
X617728Y45624D01*
X617728Y54196D02*
X617728Y55054D01*
X617728Y63626D02*
X617728Y64724D01*
X617728Y73296D02*
X617728Y75216D01*
X625856Y-8286D02*
X625856Y-9114D01*
X625856Y10286D02*
X625856Y12714D01*
X625856Y36296D02*
X625856Y36424D01*
X625856Y44996D02*
X625856Y45624D01*
X625856Y54196D02*
X625856Y55054D01*
X625856Y63626D02*
X625856Y64724D01*
X625856Y73296D02*
X625856Y75216D01*
X633984Y-8286D02*
X633984Y-9119D01*
X633984Y10286D02*
X633984Y12714D01*
X633984Y36296D02*
X633984Y36424D01*
X633984Y44996D02*
X633984Y45624D01*
X633984Y54196D02*
X633984Y55054D01*
X633984Y63626D02*
X633984Y64724D01*
X633984Y73296D02*
X633984Y75216D01*
X642112Y-8286D02*
X642112Y-9123D01*
X642112Y10286D02*
X642112Y12714D01*
X642112Y36296D02*
X642112Y36424D01*
X642112Y44996D02*
X642112Y45624D01*
X642112Y54196D02*
X642112Y55054D01*
X642112Y63626D02*
X642112Y64724D01*
X642112Y73296D02*
X642112Y75216D01*
X650240Y-8286D02*
X650240Y-9128D01*
X650240Y10286D02*
X650240Y12714D01*
X650240Y36296D02*
X650240Y36424D01*
X650240Y44996D02*
X650240Y45624D01*
X650240Y54196D02*
X650240Y55054D01*
X650240Y63626D02*
X650240Y64724D01*
X650240Y73296D02*
X650240Y75216D01*
X658368Y-8286D02*
X658368Y-9132D01*
X658368Y10286D02*
X658368Y12714D01*
X658368Y36296D02*
X658368Y36424D01*
X658368Y44996D02*
X658368Y45624D01*
X658368Y54196D02*
X658368Y55054D01*
X658368Y63626D02*
X658368Y64724D01*
X658368Y73296D02*
X658368Y75216D01*
X666496Y-8286D02*
X666496Y-9137D01*
X666496Y10286D02*
X666496Y12714D01*
X666496Y36296D02*
X666496Y36424D01*
X666496Y44996D02*
X666496Y45624D01*
X666496Y54196D02*
X666496Y55054D01*
X666496Y63626D02*
X666496Y64724D01*
X666496Y73296D02*
X666496Y75216D01*
X674624Y-8286D02*
X674624Y-9141D01*
X674624Y10286D02*
X674624Y12714D01*
X674624Y36296D02*
X674624Y36424D01*
X674624Y44996D02*
X674624Y45624D01*
X674624Y54196D02*
X674624Y55054D01*
X674624Y63626D02*
X674624Y64724D01*
X674624Y73296D02*
X674624Y75216D01*
X682752Y-8286D02*
X682752Y-9146D01*
X682752Y10286D02*
X682752Y12714D01*
X682752Y36296D02*
X682752Y36424D01*
X682752Y44996D02*
X682752Y45624D01*
X682752Y54196D02*
X682752Y55054D01*
X682752Y63626D02*
X682752Y64724D01*
X682752Y73296D02*
X682752Y75216D01*
X690880Y-8286D02*
X690880Y-9150D01*
X690880Y10286D02*
X690880Y12714D01*
X690880Y36296D02*
X690880Y36424D01*
X690880Y44996D02*
X690880Y45624D01*
X690880Y54196D02*
X690880Y55054D01*
X690880Y63626D02*
X690880Y64724D01*
X690880Y73296D02*
X690880Y75216D01*
X699008Y-8286D02*
X699008Y-9155D01*
X699008Y10286D02*
X699008Y12714D01*
X699008Y36296D02*
X699008Y36424D01*
X699008Y44996D02*
X699008Y45624D01*
X699008Y54196D02*
X699008Y55054D01*
X699008Y63626D02*
X699008Y64724D01*
X699008Y73296D02*
X699008Y75216D01*
X707136Y-8286D02*
X707136Y-9159D01*
X707136Y10286D02*
X707136Y12714D01*
X707136Y36296D02*
X707136Y36424D01*
X707136Y44996D02*
X707136Y45624D01*
X707136Y54196D02*
X707136Y55054D01*
X707136Y63626D02*
X707136Y64724D01*
X707136Y73296D02*
X707136Y75216D01*
X715264Y-8286D02*
X715264Y-9164D01*
X715264Y10286D02*
X715264Y12714D01*
X715264Y36296D02*
X715264Y36424D01*
X715264Y44996D02*
X715264Y45624D01*
X715264Y54196D02*
X715264Y55054D01*
X715264Y63626D02*
X715264Y64724D01*
X715264Y73296D02*
X715264Y75216D01*
X723392Y-8286D02*
X723392Y-9168D01*
X723392Y10286D02*
X723392Y12714D01*
X723392Y36296D02*
X723392Y36424D01*
X723392Y44996D02*
X723392Y45624D01*
X723392Y54196D02*
X723392Y55054D01*
X723392Y63626D02*
X723392Y64724D01*
X723392Y73296D02*
X723392Y75216D01*
X731520Y-8286D02*
X731520Y-9173D01*
X731520Y10286D02*
X731520Y12714D01*
X731520Y36296D02*
X731520Y36424D01*
X731520Y44996D02*
X731520Y45624D01*
X731520Y54196D02*
X731520Y55054D01*
X731520Y63626D02*
X731520Y64724D01*
X731520Y73296D02*
X731520Y75216D01*
X739648Y-8286D02*
X739648Y-9177D01*
X739648Y10286D02*
X739648Y12714D01*
X739648Y36296D02*
X739648Y36424D01*
X739648Y44996D02*
X739648Y45624D01*
X739648Y54196D02*
X739648Y55054D01*
X739648Y63626D02*
X739648Y64724D01*
X739648Y73296D02*
X739648Y75216D01*
X747776Y-8286D02*
X747776Y-9182D01*
X747776Y10286D02*
X747776Y12714D01*
X747776Y36296D02*
X747776Y36424D01*
X747776Y44996D02*
X747776Y45624D01*
X747776Y54196D02*
X747776Y55054D01*
X747776Y63626D02*
X747776Y64724D01*
X747776Y73296D02*
X747776Y75216D01*
X755904Y-8286D02*
X755904Y-9186D01*
X755904Y10286D02*
X755904Y12714D01*
X755904Y36296D02*
X755904Y36424D01*
X755904Y44996D02*
X755904Y45624D01*
X755904Y54196D02*
X755904Y55054D01*
X755904Y63626D02*
X755904Y64724D01*
X755904Y73296D02*
X755904Y75216D01*
X764032Y-8286D02*
X764032Y-9191D01*
X764032Y10286D02*
X764032Y12714D01*
X764032Y36296D02*
X764032Y36424D01*
X764032Y44996D02*
X764032Y45624D01*
X764032Y54196D02*
X764032Y55054D01*
X764032Y63626D02*
X764032Y64724D01*
X764032Y73296D02*
X764032Y75216D01*
X772160Y-8286D02*
X772160Y-9195D01*
X772160Y10286D02*
X772160Y12714D01*
X772160Y36296D02*
X772160Y36424D01*
X772160Y44996D02*
X772160Y45624D01*
X772160Y54196D02*
X772160Y55054D01*
X772160Y63626D02*
X772160Y64724D01*
X772160Y73296D02*
X772160Y75216D01*
X780288Y-8286D02*
X780288Y-9200D01*
X780288Y10286D02*
X780288Y12714D01*
X780288Y36296D02*
X780288Y36424D01*
X780288Y44996D02*
X780288Y45624D01*
X780288Y54196D02*
X780288Y55054D01*
X780288Y63626D02*
X780288Y64724D01*
X780288Y73296D02*
X780288Y75216D01*
X788416Y-8286D02*
X788416Y-9204D01*
X788416Y10286D02*
X788416Y12714D01*
X788416Y36296D02*
X788416Y36424D01*
X788416Y44996D02*
X788416Y45624D01*
X788416Y54196D02*
X788416Y55054D01*
X788416Y63626D02*
X788416Y64724D01*
X788416Y73296D02*
X788416Y75216D01*
X796544Y-8286D02*
X796544Y-9209D01*
X796544Y10286D02*
X796544Y12714D01*
X796544Y36296D02*
X796544Y36424D01*
X796544Y44996D02*
X796544Y45624D01*
X796544Y54196D02*
X796544Y55054D01*
X796544Y63626D02*
X796544Y64724D01*
X796544Y73296D02*
X796544Y75216D01*
X804672Y-8286D02*
X804672Y-9213D01*
X804672Y10286D02*
X804672Y12714D01*
X804672Y36296D02*
X804672Y36424D01*
X804672Y44996D02*
X804672Y45624D01*
X804672Y54196D02*
X804672Y55054D01*
X804672Y63626D02*
X804672Y64724D01*
X804672Y73296D02*
X804672Y75216D01*
X812800Y-8286D02*
X812800Y-9218D01*
X812800Y10286D02*
X812800Y12714D01*
X812800Y36296D02*
X812800Y36424D01*
X812800Y44996D02*
X812800Y45624D01*
X812800Y54196D02*
X812800Y55054D01*
X812800Y63626D02*
X812800Y64724D01*
X812800Y73296D02*
X812800Y75216D01*
X820928Y-8286D02*
X820928Y-9222D01*
X820928Y10286D02*
X820928Y12714D01*
X820928Y36296D02*
X820928Y36424D01*
X820928Y44996D02*
X820928Y45624D01*
X820928Y54196D02*
X820928Y55054D01*
X820928Y63626D02*
X820928Y64724D01*
X820928Y73296D02*
X820928Y75216D01*
X829056Y-8286D02*
X829056Y-9227D01*
X829056Y10286D02*
X829056Y12714D01*
X829056Y36296D02*
X829056Y36424D01*
X829056Y44996D02*
X829056Y45624D01*
X829056Y54196D02*
X829056Y55054D01*
X829056Y63626D02*
X829056Y64724D01*
X829056Y73296D02*
X829056Y75216D01*
X837184Y-8286D02*
X837184Y-9231D01*
X837184Y10286D02*
X837184Y12714D01*
X837184Y36296D02*
X837184Y36424D01*
X837184Y44996D02*
X837184Y45624D01*
X837184Y54196D02*
X837184Y55054D01*
X837184Y63626D02*
X837184Y64724D01*
X837184Y73296D02*
X837184Y75216D01*
X845312Y-8286D02*
X845312Y-9236D01*
X845312Y10286D02*
X845312Y12714D01*
X845312Y36296D02*
X845312Y36424D01*
X845312Y44996D02*
X845312Y45624D01*
X845312Y54196D02*
X845312Y55054D01*
X845312Y63626D02*
X845312Y64724D01*
X845312Y73296D02*
X845312Y75216D01*
X853440Y-8286D02*
X853440Y-9240D01*
X853440Y10286D02*
X853440Y12714D01*
X853440Y36296D02*
X853440Y36424D01*
X853440Y44996D02*
X853440Y45624D01*
X853440Y54196D02*
X853440Y55054D01*
X853440Y63626D02*
X853440Y64724D01*
X853440Y73296D02*
X853440Y75216D01*
X861568Y-8286D02*
X861568Y-9245D01*
X861568Y10286D02*
X861568Y12714D01*
X861568Y36296D02*
X861568Y36424D01*
X861568Y44996D02*
X861568Y45624D01*
X861568Y54196D02*
X861568Y55054D01*
X861568Y63626D02*
X861568Y64724D01*
X861568Y73296D02*
X861568Y75216D01*
X869696Y-8286D02*
X869696Y-9249D01*
X869696Y10286D02*
X869696Y12714D01*
X869696Y36296D02*
X869696Y36424D01*
X869696Y44996D02*
X869696Y45624D01*
X869696Y54196D02*
X869696Y55054D01*
X869696Y63626D02*
X869696Y64724D01*
X869696Y73296D02*
X869696Y75216D01*
X877824Y-8286D02*
X877824Y-9254D01*
X877824Y10286D02*
X877824Y12714D01*
X877824Y36296D02*
X877824Y36424D01*
X877824Y44996D02*
X877824Y45624D01*
X877824Y54196D02*
X877824Y55054D01*
X877824Y63626D02*
X877824Y64724D01*
X877824Y73296D02*
X877824Y75216D01*
X885952Y-8286D02*
X885952Y-9258D01*
X885952Y10286D02*
X885952Y12714D01*
X885952Y36296D02*
X885952Y36424D01*
X885952Y44996D02*
X885952Y45624D01*
X885952Y54196D02*
X885952Y55054D01*
X885952Y63626D02*
X885952Y64724D01*
X885952Y73296D02*
X885952Y75216D01*
X894080Y-8286D02*
X894080Y-9263D01*
X894080Y10286D02*
X894080Y12714D01*
X894080Y36296D02*
X894080Y36424D01*
X894080Y44996D02*
X894080Y45624D01*
X894080Y54196D02*
X894080Y55054D01*
X894080Y63626D02*
X894080Y64724D01*
X894080Y73296D02*
X894080Y75216D01*
X902208Y-8286D02*
X902208Y-9267D01*
X902208Y10286D02*
X902208Y12714D01*
X902208Y36296D02*
X902208Y36424D01*
X902208Y44996D02*
X902208Y45624D01*
X902208Y54196D02*
X902208Y55054D01*
X902208Y63626D02*
X902208Y64724D01*
X902208Y73296D02*
X902208Y75216D01*
X910336Y-8286D02*
X910336Y-9272D01*
X910336Y10286D02*
X910336Y12714D01*
X910336Y36296D02*
X910336Y36424D01*
X910336Y44996D02*
X910336Y45624D01*
X910336Y54196D02*
X910336Y55054D01*
X910336Y63626D02*
X910336Y64724D01*
X910336Y73296D02*
X910336Y75216D01*
X918464Y-8286D02*
X918464Y-9276D01*
X918464Y10286D02*
X918464Y12714D01*
X918464Y36296D02*
X918464Y36424D01*
X918464Y44996D02*
X918464Y45624D01*
X918464Y54196D02*
X918464Y55054D01*
X918464Y63626D02*
X918464Y64724D01*
X918464Y73296D02*
X918464Y75216D01*
X926592Y-8286D02*
X926592Y-9281D01*
X926592Y10286D02*
X926592Y12714D01*
X926592Y36296D02*
X926592Y36424D01*
X926592Y44996D02*
X926592Y45624D01*
X926592Y54196D02*
X926592Y55054D01*
X926592Y63626D02*
X926592Y64724D01*
X926592Y73296D02*
X926592Y75216D01*
X934720Y-8286D02*
X934720Y-9285D01*
X934720Y10286D02*
X934720Y12714D01*
X934720Y36296D02*
X934720Y36424D01*
X934720Y44996D02*
X934720Y45624D01*
X934720Y54196D02*
X934720Y55054D01*
X934720Y63626D02*
X934720Y64724D01*
X934720Y73296D02*
X934720Y75216D01*
X942848Y-8286D02*
X942848Y-9290D01*
X942848Y10286D02*
X942848Y12714D01*
X942848Y36296D02*
X942848Y36424D01*
X942848Y44996D02*
X942848Y45624D01*
X942848Y54196D02*
X942848Y55054D01*
X942848Y63626D02*
X942848Y64724D01*
X942848Y73296D02*
X942848Y75216D01*
X950976Y-8286D02*
X950976Y-9294D01*
X950976Y10286D02*
X950976Y12714D01*
X950976Y36296D02*
X950976Y36424D01*
X950976Y44996D02*
X950976Y45624D01*
X950976Y54196D02*
X950976Y55054D01*
X950976Y63626D02*
X950976Y64724D01*
X950976Y73296D02*
X950976Y75216D01*
X959104Y-8286D02*
X959104Y-9299D01*
X959104Y10286D02*
X959104Y12714D01*
X959104Y36296D02*
X959104Y36424D01*
X959104Y44996D02*
X959104Y45624D01*
X959104Y54196D02*
X959104Y55054D01*
X959104Y63626D02*
X959104Y64724D01*
X959104Y73296D02*
X959104Y75216D01*
X967232Y-8286D02*
X967232Y-9303D01*
X967232Y10286D02*
X967232Y12714D01*
X967232Y36296D02*
X967232Y36424D01*
X967232Y44996D02*
X967232Y45624D01*
X967232Y54196D02*
X967232Y55054D01*
X967232Y63626D02*
X967232Y64724D01*
X967232Y73296D02*
X967232Y75216D01*
X975360Y-8286D02*
X975360Y-9308D01*
X975360Y10286D02*
X975360Y12714D01*
X975360Y36296D02*
X975360Y36424D01*
X975360Y44996D02*
X975360Y45624D01*
X975360Y54196D02*
X975360Y55054D01*
X975360Y63626D02*
X975360Y64724D01*
X975360Y73296D02*
X975360Y75216D01*
X983488Y-8286D02*
X983488Y-9312D01*
X983488Y10286D02*
X983488Y12714D01*
X983488Y36296D02*
X983488Y36424D01*
X983488Y44996D02*
X983488Y45624D01*
X983488Y54196D02*
X983488Y55054D01*
X983488Y63626D02*
X983488Y64724D01*
X983488Y73296D02*
X983488Y75216D01*
X991616Y-8286D02*
X991616Y-9317D01*
X991616Y10286D02*
X991616Y12714D01*
X991616Y36296D02*
X991616Y36424D01*
X991616Y44996D02*
X991616Y45624D01*
X991616Y54196D02*
X991616Y55054D01*
X991616Y63626D02*
X991616Y64724D01*
X991616Y73296D02*
X991616Y75216D01*
X999744Y-8286D02*
X999744Y-9321D01*
X999744Y10286D02*
X999744Y12714D01*
X999744Y36296D02*
X999744Y36424D01*
X999744Y44996D02*
X999744Y45624D01*
X999744Y54196D02*
X999744Y55054D01*
X999744Y63626D02*
X999744Y64724D01*
X999744Y73296D02*
X999744Y75216D01*
X1007872Y-8286D02*
X1007872Y-9326D01*
X1007872Y10286D02*
X1007872Y12714D01*
X1007872Y36296D02*
X1007872Y36424D01*
X1007872Y44996D02*
X1007872Y45624D01*
X1007872Y54196D02*
X1007872Y55054D01*
X1007872Y63626D02*
X1007872Y64724D01*
X1007872Y73296D02*
X1007872Y75216D01*
X1016000Y-8286D02*
X1016000Y-9330D01*
X1016000Y10286D02*
X1016000Y12714D01*
X1016000Y36296D02*
X1016000Y36424D01*
X1016000Y44996D02*
X1016000Y45624D01*
X1016000Y54196D02*
X1016000Y55054D01*
X1016000Y63626D02*
X1016000Y64724D01*
X1016000Y73296D02*
X1016000Y75216D01*
X1024128Y-8286D02*
X1024128Y-9335D01*
X1024128Y10286D02*
X1024128Y12714D01*
X1024128Y36296D02*
X1024128Y36424D01*
X1024128Y44996D02*
X1024128Y45624D01*
X1024128Y54196D02*
X1024128Y55054D01*
X1024128Y63626D02*
X1024128Y64724D01*
X1024128Y73296D02*
X1024128Y75216D01*
X1032256Y-8286D02*
X1032256Y-9339D01*
X1032256Y10286D02*
X1032256Y12714D01*
X1032256Y36296D02*
X1032256Y36424D01*
X1032256Y44996D02*
X1032256Y45624D01*
X1032256Y54196D02*
X1032256Y55054D01*
X1032256Y63626D02*
X1032256Y64724D01*
X1032256Y73296D02*
X1032256Y75216D01*
X1040384Y-8286D02*
X1040384Y-9344D01*
X1040384Y10286D02*
X1040384Y12714D01*
X1040384Y36296D02*
X1040384Y36424D01*
X1040384Y44996D02*
X1040384Y45624D01*
X1040384Y54196D02*
X1040384Y55054D01*
X1040384Y63626D02*
X1040384Y64724D01*
X1040384Y73296D02*
X1040384Y75216D01*
X1048512Y-8286D02*
X1048512Y-9348D01*
X1048512Y10286D02*
X1048512Y12714D01*
X1048512Y36296D02*
X1048512Y36424D01*
X1048512Y44996D02*
X1048512Y45624D01*
X1048512Y54196D02*
X1048512Y55054D01*
X1048512Y63626D02*
X1048512Y64724D01*
X1048512Y73296D02*
X1048512Y75216D01*
X1056640Y-8286D02*
X1056640Y-9353D01*
X1056640Y10286D02*
X1056640Y12714D01*
X1056640Y36296D02*
X1056640Y36424D01*
X1056640Y44996D02*
X1056640Y45624D01*
X1056640Y54196D02*
X1056640Y55054D01*
X1056640Y63626D02*
X1056640Y64724D01*
X1056640Y73296D02*
X1056640Y75216D01*
X1064768Y-8286D02*
X1064768Y-9357D01*
X1064768Y10286D02*
X1064768Y12714D01*
X1064768Y36296D02*
X1064768Y36424D01*
X1064768Y44996D02*
X1064768Y45624D01*
X1064768Y54196D02*
X1064768Y55054D01*
X1064768Y63626D02*
X1064768Y64724D01*
X1064768Y73296D02*
X1064768Y75216D01*
X1072896Y-8286D02*
X1072896Y-9362D01*
X1072896Y10286D02*
X1072896Y12714D01*
X1072896Y36296D02*
X1072896Y36424D01*
X1072896Y44996D02*
X1072896Y45624D01*
X1072896Y54196D02*
X1072896Y55054D01*
X1072896Y63626D02*
X1072896Y64724D01*
X1072896Y73296D02*
X1072896Y75216D01*
X1081024Y-8286D02*
X1081024Y-9366D01*
X1081024Y10286D02*
X1081024Y12714D01*
X1081024Y36296D02*
X1081024Y36424D01*
X1081024Y44996D02*
X1081024Y45624D01*
X1081024Y54196D02*
X1081024Y55054D01*
X1081024Y63626D02*
X1081024Y64724D01*
X1081024Y73296D02*
X1081024Y75216D01*
X1089152Y-8286D02*
X1089152Y-9371D01*
X1089152Y10286D02*
X1089152Y12714D01*
X1089152Y36296D02*
X1089152Y36424D01*
X1089152Y44996D02*
X1089152Y45624D01*
X1089152Y54196D02*
X1089152Y55054D01*
X1089152Y63626D02*
X1089152Y64724D01*
X1089152Y73296D02*
X1089152Y75216D01*
X1097280Y-8286D02*
X1097280Y-9375D01*
X1097280Y10286D02*
X1097280Y12714D01*
X1097280Y36296D02*
X1097280Y36424D01*
X1097280Y44996D02*
X1097280Y45624D01*
X1097280Y54196D02*
X1097280Y55054D01*
X1097280Y63626D02*
X1097280Y64724D01*
X1097280Y73296D02*
X1097280Y75216D01*
X1105408Y-8286D02*
X1105408Y-9380D01*
X1105408Y10286D02*
X1105408Y12714D01*
X1105408Y36296D02*
X1105408Y36424D01*
X1105408Y44996D02*
X1105408Y45624D01*
X1105408Y54196D02*
X1105408Y55054D01*
X1105408Y63626D02*
X1105408Y64724D01*
X1105408Y73296D02*
X1105408Y75216D01*
X1113536Y-8286D02*
X1113536Y-9384D01*
X1113536Y10286D02*
X1113536Y12714D01*
X1113536Y36296D02*
X1113536Y36424D01*
X1113536Y44996D02*
X1113536Y45624D01*
X1113536Y54196D02*
X1113536Y55054D01*
X1113536Y63626D02*
X1113536Y64724D01*
X1113536Y73296D02*
X1113536Y75216D01*
X1121664Y-8286D02*
X1121664Y-9389D01*
X1121664Y10286D02*
X1121664Y12714D01*
X1121664Y36296D02*
X1121664Y36424D01*
X1121664Y44996D02*
X1121664Y45624D01*
X1121664Y54196D02*
X1121664Y55054D01*
X1121664Y63626D02*
X1121664Y64724D01*
X1121664Y73296D02*
X1121664Y75216D01*
X1129792Y-8286D02*
X1129792Y-9393D01*
X1129792Y10286D02*
X1129792Y12714D01*
X1129792Y36296D02*
X1129792Y36424D01*
X1129792Y44996D02*
X1129792Y45624D01*
X1129792Y54196D02*
X1129792Y55054D01*
X1129792Y63626D02*
X1129792Y64724D01*
X1129792Y73296D02*
X1129792Y75216D01*
X1137920Y-8286D02*
X1137920Y-9398D01*
X1137920Y10286D02*
X1137920Y12714D01*
X1137920Y36296D02*
X1137920Y36424D01*
X1137920Y44996D02*
X1137920Y45624D01*
X1137920Y54196D02*
X1137920Y55054D01*
X1137920Y63626D02*
X1137920Y64724D01*
X1137920Y73296D02*
X1137920Y75216D01*
X1146048Y-8286D02*
X1146048Y-9402D01*
X1146048Y10286D02*
X1146048Y12714D01*
X1146048Y36296D02*
X1146048Y36424D01*
X1146048Y44996D02*
X1146048Y45624D01*
X1146048Y54196D02*
X1146048Y55054D01*
X1146048Y63626D02*
X1146048Y64724D01*
X1146048Y73296D02*
X1146048Y75216D01*
X1154176Y-8286D02*
X1154176Y-9407D01*
X1154176Y10286D02*
X1154176Y12714D01*
X1154176Y36296D02*
X1154176Y36424D01*
X1154176Y44996D02*
X1154176Y45624D01*
X1154176Y54196D02*
X1154176Y55054D01*
X1154176Y63626D02*
X1154176Y64724D01*
X1154176Y73296D02*
X1154176Y75216D01*
X1162304Y-8286D02*
X1162304Y-9411D01*
X1162304Y10286D02*
X1162304Y12714D01*
X1162304Y36296D02*
X1162304Y36424D01*
X1162304Y44996D02*
X1162304Y45624D01*
X1162304Y54196D02*
X1162304Y55054D01*
X1162304Y63626D02*
X1162304Y64724D01*
X1162304Y73296D02*
X1162304Y75216D01*
X1170432Y-8286D02*
X1170432Y-9416D01*
X1170432Y10286D02*
X1170432Y12714D01*
X1170432Y36296D02*
X1170432Y36424D01*
X1170432Y44996D02*
X1170432Y45624D01*
X1170432Y54196D02*
X1170432Y55054D01*
X1170432Y63626D02*
X1170432Y64724D01*
X1170432Y73296D02*
X1170432Y75216D01*
X1178560Y-8286D02*
X1178560Y-9420D01*
X1178560Y10286D02*
X1178560Y12714D01*
X1178560Y36296D02*
X1178560Y36424D01*
X1178560Y44996D02*
X1178560Y45624D01*
X1178560Y54196D02*
X1178560Y55054D01*
X1178560Y63626D02*
X1178560Y64724D01*
X1178560Y73296D02*
X1178560Y75216D01*
X1186688Y-8286D02*
X1186688Y-9425D01*
X1186688Y10286D02*
X1186688Y12714D01*
X1186688Y36296D02*
X1186688Y36424D01*
X1186688Y44996D02*
X1186688Y45624D01*
X1186688Y54196D02*
X1186688Y55054D01*
X1186688Y63626D02*
X1186688Y64724D01*
X1186688Y73296D02*
X1186688Y75216D01*
X1194816Y-8286D02*
X1194816Y-9429D01*
X1194816Y10286D02*
X1194816Y12714D01*
X1194816Y36296D02*
X1194816Y36424D01*
X1194816Y44996D02*
X1194816Y45624D01*
X1194816Y54196D02*
X1194816Y55054D01*
X1194816Y63626D02*
X1194816Y64724D01*
X1194816Y73296D02*
X1194816Y75216D01*
X1202944Y-8286D02*
X1202944Y-9434D01*
X1202944Y10286D02*
X1202944Y12714D01*
X1202944Y36296D02*
X1202944Y36424D01*
X1202944Y44996D02*
X1202944Y45624D01*
X1202944Y54196D02*
X1202944Y55054D01*
X1202944Y63626D02*
X1202944Y64724D01*
X1202944Y73296D02*
X1202944Y75216D01*
X1211072Y-8286D02*
X1211072Y-9438D01*
X1211072Y10286D02*
X1211072Y12714D01*
X1211072Y36296D02*
X1211072Y36424D01*
X1211072Y44996D02*
X1211072Y45624D01*
X1211072Y54196D02*
X1211072Y55054D01*
X1211072Y63626D02*
X1211072Y64724D01*
X1211072Y73296D02*
X1211072Y75216D01*
X1219200Y-8286D02*
X1219200Y-9443D01*
X1219200Y10286D02*
X1219200Y12714D01*
X1219200Y36296D02*
X1219200Y36424D01*
X1219200Y44996D02*
X1219200Y45624D01*
X1219200Y54196D02*
X1219200Y55054D01*
X1219200Y63626D02*
X1219200Y64724D01*
X1219200Y73296D02*
X1219200Y75216D01*
X1227328Y-8286D02*
X1227328Y-9447D01*
X1227328Y10286D02*
X1227328Y12714D01*
X1227328Y36296D02*
X1227328Y36424D01*
X1227328Y44996D02*
X1227328Y45624D01*
X1227328Y54196D02*
X1227328Y55054D01*
X1227328Y63626D02*
X1227328Y64724D01*
X1227328Y73296D02*
X1227328Y75216D01*
X1235456Y-8286D02*
X1235456Y-9452D01*
X1235456Y10286D02*
X1235456Y12714D01*
X1235456Y36296D02*
X1235456Y36424D01*
X1235456Y44996D02*
X1235456Y45624D01*
X1235456Y54196D02*
X1235456Y55054D01*
X1235456Y63626D02*
X1235456Y64724D01*
X1235456Y73296D02*
X1235456Y75216D01*
X1243584Y-8286D02*
X1243584Y-9456D01*
X1243584Y10286D02*
X1243584Y12714D01*
X1243584Y36296D02*
X1243584Y36424D01*
X1243584Y44996D02*
X1243584Y45624D01*
X1243584Y54196D02*
X1243584Y55054D01*
X1243584Y63626D02*
X1243584Y64724D01*
X1243584Y73296D02*
X1243584Y75216D01*
X1251712Y-8286D02*
X1251712Y-9461D01*
X1251712Y10286D02*
X1251712Y12714D01*
X1251712Y36296D02*
X1251712Y36424D01*
X1251712Y44996D02*
X1251712Y45624D01*
X1251712Y54196D02*
X1251712Y55054D01*
X1251712Y63626D02*
X1251712Y64724D01*
X1251712Y73296D02*
X1251712Y75216D01*
X1259840Y-8286D02*
X1259840Y-9465D01*
X1259840Y10286D02*
X1259840Y12714D01*
X1259840Y36296D02*
X1259840Y36424D01*
X1259840Y44996D02*
X1259840Y45624D01*
X1259840Y54196D02*
X1259840Y55054D01*
X1259840Y63626D02*
X1259840Y64724D01*
X1259840Y73296D02*
X1259840Y75216D01*
X1267968Y-8286D02*
X1267968Y-9470D01*
X1267968Y10286D02*
X1267968Y12714D01*
X1267968Y36296D02*
X1267968Y36424D01*
X1267968Y44996D02*
X1267968Y45624D01*
X1267968Y54196D02*
X1267968Y55054D01*
X1267968Y63626D02*
X1267968Y64724D01*
X1267968Y73296D02*
X1267968Y75216D01*
X1276096Y-8286D02*
X1276096Y-9474D01*
X1276096Y10286D02*
X1276096Y12714D01*
X1276096Y36296D02*
X1276096Y36424D01*
X1276096Y44996D02*
X1276096Y45624D01*
X1276096Y54196D02*
X1276096Y55054D01*
X1276096Y63626D02*
X1276096Y64724D01*
X1276096Y73296D02*
X1276096Y75216D01*
X1284224Y-8286D02*
X1284224Y-9479D01*
X1284224Y10286D02*
X1284224Y12714D01*
X1284224Y36296D02*
X1284224Y36424D01*
X1284224Y44996D02*
X1284224Y45624D01*
X1284224Y54196D02*
X1284224Y55054D01*
X1284224Y63626D02*
X1284224Y64724D01*
X1284224Y73296D02*
X1284224Y75216D01*
X1292352Y-8286D02*
X1292352Y-9483D01*
X1292352Y10286D02*
X1292352Y12714D01*
X1292352Y36296D02*
X1292352Y36424D01*
X1292352Y44996D02*
X1292352Y45624D01*
X1292352Y54196D02*
X1292352Y55054D01*
X1292352Y63626D02*
X1292352Y64724D01*
X1292352Y73296D02*
X1292352Y75216D01*
X1300480Y-8286D02*
X1300480Y-15215D01*
X1300480Y10286D02*
X1300480Y12714D01*
X1300480Y36296D02*
X1300480Y36424D01*
X1300480Y44996D02*
X1300480Y45624D01*
X1300480Y54196D02*
X1300480Y55054D01*
X1300480Y63626D02*
X1300480Y64724D01*
X1300480Y73296D02*
X1300480Y75216D01*
X1308608Y-9792D02*
X1308608Y-23343D01*
X1308608Y10286D02*
X1308608Y12714D01*
X1308608Y36296D02*
X1308608Y36424D01*
X1308608Y44996D02*
X1308608Y45624D01*
X1308608Y54196D02*
X1308608Y55054D01*
X1308608Y63626D02*
X1308608Y64724D01*
X1308608Y73296D02*
X1308608Y75216D01*
X1316736Y-14212D02*
X1316736Y-31471D01*
X1316736Y10286D02*
X1316736Y12714D01*
X1316736Y36296D02*
X1316736Y36424D01*
X1316736Y44996D02*
X1316736Y45624D01*
X1316736Y54196D02*
X1316736Y55054D01*
X1316736Y63626D02*
X1316736Y64724D01*
X1316736Y73296D02*
X1316736Y75216D01*
X1324864Y-22125D02*
X1324864Y-39599D01*
X1324864Y8704D02*
X1324864Y12714D01*
X1324864Y36296D02*
X1324864Y36424D01*
X1324864Y44996D02*
X1324864Y45624D01*
X1324864Y54196D02*
X1324864Y55054D01*
X1324864Y63626D02*
X1324864Y64724D01*
X1324864Y73296D02*
X1324864Y75216D01*
X1332992Y-39965D02*
X1332992Y-40683D01*
X1332992Y-32725D02*
X1332992Y-30253D01*
X1332992Y4862D02*
X1332992Y12714D01*
X1332992Y36296D02*
X1332992Y36424D01*
X1332992Y44996D02*
X1332992Y45624D01*
X1332992Y54196D02*
X1332992Y55054D01*
X1332992Y63626D02*
X1332992Y64724D01*
X1332992Y73296D02*
X1332992Y75216D01*
X1341120Y-43739D02*
X1341120Y-55855D01*
X1341120Y-40683D02*
X1341120Y-39965D01*
X1341120Y-2259D02*
X1341120Y12606D01*
X1341120Y36296D02*
X1341120Y36424D01*
X1341120Y44996D02*
X1341120Y45624D01*
X1341120Y54196D02*
X1341120Y55054D01*
X1341120Y63626D02*
X1341120Y64724D01*
X1341120Y73296D02*
X1341120Y75216D01*
X1349248Y-46509D02*
X1349248Y-63983D01*
X1349248Y-10387D02*
X1349248Y10761D01*
X1349248Y36296D02*
X1349248Y36424D01*
X1349248Y44996D02*
X1349248Y45624D01*
X1349248Y54196D02*
X1349248Y55054D01*
X1349248Y63626D02*
X1349248Y64724D01*
X1349248Y73296D02*
X1349248Y75216D01*
X1357376Y-54637D02*
X1357376Y-70975D01*
X1357376Y-18515D02*
X1357376Y-15682D01*
X1357376Y-8683D02*
X1357376Y-7965D01*
X1357376Y-966D02*
X1357376Y5350D01*
X1357376Y36296D02*
X1357376Y36424D01*
X1357376Y44996D02*
X1357376Y45624D01*
X1357376Y54196D02*
X1357376Y55054D01*
X1357376Y63626D02*
X1357376Y64724D01*
X1357376Y73296D02*
X1357376Y75216D01*
X1365504Y-62376D02*
X1365504Y-70945D01*
X1365504Y-26643D02*
X1365504Y-13407D01*
X1365504Y-8683D02*
X1365504Y-7965D01*
X1365504Y-3241D02*
X1365504Y-2765D01*
X1365504Y35994D02*
X1365504Y36424D01*
X1365504Y44996D02*
X1365504Y45624D01*
X1365504Y54196D02*
X1365504Y55054D01*
X1365504Y63626D02*
X1365504Y64724D01*
X1365504Y73296D02*
X1365504Y75216D01*
X1373632Y-66364D02*
X1373632Y-70915D01*
X1373632Y-32277D02*
X1373632Y-10893D01*
X1373632Y33289D02*
X1373632Y36424D01*
X1373632Y44996D02*
X1373632Y45624D01*
X1373632Y54196D02*
X1373632Y55054D01*
X1373632Y63626D02*
X1373632Y64724D01*
X1373632Y73296D02*
X1373632Y75216D01*
X1381760Y-67776D02*
X1381760Y-70885D01*
X1381760Y-33804D02*
X1381760Y-19021D01*
X1381760Y27301D02*
X1381760Y36424D01*
X1381760Y44996D02*
X1381760Y45624D01*
X1381760Y54196D02*
X1381760Y55054D01*
X1381760Y63626D02*
X1381760Y64724D01*
X1381760Y73296D02*
X1381760Y75216D01*
X1389888Y-67776D02*
X1389888Y-70855D01*
X1389888Y-33804D02*
X1389888Y-25710D01*
X1389888Y26147D02*
X1389888Y26865D01*
X1389888Y34082D02*
X1389888Y34558D01*
X1389888Y44081D02*
X1389888Y45624D01*
X1389888Y54196D02*
X1389888Y55054D01*
X1389888Y63626D02*
X1389888Y64724D01*
X1389888Y73296D02*
X1389888Y75216D01*
X1398016Y-67776D02*
X1398016Y-70825D01*
X1398016Y-33804D02*
X1398016Y-28929D01*
X1398016Y17187D02*
X1398016Y22831D01*
X1398016Y26147D02*
X1398016Y26865D01*
X1398016Y39045D02*
X1398016Y45624D01*
X1398016Y54196D02*
X1398016Y55054D01*
X1398016Y63626D02*
X1398016Y64724D01*
X1398016Y73296D02*
X1398016Y75216D01*
X1406144Y-67776D02*
X1406144Y-70795D01*
X1406144Y-33804D02*
X1406144Y-29676D01*
X1406144Y16996D02*
X1406144Y22747D01*
X1406144Y36021D02*
X1406144Y36739D01*
X1406144Y43218D02*
X1406144Y44594D01*
X1406144Y53609D02*
X1406144Y55054D01*
X1406144Y63626D02*
X1406144Y64724D01*
X1406144Y73296D02*
X1406144Y75216D01*
X1414272Y-67776D02*
X1414272Y-70765D01*
X1414272Y-33804D02*
X1414272Y-29676D01*
X1414272Y16996D02*
X1414272Y21124D01*
X1414272Y29816D02*
X1414272Y30164D01*
X1414272Y36021D02*
X1414272Y36739D01*
X1414272Y50163D02*
X1414272Y55054D01*
X1414272Y63626D02*
X1414272Y64724D01*
X1414272Y73296D02*
X1414272Y75216D01*
X1422400Y-67776D02*
X1422400Y-70735D01*
X1422400Y-33804D02*
X1422400Y-29676D01*
X1422400Y16996D02*
X1422400Y21124D01*
X1422400Y29696D02*
X1422400Y34784D01*
X1422400Y44033D02*
X1422400Y44558D01*
X1422400Y48467D02*
X1422400Y49185D01*
X1422400Y53094D02*
X1422400Y55054D01*
X1422400Y63626D02*
X1422400Y64724D01*
X1422400Y73296D02*
X1422400Y76108D01*
X1430528Y-67776D02*
X1430528Y-70705D01*
X1430528Y-33804D02*
X1430528Y-29676D01*
X1430528Y16996D02*
X1430528Y21124D01*
X1430528Y29696D02*
X1430528Y33824D01*
X1430528Y48467D02*
X1430528Y49185D01*
X1430528Y63626D02*
X1430528Y64724D01*
X1430528Y73296D02*
X1430528Y79355D01*
X1438656Y-67776D02*
X1438656Y-70675D01*
X1438656Y-33804D02*
X1438656Y-29676D01*
X1438656Y16996D02*
X1438656Y21124D01*
X1438656Y29696D02*
X1438656Y33824D01*
X1438656Y42396D02*
X1438656Y48909D01*
X1438656Y60651D02*
X1438656Y64720D01*
X1438656Y73292D02*
X1438656Y85910D01*
X1446784Y-67776D02*
X1446784Y-70645D01*
X1446784Y-33804D02*
X1446784Y-29676D01*
X1446784Y16996D02*
X1446784Y21124D01*
X1446784Y29696D02*
X1446784Y33824D01*
X1446784Y42396D02*
X1446784Y46524D01*
X1446784Y58967D02*
X1446784Y59685D01*
X1446784Y72694D02*
X1446784Y76248D01*
X1446784Y83043D02*
X1446784Y83761D01*
X1446784Y90556D02*
X1446784Y94038D01*
X1454912Y-67776D02*
X1454912Y-70615D01*
X1454912Y-33804D02*
X1454912Y-29676D01*
X1454912Y16996D02*
X1454912Y21124D01*
X1454912Y29696D02*
X1454912Y33824D01*
X1454912Y42396D02*
X1454912Y46524D01*
X1454912Y58967D02*
X1454912Y59685D01*
X1454912Y71093D02*
X1454912Y77827D01*
X1454912Y83043D02*
X1454912Y83761D01*
X1454912Y88977D02*
X1454912Y102166D01*
X1463040Y-67776D02*
X1463040Y-70585D01*
X1463040Y-33804D02*
X1463040Y-29676D01*
X1463040Y16996D02*
X1463040Y21124D01*
X1463040Y29696D02*
X1463040Y33824D01*
X1463040Y42396D02*
X1463040Y46524D01*
X1463040Y55096D02*
X1463040Y60054D01*
X1463040Y68925D02*
X1463040Y92834D01*
X1463040Y100053D02*
X1463040Y100771D01*
X1463040Y107990D02*
X1463040Y109752D01*
X1471168Y78274D02*
X1471168Y72771D01*
X1471168Y86624D02*
X1471168Y88656D01*
X1471168Y100053D02*
X1471168Y100771D01*
X1471168Y104075D02*
X1471168Y109619D01*
X1479296Y78274D02*
X1479296Y72771D01*
X1479296Y86892D02*
X1479296Y87860D01*
X1479296Y97006D02*
X1479296Y108839D01*
X1487424Y78274D02*
X1487424Y72771D01*
X1487424Y86892D02*
X1487424Y87860D01*
X1487424Y97006D02*
X1487424Y108839D01*
D16*
X106018Y99112D03*
X169914Y73210D03*
X300682Y-18044D03*
X59644Y60400D03*
X27644Y37888D03*
X56144Y25750D03*
X163552Y-20008D03*
X189692Y-20262D03*
X1464366Y100412D03*
X1449610Y83402D03*
X1359710Y-8324D03*
X1391222Y26506D03*
X1409732Y36380D03*
X1428798Y48826D03*
D19*
X6500Y110500D02*
X0Y110500D01*
D15*
X12000Y35000D02*
X6500Y32500D01*
X12000Y30600D02*
X12000Y35000D01*
X12000Y30600D02*
X6500Y32500D01*
X6500Y65000D02*
X12000Y67500D01*
X12000Y63100D01*
X6500Y65000D01*
X12500Y8500D02*
X12500Y4600D01*
X7000Y6500D01*
X12000Y-18000D02*
X12000Y-22000D01*
X6500Y-19500D01*
X6500Y110500D02*
X10730Y112423D01*
X10730Y108577D01*
X6500Y110500D01*
D20*
X6500Y65000D02*
X2000Y65000D01*
D16*
X40662Y105604D03*
D15*
X12500Y8500D02*
X6500Y6500D01*
X12000Y-18000D02*
X6500Y-19500D01*
D16*
X195518Y110112D03*
X234518Y110112D03*
X1334210Y-40324D03*
X25644Y8750D03*
X1449298Y59326D03*
D15*
X1443500Y64000D01*
X1449298Y59326D02*
X1456000Y55500D01*
X1433000Y43000D02*
X1428798Y48826D01*
X1424500Y54500D01*
X1428798Y48826D02*
X1423500Y44000D01*
X1409732Y36380D02*
X1414000Y30500D01*
X1409732Y36380D02*
X1407500Y43500D01*
X1390000Y33500D02*
X1391222Y26506D01*
X1392500Y19000D01*
D21*
X21500Y66500D03*
D16*
X84644Y66900D03*
D21*
X99500Y-5000D03*
D14*
X6500Y19500D03*
X0Y19500D03*
D15*
X2000Y19500D02*
X13400Y19500D01*
D14*
X6500Y26000D03*
D20*
X2000Y26000D01*
D15*
X13500Y26000D01*
D14*
X0Y26000D03*
X6500Y45500D03*
D20*
X2000Y45500D01*
D14*
X0Y45500D03*
D15*
X2000Y45500D02*
X13600Y45500D01*
D14*
X6500Y52000D03*
X0Y52000D03*
D15*
X2000Y52000D02*
X13400Y52000D01*
D14*
X6500Y58500D03*
X0Y58500D03*
D15*
X2000Y58500D02*
X13500Y58500D01*
D14*
X6500Y84500D03*
D20*
X2000Y84500D01*
D14*
X0Y84500D03*
D15*
X2000Y84500D02*
X13400Y84500D01*
D14*
X6500Y78000D03*
X0Y78000D03*
D15*
X2000Y78000D02*
X13500Y78000D01*
D14*
X6500Y91000D03*
X0Y91000D03*
D15*
X2000Y91000D02*
X13400Y91000D01*
D21*
X163500Y-5000D03*
D22*
X1493880Y63500D03*
D21*
X1486260Y63500D03*
D18*
X1486260Y66040D01*
X1478640Y63500D01*
X1486260Y60960D01*
X1490195Y63505D02*
X1490200Y63505D01*
X1490195Y63505D02*
X1486260Y63500D01*
D20*
X1490200Y63505D02*
X1493685Y63505D01*
D18*
X1479760Y60960D02*
X1472140Y63500D01*
X1479760Y66040D01*
X1479760Y60960D02*
X1486260Y60960D01*
X1486260Y63500D01*
D15*
X1493880Y63500D02*
X1472140Y63500D01*
X163000Y42722D02*
X163500Y-5000D01*
X163000Y42722D02*
X163005Y43169D01*
X163021Y43615D01*
X163048Y44062D01*
X163085Y44507D01*
X163133Y44951D01*
X163191Y45394D01*
X163260Y45836D01*
X163339Y46276D01*
X163429Y46714D01*
X163529Y47149D01*
X163640Y47582D01*
X163761Y48012D01*
X163892Y48440D01*
X164033Y48864D01*
X164184Y49284D01*
X164345Y49701D01*
X164516Y50114D01*
X164697Y50523D01*
X164887Y50927D01*
X165087Y51327D01*
X165297Y51721D01*
X165516Y52111D01*
X165744Y52495D01*
X165981Y52874D01*
X166227Y53247D01*
X166482Y53614D01*
X166745Y53975D01*
X167017Y54330D01*
X167298Y54678D01*
X167587Y55019D01*
X167883Y55353D01*
X168188Y55680D01*
X168500Y56000D01*
X169571Y57071D01*
X169570Y57071D02*
X169951Y57623D01*
X170344Y58166D01*
X170751Y58700D01*
X171169Y59223D01*
X171601Y59737D01*
X172044Y60240D01*
X172499Y60732D01*
X172966Y61214D01*
X173444Y61684D01*
X173933Y62143D01*
X174433Y62590D01*
X174944Y63025D01*
X175465Y63448D01*
X175995Y63858D01*
X176535Y64255D01*
X177085Y64640D01*
X177643Y65011D01*
X178211Y65369D01*
X178786Y65713D01*
X179370Y66044D01*
X179961Y66360D01*
X180560Y66662D01*
X181165Y66950D01*
X181778Y67224D01*
X182396Y67483D01*
X183021Y67727D01*
X183651Y67956D01*
X184287Y68170D01*
X184927Y68369D01*
X185572Y68553D01*
X186221Y68721D01*
X186874Y68873D01*
X187531Y69010D01*
X1435990Y69010D01*
X1463000Y64500D02*
X1472140Y63500D01*
X1463000Y64500D02*
X1455500Y66500D01*
X1443500Y69000D01*
X1435990Y69010D01*
D21*
X365500Y-18000D03*
D15*
X372061Y-11440D01*
X372060Y-11439D02*
X372493Y-11017D01*
X372935Y-10605D01*
X373388Y-10204D01*
X373849Y-9814D01*
X374320Y-9434D01*
X374799Y-9066D01*
X375288Y-8710D01*
X375784Y-8365D01*
X376289Y-8032D01*
X376801Y-7711D01*
X377321Y-7403D01*
X377848Y-7107D01*
X378382Y-6824D01*
X378923Y-6553D01*
X379469Y-6295D01*
X380022Y-6051D01*
X380581Y-5819D01*
X381145Y-5601D01*
X381713Y-5397D01*
X382287Y-5206D01*
X382865Y-5029D01*
X383447Y-4865D01*
X384033Y-4716D01*
X384622Y-4580D01*
X385214Y-4459D01*
X385809Y-4352D01*
X386406Y-4259D01*
X387006Y-4180D01*
X387607Y-4115D01*
X388209Y-4065D01*
X388812Y-4029D01*
X389417Y-4007D01*
X390021Y-4000D01*
X1300479Y-4000D02*
X1301209Y-4009D01*
X1301939Y-4036D01*
X1302667Y-4081D01*
X1303395Y-4143D01*
X1304120Y-4224D01*
X1304844Y-4322D01*
X1305564Y-4438D01*
X1306282Y-4572D01*
X1306996Y-4723D01*
X1307707Y-4891D01*
X1308413Y-5078D01*
X1309114Y-5281D01*
X1309810Y-5501D01*
X1310500Y-5739D01*
X1311184Y-5993D01*
X1311862Y-6264D01*
X1312533Y-6552D01*
X1313197Y-6856D01*
X1313853Y-7176D01*
X1314501Y-7512D01*
X1315141Y-7864D01*
X1315771Y-8232D01*
X1316393Y-8615D01*
X1317005Y-9013D01*
X1317607Y-9426D01*
X1318199Y-9854D01*
X1318780Y-10296D01*
X1319350Y-10752D01*
X1319908Y-11222D01*
X1320455Y-11706D01*
X1320990Y-12203D01*
X1321513Y-12712D01*
X1382811Y-63490D02*
X1486260Y-63490D01*
X1300479Y-4000D02*
X390021Y-4000D01*
X1321512Y-12712D02*
X1364851Y-56051D01*
X1364850Y-56051D02*
X1365283Y-56473D01*
X1365725Y-56885D01*
X1366178Y-57286D01*
X1366639Y-57676D01*
X1367110Y-58056D01*
X1367589Y-58424D01*
X1368078Y-58780D01*
X1368574Y-59125D01*
X1369079Y-59458D01*
X1369591Y-59779D01*
X1370111Y-60087D01*
X1370638Y-60383D01*
X1371172Y-60666D01*
X1371713Y-60937D01*
X1372259Y-61195D01*
X1372812Y-61439D01*
X1373371Y-61671D01*
X1373935Y-61889D01*
X1374503Y-62093D01*
X1375077Y-62284D01*
X1375655Y-62461D01*
X1376237Y-62625D01*
X1376823Y-62774D01*
X1377412Y-62910D01*
X1378004Y-63031D01*
X1378599Y-63138D01*
X1379196Y-63231D01*
X1379796Y-63310D01*
X1380397Y-63375D01*
X1380999Y-63425D01*
X1381602Y-63461D01*
X1382207Y-63483D01*
X1382811Y-63490D01*
D22*
X1493880Y-63500D03*
D21*
X1486260Y-63500D03*
D18*
X1486260Y-63490D01*
X1486260Y-60960D01*
X1478640Y-63500D01*
X1486260Y-66040D01*
X1479760Y-60960D02*
X1472140Y-63500D01*
X1479760Y-66040D01*
X1487190Y-66040D02*
X1487190Y-63490D01*
X1487190Y-66040D02*
X1486260Y-66040D01*
D23*
X1487190Y-63490D02*
X1482290Y-63490D01*
X1479760Y-60960D01*
D21*
X345500Y-18000D03*
D15*
X357061Y-6440D01*
X357060Y-6439D02*
X357493Y-6017D01*
X357935Y-5605D01*
X358388Y-5204D01*
X358849Y-4814D01*
X359320Y-4434D01*
X359799Y-4066D01*
X360288Y-3710D01*
X360784Y-3365D01*
X361289Y-3032D01*
X361801Y-2711D01*
X362321Y-2403D01*
X362848Y-2107D01*
X363382Y-1824D01*
X363923Y-1553D01*
X364469Y-1295D01*
X365022Y-1051D01*
X365581Y-819D01*
X366145Y-601D01*
X366713Y-397D01*
X367287Y-206D01*
X367865Y-29D01*
X368447Y135D01*
X369033Y284D01*
X369622Y420D01*
X370214Y541D01*
X370809Y648D01*
X371406Y741D01*
X372006Y820D01*
X372607Y885D01*
X373209Y935D01*
X373812Y971D01*
X374417Y993D01*
X375021Y1000D01*
X1382111Y-50790D02*
X1486260Y-50790D01*
X1307479Y1000D02*
X375021Y1000D01*
X1307479Y1000D02*
X1308209Y991D01*
X1308939Y964D01*
X1309667Y919D01*
X1310395Y857D01*
X1311120Y776D01*
X1311844Y678D01*
X1312564Y562D01*
X1313282Y428D01*
X1313996Y277D01*
X1314707Y109D01*
X1315413Y-78D01*
X1316114Y-281D01*
X1316810Y-501D01*
X1317500Y-739D01*
X1318184Y-993D01*
X1318862Y-1264D01*
X1319533Y-1552D01*
X1320197Y-1856D01*
X1320853Y-2176D01*
X1321501Y-2512D01*
X1322141Y-2864D01*
X1322771Y-3232D01*
X1323393Y-3615D01*
X1324005Y-4013D01*
X1324607Y-4426D01*
X1325199Y-4854D01*
X1325780Y-5296D01*
X1326350Y-5752D01*
X1326908Y-6222D01*
X1327455Y-6706D01*
X1327990Y-7203D01*
X1328513Y-7712D01*
X1328512Y-7712D02*
X1364151Y-43351D01*
X1364150Y-43351D02*
X1364583Y-43773D01*
X1365025Y-44185D01*
X1365478Y-44586D01*
X1365939Y-44976D01*
X1366410Y-45356D01*
X1366889Y-45724D01*
X1367378Y-46080D01*
X1367874Y-46425D01*
X1368379Y-46758D01*
X1368891Y-47079D01*
X1369411Y-47387D01*
X1369938Y-47683D01*
X1370472Y-47966D01*
X1371013Y-48237D01*
X1371559Y-48495D01*
X1372112Y-48739D01*
X1372671Y-48971D01*
X1373235Y-49189D01*
X1373803Y-49393D01*
X1374377Y-49584D01*
X1374955Y-49761D01*
X1375537Y-49925D01*
X1376123Y-50074D01*
X1376712Y-50210D01*
X1377304Y-50331D01*
X1377899Y-50438D01*
X1378496Y-50531D01*
X1379096Y-50610D01*
X1379697Y-50675D01*
X1380299Y-50725D01*
X1380902Y-50761D01*
X1381507Y-50783D01*
X1382111Y-50790D01*
D22*
X1493880Y-50800D03*
D21*
X1486260Y-50800D03*
D18*
X1486260Y-50790D01*
X1486260Y-48260D01*
X1478640Y-50800D01*
X1486260Y-53340D01*
X1486260Y-50790D02*
X1490200Y-50790D01*
X1479760Y-48260D02*
X1479634Y-48302D01*
X1472140Y-50800D01*
X1479760Y-53340D01*
X1487190Y-53340D02*
X1487190Y-50790D01*
X1487190Y-53340D02*
X1486260Y-53340D01*
D23*
X1487190Y-50790D02*
X1482122Y-50790D01*
X1479634Y-48302D01*
D21*
X325500Y-18000D03*
D15*
X342061Y-1440D01*
X342060Y-1439D02*
X342493Y-1017D01*
X342935Y-605D01*
X343388Y-204D01*
X343849Y186D01*
X344320Y566D01*
X344799Y934D01*
X345288Y1290D01*
X345784Y1635D01*
X346289Y1968D01*
X346801Y2289D01*
X347321Y2597D01*
X347848Y2893D01*
X348382Y3176D01*
X348923Y3447D01*
X349469Y3705D01*
X350022Y3949D01*
X350581Y4181D01*
X351145Y4399D01*
X351713Y4603D01*
X352287Y4794D01*
X352865Y4971D01*
X353447Y5135D01*
X354033Y5284D01*
X354622Y5420D01*
X355214Y5541D01*
X355809Y5648D01*
X356406Y5741D01*
X357006Y5820D01*
X357607Y5885D01*
X358209Y5935D01*
X358812Y5971D01*
X359417Y5993D01*
X360021Y6000D01*
X1314479Y6000D01*
X1315209Y5991D01*
X1315939Y5964D01*
X1316667Y5919D01*
X1317395Y5857D01*
X1318120Y5776D01*
X1318844Y5678D01*
X1319564Y5562D01*
X1320282Y5428D01*
X1320996Y5277D01*
X1321707Y5109D01*
X1322413Y4922D01*
X1323114Y4719D01*
X1323810Y4499D01*
X1324500Y4261D01*
X1325184Y4007D01*
X1325862Y3736D01*
X1326533Y3448D01*
X1327197Y3144D01*
X1327853Y2824D01*
X1328501Y2488D01*
X1329141Y2136D01*
X1329771Y1768D01*
X1330393Y1385D01*
X1331005Y987D01*
X1331607Y574D01*
X1332199Y146D01*
X1332780Y-296D01*
X1333350Y-752D01*
X1333908Y-1222D01*
X1334455Y-1706D01*
X1334990Y-2203D01*
X1335513Y-2712D01*
X1381411Y-38090D02*
X1486260Y-38090D01*
X1363451Y-30651D02*
X1335512Y-2712D01*
X1363450Y-30651D02*
X1363883Y-31073D01*
X1364325Y-31485D01*
X1364778Y-31886D01*
X1365239Y-32276D01*
X1365710Y-32656D01*
X1366189Y-33024D01*
X1366678Y-33380D01*
X1367174Y-33725D01*
X1367679Y-34058D01*
X1368191Y-34379D01*
X1368711Y-34687D01*
X1369238Y-34983D01*
X1369772Y-35266D01*
X1370313Y-35537D01*
X1370859Y-35795D01*
X1371412Y-36039D01*
X1371971Y-36271D01*
X1372535Y-36489D01*
X1373103Y-36693D01*
X1373677Y-36884D01*
X1374255Y-37061D01*
X1374837Y-37225D01*
X1375423Y-37374D01*
X1376012Y-37510D01*
X1376604Y-37631D01*
X1377199Y-37738D01*
X1377796Y-37831D01*
X1378396Y-37910D01*
X1378997Y-37975D01*
X1379599Y-38025D01*
X1380202Y-38061D01*
X1380807Y-38083D01*
X1381411Y-38090D01*
D22*
X1493880Y-38100D03*
D21*
X1486260Y-38100D03*
D18*
X1486260Y-38090D01*
X1486260Y-35560D01*
X1478640Y-38100D01*
X1484814Y-40158D01*
X1478314Y-40158D02*
X1472140Y-38100D01*
X1478314Y-40158D02*
X1479760Y-40640D01*
X1479760Y-35560D02*
X1472140Y-38100D01*
X1478314Y-40158D02*
X1484814Y-40158D01*
D23*
X1487190Y-38090D02*
X1493870Y-38090D01*
X1493880Y-38100D01*
D21*
X277500Y10000D03*
D15*
X277499Y10000D02*
X277906Y10397D01*
X278322Y10785D01*
X278748Y11162D01*
X279182Y11530D01*
X279625Y11887D01*
X280076Y12233D01*
X280536Y12568D01*
X281003Y12893D01*
X281478Y13206D01*
X281960Y13508D01*
X282449Y13798D01*
X282945Y14077D01*
X283447Y14343D01*
X283956Y14598D01*
X284471Y14840D01*
X284991Y15070D01*
X285516Y15288D01*
X286047Y15493D01*
X286582Y15686D01*
X287122Y15865D01*
X287666Y16032D01*
X288213Y16186D01*
X288764Y16326D01*
X289319Y16454D01*
X289876Y16568D01*
X290436Y16669D01*
X290998Y16757D01*
X291562Y16831D01*
X292127Y16892D01*
X292694Y16939D01*
X293262Y16973D01*
X293830Y16993D01*
X294399Y17000D01*
X1339479Y17000D02*
X1340209Y16991D01*
X1340939Y16964D01*
X1341667Y16919D01*
X1342395Y16857D01*
X1343120Y16776D01*
X1343844Y16678D01*
X1344564Y16562D01*
X1345282Y16428D01*
X1345996Y16277D01*
X1346707Y16109D01*
X1347413Y15922D01*
X1348114Y15719D01*
X1348810Y15499D01*
X1349500Y15261D01*
X1350184Y15007D01*
X1350862Y14736D01*
X1351533Y14448D01*
X1352197Y14144D01*
X1352853Y13824D01*
X1353501Y13488D01*
X1354141Y13136D01*
X1354771Y12768D01*
X1355393Y12385D01*
X1356005Y11987D01*
X1356607Y11574D01*
X1357199Y11146D01*
X1357780Y10704D01*
X1358350Y10248D01*
X1358908Y9778D01*
X1359455Y9294D01*
X1359990Y8797D01*
X1360513Y8288D01*
X1404711Y-25390D02*
X1486260Y-25390D01*
X1339479Y17000D02*
X294400Y17000D01*
X1360512Y8288D02*
X1386751Y-17951D01*
X1386750Y-17951D02*
X1387183Y-18373D01*
X1387625Y-18785D01*
X1388078Y-19186D01*
X1388539Y-19576D01*
X1389010Y-19956D01*
X1389489Y-20324D01*
X1389978Y-20680D01*
X1390474Y-21025D01*
X1390979Y-21358D01*
X1391491Y-21679D01*
X1392011Y-21987D01*
X1392538Y-22283D01*
X1393072Y-22566D01*
X1393613Y-22837D01*
X1394159Y-23095D01*
X1394712Y-23339D01*
X1395271Y-23571D01*
X1395835Y-23789D01*
X1396403Y-23993D01*
X1396977Y-24184D01*
X1397555Y-24361D01*
X1398137Y-24525D01*
X1398723Y-24674D01*
X1399312Y-24810D01*
X1399904Y-24931D01*
X1400499Y-25038D01*
X1401096Y-25131D01*
X1401696Y-25210D01*
X1402297Y-25275D01*
X1402899Y-25325D01*
X1403502Y-25361D01*
X1404107Y-25383D01*
X1404711Y-25390D01*
D22*
X1493880Y-25400D03*
D21*
X1486260Y-25400D03*
D18*
X1486260Y-25390D01*
X1486260Y-22860D01*
X1478640Y-25400D01*
X1486260Y-27940D01*
X1479760Y-22860D02*
X1472140Y-25400D01*
X1479760Y-27940D01*
X1487190Y-27940D02*
X1487190Y-25390D01*
X1487190Y-27940D02*
X1486260Y-27940D01*
D23*
X1487190Y-25390D02*
X1482290Y-25390D01*
X1479760Y-22860D01*
D21*
X257500Y10000D03*
D15*
X262061Y14561D01*
X262060Y14561D02*
X262493Y14983D01*
X262935Y15395D01*
X263388Y15796D01*
X263849Y16186D01*
X264320Y16566D01*
X264799Y16934D01*
X265288Y17290D01*
X265784Y17635D01*
X266289Y17968D01*
X266801Y18289D01*
X267321Y18597D01*
X267848Y18893D01*
X268382Y19176D01*
X268923Y19447D01*
X269469Y19705D01*
X270022Y19949D01*
X270581Y20181D01*
X271145Y20399D01*
X271713Y20603D01*
X272287Y20794D01*
X272865Y20971D01*
X273447Y21135D01*
X274033Y21284D01*
X274622Y21420D01*
X275214Y21541D01*
X275809Y21648D01*
X276406Y21741D01*
X277006Y21820D01*
X277607Y21885D01*
X278209Y21935D01*
X278812Y21971D01*
X279417Y21993D01*
X280021Y22000D01*
X1404011Y-12690D02*
X1486260Y-12690D01*
X1367513Y13288D02*
X1366990Y13797D01*
X1366455Y14294D01*
X1365908Y14778D01*
X1365350Y15248D01*
X1364780Y15704D01*
X1364199Y16146D01*
X1363607Y16574D01*
X1363005Y16987D01*
X1362393Y17385D01*
X1361771Y17768D01*
X1361141Y18136D01*
X1360501Y18488D01*
X1359853Y18824D01*
X1359197Y19144D01*
X1358533Y19448D01*
X1357862Y19736D01*
X1357184Y20007D01*
X1356500Y20261D01*
X1355810Y20499D01*
X1355114Y20719D01*
X1354413Y20922D01*
X1353707Y21109D01*
X1352996Y21277D01*
X1352282Y21428D01*
X1351564Y21562D01*
X1350844Y21678D01*
X1350120Y21776D01*
X1349395Y21857D01*
X1348667Y21919D01*
X1347939Y21964D01*
X1347209Y21991D01*
X1346479Y22000D01*
X280021Y22000D01*
X1367512Y13288D02*
X1386051Y-5251D01*
X1386050Y-5251D02*
X1386483Y-5673D01*
X1386925Y-6085D01*
X1387378Y-6486D01*
X1387839Y-6876D01*
X1388310Y-7256D01*
X1388789Y-7624D01*
X1389278Y-7980D01*
X1389774Y-8325D01*
X1390279Y-8658D01*
X1390791Y-8979D01*
X1391311Y-9287D01*
X1391838Y-9583D01*
X1392372Y-9866D01*
X1392913Y-10137D01*
X1393459Y-10395D01*
X1394012Y-10639D01*
X1394571Y-10871D01*
X1395135Y-11089D01*
X1395703Y-11293D01*
X1396277Y-11484D01*
X1396855Y-11661D01*
X1397437Y-11825D01*
X1398023Y-11974D01*
X1398612Y-12110D01*
X1399204Y-12231D01*
X1399799Y-12338D01*
X1400396Y-12431D01*
X1400996Y-12510D01*
X1401597Y-12575D01*
X1402199Y-12625D01*
X1402802Y-12661D01*
X1403407Y-12683D01*
X1404011Y-12690D01*
D22*
X1493880Y-12700D03*
D21*
X1486260Y-12700D03*
D18*
X1486260Y-12690D01*
X1486260Y-10160D01*
X1478640Y-12700D01*
X1486260Y-15240D01*
X1479760Y-10160D02*
X1472140Y-12700D01*
X1479760Y-15240D01*
X1487190Y-15240D02*
X1487190Y-12690D01*
X1487190Y-15240D02*
X1486260Y-15240D01*
D23*
X1487190Y-12690D02*
X1482290Y-12690D01*
X1479760Y-10160D01*
D21*
X237500Y10000D03*
D15*
X247061Y19561D01*
X247060Y19561D02*
X247493Y19983D01*
X247935Y20395D01*
X248388Y20796D01*
X248849Y21186D01*
X249320Y21566D01*
X249799Y21934D01*
X250288Y22290D01*
X250784Y22635D01*
X251289Y22968D01*
X251801Y23289D01*
X252321Y23597D01*
X252848Y23893D01*
X253382Y24176D01*
X253923Y24447D01*
X254469Y24705D01*
X255022Y24949D01*
X255581Y25181D01*
X256145Y25399D01*
X256713Y25603D01*
X257287Y25794D01*
X257865Y25971D01*
X258447Y26135D01*
X259033Y26284D01*
X259622Y26420D01*
X260214Y26541D01*
X260809Y26648D01*
X261406Y26741D01*
X262006Y26820D01*
X262607Y26885D01*
X263209Y26935D01*
X263812Y26971D01*
X264417Y26993D01*
X265021Y27000D01*
X1353479Y27000D02*
X1354209Y26991D01*
X1354939Y26964D01*
X1355667Y26919D01*
X1356395Y26857D01*
X1357120Y26776D01*
X1357844Y26678D01*
X1358564Y26562D01*
X1359282Y26428D01*
X1359996Y26277D01*
X1360707Y26109D01*
X1361413Y25922D01*
X1362114Y25719D01*
X1362810Y25499D01*
X1363500Y25261D01*
X1364184Y25007D01*
X1364862Y24736D01*
X1365533Y24448D01*
X1366197Y24144D01*
X1366853Y23824D01*
X1367501Y23488D01*
X1368141Y23136D01*
X1368771Y22768D01*
X1369393Y22385D01*
X1370005Y21987D01*
X1370607Y21574D01*
X1371199Y21146D01*
X1371780Y20704D01*
X1372350Y20248D01*
X1372908Y19778D01*
X1373455Y19294D01*
X1373990Y18797D01*
X1374513Y18288D01*
X1403311Y10D02*
X1486260Y10D01*
X1353479Y27000D02*
X265021Y27000D01*
X1374512Y18288D02*
X1385351Y7450D01*
X1385350Y7449D02*
X1385783Y7027D01*
X1386225Y6615D01*
X1386678Y6214D01*
X1387139Y5824D01*
X1387610Y5444D01*
X1388089Y5076D01*
X1388578Y4720D01*
X1389074Y4375D01*
X1389579Y4042D01*
X1390091Y3721D01*
X1390611Y3413D01*
X1391138Y3117D01*
X1391672Y2834D01*
X1392213Y2563D01*
X1392759Y2305D01*
X1393312Y2061D01*
X1393871Y1829D01*
X1394435Y1611D01*
X1395003Y1407D01*
X1395577Y1216D01*
X1396155Y1039D01*
X1396737Y875D01*
X1397323Y726D01*
X1397912Y590D01*
X1398504Y469D01*
X1399099Y362D01*
X1399696Y269D01*
X1400296Y190D01*
X1400897Y125D01*
X1401499Y75D01*
X1402102Y39D01*
X1402707Y17D01*
X1403311Y10D01*
D22*
X1493880Y0D03*
D21*
X1486260Y0D03*
D18*
X1486260Y10D01*
X1486260Y2540D01*
X1478640Y0D01*
X1486260Y-2540D01*
X1479760Y-2540D02*
X1472140Y0D01*
X1479760Y2540D01*
X1487190Y10D02*
X1487190Y-2540D01*
X1486260Y-2540D01*
D23*
X1487190Y10D02*
X1482310Y10D01*
X1479760Y-2540D01*
D21*
X217500Y10000D03*
D15*
X250031Y32010D02*
X1360469Y32010D01*
X232071Y24571D02*
X217500Y10000D01*
X232070Y24571D02*
X232503Y24993D01*
X232945Y25405D01*
X233398Y25806D01*
X233859Y26196D01*
X234330Y26576D01*
X234809Y26944D01*
X235298Y27300D01*
X235794Y27645D01*
X236299Y27978D01*
X236811Y28299D01*
X237331Y28607D01*
X237858Y28903D01*
X238392Y29186D01*
X238933Y29457D01*
X239479Y29715D01*
X240032Y29959D01*
X240591Y30191D01*
X241155Y30409D01*
X241723Y30613D01*
X242297Y30804D01*
X242875Y30981D01*
X243457Y31145D01*
X244043Y31294D01*
X244632Y31430D01*
X245224Y31551D01*
X245819Y31658D01*
X246416Y31751D01*
X247016Y31830D01*
X247617Y31895D01*
X248219Y31945D01*
X248822Y31981D01*
X249427Y32003D01*
X250031Y32010D01*
X1360469Y32010D02*
X1361092Y32002D01*
X1361715Y31979D01*
X1362338Y31941D01*
X1362959Y31888D01*
X1363578Y31819D01*
X1364196Y31735D01*
X1364811Y31636D01*
X1365424Y31522D01*
X1366034Y31393D01*
X1366641Y31249D01*
X1367244Y31090D01*
X1367842Y30916D01*
X1368437Y30728D01*
X1369026Y30525D01*
X1369610Y30308D01*
X1370189Y30077D01*
X1370762Y29831D01*
X1371329Y29571D01*
X1371889Y29298D01*
X1372442Y29011D01*
X1372989Y28710D01*
X1373527Y28396D01*
X1374058Y28069D01*
X1374580Y27729D01*
X1375095Y27377D01*
X1375600Y27011D01*
X1376096Y26634D01*
X1376583Y26244D01*
X1377060Y25843D01*
X1377527Y25430D01*
X1377983Y25006D01*
X1378430Y24571D01*
X1382850Y20149D02*
X1383283Y19727D01*
X1383725Y19315D01*
X1384178Y18914D01*
X1384639Y18524D01*
X1385110Y18144D01*
X1385589Y17776D01*
X1386078Y17420D01*
X1386574Y17075D01*
X1387079Y16742D01*
X1387591Y16421D01*
X1388111Y16113D01*
X1388638Y15817D01*
X1389172Y15534D01*
X1389713Y15263D01*
X1390259Y15005D01*
X1390812Y14761D01*
X1391371Y14529D01*
X1391935Y14311D01*
X1392503Y14107D01*
X1393077Y13916D01*
X1393655Y13739D01*
X1394237Y13575D01*
X1394823Y13426D01*
X1395412Y13290D01*
X1396004Y13169D01*
X1396599Y13062D01*
X1397196Y12969D01*
X1397796Y12890D01*
X1398397Y12825D01*
X1398999Y12775D01*
X1399602Y12739D01*
X1400207Y12717D01*
X1400811Y12710D01*
X1487190Y12710D02*
X1493690Y12710D01*
X1487190Y12710D02*
X1400811Y12710D01*
X1382851Y20150D02*
X1378430Y24571D01*
D22*
X1493880Y12700D03*
D21*
X1486260Y12700D03*
D18*
X1486260Y15240D01*
X1478640Y12700D01*
X1486260Y10160D01*
X1479760Y15240D02*
X1472140Y12700D01*
X1479760Y10160D01*
X1487190Y10160D02*
X1487190Y12710D01*
X1487190Y10160D02*
X1486260Y10160D01*
D23*
X1487180Y12700D02*
X1487190Y12710D01*
X1487180Y12700D02*
X1486260Y12700D01*
X1487190Y12710D02*
X1482290Y12710D01*
X1479760Y15240D01*
D21*
X201000Y16000D03*
D15*
X228231Y40710D02*
X1383629Y40710D01*
X1384012Y40705D01*
X1384394Y40692D01*
X1384776Y40669D01*
X1385158Y40637D01*
X1385538Y40596D01*
X1385918Y40546D01*
X1386296Y40487D01*
X1386672Y40419D01*
X1387047Y40342D01*
X1387420Y40257D01*
X1387791Y40162D01*
X1388160Y40059D01*
X1388525Y39946D01*
X1388889Y39826D01*
X1389249Y39696D01*
X1389606Y39558D01*
X1389959Y39412D01*
X1390309Y39257D01*
X1390656Y39094D01*
X1390998Y38922D01*
X1391336Y38743D01*
X1391670Y38556D01*
X1391999Y38360D01*
X1392323Y38157D01*
X1392643Y37946D01*
X1392957Y37728D01*
X1393266Y37503D01*
X1393570Y37270D01*
X1393868Y37029D01*
X1394160Y36782D01*
X1394446Y36528D01*
X1394726Y36267D01*
X1395000Y36000D01*
X1398150Y32849D02*
X1398583Y32427D01*
X1399025Y32015D01*
X1399478Y31614D01*
X1399939Y31224D01*
X1400410Y30844D01*
X1400889Y30476D01*
X1401378Y30120D01*
X1401874Y29775D01*
X1402379Y29442D01*
X1402891Y29121D01*
X1403411Y28813D01*
X1403938Y28517D01*
X1404472Y28234D01*
X1405013Y27963D01*
X1405559Y27705D01*
X1406112Y27461D01*
X1406671Y27229D01*
X1407235Y27011D01*
X1407803Y26807D01*
X1408377Y26616D01*
X1408955Y26439D01*
X1409537Y26275D01*
X1410123Y26126D01*
X1410712Y25990D01*
X1411304Y25869D01*
X1411899Y25762D01*
X1412496Y25669D01*
X1413096Y25590D01*
X1413697Y25525D01*
X1414299Y25475D01*
X1414902Y25439D01*
X1415507Y25417D01*
X1416111Y25410D01*
X1398151Y32850D02*
X1395000Y36000D01*
X1416111Y25410D02*
X1493690Y25410D01*
D22*
X1493880Y25400D03*
D21*
X1486260Y25400D03*
D18*
X1486260Y27940D01*
X1478640Y25400D01*
X1486260Y22860D01*
X1479760Y22860D02*
X1472140Y25400D01*
X1479760Y27940D01*
X1487190Y25410D02*
X1487190Y22860D01*
X1486260Y22860D01*
X1487190Y25410D02*
X1493690Y25410D01*
D23*
X1487190Y25410D02*
X1482290Y25410D01*
X1479760Y27940D01*
D15*
X214771Y32771D02*
X201000Y16000D01*
X214771Y32770D02*
X215068Y33155D01*
X215374Y33533D01*
X215689Y33903D01*
X216012Y34265D01*
X216344Y34620D01*
X216685Y34967D01*
X217033Y35306D01*
X217390Y35636D01*
X217754Y35957D01*
X218126Y36270D01*
X218505Y36574D01*
X218891Y36869D01*
X219284Y37155D01*
X219684Y37431D01*
X220091Y37697D01*
X220503Y37954D01*
X220922Y38201D01*
X221346Y38438D01*
X221776Y38664D01*
X222211Y38881D01*
X222651Y39087D01*
X223096Y39282D01*
X223545Y39467D01*
X223999Y39641D01*
X224457Y39804D01*
X224918Y39957D01*
X225383Y40098D01*
X225851Y40228D01*
X226323Y40347D01*
X226796Y40455D01*
X227273Y40551D01*
X227751Y40636D01*
X228232Y40710D01*
X1400732Y49910D02*
X1401212Y49904D01*
X1401692Y49887D01*
X1402171Y49859D01*
X1402650Y49819D01*
X1403128Y49767D01*
X1403604Y49705D01*
X1404078Y49631D01*
X1404551Y49545D01*
X1405021Y49449D01*
X1405489Y49341D01*
X1405954Y49222D01*
X1406417Y49093D01*
X1406876Y48952D01*
X1407332Y48800D01*
X1407783Y48638D01*
X1408231Y48465D01*
X1408675Y48281D01*
X1409114Y48087D01*
X1409549Y47882D01*
X1409978Y47667D01*
X1410402Y47442D01*
X1410821Y47207D01*
X1411234Y46962D01*
X1411641Y46707D01*
X1412042Y46442D01*
X1412436Y46169D01*
X1412824Y45885D01*
X1413205Y45593D01*
X1413579Y45292D01*
X1413946Y44982D01*
X1414305Y44663D01*
X1414656Y44336D01*
X1415000Y44000D01*
X1415027Y43973D01*
X1400732Y49910D02*
X219931Y49910D01*
X1415027Y43973D02*
X1415368Y43640D01*
X1415716Y43315D01*
X1416073Y42999D01*
X1416436Y42691D01*
X1416807Y42393D01*
X1417185Y42103D01*
X1417570Y41822D01*
X1417961Y41550D01*
X1418359Y41288D01*
X1418763Y41035D01*
X1419172Y40792D01*
X1419588Y40559D01*
X1420009Y40335D01*
X1420435Y40122D01*
X1420866Y39919D01*
X1421301Y39726D01*
X1421741Y39544D01*
X1422186Y39372D01*
X1422634Y39211D01*
X1423086Y39060D01*
X1423542Y38921D01*
X1424000Y38792D01*
X1424462Y38674D01*
X1424926Y38567D01*
X1425393Y38472D01*
X1425862Y38387D01*
X1426332Y38314D01*
X1426805Y38252D01*
X1427278Y38201D01*
X1427753Y38161D01*
X1428229Y38133D01*
X1428705Y38116D01*
X1429181Y38110D01*
D22*
X1493880Y38100D03*
D21*
X1486260Y38100D03*
D15*
X1486260Y38110D02*
X1429181Y38110D01*
D18*
X1486260Y38100D02*
X1486260Y38110D01*
X1486260Y40640D01*
X1478640Y38100D01*
X1484274Y36222D01*
X1486260Y35560D01*
X1479760Y35560D02*
X1472140Y38100D01*
X1479760Y40640D01*
X1487190Y38110D02*
X1487190Y36222D01*
X1484274Y36222D01*
D15*
X219931Y49910D02*
X219327Y49903D01*
X218722Y49881D01*
X218119Y49845D01*
X217517Y49795D01*
X216916Y49730D01*
X216316Y49651D01*
X215719Y49558D01*
X215124Y49451D01*
X214532Y49330D01*
X213943Y49194D01*
X213357Y49045D01*
X212775Y48881D01*
X212197Y48704D01*
X211623Y48513D01*
X211055Y48309D01*
X210491Y48091D01*
X209932Y47859D01*
X209379Y47615D01*
X208833Y47357D01*
X208292Y47086D01*
X207758Y46803D01*
X207231Y46507D01*
X206711Y46199D01*
X206199Y45878D01*
X205694Y45545D01*
X205198Y45200D01*
X204709Y44844D01*
X204230Y44476D01*
X203759Y44096D01*
X203298Y43706D01*
X202845Y43305D01*
X202403Y42893D01*
X201970Y42471D01*
D21*
X178500Y-2500D03*
D15*
X178500Y8479D01*
X178508Y9102D01*
X178531Y9725D01*
X178569Y10348D01*
X178622Y10969D01*
X178691Y11588D01*
X178775Y12206D01*
X178874Y12821D01*
X178988Y13434D01*
X179117Y14044D01*
X179261Y14651D01*
X179420Y15254D01*
X179594Y15852D01*
X179782Y16447D01*
X179985Y17036D01*
X180202Y17620D01*
X180433Y18199D01*
X180679Y18772D01*
X180939Y19339D01*
X181212Y19899D01*
X181499Y20452D01*
X181800Y20999D01*
X182114Y21537D01*
X182441Y22068D01*
X182781Y22590D01*
X183133Y23105D01*
X183499Y23610D01*
X183876Y24106D01*
X184266Y24593D01*
X184667Y25070D01*
X185080Y25537D01*
X185504Y25993D01*
X185939Y26440D01*
X185940Y26440D02*
X201971Y42471D01*
X1447491Y50810D02*
X1486260Y50810D01*
X1439270Y54356D02*
X1438971Y54648D01*
X1438665Y54932D01*
X1438352Y55209D01*
X1438033Y55478D01*
X1437707Y55739D01*
X1437374Y55991D01*
X1437036Y56236D01*
X1436692Y56472D01*
X1436342Y56700D01*
X1435986Y56919D01*
X1435625Y57129D01*
X1435259Y57331D01*
X1434889Y57523D01*
X1434513Y57706D01*
X1434134Y57880D01*
X1433750Y58045D01*
X1433362Y58200D01*
X1432971Y58345D01*
X1432576Y58481D01*
X1432177Y58607D01*
X1431776Y58724D01*
X1431373Y58830D01*
X1430966Y58927D01*
X1430558Y59013D01*
X1430147Y59089D01*
X1429735Y59156D01*
X1429321Y59212D01*
X1428906Y59258D01*
X1428490Y59294D01*
X1428073Y59320D01*
X1427656Y59335D01*
X1427238Y59340D01*
X1439270Y54356D02*
X1439510Y54116D01*
X1439708Y53922D01*
X1439911Y53734D01*
X1440119Y53550D01*
X1440331Y53372D01*
X1440547Y53199D01*
X1440767Y53031D01*
X1440992Y52869D01*
X1441220Y52712D01*
X1441452Y52561D01*
X1441688Y52416D01*
X1441928Y52276D01*
X1442170Y52143D01*
X1442416Y52015D01*
X1442665Y51894D01*
X1442917Y51778D01*
X1443172Y51669D01*
X1443429Y51566D01*
X1443689Y51470D01*
X1443950Y51380D01*
X1444215Y51296D01*
X1444481Y51219D01*
X1444748Y51148D01*
X1445018Y51084D01*
X1445289Y51027D01*
X1445561Y50976D01*
X1445835Y50932D01*
X1446109Y50895D01*
X1446385Y50864D01*
X1446661Y50841D01*
X1446937Y50824D01*
X1447214Y50813D01*
X1447491Y50810D01*
D22*
X1493880Y50800D03*
D21*
X1486260Y50800D03*
D18*
X1486260Y50810D01*
X1486260Y53340D01*
X1478640Y50800D01*
X1486260Y48260D01*
D24*
X1487190Y50810D02*
X1489958Y50810D01*
D18*
X1479760Y48260D02*
X1472140Y50800D01*
X1479760Y53340D01*
X1487190Y50810D02*
X1487190Y48260D01*
X1486260Y48260D01*
D23*
X1483730Y53340D02*
X1479760Y53340D01*
X1483730Y53340D02*
X1486260Y50810D01*
D15*
X199689Y59340D02*
X199233Y59334D01*
X198778Y59318D01*
X198323Y59290D01*
X197869Y59251D01*
X197416Y59200D01*
X196964Y59139D01*
X196514Y59067D01*
X196066Y58983D01*
X195620Y58889D01*
X195176Y58783D01*
X194736Y58667D01*
X194298Y58540D01*
X193863Y58403D01*
X193432Y58254D01*
X193005Y58096D01*
X192582Y57926D01*
X192163Y57747D01*
X191748Y57557D01*
X191339Y57357D01*
X190934Y57147D01*
X190535Y56927D01*
X190141Y56698D01*
X189753Y56459D01*
X189371Y56210D01*
X188995Y55952D01*
X188626Y55685D01*
X188263Y55409D01*
X187907Y55124D01*
X187558Y54831D01*
X187217Y54529D01*
X186883Y54219D01*
X186557Y53900D01*
X199689Y59340D02*
X1427238Y59340D01*
X183586Y50929D02*
X183184Y50517D01*
X182791Y50096D01*
X182409Y49665D01*
X182037Y49225D01*
X181676Y48777D01*
X181326Y48320D01*
X180986Y47855D01*
X180658Y47382D01*
X180341Y46902D01*
X180035Y46414D01*
X179741Y45919D01*
X179459Y45416D01*
X179189Y44908D01*
X178932Y44393D01*
X178686Y43872D01*
X178453Y43346D01*
X178233Y42814D01*
X178025Y42277D01*
X177831Y41735D01*
X177649Y41188D01*
X177480Y40638D01*
X177324Y40084D01*
X177182Y39526D01*
X177053Y38965D01*
X176937Y38401D01*
X176835Y37834D01*
X176746Y37265D01*
X176671Y36694D01*
X176610Y36122D01*
X176562Y35548D01*
X176527Y34973D01*
X176507Y34398D01*
X176500Y33822D01*
X183586Y50929D02*
X186557Y53901D01*
D21*
X176500Y33822D03*
D17*
X1494134Y119380D03*
X1481434Y119380D03*
D25*
X1482110Y119390D02*
X1474081Y119390D01*
X1482110Y119390D02*
X1488610Y119390D01*
X1474081Y119390D02*
X1473458Y119382D01*
X1472835Y119359D01*
X1472212Y119321D01*
X1471591Y119268D01*
X1470972Y119199D01*
X1470354Y119115D01*
X1469739Y119016D01*
X1469126Y118902D01*
X1468516Y118773D01*
X1467909Y118629D01*
X1467306Y118470D01*
X1466708Y118296D01*
X1466113Y118108D01*
X1465524Y117905D01*
X1464940Y117688D01*
X1464361Y117457D01*
X1463788Y117211D01*
X1463221Y116951D01*
X1462661Y116678D01*
X1462108Y116391D01*
X1461561Y116090D01*
X1461023Y115776D01*
X1460492Y115449D01*
X1459970Y115109D01*
X1459455Y114757D01*
X1458950Y114391D01*
X1458454Y114014D01*
X1457967Y113624D01*
X1457490Y113223D01*
X1457023Y112810D01*
X1456567Y112386D01*
X1456120Y111951D01*
X1432890Y88719D02*
X1432443Y88284D01*
X1431987Y87860D01*
X1431520Y87447D01*
X1431043Y87046D01*
X1430556Y86656D01*
X1430060Y86279D01*
X1429555Y85913D01*
X1429040Y85561D01*
X1428518Y85221D01*
X1427987Y84894D01*
X1427449Y84580D01*
X1426902Y84279D01*
X1426349Y83992D01*
X1425789Y83719D01*
X1425222Y83459D01*
X1424649Y83213D01*
X1424070Y82982D01*
X1423486Y82765D01*
X1422897Y82562D01*
X1422302Y82374D01*
X1421704Y82200D01*
X1421101Y82041D01*
X1420494Y81897D01*
X1419884Y81768D01*
X1419271Y81654D01*
X1418656Y81555D01*
X1418038Y81471D01*
X1417419Y81402D01*
X1416798Y81349D01*
X1416175Y81311D01*
X1415552Y81288D01*
X1414929Y81280D01*
X306261Y81280D02*
X305638Y81288D01*
X305015Y81311D01*
X304392Y81349D01*
X303771Y81402D01*
X303152Y81471D01*
X302534Y81555D01*
X301919Y81654D01*
X301306Y81768D01*
X300696Y81897D01*
X300089Y82041D01*
X299486Y82200D01*
X298888Y82374D01*
X298293Y82562D01*
X297704Y82765D01*
X297120Y82982D01*
X296541Y83213D01*
X295968Y83459D01*
X295401Y83719D01*
X294841Y83992D01*
X294288Y84279D01*
X293741Y84580D01*
X293203Y84894D01*
X292672Y85221D01*
X292150Y85561D01*
X291635Y85913D01*
X291130Y86279D01*
X290634Y86656D01*
X290147Y87046D01*
X289670Y87447D01*
X289203Y87860D01*
X288747Y88284D01*
X288300Y88719D01*
X258520Y118501D02*
X258073Y118936D01*
X257617Y119360D01*
X257150Y119773D01*
X256673Y120174D01*
X256186Y120564D01*
X255690Y120941D01*
X255185Y121307D01*
X254670Y121659D01*
X254148Y121999D01*
X253617Y122326D01*
X253079Y122640D01*
X252532Y122941D01*
X251979Y123228D01*
X251419Y123501D01*
X250852Y123761D01*
X250279Y124007D01*
X249700Y124238D01*
X249116Y124455D01*
X248527Y124658D01*
X247932Y124846D01*
X247334Y125020D01*
X246731Y125179D01*
X246124Y125323D01*
X245514Y125452D01*
X244901Y125566D01*
X244286Y125665D01*
X243668Y125749D01*
X243049Y125818D01*
X242428Y125871D01*
X241805Y125909D01*
X241182Y125932D01*
X240559Y125940D01*
X1432890Y88720D02*
X1456121Y111951D01*
X1414929Y81280D02*
X306261Y81280D01*
X288301Y88720D02*
X258520Y118501D01*
D16*
X151180Y125940D03*
X163880Y125940D03*
X176580Y125940D03*
D26*
X151180Y125940D01*
D20*
X163880Y125940D02*
X176580Y125940D01*
D25*
X240559Y125940D01*
M02*
