G04 EAGLE Gerber X2 export*
%TF.Part,Single*%
%TF.FileFunction,Other,silk bottom*%
%TF.FilePolarity,Positive*%
%TF.GenerationSoftware,Autodesk,EAGLE,9.6.2*%
%TF.CreationDate,2020-07-07T11:07:30Z*%
G75*
%MOMM*%
%FSLAX34Y34*%
%LPD*%
%INsilk bottom*%
%AMOC8*
5,1,8,0,0,1.08239X$1,22.5*%
G01*
%ADD10C,0.000000*%
%ADD11C,0.152400*%
%ADD12C,0.203200*%


D10*
X0Y-23000D02*
X3000Y-26000D01*
X17000Y-26000D01*
X39750Y136500D02*
X252500Y136500D01*
X39750Y136500D02*
X23750Y120500D01*
X7000Y120500D01*
X0Y113500D01*
X0Y107500D01*
X0Y94000D02*
X0Y75000D01*
X1000Y74000D01*
X4000Y74000D01*
X5000Y73000D01*
X5000Y70000D02*
X4000Y69000D01*
X1000Y69000D01*
X0Y68000D01*
X5000Y70000D02*
X5000Y73000D01*
X0Y68000D02*
X0Y42500D01*
X1000Y41500D01*
X4000Y41500D01*
X5000Y40500D01*
X5000Y37500D02*
X4000Y36500D01*
X1000Y36500D01*
X0Y35500D01*
X5000Y37500D02*
X5000Y40500D01*
X0Y-16500D02*
X0Y-23000D01*
X0Y-3000D02*
X0Y9500D01*
X0Y16500D02*
X0Y35500D01*
X0Y-3000D02*
X1000Y-4000D01*
X4000Y-4000D02*
X5000Y-5000D01*
X4000Y-4000D02*
X1000Y-4000D01*
X5000Y-5000D02*
X5000Y-14500D01*
X4000Y-15500D01*
X1000Y-15500D01*
X0Y-16500D01*
X1000Y106500D02*
X0Y107500D01*
X1000Y106500D02*
X4000Y106500D01*
X5000Y105500D01*
X5000Y96000D01*
X4000Y95000D01*
X1000Y95000D01*
X0Y94000D01*
D11*
X502876Y87547D02*
X508982Y81440D01*
X507286Y79744D01*
X507286Y79743D02*
X507231Y79692D01*
X507174Y79643D01*
X507114Y79597D01*
X507052Y79554D01*
X506988Y79515D01*
X506921Y79479D01*
X506853Y79446D01*
X506784Y79418D01*
X506713Y79392D01*
X506640Y79371D01*
X506567Y79353D01*
X506493Y79340D01*
X506418Y79330D01*
X506343Y79324D01*
X506268Y79322D01*
X506193Y79324D01*
X506118Y79330D01*
X506043Y79340D01*
X505969Y79353D01*
X505896Y79371D01*
X505823Y79392D01*
X505752Y79418D01*
X505683Y79446D01*
X505615Y79479D01*
X505549Y79515D01*
X505484Y79554D01*
X505422Y79597D01*
X505362Y79643D01*
X505305Y79692D01*
X505251Y79743D01*
X505251Y79744D02*
X503215Y81779D01*
X503165Y81832D01*
X503118Y81888D01*
X503073Y81945D01*
X503031Y82005D01*
X502993Y82067D01*
X502958Y82131D01*
X502925Y82196D01*
X502897Y82263D01*
X502871Y82332D01*
X502850Y82401D01*
X502831Y82472D01*
X502817Y82543D01*
X502806Y82615D01*
X502798Y82688D01*
X502794Y82761D01*
X502794Y82833D01*
X502798Y82906D01*
X502806Y82979D01*
X502817Y83051D01*
X502831Y83122D01*
X502850Y83193D01*
X502871Y83262D01*
X502897Y83331D01*
X502925Y83398D01*
X502958Y83463D01*
X502993Y83527D01*
X503031Y83589D01*
X503073Y83649D01*
X503118Y83706D01*
X503165Y83762D01*
X503215Y83815D01*
X504911Y85511D01*
X502409Y74866D02*
X500713Y73170D01*
X502409Y74866D02*
X502459Y74919D01*
X502506Y74975D01*
X502551Y75032D01*
X502593Y75092D01*
X502631Y75154D01*
X502666Y75218D01*
X502699Y75283D01*
X502727Y75350D01*
X502753Y75419D01*
X502774Y75488D01*
X502793Y75559D01*
X502807Y75630D01*
X502818Y75702D01*
X502826Y75775D01*
X502830Y75848D01*
X502830Y75920D01*
X502826Y75993D01*
X502818Y76066D01*
X502807Y76138D01*
X502793Y76209D01*
X502774Y76280D01*
X502753Y76349D01*
X502727Y76418D01*
X502699Y76485D01*
X502666Y76550D01*
X502631Y76614D01*
X502593Y76676D01*
X502551Y76736D01*
X502506Y76793D01*
X502459Y76849D01*
X502409Y76902D01*
X500713Y78598D01*
X500650Y78658D01*
X500584Y78716D01*
X500516Y78770D01*
X500445Y78821D01*
X500372Y78869D01*
X500297Y78914D01*
X500219Y78955D01*
X500141Y78992D01*
X500060Y79026D01*
X499978Y79056D01*
X499895Y79083D01*
X499810Y79105D01*
X499725Y79124D01*
X499639Y79139D01*
X499552Y79150D01*
X499465Y79157D01*
X499378Y79160D01*
X499290Y79159D01*
X499203Y79154D01*
X499116Y79145D01*
X499030Y79132D01*
X498944Y79115D01*
X498859Y79095D01*
X498775Y79070D01*
X498693Y79042D01*
X498612Y79010D01*
X498532Y78974D01*
X498454Y78935D01*
X498378Y78892D01*
X498304Y78846D01*
X498232Y78796D01*
X498162Y78743D01*
X498095Y78687D01*
X498030Y78628D01*
X497969Y78567D01*
X497910Y78502D01*
X497854Y78435D01*
X497801Y78365D01*
X497751Y78293D01*
X497705Y78219D01*
X497662Y78143D01*
X497623Y78065D01*
X497587Y77985D01*
X497555Y77904D01*
X497527Y77822D01*
X497502Y77738D01*
X497482Y77653D01*
X497465Y77567D01*
X497452Y77481D01*
X497443Y77394D01*
X497438Y77307D01*
X497437Y77219D01*
X497440Y77132D01*
X497447Y77045D01*
X497458Y76958D01*
X497473Y76872D01*
X497492Y76787D01*
X497514Y76702D01*
X497541Y76619D01*
X497571Y76537D01*
X497605Y76457D01*
X497642Y76378D01*
X497683Y76300D01*
X497728Y76225D01*
X497776Y76152D01*
X497827Y76081D01*
X497881Y76013D01*
X497939Y75947D01*
X497999Y75884D01*
X498677Y75206D01*
X501391Y77920D01*
X497607Y70065D02*
X493536Y74136D01*
X491840Y72440D01*
X491789Y72385D01*
X491740Y72328D01*
X491694Y72268D01*
X491651Y72206D01*
X491612Y72142D01*
X491576Y72075D01*
X491543Y72007D01*
X491515Y71938D01*
X491489Y71867D01*
X491468Y71794D01*
X491450Y71721D01*
X491437Y71647D01*
X491427Y71572D01*
X491421Y71497D01*
X491419Y71422D01*
X491421Y71347D01*
X491427Y71272D01*
X491437Y71197D01*
X491450Y71123D01*
X491468Y71050D01*
X491489Y70977D01*
X491515Y70906D01*
X491543Y70837D01*
X491576Y70769D01*
X491612Y70703D01*
X491651Y70638D01*
X491694Y70576D01*
X491740Y70516D01*
X491789Y70459D01*
X491840Y70405D01*
X491840Y70404D02*
X494893Y67351D01*
X489122Y61580D02*
X483016Y67686D01*
X489122Y61580D02*
X490819Y63276D01*
X490869Y63329D01*
X490916Y63385D01*
X490961Y63442D01*
X491003Y63502D01*
X491041Y63564D01*
X491076Y63628D01*
X491109Y63693D01*
X491137Y63760D01*
X491163Y63829D01*
X491184Y63898D01*
X491203Y63969D01*
X491217Y64040D01*
X491228Y64112D01*
X491236Y64185D01*
X491240Y64258D01*
X491240Y64330D01*
X491236Y64403D01*
X491228Y64476D01*
X491217Y64548D01*
X491203Y64619D01*
X491184Y64690D01*
X491163Y64759D01*
X491137Y64828D01*
X491109Y64895D01*
X491076Y64960D01*
X491041Y65024D01*
X491003Y65086D01*
X490961Y65146D01*
X490916Y65203D01*
X490869Y65259D01*
X490819Y65312D01*
X490819Y65311D02*
X488783Y67347D01*
X488728Y67398D01*
X488671Y67447D01*
X488611Y67493D01*
X488549Y67536D01*
X488485Y67575D01*
X488418Y67611D01*
X488350Y67644D01*
X488281Y67672D01*
X488210Y67698D01*
X488137Y67719D01*
X488064Y67737D01*
X487990Y67750D01*
X487915Y67760D01*
X487840Y67766D01*
X487765Y67768D01*
X487690Y67766D01*
X487615Y67760D01*
X487540Y67750D01*
X487466Y67737D01*
X487393Y67719D01*
X487320Y67698D01*
X487249Y67672D01*
X487180Y67644D01*
X487112Y67611D01*
X487046Y67575D01*
X486981Y67536D01*
X486919Y67493D01*
X486859Y67447D01*
X486802Y67398D01*
X486747Y67347D01*
X485051Y65651D01*
X481492Y53950D02*
X480135Y52593D01*
X481493Y53949D02*
X481543Y54002D01*
X481590Y54058D01*
X481635Y54115D01*
X481677Y54175D01*
X481715Y54237D01*
X481750Y54301D01*
X481783Y54366D01*
X481811Y54433D01*
X481837Y54502D01*
X481858Y54571D01*
X481877Y54642D01*
X481891Y54713D01*
X481902Y54785D01*
X481910Y54858D01*
X481914Y54931D01*
X481914Y55003D01*
X481910Y55076D01*
X481902Y55149D01*
X481891Y55221D01*
X481877Y55292D01*
X481858Y55363D01*
X481837Y55432D01*
X481811Y55501D01*
X481783Y55568D01*
X481750Y55633D01*
X481715Y55697D01*
X481677Y55759D01*
X481635Y55819D01*
X481590Y55876D01*
X481543Y55932D01*
X481493Y55985D01*
X481492Y55985D02*
X479457Y58021D01*
X479402Y58072D01*
X479345Y58121D01*
X479285Y58167D01*
X479223Y58210D01*
X479159Y58249D01*
X479092Y58285D01*
X479024Y58318D01*
X478955Y58346D01*
X478884Y58372D01*
X478811Y58393D01*
X478738Y58411D01*
X478664Y58424D01*
X478589Y58434D01*
X478514Y58440D01*
X478439Y58442D01*
X478364Y58440D01*
X478289Y58434D01*
X478214Y58424D01*
X478140Y58411D01*
X478067Y58393D01*
X477994Y58372D01*
X477923Y58346D01*
X477854Y58318D01*
X477786Y58285D01*
X477720Y58249D01*
X477655Y58210D01*
X477593Y58167D01*
X477533Y58121D01*
X477476Y58072D01*
X477421Y58021D01*
X476064Y56664D01*
X474050Y51256D02*
X472523Y49730D01*
X474050Y51256D02*
X474108Y51312D01*
X474170Y51365D01*
X474234Y51415D01*
X474300Y51462D01*
X474368Y51506D01*
X474439Y51546D01*
X474511Y51583D01*
X474585Y51616D01*
X474661Y51646D01*
X474737Y51672D01*
X474816Y51694D01*
X474895Y51713D01*
X474974Y51727D01*
X475055Y51738D01*
X475136Y51745D01*
X475217Y51748D01*
X475298Y51747D01*
X475379Y51742D01*
X475459Y51733D01*
X475540Y51720D01*
X475619Y51704D01*
X475698Y51684D01*
X475775Y51659D01*
X475851Y51632D01*
X475926Y51600D01*
X475999Y51565D01*
X476071Y51526D01*
X476140Y51484D01*
X476207Y51439D01*
X476272Y51391D01*
X476335Y51339D01*
X476395Y51285D01*
X476453Y51227D01*
X476507Y51167D01*
X476559Y51104D01*
X476607Y51039D01*
X476652Y50972D01*
X476694Y50903D01*
X476733Y50831D01*
X476768Y50758D01*
X476800Y50683D01*
X476827Y50607D01*
X476852Y50530D01*
X476872Y50451D01*
X476888Y50372D01*
X476901Y50291D01*
X476910Y50211D01*
X476915Y50130D01*
X476916Y50049D01*
X476913Y49968D01*
X476906Y49887D01*
X476895Y49806D01*
X476881Y49727D01*
X476862Y49648D01*
X476840Y49569D01*
X476814Y49493D01*
X476784Y49417D01*
X476751Y49343D01*
X476714Y49271D01*
X476674Y49200D01*
X476630Y49132D01*
X476583Y49066D01*
X476533Y49002D01*
X476480Y48940D01*
X476424Y48882D01*
X474898Y47355D01*
X471844Y50408D01*
X471794Y50461D01*
X471747Y50517D01*
X471702Y50574D01*
X471660Y50634D01*
X471622Y50696D01*
X471587Y50760D01*
X471554Y50825D01*
X471526Y50892D01*
X471500Y50961D01*
X471479Y51030D01*
X471460Y51101D01*
X471446Y51172D01*
X471435Y51244D01*
X471427Y51317D01*
X471423Y51390D01*
X471423Y51462D01*
X471427Y51535D01*
X471435Y51608D01*
X471446Y51680D01*
X471460Y51751D01*
X471479Y51822D01*
X471500Y51891D01*
X471526Y51960D01*
X471554Y52027D01*
X471587Y52092D01*
X471622Y52156D01*
X471660Y52218D01*
X471702Y52278D01*
X471747Y52335D01*
X471794Y52391D01*
X471845Y52444D01*
X471844Y52444D02*
X473201Y53801D01*
X465375Y50045D02*
X471481Y43938D01*
X469785Y42242D01*
X469730Y42191D01*
X469673Y42142D01*
X469613Y42096D01*
X469551Y42053D01*
X469487Y42014D01*
X469420Y41978D01*
X469352Y41945D01*
X469283Y41917D01*
X469212Y41891D01*
X469139Y41870D01*
X469066Y41852D01*
X468992Y41839D01*
X468917Y41829D01*
X468842Y41823D01*
X468767Y41821D01*
X468692Y41823D01*
X468617Y41829D01*
X468542Y41839D01*
X468468Y41852D01*
X468395Y41870D01*
X468322Y41891D01*
X468251Y41917D01*
X468182Y41945D01*
X468114Y41978D01*
X468048Y42014D01*
X467983Y42053D01*
X467921Y42096D01*
X467861Y42142D01*
X467804Y42191D01*
X467750Y42242D01*
X465714Y44278D01*
X465714Y44277D02*
X465664Y44330D01*
X465617Y44386D01*
X465572Y44443D01*
X465530Y44503D01*
X465492Y44565D01*
X465457Y44629D01*
X465424Y44694D01*
X465396Y44761D01*
X465370Y44830D01*
X465349Y44899D01*
X465330Y44970D01*
X465316Y45041D01*
X465305Y45113D01*
X465297Y45186D01*
X465293Y45259D01*
X465293Y45331D01*
X465297Y45404D01*
X465305Y45477D01*
X465316Y45549D01*
X465330Y45620D01*
X465349Y45691D01*
X465370Y45760D01*
X465396Y45829D01*
X465424Y45896D01*
X465457Y45961D01*
X465492Y46025D01*
X465530Y46087D01*
X465572Y46147D01*
X465617Y46204D01*
X465664Y46260D01*
X465714Y46313D01*
X467410Y48010D01*
X459792Y44462D02*
X464881Y39373D01*
X464932Y39318D01*
X464981Y39261D01*
X465027Y39201D01*
X465070Y39139D01*
X465109Y39075D01*
X465145Y39008D01*
X465178Y38940D01*
X465206Y38871D01*
X465232Y38800D01*
X465253Y38727D01*
X465271Y38654D01*
X465284Y38580D01*
X465294Y38505D01*
X465300Y38430D01*
X465302Y38355D01*
X465300Y38280D01*
X465294Y38205D01*
X465284Y38130D01*
X465271Y38056D01*
X465253Y37983D01*
X465232Y37910D01*
X465206Y37839D01*
X465178Y37770D01*
X465145Y37702D01*
X465109Y37636D01*
X465070Y37571D01*
X465027Y37509D01*
X464981Y37449D01*
X464932Y37392D01*
X464881Y37337D01*
X461460Y33917D02*
X459763Y32220D01*
X461460Y33916D02*
X461510Y33969D01*
X461557Y34025D01*
X461602Y34082D01*
X461644Y34142D01*
X461682Y34204D01*
X461717Y34268D01*
X461750Y34333D01*
X461778Y34400D01*
X461804Y34469D01*
X461825Y34538D01*
X461844Y34609D01*
X461858Y34680D01*
X461869Y34752D01*
X461877Y34825D01*
X461881Y34898D01*
X461881Y34970D01*
X461877Y35043D01*
X461869Y35116D01*
X461858Y35188D01*
X461844Y35259D01*
X461825Y35330D01*
X461804Y35399D01*
X461778Y35468D01*
X461750Y35535D01*
X461717Y35600D01*
X461682Y35664D01*
X461644Y35726D01*
X461602Y35786D01*
X461557Y35843D01*
X461510Y35899D01*
X461460Y35952D01*
X459763Y37648D01*
X459700Y37708D01*
X459634Y37766D01*
X459566Y37820D01*
X459495Y37871D01*
X459422Y37919D01*
X459347Y37964D01*
X459269Y38005D01*
X459191Y38042D01*
X459110Y38076D01*
X459028Y38106D01*
X458945Y38133D01*
X458860Y38155D01*
X458775Y38174D01*
X458689Y38189D01*
X458602Y38200D01*
X458515Y38207D01*
X458428Y38210D01*
X458340Y38209D01*
X458253Y38204D01*
X458166Y38195D01*
X458080Y38182D01*
X457994Y38165D01*
X457909Y38145D01*
X457825Y38120D01*
X457743Y38092D01*
X457662Y38060D01*
X457582Y38024D01*
X457504Y37985D01*
X457428Y37942D01*
X457354Y37896D01*
X457282Y37846D01*
X457212Y37793D01*
X457145Y37737D01*
X457080Y37678D01*
X457019Y37617D01*
X456960Y37552D01*
X456904Y37485D01*
X456851Y37415D01*
X456801Y37343D01*
X456755Y37269D01*
X456712Y37193D01*
X456673Y37115D01*
X456637Y37035D01*
X456605Y36954D01*
X456577Y36872D01*
X456552Y36788D01*
X456532Y36703D01*
X456515Y36617D01*
X456502Y36531D01*
X456493Y36444D01*
X456488Y36357D01*
X456487Y36269D01*
X456490Y36182D01*
X456497Y36095D01*
X456508Y36008D01*
X456523Y35922D01*
X456542Y35837D01*
X456564Y35752D01*
X456591Y35669D01*
X456621Y35587D01*
X456655Y35507D01*
X456692Y35428D01*
X456733Y35350D01*
X456778Y35275D01*
X456826Y35202D01*
X456877Y35131D01*
X456931Y35063D01*
X456989Y34997D01*
X457049Y34934D01*
X457728Y34256D01*
X460442Y36970D01*
X453210Y25667D02*
X447103Y31773D01*
X449139Y29738D02*
X447442Y28041D01*
X447442Y28042D02*
X447391Y27987D01*
X447342Y27930D01*
X447296Y27870D01*
X447253Y27808D01*
X447214Y27744D01*
X447178Y27677D01*
X447145Y27609D01*
X447117Y27540D01*
X447091Y27469D01*
X447070Y27396D01*
X447052Y27323D01*
X447039Y27249D01*
X447029Y27174D01*
X447023Y27099D01*
X447021Y27024D01*
X447023Y26949D01*
X447029Y26874D01*
X447039Y26799D01*
X447052Y26725D01*
X447070Y26652D01*
X447091Y26579D01*
X447117Y26508D01*
X447145Y26439D01*
X447178Y26371D01*
X447214Y26305D01*
X447253Y26240D01*
X447296Y26178D01*
X447342Y26118D01*
X447391Y26061D01*
X447442Y26007D01*
X447442Y26006D02*
X450496Y22953D01*
X446373Y18830D02*
X444677Y17133D01*
X446373Y18829D02*
X446423Y18882D01*
X446470Y18938D01*
X446515Y18995D01*
X446557Y19055D01*
X446595Y19117D01*
X446630Y19181D01*
X446663Y19246D01*
X446691Y19313D01*
X446717Y19382D01*
X446738Y19451D01*
X446757Y19522D01*
X446771Y19593D01*
X446782Y19665D01*
X446790Y19738D01*
X446794Y19811D01*
X446794Y19883D01*
X446790Y19956D01*
X446782Y20029D01*
X446771Y20101D01*
X446757Y20172D01*
X446738Y20243D01*
X446717Y20312D01*
X446691Y20381D01*
X446663Y20448D01*
X446630Y20513D01*
X446595Y20577D01*
X446557Y20639D01*
X446515Y20699D01*
X446470Y20756D01*
X446423Y20812D01*
X446373Y20865D01*
X444677Y22561D01*
X444614Y22621D01*
X444548Y22679D01*
X444480Y22733D01*
X444409Y22784D01*
X444336Y22832D01*
X444261Y22877D01*
X444183Y22918D01*
X444105Y22955D01*
X444024Y22989D01*
X443942Y23019D01*
X443859Y23046D01*
X443774Y23068D01*
X443689Y23087D01*
X443603Y23102D01*
X443516Y23113D01*
X443429Y23120D01*
X443342Y23123D01*
X443254Y23122D01*
X443167Y23117D01*
X443080Y23108D01*
X442994Y23095D01*
X442908Y23078D01*
X442823Y23058D01*
X442739Y23033D01*
X442657Y23005D01*
X442576Y22973D01*
X442496Y22937D01*
X442418Y22898D01*
X442342Y22855D01*
X442268Y22809D01*
X442196Y22759D01*
X442126Y22706D01*
X442059Y22650D01*
X441994Y22591D01*
X441933Y22530D01*
X441874Y22465D01*
X441818Y22398D01*
X441765Y22328D01*
X441715Y22256D01*
X441669Y22182D01*
X441626Y22106D01*
X441587Y22028D01*
X441551Y21948D01*
X441519Y21867D01*
X441491Y21785D01*
X441466Y21701D01*
X441446Y21616D01*
X441429Y21530D01*
X441416Y21444D01*
X441407Y21357D01*
X441402Y21270D01*
X441401Y21182D01*
X441404Y21095D01*
X441411Y21008D01*
X441422Y20921D01*
X441437Y20835D01*
X441456Y20750D01*
X441478Y20665D01*
X441505Y20582D01*
X441535Y20500D01*
X441569Y20420D01*
X441606Y20341D01*
X441647Y20263D01*
X441692Y20188D01*
X441740Y20115D01*
X441791Y20044D01*
X441845Y19976D01*
X441903Y19910D01*
X441963Y19847D01*
X442641Y19169D01*
X445355Y21883D01*
X441517Y13974D02*
X437446Y18045D01*
X435411Y16010D01*
X436089Y15331D01*
X436243Y8700D02*
X434547Y7004D01*
X436244Y8700D02*
X436294Y8753D01*
X436341Y8809D01*
X436386Y8866D01*
X436428Y8926D01*
X436466Y8988D01*
X436501Y9052D01*
X436534Y9117D01*
X436562Y9184D01*
X436588Y9253D01*
X436609Y9322D01*
X436628Y9393D01*
X436642Y9464D01*
X436653Y9536D01*
X436661Y9609D01*
X436665Y9682D01*
X436665Y9754D01*
X436661Y9827D01*
X436653Y9900D01*
X436642Y9972D01*
X436628Y10043D01*
X436609Y10114D01*
X436588Y10183D01*
X436562Y10252D01*
X436534Y10319D01*
X436501Y10384D01*
X436466Y10448D01*
X436428Y10510D01*
X436386Y10570D01*
X436341Y10627D01*
X436294Y10683D01*
X436244Y10736D01*
X436243Y10735D02*
X434547Y12432D01*
X434485Y12491D01*
X434420Y12548D01*
X434353Y12602D01*
X434283Y12652D01*
X434211Y12700D01*
X434137Y12744D01*
X434061Y12785D01*
X433984Y12822D01*
X433904Y12856D01*
X433824Y12886D01*
X433742Y12913D01*
X433659Y12936D01*
X433575Y12955D01*
X433490Y12970D01*
X433405Y12982D01*
X433319Y12990D01*
X433233Y12994D01*
X433147Y12994D01*
X433061Y12990D01*
X432975Y12982D01*
X432890Y12970D01*
X432805Y12955D01*
X432721Y12936D01*
X432638Y12913D01*
X432556Y12886D01*
X432476Y12856D01*
X432396Y12822D01*
X432319Y12785D01*
X432243Y12744D01*
X432169Y12700D01*
X432097Y12652D01*
X432027Y12602D01*
X431960Y12548D01*
X431895Y12491D01*
X431833Y12432D01*
X431774Y12370D01*
X431717Y12305D01*
X431663Y12238D01*
X431613Y12168D01*
X431565Y12096D01*
X431521Y12022D01*
X431480Y11946D01*
X431443Y11869D01*
X431409Y11789D01*
X431379Y11709D01*
X431352Y11627D01*
X431329Y11544D01*
X431310Y11460D01*
X431295Y11375D01*
X431283Y11290D01*
X431275Y11204D01*
X431271Y11118D01*
X431271Y11032D01*
X431275Y10946D01*
X431283Y10860D01*
X431295Y10775D01*
X431310Y10690D01*
X431329Y10606D01*
X431352Y10523D01*
X431379Y10441D01*
X431409Y10361D01*
X431443Y10281D01*
X431480Y10204D01*
X431521Y10128D01*
X431565Y10054D01*
X431613Y9982D01*
X431663Y9912D01*
X431717Y9845D01*
X431774Y9780D01*
X431833Y9718D01*
X432511Y9039D01*
X435225Y11753D01*
D10*
X294500Y94500D02*
X252500Y136500D01*
X294500Y94500D02*
X1427610Y94500D01*
X1466610Y133500D01*
X1490010Y133500D01*
X1494000Y129500D01*
X1494000Y-70000D01*
X1490500Y-73500D01*
X1355000Y-74000D01*
X1293500Y-12500D01*
X390500Y-12000D01*
X368000Y-34500D01*
X25500Y-34500D01*
D11*
X521484Y84284D02*
X530120Y92920D01*
X514413Y77213D02*
X505776Y68576D01*
X498705Y61505D02*
X490069Y52869D01*
X482998Y45798D02*
X474362Y37162D01*
X467291Y30091D02*
X458655Y21455D01*
X451584Y14384D02*
X442947Y5747D01*
X435876Y-1324D02*
X427240Y-9960D01*
X1272701Y-2171D02*
X1281700Y-11170D01*
X1265630Y4900D02*
X1256631Y13899D01*
X1249560Y20970D02*
X1240561Y29969D01*
X1233490Y37040D02*
X1224490Y46040D01*
X1217419Y53111D02*
X1208420Y62110D01*
X1201349Y69181D02*
X1192350Y78180D01*
X1185279Y85251D02*
X1176280Y94250D01*
X1172270Y-10160D02*
X1271330Y-10160D01*
X1172270Y-10160D02*
X1172270Y88900D01*
X1271330Y-10160D01*
X1267266Y-6096D02*
X1172270Y-6096D01*
X1172270Y0D02*
X1261170Y0D01*
X1255074Y6096D02*
X1172270Y6096D01*
X1172270Y12192D02*
X1248978Y12192D01*
X1242882Y18288D02*
X1172270Y18288D01*
X1172270Y24384D02*
X1236786Y24384D01*
X1230690Y30480D02*
X1172270Y30480D01*
X1172270Y36576D02*
X1224594Y36576D01*
X1218498Y42672D02*
X1172270Y42672D01*
X1172270Y48768D02*
X1212402Y48768D01*
X1206306Y54864D02*
X1172270Y54864D01*
X1172270Y60960D02*
X1200210Y60960D01*
X1194114Y67056D02*
X1172270Y67056D01*
X1172270Y73152D02*
X1188018Y73152D01*
X1181922Y79248D02*
X1172270Y79248D01*
X1172270Y85344D02*
X1175826Y85344D01*
X1176528Y84642D02*
X1176528Y-10160D01*
X1182624Y-10160D02*
X1182624Y78546D01*
X1188720Y72450D02*
X1188720Y-10160D01*
X1194816Y-10160D02*
X1194816Y66354D01*
X1200912Y60258D02*
X1200912Y-10160D01*
X1207008Y-10160D02*
X1207008Y54162D01*
X1213104Y48066D02*
X1213104Y-10160D01*
X1219200Y-10160D02*
X1219200Y41970D01*
X1225296Y35874D02*
X1225296Y-10160D01*
X1231392Y-10160D02*
X1231392Y29778D01*
X1237488Y23682D02*
X1237488Y-10160D01*
X1243584Y-10160D02*
X1243584Y17586D01*
X1249680Y11490D02*
X1249680Y-10160D01*
X1255776Y-10160D02*
X1255776Y5394D01*
X1261872Y-702D02*
X1261872Y-10160D01*
X1267968Y-10160D02*
X1267968Y-6798D01*
X1276340Y9418D02*
X1282447Y15524D01*
X1276340Y9418D02*
X1274644Y11114D01*
X1274593Y11169D01*
X1274544Y11226D01*
X1274498Y11286D01*
X1274455Y11348D01*
X1274416Y11412D01*
X1274380Y11479D01*
X1274347Y11547D01*
X1274319Y11616D01*
X1274293Y11687D01*
X1274272Y11760D01*
X1274254Y11833D01*
X1274241Y11907D01*
X1274231Y11982D01*
X1274225Y12057D01*
X1274223Y12132D01*
X1274225Y12207D01*
X1274231Y12282D01*
X1274241Y12357D01*
X1274254Y12431D01*
X1274272Y12504D01*
X1274293Y12577D01*
X1274319Y12648D01*
X1274347Y12717D01*
X1274380Y12785D01*
X1274416Y12851D01*
X1274455Y12916D01*
X1274498Y12978D01*
X1274544Y13038D01*
X1274593Y13095D01*
X1274644Y13149D01*
X1276679Y15185D01*
X1276732Y15235D01*
X1276788Y15282D01*
X1276845Y15327D01*
X1276905Y15369D01*
X1276967Y15407D01*
X1277031Y15442D01*
X1277096Y15475D01*
X1277163Y15503D01*
X1277232Y15529D01*
X1277301Y15550D01*
X1277372Y15569D01*
X1277443Y15583D01*
X1277515Y15594D01*
X1277588Y15602D01*
X1277661Y15606D01*
X1277733Y15606D01*
X1277806Y15602D01*
X1277879Y15594D01*
X1277951Y15583D01*
X1278022Y15569D01*
X1278093Y15550D01*
X1278162Y15529D01*
X1278231Y15503D01*
X1278298Y15475D01*
X1278363Y15442D01*
X1278427Y15407D01*
X1278489Y15369D01*
X1278549Y15327D01*
X1278606Y15282D01*
X1278662Y15235D01*
X1278715Y15185D01*
X1280411Y13489D01*
X1269767Y15991D02*
X1268070Y17687D01*
X1269766Y15991D02*
X1269819Y15941D01*
X1269875Y15894D01*
X1269932Y15849D01*
X1269992Y15807D01*
X1270054Y15769D01*
X1270118Y15734D01*
X1270183Y15701D01*
X1270250Y15673D01*
X1270319Y15647D01*
X1270388Y15626D01*
X1270459Y15607D01*
X1270530Y15593D01*
X1270602Y15582D01*
X1270675Y15574D01*
X1270748Y15570D01*
X1270820Y15570D01*
X1270893Y15574D01*
X1270966Y15582D01*
X1271038Y15593D01*
X1271109Y15607D01*
X1271180Y15626D01*
X1271249Y15647D01*
X1271318Y15673D01*
X1271385Y15701D01*
X1271450Y15734D01*
X1271514Y15769D01*
X1271576Y15807D01*
X1271636Y15849D01*
X1271693Y15894D01*
X1271749Y15941D01*
X1271802Y15991D01*
X1273498Y17687D01*
X1273557Y17749D01*
X1273614Y17814D01*
X1273668Y17881D01*
X1273718Y17951D01*
X1273766Y18023D01*
X1273810Y18097D01*
X1273851Y18173D01*
X1273888Y18250D01*
X1273922Y18330D01*
X1273952Y18410D01*
X1273979Y18492D01*
X1274002Y18575D01*
X1274021Y18659D01*
X1274036Y18744D01*
X1274048Y18829D01*
X1274056Y18915D01*
X1274060Y19001D01*
X1274060Y19087D01*
X1274056Y19173D01*
X1274048Y19259D01*
X1274036Y19344D01*
X1274021Y19429D01*
X1274002Y19513D01*
X1273979Y19596D01*
X1273952Y19678D01*
X1273922Y19758D01*
X1273888Y19838D01*
X1273851Y19915D01*
X1273810Y19991D01*
X1273766Y20065D01*
X1273718Y20137D01*
X1273668Y20207D01*
X1273614Y20274D01*
X1273557Y20339D01*
X1273498Y20401D01*
X1273436Y20460D01*
X1273371Y20517D01*
X1273304Y20571D01*
X1273234Y20621D01*
X1273162Y20669D01*
X1273088Y20713D01*
X1273012Y20754D01*
X1272935Y20791D01*
X1272855Y20825D01*
X1272775Y20855D01*
X1272693Y20882D01*
X1272610Y20905D01*
X1272526Y20924D01*
X1272441Y20939D01*
X1272356Y20951D01*
X1272270Y20959D01*
X1272184Y20963D01*
X1272098Y20963D01*
X1272012Y20959D01*
X1271926Y20951D01*
X1271841Y20939D01*
X1271756Y20924D01*
X1271672Y20905D01*
X1271589Y20882D01*
X1271507Y20855D01*
X1271427Y20825D01*
X1271347Y20791D01*
X1271270Y20754D01*
X1271194Y20713D01*
X1271120Y20669D01*
X1271048Y20621D01*
X1270978Y20571D01*
X1270911Y20517D01*
X1270846Y20460D01*
X1270784Y20401D01*
X1270106Y19723D01*
X1272820Y17009D01*
X1264965Y20793D02*
X1269036Y24864D01*
X1267340Y26560D01*
X1267285Y26611D01*
X1267228Y26660D01*
X1267168Y26706D01*
X1267106Y26749D01*
X1267042Y26788D01*
X1266975Y26824D01*
X1266907Y26857D01*
X1266838Y26885D01*
X1266767Y26911D01*
X1266694Y26932D01*
X1266621Y26950D01*
X1266547Y26963D01*
X1266472Y26973D01*
X1266397Y26979D01*
X1266322Y26981D01*
X1266247Y26979D01*
X1266172Y26973D01*
X1266097Y26963D01*
X1266023Y26950D01*
X1265950Y26932D01*
X1265877Y26911D01*
X1265806Y26885D01*
X1265737Y26857D01*
X1265669Y26824D01*
X1265603Y26788D01*
X1265538Y26749D01*
X1265476Y26706D01*
X1265416Y26660D01*
X1265359Y26611D01*
X1265305Y26560D01*
X1265304Y26560D02*
X1262251Y23507D01*
X1256480Y29278D02*
X1262586Y35384D01*
X1256480Y29278D02*
X1258176Y27582D01*
X1258176Y27581D02*
X1258229Y27531D01*
X1258285Y27484D01*
X1258342Y27439D01*
X1258402Y27397D01*
X1258464Y27359D01*
X1258528Y27324D01*
X1258593Y27291D01*
X1258660Y27263D01*
X1258729Y27237D01*
X1258798Y27216D01*
X1258869Y27197D01*
X1258940Y27183D01*
X1259012Y27172D01*
X1259085Y27164D01*
X1259158Y27160D01*
X1259230Y27160D01*
X1259303Y27164D01*
X1259376Y27172D01*
X1259448Y27183D01*
X1259519Y27197D01*
X1259590Y27216D01*
X1259659Y27237D01*
X1259728Y27263D01*
X1259795Y27291D01*
X1259860Y27324D01*
X1259924Y27359D01*
X1259986Y27397D01*
X1260046Y27439D01*
X1260103Y27484D01*
X1260159Y27531D01*
X1260212Y27581D01*
X1260212Y27582D02*
X1262247Y29617D01*
X1262298Y29672D01*
X1262347Y29729D01*
X1262393Y29789D01*
X1262436Y29851D01*
X1262475Y29916D01*
X1262511Y29982D01*
X1262544Y30050D01*
X1262572Y30119D01*
X1262598Y30190D01*
X1262619Y30263D01*
X1262637Y30336D01*
X1262650Y30410D01*
X1262660Y30485D01*
X1262666Y30560D01*
X1262668Y30635D01*
X1262666Y30710D01*
X1262660Y30785D01*
X1262650Y30860D01*
X1262637Y30934D01*
X1262619Y31007D01*
X1262598Y31080D01*
X1262572Y31151D01*
X1262544Y31220D01*
X1262511Y31288D01*
X1262475Y31355D01*
X1262436Y31419D01*
X1262393Y31481D01*
X1262347Y31541D01*
X1262298Y31598D01*
X1262247Y31653D01*
X1260551Y33349D01*
X1248850Y36908D02*
X1247493Y38265D01*
X1248850Y36907D02*
X1248903Y36857D01*
X1248959Y36810D01*
X1249016Y36765D01*
X1249076Y36723D01*
X1249138Y36685D01*
X1249202Y36650D01*
X1249267Y36617D01*
X1249334Y36589D01*
X1249403Y36563D01*
X1249472Y36542D01*
X1249543Y36523D01*
X1249614Y36509D01*
X1249686Y36498D01*
X1249759Y36490D01*
X1249832Y36486D01*
X1249904Y36486D01*
X1249977Y36490D01*
X1250050Y36498D01*
X1250122Y36509D01*
X1250193Y36523D01*
X1250264Y36542D01*
X1250333Y36563D01*
X1250402Y36589D01*
X1250469Y36617D01*
X1250534Y36650D01*
X1250598Y36685D01*
X1250660Y36723D01*
X1250720Y36765D01*
X1250777Y36810D01*
X1250833Y36857D01*
X1250886Y36907D01*
X1250885Y36908D02*
X1252921Y38943D01*
X1252972Y38998D01*
X1253021Y39055D01*
X1253067Y39115D01*
X1253110Y39177D01*
X1253149Y39242D01*
X1253185Y39308D01*
X1253218Y39376D01*
X1253246Y39445D01*
X1253272Y39516D01*
X1253293Y39589D01*
X1253311Y39662D01*
X1253324Y39736D01*
X1253334Y39811D01*
X1253340Y39886D01*
X1253342Y39961D01*
X1253340Y40036D01*
X1253334Y40111D01*
X1253324Y40186D01*
X1253311Y40260D01*
X1253293Y40333D01*
X1253272Y40406D01*
X1253246Y40477D01*
X1253218Y40546D01*
X1253185Y40614D01*
X1253149Y40681D01*
X1253110Y40745D01*
X1253067Y40807D01*
X1253021Y40867D01*
X1252972Y40924D01*
X1252921Y40979D01*
X1251564Y42336D01*
X1246157Y44350D02*
X1244630Y45877D01*
X1246156Y44350D02*
X1246212Y44291D01*
X1246265Y44230D01*
X1246315Y44166D01*
X1246362Y44100D01*
X1246406Y44032D01*
X1246446Y43961D01*
X1246483Y43889D01*
X1246516Y43815D01*
X1246546Y43739D01*
X1246572Y43663D01*
X1246594Y43584D01*
X1246613Y43505D01*
X1246627Y43426D01*
X1246638Y43345D01*
X1246645Y43264D01*
X1246648Y43183D01*
X1246647Y43102D01*
X1246642Y43021D01*
X1246633Y42940D01*
X1246620Y42860D01*
X1246604Y42781D01*
X1246584Y42702D01*
X1246559Y42625D01*
X1246532Y42549D01*
X1246500Y42474D01*
X1246465Y42401D01*
X1246426Y42329D01*
X1246384Y42260D01*
X1246339Y42193D01*
X1246291Y42128D01*
X1246239Y42065D01*
X1246185Y42005D01*
X1246127Y41947D01*
X1246067Y41893D01*
X1246004Y41841D01*
X1245939Y41793D01*
X1245872Y41748D01*
X1245803Y41706D01*
X1245731Y41667D01*
X1245658Y41632D01*
X1245583Y41600D01*
X1245507Y41573D01*
X1245430Y41548D01*
X1245351Y41528D01*
X1245272Y41512D01*
X1245192Y41499D01*
X1245111Y41490D01*
X1245030Y41485D01*
X1244949Y41484D01*
X1244868Y41487D01*
X1244787Y41494D01*
X1244706Y41505D01*
X1244627Y41519D01*
X1244548Y41538D01*
X1244469Y41560D01*
X1244393Y41586D01*
X1244317Y41616D01*
X1244243Y41649D01*
X1244171Y41686D01*
X1244100Y41726D01*
X1244032Y41770D01*
X1243966Y41817D01*
X1243902Y41867D01*
X1243841Y41920D01*
X1243782Y41976D01*
X1242255Y43502D01*
X1245309Y46556D01*
X1245308Y46556D02*
X1245361Y46606D01*
X1245417Y46653D01*
X1245474Y46698D01*
X1245534Y46740D01*
X1245596Y46778D01*
X1245660Y46813D01*
X1245725Y46846D01*
X1245792Y46874D01*
X1245861Y46900D01*
X1245930Y46921D01*
X1246001Y46940D01*
X1246072Y46954D01*
X1246144Y46965D01*
X1246217Y46973D01*
X1246290Y46977D01*
X1246362Y46977D01*
X1246435Y46973D01*
X1246508Y46965D01*
X1246580Y46954D01*
X1246651Y46940D01*
X1246722Y46921D01*
X1246791Y46900D01*
X1246860Y46874D01*
X1246927Y46846D01*
X1246992Y46813D01*
X1247056Y46778D01*
X1247118Y46740D01*
X1247178Y46698D01*
X1247235Y46653D01*
X1247291Y46606D01*
X1247344Y46555D01*
X1247344Y46556D02*
X1248701Y45199D01*
X1244946Y53025D02*
X1238839Y46919D01*
X1237143Y48615D01*
X1237092Y48670D01*
X1237043Y48727D01*
X1236997Y48787D01*
X1236954Y48849D01*
X1236915Y48913D01*
X1236879Y48980D01*
X1236846Y49048D01*
X1236818Y49117D01*
X1236792Y49188D01*
X1236771Y49261D01*
X1236753Y49334D01*
X1236740Y49408D01*
X1236730Y49483D01*
X1236724Y49558D01*
X1236722Y49633D01*
X1236724Y49708D01*
X1236730Y49783D01*
X1236740Y49858D01*
X1236753Y49932D01*
X1236771Y50005D01*
X1236792Y50078D01*
X1236818Y50149D01*
X1236846Y50218D01*
X1236879Y50286D01*
X1236915Y50352D01*
X1236954Y50417D01*
X1236997Y50479D01*
X1237043Y50539D01*
X1237092Y50596D01*
X1237143Y50650D01*
X1239178Y52686D01*
X1239231Y52736D01*
X1239287Y52783D01*
X1239344Y52828D01*
X1239404Y52870D01*
X1239466Y52908D01*
X1239530Y52943D01*
X1239595Y52976D01*
X1239662Y53004D01*
X1239731Y53030D01*
X1239800Y53051D01*
X1239871Y53070D01*
X1239942Y53084D01*
X1240014Y53095D01*
X1240087Y53103D01*
X1240160Y53107D01*
X1240232Y53107D01*
X1240305Y53103D01*
X1240378Y53095D01*
X1240450Y53084D01*
X1240521Y53070D01*
X1240592Y53051D01*
X1240661Y53030D01*
X1240730Y53004D01*
X1240797Y52976D01*
X1240862Y52943D01*
X1240926Y52908D01*
X1240988Y52870D01*
X1241048Y52828D01*
X1241105Y52783D01*
X1241161Y52736D01*
X1241214Y52686D01*
X1242910Y50990D01*
X1239363Y58608D02*
X1234274Y53519D01*
X1234219Y53468D01*
X1234162Y53419D01*
X1234102Y53373D01*
X1234040Y53330D01*
X1233976Y53291D01*
X1233909Y53255D01*
X1233841Y53222D01*
X1233772Y53194D01*
X1233701Y53168D01*
X1233628Y53147D01*
X1233555Y53129D01*
X1233481Y53116D01*
X1233406Y53106D01*
X1233331Y53100D01*
X1233256Y53098D01*
X1233181Y53100D01*
X1233106Y53106D01*
X1233031Y53116D01*
X1232957Y53129D01*
X1232884Y53147D01*
X1232811Y53168D01*
X1232740Y53194D01*
X1232671Y53222D01*
X1232603Y53255D01*
X1232537Y53291D01*
X1232472Y53330D01*
X1232410Y53373D01*
X1232350Y53419D01*
X1232293Y53468D01*
X1232238Y53519D01*
X1228817Y56941D02*
X1227121Y58637D01*
X1228817Y56940D02*
X1228870Y56890D01*
X1228926Y56843D01*
X1228983Y56798D01*
X1229043Y56756D01*
X1229105Y56718D01*
X1229169Y56683D01*
X1229234Y56650D01*
X1229301Y56622D01*
X1229370Y56596D01*
X1229439Y56575D01*
X1229510Y56556D01*
X1229581Y56542D01*
X1229653Y56531D01*
X1229726Y56523D01*
X1229799Y56519D01*
X1229871Y56519D01*
X1229944Y56523D01*
X1230017Y56531D01*
X1230089Y56542D01*
X1230160Y56556D01*
X1230231Y56575D01*
X1230300Y56596D01*
X1230369Y56622D01*
X1230436Y56650D01*
X1230501Y56683D01*
X1230565Y56718D01*
X1230627Y56756D01*
X1230687Y56798D01*
X1230744Y56843D01*
X1230800Y56890D01*
X1230853Y56940D01*
X1230853Y56941D02*
X1232549Y58637D01*
X1232608Y58699D01*
X1232665Y58764D01*
X1232719Y58831D01*
X1232769Y58901D01*
X1232817Y58973D01*
X1232861Y59047D01*
X1232902Y59123D01*
X1232939Y59200D01*
X1232973Y59280D01*
X1233003Y59360D01*
X1233030Y59442D01*
X1233053Y59525D01*
X1233072Y59609D01*
X1233087Y59694D01*
X1233099Y59779D01*
X1233107Y59865D01*
X1233111Y59951D01*
X1233111Y60037D01*
X1233107Y60123D01*
X1233099Y60209D01*
X1233087Y60294D01*
X1233072Y60379D01*
X1233053Y60463D01*
X1233030Y60546D01*
X1233003Y60628D01*
X1232973Y60708D01*
X1232939Y60788D01*
X1232902Y60865D01*
X1232861Y60941D01*
X1232817Y61015D01*
X1232769Y61087D01*
X1232719Y61157D01*
X1232665Y61224D01*
X1232608Y61289D01*
X1232549Y61351D01*
X1232487Y61410D01*
X1232422Y61467D01*
X1232355Y61521D01*
X1232285Y61571D01*
X1232213Y61619D01*
X1232139Y61663D01*
X1232063Y61704D01*
X1231986Y61741D01*
X1231906Y61775D01*
X1231826Y61805D01*
X1231744Y61832D01*
X1231661Y61855D01*
X1231577Y61874D01*
X1231492Y61889D01*
X1231407Y61901D01*
X1231321Y61909D01*
X1231235Y61913D01*
X1231149Y61913D01*
X1231063Y61909D01*
X1230977Y61901D01*
X1230892Y61889D01*
X1230807Y61874D01*
X1230723Y61855D01*
X1230640Y61832D01*
X1230558Y61805D01*
X1230478Y61775D01*
X1230398Y61741D01*
X1230321Y61704D01*
X1230245Y61663D01*
X1230171Y61619D01*
X1230099Y61571D01*
X1230029Y61521D01*
X1229962Y61467D01*
X1229897Y61410D01*
X1229835Y61351D01*
X1229156Y60672D01*
X1231870Y57958D01*
X1220567Y65190D02*
X1226674Y71297D01*
X1224638Y69261D02*
X1222942Y70958D01*
X1222887Y71009D01*
X1222830Y71058D01*
X1222770Y71104D01*
X1222708Y71147D01*
X1222644Y71186D01*
X1222577Y71222D01*
X1222509Y71255D01*
X1222440Y71283D01*
X1222369Y71309D01*
X1222296Y71330D01*
X1222223Y71348D01*
X1222149Y71361D01*
X1222074Y71371D01*
X1221999Y71377D01*
X1221924Y71379D01*
X1221849Y71377D01*
X1221774Y71371D01*
X1221699Y71361D01*
X1221625Y71348D01*
X1221552Y71330D01*
X1221479Y71309D01*
X1221408Y71283D01*
X1221339Y71255D01*
X1221271Y71222D01*
X1221205Y71186D01*
X1221140Y71147D01*
X1221078Y71104D01*
X1221018Y71058D01*
X1220961Y71009D01*
X1220907Y70958D01*
X1217853Y67904D01*
X1213731Y72027D02*
X1212034Y73723D01*
X1213730Y72027D02*
X1213783Y71977D01*
X1213839Y71930D01*
X1213896Y71885D01*
X1213956Y71843D01*
X1214018Y71805D01*
X1214082Y71770D01*
X1214147Y71737D01*
X1214214Y71709D01*
X1214283Y71683D01*
X1214352Y71662D01*
X1214423Y71643D01*
X1214494Y71629D01*
X1214566Y71618D01*
X1214639Y71610D01*
X1214712Y71606D01*
X1214784Y71606D01*
X1214857Y71610D01*
X1214930Y71618D01*
X1215002Y71629D01*
X1215073Y71643D01*
X1215144Y71662D01*
X1215213Y71683D01*
X1215282Y71709D01*
X1215349Y71737D01*
X1215414Y71770D01*
X1215478Y71805D01*
X1215540Y71843D01*
X1215600Y71885D01*
X1215657Y71930D01*
X1215713Y71977D01*
X1215766Y72027D01*
X1217462Y73723D01*
X1217521Y73785D01*
X1217578Y73850D01*
X1217632Y73917D01*
X1217682Y73987D01*
X1217730Y74059D01*
X1217774Y74133D01*
X1217815Y74209D01*
X1217852Y74286D01*
X1217886Y74366D01*
X1217916Y74446D01*
X1217943Y74528D01*
X1217966Y74611D01*
X1217985Y74695D01*
X1218000Y74780D01*
X1218012Y74865D01*
X1218020Y74951D01*
X1218024Y75037D01*
X1218024Y75123D01*
X1218020Y75209D01*
X1218012Y75295D01*
X1218000Y75380D01*
X1217985Y75465D01*
X1217966Y75549D01*
X1217943Y75632D01*
X1217916Y75714D01*
X1217886Y75794D01*
X1217852Y75874D01*
X1217815Y75951D01*
X1217774Y76027D01*
X1217730Y76101D01*
X1217682Y76173D01*
X1217632Y76243D01*
X1217578Y76310D01*
X1217521Y76375D01*
X1217462Y76437D01*
X1217400Y76496D01*
X1217335Y76553D01*
X1217268Y76607D01*
X1217198Y76657D01*
X1217126Y76705D01*
X1217052Y76749D01*
X1216976Y76790D01*
X1216899Y76827D01*
X1216819Y76861D01*
X1216739Y76891D01*
X1216657Y76918D01*
X1216574Y76941D01*
X1216490Y76960D01*
X1216405Y76975D01*
X1216320Y76987D01*
X1216234Y76995D01*
X1216148Y76999D01*
X1216062Y76999D01*
X1215976Y76995D01*
X1215890Y76987D01*
X1215805Y76975D01*
X1215720Y76960D01*
X1215636Y76941D01*
X1215553Y76918D01*
X1215471Y76891D01*
X1215391Y76861D01*
X1215311Y76827D01*
X1215234Y76790D01*
X1215158Y76749D01*
X1215084Y76705D01*
X1215012Y76657D01*
X1214942Y76607D01*
X1214875Y76553D01*
X1214810Y76496D01*
X1214748Y76437D01*
X1214070Y75759D01*
X1216784Y73045D01*
X1208875Y76883D02*
X1212946Y80954D01*
X1210911Y82989D01*
X1210232Y82311D01*
X1203601Y82157D02*
X1201905Y83853D01*
X1203601Y82157D02*
X1203654Y82107D01*
X1203710Y82060D01*
X1203767Y82015D01*
X1203827Y81973D01*
X1203889Y81935D01*
X1203953Y81900D01*
X1204018Y81867D01*
X1204085Y81839D01*
X1204154Y81813D01*
X1204223Y81792D01*
X1204294Y81773D01*
X1204365Y81759D01*
X1204437Y81748D01*
X1204510Y81740D01*
X1204583Y81736D01*
X1204655Y81736D01*
X1204728Y81740D01*
X1204801Y81748D01*
X1204873Y81759D01*
X1204944Y81773D01*
X1205015Y81792D01*
X1205084Y81813D01*
X1205153Y81839D01*
X1205220Y81867D01*
X1205285Y81900D01*
X1205349Y81935D01*
X1205411Y81973D01*
X1205471Y82015D01*
X1205528Y82060D01*
X1205584Y82107D01*
X1205637Y82157D01*
X1205636Y82157D02*
X1207333Y83853D01*
X1207392Y83915D01*
X1207449Y83980D01*
X1207503Y84047D01*
X1207553Y84117D01*
X1207601Y84189D01*
X1207645Y84263D01*
X1207686Y84339D01*
X1207723Y84416D01*
X1207757Y84496D01*
X1207787Y84576D01*
X1207814Y84658D01*
X1207837Y84741D01*
X1207856Y84825D01*
X1207871Y84910D01*
X1207883Y84995D01*
X1207891Y85081D01*
X1207895Y85167D01*
X1207895Y85253D01*
X1207891Y85339D01*
X1207883Y85425D01*
X1207871Y85510D01*
X1207856Y85595D01*
X1207837Y85679D01*
X1207814Y85762D01*
X1207787Y85844D01*
X1207757Y85924D01*
X1207723Y86004D01*
X1207686Y86081D01*
X1207645Y86157D01*
X1207601Y86231D01*
X1207553Y86303D01*
X1207503Y86373D01*
X1207449Y86440D01*
X1207392Y86505D01*
X1207333Y86567D01*
X1207271Y86626D01*
X1207206Y86683D01*
X1207139Y86737D01*
X1207069Y86787D01*
X1206997Y86835D01*
X1206923Y86879D01*
X1206847Y86920D01*
X1206770Y86957D01*
X1206690Y86991D01*
X1206610Y87021D01*
X1206528Y87048D01*
X1206445Y87071D01*
X1206361Y87090D01*
X1206276Y87105D01*
X1206191Y87117D01*
X1206105Y87125D01*
X1206019Y87129D01*
X1205933Y87129D01*
X1205847Y87125D01*
X1205761Y87117D01*
X1205676Y87105D01*
X1205591Y87090D01*
X1205507Y87071D01*
X1205424Y87048D01*
X1205342Y87021D01*
X1205262Y86991D01*
X1205182Y86957D01*
X1205105Y86920D01*
X1205029Y86879D01*
X1204955Y86835D01*
X1204883Y86787D01*
X1204813Y86737D01*
X1204746Y86683D01*
X1204681Y86626D01*
X1204619Y86567D01*
X1203940Y85889D01*
X1206654Y83175D01*
D12*
X1448575Y62601D02*
X1448575Y51933D01*
X1445611Y51933D01*
X1445529Y51935D01*
X1445447Y51941D01*
X1445365Y51950D01*
X1445284Y51963D01*
X1445204Y51980D01*
X1445124Y52001D01*
X1445046Y52025D01*
X1444969Y52053D01*
X1444893Y52084D01*
X1444818Y52119D01*
X1444746Y52158D01*
X1444675Y52199D01*
X1444606Y52244D01*
X1444540Y52292D01*
X1444475Y52343D01*
X1444413Y52397D01*
X1444354Y52454D01*
X1444297Y52513D01*
X1444243Y52575D01*
X1444192Y52640D01*
X1444144Y52706D01*
X1444099Y52775D01*
X1444058Y52846D01*
X1444019Y52918D01*
X1443984Y52993D01*
X1443953Y53069D01*
X1443925Y53146D01*
X1443901Y53224D01*
X1443880Y53304D01*
X1443863Y53384D01*
X1443850Y53465D01*
X1443841Y53547D01*
X1443835Y53629D01*
X1443833Y53711D01*
X1443833Y57267D01*
X1443835Y57349D01*
X1443841Y57431D01*
X1443850Y57513D01*
X1443863Y57594D01*
X1443880Y57674D01*
X1443901Y57754D01*
X1443925Y57832D01*
X1443953Y57909D01*
X1443984Y57985D01*
X1444019Y58060D01*
X1444058Y58132D01*
X1444099Y58203D01*
X1444144Y58272D01*
X1444192Y58338D01*
X1444243Y58403D01*
X1444297Y58465D01*
X1444354Y58524D01*
X1444413Y58581D01*
X1444475Y58635D01*
X1444540Y58686D01*
X1444606Y58734D01*
X1444675Y58779D01*
X1444746Y58820D01*
X1444818Y58859D01*
X1444893Y58894D01*
X1444969Y58925D01*
X1445046Y58953D01*
X1445124Y58977D01*
X1445204Y58998D01*
X1445284Y59015D01*
X1445365Y59028D01*
X1445447Y59037D01*
X1445529Y59043D01*
X1445611Y59045D01*
X1448575Y59045D01*
X1438757Y56674D02*
X1438757Y54304D01*
X1438757Y56674D02*
X1438755Y56771D01*
X1438749Y56867D01*
X1438739Y56963D01*
X1438725Y57059D01*
X1438708Y57154D01*
X1438686Y57249D01*
X1438661Y57342D01*
X1438632Y57434D01*
X1438599Y57525D01*
X1438562Y57615D01*
X1438522Y57703D01*
X1438478Y57789D01*
X1438431Y57873D01*
X1438381Y57956D01*
X1438327Y58036D01*
X1438269Y58114D01*
X1438209Y58190D01*
X1438146Y58263D01*
X1438080Y58333D01*
X1438010Y58401D01*
X1437939Y58466D01*
X1437864Y58528D01*
X1437787Y58586D01*
X1437708Y58642D01*
X1437627Y58694D01*
X1437543Y58743D01*
X1437458Y58789D01*
X1437371Y58831D01*
X1437282Y58869D01*
X1437192Y58904D01*
X1437100Y58935D01*
X1437007Y58962D01*
X1436914Y58986D01*
X1436819Y59005D01*
X1436723Y59021D01*
X1436627Y59033D01*
X1436531Y59041D01*
X1436434Y59045D01*
X1436338Y59045D01*
X1436241Y59041D01*
X1436145Y59033D01*
X1436049Y59021D01*
X1435953Y59005D01*
X1435858Y58986D01*
X1435765Y58962D01*
X1435672Y58935D01*
X1435580Y58904D01*
X1435490Y58869D01*
X1435401Y58831D01*
X1435314Y58789D01*
X1435229Y58743D01*
X1435145Y58694D01*
X1435064Y58642D01*
X1434985Y58586D01*
X1434908Y58528D01*
X1434833Y58466D01*
X1434762Y58401D01*
X1434692Y58333D01*
X1434626Y58263D01*
X1434563Y58190D01*
X1434503Y58114D01*
X1434445Y58036D01*
X1434391Y57956D01*
X1434341Y57873D01*
X1434294Y57789D01*
X1434250Y57703D01*
X1434210Y57615D01*
X1434173Y57525D01*
X1434140Y57434D01*
X1434111Y57342D01*
X1434086Y57249D01*
X1434064Y57154D01*
X1434047Y57059D01*
X1434033Y56963D01*
X1434023Y56867D01*
X1434017Y56771D01*
X1434015Y56674D01*
X1434016Y56674D02*
X1434016Y54304D01*
X1434015Y54304D02*
X1434017Y54207D01*
X1434023Y54111D01*
X1434033Y54015D01*
X1434047Y53919D01*
X1434064Y53824D01*
X1434086Y53729D01*
X1434111Y53636D01*
X1434140Y53544D01*
X1434173Y53453D01*
X1434210Y53363D01*
X1434250Y53275D01*
X1434294Y53189D01*
X1434341Y53105D01*
X1434391Y53022D01*
X1434445Y52942D01*
X1434503Y52864D01*
X1434563Y52788D01*
X1434626Y52715D01*
X1434692Y52645D01*
X1434762Y52577D01*
X1434833Y52512D01*
X1434908Y52450D01*
X1434985Y52392D01*
X1435064Y52336D01*
X1435145Y52284D01*
X1435229Y52235D01*
X1435314Y52189D01*
X1435401Y52147D01*
X1435490Y52109D01*
X1435580Y52074D01*
X1435672Y52043D01*
X1435765Y52016D01*
X1435858Y51992D01*
X1435953Y51973D01*
X1436049Y51957D01*
X1436145Y51945D01*
X1436241Y51937D01*
X1436338Y51933D01*
X1436434Y51933D01*
X1436531Y51937D01*
X1436627Y51945D01*
X1436723Y51957D01*
X1436819Y51973D01*
X1436914Y51992D01*
X1437007Y52016D01*
X1437100Y52043D01*
X1437192Y52074D01*
X1437282Y52109D01*
X1437371Y52147D01*
X1437458Y52189D01*
X1437543Y52235D01*
X1437627Y52284D01*
X1437708Y52336D01*
X1437787Y52392D01*
X1437864Y52450D01*
X1437939Y52512D01*
X1438010Y52577D01*
X1438080Y52645D01*
X1438146Y52715D01*
X1438209Y52788D01*
X1438269Y52864D01*
X1438327Y52942D01*
X1438381Y53022D01*
X1438431Y53105D01*
X1438478Y53189D01*
X1438522Y53275D01*
X1438562Y53363D01*
X1438599Y53453D01*
X1438632Y53544D01*
X1438661Y53636D01*
X1438686Y53729D01*
X1438708Y53824D01*
X1438725Y53919D01*
X1438739Y54015D01*
X1438749Y54111D01*
X1438755Y54207D01*
X1438757Y54304D01*
X1428370Y51933D02*
X1428370Y59045D01*
X1424814Y59045D01*
X1424814Y57860D01*
X1421920Y59045D02*
X1418364Y59045D01*
X1420735Y62601D02*
X1420735Y53711D01*
X1420733Y53629D01*
X1420727Y53547D01*
X1420718Y53465D01*
X1420705Y53384D01*
X1420688Y53304D01*
X1420667Y53224D01*
X1420643Y53146D01*
X1420615Y53069D01*
X1420584Y52993D01*
X1420549Y52918D01*
X1420510Y52846D01*
X1420469Y52775D01*
X1420424Y52706D01*
X1420376Y52640D01*
X1420325Y52575D01*
X1420271Y52513D01*
X1420214Y52454D01*
X1420155Y52397D01*
X1420093Y52343D01*
X1420028Y52292D01*
X1419962Y52244D01*
X1419893Y52199D01*
X1419822Y52158D01*
X1419750Y52119D01*
X1419675Y52084D01*
X1419599Y52053D01*
X1419522Y52025D01*
X1419444Y52001D01*
X1419364Y51980D01*
X1419284Y51963D01*
X1419203Y51950D01*
X1419121Y51941D01*
X1419039Y51935D01*
X1418957Y51933D01*
X1418364Y51933D01*
X1413908Y51933D02*
X1413908Y59045D01*
X1414204Y62008D02*
X1414204Y62601D01*
X1413611Y62601D01*
X1413611Y62008D01*
X1414204Y62008D01*
X1406499Y62601D02*
X1408870Y54304D01*
X1402943Y54304D01*
X1404721Y56674D02*
X1404721Y51933D01*
X1395069Y56674D02*
X1391513Y56674D01*
X1395069Y56674D02*
X1395164Y56676D01*
X1395260Y56682D01*
X1395355Y56691D01*
X1395449Y56705D01*
X1395543Y56722D01*
X1395636Y56743D01*
X1395729Y56768D01*
X1395820Y56796D01*
X1395910Y56828D01*
X1395998Y56864D01*
X1396085Y56903D01*
X1396171Y56946D01*
X1396255Y56992D01*
X1396336Y57041D01*
X1396416Y57094D01*
X1396493Y57150D01*
X1396569Y57208D01*
X1396641Y57270D01*
X1396711Y57335D01*
X1396779Y57403D01*
X1396844Y57473D01*
X1396906Y57545D01*
X1396964Y57621D01*
X1397020Y57698D01*
X1397073Y57778D01*
X1397122Y57860D01*
X1397168Y57943D01*
X1397211Y58029D01*
X1397250Y58116D01*
X1397286Y58204D01*
X1397318Y58294D01*
X1397346Y58385D01*
X1397371Y58478D01*
X1397392Y58571D01*
X1397409Y58665D01*
X1397423Y58759D01*
X1397432Y58854D01*
X1397438Y58950D01*
X1397440Y59045D01*
X1397440Y59638D01*
X1397438Y59745D01*
X1397432Y59852D01*
X1397423Y59958D01*
X1397409Y60064D01*
X1397392Y60170D01*
X1397371Y60275D01*
X1397346Y60379D01*
X1397317Y60482D01*
X1397285Y60584D01*
X1397249Y60685D01*
X1397209Y60784D01*
X1397166Y60882D01*
X1397119Y60978D01*
X1397069Y61073D01*
X1397016Y61166D01*
X1396959Y61256D01*
X1396899Y61345D01*
X1396836Y61431D01*
X1396770Y61515D01*
X1396700Y61597D01*
X1396628Y61676D01*
X1396553Y61752D01*
X1396475Y61826D01*
X1396395Y61896D01*
X1396312Y61964D01*
X1396227Y62029D01*
X1396140Y62090D01*
X1396050Y62149D01*
X1395959Y62204D01*
X1395865Y62256D01*
X1395769Y62304D01*
X1395672Y62349D01*
X1395574Y62391D01*
X1395474Y62428D01*
X1395372Y62463D01*
X1395270Y62493D01*
X1395166Y62520D01*
X1395062Y62543D01*
X1394956Y62562D01*
X1394850Y62577D01*
X1394744Y62589D01*
X1394637Y62597D01*
X1394530Y62601D01*
X1394424Y62601D01*
X1394317Y62597D01*
X1394210Y62589D01*
X1394104Y62577D01*
X1393998Y62562D01*
X1393892Y62543D01*
X1393788Y62520D01*
X1393684Y62493D01*
X1393582Y62463D01*
X1393480Y62428D01*
X1393380Y62391D01*
X1393282Y62349D01*
X1393185Y62304D01*
X1393089Y62256D01*
X1392996Y62204D01*
X1392904Y62149D01*
X1392814Y62090D01*
X1392727Y62029D01*
X1392642Y61964D01*
X1392559Y61896D01*
X1392479Y61826D01*
X1392401Y61752D01*
X1392326Y61676D01*
X1392254Y61597D01*
X1392184Y61515D01*
X1392118Y61431D01*
X1392055Y61345D01*
X1391995Y61256D01*
X1391938Y61166D01*
X1391885Y61073D01*
X1391835Y60978D01*
X1391788Y60882D01*
X1391745Y60784D01*
X1391705Y60685D01*
X1391669Y60584D01*
X1391637Y60482D01*
X1391608Y60379D01*
X1391583Y60275D01*
X1391562Y60170D01*
X1391545Y60064D01*
X1391531Y59958D01*
X1391522Y59852D01*
X1391516Y59745D01*
X1391514Y59638D01*
X1391513Y59638D02*
X1391513Y56674D01*
X1391514Y56674D02*
X1391516Y56539D01*
X1391522Y56403D01*
X1391531Y56268D01*
X1391545Y56134D01*
X1391562Y55999D01*
X1391583Y55866D01*
X1391608Y55732D01*
X1391637Y55600D01*
X1391670Y55469D01*
X1391706Y55338D01*
X1391746Y55209D01*
X1391790Y55081D01*
X1391837Y54954D01*
X1391888Y54828D01*
X1391942Y54705D01*
X1392000Y54582D01*
X1392062Y54462D01*
X1392127Y54343D01*
X1392195Y54226D01*
X1392267Y54111D01*
X1392341Y53998D01*
X1392419Y53887D01*
X1392501Y53779D01*
X1392585Y53673D01*
X1392672Y53569D01*
X1392762Y53468D01*
X1392855Y53370D01*
X1392951Y53274D01*
X1393049Y53181D01*
X1393150Y53091D01*
X1393254Y53004D01*
X1393360Y52920D01*
X1393468Y52838D01*
X1393579Y52760D01*
X1393692Y52686D01*
X1393807Y52614D01*
X1393924Y52546D01*
X1394043Y52481D01*
X1394163Y52419D01*
X1394286Y52361D01*
X1394409Y52307D01*
X1394535Y52256D01*
X1394662Y52209D01*
X1394790Y52165D01*
X1394919Y52125D01*
X1395050Y52089D01*
X1395181Y52056D01*
X1395314Y52027D01*
X1395447Y52002D01*
X1395580Y51981D01*
X1395715Y51964D01*
X1395849Y51950D01*
X1395984Y51941D01*
X1396120Y51935D01*
X1396255Y51933D01*
X1386010Y51933D02*
X1383047Y51933D01*
X1382940Y51935D01*
X1382833Y51941D01*
X1382727Y51950D01*
X1382621Y51964D01*
X1382515Y51981D01*
X1382410Y52002D01*
X1382306Y52027D01*
X1382203Y52056D01*
X1382101Y52088D01*
X1382000Y52124D01*
X1381901Y52164D01*
X1381803Y52207D01*
X1381707Y52254D01*
X1381612Y52304D01*
X1381519Y52357D01*
X1381429Y52414D01*
X1381340Y52474D01*
X1381254Y52537D01*
X1381170Y52603D01*
X1381088Y52673D01*
X1381009Y52745D01*
X1380933Y52820D01*
X1380859Y52898D01*
X1380789Y52978D01*
X1380721Y53061D01*
X1380656Y53146D01*
X1380595Y53233D01*
X1380536Y53323D01*
X1380481Y53415D01*
X1380429Y53508D01*
X1380381Y53604D01*
X1380336Y53701D01*
X1380294Y53799D01*
X1380257Y53899D01*
X1380222Y54001D01*
X1380192Y54103D01*
X1380165Y54207D01*
X1380142Y54311D01*
X1380123Y54417D01*
X1380108Y54523D01*
X1380096Y54629D01*
X1380088Y54736D01*
X1380084Y54843D01*
X1380084Y54949D01*
X1380088Y55056D01*
X1380096Y55163D01*
X1380108Y55269D01*
X1380123Y55375D01*
X1380142Y55481D01*
X1380165Y55585D01*
X1380192Y55689D01*
X1380222Y55791D01*
X1380257Y55893D01*
X1380294Y55993D01*
X1380336Y56091D01*
X1380381Y56188D01*
X1380429Y56284D01*
X1380481Y56378D01*
X1380536Y56469D01*
X1380595Y56559D01*
X1380656Y56646D01*
X1380721Y56731D01*
X1380789Y56814D01*
X1380859Y56894D01*
X1380933Y56972D01*
X1381009Y57047D01*
X1381088Y57119D01*
X1381170Y57189D01*
X1381254Y57255D01*
X1381340Y57318D01*
X1381429Y57378D01*
X1381519Y57435D01*
X1381612Y57488D01*
X1381707Y57538D01*
X1381803Y57585D01*
X1381901Y57628D01*
X1382000Y57668D01*
X1382101Y57704D01*
X1382203Y57736D01*
X1382306Y57765D01*
X1382410Y57790D01*
X1382515Y57811D01*
X1382621Y57828D01*
X1382727Y57842D01*
X1382833Y57851D01*
X1382940Y57857D01*
X1383047Y57859D01*
X1382454Y62601D02*
X1386010Y62601D01*
X1382454Y62601D02*
X1382357Y62599D01*
X1382261Y62593D01*
X1382165Y62583D01*
X1382069Y62569D01*
X1381974Y62552D01*
X1381879Y62530D01*
X1381786Y62505D01*
X1381694Y62476D01*
X1381603Y62443D01*
X1381513Y62406D01*
X1381425Y62366D01*
X1381339Y62322D01*
X1381255Y62275D01*
X1381172Y62225D01*
X1381092Y62171D01*
X1381014Y62113D01*
X1380938Y62053D01*
X1380865Y61990D01*
X1380795Y61924D01*
X1380727Y61854D01*
X1380662Y61783D01*
X1380600Y61708D01*
X1380542Y61631D01*
X1380486Y61552D01*
X1380434Y61471D01*
X1380385Y61387D01*
X1380339Y61302D01*
X1380297Y61215D01*
X1380259Y61126D01*
X1380224Y61036D01*
X1380193Y60944D01*
X1380166Y60851D01*
X1380142Y60758D01*
X1380123Y60663D01*
X1380107Y60567D01*
X1380095Y60471D01*
X1380087Y60375D01*
X1380083Y60278D01*
X1380083Y60182D01*
X1380087Y60085D01*
X1380095Y59989D01*
X1380107Y59893D01*
X1380123Y59797D01*
X1380142Y59702D01*
X1380166Y59609D01*
X1380193Y59516D01*
X1380224Y59424D01*
X1380259Y59334D01*
X1380297Y59245D01*
X1380339Y59158D01*
X1380385Y59073D01*
X1380434Y58989D01*
X1380486Y58908D01*
X1380542Y58829D01*
X1380600Y58752D01*
X1380662Y58677D01*
X1380727Y58606D01*
X1380795Y58536D01*
X1380865Y58470D01*
X1380938Y58407D01*
X1381014Y58347D01*
X1381092Y58289D01*
X1381172Y58235D01*
X1381255Y58185D01*
X1381339Y58138D01*
X1381425Y58094D01*
X1381513Y58054D01*
X1381603Y58017D01*
X1381694Y57984D01*
X1381786Y57955D01*
X1381879Y57930D01*
X1381974Y57908D01*
X1382069Y57891D01*
X1382165Y57877D01*
X1382261Y57867D01*
X1382357Y57861D01*
X1382454Y57859D01*
X1382454Y57860D02*
X1384825Y57860D01*
X1374580Y54896D02*
X1374578Y55003D01*
X1374572Y55110D01*
X1374563Y55216D01*
X1374549Y55322D01*
X1374532Y55428D01*
X1374511Y55533D01*
X1374486Y55637D01*
X1374457Y55740D01*
X1374425Y55842D01*
X1374389Y55943D01*
X1374349Y56042D01*
X1374306Y56140D01*
X1374259Y56236D01*
X1374209Y56331D01*
X1374156Y56424D01*
X1374099Y56514D01*
X1374039Y56603D01*
X1373976Y56689D01*
X1373910Y56773D01*
X1373840Y56855D01*
X1373768Y56934D01*
X1373693Y57010D01*
X1373615Y57084D01*
X1373535Y57154D01*
X1373452Y57222D01*
X1373367Y57287D01*
X1373280Y57348D01*
X1373190Y57407D01*
X1373099Y57462D01*
X1373005Y57514D01*
X1372909Y57562D01*
X1372812Y57607D01*
X1372714Y57649D01*
X1372614Y57686D01*
X1372512Y57721D01*
X1372410Y57751D01*
X1372306Y57778D01*
X1372202Y57801D01*
X1372096Y57820D01*
X1371990Y57835D01*
X1371884Y57847D01*
X1371777Y57855D01*
X1371670Y57859D01*
X1371564Y57859D01*
X1371457Y57855D01*
X1371350Y57847D01*
X1371244Y57835D01*
X1371138Y57820D01*
X1371032Y57801D01*
X1370928Y57778D01*
X1370824Y57751D01*
X1370722Y57721D01*
X1370620Y57686D01*
X1370520Y57649D01*
X1370422Y57607D01*
X1370325Y57562D01*
X1370229Y57514D01*
X1370136Y57462D01*
X1370044Y57407D01*
X1369954Y57348D01*
X1369867Y57287D01*
X1369782Y57222D01*
X1369699Y57154D01*
X1369619Y57084D01*
X1369541Y57010D01*
X1369466Y56934D01*
X1369394Y56855D01*
X1369324Y56773D01*
X1369258Y56689D01*
X1369195Y56603D01*
X1369135Y56514D01*
X1369078Y56424D01*
X1369025Y56331D01*
X1368975Y56236D01*
X1368928Y56140D01*
X1368885Y56042D01*
X1368845Y55943D01*
X1368809Y55842D01*
X1368777Y55740D01*
X1368748Y55637D01*
X1368723Y55533D01*
X1368702Y55428D01*
X1368685Y55322D01*
X1368671Y55216D01*
X1368662Y55110D01*
X1368656Y55003D01*
X1368654Y54896D01*
X1368656Y54789D01*
X1368662Y54682D01*
X1368671Y54576D01*
X1368685Y54470D01*
X1368702Y54364D01*
X1368723Y54259D01*
X1368748Y54155D01*
X1368777Y54052D01*
X1368809Y53950D01*
X1368845Y53849D01*
X1368885Y53750D01*
X1368928Y53652D01*
X1368975Y53556D01*
X1369025Y53461D01*
X1369078Y53368D01*
X1369135Y53278D01*
X1369195Y53189D01*
X1369258Y53103D01*
X1369324Y53019D01*
X1369394Y52937D01*
X1369466Y52858D01*
X1369541Y52782D01*
X1369619Y52708D01*
X1369699Y52638D01*
X1369782Y52570D01*
X1369867Y52505D01*
X1369954Y52444D01*
X1370044Y52385D01*
X1370136Y52330D01*
X1370229Y52278D01*
X1370325Y52230D01*
X1370422Y52185D01*
X1370520Y52143D01*
X1370620Y52106D01*
X1370722Y52071D01*
X1370824Y52041D01*
X1370928Y52014D01*
X1371032Y51991D01*
X1371138Y51972D01*
X1371244Y51957D01*
X1371350Y51945D01*
X1371457Y51937D01*
X1371564Y51933D01*
X1371670Y51933D01*
X1371777Y51937D01*
X1371884Y51945D01*
X1371990Y51957D01*
X1372096Y51972D01*
X1372202Y51991D01*
X1372306Y52014D01*
X1372410Y52041D01*
X1372512Y52071D01*
X1372614Y52106D01*
X1372714Y52143D01*
X1372812Y52185D01*
X1372909Y52230D01*
X1373005Y52278D01*
X1373099Y52330D01*
X1373190Y52385D01*
X1373280Y52444D01*
X1373367Y52505D01*
X1373452Y52570D01*
X1373535Y52638D01*
X1373615Y52708D01*
X1373693Y52782D01*
X1373768Y52858D01*
X1373840Y52937D01*
X1373910Y53019D01*
X1373976Y53103D01*
X1374039Y53189D01*
X1374099Y53278D01*
X1374156Y53368D01*
X1374209Y53461D01*
X1374259Y53556D01*
X1374306Y53652D01*
X1374349Y53750D01*
X1374389Y53849D01*
X1374425Y53950D01*
X1374457Y54052D01*
X1374486Y54155D01*
X1374511Y54259D01*
X1374532Y54364D01*
X1374549Y54470D01*
X1374563Y54576D01*
X1374572Y54682D01*
X1374578Y54789D01*
X1374580Y54896D01*
X1373988Y60230D02*
X1373986Y60327D01*
X1373980Y60423D01*
X1373970Y60519D01*
X1373956Y60615D01*
X1373939Y60710D01*
X1373917Y60805D01*
X1373892Y60898D01*
X1373863Y60990D01*
X1373830Y61081D01*
X1373793Y61171D01*
X1373753Y61259D01*
X1373709Y61345D01*
X1373662Y61429D01*
X1373612Y61512D01*
X1373558Y61592D01*
X1373500Y61670D01*
X1373440Y61746D01*
X1373377Y61819D01*
X1373311Y61889D01*
X1373241Y61957D01*
X1373170Y62022D01*
X1373095Y62084D01*
X1373018Y62142D01*
X1372939Y62198D01*
X1372858Y62250D01*
X1372774Y62299D01*
X1372689Y62345D01*
X1372602Y62387D01*
X1372513Y62425D01*
X1372423Y62460D01*
X1372331Y62491D01*
X1372238Y62518D01*
X1372145Y62542D01*
X1372050Y62561D01*
X1371954Y62577D01*
X1371858Y62589D01*
X1371762Y62597D01*
X1371665Y62601D01*
X1371569Y62601D01*
X1371472Y62597D01*
X1371376Y62589D01*
X1371280Y62577D01*
X1371184Y62561D01*
X1371089Y62542D01*
X1370996Y62518D01*
X1370903Y62491D01*
X1370811Y62460D01*
X1370721Y62425D01*
X1370632Y62387D01*
X1370545Y62345D01*
X1370460Y62299D01*
X1370376Y62250D01*
X1370295Y62198D01*
X1370216Y62142D01*
X1370139Y62084D01*
X1370064Y62022D01*
X1369993Y61957D01*
X1369923Y61889D01*
X1369857Y61819D01*
X1369794Y61746D01*
X1369734Y61670D01*
X1369676Y61592D01*
X1369622Y61512D01*
X1369572Y61429D01*
X1369525Y61345D01*
X1369481Y61259D01*
X1369441Y61171D01*
X1369404Y61081D01*
X1369371Y60990D01*
X1369342Y60898D01*
X1369317Y60805D01*
X1369295Y60710D01*
X1369278Y60615D01*
X1369264Y60519D01*
X1369254Y60423D01*
X1369248Y60327D01*
X1369246Y60230D01*
X1369248Y60133D01*
X1369254Y60037D01*
X1369264Y59941D01*
X1369278Y59845D01*
X1369295Y59750D01*
X1369317Y59655D01*
X1369342Y59562D01*
X1369371Y59470D01*
X1369404Y59379D01*
X1369441Y59289D01*
X1369481Y59201D01*
X1369525Y59115D01*
X1369572Y59031D01*
X1369622Y58948D01*
X1369676Y58868D01*
X1369734Y58790D01*
X1369794Y58714D01*
X1369857Y58641D01*
X1369923Y58571D01*
X1369993Y58503D01*
X1370064Y58438D01*
X1370139Y58376D01*
X1370216Y58318D01*
X1370295Y58262D01*
X1370376Y58210D01*
X1370460Y58161D01*
X1370545Y58115D01*
X1370632Y58073D01*
X1370721Y58035D01*
X1370811Y58000D01*
X1370903Y57969D01*
X1370996Y57942D01*
X1371089Y57918D01*
X1371184Y57899D01*
X1371280Y57883D01*
X1371376Y57871D01*
X1371472Y57863D01*
X1371569Y57859D01*
X1371665Y57859D01*
X1371762Y57863D01*
X1371858Y57871D01*
X1371954Y57883D01*
X1372050Y57899D01*
X1372145Y57918D01*
X1372238Y57942D01*
X1372331Y57969D01*
X1372423Y58000D01*
X1372513Y58035D01*
X1372602Y58073D01*
X1372689Y58115D01*
X1372774Y58161D01*
X1372858Y58210D01*
X1372939Y58262D01*
X1373018Y58318D01*
X1373095Y58376D01*
X1373170Y58438D01*
X1373241Y58503D01*
X1373311Y58571D01*
X1373377Y58641D01*
X1373440Y58714D01*
X1373500Y58790D01*
X1373558Y58868D01*
X1373612Y58948D01*
X1373662Y59031D01*
X1373709Y59115D01*
X1373753Y59201D01*
X1373793Y59289D01*
X1373830Y59379D01*
X1373863Y59470D01*
X1373892Y59562D01*
X1373917Y59655D01*
X1373939Y59750D01*
X1373956Y59845D01*
X1373970Y59941D01*
X1373980Y60037D01*
X1373986Y60133D01*
X1373988Y60230D01*
X1440914Y31698D02*
X1445656Y31698D01*
X1436512Y31698D02*
X1431770Y31698D01*
X1427368Y31698D02*
X1422626Y44736D01*
X1415855Y38217D02*
X1415858Y37973D01*
X1415867Y37729D01*
X1415881Y37485D01*
X1415902Y37242D01*
X1415928Y36999D01*
X1415961Y36757D01*
X1415999Y36516D01*
X1416042Y36276D01*
X1416092Y36037D01*
X1416147Y35799D01*
X1416208Y35563D01*
X1416275Y35328D01*
X1416347Y35095D01*
X1416425Y34864D01*
X1416508Y34634D01*
X1416597Y34407D01*
X1416692Y34182D01*
X1416791Y33959D01*
X1416897Y33739D01*
X1417007Y33521D01*
X1417122Y33306D01*
X1417243Y33094D01*
X1417369Y32884D01*
X1417500Y32678D01*
X1417635Y32475D01*
X1417776Y32276D01*
X1417921Y32080D01*
X1418071Y31887D01*
X1418226Y31698D01*
X1415855Y38217D02*
X1415858Y38461D01*
X1415867Y38705D01*
X1415881Y38949D01*
X1415902Y39192D01*
X1415928Y39435D01*
X1415961Y39677D01*
X1415999Y39918D01*
X1416042Y40158D01*
X1416092Y40397D01*
X1416147Y40635D01*
X1416208Y40871D01*
X1416275Y41106D01*
X1416347Y41339D01*
X1416425Y41570D01*
X1416508Y41800D01*
X1416597Y42027D01*
X1416692Y42252D01*
X1416791Y42475D01*
X1416897Y42695D01*
X1417007Y42913D01*
X1417122Y43128D01*
X1417243Y43340D01*
X1417369Y43550D01*
X1417500Y43756D01*
X1417635Y43959D01*
X1417776Y44158D01*
X1417921Y44354D01*
X1418071Y44547D01*
X1418226Y44736D01*
X1410985Y31698D02*
X1406243Y31698D01*
X1401841Y31698D02*
X1397099Y31698D01*
X1392697Y31698D02*
X1387955Y44736D01*
X1381184Y38217D02*
X1381187Y37973D01*
X1381196Y37729D01*
X1381210Y37485D01*
X1381231Y37242D01*
X1381257Y36999D01*
X1381290Y36757D01*
X1381328Y36516D01*
X1381371Y36276D01*
X1381421Y36037D01*
X1381476Y35799D01*
X1381537Y35563D01*
X1381604Y35328D01*
X1381676Y35095D01*
X1381754Y34864D01*
X1381837Y34634D01*
X1381926Y34407D01*
X1382021Y34182D01*
X1382120Y33959D01*
X1382226Y33739D01*
X1382336Y33521D01*
X1382451Y33306D01*
X1382572Y33094D01*
X1382698Y32884D01*
X1382829Y32678D01*
X1382964Y32475D01*
X1383105Y32276D01*
X1383250Y32080D01*
X1383400Y31887D01*
X1383555Y31698D01*
X1381184Y38217D02*
X1381187Y38461D01*
X1381196Y38705D01*
X1381210Y38949D01*
X1381231Y39192D01*
X1381257Y39435D01*
X1381290Y39677D01*
X1381328Y39918D01*
X1381371Y40158D01*
X1381421Y40397D01*
X1381476Y40635D01*
X1381537Y40871D01*
X1381604Y41106D01*
X1381676Y41339D01*
X1381754Y41570D01*
X1381837Y41800D01*
X1381926Y42027D01*
X1382021Y42252D01*
X1382120Y42475D01*
X1382226Y42695D01*
X1382336Y42913D01*
X1382451Y43128D01*
X1382572Y43340D01*
X1382698Y43550D01*
X1382829Y43756D01*
X1382964Y43959D01*
X1383105Y44158D01*
X1383250Y44354D01*
X1383400Y44547D01*
X1383555Y44736D01*
X1376314Y31698D02*
X1371572Y31698D01*
X1446193Y5451D02*
X1446193Y-5217D01*
X1446193Y5451D02*
X1443230Y5451D01*
X1443123Y5449D01*
X1443016Y5443D01*
X1442910Y5434D01*
X1442804Y5420D01*
X1442698Y5403D01*
X1442593Y5382D01*
X1442489Y5357D01*
X1442386Y5328D01*
X1442284Y5296D01*
X1442183Y5260D01*
X1442084Y5220D01*
X1441986Y5177D01*
X1441890Y5130D01*
X1441795Y5080D01*
X1441702Y5027D01*
X1441612Y4970D01*
X1441523Y4910D01*
X1441437Y4847D01*
X1441353Y4781D01*
X1441271Y4711D01*
X1441192Y4639D01*
X1441116Y4564D01*
X1441042Y4486D01*
X1440972Y4406D01*
X1440904Y4323D01*
X1440839Y4238D01*
X1440778Y4151D01*
X1440719Y4061D01*
X1440664Y3970D01*
X1440612Y3876D01*
X1440564Y3780D01*
X1440519Y3683D01*
X1440477Y3585D01*
X1440440Y3485D01*
X1440405Y3383D01*
X1440375Y3281D01*
X1440348Y3177D01*
X1440325Y3073D01*
X1440306Y2967D01*
X1440291Y2861D01*
X1440279Y2755D01*
X1440271Y2648D01*
X1440267Y2541D01*
X1440267Y2435D01*
X1440271Y2328D01*
X1440279Y2221D01*
X1440291Y2115D01*
X1440306Y2009D01*
X1440325Y1903D01*
X1440348Y1799D01*
X1440375Y1695D01*
X1440405Y1593D01*
X1440440Y1491D01*
X1440477Y1391D01*
X1440519Y1293D01*
X1440564Y1196D01*
X1440612Y1100D01*
X1440664Y1007D01*
X1440719Y915D01*
X1440778Y825D01*
X1440839Y738D01*
X1440904Y653D01*
X1440972Y570D01*
X1441042Y490D01*
X1441116Y412D01*
X1441192Y337D01*
X1441271Y265D01*
X1441353Y195D01*
X1441437Y129D01*
X1441523Y66D01*
X1441612Y6D01*
X1441702Y-51D01*
X1441795Y-104D01*
X1441890Y-154D01*
X1441986Y-201D01*
X1442084Y-244D01*
X1442183Y-284D01*
X1442284Y-320D01*
X1442386Y-352D01*
X1442489Y-381D01*
X1442593Y-406D01*
X1442698Y-427D01*
X1442804Y-444D01*
X1442910Y-458D01*
X1443016Y-467D01*
X1443123Y-473D01*
X1443230Y-475D01*
X1443230Y-476D02*
X1446193Y-476D01*
X1442637Y-476D02*
X1440266Y-5217D01*
X1432553Y-5217D02*
X1430182Y-5217D01*
X1432553Y-5217D02*
X1432648Y-5215D01*
X1432744Y-5209D01*
X1432839Y-5200D01*
X1432933Y-5186D01*
X1433027Y-5169D01*
X1433120Y-5148D01*
X1433213Y-5123D01*
X1433304Y-5095D01*
X1433394Y-5063D01*
X1433482Y-5027D01*
X1433569Y-4988D01*
X1433655Y-4945D01*
X1433739Y-4899D01*
X1433820Y-4850D01*
X1433900Y-4797D01*
X1433977Y-4741D01*
X1434053Y-4683D01*
X1434125Y-4621D01*
X1434195Y-4556D01*
X1434263Y-4488D01*
X1434328Y-4418D01*
X1434390Y-4346D01*
X1434448Y-4270D01*
X1434504Y-4193D01*
X1434557Y-4113D01*
X1434606Y-4032D01*
X1434652Y-3948D01*
X1434695Y-3862D01*
X1434734Y-3775D01*
X1434770Y-3687D01*
X1434802Y-3597D01*
X1434830Y-3506D01*
X1434855Y-3413D01*
X1434876Y-3320D01*
X1434893Y-3226D01*
X1434907Y-3132D01*
X1434916Y-3037D01*
X1434922Y-2941D01*
X1434924Y-2846D01*
X1434923Y-2846D02*
X1434923Y3080D01*
X1434924Y3080D02*
X1434922Y3175D01*
X1434916Y3271D01*
X1434907Y3366D01*
X1434893Y3460D01*
X1434876Y3554D01*
X1434855Y3647D01*
X1434830Y3740D01*
X1434802Y3831D01*
X1434770Y3921D01*
X1434734Y4009D01*
X1434695Y4096D01*
X1434652Y4182D01*
X1434606Y4265D01*
X1434557Y4347D01*
X1434504Y4427D01*
X1434448Y4504D01*
X1434390Y4580D01*
X1434328Y4652D01*
X1434263Y4722D01*
X1434195Y4790D01*
X1434125Y4855D01*
X1434053Y4917D01*
X1433977Y4975D01*
X1433900Y5031D01*
X1433820Y5084D01*
X1433739Y5133D01*
X1433655Y5179D01*
X1433569Y5222D01*
X1433482Y5261D01*
X1433394Y5297D01*
X1433304Y5329D01*
X1433213Y5357D01*
X1433120Y5382D01*
X1433027Y5403D01*
X1432933Y5420D01*
X1432839Y5434D01*
X1432744Y5443D01*
X1432649Y5449D01*
X1432553Y5451D01*
X1430182Y5451D01*
X1424714Y5451D02*
X1424714Y-5217D01*
X1424714Y5451D02*
X1421750Y5451D01*
X1421643Y5449D01*
X1421536Y5443D01*
X1421430Y5434D01*
X1421324Y5420D01*
X1421218Y5403D01*
X1421113Y5382D01*
X1421009Y5357D01*
X1420906Y5328D01*
X1420804Y5296D01*
X1420703Y5260D01*
X1420604Y5220D01*
X1420506Y5177D01*
X1420410Y5130D01*
X1420315Y5080D01*
X1420222Y5027D01*
X1420132Y4970D01*
X1420043Y4910D01*
X1419957Y4847D01*
X1419873Y4781D01*
X1419791Y4711D01*
X1419712Y4639D01*
X1419636Y4564D01*
X1419562Y4486D01*
X1419492Y4406D01*
X1419424Y4323D01*
X1419359Y4238D01*
X1419298Y4151D01*
X1419239Y4061D01*
X1419184Y3970D01*
X1419132Y3876D01*
X1419084Y3780D01*
X1419039Y3683D01*
X1418997Y3585D01*
X1418960Y3485D01*
X1418925Y3383D01*
X1418895Y3281D01*
X1418868Y3177D01*
X1418845Y3073D01*
X1418826Y2967D01*
X1418811Y2861D01*
X1418799Y2755D01*
X1418791Y2648D01*
X1418787Y2541D01*
X1418787Y2435D01*
X1418791Y2328D01*
X1418799Y2221D01*
X1418811Y2115D01*
X1418826Y2009D01*
X1418845Y1903D01*
X1418868Y1799D01*
X1418895Y1695D01*
X1418925Y1593D01*
X1418960Y1491D01*
X1418997Y1391D01*
X1419039Y1293D01*
X1419084Y1196D01*
X1419132Y1100D01*
X1419184Y1007D01*
X1419239Y915D01*
X1419298Y825D01*
X1419359Y738D01*
X1419424Y653D01*
X1419492Y570D01*
X1419562Y490D01*
X1419636Y412D01*
X1419712Y337D01*
X1419791Y265D01*
X1419873Y195D01*
X1419957Y129D01*
X1420043Y66D01*
X1420132Y6D01*
X1420222Y-51D01*
X1420315Y-104D01*
X1420410Y-154D01*
X1420506Y-201D01*
X1420604Y-244D01*
X1420703Y-284D01*
X1420804Y-320D01*
X1420906Y-352D01*
X1421009Y-381D01*
X1421113Y-406D01*
X1421218Y-427D01*
X1421324Y-444D01*
X1421430Y-458D01*
X1421536Y-467D01*
X1421643Y-473D01*
X1421750Y-475D01*
X1421750Y-476D02*
X1424714Y-476D01*
X1413749Y-1068D02*
X1406637Y-1068D01*
X1400584Y-5217D02*
X1400584Y5451D01*
X1394657Y-5217D01*
X1394657Y5451D01*
X1388392Y5451D02*
X1388392Y-2254D01*
X1388391Y-2254D02*
X1388389Y-2361D01*
X1388383Y-2468D01*
X1388374Y-2574D01*
X1388360Y-2680D01*
X1388343Y-2786D01*
X1388322Y-2891D01*
X1388297Y-2995D01*
X1388268Y-3098D01*
X1388236Y-3200D01*
X1388200Y-3301D01*
X1388160Y-3400D01*
X1388117Y-3498D01*
X1388070Y-3594D01*
X1388020Y-3689D01*
X1387967Y-3782D01*
X1387910Y-3872D01*
X1387850Y-3961D01*
X1387787Y-4047D01*
X1387721Y-4131D01*
X1387651Y-4213D01*
X1387579Y-4292D01*
X1387504Y-4368D01*
X1387426Y-4442D01*
X1387346Y-4512D01*
X1387263Y-4580D01*
X1387178Y-4645D01*
X1387091Y-4706D01*
X1387001Y-4765D01*
X1386910Y-4820D01*
X1386816Y-4872D01*
X1386720Y-4920D01*
X1386623Y-4965D01*
X1386525Y-5007D01*
X1386425Y-5044D01*
X1386323Y-5079D01*
X1386221Y-5109D01*
X1386117Y-5136D01*
X1386013Y-5159D01*
X1385907Y-5178D01*
X1385801Y-5193D01*
X1385695Y-5205D01*
X1385588Y-5213D01*
X1385481Y-5217D01*
X1385375Y-5217D01*
X1385268Y-5213D01*
X1385161Y-5205D01*
X1385055Y-5193D01*
X1384949Y-5178D01*
X1384843Y-5159D01*
X1384739Y-5136D01*
X1384635Y-5109D01*
X1384533Y-5079D01*
X1384431Y-5044D01*
X1384331Y-5007D01*
X1384233Y-4965D01*
X1384136Y-4920D01*
X1384040Y-4872D01*
X1383947Y-4820D01*
X1383855Y-4765D01*
X1383765Y-4706D01*
X1383678Y-4645D01*
X1383593Y-4580D01*
X1383510Y-4512D01*
X1383430Y-4442D01*
X1383352Y-4368D01*
X1383277Y-4292D01*
X1383205Y-4213D01*
X1383135Y-4131D01*
X1383069Y-4047D01*
X1383006Y-3961D01*
X1382946Y-3872D01*
X1382889Y-3782D01*
X1382836Y-3689D01*
X1382786Y-3594D01*
X1382739Y-3498D01*
X1382696Y-3400D01*
X1382656Y-3301D01*
X1382620Y-3200D01*
X1382588Y-3098D01*
X1382559Y-2995D01*
X1382534Y-2891D01*
X1382513Y-2786D01*
X1382496Y-2680D01*
X1382482Y-2574D01*
X1382473Y-2468D01*
X1382467Y-2361D01*
X1382465Y-2254D01*
X1382465Y5451D01*
X1373406Y-5217D02*
X1373311Y-5215D01*
X1373215Y-5209D01*
X1373120Y-5200D01*
X1373026Y-5186D01*
X1372932Y-5169D01*
X1372839Y-5148D01*
X1372746Y-5123D01*
X1372655Y-5095D01*
X1372565Y-5063D01*
X1372477Y-5027D01*
X1372390Y-4988D01*
X1372304Y-4945D01*
X1372221Y-4899D01*
X1372139Y-4850D01*
X1372059Y-4797D01*
X1371982Y-4741D01*
X1371906Y-4683D01*
X1371834Y-4621D01*
X1371764Y-4556D01*
X1371696Y-4488D01*
X1371631Y-4418D01*
X1371569Y-4346D01*
X1371511Y-4270D01*
X1371455Y-4193D01*
X1371402Y-4113D01*
X1371353Y-4032D01*
X1371307Y-3948D01*
X1371264Y-3862D01*
X1371225Y-3775D01*
X1371189Y-3687D01*
X1371157Y-3597D01*
X1371129Y-3506D01*
X1371104Y-3413D01*
X1371083Y-3320D01*
X1371066Y-3226D01*
X1371052Y-3132D01*
X1371043Y-3037D01*
X1371037Y-2941D01*
X1371035Y-2846D01*
X1373406Y-5217D02*
X1373542Y-5215D01*
X1373679Y-5210D01*
X1373815Y-5200D01*
X1373950Y-5187D01*
X1374086Y-5171D01*
X1374221Y-5150D01*
X1374355Y-5126D01*
X1374488Y-5099D01*
X1374621Y-5067D01*
X1374753Y-5033D01*
X1374884Y-4994D01*
X1375013Y-4952D01*
X1375142Y-4907D01*
X1375269Y-4858D01*
X1375395Y-4805D01*
X1375519Y-4749D01*
X1375642Y-4690D01*
X1375763Y-4628D01*
X1375883Y-4562D01*
X1376000Y-4493D01*
X1376116Y-4420D01*
X1376230Y-4345D01*
X1376341Y-4267D01*
X1376450Y-4185D01*
X1376558Y-4101D01*
X1376662Y-4014D01*
X1376765Y-3924D01*
X1376865Y-3831D01*
X1376962Y-3735D01*
X1376666Y3080D02*
X1376664Y3175D01*
X1376658Y3271D01*
X1376649Y3366D01*
X1376635Y3460D01*
X1376618Y3554D01*
X1376597Y3647D01*
X1376572Y3740D01*
X1376544Y3831D01*
X1376512Y3921D01*
X1376476Y4009D01*
X1376437Y4096D01*
X1376394Y4182D01*
X1376348Y4266D01*
X1376299Y4347D01*
X1376246Y4427D01*
X1376190Y4504D01*
X1376132Y4580D01*
X1376070Y4652D01*
X1376005Y4722D01*
X1375937Y4790D01*
X1375867Y4855D01*
X1375795Y4917D01*
X1375719Y4975D01*
X1375642Y5031D01*
X1375562Y5084D01*
X1375481Y5133D01*
X1375397Y5179D01*
X1375311Y5222D01*
X1375224Y5261D01*
X1375136Y5297D01*
X1375046Y5329D01*
X1374955Y5357D01*
X1374862Y5382D01*
X1374769Y5403D01*
X1374675Y5420D01*
X1374581Y5434D01*
X1374486Y5443D01*
X1374390Y5449D01*
X1374295Y5451D01*
X1374165Y5449D01*
X1374035Y5443D01*
X1373905Y5434D01*
X1373776Y5421D01*
X1373647Y5404D01*
X1373519Y5383D01*
X1373391Y5358D01*
X1373264Y5330D01*
X1373138Y5298D01*
X1373013Y5262D01*
X1372889Y5223D01*
X1372767Y5180D01*
X1372645Y5134D01*
X1372525Y5083D01*
X1372407Y5030D01*
X1372290Y4973D01*
X1372175Y4913D01*
X1372061Y4849D01*
X1371950Y4782D01*
X1371840Y4712D01*
X1371733Y4638D01*
X1371628Y4562D01*
X1375481Y1005D02*
X1375562Y1056D01*
X1375642Y1110D01*
X1375720Y1166D01*
X1375795Y1226D01*
X1375868Y1289D01*
X1375938Y1355D01*
X1376005Y1423D01*
X1376070Y1494D01*
X1376132Y1568D01*
X1376191Y1644D01*
X1376247Y1722D01*
X1376299Y1803D01*
X1376349Y1885D01*
X1376395Y1970D01*
X1376437Y2056D01*
X1376477Y2144D01*
X1376512Y2233D01*
X1376544Y2324D01*
X1376573Y2416D01*
X1376597Y2509D01*
X1376618Y2602D01*
X1376635Y2697D01*
X1376649Y2792D01*
X1376658Y2888D01*
X1376664Y2984D01*
X1376666Y3080D01*
X1372220Y-771D02*
X1372139Y-822D01*
X1372059Y-876D01*
X1371981Y-932D01*
X1371906Y-992D01*
X1371833Y-1055D01*
X1371763Y-1121D01*
X1371696Y-1189D01*
X1371631Y-1260D01*
X1371569Y-1334D01*
X1371510Y-1410D01*
X1371454Y-1488D01*
X1371402Y-1569D01*
X1371352Y-1651D01*
X1371306Y-1736D01*
X1371264Y-1822D01*
X1371224Y-1910D01*
X1371189Y-1999D01*
X1371157Y-2090D01*
X1371128Y-2182D01*
X1371104Y-2275D01*
X1371083Y-2368D01*
X1371066Y-2463D01*
X1371052Y-2558D01*
X1371043Y-2654D01*
X1371037Y-2750D01*
X1371035Y-2846D01*
X1372220Y-772D02*
X1375480Y1006D01*
X1411583Y-17155D02*
X1415139Y-17155D01*
X1413954Y-13599D02*
X1413954Y-22489D01*
X1413952Y-22571D01*
X1413946Y-22653D01*
X1413937Y-22735D01*
X1413924Y-22816D01*
X1413907Y-22896D01*
X1413886Y-22976D01*
X1413862Y-23054D01*
X1413834Y-23131D01*
X1413803Y-23207D01*
X1413768Y-23282D01*
X1413729Y-23354D01*
X1413688Y-23425D01*
X1413643Y-23494D01*
X1413595Y-23560D01*
X1413544Y-23625D01*
X1413490Y-23687D01*
X1413433Y-23746D01*
X1413374Y-23803D01*
X1413312Y-23857D01*
X1413247Y-23908D01*
X1413181Y-23956D01*
X1413112Y-24001D01*
X1413041Y-24042D01*
X1412969Y-24081D01*
X1412894Y-24116D01*
X1412818Y-24147D01*
X1412741Y-24175D01*
X1412663Y-24199D01*
X1412583Y-24220D01*
X1412503Y-24237D01*
X1412422Y-24250D01*
X1412340Y-24259D01*
X1412258Y-24265D01*
X1412176Y-24267D01*
X1411583Y-24267D01*
X1406830Y-21896D02*
X1406830Y-19526D01*
X1406831Y-19526D02*
X1406829Y-19429D01*
X1406823Y-19333D01*
X1406813Y-19237D01*
X1406799Y-19141D01*
X1406782Y-19046D01*
X1406760Y-18951D01*
X1406735Y-18858D01*
X1406706Y-18766D01*
X1406673Y-18675D01*
X1406636Y-18585D01*
X1406596Y-18497D01*
X1406552Y-18411D01*
X1406505Y-18327D01*
X1406455Y-18244D01*
X1406401Y-18164D01*
X1406343Y-18086D01*
X1406283Y-18010D01*
X1406220Y-17937D01*
X1406154Y-17867D01*
X1406084Y-17799D01*
X1406013Y-17734D01*
X1405938Y-17672D01*
X1405861Y-17614D01*
X1405782Y-17558D01*
X1405701Y-17506D01*
X1405617Y-17457D01*
X1405532Y-17411D01*
X1405445Y-17369D01*
X1405356Y-17331D01*
X1405266Y-17296D01*
X1405174Y-17265D01*
X1405081Y-17238D01*
X1404988Y-17214D01*
X1404893Y-17195D01*
X1404797Y-17179D01*
X1404701Y-17167D01*
X1404605Y-17159D01*
X1404508Y-17155D01*
X1404412Y-17155D01*
X1404315Y-17159D01*
X1404219Y-17167D01*
X1404123Y-17179D01*
X1404027Y-17195D01*
X1403932Y-17214D01*
X1403839Y-17238D01*
X1403746Y-17265D01*
X1403654Y-17296D01*
X1403564Y-17331D01*
X1403475Y-17369D01*
X1403388Y-17411D01*
X1403303Y-17457D01*
X1403219Y-17506D01*
X1403138Y-17558D01*
X1403059Y-17614D01*
X1402982Y-17672D01*
X1402907Y-17734D01*
X1402836Y-17799D01*
X1402766Y-17867D01*
X1402700Y-17937D01*
X1402637Y-18010D01*
X1402577Y-18086D01*
X1402519Y-18164D01*
X1402465Y-18244D01*
X1402415Y-18327D01*
X1402368Y-18411D01*
X1402324Y-18497D01*
X1402284Y-18585D01*
X1402247Y-18675D01*
X1402214Y-18766D01*
X1402185Y-18858D01*
X1402160Y-18951D01*
X1402138Y-19046D01*
X1402121Y-19141D01*
X1402107Y-19237D01*
X1402097Y-19333D01*
X1402091Y-19429D01*
X1402089Y-19526D01*
X1402089Y-21896D01*
X1402091Y-21993D01*
X1402097Y-22089D01*
X1402107Y-22185D01*
X1402121Y-22281D01*
X1402138Y-22376D01*
X1402160Y-22471D01*
X1402185Y-22564D01*
X1402214Y-22656D01*
X1402247Y-22747D01*
X1402284Y-22837D01*
X1402324Y-22925D01*
X1402368Y-23011D01*
X1402415Y-23095D01*
X1402465Y-23178D01*
X1402519Y-23258D01*
X1402577Y-23336D01*
X1402637Y-23412D01*
X1402700Y-23485D01*
X1402766Y-23555D01*
X1402836Y-23623D01*
X1402907Y-23688D01*
X1402982Y-23750D01*
X1403059Y-23808D01*
X1403138Y-23864D01*
X1403219Y-23916D01*
X1403303Y-23965D01*
X1403388Y-24011D01*
X1403475Y-24053D01*
X1403564Y-24091D01*
X1403654Y-24126D01*
X1403746Y-24157D01*
X1403839Y-24184D01*
X1403932Y-24208D01*
X1404027Y-24227D01*
X1404123Y-24243D01*
X1404219Y-24255D01*
X1404315Y-24263D01*
X1404412Y-24267D01*
X1404508Y-24267D01*
X1404605Y-24263D01*
X1404701Y-24255D01*
X1404797Y-24243D01*
X1404893Y-24227D01*
X1404988Y-24208D01*
X1405081Y-24184D01*
X1405174Y-24157D01*
X1405266Y-24126D01*
X1405356Y-24091D01*
X1405445Y-24053D01*
X1405532Y-24011D01*
X1405617Y-23965D01*
X1405701Y-23916D01*
X1405782Y-23864D01*
X1405861Y-23808D01*
X1405938Y-23750D01*
X1406013Y-23688D01*
X1406084Y-23623D01*
X1406154Y-23555D01*
X1406220Y-23485D01*
X1406283Y-23412D01*
X1406343Y-23336D01*
X1406401Y-23258D01*
X1406455Y-23178D01*
X1406505Y-23095D01*
X1406552Y-23011D01*
X1406596Y-22925D01*
X1406636Y-22837D01*
X1406673Y-22747D01*
X1406706Y-22656D01*
X1406735Y-22564D01*
X1406760Y-22471D01*
X1406782Y-22376D01*
X1406799Y-22281D01*
X1406813Y-22185D01*
X1406823Y-22089D01*
X1406829Y-21993D01*
X1406831Y-21896D01*
X1441232Y-32649D02*
X1441232Y-43317D01*
X1435305Y-43317D02*
X1441232Y-32649D01*
X1435305Y-32649D02*
X1435305Y-43317D01*
X1429421Y-37390D02*
X1425865Y-37390D01*
X1425770Y-37392D01*
X1425674Y-37398D01*
X1425579Y-37407D01*
X1425485Y-37421D01*
X1425391Y-37438D01*
X1425298Y-37459D01*
X1425205Y-37484D01*
X1425114Y-37512D01*
X1425024Y-37544D01*
X1424936Y-37580D01*
X1424849Y-37619D01*
X1424763Y-37662D01*
X1424680Y-37708D01*
X1424598Y-37757D01*
X1424518Y-37810D01*
X1424441Y-37866D01*
X1424365Y-37924D01*
X1424293Y-37986D01*
X1424223Y-38051D01*
X1424155Y-38119D01*
X1424090Y-38189D01*
X1424028Y-38261D01*
X1423970Y-38337D01*
X1423914Y-38414D01*
X1423861Y-38494D01*
X1423812Y-38575D01*
X1423766Y-38659D01*
X1423723Y-38745D01*
X1423684Y-38832D01*
X1423648Y-38920D01*
X1423616Y-39010D01*
X1423588Y-39101D01*
X1423563Y-39194D01*
X1423542Y-39287D01*
X1423525Y-39381D01*
X1423511Y-39475D01*
X1423502Y-39570D01*
X1423496Y-39666D01*
X1423494Y-39761D01*
X1423494Y-40354D01*
X1423496Y-40461D01*
X1423502Y-40568D01*
X1423511Y-40674D01*
X1423525Y-40780D01*
X1423542Y-40886D01*
X1423563Y-40991D01*
X1423588Y-41095D01*
X1423617Y-41198D01*
X1423649Y-41300D01*
X1423685Y-41401D01*
X1423725Y-41500D01*
X1423768Y-41598D01*
X1423815Y-41694D01*
X1423865Y-41789D01*
X1423918Y-41882D01*
X1423975Y-41972D01*
X1424035Y-42061D01*
X1424098Y-42147D01*
X1424164Y-42231D01*
X1424234Y-42313D01*
X1424306Y-42392D01*
X1424381Y-42468D01*
X1424459Y-42542D01*
X1424539Y-42612D01*
X1424622Y-42680D01*
X1424707Y-42745D01*
X1424794Y-42806D01*
X1424884Y-42865D01*
X1424976Y-42920D01*
X1425069Y-42972D01*
X1425165Y-43020D01*
X1425262Y-43065D01*
X1425360Y-43107D01*
X1425460Y-43144D01*
X1425562Y-43179D01*
X1425664Y-43209D01*
X1425768Y-43236D01*
X1425872Y-43259D01*
X1425978Y-43278D01*
X1426084Y-43293D01*
X1426190Y-43305D01*
X1426297Y-43313D01*
X1426404Y-43317D01*
X1426510Y-43317D01*
X1426617Y-43313D01*
X1426724Y-43305D01*
X1426830Y-43293D01*
X1426936Y-43278D01*
X1427042Y-43259D01*
X1427146Y-43236D01*
X1427250Y-43209D01*
X1427352Y-43179D01*
X1427454Y-43144D01*
X1427554Y-43107D01*
X1427652Y-43065D01*
X1427749Y-43020D01*
X1427845Y-42972D01*
X1427939Y-42920D01*
X1428030Y-42865D01*
X1428120Y-42806D01*
X1428207Y-42745D01*
X1428292Y-42680D01*
X1428375Y-42612D01*
X1428455Y-42542D01*
X1428533Y-42468D01*
X1428608Y-42392D01*
X1428680Y-42313D01*
X1428750Y-42231D01*
X1428816Y-42147D01*
X1428879Y-42061D01*
X1428939Y-41972D01*
X1428996Y-41882D01*
X1429049Y-41789D01*
X1429099Y-41694D01*
X1429146Y-41598D01*
X1429189Y-41500D01*
X1429229Y-41401D01*
X1429265Y-41300D01*
X1429297Y-41198D01*
X1429326Y-41095D01*
X1429351Y-40991D01*
X1429372Y-40886D01*
X1429389Y-40780D01*
X1429403Y-40674D01*
X1429412Y-40568D01*
X1429418Y-40461D01*
X1429420Y-40354D01*
X1429421Y-40354D02*
X1429421Y-37390D01*
X1429420Y-37390D02*
X1429418Y-37255D01*
X1429412Y-37119D01*
X1429403Y-36984D01*
X1429389Y-36850D01*
X1429372Y-36715D01*
X1429351Y-36582D01*
X1429326Y-36448D01*
X1429297Y-36316D01*
X1429264Y-36185D01*
X1429228Y-36054D01*
X1429188Y-35925D01*
X1429144Y-35797D01*
X1429097Y-35670D01*
X1429046Y-35544D01*
X1428992Y-35421D01*
X1428934Y-35298D01*
X1428872Y-35178D01*
X1428807Y-35059D01*
X1428739Y-34942D01*
X1428667Y-34827D01*
X1428593Y-34714D01*
X1428515Y-34603D01*
X1428433Y-34495D01*
X1428349Y-34389D01*
X1428262Y-34285D01*
X1428172Y-34184D01*
X1428079Y-34086D01*
X1427983Y-33990D01*
X1427885Y-33897D01*
X1427784Y-33807D01*
X1427680Y-33720D01*
X1427574Y-33636D01*
X1427466Y-33554D01*
X1427355Y-33476D01*
X1427242Y-33402D01*
X1427127Y-33330D01*
X1427010Y-33262D01*
X1426892Y-33197D01*
X1426771Y-33135D01*
X1426649Y-33077D01*
X1426525Y-33023D01*
X1426399Y-32972D01*
X1426272Y-32925D01*
X1426144Y-32881D01*
X1426015Y-32841D01*
X1425884Y-32805D01*
X1425753Y-32772D01*
X1425621Y-32743D01*
X1425488Y-32718D01*
X1425354Y-32697D01*
X1425219Y-32680D01*
X1425085Y-32666D01*
X1424950Y-32657D01*
X1424814Y-32651D01*
X1424679Y-32649D01*
X1415620Y-32649D02*
X1417991Y-40946D01*
X1412064Y-40946D01*
X1413842Y-38576D02*
X1413842Y-43317D01*
X1406069Y-43317D02*
X1406069Y-32649D01*
X1403106Y-32649D01*
X1402999Y-32651D01*
X1402892Y-32657D01*
X1402786Y-32666D01*
X1402680Y-32680D01*
X1402574Y-32697D01*
X1402469Y-32718D01*
X1402365Y-32743D01*
X1402262Y-32772D01*
X1402160Y-32804D01*
X1402059Y-32840D01*
X1401960Y-32880D01*
X1401862Y-32923D01*
X1401766Y-32970D01*
X1401671Y-33020D01*
X1401578Y-33073D01*
X1401488Y-33130D01*
X1401399Y-33190D01*
X1401313Y-33253D01*
X1401229Y-33319D01*
X1401147Y-33389D01*
X1401068Y-33461D01*
X1400992Y-33536D01*
X1400918Y-33614D01*
X1400848Y-33694D01*
X1400780Y-33777D01*
X1400715Y-33862D01*
X1400654Y-33949D01*
X1400595Y-34039D01*
X1400540Y-34131D01*
X1400488Y-34224D01*
X1400440Y-34320D01*
X1400395Y-34417D01*
X1400353Y-34515D01*
X1400316Y-34615D01*
X1400281Y-34717D01*
X1400251Y-34819D01*
X1400224Y-34923D01*
X1400201Y-35027D01*
X1400182Y-35133D01*
X1400167Y-35239D01*
X1400155Y-35345D01*
X1400147Y-35452D01*
X1400143Y-35559D01*
X1400143Y-35665D01*
X1400147Y-35772D01*
X1400155Y-35879D01*
X1400167Y-35985D01*
X1400182Y-36091D01*
X1400201Y-36197D01*
X1400224Y-36301D01*
X1400251Y-36405D01*
X1400281Y-36507D01*
X1400316Y-36609D01*
X1400353Y-36709D01*
X1400395Y-36807D01*
X1400440Y-36904D01*
X1400488Y-37000D01*
X1400540Y-37093D01*
X1400595Y-37185D01*
X1400654Y-37275D01*
X1400715Y-37362D01*
X1400780Y-37447D01*
X1400848Y-37530D01*
X1400918Y-37610D01*
X1400992Y-37688D01*
X1401068Y-37763D01*
X1401147Y-37835D01*
X1401229Y-37905D01*
X1401313Y-37971D01*
X1401399Y-38034D01*
X1401488Y-38094D01*
X1401578Y-38151D01*
X1401671Y-38204D01*
X1401766Y-38254D01*
X1401862Y-38301D01*
X1401960Y-38344D01*
X1402059Y-38384D01*
X1402160Y-38420D01*
X1402262Y-38452D01*
X1402365Y-38481D01*
X1402469Y-38506D01*
X1402574Y-38527D01*
X1402680Y-38544D01*
X1402786Y-38558D01*
X1402892Y-38567D01*
X1402999Y-38573D01*
X1403106Y-38575D01*
X1403106Y-38576D02*
X1406069Y-38576D01*
X1402513Y-38576D02*
X1400143Y-43317D01*
X1390220Y-37390D02*
X1388442Y-37390D01*
X1388442Y-43317D01*
X1391998Y-43317D01*
X1392093Y-43315D01*
X1392189Y-43309D01*
X1392284Y-43300D01*
X1392378Y-43286D01*
X1392472Y-43269D01*
X1392565Y-43248D01*
X1392658Y-43223D01*
X1392749Y-43195D01*
X1392839Y-43163D01*
X1392927Y-43127D01*
X1393014Y-43088D01*
X1393100Y-43045D01*
X1393184Y-42999D01*
X1393265Y-42950D01*
X1393345Y-42897D01*
X1393422Y-42841D01*
X1393498Y-42783D01*
X1393570Y-42721D01*
X1393640Y-42656D01*
X1393708Y-42588D01*
X1393773Y-42518D01*
X1393835Y-42446D01*
X1393893Y-42370D01*
X1393949Y-42293D01*
X1394002Y-42213D01*
X1394051Y-42132D01*
X1394097Y-42048D01*
X1394140Y-41962D01*
X1394179Y-41875D01*
X1394215Y-41787D01*
X1394247Y-41697D01*
X1394275Y-41606D01*
X1394300Y-41513D01*
X1394321Y-41420D01*
X1394338Y-41326D01*
X1394352Y-41232D01*
X1394361Y-41137D01*
X1394367Y-41041D01*
X1394369Y-40946D01*
X1394369Y-35020D01*
X1394367Y-34925D01*
X1394361Y-34829D01*
X1394352Y-34734D01*
X1394338Y-34640D01*
X1394321Y-34546D01*
X1394300Y-34453D01*
X1394275Y-34360D01*
X1394247Y-34269D01*
X1394215Y-34179D01*
X1394179Y-34091D01*
X1394140Y-34004D01*
X1394097Y-33918D01*
X1394051Y-33835D01*
X1394002Y-33753D01*
X1393949Y-33673D01*
X1393893Y-33596D01*
X1393835Y-33520D01*
X1393773Y-33448D01*
X1393708Y-33378D01*
X1393640Y-33310D01*
X1393570Y-33245D01*
X1393498Y-33183D01*
X1393422Y-33125D01*
X1393345Y-33069D01*
X1393265Y-33016D01*
X1393184Y-32967D01*
X1393100Y-32921D01*
X1393014Y-32878D01*
X1392927Y-32839D01*
X1392839Y-32803D01*
X1392749Y-32771D01*
X1392658Y-32743D01*
X1392565Y-32718D01*
X1392472Y-32697D01*
X1392378Y-32680D01*
X1392284Y-32666D01*
X1392189Y-32657D01*
X1392094Y-32651D01*
X1391998Y-32649D01*
X1388442Y-32649D01*
X1381923Y-37390D02*
X1378960Y-37390D01*
X1378960Y-37391D02*
X1378853Y-37393D01*
X1378746Y-37399D01*
X1378640Y-37408D01*
X1378534Y-37422D01*
X1378428Y-37439D01*
X1378323Y-37460D01*
X1378219Y-37485D01*
X1378116Y-37514D01*
X1378014Y-37546D01*
X1377913Y-37582D01*
X1377814Y-37622D01*
X1377716Y-37665D01*
X1377620Y-37712D01*
X1377525Y-37762D01*
X1377432Y-37815D01*
X1377342Y-37872D01*
X1377253Y-37932D01*
X1377167Y-37995D01*
X1377083Y-38061D01*
X1377001Y-38131D01*
X1376922Y-38203D01*
X1376846Y-38278D01*
X1376772Y-38356D01*
X1376702Y-38436D01*
X1376634Y-38519D01*
X1376569Y-38604D01*
X1376508Y-38691D01*
X1376449Y-38781D01*
X1376394Y-38873D01*
X1376342Y-38966D01*
X1376294Y-39062D01*
X1376249Y-39159D01*
X1376207Y-39257D01*
X1376170Y-39357D01*
X1376135Y-39459D01*
X1376105Y-39561D01*
X1376078Y-39665D01*
X1376055Y-39769D01*
X1376036Y-39875D01*
X1376021Y-39981D01*
X1376009Y-40087D01*
X1376001Y-40194D01*
X1375997Y-40301D01*
X1375997Y-40407D01*
X1376001Y-40514D01*
X1376009Y-40621D01*
X1376021Y-40727D01*
X1376036Y-40833D01*
X1376055Y-40939D01*
X1376078Y-41043D01*
X1376105Y-41147D01*
X1376135Y-41249D01*
X1376170Y-41351D01*
X1376207Y-41451D01*
X1376249Y-41549D01*
X1376294Y-41646D01*
X1376342Y-41742D01*
X1376394Y-41835D01*
X1376449Y-41927D01*
X1376508Y-42017D01*
X1376569Y-42104D01*
X1376634Y-42189D01*
X1376702Y-42272D01*
X1376772Y-42352D01*
X1376846Y-42430D01*
X1376922Y-42505D01*
X1377001Y-42577D01*
X1377083Y-42647D01*
X1377167Y-42713D01*
X1377253Y-42776D01*
X1377342Y-42836D01*
X1377432Y-42893D01*
X1377525Y-42946D01*
X1377620Y-42996D01*
X1377716Y-43043D01*
X1377814Y-43086D01*
X1377913Y-43126D01*
X1378014Y-43162D01*
X1378116Y-43194D01*
X1378219Y-43223D01*
X1378323Y-43248D01*
X1378428Y-43269D01*
X1378534Y-43286D01*
X1378640Y-43300D01*
X1378746Y-43309D01*
X1378853Y-43315D01*
X1378960Y-43317D01*
X1381923Y-43317D01*
X1381923Y-32649D01*
X1378960Y-32649D01*
X1378863Y-32651D01*
X1378767Y-32657D01*
X1378671Y-32667D01*
X1378575Y-32681D01*
X1378480Y-32698D01*
X1378385Y-32720D01*
X1378292Y-32745D01*
X1378200Y-32774D01*
X1378109Y-32807D01*
X1378019Y-32844D01*
X1377931Y-32884D01*
X1377845Y-32928D01*
X1377761Y-32975D01*
X1377678Y-33025D01*
X1377598Y-33079D01*
X1377520Y-33137D01*
X1377444Y-33197D01*
X1377371Y-33260D01*
X1377301Y-33326D01*
X1377233Y-33396D01*
X1377168Y-33467D01*
X1377106Y-33542D01*
X1377048Y-33619D01*
X1376992Y-33698D01*
X1376940Y-33779D01*
X1376891Y-33863D01*
X1376845Y-33948D01*
X1376803Y-34035D01*
X1376765Y-34124D01*
X1376730Y-34214D01*
X1376699Y-34306D01*
X1376672Y-34399D01*
X1376648Y-34492D01*
X1376629Y-34587D01*
X1376613Y-34683D01*
X1376601Y-34779D01*
X1376593Y-34875D01*
X1376589Y-34972D01*
X1376589Y-35068D01*
X1376593Y-35165D01*
X1376601Y-35261D01*
X1376613Y-35357D01*
X1376629Y-35453D01*
X1376648Y-35548D01*
X1376672Y-35641D01*
X1376699Y-35734D01*
X1376730Y-35826D01*
X1376765Y-35916D01*
X1376803Y-36005D01*
X1376845Y-36092D01*
X1376891Y-36177D01*
X1376940Y-36261D01*
X1376992Y-36342D01*
X1377048Y-36421D01*
X1377106Y-36498D01*
X1377168Y-36573D01*
X1377233Y-36644D01*
X1377301Y-36714D01*
X1377371Y-36780D01*
X1377444Y-36843D01*
X1377520Y-36903D01*
X1377598Y-36961D01*
X1377678Y-37015D01*
X1377761Y-37065D01*
X1377845Y-37112D01*
X1377931Y-37156D01*
X1378019Y-37196D01*
X1378109Y-37233D01*
X1378200Y-37266D01*
X1378292Y-37295D01*
X1378385Y-37320D01*
X1378480Y-37342D01*
X1378575Y-37359D01*
X1378671Y-37373D01*
X1378767Y-37383D01*
X1378863Y-37389D01*
X1378960Y-37391D01*
D10*
X1000Y15500D02*
X0Y16500D01*
X1000Y15500D02*
X4000Y15500D01*
X5000Y14500D01*
X5000Y11500D01*
X4000Y10500D01*
X1000Y10500D01*
X0Y9500D01*
X17000Y-26000D02*
X25500Y-34500D01*
M02*
