M48
;GenerationSoftware,Autodesk,EAGLE,9.6.2*%
;CreationDate,2022-07-13T20:40:15Z*%
FMAT,2
ICI,OFF
METRIC,TZ,000.000
T5C0.254
T4C0.400
T3C0.500
T2C0.550
T1C0.600
%
G90
M71
T1
X164893Y11938
X164944Y8738
X163623Y11938
X163674Y8738
T2
X18969Y-2026
X17658Y12594
X19552Y11011
X23452Y11011
X16388Y12594
X15118Y12594
X4452Y-2239
X148901Y-4032
X2564Y875
X160410Y5933
X8464Y6690
X10602Y9911
X16991Y7321
X30068Y-1804
X5964Y6040
X2764Y3789
X5614Y2575
X16355Y-2001
X161917Y10041
X160441Y8340
X151451Y-832
X154602Y2651
X156453Y3638
X158360Y4883
X4066Y10560
T3
X164868Y-2540
X164868Y-3810
X164868Y5080
X164868Y3810
X164868Y-5080
X164868Y2540
X164868Y-6350
X164868Y1270
X164868Y6350
X164868Y0
X164868Y-1270
T4
X164106Y5080
X17650Y3382
X164106Y2540
X36550Y-1800
X2150Y6650
X9950Y-500
X25750Y1000
X16350Y-500
X164106Y6350
X164106Y-6350
X34550Y-1800
X164106Y-5080
X32550Y-1800
X164106Y-3810
X27750Y1000
X164106Y-2540
X164106Y-1270
X23750Y1000
X164106Y0
X21750Y1000
X164106Y1270
X20100Y1600
X164106Y3810
X17850Y-250
T5
X0Y0
X0Y6500
X650Y6500
X0Y2600
X0Y5200
X650Y2600
X0Y1950
X650Y8450
X650Y5850
X650Y1950
X650Y5200
X0Y8450
X650Y3250
X650Y7800
X0Y4550
X0Y3250
X650Y0
X650Y650
X0Y7800
X650Y9100
X650Y-1950
X650Y4550
X0Y9100
X0Y-1950
X0Y650
X650Y11050
X0Y11050
X0Y5850
M30