G04 EAGLE Gerber X2 export*
%TF.Part,Single*%
%TF.FileFunction,Other,silk bottom*%
%TF.FilePolarity,Positive*%
%TF.GenerationSoftware,Autodesk,EAGLE,9.6.2*%
%TF.CreationDate,2022-07-13T20:40:15Z*%
G75*
%MOMM*%
%FSLAX34Y34*%
%LPD*%
%INsilk bottom*%
%AMOC8*
5,1,8,0,0,1.08239X$1,22.5*%
G01*
%ADD10C,0.000000*%
%ADD11C,0.152400*%
%ADD12C,0.203200*%


D10*
X0Y-23000D02*
X3000Y-26000D01*
X17000Y-26000D01*
X39750Y136500D02*
X252500Y136500D01*
X39750Y136500D02*
X23750Y120500D01*
X7000Y120500D01*
X0Y113500D01*
X0Y107500D01*
X0Y94000D02*
X0Y75000D01*
X1000Y74000D01*
X4000Y74000D01*
X5000Y73000D01*
X5000Y70000D02*
X4000Y69000D01*
X1000Y69000D01*
X0Y68000D01*
X5000Y70000D02*
X5000Y73000D01*
X0Y68000D02*
X0Y42500D01*
X1000Y41500D01*
X4000Y41500D01*
X5000Y40500D01*
X5000Y37500D02*
X4000Y36500D01*
X1000Y36500D01*
X0Y35500D01*
X5000Y37500D02*
X5000Y40500D01*
X0Y-16500D02*
X0Y-23000D01*
X0Y-3000D02*
X0Y9500D01*
X0Y16500D02*
X0Y35500D01*
X0Y-3000D02*
X1000Y-4000D01*
X4000Y-4000D02*
X5000Y-5000D01*
X4000Y-4000D02*
X1000Y-4000D01*
X5000Y-5000D02*
X5000Y-14500D01*
X4000Y-15500D01*
X1000Y-15500D01*
X0Y-16500D01*
X1000Y106500D02*
X0Y107500D01*
X1000Y106500D02*
X4000Y106500D01*
X5000Y105500D01*
X5000Y96000D01*
X4000Y95000D01*
X1000Y95000D01*
X0Y94000D01*
D11*
X502876Y87547D02*
X508982Y81440D01*
X507286Y79744D01*
X507286Y79743D02*
X507231Y79692D01*
X507174Y79643D01*
X507114Y79597D01*
X507052Y79554D01*
X506988Y79515D01*
X506921Y79479D01*
X506853Y79446D01*
X506784Y79418D01*
X506713Y79392D01*
X506640Y79371D01*
X506567Y79353D01*
X506493Y79340D01*
X506418Y79330D01*
X506343Y79324D01*
X506268Y79322D01*
X506193Y79324D01*
X506118Y79330D01*
X506043Y79340D01*
X505969Y79353D01*
X505896Y79371D01*
X505823Y79392D01*
X505752Y79418D01*
X505683Y79446D01*
X505615Y79479D01*
X505549Y79515D01*
X505484Y79554D01*
X505422Y79597D01*
X505362Y79643D01*
X505305Y79692D01*
X505251Y79743D01*
X505251Y79744D02*
X503215Y81779D01*
X503165Y81832D01*
X503118Y81888D01*
X503073Y81945D01*
X503031Y82005D01*
X502993Y82067D01*
X502958Y82131D01*
X502925Y82196D01*
X502897Y82263D01*
X502871Y82332D01*
X502850Y82401D01*
X502831Y82472D01*
X502817Y82543D01*
X502806Y82615D01*
X502798Y82688D01*
X502794Y82761D01*
X502794Y82833D01*
X502798Y82906D01*
X502806Y82979D01*
X502817Y83051D01*
X502831Y83122D01*
X502850Y83193D01*
X502871Y83262D01*
X502897Y83331D01*
X502925Y83398D01*
X502958Y83463D01*
X502993Y83527D01*
X503031Y83589D01*
X503073Y83649D01*
X503118Y83706D01*
X503165Y83762D01*
X503215Y83815D01*
X504911Y85511D01*
X502409Y74866D02*
X500713Y73170D01*
X502409Y74866D02*
X502459Y74919D01*
X502506Y74975D01*
X502551Y75032D01*
X502593Y75092D01*
X502631Y75154D01*
X502666Y75218D01*
X502699Y75283D01*
X502727Y75350D01*
X502753Y75419D01*
X502774Y75488D01*
X502793Y75559D01*
X502807Y75630D01*
X502818Y75702D01*
X502826Y75775D01*
X502830Y75848D01*
X502830Y75920D01*
X502826Y75993D01*
X502818Y76066D01*
X502807Y76138D01*
X502793Y76209D01*
X502774Y76280D01*
X502753Y76349D01*
X502727Y76418D01*
X502699Y76485D01*
X502666Y76550D01*
X502631Y76614D01*
X502593Y76676D01*
X502551Y76736D01*
X502506Y76793D01*
X502459Y76849D01*
X502409Y76902D01*
X500713Y78598D01*
X500650Y78658D01*
X500584Y78716D01*
X500516Y78770D01*
X500445Y78821D01*
X500372Y78869D01*
X500297Y78914D01*
X500219Y78955D01*
X500141Y78992D01*
X500060Y79026D01*
X499978Y79056D01*
X499895Y79083D01*
X499810Y79105D01*
X499725Y79124D01*
X499639Y79139D01*
X499552Y79150D01*
X499465Y79157D01*
X499378Y79160D01*
X499290Y79159D01*
X499203Y79154D01*
X499116Y79145D01*
X499030Y79132D01*
X498944Y79115D01*
X498859Y79095D01*
X498775Y79070D01*
X498693Y79042D01*
X498612Y79010D01*
X498532Y78974D01*
X498454Y78935D01*
X498378Y78892D01*
X498304Y78846D01*
X498232Y78796D01*
X498162Y78743D01*
X498095Y78687D01*
X498030Y78628D01*
X497969Y78567D01*
X497910Y78502D01*
X497854Y78435D01*
X497801Y78365D01*
X497751Y78293D01*
X497705Y78219D01*
X497662Y78143D01*
X497623Y78065D01*
X497587Y77985D01*
X497555Y77904D01*
X497527Y77822D01*
X497502Y77738D01*
X497482Y77653D01*
X497465Y77567D01*
X497452Y77481D01*
X497443Y77394D01*
X497438Y77307D01*
X497437Y77219D01*
X497440Y77132D01*
X497447Y77045D01*
X497458Y76958D01*
X497473Y76872D01*
X497492Y76787D01*
X497514Y76702D01*
X497541Y76619D01*
X497571Y76537D01*
X497605Y76457D01*
X497642Y76378D01*
X497683Y76300D01*
X497728Y76225D01*
X497776Y76152D01*
X497827Y76081D01*
X497881Y76013D01*
X497939Y75947D01*
X497999Y75884D01*
X498677Y75206D01*
X501391Y77920D01*
X497607Y70065D02*
X493536Y74136D01*
X491840Y72440D01*
X491789Y72385D01*
X491740Y72328D01*
X491694Y72268D01*
X491651Y72206D01*
X491612Y72142D01*
X491576Y72075D01*
X491543Y72007D01*
X491515Y71938D01*
X491489Y71867D01*
X491468Y71794D01*
X491450Y71721D01*
X491437Y71647D01*
X491427Y71572D01*
X491421Y71497D01*
X491419Y71422D01*
X491421Y71347D01*
X491427Y71272D01*
X491437Y71197D01*
X491450Y71123D01*
X491468Y71050D01*
X491489Y70977D01*
X491515Y70906D01*
X491543Y70837D01*
X491576Y70769D01*
X491612Y70703D01*
X491651Y70638D01*
X491694Y70576D01*
X491740Y70516D01*
X491789Y70459D01*
X491840Y70405D01*
X491840Y70404D02*
X494893Y67351D01*
X489122Y61580D02*
X483016Y67686D01*
X489122Y61580D02*
X490819Y63276D01*
X490869Y63329D01*
X490916Y63385D01*
X490961Y63442D01*
X491003Y63502D01*
X491041Y63564D01*
X491076Y63628D01*
X491109Y63693D01*
X491137Y63760D01*
X491163Y63829D01*
X491184Y63898D01*
X491203Y63969D01*
X491217Y64040D01*
X491228Y64112D01*
X491236Y64185D01*
X491240Y64258D01*
X491240Y64330D01*
X491236Y64403D01*
X491228Y64476D01*
X491217Y64548D01*
X491203Y64619D01*
X491184Y64690D01*
X491163Y64759D01*
X491137Y64828D01*
X491109Y64895D01*
X491076Y64960D01*
X491041Y65024D01*
X491003Y65086D01*
X490961Y65146D01*
X490916Y65203D01*
X490869Y65259D01*
X490819Y65312D01*
X490819Y65311D02*
X488783Y67347D01*
X488728Y67398D01*
X488671Y67447D01*
X488611Y67493D01*
X488549Y67536D01*
X488485Y67575D01*
X488418Y67611D01*
X488350Y67644D01*
X488281Y67672D01*
X488210Y67698D01*
X488137Y67719D01*
X488064Y67737D01*
X487990Y67750D01*
X487915Y67760D01*
X487840Y67766D01*
X487765Y67768D01*
X487690Y67766D01*
X487615Y67760D01*
X487540Y67750D01*
X487466Y67737D01*
X487393Y67719D01*
X487320Y67698D01*
X487249Y67672D01*
X487180Y67644D01*
X487112Y67611D01*
X487046Y67575D01*
X486981Y67536D01*
X486919Y67493D01*
X486859Y67447D01*
X486802Y67398D01*
X486747Y67347D01*
X485051Y65651D01*
X481492Y53950D02*
X480135Y52593D01*
X481493Y53949D02*
X481543Y54002D01*
X481590Y54058D01*
X481635Y54115D01*
X481677Y54175D01*
X481715Y54237D01*
X481750Y54301D01*
X481783Y54366D01*
X481811Y54433D01*
X481837Y54502D01*
X481858Y54571D01*
X481877Y54642D01*
X481891Y54713D01*
X481902Y54785D01*
X481910Y54858D01*
X481914Y54931D01*
X481914Y55003D01*
X481910Y55076D01*
X481902Y55149D01*
X481891Y55221D01*
X481877Y55292D01*
X481858Y55363D01*
X481837Y55432D01*
X481811Y55501D01*
X481783Y55568D01*
X481750Y55633D01*
X481715Y55697D01*
X481677Y55759D01*
X481635Y55819D01*
X481590Y55876D01*
X481543Y55932D01*
X481493Y55985D01*
X481492Y55985D02*
X479457Y58021D01*
X479402Y58072D01*
X479345Y58121D01*
X479285Y58167D01*
X479223Y58210D01*
X479159Y58249D01*
X479092Y58285D01*
X479024Y58318D01*
X478955Y58346D01*
X478884Y58372D01*
X478811Y58393D01*
X478738Y58411D01*
X478664Y58424D01*
X478589Y58434D01*
X478514Y58440D01*
X478439Y58442D01*
X478364Y58440D01*
X478289Y58434D01*
X478214Y58424D01*
X478140Y58411D01*
X478067Y58393D01*
X477994Y58372D01*
X477923Y58346D01*
X477854Y58318D01*
X477786Y58285D01*
X477720Y58249D01*
X477655Y58210D01*
X477593Y58167D01*
X477533Y58121D01*
X477476Y58072D01*
X477421Y58021D01*
X476064Y56664D01*
X474050Y51256D02*
X472523Y49730D01*
X474050Y51256D02*
X474108Y51312D01*
X474170Y51365D01*
X474234Y51415D01*
X474300Y51462D01*
X474368Y51506D01*
X474439Y51546D01*
X474511Y51583D01*
X474585Y51616D01*
X474661Y51646D01*
X474737Y51672D01*
X474816Y51694D01*
X474895Y51713D01*
X474974Y51727D01*
X475055Y51738D01*
X475136Y51745D01*
X475217Y51748D01*
X475298Y51747D01*
X475379Y51742D01*
X475459Y51733D01*
X475540Y51720D01*
X475619Y51704D01*
X475698Y51684D01*
X475775Y51659D01*
X475851Y51632D01*
X475926Y51600D01*
X475999Y51565D01*
X476071Y51526D01*
X476140Y51484D01*
X476207Y51439D01*
X476272Y51391D01*
X476335Y51339D01*
X476395Y51285D01*
X476453Y51227D01*
X476507Y51167D01*
X476559Y51104D01*
X476607Y51039D01*
X476652Y50972D01*
X476694Y50903D01*
X476733Y50831D01*
X476768Y50758D01*
X476800Y50683D01*
X476827Y50607D01*
X476852Y50530D01*
X476872Y50451D01*
X476888Y50372D01*
X476901Y50291D01*
X476910Y50211D01*
X476915Y50130D01*
X476916Y50049D01*
X476913Y49968D01*
X476906Y49887D01*
X476895Y49806D01*
X476881Y49727D01*
X476862Y49648D01*
X476840Y49569D01*
X476814Y49493D01*
X476784Y49417D01*
X476751Y49343D01*
X476714Y49271D01*
X476674Y49200D01*
X476630Y49132D01*
X476583Y49066D01*
X476533Y49002D01*
X476480Y48940D01*
X476424Y48882D01*
X474898Y47355D01*
X471844Y50408D01*
X471794Y50461D01*
X471747Y50517D01*
X471702Y50574D01*
X471660Y50634D01*
X471622Y50696D01*
X471587Y50760D01*
X471554Y50825D01*
X471526Y50892D01*
X471500Y50961D01*
X471479Y51030D01*
X471460Y51101D01*
X471446Y51172D01*
X471435Y51244D01*
X471427Y51317D01*
X471423Y51390D01*
X471423Y51462D01*
X471427Y51535D01*
X471435Y51608D01*
X471446Y51680D01*
X471460Y51751D01*
X471479Y51822D01*
X471500Y51891D01*
X471526Y51960D01*
X471554Y52027D01*
X471587Y52092D01*
X471622Y52156D01*
X471660Y52218D01*
X471702Y52278D01*
X471747Y52335D01*
X471794Y52391D01*
X471845Y52444D01*
X471844Y52444D02*
X473201Y53801D01*
X465375Y50045D02*
X471481Y43938D01*
X469785Y42242D01*
X469730Y42191D01*
X469673Y42142D01*
X469613Y42096D01*
X469551Y42053D01*
X469487Y42014D01*
X469420Y41978D01*
X469352Y41945D01*
X469283Y41917D01*
X469212Y41891D01*
X469139Y41870D01*
X469066Y41852D01*
X468992Y41839D01*
X468917Y41829D01*
X468842Y41823D01*
X468767Y41821D01*
X468692Y41823D01*
X468617Y41829D01*
X468542Y41839D01*
X468468Y41852D01*
X468395Y41870D01*
X468322Y41891D01*
X468251Y41917D01*
X468182Y41945D01*
X468114Y41978D01*
X468048Y42014D01*
X467983Y42053D01*
X467921Y42096D01*
X467861Y42142D01*
X467804Y42191D01*
X467750Y42242D01*
X465714Y44278D01*
X465714Y44277D02*
X465664Y44330D01*
X465617Y44386D01*
X465572Y44443D01*
X465530Y44503D01*
X465492Y44565D01*
X465457Y44629D01*
X465424Y44694D01*
X465396Y44761D01*
X465370Y44830D01*
X465349Y44899D01*
X465330Y44970D01*
X465316Y45041D01*
X465305Y45113D01*
X465297Y45186D01*
X465293Y45259D01*
X465293Y45331D01*
X465297Y45404D01*
X465305Y45477D01*
X465316Y45549D01*
X465330Y45620D01*
X465349Y45691D01*
X465370Y45760D01*
X465396Y45829D01*
X465424Y45896D01*
X465457Y45961D01*
X465492Y46025D01*
X465530Y46087D01*
X465572Y46147D01*
X465617Y46204D01*
X465664Y46260D01*
X465714Y46313D01*
X467410Y48010D01*
X459792Y44462D02*
X464881Y39373D01*
X464932Y39318D01*
X464981Y39261D01*
X465027Y39201D01*
X465070Y39139D01*
X465109Y39075D01*
X465145Y39008D01*
X465178Y38940D01*
X465206Y38871D01*
X465232Y38800D01*
X465253Y38727D01*
X465271Y38654D01*
X465284Y38580D01*
X465294Y38505D01*
X465300Y38430D01*
X465302Y38355D01*
X465300Y38280D01*
X465294Y38205D01*
X465284Y38130D01*
X465271Y38056D01*
X465253Y37983D01*
X465232Y37910D01*
X465206Y37839D01*
X465178Y37770D01*
X465145Y37702D01*
X465109Y37636D01*
X465070Y37571D01*
X465027Y37509D01*
X464981Y37449D01*
X464932Y37392D01*
X464881Y37337D01*
X461460Y33917D02*
X459763Y32220D01*
X461460Y33916D02*
X461510Y33969D01*
X461557Y34025D01*
X461602Y34082D01*
X461644Y34142D01*
X461682Y34204D01*
X461717Y34268D01*
X461750Y34333D01*
X461778Y34400D01*
X461804Y34469D01*
X461825Y34538D01*
X461844Y34609D01*
X461858Y34680D01*
X461869Y34752D01*
X461877Y34825D01*
X461881Y34898D01*
X461881Y34970D01*
X461877Y35043D01*
X461869Y35116D01*
X461858Y35188D01*
X461844Y35259D01*
X461825Y35330D01*
X461804Y35399D01*
X461778Y35468D01*
X461750Y35535D01*
X461717Y35600D01*
X461682Y35664D01*
X461644Y35726D01*
X461602Y35786D01*
X461557Y35843D01*
X461510Y35899D01*
X461460Y35952D01*
X459763Y37648D01*
X459700Y37708D01*
X459634Y37766D01*
X459566Y37820D01*
X459495Y37871D01*
X459422Y37919D01*
X459347Y37964D01*
X459269Y38005D01*
X459191Y38042D01*
X459110Y38076D01*
X459028Y38106D01*
X458945Y38133D01*
X458860Y38155D01*
X458775Y38174D01*
X458689Y38189D01*
X458602Y38200D01*
X458515Y38207D01*
X458428Y38210D01*
X458340Y38209D01*
X458253Y38204D01*
X458166Y38195D01*
X458080Y38182D01*
X457994Y38165D01*
X457909Y38145D01*
X457825Y38120D01*
X457743Y38092D01*
X457662Y38060D01*
X457582Y38024D01*
X457504Y37985D01*
X457428Y37942D01*
X457354Y37896D01*
X457282Y37846D01*
X457212Y37793D01*
X457145Y37737D01*
X457080Y37678D01*
X457019Y37617D01*
X456960Y37552D01*
X456904Y37485D01*
X456851Y37415D01*
X456801Y37343D01*
X456755Y37269D01*
X456712Y37193D01*
X456673Y37115D01*
X456637Y37035D01*
X456605Y36954D01*
X456577Y36872D01*
X456552Y36788D01*
X456532Y36703D01*
X456515Y36617D01*
X456502Y36531D01*
X456493Y36444D01*
X456488Y36357D01*
X456487Y36269D01*
X456490Y36182D01*
X456497Y36095D01*
X456508Y36008D01*
X456523Y35922D01*
X456542Y35837D01*
X456564Y35752D01*
X456591Y35669D01*
X456621Y35587D01*
X456655Y35507D01*
X456692Y35428D01*
X456733Y35350D01*
X456778Y35275D01*
X456826Y35202D01*
X456877Y35131D01*
X456931Y35063D01*
X456989Y34997D01*
X457049Y34934D01*
X457728Y34256D01*
X460442Y36970D01*
X453210Y25667D02*
X447103Y31773D01*
X449139Y29738D02*
X447442Y28041D01*
X447442Y28042D02*
X447391Y27987D01*
X447342Y27930D01*
X447296Y27870D01*
X447253Y27808D01*
X447214Y27744D01*
X447178Y27677D01*
X447145Y27609D01*
X447117Y27540D01*
X447091Y27469D01*
X447070Y27396D01*
X447052Y27323D01*
X447039Y27249D01*
X447029Y27174D01*
X447023Y27099D01*
X447021Y27024D01*
X447023Y26949D01*
X447029Y26874D01*
X447039Y26799D01*
X447052Y26725D01*
X447070Y26652D01*
X447091Y26579D01*
X447117Y26508D01*
X447145Y26439D01*
X447178Y26371D01*
X447214Y26305D01*
X447253Y26240D01*
X447296Y26178D01*
X447342Y26118D01*
X447391Y26061D01*
X447442Y26007D01*
X447442Y26006D02*
X450496Y22953D01*
X446373Y18830D02*
X444677Y17133D01*
X446373Y18829D02*
X446423Y18882D01*
X446470Y18938D01*
X446515Y18995D01*
X446557Y19055D01*
X446595Y19117D01*
X446630Y19181D01*
X446663Y19246D01*
X446691Y19313D01*
X446717Y19382D01*
X446738Y19451D01*
X446757Y19522D01*
X446771Y19593D01*
X446782Y19665D01*
X446790Y19738D01*
X446794Y19811D01*
X446794Y19883D01*
X446790Y19956D01*
X446782Y20029D01*
X446771Y20101D01*
X446757Y20172D01*
X446738Y20243D01*
X446717Y20312D01*
X446691Y20381D01*
X446663Y20448D01*
X446630Y20513D01*
X446595Y20577D01*
X446557Y20639D01*
X446515Y20699D01*
X446470Y20756D01*
X446423Y20812D01*
X446373Y20865D01*
X444677Y22561D01*
X444614Y22621D01*
X444548Y22679D01*
X444480Y22733D01*
X444409Y22784D01*
X444336Y22832D01*
X444261Y22877D01*
X444183Y22918D01*
X444105Y22955D01*
X444024Y22989D01*
X443942Y23019D01*
X443859Y23046D01*
X443774Y23068D01*
X443689Y23087D01*
X443603Y23102D01*
X443516Y23113D01*
X443429Y23120D01*
X443342Y23123D01*
X443254Y23122D01*
X443167Y23117D01*
X443080Y23108D01*
X442994Y23095D01*
X442908Y23078D01*
X442823Y23058D01*
X442739Y23033D01*
X442657Y23005D01*
X442576Y22973D01*
X442496Y22937D01*
X442418Y22898D01*
X442342Y22855D01*
X442268Y22809D01*
X442196Y22759D01*
X442126Y22706D01*
X442059Y22650D01*
X441994Y22591D01*
X441933Y22530D01*
X441874Y22465D01*
X441818Y22398D01*
X441765Y22328D01*
X441715Y22256D01*
X441669Y22182D01*
X441626Y22106D01*
X441587Y22028D01*
X441551Y21948D01*
X441519Y21867D01*
X441491Y21785D01*
X441466Y21701D01*
X441446Y21616D01*
X441429Y21530D01*
X441416Y21444D01*
X441407Y21357D01*
X441402Y21270D01*
X441401Y21182D01*
X441404Y21095D01*
X441411Y21008D01*
X441422Y20921D01*
X441437Y20835D01*
X441456Y20750D01*
X441478Y20665D01*
X441505Y20582D01*
X441535Y20500D01*
X441569Y20420D01*
X441606Y20341D01*
X441647Y20263D01*
X441692Y20188D01*
X441740Y20115D01*
X441791Y20044D01*
X441845Y19976D01*
X441903Y19910D01*
X441963Y19847D01*
X442641Y19169D01*
X445355Y21883D01*
X441517Y13974D02*
X437446Y18045D01*
X435411Y16010D01*
X436089Y15331D01*
X436243Y8700D02*
X434547Y7004D01*
X436244Y8700D02*
X436294Y8753D01*
X436341Y8809D01*
X436386Y8866D01*
X436428Y8926D01*
X436466Y8988D01*
X436501Y9052D01*
X436534Y9117D01*
X436562Y9184D01*
X436588Y9253D01*
X436609Y9322D01*
X436628Y9393D01*
X436642Y9464D01*
X436653Y9536D01*
X436661Y9609D01*
X436665Y9682D01*
X436665Y9754D01*
X436661Y9827D01*
X436653Y9900D01*
X436642Y9972D01*
X436628Y10043D01*
X436609Y10114D01*
X436588Y10183D01*
X436562Y10252D01*
X436534Y10319D01*
X436501Y10384D01*
X436466Y10448D01*
X436428Y10510D01*
X436386Y10570D01*
X436341Y10627D01*
X436294Y10683D01*
X436244Y10736D01*
X436243Y10735D02*
X434547Y12432D01*
X434485Y12491D01*
X434420Y12548D01*
X434353Y12602D01*
X434283Y12652D01*
X434211Y12700D01*
X434137Y12744D01*
X434061Y12785D01*
X433984Y12822D01*
X433904Y12856D01*
X433824Y12886D01*
X433742Y12913D01*
X433659Y12936D01*
X433575Y12955D01*
X433490Y12970D01*
X433405Y12982D01*
X433319Y12990D01*
X433233Y12994D01*
X433147Y12994D01*
X433061Y12990D01*
X432975Y12982D01*
X432890Y12970D01*
X432805Y12955D01*
X432721Y12936D01*
X432638Y12913D01*
X432556Y12886D01*
X432476Y12856D01*
X432396Y12822D01*
X432319Y12785D01*
X432243Y12744D01*
X432169Y12700D01*
X432097Y12652D01*
X432027Y12602D01*
X431960Y12548D01*
X431895Y12491D01*
X431833Y12432D01*
X431774Y12370D01*
X431717Y12305D01*
X431663Y12238D01*
X431613Y12168D01*
X431565Y12096D01*
X431521Y12022D01*
X431480Y11946D01*
X431443Y11869D01*
X431409Y11789D01*
X431379Y11709D01*
X431352Y11627D01*
X431329Y11544D01*
X431310Y11460D01*
X431295Y11375D01*
X431283Y11290D01*
X431275Y11204D01*
X431271Y11118D01*
X431271Y11032D01*
X431275Y10946D01*
X431283Y10860D01*
X431295Y10775D01*
X431310Y10690D01*
X431329Y10606D01*
X431352Y10523D01*
X431379Y10441D01*
X431409Y10361D01*
X431443Y10281D01*
X431480Y10204D01*
X431521Y10128D01*
X431565Y10054D01*
X431613Y9982D01*
X431663Y9912D01*
X431717Y9845D01*
X431774Y9780D01*
X431833Y9718D01*
X432511Y9039D01*
X435225Y11753D01*
D10*
X294500Y94500D02*
X252500Y136500D01*
X294500Y94500D02*
X1582410Y94500D01*
X1621410Y133500D01*
X1644810Y133500D01*
X1648800Y129500D01*
X1648800Y-70000D01*
X1645300Y-73500D01*
X1509800Y-74000D01*
X1448300Y-12500D01*
X390500Y-12000D01*
X368000Y-34500D01*
X25500Y-34500D01*
D11*
X521484Y84284D02*
X530120Y92920D01*
X514413Y77213D02*
X505776Y68576D01*
X498705Y61505D02*
X490069Y52869D01*
X482998Y45798D02*
X474362Y37162D01*
X467291Y30091D02*
X458655Y21455D01*
X451584Y14384D02*
X442947Y5747D01*
X435876Y-1324D02*
X427240Y-9960D01*
X1427501Y-2171D02*
X1436500Y-11170D01*
X1420430Y4900D02*
X1411431Y13899D01*
X1404360Y20970D02*
X1395361Y29969D01*
X1388290Y37040D02*
X1379290Y46040D01*
X1372219Y53111D02*
X1363220Y62110D01*
X1356149Y69181D02*
X1347150Y78180D01*
X1340079Y85251D02*
X1331080Y94250D01*
X1327070Y-10160D02*
X1426130Y-10160D01*
X1327070Y-10160D02*
X1327070Y88900D01*
X1426130Y-10160D01*
X1422066Y-6096D02*
X1327070Y-6096D01*
X1327070Y0D02*
X1415970Y0D01*
X1409874Y6096D02*
X1327070Y6096D01*
X1327070Y12192D02*
X1403778Y12192D01*
X1397682Y18288D02*
X1327070Y18288D01*
X1327070Y24384D02*
X1391586Y24384D01*
X1385490Y30480D02*
X1327070Y30480D01*
X1327070Y36576D02*
X1379394Y36576D01*
X1373298Y42672D02*
X1327070Y42672D01*
X1327070Y48768D02*
X1367202Y48768D01*
X1361106Y54864D02*
X1327070Y54864D01*
X1327070Y60960D02*
X1355010Y60960D01*
X1348914Y67056D02*
X1327070Y67056D01*
X1327070Y73152D02*
X1342818Y73152D01*
X1336722Y79248D02*
X1327070Y79248D01*
X1327070Y85344D02*
X1330626Y85344D01*
X1328928Y87042D02*
X1328928Y-10160D01*
X1335024Y-10160D02*
X1335024Y80946D01*
X1341120Y74850D02*
X1341120Y-10160D01*
X1347216Y-10160D02*
X1347216Y68754D01*
X1353312Y62658D02*
X1353312Y-10160D01*
X1359408Y-10160D02*
X1359408Y56562D01*
X1365504Y50466D02*
X1365504Y-10160D01*
X1371600Y-10160D02*
X1371600Y44370D01*
X1377696Y38274D02*
X1377696Y-10160D01*
X1383792Y-10160D02*
X1383792Y32178D01*
X1389888Y26082D02*
X1389888Y-10160D01*
X1395984Y-10160D02*
X1395984Y19986D01*
X1402080Y13890D02*
X1402080Y-10160D01*
X1408176Y-10160D02*
X1408176Y7794D01*
X1414272Y1698D02*
X1414272Y-10160D01*
X1420368Y-10160D02*
X1420368Y-4398D01*
X1431140Y9418D02*
X1437247Y15524D01*
X1431140Y9418D02*
X1429444Y11114D01*
X1429393Y11169D01*
X1429344Y11226D01*
X1429298Y11286D01*
X1429255Y11348D01*
X1429216Y11412D01*
X1429180Y11479D01*
X1429147Y11547D01*
X1429119Y11616D01*
X1429093Y11687D01*
X1429072Y11760D01*
X1429054Y11833D01*
X1429041Y11907D01*
X1429031Y11982D01*
X1429025Y12057D01*
X1429023Y12132D01*
X1429025Y12207D01*
X1429031Y12282D01*
X1429041Y12357D01*
X1429054Y12431D01*
X1429072Y12504D01*
X1429093Y12577D01*
X1429119Y12648D01*
X1429147Y12717D01*
X1429180Y12785D01*
X1429216Y12851D01*
X1429255Y12916D01*
X1429298Y12978D01*
X1429344Y13038D01*
X1429393Y13095D01*
X1429444Y13149D01*
X1431479Y15185D01*
X1431532Y15235D01*
X1431588Y15282D01*
X1431645Y15327D01*
X1431705Y15369D01*
X1431767Y15407D01*
X1431831Y15442D01*
X1431896Y15475D01*
X1431963Y15503D01*
X1432032Y15529D01*
X1432101Y15550D01*
X1432172Y15569D01*
X1432243Y15583D01*
X1432315Y15594D01*
X1432388Y15602D01*
X1432461Y15606D01*
X1432533Y15606D01*
X1432606Y15602D01*
X1432679Y15594D01*
X1432751Y15583D01*
X1432822Y15569D01*
X1432893Y15550D01*
X1432962Y15529D01*
X1433031Y15503D01*
X1433098Y15475D01*
X1433163Y15442D01*
X1433227Y15407D01*
X1433289Y15369D01*
X1433349Y15327D01*
X1433406Y15282D01*
X1433462Y15235D01*
X1433515Y15185D01*
X1435211Y13489D01*
X1424567Y15991D02*
X1422870Y17687D01*
X1424566Y15991D02*
X1424619Y15941D01*
X1424675Y15894D01*
X1424732Y15849D01*
X1424792Y15807D01*
X1424854Y15769D01*
X1424918Y15734D01*
X1424983Y15701D01*
X1425050Y15673D01*
X1425119Y15647D01*
X1425188Y15626D01*
X1425259Y15607D01*
X1425330Y15593D01*
X1425402Y15582D01*
X1425475Y15574D01*
X1425548Y15570D01*
X1425620Y15570D01*
X1425693Y15574D01*
X1425766Y15582D01*
X1425838Y15593D01*
X1425909Y15607D01*
X1425980Y15626D01*
X1426049Y15647D01*
X1426118Y15673D01*
X1426185Y15701D01*
X1426250Y15734D01*
X1426314Y15769D01*
X1426376Y15807D01*
X1426436Y15849D01*
X1426493Y15894D01*
X1426549Y15941D01*
X1426602Y15991D01*
X1428298Y17687D01*
X1428357Y17749D01*
X1428414Y17814D01*
X1428468Y17881D01*
X1428518Y17951D01*
X1428566Y18023D01*
X1428610Y18097D01*
X1428651Y18173D01*
X1428688Y18250D01*
X1428722Y18330D01*
X1428752Y18410D01*
X1428779Y18492D01*
X1428802Y18575D01*
X1428821Y18659D01*
X1428836Y18744D01*
X1428848Y18829D01*
X1428856Y18915D01*
X1428860Y19001D01*
X1428860Y19087D01*
X1428856Y19173D01*
X1428848Y19259D01*
X1428836Y19344D01*
X1428821Y19429D01*
X1428802Y19513D01*
X1428779Y19596D01*
X1428752Y19678D01*
X1428722Y19758D01*
X1428688Y19838D01*
X1428651Y19915D01*
X1428610Y19991D01*
X1428566Y20065D01*
X1428518Y20137D01*
X1428468Y20207D01*
X1428414Y20274D01*
X1428357Y20339D01*
X1428298Y20401D01*
X1428236Y20460D01*
X1428171Y20517D01*
X1428104Y20571D01*
X1428034Y20621D01*
X1427962Y20669D01*
X1427888Y20713D01*
X1427812Y20754D01*
X1427735Y20791D01*
X1427655Y20825D01*
X1427575Y20855D01*
X1427493Y20882D01*
X1427410Y20905D01*
X1427326Y20924D01*
X1427241Y20939D01*
X1427156Y20951D01*
X1427070Y20959D01*
X1426984Y20963D01*
X1426898Y20963D01*
X1426812Y20959D01*
X1426726Y20951D01*
X1426641Y20939D01*
X1426556Y20924D01*
X1426472Y20905D01*
X1426389Y20882D01*
X1426307Y20855D01*
X1426227Y20825D01*
X1426147Y20791D01*
X1426070Y20754D01*
X1425994Y20713D01*
X1425920Y20669D01*
X1425848Y20621D01*
X1425778Y20571D01*
X1425711Y20517D01*
X1425646Y20460D01*
X1425584Y20401D01*
X1424906Y19723D01*
X1427620Y17009D01*
X1419765Y20793D02*
X1423836Y24864D01*
X1422140Y26560D01*
X1422085Y26611D01*
X1422028Y26660D01*
X1421968Y26706D01*
X1421906Y26749D01*
X1421842Y26788D01*
X1421775Y26824D01*
X1421707Y26857D01*
X1421638Y26885D01*
X1421567Y26911D01*
X1421494Y26932D01*
X1421421Y26950D01*
X1421347Y26963D01*
X1421272Y26973D01*
X1421197Y26979D01*
X1421122Y26981D01*
X1421047Y26979D01*
X1420972Y26973D01*
X1420897Y26963D01*
X1420823Y26950D01*
X1420750Y26932D01*
X1420677Y26911D01*
X1420606Y26885D01*
X1420537Y26857D01*
X1420469Y26824D01*
X1420403Y26788D01*
X1420338Y26749D01*
X1420276Y26706D01*
X1420216Y26660D01*
X1420159Y26611D01*
X1420105Y26560D01*
X1420104Y26560D02*
X1417051Y23507D01*
X1411280Y29278D02*
X1417386Y35384D01*
X1411280Y29278D02*
X1412976Y27582D01*
X1412976Y27581D02*
X1413029Y27531D01*
X1413085Y27484D01*
X1413142Y27439D01*
X1413202Y27397D01*
X1413264Y27359D01*
X1413328Y27324D01*
X1413393Y27291D01*
X1413460Y27263D01*
X1413529Y27237D01*
X1413598Y27216D01*
X1413669Y27197D01*
X1413740Y27183D01*
X1413812Y27172D01*
X1413885Y27164D01*
X1413958Y27160D01*
X1414030Y27160D01*
X1414103Y27164D01*
X1414176Y27172D01*
X1414248Y27183D01*
X1414319Y27197D01*
X1414390Y27216D01*
X1414459Y27237D01*
X1414528Y27263D01*
X1414595Y27291D01*
X1414660Y27324D01*
X1414724Y27359D01*
X1414786Y27397D01*
X1414846Y27439D01*
X1414903Y27484D01*
X1414959Y27531D01*
X1415012Y27581D01*
X1415012Y27582D02*
X1417047Y29617D01*
X1417098Y29672D01*
X1417147Y29729D01*
X1417193Y29789D01*
X1417236Y29851D01*
X1417275Y29916D01*
X1417311Y29982D01*
X1417344Y30050D01*
X1417372Y30119D01*
X1417398Y30190D01*
X1417419Y30263D01*
X1417437Y30336D01*
X1417450Y30410D01*
X1417460Y30485D01*
X1417466Y30560D01*
X1417468Y30635D01*
X1417466Y30710D01*
X1417460Y30785D01*
X1417450Y30860D01*
X1417437Y30934D01*
X1417419Y31007D01*
X1417398Y31080D01*
X1417372Y31151D01*
X1417344Y31220D01*
X1417311Y31288D01*
X1417275Y31355D01*
X1417236Y31419D01*
X1417193Y31481D01*
X1417147Y31541D01*
X1417098Y31598D01*
X1417047Y31653D01*
X1415351Y33349D01*
X1403650Y36908D02*
X1402293Y38265D01*
X1403650Y36907D02*
X1403703Y36857D01*
X1403759Y36810D01*
X1403816Y36765D01*
X1403876Y36723D01*
X1403938Y36685D01*
X1404002Y36650D01*
X1404067Y36617D01*
X1404134Y36589D01*
X1404203Y36563D01*
X1404272Y36542D01*
X1404343Y36523D01*
X1404414Y36509D01*
X1404486Y36498D01*
X1404559Y36490D01*
X1404632Y36486D01*
X1404704Y36486D01*
X1404777Y36490D01*
X1404850Y36498D01*
X1404922Y36509D01*
X1404993Y36523D01*
X1405064Y36542D01*
X1405133Y36563D01*
X1405202Y36589D01*
X1405269Y36617D01*
X1405334Y36650D01*
X1405398Y36685D01*
X1405460Y36723D01*
X1405520Y36765D01*
X1405577Y36810D01*
X1405633Y36857D01*
X1405686Y36907D01*
X1405685Y36908D02*
X1407721Y38943D01*
X1407772Y38998D01*
X1407821Y39055D01*
X1407867Y39115D01*
X1407910Y39177D01*
X1407949Y39242D01*
X1407985Y39308D01*
X1408018Y39376D01*
X1408046Y39445D01*
X1408072Y39516D01*
X1408093Y39589D01*
X1408111Y39662D01*
X1408124Y39736D01*
X1408134Y39811D01*
X1408140Y39886D01*
X1408142Y39961D01*
X1408140Y40036D01*
X1408134Y40111D01*
X1408124Y40186D01*
X1408111Y40260D01*
X1408093Y40333D01*
X1408072Y40406D01*
X1408046Y40477D01*
X1408018Y40546D01*
X1407985Y40614D01*
X1407949Y40681D01*
X1407910Y40745D01*
X1407867Y40807D01*
X1407821Y40867D01*
X1407772Y40924D01*
X1407721Y40979D01*
X1406364Y42336D01*
X1400957Y44350D02*
X1399430Y45877D01*
X1400956Y44350D02*
X1401012Y44291D01*
X1401065Y44230D01*
X1401115Y44166D01*
X1401162Y44100D01*
X1401206Y44032D01*
X1401246Y43961D01*
X1401283Y43889D01*
X1401316Y43815D01*
X1401346Y43739D01*
X1401372Y43663D01*
X1401394Y43584D01*
X1401413Y43505D01*
X1401427Y43426D01*
X1401438Y43345D01*
X1401445Y43264D01*
X1401448Y43183D01*
X1401447Y43102D01*
X1401442Y43021D01*
X1401433Y42940D01*
X1401420Y42860D01*
X1401404Y42781D01*
X1401384Y42702D01*
X1401359Y42625D01*
X1401332Y42549D01*
X1401300Y42474D01*
X1401265Y42401D01*
X1401226Y42329D01*
X1401184Y42260D01*
X1401139Y42193D01*
X1401091Y42128D01*
X1401039Y42065D01*
X1400985Y42005D01*
X1400927Y41947D01*
X1400867Y41893D01*
X1400804Y41841D01*
X1400739Y41793D01*
X1400672Y41748D01*
X1400603Y41706D01*
X1400531Y41667D01*
X1400458Y41632D01*
X1400383Y41600D01*
X1400307Y41573D01*
X1400230Y41548D01*
X1400151Y41528D01*
X1400072Y41512D01*
X1399992Y41499D01*
X1399911Y41490D01*
X1399830Y41485D01*
X1399749Y41484D01*
X1399668Y41487D01*
X1399587Y41494D01*
X1399506Y41505D01*
X1399427Y41519D01*
X1399348Y41538D01*
X1399269Y41560D01*
X1399193Y41586D01*
X1399117Y41616D01*
X1399043Y41649D01*
X1398971Y41686D01*
X1398900Y41726D01*
X1398832Y41770D01*
X1398766Y41817D01*
X1398702Y41867D01*
X1398641Y41920D01*
X1398582Y41976D01*
X1397055Y43502D01*
X1400109Y46556D01*
X1400108Y46556D02*
X1400161Y46606D01*
X1400217Y46653D01*
X1400274Y46698D01*
X1400334Y46740D01*
X1400396Y46778D01*
X1400460Y46813D01*
X1400525Y46846D01*
X1400592Y46874D01*
X1400661Y46900D01*
X1400730Y46921D01*
X1400801Y46940D01*
X1400872Y46954D01*
X1400944Y46965D01*
X1401017Y46973D01*
X1401090Y46977D01*
X1401162Y46977D01*
X1401235Y46973D01*
X1401308Y46965D01*
X1401380Y46954D01*
X1401451Y46940D01*
X1401522Y46921D01*
X1401591Y46900D01*
X1401660Y46874D01*
X1401727Y46846D01*
X1401792Y46813D01*
X1401856Y46778D01*
X1401918Y46740D01*
X1401978Y46698D01*
X1402035Y46653D01*
X1402091Y46606D01*
X1402144Y46555D01*
X1402144Y46556D02*
X1403501Y45199D01*
X1399746Y53025D02*
X1393639Y46919D01*
X1391943Y48615D01*
X1391892Y48670D01*
X1391843Y48727D01*
X1391797Y48787D01*
X1391754Y48849D01*
X1391715Y48913D01*
X1391679Y48980D01*
X1391646Y49048D01*
X1391618Y49117D01*
X1391592Y49188D01*
X1391571Y49261D01*
X1391553Y49334D01*
X1391540Y49408D01*
X1391530Y49483D01*
X1391524Y49558D01*
X1391522Y49633D01*
X1391524Y49708D01*
X1391530Y49783D01*
X1391540Y49858D01*
X1391553Y49932D01*
X1391571Y50005D01*
X1391592Y50078D01*
X1391618Y50149D01*
X1391646Y50218D01*
X1391679Y50286D01*
X1391715Y50352D01*
X1391754Y50417D01*
X1391797Y50479D01*
X1391843Y50539D01*
X1391892Y50596D01*
X1391943Y50650D01*
X1393978Y52686D01*
X1394031Y52736D01*
X1394087Y52783D01*
X1394144Y52828D01*
X1394204Y52870D01*
X1394266Y52908D01*
X1394330Y52943D01*
X1394395Y52976D01*
X1394462Y53004D01*
X1394531Y53030D01*
X1394600Y53051D01*
X1394671Y53070D01*
X1394742Y53084D01*
X1394814Y53095D01*
X1394887Y53103D01*
X1394960Y53107D01*
X1395032Y53107D01*
X1395105Y53103D01*
X1395178Y53095D01*
X1395250Y53084D01*
X1395321Y53070D01*
X1395392Y53051D01*
X1395461Y53030D01*
X1395530Y53004D01*
X1395597Y52976D01*
X1395662Y52943D01*
X1395726Y52908D01*
X1395788Y52870D01*
X1395848Y52828D01*
X1395905Y52783D01*
X1395961Y52736D01*
X1396014Y52686D01*
X1397710Y50990D01*
X1394163Y58608D02*
X1389074Y53519D01*
X1389019Y53468D01*
X1388962Y53419D01*
X1388902Y53373D01*
X1388840Y53330D01*
X1388776Y53291D01*
X1388709Y53255D01*
X1388641Y53222D01*
X1388572Y53194D01*
X1388501Y53168D01*
X1388428Y53147D01*
X1388355Y53129D01*
X1388281Y53116D01*
X1388206Y53106D01*
X1388131Y53100D01*
X1388056Y53098D01*
X1387981Y53100D01*
X1387906Y53106D01*
X1387831Y53116D01*
X1387757Y53129D01*
X1387684Y53147D01*
X1387611Y53168D01*
X1387540Y53194D01*
X1387471Y53222D01*
X1387403Y53255D01*
X1387337Y53291D01*
X1387272Y53330D01*
X1387210Y53373D01*
X1387150Y53419D01*
X1387093Y53468D01*
X1387038Y53519D01*
X1383617Y56941D02*
X1381921Y58637D01*
X1383617Y56940D02*
X1383670Y56890D01*
X1383726Y56843D01*
X1383783Y56798D01*
X1383843Y56756D01*
X1383905Y56718D01*
X1383969Y56683D01*
X1384034Y56650D01*
X1384101Y56622D01*
X1384170Y56596D01*
X1384239Y56575D01*
X1384310Y56556D01*
X1384381Y56542D01*
X1384453Y56531D01*
X1384526Y56523D01*
X1384599Y56519D01*
X1384671Y56519D01*
X1384744Y56523D01*
X1384817Y56531D01*
X1384889Y56542D01*
X1384960Y56556D01*
X1385031Y56575D01*
X1385100Y56596D01*
X1385169Y56622D01*
X1385236Y56650D01*
X1385301Y56683D01*
X1385365Y56718D01*
X1385427Y56756D01*
X1385487Y56798D01*
X1385544Y56843D01*
X1385600Y56890D01*
X1385653Y56940D01*
X1385653Y56941D02*
X1387349Y58637D01*
X1387408Y58699D01*
X1387465Y58764D01*
X1387519Y58831D01*
X1387569Y58901D01*
X1387617Y58973D01*
X1387661Y59047D01*
X1387702Y59123D01*
X1387739Y59200D01*
X1387773Y59280D01*
X1387803Y59360D01*
X1387830Y59442D01*
X1387853Y59525D01*
X1387872Y59609D01*
X1387887Y59694D01*
X1387899Y59779D01*
X1387907Y59865D01*
X1387911Y59951D01*
X1387911Y60037D01*
X1387907Y60123D01*
X1387899Y60209D01*
X1387887Y60294D01*
X1387872Y60379D01*
X1387853Y60463D01*
X1387830Y60546D01*
X1387803Y60628D01*
X1387773Y60708D01*
X1387739Y60788D01*
X1387702Y60865D01*
X1387661Y60941D01*
X1387617Y61015D01*
X1387569Y61087D01*
X1387519Y61157D01*
X1387465Y61224D01*
X1387408Y61289D01*
X1387349Y61351D01*
X1387287Y61410D01*
X1387222Y61467D01*
X1387155Y61521D01*
X1387085Y61571D01*
X1387013Y61619D01*
X1386939Y61663D01*
X1386863Y61704D01*
X1386786Y61741D01*
X1386706Y61775D01*
X1386626Y61805D01*
X1386544Y61832D01*
X1386461Y61855D01*
X1386377Y61874D01*
X1386292Y61889D01*
X1386207Y61901D01*
X1386121Y61909D01*
X1386035Y61913D01*
X1385949Y61913D01*
X1385863Y61909D01*
X1385777Y61901D01*
X1385692Y61889D01*
X1385607Y61874D01*
X1385523Y61855D01*
X1385440Y61832D01*
X1385358Y61805D01*
X1385278Y61775D01*
X1385198Y61741D01*
X1385121Y61704D01*
X1385045Y61663D01*
X1384971Y61619D01*
X1384899Y61571D01*
X1384829Y61521D01*
X1384762Y61467D01*
X1384697Y61410D01*
X1384635Y61351D01*
X1383956Y60672D01*
X1386670Y57958D01*
X1375367Y65190D02*
X1381474Y71297D01*
X1379438Y69261D02*
X1377742Y70958D01*
X1377687Y71009D01*
X1377630Y71058D01*
X1377570Y71104D01*
X1377508Y71147D01*
X1377444Y71186D01*
X1377377Y71222D01*
X1377309Y71255D01*
X1377240Y71283D01*
X1377169Y71309D01*
X1377096Y71330D01*
X1377023Y71348D01*
X1376949Y71361D01*
X1376874Y71371D01*
X1376799Y71377D01*
X1376724Y71379D01*
X1376649Y71377D01*
X1376574Y71371D01*
X1376499Y71361D01*
X1376425Y71348D01*
X1376352Y71330D01*
X1376279Y71309D01*
X1376208Y71283D01*
X1376139Y71255D01*
X1376071Y71222D01*
X1376005Y71186D01*
X1375940Y71147D01*
X1375878Y71104D01*
X1375818Y71058D01*
X1375761Y71009D01*
X1375707Y70958D01*
X1372653Y67904D01*
X1368531Y72027D02*
X1366834Y73723D01*
X1368530Y72027D02*
X1368583Y71977D01*
X1368639Y71930D01*
X1368696Y71885D01*
X1368756Y71843D01*
X1368818Y71805D01*
X1368882Y71770D01*
X1368947Y71737D01*
X1369014Y71709D01*
X1369083Y71683D01*
X1369152Y71662D01*
X1369223Y71643D01*
X1369294Y71629D01*
X1369366Y71618D01*
X1369439Y71610D01*
X1369512Y71606D01*
X1369584Y71606D01*
X1369657Y71610D01*
X1369730Y71618D01*
X1369802Y71629D01*
X1369873Y71643D01*
X1369944Y71662D01*
X1370013Y71683D01*
X1370082Y71709D01*
X1370149Y71737D01*
X1370214Y71770D01*
X1370278Y71805D01*
X1370340Y71843D01*
X1370400Y71885D01*
X1370457Y71930D01*
X1370513Y71977D01*
X1370566Y72027D01*
X1372262Y73723D01*
X1372321Y73785D01*
X1372378Y73850D01*
X1372432Y73917D01*
X1372482Y73987D01*
X1372530Y74059D01*
X1372574Y74133D01*
X1372615Y74209D01*
X1372652Y74286D01*
X1372686Y74366D01*
X1372716Y74446D01*
X1372743Y74528D01*
X1372766Y74611D01*
X1372785Y74695D01*
X1372800Y74780D01*
X1372812Y74865D01*
X1372820Y74951D01*
X1372824Y75037D01*
X1372824Y75123D01*
X1372820Y75209D01*
X1372812Y75295D01*
X1372800Y75380D01*
X1372785Y75465D01*
X1372766Y75549D01*
X1372743Y75632D01*
X1372716Y75714D01*
X1372686Y75794D01*
X1372652Y75874D01*
X1372615Y75951D01*
X1372574Y76027D01*
X1372530Y76101D01*
X1372482Y76173D01*
X1372432Y76243D01*
X1372378Y76310D01*
X1372321Y76375D01*
X1372262Y76437D01*
X1372200Y76496D01*
X1372135Y76553D01*
X1372068Y76607D01*
X1371998Y76657D01*
X1371926Y76705D01*
X1371852Y76749D01*
X1371776Y76790D01*
X1371699Y76827D01*
X1371619Y76861D01*
X1371539Y76891D01*
X1371457Y76918D01*
X1371374Y76941D01*
X1371290Y76960D01*
X1371205Y76975D01*
X1371120Y76987D01*
X1371034Y76995D01*
X1370948Y76999D01*
X1370862Y76999D01*
X1370776Y76995D01*
X1370690Y76987D01*
X1370605Y76975D01*
X1370520Y76960D01*
X1370436Y76941D01*
X1370353Y76918D01*
X1370271Y76891D01*
X1370191Y76861D01*
X1370111Y76827D01*
X1370034Y76790D01*
X1369958Y76749D01*
X1369884Y76705D01*
X1369812Y76657D01*
X1369742Y76607D01*
X1369675Y76553D01*
X1369610Y76496D01*
X1369548Y76437D01*
X1368870Y75759D01*
X1371584Y73045D01*
X1363675Y76883D02*
X1367746Y80954D01*
X1365711Y82989D01*
X1365032Y82311D01*
X1358401Y82157D02*
X1356705Y83853D01*
X1358401Y82157D02*
X1358454Y82107D01*
X1358510Y82060D01*
X1358567Y82015D01*
X1358627Y81973D01*
X1358689Y81935D01*
X1358753Y81900D01*
X1358818Y81867D01*
X1358885Y81839D01*
X1358954Y81813D01*
X1359023Y81792D01*
X1359094Y81773D01*
X1359165Y81759D01*
X1359237Y81748D01*
X1359310Y81740D01*
X1359383Y81736D01*
X1359455Y81736D01*
X1359528Y81740D01*
X1359601Y81748D01*
X1359673Y81759D01*
X1359744Y81773D01*
X1359815Y81792D01*
X1359884Y81813D01*
X1359953Y81839D01*
X1360020Y81867D01*
X1360085Y81900D01*
X1360149Y81935D01*
X1360211Y81973D01*
X1360271Y82015D01*
X1360328Y82060D01*
X1360384Y82107D01*
X1360437Y82157D01*
X1360436Y82157D02*
X1362133Y83853D01*
X1362192Y83915D01*
X1362249Y83980D01*
X1362303Y84047D01*
X1362353Y84117D01*
X1362401Y84189D01*
X1362445Y84263D01*
X1362486Y84339D01*
X1362523Y84416D01*
X1362557Y84496D01*
X1362587Y84576D01*
X1362614Y84658D01*
X1362637Y84741D01*
X1362656Y84825D01*
X1362671Y84910D01*
X1362683Y84995D01*
X1362691Y85081D01*
X1362695Y85167D01*
X1362695Y85253D01*
X1362691Y85339D01*
X1362683Y85425D01*
X1362671Y85510D01*
X1362656Y85595D01*
X1362637Y85679D01*
X1362614Y85762D01*
X1362587Y85844D01*
X1362557Y85924D01*
X1362523Y86004D01*
X1362486Y86081D01*
X1362445Y86157D01*
X1362401Y86231D01*
X1362353Y86303D01*
X1362303Y86373D01*
X1362249Y86440D01*
X1362192Y86505D01*
X1362133Y86567D01*
X1362071Y86626D01*
X1362006Y86683D01*
X1361939Y86737D01*
X1361869Y86787D01*
X1361797Y86835D01*
X1361723Y86879D01*
X1361647Y86920D01*
X1361570Y86957D01*
X1361490Y86991D01*
X1361410Y87021D01*
X1361328Y87048D01*
X1361245Y87071D01*
X1361161Y87090D01*
X1361076Y87105D01*
X1360991Y87117D01*
X1360905Y87125D01*
X1360819Y87129D01*
X1360733Y87129D01*
X1360647Y87125D01*
X1360561Y87117D01*
X1360476Y87105D01*
X1360391Y87090D01*
X1360307Y87071D01*
X1360224Y87048D01*
X1360142Y87021D01*
X1360062Y86991D01*
X1359982Y86957D01*
X1359905Y86920D01*
X1359829Y86879D01*
X1359755Y86835D01*
X1359683Y86787D01*
X1359613Y86737D01*
X1359546Y86683D01*
X1359481Y86626D01*
X1359419Y86567D01*
X1358740Y85889D01*
X1361454Y83175D01*
D12*
X1603375Y62601D02*
X1603375Y51933D01*
X1600411Y51933D01*
X1600329Y51935D01*
X1600247Y51941D01*
X1600165Y51950D01*
X1600084Y51963D01*
X1600004Y51980D01*
X1599924Y52001D01*
X1599846Y52025D01*
X1599769Y52053D01*
X1599693Y52084D01*
X1599618Y52119D01*
X1599546Y52158D01*
X1599475Y52199D01*
X1599406Y52244D01*
X1599340Y52292D01*
X1599275Y52343D01*
X1599213Y52397D01*
X1599154Y52454D01*
X1599097Y52513D01*
X1599043Y52575D01*
X1598992Y52640D01*
X1598944Y52706D01*
X1598899Y52775D01*
X1598858Y52846D01*
X1598819Y52918D01*
X1598784Y52993D01*
X1598753Y53069D01*
X1598725Y53146D01*
X1598701Y53224D01*
X1598680Y53304D01*
X1598663Y53384D01*
X1598650Y53465D01*
X1598641Y53547D01*
X1598635Y53629D01*
X1598633Y53711D01*
X1598633Y57267D01*
X1598635Y57349D01*
X1598641Y57431D01*
X1598650Y57513D01*
X1598663Y57594D01*
X1598680Y57674D01*
X1598701Y57754D01*
X1598725Y57832D01*
X1598753Y57909D01*
X1598784Y57985D01*
X1598819Y58060D01*
X1598858Y58132D01*
X1598899Y58203D01*
X1598944Y58272D01*
X1598992Y58338D01*
X1599043Y58403D01*
X1599097Y58465D01*
X1599154Y58524D01*
X1599213Y58581D01*
X1599275Y58635D01*
X1599340Y58686D01*
X1599406Y58734D01*
X1599475Y58779D01*
X1599546Y58820D01*
X1599618Y58859D01*
X1599693Y58894D01*
X1599769Y58925D01*
X1599846Y58953D01*
X1599924Y58977D01*
X1600004Y58998D01*
X1600084Y59015D01*
X1600165Y59028D01*
X1600247Y59037D01*
X1600329Y59043D01*
X1600411Y59045D01*
X1603375Y59045D01*
X1593557Y56674D02*
X1593557Y54304D01*
X1593557Y56674D02*
X1593555Y56771D01*
X1593549Y56867D01*
X1593539Y56963D01*
X1593525Y57059D01*
X1593508Y57154D01*
X1593486Y57249D01*
X1593461Y57342D01*
X1593432Y57434D01*
X1593399Y57525D01*
X1593362Y57615D01*
X1593322Y57703D01*
X1593278Y57789D01*
X1593231Y57873D01*
X1593181Y57956D01*
X1593127Y58036D01*
X1593069Y58114D01*
X1593009Y58190D01*
X1592946Y58263D01*
X1592880Y58333D01*
X1592810Y58401D01*
X1592739Y58466D01*
X1592664Y58528D01*
X1592587Y58586D01*
X1592508Y58642D01*
X1592427Y58694D01*
X1592343Y58743D01*
X1592258Y58789D01*
X1592171Y58831D01*
X1592082Y58869D01*
X1591992Y58904D01*
X1591900Y58935D01*
X1591807Y58962D01*
X1591714Y58986D01*
X1591619Y59005D01*
X1591523Y59021D01*
X1591427Y59033D01*
X1591331Y59041D01*
X1591234Y59045D01*
X1591138Y59045D01*
X1591041Y59041D01*
X1590945Y59033D01*
X1590849Y59021D01*
X1590753Y59005D01*
X1590658Y58986D01*
X1590565Y58962D01*
X1590472Y58935D01*
X1590380Y58904D01*
X1590290Y58869D01*
X1590201Y58831D01*
X1590114Y58789D01*
X1590029Y58743D01*
X1589945Y58694D01*
X1589864Y58642D01*
X1589785Y58586D01*
X1589708Y58528D01*
X1589633Y58466D01*
X1589562Y58401D01*
X1589492Y58333D01*
X1589426Y58263D01*
X1589363Y58190D01*
X1589303Y58114D01*
X1589245Y58036D01*
X1589191Y57956D01*
X1589141Y57873D01*
X1589094Y57789D01*
X1589050Y57703D01*
X1589010Y57615D01*
X1588973Y57525D01*
X1588940Y57434D01*
X1588911Y57342D01*
X1588886Y57249D01*
X1588864Y57154D01*
X1588847Y57059D01*
X1588833Y56963D01*
X1588823Y56867D01*
X1588817Y56771D01*
X1588815Y56674D01*
X1588816Y56674D02*
X1588816Y54304D01*
X1588815Y54304D02*
X1588817Y54207D01*
X1588823Y54111D01*
X1588833Y54015D01*
X1588847Y53919D01*
X1588864Y53824D01*
X1588886Y53729D01*
X1588911Y53636D01*
X1588940Y53544D01*
X1588973Y53453D01*
X1589010Y53363D01*
X1589050Y53275D01*
X1589094Y53189D01*
X1589141Y53105D01*
X1589191Y53022D01*
X1589245Y52942D01*
X1589303Y52864D01*
X1589363Y52788D01*
X1589426Y52715D01*
X1589492Y52645D01*
X1589562Y52577D01*
X1589633Y52512D01*
X1589708Y52450D01*
X1589785Y52392D01*
X1589864Y52336D01*
X1589945Y52284D01*
X1590029Y52235D01*
X1590114Y52189D01*
X1590201Y52147D01*
X1590290Y52109D01*
X1590380Y52074D01*
X1590472Y52043D01*
X1590565Y52016D01*
X1590658Y51992D01*
X1590753Y51973D01*
X1590849Y51957D01*
X1590945Y51945D01*
X1591041Y51937D01*
X1591138Y51933D01*
X1591234Y51933D01*
X1591331Y51937D01*
X1591427Y51945D01*
X1591523Y51957D01*
X1591619Y51973D01*
X1591714Y51992D01*
X1591807Y52016D01*
X1591900Y52043D01*
X1591992Y52074D01*
X1592082Y52109D01*
X1592171Y52147D01*
X1592258Y52189D01*
X1592343Y52235D01*
X1592427Y52284D01*
X1592508Y52336D01*
X1592587Y52392D01*
X1592664Y52450D01*
X1592739Y52512D01*
X1592810Y52577D01*
X1592880Y52645D01*
X1592946Y52715D01*
X1593009Y52788D01*
X1593069Y52864D01*
X1593127Y52942D01*
X1593181Y53022D01*
X1593231Y53105D01*
X1593278Y53189D01*
X1593322Y53275D01*
X1593362Y53363D01*
X1593399Y53453D01*
X1593432Y53544D01*
X1593461Y53636D01*
X1593486Y53729D01*
X1593508Y53824D01*
X1593525Y53919D01*
X1593539Y54015D01*
X1593549Y54111D01*
X1593555Y54207D01*
X1593557Y54304D01*
X1583170Y51933D02*
X1583170Y59045D01*
X1579614Y59045D01*
X1579614Y57860D01*
X1576720Y59045D02*
X1573164Y59045D01*
X1575535Y62601D02*
X1575535Y53711D01*
X1575533Y53629D01*
X1575527Y53547D01*
X1575518Y53465D01*
X1575505Y53384D01*
X1575488Y53304D01*
X1575467Y53224D01*
X1575443Y53146D01*
X1575415Y53069D01*
X1575384Y52993D01*
X1575349Y52918D01*
X1575310Y52846D01*
X1575269Y52775D01*
X1575224Y52706D01*
X1575176Y52640D01*
X1575125Y52575D01*
X1575071Y52513D01*
X1575014Y52454D01*
X1574955Y52397D01*
X1574893Y52343D01*
X1574828Y52292D01*
X1574762Y52244D01*
X1574693Y52199D01*
X1574622Y52158D01*
X1574550Y52119D01*
X1574475Y52084D01*
X1574399Y52053D01*
X1574322Y52025D01*
X1574244Y52001D01*
X1574164Y51980D01*
X1574084Y51963D01*
X1574003Y51950D01*
X1573921Y51941D01*
X1573839Y51935D01*
X1573757Y51933D01*
X1573164Y51933D01*
X1568708Y51933D02*
X1568708Y59045D01*
X1569004Y62008D02*
X1569004Y62601D01*
X1568411Y62601D01*
X1568411Y62008D01*
X1569004Y62008D01*
X1561299Y62601D02*
X1563670Y54304D01*
X1557743Y54304D01*
X1559521Y56674D02*
X1559521Y51933D01*
X1549869Y56674D02*
X1546313Y56674D01*
X1549869Y56674D02*
X1549964Y56676D01*
X1550060Y56682D01*
X1550155Y56691D01*
X1550249Y56705D01*
X1550343Y56722D01*
X1550436Y56743D01*
X1550529Y56768D01*
X1550620Y56796D01*
X1550710Y56828D01*
X1550798Y56864D01*
X1550885Y56903D01*
X1550971Y56946D01*
X1551055Y56992D01*
X1551136Y57041D01*
X1551216Y57094D01*
X1551293Y57150D01*
X1551369Y57208D01*
X1551441Y57270D01*
X1551511Y57335D01*
X1551579Y57403D01*
X1551644Y57473D01*
X1551706Y57545D01*
X1551764Y57621D01*
X1551820Y57698D01*
X1551873Y57778D01*
X1551922Y57860D01*
X1551968Y57943D01*
X1552011Y58029D01*
X1552050Y58116D01*
X1552086Y58204D01*
X1552118Y58294D01*
X1552146Y58385D01*
X1552171Y58478D01*
X1552192Y58571D01*
X1552209Y58665D01*
X1552223Y58759D01*
X1552232Y58854D01*
X1552238Y58950D01*
X1552240Y59045D01*
X1552240Y59638D01*
X1552238Y59745D01*
X1552232Y59852D01*
X1552223Y59958D01*
X1552209Y60064D01*
X1552192Y60170D01*
X1552171Y60275D01*
X1552146Y60379D01*
X1552117Y60482D01*
X1552085Y60584D01*
X1552049Y60685D01*
X1552009Y60784D01*
X1551966Y60882D01*
X1551919Y60978D01*
X1551869Y61073D01*
X1551816Y61166D01*
X1551759Y61256D01*
X1551699Y61345D01*
X1551636Y61431D01*
X1551570Y61515D01*
X1551500Y61597D01*
X1551428Y61676D01*
X1551353Y61752D01*
X1551275Y61826D01*
X1551195Y61896D01*
X1551112Y61964D01*
X1551027Y62029D01*
X1550940Y62090D01*
X1550850Y62149D01*
X1550759Y62204D01*
X1550665Y62256D01*
X1550569Y62304D01*
X1550472Y62349D01*
X1550374Y62391D01*
X1550274Y62428D01*
X1550172Y62463D01*
X1550070Y62493D01*
X1549966Y62520D01*
X1549862Y62543D01*
X1549756Y62562D01*
X1549650Y62577D01*
X1549544Y62589D01*
X1549437Y62597D01*
X1549330Y62601D01*
X1549224Y62601D01*
X1549117Y62597D01*
X1549010Y62589D01*
X1548904Y62577D01*
X1548798Y62562D01*
X1548692Y62543D01*
X1548588Y62520D01*
X1548484Y62493D01*
X1548382Y62463D01*
X1548280Y62428D01*
X1548180Y62391D01*
X1548082Y62349D01*
X1547985Y62304D01*
X1547889Y62256D01*
X1547796Y62204D01*
X1547704Y62149D01*
X1547614Y62090D01*
X1547527Y62029D01*
X1547442Y61964D01*
X1547359Y61896D01*
X1547279Y61826D01*
X1547201Y61752D01*
X1547126Y61676D01*
X1547054Y61597D01*
X1546984Y61515D01*
X1546918Y61431D01*
X1546855Y61345D01*
X1546795Y61256D01*
X1546738Y61166D01*
X1546685Y61073D01*
X1546635Y60978D01*
X1546588Y60882D01*
X1546545Y60784D01*
X1546505Y60685D01*
X1546469Y60584D01*
X1546437Y60482D01*
X1546408Y60379D01*
X1546383Y60275D01*
X1546362Y60170D01*
X1546345Y60064D01*
X1546331Y59958D01*
X1546322Y59852D01*
X1546316Y59745D01*
X1546314Y59638D01*
X1546313Y59638D02*
X1546313Y56674D01*
X1546314Y56674D02*
X1546316Y56539D01*
X1546322Y56403D01*
X1546331Y56268D01*
X1546345Y56134D01*
X1546362Y55999D01*
X1546383Y55866D01*
X1546408Y55732D01*
X1546437Y55600D01*
X1546470Y55469D01*
X1546506Y55338D01*
X1546546Y55209D01*
X1546590Y55081D01*
X1546637Y54954D01*
X1546688Y54828D01*
X1546742Y54705D01*
X1546800Y54582D01*
X1546862Y54462D01*
X1546927Y54343D01*
X1546995Y54226D01*
X1547067Y54111D01*
X1547141Y53998D01*
X1547219Y53887D01*
X1547301Y53779D01*
X1547385Y53673D01*
X1547472Y53569D01*
X1547562Y53468D01*
X1547655Y53370D01*
X1547751Y53274D01*
X1547849Y53181D01*
X1547950Y53091D01*
X1548054Y53004D01*
X1548160Y52920D01*
X1548268Y52838D01*
X1548379Y52760D01*
X1548492Y52686D01*
X1548607Y52614D01*
X1548724Y52546D01*
X1548843Y52481D01*
X1548963Y52419D01*
X1549086Y52361D01*
X1549209Y52307D01*
X1549335Y52256D01*
X1549462Y52209D01*
X1549590Y52165D01*
X1549719Y52125D01*
X1549850Y52089D01*
X1549981Y52056D01*
X1550114Y52027D01*
X1550247Y52002D01*
X1550380Y51981D01*
X1550515Y51964D01*
X1550649Y51950D01*
X1550784Y51941D01*
X1550920Y51935D01*
X1551055Y51933D01*
X1540810Y51933D02*
X1537847Y51933D01*
X1537740Y51935D01*
X1537633Y51941D01*
X1537527Y51950D01*
X1537421Y51964D01*
X1537315Y51981D01*
X1537210Y52002D01*
X1537106Y52027D01*
X1537003Y52056D01*
X1536901Y52088D01*
X1536800Y52124D01*
X1536701Y52164D01*
X1536603Y52207D01*
X1536507Y52254D01*
X1536412Y52304D01*
X1536319Y52357D01*
X1536229Y52414D01*
X1536140Y52474D01*
X1536054Y52537D01*
X1535970Y52603D01*
X1535888Y52673D01*
X1535809Y52745D01*
X1535733Y52820D01*
X1535659Y52898D01*
X1535589Y52978D01*
X1535521Y53061D01*
X1535456Y53146D01*
X1535395Y53233D01*
X1535336Y53323D01*
X1535281Y53415D01*
X1535229Y53508D01*
X1535181Y53604D01*
X1535136Y53701D01*
X1535094Y53799D01*
X1535057Y53899D01*
X1535022Y54001D01*
X1534992Y54103D01*
X1534965Y54207D01*
X1534942Y54311D01*
X1534923Y54417D01*
X1534908Y54523D01*
X1534896Y54629D01*
X1534888Y54736D01*
X1534884Y54843D01*
X1534884Y54949D01*
X1534888Y55056D01*
X1534896Y55163D01*
X1534908Y55269D01*
X1534923Y55375D01*
X1534942Y55481D01*
X1534965Y55585D01*
X1534992Y55689D01*
X1535022Y55791D01*
X1535057Y55893D01*
X1535094Y55993D01*
X1535136Y56091D01*
X1535181Y56188D01*
X1535229Y56284D01*
X1535281Y56378D01*
X1535336Y56469D01*
X1535395Y56559D01*
X1535456Y56646D01*
X1535521Y56731D01*
X1535589Y56814D01*
X1535659Y56894D01*
X1535733Y56972D01*
X1535809Y57047D01*
X1535888Y57119D01*
X1535970Y57189D01*
X1536054Y57255D01*
X1536140Y57318D01*
X1536229Y57378D01*
X1536319Y57435D01*
X1536412Y57488D01*
X1536507Y57538D01*
X1536603Y57585D01*
X1536701Y57628D01*
X1536800Y57668D01*
X1536901Y57704D01*
X1537003Y57736D01*
X1537106Y57765D01*
X1537210Y57790D01*
X1537315Y57811D01*
X1537421Y57828D01*
X1537527Y57842D01*
X1537633Y57851D01*
X1537740Y57857D01*
X1537847Y57859D01*
X1537254Y62601D02*
X1540810Y62601D01*
X1537254Y62601D02*
X1537157Y62599D01*
X1537061Y62593D01*
X1536965Y62583D01*
X1536869Y62569D01*
X1536774Y62552D01*
X1536679Y62530D01*
X1536586Y62505D01*
X1536494Y62476D01*
X1536403Y62443D01*
X1536313Y62406D01*
X1536225Y62366D01*
X1536139Y62322D01*
X1536055Y62275D01*
X1535972Y62225D01*
X1535892Y62171D01*
X1535814Y62113D01*
X1535738Y62053D01*
X1535665Y61990D01*
X1535595Y61924D01*
X1535527Y61854D01*
X1535462Y61783D01*
X1535400Y61708D01*
X1535342Y61631D01*
X1535286Y61552D01*
X1535234Y61471D01*
X1535185Y61387D01*
X1535139Y61302D01*
X1535097Y61215D01*
X1535059Y61126D01*
X1535024Y61036D01*
X1534993Y60944D01*
X1534966Y60851D01*
X1534942Y60758D01*
X1534923Y60663D01*
X1534907Y60567D01*
X1534895Y60471D01*
X1534887Y60375D01*
X1534883Y60278D01*
X1534883Y60182D01*
X1534887Y60085D01*
X1534895Y59989D01*
X1534907Y59893D01*
X1534923Y59797D01*
X1534942Y59702D01*
X1534966Y59609D01*
X1534993Y59516D01*
X1535024Y59424D01*
X1535059Y59334D01*
X1535097Y59245D01*
X1535139Y59158D01*
X1535185Y59073D01*
X1535234Y58989D01*
X1535286Y58908D01*
X1535342Y58829D01*
X1535400Y58752D01*
X1535462Y58677D01*
X1535527Y58606D01*
X1535595Y58536D01*
X1535665Y58470D01*
X1535738Y58407D01*
X1535814Y58347D01*
X1535892Y58289D01*
X1535972Y58235D01*
X1536055Y58185D01*
X1536139Y58138D01*
X1536225Y58094D01*
X1536313Y58054D01*
X1536403Y58017D01*
X1536494Y57984D01*
X1536586Y57955D01*
X1536679Y57930D01*
X1536774Y57908D01*
X1536869Y57891D01*
X1536965Y57877D01*
X1537061Y57867D01*
X1537157Y57861D01*
X1537254Y57859D01*
X1537254Y57860D02*
X1539625Y57860D01*
X1529380Y54896D02*
X1529378Y55003D01*
X1529372Y55110D01*
X1529363Y55216D01*
X1529349Y55322D01*
X1529332Y55428D01*
X1529311Y55533D01*
X1529286Y55637D01*
X1529257Y55740D01*
X1529225Y55842D01*
X1529189Y55943D01*
X1529149Y56042D01*
X1529106Y56140D01*
X1529059Y56236D01*
X1529009Y56331D01*
X1528956Y56424D01*
X1528899Y56514D01*
X1528839Y56603D01*
X1528776Y56689D01*
X1528710Y56773D01*
X1528640Y56855D01*
X1528568Y56934D01*
X1528493Y57010D01*
X1528415Y57084D01*
X1528335Y57154D01*
X1528252Y57222D01*
X1528167Y57287D01*
X1528080Y57348D01*
X1527990Y57407D01*
X1527899Y57462D01*
X1527805Y57514D01*
X1527709Y57562D01*
X1527612Y57607D01*
X1527514Y57649D01*
X1527414Y57686D01*
X1527312Y57721D01*
X1527210Y57751D01*
X1527106Y57778D01*
X1527002Y57801D01*
X1526896Y57820D01*
X1526790Y57835D01*
X1526684Y57847D01*
X1526577Y57855D01*
X1526470Y57859D01*
X1526364Y57859D01*
X1526257Y57855D01*
X1526150Y57847D01*
X1526044Y57835D01*
X1525938Y57820D01*
X1525832Y57801D01*
X1525728Y57778D01*
X1525624Y57751D01*
X1525522Y57721D01*
X1525420Y57686D01*
X1525320Y57649D01*
X1525222Y57607D01*
X1525125Y57562D01*
X1525029Y57514D01*
X1524936Y57462D01*
X1524844Y57407D01*
X1524754Y57348D01*
X1524667Y57287D01*
X1524582Y57222D01*
X1524499Y57154D01*
X1524419Y57084D01*
X1524341Y57010D01*
X1524266Y56934D01*
X1524194Y56855D01*
X1524124Y56773D01*
X1524058Y56689D01*
X1523995Y56603D01*
X1523935Y56514D01*
X1523878Y56424D01*
X1523825Y56331D01*
X1523775Y56236D01*
X1523728Y56140D01*
X1523685Y56042D01*
X1523645Y55943D01*
X1523609Y55842D01*
X1523577Y55740D01*
X1523548Y55637D01*
X1523523Y55533D01*
X1523502Y55428D01*
X1523485Y55322D01*
X1523471Y55216D01*
X1523462Y55110D01*
X1523456Y55003D01*
X1523454Y54896D01*
X1523456Y54789D01*
X1523462Y54682D01*
X1523471Y54576D01*
X1523485Y54470D01*
X1523502Y54364D01*
X1523523Y54259D01*
X1523548Y54155D01*
X1523577Y54052D01*
X1523609Y53950D01*
X1523645Y53849D01*
X1523685Y53750D01*
X1523728Y53652D01*
X1523775Y53556D01*
X1523825Y53461D01*
X1523878Y53368D01*
X1523935Y53278D01*
X1523995Y53189D01*
X1524058Y53103D01*
X1524124Y53019D01*
X1524194Y52937D01*
X1524266Y52858D01*
X1524341Y52782D01*
X1524419Y52708D01*
X1524499Y52638D01*
X1524582Y52570D01*
X1524667Y52505D01*
X1524754Y52444D01*
X1524844Y52385D01*
X1524936Y52330D01*
X1525029Y52278D01*
X1525125Y52230D01*
X1525222Y52185D01*
X1525320Y52143D01*
X1525420Y52106D01*
X1525522Y52071D01*
X1525624Y52041D01*
X1525728Y52014D01*
X1525832Y51991D01*
X1525938Y51972D01*
X1526044Y51957D01*
X1526150Y51945D01*
X1526257Y51937D01*
X1526364Y51933D01*
X1526470Y51933D01*
X1526577Y51937D01*
X1526684Y51945D01*
X1526790Y51957D01*
X1526896Y51972D01*
X1527002Y51991D01*
X1527106Y52014D01*
X1527210Y52041D01*
X1527312Y52071D01*
X1527414Y52106D01*
X1527514Y52143D01*
X1527612Y52185D01*
X1527709Y52230D01*
X1527805Y52278D01*
X1527899Y52330D01*
X1527990Y52385D01*
X1528080Y52444D01*
X1528167Y52505D01*
X1528252Y52570D01*
X1528335Y52638D01*
X1528415Y52708D01*
X1528493Y52782D01*
X1528568Y52858D01*
X1528640Y52937D01*
X1528710Y53019D01*
X1528776Y53103D01*
X1528839Y53189D01*
X1528899Y53278D01*
X1528956Y53368D01*
X1529009Y53461D01*
X1529059Y53556D01*
X1529106Y53652D01*
X1529149Y53750D01*
X1529189Y53849D01*
X1529225Y53950D01*
X1529257Y54052D01*
X1529286Y54155D01*
X1529311Y54259D01*
X1529332Y54364D01*
X1529349Y54470D01*
X1529363Y54576D01*
X1529372Y54682D01*
X1529378Y54789D01*
X1529380Y54896D01*
X1528788Y60230D02*
X1528786Y60327D01*
X1528780Y60423D01*
X1528770Y60519D01*
X1528756Y60615D01*
X1528739Y60710D01*
X1528717Y60805D01*
X1528692Y60898D01*
X1528663Y60990D01*
X1528630Y61081D01*
X1528593Y61171D01*
X1528553Y61259D01*
X1528509Y61345D01*
X1528462Y61429D01*
X1528412Y61512D01*
X1528358Y61592D01*
X1528300Y61670D01*
X1528240Y61746D01*
X1528177Y61819D01*
X1528111Y61889D01*
X1528041Y61957D01*
X1527970Y62022D01*
X1527895Y62084D01*
X1527818Y62142D01*
X1527739Y62198D01*
X1527658Y62250D01*
X1527574Y62299D01*
X1527489Y62345D01*
X1527402Y62387D01*
X1527313Y62425D01*
X1527223Y62460D01*
X1527131Y62491D01*
X1527038Y62518D01*
X1526945Y62542D01*
X1526850Y62561D01*
X1526754Y62577D01*
X1526658Y62589D01*
X1526562Y62597D01*
X1526465Y62601D01*
X1526369Y62601D01*
X1526272Y62597D01*
X1526176Y62589D01*
X1526080Y62577D01*
X1525984Y62561D01*
X1525889Y62542D01*
X1525796Y62518D01*
X1525703Y62491D01*
X1525611Y62460D01*
X1525521Y62425D01*
X1525432Y62387D01*
X1525345Y62345D01*
X1525260Y62299D01*
X1525176Y62250D01*
X1525095Y62198D01*
X1525016Y62142D01*
X1524939Y62084D01*
X1524864Y62022D01*
X1524793Y61957D01*
X1524723Y61889D01*
X1524657Y61819D01*
X1524594Y61746D01*
X1524534Y61670D01*
X1524476Y61592D01*
X1524422Y61512D01*
X1524372Y61429D01*
X1524325Y61345D01*
X1524281Y61259D01*
X1524241Y61171D01*
X1524204Y61081D01*
X1524171Y60990D01*
X1524142Y60898D01*
X1524117Y60805D01*
X1524095Y60710D01*
X1524078Y60615D01*
X1524064Y60519D01*
X1524054Y60423D01*
X1524048Y60327D01*
X1524046Y60230D01*
X1524048Y60133D01*
X1524054Y60037D01*
X1524064Y59941D01*
X1524078Y59845D01*
X1524095Y59750D01*
X1524117Y59655D01*
X1524142Y59562D01*
X1524171Y59470D01*
X1524204Y59379D01*
X1524241Y59289D01*
X1524281Y59201D01*
X1524325Y59115D01*
X1524372Y59031D01*
X1524422Y58948D01*
X1524476Y58868D01*
X1524534Y58790D01*
X1524594Y58714D01*
X1524657Y58641D01*
X1524723Y58571D01*
X1524793Y58503D01*
X1524864Y58438D01*
X1524939Y58376D01*
X1525016Y58318D01*
X1525095Y58262D01*
X1525176Y58210D01*
X1525260Y58161D01*
X1525345Y58115D01*
X1525432Y58073D01*
X1525521Y58035D01*
X1525611Y58000D01*
X1525703Y57969D01*
X1525796Y57942D01*
X1525889Y57918D01*
X1525984Y57899D01*
X1526080Y57883D01*
X1526176Y57871D01*
X1526272Y57863D01*
X1526369Y57859D01*
X1526465Y57859D01*
X1526562Y57863D01*
X1526658Y57871D01*
X1526754Y57883D01*
X1526850Y57899D01*
X1526945Y57918D01*
X1527038Y57942D01*
X1527131Y57969D01*
X1527223Y58000D01*
X1527313Y58035D01*
X1527402Y58073D01*
X1527489Y58115D01*
X1527574Y58161D01*
X1527658Y58210D01*
X1527739Y58262D01*
X1527818Y58318D01*
X1527895Y58376D01*
X1527970Y58438D01*
X1528041Y58503D01*
X1528111Y58571D01*
X1528177Y58641D01*
X1528240Y58714D01*
X1528300Y58790D01*
X1528358Y58868D01*
X1528412Y58948D01*
X1528462Y59031D01*
X1528509Y59115D01*
X1528553Y59201D01*
X1528593Y59289D01*
X1528630Y59379D01*
X1528663Y59470D01*
X1528692Y59562D01*
X1528717Y59655D01*
X1528739Y59750D01*
X1528756Y59845D01*
X1528770Y59941D01*
X1528780Y60037D01*
X1528786Y60133D01*
X1528788Y60230D01*
X1595714Y31698D02*
X1600456Y31698D01*
X1591312Y31698D02*
X1586570Y31698D01*
X1582168Y31698D02*
X1577426Y44736D01*
X1570655Y38217D02*
X1570658Y37973D01*
X1570667Y37729D01*
X1570681Y37485D01*
X1570702Y37242D01*
X1570728Y36999D01*
X1570761Y36757D01*
X1570799Y36516D01*
X1570842Y36276D01*
X1570892Y36037D01*
X1570947Y35799D01*
X1571008Y35563D01*
X1571075Y35328D01*
X1571147Y35095D01*
X1571225Y34864D01*
X1571308Y34634D01*
X1571397Y34407D01*
X1571492Y34182D01*
X1571591Y33959D01*
X1571697Y33739D01*
X1571807Y33521D01*
X1571922Y33306D01*
X1572043Y33094D01*
X1572169Y32884D01*
X1572300Y32678D01*
X1572435Y32475D01*
X1572576Y32276D01*
X1572721Y32080D01*
X1572871Y31887D01*
X1573026Y31698D01*
X1570655Y38217D02*
X1570658Y38461D01*
X1570667Y38705D01*
X1570681Y38949D01*
X1570702Y39192D01*
X1570728Y39435D01*
X1570761Y39677D01*
X1570799Y39918D01*
X1570842Y40158D01*
X1570892Y40397D01*
X1570947Y40635D01*
X1571008Y40871D01*
X1571075Y41106D01*
X1571147Y41339D01*
X1571225Y41570D01*
X1571308Y41800D01*
X1571397Y42027D01*
X1571492Y42252D01*
X1571591Y42475D01*
X1571697Y42695D01*
X1571807Y42913D01*
X1571922Y43128D01*
X1572043Y43340D01*
X1572169Y43550D01*
X1572300Y43756D01*
X1572435Y43959D01*
X1572576Y44158D01*
X1572721Y44354D01*
X1572871Y44547D01*
X1573026Y44736D01*
X1565785Y31698D02*
X1561043Y31698D01*
X1556641Y31698D02*
X1551899Y31698D01*
X1547497Y31698D02*
X1542755Y44736D01*
X1535984Y38217D02*
X1535987Y37973D01*
X1535996Y37729D01*
X1536010Y37485D01*
X1536031Y37242D01*
X1536057Y36999D01*
X1536090Y36757D01*
X1536128Y36516D01*
X1536171Y36276D01*
X1536221Y36037D01*
X1536276Y35799D01*
X1536337Y35563D01*
X1536404Y35328D01*
X1536476Y35095D01*
X1536554Y34864D01*
X1536637Y34634D01*
X1536726Y34407D01*
X1536821Y34182D01*
X1536920Y33959D01*
X1537026Y33739D01*
X1537136Y33521D01*
X1537251Y33306D01*
X1537372Y33094D01*
X1537498Y32884D01*
X1537629Y32678D01*
X1537764Y32475D01*
X1537905Y32276D01*
X1538050Y32080D01*
X1538200Y31887D01*
X1538355Y31698D01*
X1535984Y38217D02*
X1535987Y38461D01*
X1535996Y38705D01*
X1536010Y38949D01*
X1536031Y39192D01*
X1536057Y39435D01*
X1536090Y39677D01*
X1536128Y39918D01*
X1536171Y40158D01*
X1536221Y40397D01*
X1536276Y40635D01*
X1536337Y40871D01*
X1536404Y41106D01*
X1536476Y41339D01*
X1536554Y41570D01*
X1536637Y41800D01*
X1536726Y42027D01*
X1536821Y42252D01*
X1536920Y42475D01*
X1537026Y42695D01*
X1537136Y42913D01*
X1537251Y43128D01*
X1537372Y43340D01*
X1537498Y43550D01*
X1537629Y43756D01*
X1537764Y43959D01*
X1537905Y44158D01*
X1538050Y44354D01*
X1538200Y44547D01*
X1538355Y44736D01*
X1531114Y31698D02*
X1526372Y31698D01*
X1600993Y5451D02*
X1600993Y-5217D01*
X1600993Y5451D02*
X1598030Y5451D01*
X1597923Y5449D01*
X1597816Y5443D01*
X1597710Y5434D01*
X1597604Y5420D01*
X1597498Y5403D01*
X1597393Y5382D01*
X1597289Y5357D01*
X1597186Y5328D01*
X1597084Y5296D01*
X1596983Y5260D01*
X1596884Y5220D01*
X1596786Y5177D01*
X1596690Y5130D01*
X1596595Y5080D01*
X1596502Y5027D01*
X1596412Y4970D01*
X1596323Y4910D01*
X1596237Y4847D01*
X1596153Y4781D01*
X1596071Y4711D01*
X1595992Y4639D01*
X1595916Y4564D01*
X1595842Y4486D01*
X1595772Y4406D01*
X1595704Y4323D01*
X1595639Y4238D01*
X1595578Y4151D01*
X1595519Y4061D01*
X1595464Y3970D01*
X1595412Y3876D01*
X1595364Y3780D01*
X1595319Y3683D01*
X1595277Y3585D01*
X1595240Y3485D01*
X1595205Y3383D01*
X1595175Y3281D01*
X1595148Y3177D01*
X1595125Y3073D01*
X1595106Y2967D01*
X1595091Y2861D01*
X1595079Y2755D01*
X1595071Y2648D01*
X1595067Y2541D01*
X1595067Y2435D01*
X1595071Y2328D01*
X1595079Y2221D01*
X1595091Y2115D01*
X1595106Y2009D01*
X1595125Y1903D01*
X1595148Y1799D01*
X1595175Y1695D01*
X1595205Y1593D01*
X1595240Y1491D01*
X1595277Y1391D01*
X1595319Y1293D01*
X1595364Y1196D01*
X1595412Y1100D01*
X1595464Y1007D01*
X1595519Y915D01*
X1595578Y825D01*
X1595639Y738D01*
X1595704Y653D01*
X1595772Y570D01*
X1595842Y490D01*
X1595916Y412D01*
X1595992Y337D01*
X1596071Y265D01*
X1596153Y195D01*
X1596237Y129D01*
X1596323Y66D01*
X1596412Y6D01*
X1596502Y-51D01*
X1596595Y-104D01*
X1596690Y-154D01*
X1596786Y-201D01*
X1596884Y-244D01*
X1596983Y-284D01*
X1597084Y-320D01*
X1597186Y-352D01*
X1597289Y-381D01*
X1597393Y-406D01*
X1597498Y-427D01*
X1597604Y-444D01*
X1597710Y-458D01*
X1597816Y-467D01*
X1597923Y-473D01*
X1598030Y-475D01*
X1598030Y-476D02*
X1600993Y-476D01*
X1597437Y-476D02*
X1595066Y-5217D01*
X1587353Y-5217D02*
X1584982Y-5217D01*
X1587353Y-5217D02*
X1587448Y-5215D01*
X1587544Y-5209D01*
X1587639Y-5200D01*
X1587733Y-5186D01*
X1587827Y-5169D01*
X1587920Y-5148D01*
X1588013Y-5123D01*
X1588104Y-5095D01*
X1588194Y-5063D01*
X1588282Y-5027D01*
X1588369Y-4988D01*
X1588455Y-4945D01*
X1588539Y-4899D01*
X1588620Y-4850D01*
X1588700Y-4797D01*
X1588777Y-4741D01*
X1588853Y-4683D01*
X1588925Y-4621D01*
X1588995Y-4556D01*
X1589063Y-4488D01*
X1589128Y-4418D01*
X1589190Y-4346D01*
X1589248Y-4270D01*
X1589304Y-4193D01*
X1589357Y-4113D01*
X1589406Y-4032D01*
X1589452Y-3948D01*
X1589495Y-3862D01*
X1589534Y-3775D01*
X1589570Y-3687D01*
X1589602Y-3597D01*
X1589630Y-3506D01*
X1589655Y-3413D01*
X1589676Y-3320D01*
X1589693Y-3226D01*
X1589707Y-3132D01*
X1589716Y-3037D01*
X1589722Y-2941D01*
X1589724Y-2846D01*
X1589723Y-2846D02*
X1589723Y3080D01*
X1589724Y3080D02*
X1589722Y3175D01*
X1589716Y3271D01*
X1589707Y3366D01*
X1589693Y3460D01*
X1589676Y3554D01*
X1589655Y3647D01*
X1589630Y3740D01*
X1589602Y3831D01*
X1589570Y3921D01*
X1589534Y4009D01*
X1589495Y4096D01*
X1589452Y4182D01*
X1589406Y4265D01*
X1589357Y4347D01*
X1589304Y4427D01*
X1589248Y4504D01*
X1589190Y4580D01*
X1589128Y4652D01*
X1589063Y4722D01*
X1588995Y4790D01*
X1588925Y4855D01*
X1588853Y4917D01*
X1588777Y4975D01*
X1588700Y5031D01*
X1588620Y5084D01*
X1588539Y5133D01*
X1588455Y5179D01*
X1588369Y5222D01*
X1588282Y5261D01*
X1588194Y5297D01*
X1588104Y5329D01*
X1588013Y5357D01*
X1587920Y5382D01*
X1587827Y5403D01*
X1587733Y5420D01*
X1587639Y5434D01*
X1587544Y5443D01*
X1587449Y5449D01*
X1587353Y5451D01*
X1584982Y5451D01*
X1579514Y5451D02*
X1579514Y-5217D01*
X1579514Y5451D02*
X1576550Y5451D01*
X1576443Y5449D01*
X1576336Y5443D01*
X1576230Y5434D01*
X1576124Y5420D01*
X1576018Y5403D01*
X1575913Y5382D01*
X1575809Y5357D01*
X1575706Y5328D01*
X1575604Y5296D01*
X1575503Y5260D01*
X1575404Y5220D01*
X1575306Y5177D01*
X1575210Y5130D01*
X1575115Y5080D01*
X1575022Y5027D01*
X1574932Y4970D01*
X1574843Y4910D01*
X1574757Y4847D01*
X1574673Y4781D01*
X1574591Y4711D01*
X1574512Y4639D01*
X1574436Y4564D01*
X1574362Y4486D01*
X1574292Y4406D01*
X1574224Y4323D01*
X1574159Y4238D01*
X1574098Y4151D01*
X1574039Y4061D01*
X1573984Y3970D01*
X1573932Y3876D01*
X1573884Y3780D01*
X1573839Y3683D01*
X1573797Y3585D01*
X1573760Y3485D01*
X1573725Y3383D01*
X1573695Y3281D01*
X1573668Y3177D01*
X1573645Y3073D01*
X1573626Y2967D01*
X1573611Y2861D01*
X1573599Y2755D01*
X1573591Y2648D01*
X1573587Y2541D01*
X1573587Y2435D01*
X1573591Y2328D01*
X1573599Y2221D01*
X1573611Y2115D01*
X1573626Y2009D01*
X1573645Y1903D01*
X1573668Y1799D01*
X1573695Y1695D01*
X1573725Y1593D01*
X1573760Y1491D01*
X1573797Y1391D01*
X1573839Y1293D01*
X1573884Y1196D01*
X1573932Y1100D01*
X1573984Y1007D01*
X1574039Y915D01*
X1574098Y825D01*
X1574159Y738D01*
X1574224Y653D01*
X1574292Y570D01*
X1574362Y490D01*
X1574436Y412D01*
X1574512Y337D01*
X1574591Y265D01*
X1574673Y195D01*
X1574757Y129D01*
X1574843Y66D01*
X1574932Y6D01*
X1575022Y-51D01*
X1575115Y-104D01*
X1575210Y-154D01*
X1575306Y-201D01*
X1575404Y-244D01*
X1575503Y-284D01*
X1575604Y-320D01*
X1575706Y-352D01*
X1575809Y-381D01*
X1575913Y-406D01*
X1576018Y-427D01*
X1576124Y-444D01*
X1576230Y-458D01*
X1576336Y-467D01*
X1576443Y-473D01*
X1576550Y-475D01*
X1576550Y-476D02*
X1579514Y-476D01*
X1568549Y-1068D02*
X1561437Y-1068D01*
X1555384Y-5217D02*
X1555384Y5451D01*
X1549457Y-5217D01*
X1549457Y5451D01*
X1543192Y5451D02*
X1543192Y-2254D01*
X1543191Y-2254D02*
X1543189Y-2361D01*
X1543183Y-2468D01*
X1543174Y-2574D01*
X1543160Y-2680D01*
X1543143Y-2786D01*
X1543122Y-2891D01*
X1543097Y-2995D01*
X1543068Y-3098D01*
X1543036Y-3200D01*
X1543000Y-3301D01*
X1542960Y-3400D01*
X1542917Y-3498D01*
X1542870Y-3594D01*
X1542820Y-3689D01*
X1542767Y-3782D01*
X1542710Y-3872D01*
X1542650Y-3961D01*
X1542587Y-4047D01*
X1542521Y-4131D01*
X1542451Y-4213D01*
X1542379Y-4292D01*
X1542304Y-4368D01*
X1542226Y-4442D01*
X1542146Y-4512D01*
X1542063Y-4580D01*
X1541978Y-4645D01*
X1541891Y-4706D01*
X1541801Y-4765D01*
X1541710Y-4820D01*
X1541616Y-4872D01*
X1541520Y-4920D01*
X1541423Y-4965D01*
X1541325Y-5007D01*
X1541225Y-5044D01*
X1541123Y-5079D01*
X1541021Y-5109D01*
X1540917Y-5136D01*
X1540813Y-5159D01*
X1540707Y-5178D01*
X1540601Y-5193D01*
X1540495Y-5205D01*
X1540388Y-5213D01*
X1540281Y-5217D01*
X1540175Y-5217D01*
X1540068Y-5213D01*
X1539961Y-5205D01*
X1539855Y-5193D01*
X1539749Y-5178D01*
X1539643Y-5159D01*
X1539539Y-5136D01*
X1539435Y-5109D01*
X1539333Y-5079D01*
X1539231Y-5044D01*
X1539131Y-5007D01*
X1539033Y-4965D01*
X1538936Y-4920D01*
X1538840Y-4872D01*
X1538747Y-4820D01*
X1538655Y-4765D01*
X1538565Y-4706D01*
X1538478Y-4645D01*
X1538393Y-4580D01*
X1538310Y-4512D01*
X1538230Y-4442D01*
X1538152Y-4368D01*
X1538077Y-4292D01*
X1538005Y-4213D01*
X1537935Y-4131D01*
X1537869Y-4047D01*
X1537806Y-3961D01*
X1537746Y-3872D01*
X1537689Y-3782D01*
X1537636Y-3689D01*
X1537586Y-3594D01*
X1537539Y-3498D01*
X1537496Y-3400D01*
X1537456Y-3301D01*
X1537420Y-3200D01*
X1537388Y-3098D01*
X1537359Y-2995D01*
X1537334Y-2891D01*
X1537313Y-2786D01*
X1537296Y-2680D01*
X1537282Y-2574D01*
X1537273Y-2468D01*
X1537267Y-2361D01*
X1537265Y-2254D01*
X1537265Y5451D01*
X1528206Y-5217D02*
X1528111Y-5215D01*
X1528015Y-5209D01*
X1527920Y-5200D01*
X1527826Y-5186D01*
X1527732Y-5169D01*
X1527639Y-5148D01*
X1527546Y-5123D01*
X1527455Y-5095D01*
X1527365Y-5063D01*
X1527277Y-5027D01*
X1527190Y-4988D01*
X1527104Y-4945D01*
X1527021Y-4899D01*
X1526939Y-4850D01*
X1526859Y-4797D01*
X1526782Y-4741D01*
X1526706Y-4683D01*
X1526634Y-4621D01*
X1526564Y-4556D01*
X1526496Y-4488D01*
X1526431Y-4418D01*
X1526369Y-4346D01*
X1526311Y-4270D01*
X1526255Y-4193D01*
X1526202Y-4113D01*
X1526153Y-4032D01*
X1526107Y-3948D01*
X1526064Y-3862D01*
X1526025Y-3775D01*
X1525989Y-3687D01*
X1525957Y-3597D01*
X1525929Y-3506D01*
X1525904Y-3413D01*
X1525883Y-3320D01*
X1525866Y-3226D01*
X1525852Y-3132D01*
X1525843Y-3037D01*
X1525837Y-2941D01*
X1525835Y-2846D01*
X1528206Y-5217D02*
X1528342Y-5215D01*
X1528479Y-5210D01*
X1528615Y-5200D01*
X1528750Y-5187D01*
X1528886Y-5171D01*
X1529021Y-5150D01*
X1529155Y-5126D01*
X1529288Y-5099D01*
X1529421Y-5067D01*
X1529553Y-5033D01*
X1529684Y-4994D01*
X1529813Y-4952D01*
X1529942Y-4907D01*
X1530069Y-4858D01*
X1530195Y-4805D01*
X1530319Y-4749D01*
X1530442Y-4690D01*
X1530563Y-4628D01*
X1530683Y-4562D01*
X1530800Y-4493D01*
X1530916Y-4420D01*
X1531030Y-4345D01*
X1531141Y-4267D01*
X1531250Y-4185D01*
X1531358Y-4101D01*
X1531462Y-4014D01*
X1531565Y-3924D01*
X1531665Y-3831D01*
X1531762Y-3735D01*
X1531466Y3080D02*
X1531464Y3175D01*
X1531458Y3271D01*
X1531449Y3366D01*
X1531435Y3460D01*
X1531418Y3554D01*
X1531397Y3647D01*
X1531372Y3740D01*
X1531344Y3831D01*
X1531312Y3921D01*
X1531276Y4009D01*
X1531237Y4096D01*
X1531194Y4182D01*
X1531148Y4266D01*
X1531099Y4347D01*
X1531046Y4427D01*
X1530990Y4504D01*
X1530932Y4580D01*
X1530870Y4652D01*
X1530805Y4722D01*
X1530737Y4790D01*
X1530667Y4855D01*
X1530595Y4917D01*
X1530519Y4975D01*
X1530442Y5031D01*
X1530362Y5084D01*
X1530281Y5133D01*
X1530197Y5179D01*
X1530111Y5222D01*
X1530024Y5261D01*
X1529936Y5297D01*
X1529846Y5329D01*
X1529755Y5357D01*
X1529662Y5382D01*
X1529569Y5403D01*
X1529475Y5420D01*
X1529381Y5434D01*
X1529286Y5443D01*
X1529190Y5449D01*
X1529095Y5451D01*
X1528965Y5449D01*
X1528835Y5443D01*
X1528705Y5434D01*
X1528576Y5421D01*
X1528447Y5404D01*
X1528319Y5383D01*
X1528191Y5358D01*
X1528064Y5330D01*
X1527938Y5298D01*
X1527813Y5262D01*
X1527689Y5223D01*
X1527567Y5180D01*
X1527445Y5134D01*
X1527325Y5083D01*
X1527207Y5030D01*
X1527090Y4973D01*
X1526975Y4913D01*
X1526861Y4849D01*
X1526750Y4782D01*
X1526640Y4712D01*
X1526533Y4638D01*
X1526428Y4562D01*
X1530281Y1005D02*
X1530362Y1056D01*
X1530442Y1110D01*
X1530520Y1166D01*
X1530595Y1226D01*
X1530668Y1289D01*
X1530738Y1355D01*
X1530805Y1423D01*
X1530870Y1494D01*
X1530932Y1568D01*
X1530991Y1644D01*
X1531047Y1722D01*
X1531099Y1803D01*
X1531149Y1885D01*
X1531195Y1970D01*
X1531237Y2056D01*
X1531277Y2144D01*
X1531312Y2233D01*
X1531344Y2324D01*
X1531373Y2416D01*
X1531397Y2509D01*
X1531418Y2602D01*
X1531435Y2697D01*
X1531449Y2792D01*
X1531458Y2888D01*
X1531464Y2984D01*
X1531466Y3080D01*
X1527020Y-771D02*
X1526939Y-822D01*
X1526859Y-876D01*
X1526781Y-932D01*
X1526706Y-992D01*
X1526633Y-1055D01*
X1526563Y-1121D01*
X1526496Y-1189D01*
X1526431Y-1260D01*
X1526369Y-1334D01*
X1526310Y-1410D01*
X1526254Y-1488D01*
X1526202Y-1569D01*
X1526152Y-1651D01*
X1526106Y-1736D01*
X1526064Y-1822D01*
X1526024Y-1910D01*
X1525989Y-1999D01*
X1525957Y-2090D01*
X1525928Y-2182D01*
X1525904Y-2275D01*
X1525883Y-2368D01*
X1525866Y-2463D01*
X1525852Y-2558D01*
X1525843Y-2654D01*
X1525837Y-2750D01*
X1525835Y-2846D01*
X1527020Y-772D02*
X1530280Y1006D01*
X1566383Y-17155D02*
X1569939Y-17155D01*
X1568754Y-13599D02*
X1568754Y-22489D01*
X1568752Y-22571D01*
X1568746Y-22653D01*
X1568737Y-22735D01*
X1568724Y-22816D01*
X1568707Y-22896D01*
X1568686Y-22976D01*
X1568662Y-23054D01*
X1568634Y-23131D01*
X1568603Y-23207D01*
X1568568Y-23282D01*
X1568529Y-23354D01*
X1568488Y-23425D01*
X1568443Y-23494D01*
X1568395Y-23560D01*
X1568344Y-23625D01*
X1568290Y-23687D01*
X1568233Y-23746D01*
X1568174Y-23803D01*
X1568112Y-23857D01*
X1568047Y-23908D01*
X1567981Y-23956D01*
X1567912Y-24001D01*
X1567841Y-24042D01*
X1567769Y-24081D01*
X1567694Y-24116D01*
X1567618Y-24147D01*
X1567541Y-24175D01*
X1567463Y-24199D01*
X1567383Y-24220D01*
X1567303Y-24237D01*
X1567222Y-24250D01*
X1567140Y-24259D01*
X1567058Y-24265D01*
X1566976Y-24267D01*
X1566383Y-24267D01*
X1561630Y-21896D02*
X1561630Y-19526D01*
X1561631Y-19526D02*
X1561629Y-19429D01*
X1561623Y-19333D01*
X1561613Y-19237D01*
X1561599Y-19141D01*
X1561582Y-19046D01*
X1561560Y-18951D01*
X1561535Y-18858D01*
X1561506Y-18766D01*
X1561473Y-18675D01*
X1561436Y-18585D01*
X1561396Y-18497D01*
X1561352Y-18411D01*
X1561305Y-18327D01*
X1561255Y-18244D01*
X1561201Y-18164D01*
X1561143Y-18086D01*
X1561083Y-18010D01*
X1561020Y-17937D01*
X1560954Y-17867D01*
X1560884Y-17799D01*
X1560813Y-17734D01*
X1560738Y-17672D01*
X1560661Y-17614D01*
X1560582Y-17558D01*
X1560501Y-17506D01*
X1560417Y-17457D01*
X1560332Y-17411D01*
X1560245Y-17369D01*
X1560156Y-17331D01*
X1560066Y-17296D01*
X1559974Y-17265D01*
X1559881Y-17238D01*
X1559788Y-17214D01*
X1559693Y-17195D01*
X1559597Y-17179D01*
X1559501Y-17167D01*
X1559405Y-17159D01*
X1559308Y-17155D01*
X1559212Y-17155D01*
X1559115Y-17159D01*
X1559019Y-17167D01*
X1558923Y-17179D01*
X1558827Y-17195D01*
X1558732Y-17214D01*
X1558639Y-17238D01*
X1558546Y-17265D01*
X1558454Y-17296D01*
X1558364Y-17331D01*
X1558275Y-17369D01*
X1558188Y-17411D01*
X1558103Y-17457D01*
X1558019Y-17506D01*
X1557938Y-17558D01*
X1557859Y-17614D01*
X1557782Y-17672D01*
X1557707Y-17734D01*
X1557636Y-17799D01*
X1557566Y-17867D01*
X1557500Y-17937D01*
X1557437Y-18010D01*
X1557377Y-18086D01*
X1557319Y-18164D01*
X1557265Y-18244D01*
X1557215Y-18327D01*
X1557168Y-18411D01*
X1557124Y-18497D01*
X1557084Y-18585D01*
X1557047Y-18675D01*
X1557014Y-18766D01*
X1556985Y-18858D01*
X1556960Y-18951D01*
X1556938Y-19046D01*
X1556921Y-19141D01*
X1556907Y-19237D01*
X1556897Y-19333D01*
X1556891Y-19429D01*
X1556889Y-19526D01*
X1556889Y-21896D01*
X1556891Y-21993D01*
X1556897Y-22089D01*
X1556907Y-22185D01*
X1556921Y-22281D01*
X1556938Y-22376D01*
X1556960Y-22471D01*
X1556985Y-22564D01*
X1557014Y-22656D01*
X1557047Y-22747D01*
X1557084Y-22837D01*
X1557124Y-22925D01*
X1557168Y-23011D01*
X1557215Y-23095D01*
X1557265Y-23178D01*
X1557319Y-23258D01*
X1557377Y-23336D01*
X1557437Y-23412D01*
X1557500Y-23485D01*
X1557566Y-23555D01*
X1557636Y-23623D01*
X1557707Y-23688D01*
X1557782Y-23750D01*
X1557859Y-23808D01*
X1557938Y-23864D01*
X1558019Y-23916D01*
X1558103Y-23965D01*
X1558188Y-24011D01*
X1558275Y-24053D01*
X1558364Y-24091D01*
X1558454Y-24126D01*
X1558546Y-24157D01*
X1558639Y-24184D01*
X1558732Y-24208D01*
X1558827Y-24227D01*
X1558923Y-24243D01*
X1559019Y-24255D01*
X1559115Y-24263D01*
X1559212Y-24267D01*
X1559308Y-24267D01*
X1559405Y-24263D01*
X1559501Y-24255D01*
X1559597Y-24243D01*
X1559693Y-24227D01*
X1559788Y-24208D01*
X1559881Y-24184D01*
X1559974Y-24157D01*
X1560066Y-24126D01*
X1560156Y-24091D01*
X1560245Y-24053D01*
X1560332Y-24011D01*
X1560417Y-23965D01*
X1560501Y-23916D01*
X1560582Y-23864D01*
X1560661Y-23808D01*
X1560738Y-23750D01*
X1560813Y-23688D01*
X1560884Y-23623D01*
X1560954Y-23555D01*
X1561020Y-23485D01*
X1561083Y-23412D01*
X1561143Y-23336D01*
X1561201Y-23258D01*
X1561255Y-23178D01*
X1561305Y-23095D01*
X1561352Y-23011D01*
X1561396Y-22925D01*
X1561436Y-22837D01*
X1561473Y-22747D01*
X1561506Y-22656D01*
X1561535Y-22564D01*
X1561560Y-22471D01*
X1561582Y-22376D01*
X1561599Y-22281D01*
X1561613Y-22185D01*
X1561623Y-22089D01*
X1561629Y-21993D01*
X1561631Y-21896D01*
X1596032Y-32649D02*
X1596032Y-43317D01*
X1590105Y-43317D02*
X1596032Y-32649D01*
X1590105Y-32649D02*
X1590105Y-43317D01*
X1584221Y-37390D02*
X1580665Y-37390D01*
X1580570Y-37392D01*
X1580474Y-37398D01*
X1580379Y-37407D01*
X1580285Y-37421D01*
X1580191Y-37438D01*
X1580098Y-37459D01*
X1580005Y-37484D01*
X1579914Y-37512D01*
X1579824Y-37544D01*
X1579736Y-37580D01*
X1579649Y-37619D01*
X1579563Y-37662D01*
X1579480Y-37708D01*
X1579398Y-37757D01*
X1579318Y-37810D01*
X1579241Y-37866D01*
X1579165Y-37924D01*
X1579093Y-37986D01*
X1579023Y-38051D01*
X1578955Y-38119D01*
X1578890Y-38189D01*
X1578828Y-38261D01*
X1578770Y-38337D01*
X1578714Y-38414D01*
X1578661Y-38494D01*
X1578612Y-38575D01*
X1578566Y-38659D01*
X1578523Y-38745D01*
X1578484Y-38832D01*
X1578448Y-38920D01*
X1578416Y-39010D01*
X1578388Y-39101D01*
X1578363Y-39194D01*
X1578342Y-39287D01*
X1578325Y-39381D01*
X1578311Y-39475D01*
X1578302Y-39570D01*
X1578296Y-39666D01*
X1578294Y-39761D01*
X1578294Y-40354D01*
X1578296Y-40461D01*
X1578302Y-40568D01*
X1578311Y-40674D01*
X1578325Y-40780D01*
X1578342Y-40886D01*
X1578363Y-40991D01*
X1578388Y-41095D01*
X1578417Y-41198D01*
X1578449Y-41300D01*
X1578485Y-41401D01*
X1578525Y-41500D01*
X1578568Y-41598D01*
X1578615Y-41694D01*
X1578665Y-41789D01*
X1578718Y-41882D01*
X1578775Y-41972D01*
X1578835Y-42061D01*
X1578898Y-42147D01*
X1578964Y-42231D01*
X1579034Y-42313D01*
X1579106Y-42392D01*
X1579181Y-42468D01*
X1579259Y-42542D01*
X1579339Y-42612D01*
X1579422Y-42680D01*
X1579507Y-42745D01*
X1579594Y-42806D01*
X1579684Y-42865D01*
X1579776Y-42920D01*
X1579869Y-42972D01*
X1579965Y-43020D01*
X1580062Y-43065D01*
X1580160Y-43107D01*
X1580260Y-43144D01*
X1580362Y-43179D01*
X1580464Y-43209D01*
X1580568Y-43236D01*
X1580672Y-43259D01*
X1580778Y-43278D01*
X1580884Y-43293D01*
X1580990Y-43305D01*
X1581097Y-43313D01*
X1581204Y-43317D01*
X1581310Y-43317D01*
X1581417Y-43313D01*
X1581524Y-43305D01*
X1581630Y-43293D01*
X1581736Y-43278D01*
X1581842Y-43259D01*
X1581946Y-43236D01*
X1582050Y-43209D01*
X1582152Y-43179D01*
X1582254Y-43144D01*
X1582354Y-43107D01*
X1582452Y-43065D01*
X1582549Y-43020D01*
X1582645Y-42972D01*
X1582739Y-42920D01*
X1582830Y-42865D01*
X1582920Y-42806D01*
X1583007Y-42745D01*
X1583092Y-42680D01*
X1583175Y-42612D01*
X1583255Y-42542D01*
X1583333Y-42468D01*
X1583408Y-42392D01*
X1583480Y-42313D01*
X1583550Y-42231D01*
X1583616Y-42147D01*
X1583679Y-42061D01*
X1583739Y-41972D01*
X1583796Y-41882D01*
X1583849Y-41789D01*
X1583899Y-41694D01*
X1583946Y-41598D01*
X1583989Y-41500D01*
X1584029Y-41401D01*
X1584065Y-41300D01*
X1584097Y-41198D01*
X1584126Y-41095D01*
X1584151Y-40991D01*
X1584172Y-40886D01*
X1584189Y-40780D01*
X1584203Y-40674D01*
X1584212Y-40568D01*
X1584218Y-40461D01*
X1584220Y-40354D01*
X1584221Y-40354D02*
X1584221Y-37390D01*
X1584220Y-37390D02*
X1584218Y-37255D01*
X1584212Y-37119D01*
X1584203Y-36984D01*
X1584189Y-36850D01*
X1584172Y-36715D01*
X1584151Y-36582D01*
X1584126Y-36448D01*
X1584097Y-36316D01*
X1584064Y-36185D01*
X1584028Y-36054D01*
X1583988Y-35925D01*
X1583944Y-35797D01*
X1583897Y-35670D01*
X1583846Y-35544D01*
X1583792Y-35421D01*
X1583734Y-35298D01*
X1583672Y-35178D01*
X1583607Y-35059D01*
X1583539Y-34942D01*
X1583467Y-34827D01*
X1583393Y-34714D01*
X1583315Y-34603D01*
X1583233Y-34495D01*
X1583149Y-34389D01*
X1583062Y-34285D01*
X1582972Y-34184D01*
X1582879Y-34086D01*
X1582783Y-33990D01*
X1582685Y-33897D01*
X1582584Y-33807D01*
X1582480Y-33720D01*
X1582374Y-33636D01*
X1582266Y-33554D01*
X1582155Y-33476D01*
X1582042Y-33402D01*
X1581927Y-33330D01*
X1581810Y-33262D01*
X1581692Y-33197D01*
X1581571Y-33135D01*
X1581449Y-33077D01*
X1581325Y-33023D01*
X1581199Y-32972D01*
X1581072Y-32925D01*
X1580944Y-32881D01*
X1580815Y-32841D01*
X1580684Y-32805D01*
X1580553Y-32772D01*
X1580421Y-32743D01*
X1580288Y-32718D01*
X1580154Y-32697D01*
X1580019Y-32680D01*
X1579885Y-32666D01*
X1579750Y-32657D01*
X1579614Y-32651D01*
X1579479Y-32649D01*
X1570420Y-32649D02*
X1572791Y-40946D01*
X1566864Y-40946D01*
X1568642Y-38576D02*
X1568642Y-43317D01*
X1560869Y-43317D02*
X1560869Y-32649D01*
X1557906Y-32649D01*
X1557799Y-32651D01*
X1557692Y-32657D01*
X1557586Y-32666D01*
X1557480Y-32680D01*
X1557374Y-32697D01*
X1557269Y-32718D01*
X1557165Y-32743D01*
X1557062Y-32772D01*
X1556960Y-32804D01*
X1556859Y-32840D01*
X1556760Y-32880D01*
X1556662Y-32923D01*
X1556566Y-32970D01*
X1556471Y-33020D01*
X1556378Y-33073D01*
X1556288Y-33130D01*
X1556199Y-33190D01*
X1556113Y-33253D01*
X1556029Y-33319D01*
X1555947Y-33389D01*
X1555868Y-33461D01*
X1555792Y-33536D01*
X1555718Y-33614D01*
X1555648Y-33694D01*
X1555580Y-33777D01*
X1555515Y-33862D01*
X1555454Y-33949D01*
X1555395Y-34039D01*
X1555340Y-34131D01*
X1555288Y-34224D01*
X1555240Y-34320D01*
X1555195Y-34417D01*
X1555153Y-34515D01*
X1555116Y-34615D01*
X1555081Y-34717D01*
X1555051Y-34819D01*
X1555024Y-34923D01*
X1555001Y-35027D01*
X1554982Y-35133D01*
X1554967Y-35239D01*
X1554955Y-35345D01*
X1554947Y-35452D01*
X1554943Y-35559D01*
X1554943Y-35665D01*
X1554947Y-35772D01*
X1554955Y-35879D01*
X1554967Y-35985D01*
X1554982Y-36091D01*
X1555001Y-36197D01*
X1555024Y-36301D01*
X1555051Y-36405D01*
X1555081Y-36507D01*
X1555116Y-36609D01*
X1555153Y-36709D01*
X1555195Y-36807D01*
X1555240Y-36904D01*
X1555288Y-37000D01*
X1555340Y-37093D01*
X1555395Y-37185D01*
X1555454Y-37275D01*
X1555515Y-37362D01*
X1555580Y-37447D01*
X1555648Y-37530D01*
X1555718Y-37610D01*
X1555792Y-37688D01*
X1555868Y-37763D01*
X1555947Y-37835D01*
X1556029Y-37905D01*
X1556113Y-37971D01*
X1556199Y-38034D01*
X1556288Y-38094D01*
X1556378Y-38151D01*
X1556471Y-38204D01*
X1556566Y-38254D01*
X1556662Y-38301D01*
X1556760Y-38344D01*
X1556859Y-38384D01*
X1556960Y-38420D01*
X1557062Y-38452D01*
X1557165Y-38481D01*
X1557269Y-38506D01*
X1557374Y-38527D01*
X1557480Y-38544D01*
X1557586Y-38558D01*
X1557692Y-38567D01*
X1557799Y-38573D01*
X1557906Y-38575D01*
X1557906Y-38576D02*
X1560869Y-38576D01*
X1557313Y-38576D02*
X1554943Y-43317D01*
X1545020Y-37390D02*
X1543242Y-37390D01*
X1543242Y-43317D01*
X1546798Y-43317D01*
X1546893Y-43315D01*
X1546989Y-43309D01*
X1547084Y-43300D01*
X1547178Y-43286D01*
X1547272Y-43269D01*
X1547365Y-43248D01*
X1547458Y-43223D01*
X1547549Y-43195D01*
X1547639Y-43163D01*
X1547727Y-43127D01*
X1547814Y-43088D01*
X1547900Y-43045D01*
X1547984Y-42999D01*
X1548065Y-42950D01*
X1548145Y-42897D01*
X1548222Y-42841D01*
X1548298Y-42783D01*
X1548370Y-42721D01*
X1548440Y-42656D01*
X1548508Y-42588D01*
X1548573Y-42518D01*
X1548635Y-42446D01*
X1548693Y-42370D01*
X1548749Y-42293D01*
X1548802Y-42213D01*
X1548851Y-42132D01*
X1548897Y-42048D01*
X1548940Y-41962D01*
X1548979Y-41875D01*
X1549015Y-41787D01*
X1549047Y-41697D01*
X1549075Y-41606D01*
X1549100Y-41513D01*
X1549121Y-41420D01*
X1549138Y-41326D01*
X1549152Y-41232D01*
X1549161Y-41137D01*
X1549167Y-41041D01*
X1549169Y-40946D01*
X1549169Y-35020D01*
X1549167Y-34925D01*
X1549161Y-34829D01*
X1549152Y-34734D01*
X1549138Y-34640D01*
X1549121Y-34546D01*
X1549100Y-34453D01*
X1549075Y-34360D01*
X1549047Y-34269D01*
X1549015Y-34179D01*
X1548979Y-34091D01*
X1548940Y-34004D01*
X1548897Y-33918D01*
X1548851Y-33835D01*
X1548802Y-33753D01*
X1548749Y-33673D01*
X1548693Y-33596D01*
X1548635Y-33520D01*
X1548573Y-33448D01*
X1548508Y-33378D01*
X1548440Y-33310D01*
X1548370Y-33245D01*
X1548298Y-33183D01*
X1548222Y-33125D01*
X1548145Y-33069D01*
X1548065Y-33016D01*
X1547984Y-32967D01*
X1547900Y-32921D01*
X1547814Y-32878D01*
X1547727Y-32839D01*
X1547639Y-32803D01*
X1547549Y-32771D01*
X1547458Y-32743D01*
X1547365Y-32718D01*
X1547272Y-32697D01*
X1547178Y-32680D01*
X1547084Y-32666D01*
X1546989Y-32657D01*
X1546894Y-32651D01*
X1546798Y-32649D01*
X1543242Y-32649D01*
X1536723Y-37390D02*
X1533760Y-37390D01*
X1533760Y-37391D02*
X1533653Y-37393D01*
X1533546Y-37399D01*
X1533440Y-37408D01*
X1533334Y-37422D01*
X1533228Y-37439D01*
X1533123Y-37460D01*
X1533019Y-37485D01*
X1532916Y-37514D01*
X1532814Y-37546D01*
X1532713Y-37582D01*
X1532614Y-37622D01*
X1532516Y-37665D01*
X1532420Y-37712D01*
X1532325Y-37762D01*
X1532232Y-37815D01*
X1532142Y-37872D01*
X1532053Y-37932D01*
X1531967Y-37995D01*
X1531883Y-38061D01*
X1531801Y-38131D01*
X1531722Y-38203D01*
X1531646Y-38278D01*
X1531572Y-38356D01*
X1531502Y-38436D01*
X1531434Y-38519D01*
X1531369Y-38604D01*
X1531308Y-38691D01*
X1531249Y-38781D01*
X1531194Y-38873D01*
X1531142Y-38966D01*
X1531094Y-39062D01*
X1531049Y-39159D01*
X1531007Y-39257D01*
X1530970Y-39357D01*
X1530935Y-39459D01*
X1530905Y-39561D01*
X1530878Y-39665D01*
X1530855Y-39769D01*
X1530836Y-39875D01*
X1530821Y-39981D01*
X1530809Y-40087D01*
X1530801Y-40194D01*
X1530797Y-40301D01*
X1530797Y-40407D01*
X1530801Y-40514D01*
X1530809Y-40621D01*
X1530821Y-40727D01*
X1530836Y-40833D01*
X1530855Y-40939D01*
X1530878Y-41043D01*
X1530905Y-41147D01*
X1530935Y-41249D01*
X1530970Y-41351D01*
X1531007Y-41451D01*
X1531049Y-41549D01*
X1531094Y-41646D01*
X1531142Y-41742D01*
X1531194Y-41835D01*
X1531249Y-41927D01*
X1531308Y-42017D01*
X1531369Y-42104D01*
X1531434Y-42189D01*
X1531502Y-42272D01*
X1531572Y-42352D01*
X1531646Y-42430D01*
X1531722Y-42505D01*
X1531801Y-42577D01*
X1531883Y-42647D01*
X1531967Y-42713D01*
X1532053Y-42776D01*
X1532142Y-42836D01*
X1532232Y-42893D01*
X1532325Y-42946D01*
X1532420Y-42996D01*
X1532516Y-43043D01*
X1532614Y-43086D01*
X1532713Y-43126D01*
X1532814Y-43162D01*
X1532916Y-43194D01*
X1533019Y-43223D01*
X1533123Y-43248D01*
X1533228Y-43269D01*
X1533334Y-43286D01*
X1533440Y-43300D01*
X1533546Y-43309D01*
X1533653Y-43315D01*
X1533760Y-43317D01*
X1536723Y-43317D01*
X1536723Y-32649D01*
X1533760Y-32649D01*
X1533663Y-32651D01*
X1533567Y-32657D01*
X1533471Y-32667D01*
X1533375Y-32681D01*
X1533280Y-32698D01*
X1533185Y-32720D01*
X1533092Y-32745D01*
X1533000Y-32774D01*
X1532909Y-32807D01*
X1532819Y-32844D01*
X1532731Y-32884D01*
X1532645Y-32928D01*
X1532561Y-32975D01*
X1532478Y-33025D01*
X1532398Y-33079D01*
X1532320Y-33137D01*
X1532244Y-33197D01*
X1532171Y-33260D01*
X1532101Y-33326D01*
X1532033Y-33396D01*
X1531968Y-33467D01*
X1531906Y-33542D01*
X1531848Y-33619D01*
X1531792Y-33698D01*
X1531740Y-33779D01*
X1531691Y-33863D01*
X1531645Y-33948D01*
X1531603Y-34035D01*
X1531565Y-34124D01*
X1531530Y-34214D01*
X1531499Y-34306D01*
X1531472Y-34399D01*
X1531448Y-34492D01*
X1531429Y-34587D01*
X1531413Y-34683D01*
X1531401Y-34779D01*
X1531393Y-34875D01*
X1531389Y-34972D01*
X1531389Y-35068D01*
X1531393Y-35165D01*
X1531401Y-35261D01*
X1531413Y-35357D01*
X1531429Y-35453D01*
X1531448Y-35548D01*
X1531472Y-35641D01*
X1531499Y-35734D01*
X1531530Y-35826D01*
X1531565Y-35916D01*
X1531603Y-36005D01*
X1531645Y-36092D01*
X1531691Y-36177D01*
X1531740Y-36261D01*
X1531792Y-36342D01*
X1531848Y-36421D01*
X1531906Y-36498D01*
X1531968Y-36573D01*
X1532033Y-36644D01*
X1532101Y-36714D01*
X1532171Y-36780D01*
X1532244Y-36843D01*
X1532320Y-36903D01*
X1532398Y-36961D01*
X1532478Y-37015D01*
X1532561Y-37065D01*
X1532645Y-37112D01*
X1532731Y-37156D01*
X1532819Y-37196D01*
X1532909Y-37233D01*
X1533000Y-37266D01*
X1533092Y-37295D01*
X1533185Y-37320D01*
X1533280Y-37342D01*
X1533375Y-37359D01*
X1533471Y-37373D01*
X1533567Y-37383D01*
X1533663Y-37389D01*
X1533760Y-37391D01*
D10*
X1000Y15500D02*
X0Y16500D01*
X1000Y15500D02*
X4000Y15500D01*
X5000Y14500D01*
X5000Y11500D01*
X4000Y10500D01*
X1000Y10500D01*
X0Y9500D01*
X17000Y-26000D02*
X25500Y-34500D01*
M02*
