G04 EAGLE Gerber X2 export*
%TF.Part,Single*%
%TF.FileFunction,Other,silk top*%
%TF.FilePolarity,Positive*%
%TF.GenerationSoftware,Autodesk,EAGLE,9.6.2*%
%TF.CreationDate,2020-07-07T11:07:30Z*%
G75*
%MOMM*%
%FSLAX34Y34*%
%LPD*%
%INsilk top*%
%AMOC8*
5,1,8,0,0,1.08239X$1,22.5*%
G01*
%ADD10C,0.000000*%
%ADD11C,0.127000*%
%ADD12C,0.152400*%
%ADD13C,0.101600*%
%ADD14C,0.050800*%
%ADD15C,0.203200*%
%ADD16R,0.508000X0.889000*%


D10*
X0Y-23000D02*
X3000Y-26000D01*
X17000Y-26000D01*
X39750Y136500D02*
X252500Y136500D01*
X39750Y136500D02*
X23750Y120500D01*
X7000Y120500D01*
X0Y113500D01*
X0Y107500D01*
X0Y94000D02*
X0Y75000D01*
X1000Y74000D01*
X4000Y74000D01*
X5000Y73000D01*
X5000Y70000D02*
X4000Y69000D01*
X1000Y69000D01*
X0Y68000D01*
X5000Y70000D02*
X5000Y73000D01*
X0Y68000D02*
X0Y42500D01*
X1000Y41500D01*
X4000Y41500D01*
X5000Y40500D01*
X5000Y37500D02*
X4000Y36500D01*
X1000Y36500D01*
X0Y35500D01*
X5000Y37500D02*
X5000Y40500D01*
X0Y-16500D02*
X0Y-23000D01*
X0Y-3000D02*
X0Y9500D01*
X0Y16500D02*
X0Y35500D01*
X0Y-3000D02*
X1000Y-4000D01*
X4000Y-4000D02*
X5000Y-5000D01*
X4000Y-4000D02*
X1000Y-4000D01*
X5000Y-5000D02*
X5000Y-14500D01*
X4000Y-15500D01*
X1000Y-15500D01*
X0Y-16500D01*
X1000Y106500D02*
X0Y107500D01*
X1000Y106500D02*
X4000Y106500D01*
X5000Y105500D01*
X5000Y96000D01*
X4000Y95000D01*
X1000Y95000D01*
X0Y94000D01*
D11*
X21445Y-20840D02*
X21447Y-20755D01*
X21453Y-20669D01*
X21462Y-20584D01*
X21476Y-20500D01*
X21493Y-20416D01*
X21514Y-20333D01*
X21538Y-20251D01*
X21566Y-20171D01*
X21598Y-20091D01*
X21634Y-20013D01*
X21672Y-19937D01*
X21715Y-19863D01*
X21760Y-19791D01*
X21809Y-19720D01*
X21861Y-19652D01*
X21915Y-19587D01*
X21973Y-19524D01*
X22034Y-19463D01*
X22097Y-19405D01*
X22162Y-19351D01*
X22230Y-19299D01*
X22301Y-19250D01*
X22373Y-19205D01*
X22447Y-19162D01*
X22523Y-19124D01*
X22601Y-19088D01*
X22681Y-19056D01*
X22761Y-19028D01*
X22843Y-19004D01*
X22926Y-18983D01*
X23010Y-18966D01*
X23094Y-18952D01*
X23179Y-18943D01*
X23265Y-18937D01*
X23350Y-18935D01*
X23435Y-18937D01*
X23521Y-18943D01*
X23606Y-18952D01*
X23690Y-18966D01*
X23774Y-18983D01*
X23857Y-19004D01*
X23939Y-19028D01*
X24019Y-19056D01*
X24099Y-19088D01*
X24177Y-19124D01*
X24253Y-19162D01*
X24327Y-19205D01*
X24399Y-19250D01*
X24470Y-19299D01*
X24538Y-19351D01*
X24603Y-19405D01*
X24666Y-19463D01*
X24727Y-19524D01*
X24785Y-19587D01*
X24839Y-19652D01*
X24891Y-19720D01*
X24940Y-19791D01*
X24985Y-19863D01*
X25028Y-19937D01*
X25066Y-20013D01*
X25102Y-20091D01*
X25134Y-20171D01*
X25162Y-20251D01*
X25186Y-20333D01*
X25207Y-20416D01*
X25224Y-20500D01*
X25238Y-20584D01*
X25247Y-20669D01*
X25253Y-20755D01*
X25255Y-20840D01*
X25253Y-20925D01*
X25247Y-21011D01*
X25238Y-21096D01*
X25224Y-21180D01*
X25207Y-21264D01*
X25186Y-21347D01*
X25162Y-21429D01*
X25134Y-21509D01*
X25102Y-21589D01*
X25066Y-21667D01*
X25028Y-21743D01*
X24985Y-21817D01*
X24940Y-21889D01*
X24891Y-21960D01*
X24839Y-22028D01*
X24785Y-22093D01*
X24727Y-22156D01*
X24666Y-22217D01*
X24603Y-22275D01*
X24538Y-22329D01*
X24470Y-22381D01*
X24399Y-22430D01*
X24327Y-22475D01*
X24253Y-22518D01*
X24177Y-22556D01*
X24099Y-22592D01*
X24019Y-22624D01*
X23939Y-22652D01*
X23857Y-22676D01*
X23774Y-22697D01*
X23690Y-22714D01*
X23606Y-22728D01*
X23521Y-22737D01*
X23435Y-22743D01*
X23350Y-22745D01*
X23265Y-22743D01*
X23179Y-22737D01*
X23094Y-22728D01*
X23010Y-22714D01*
X22926Y-22697D01*
X22843Y-22676D01*
X22761Y-22652D01*
X22681Y-22624D01*
X22601Y-22592D01*
X22523Y-22556D01*
X22447Y-22518D01*
X22373Y-22475D01*
X22301Y-22430D01*
X22230Y-22381D01*
X22162Y-22329D01*
X22097Y-22275D01*
X22034Y-22217D01*
X21973Y-22156D01*
X21915Y-22093D01*
X21861Y-22028D01*
X21809Y-21960D01*
X21760Y-21889D01*
X21715Y-21817D01*
X21672Y-21743D01*
X21634Y-21667D01*
X21598Y-21589D01*
X21566Y-21509D01*
X21538Y-21429D01*
X21514Y-21347D01*
X21493Y-21264D01*
X21476Y-21180D01*
X21462Y-21096D01*
X21453Y-21011D01*
X21447Y-20925D01*
X21445Y-20840D01*
X21826Y-17411D02*
X21828Y-17334D01*
X21834Y-17257D01*
X21844Y-17180D01*
X21857Y-17104D01*
X21875Y-17029D01*
X21896Y-16955D01*
X21921Y-16882D01*
X21950Y-16810D01*
X21982Y-16740D01*
X22017Y-16671D01*
X22057Y-16605D01*
X22099Y-16540D01*
X22145Y-16478D01*
X22194Y-16418D01*
X22245Y-16361D01*
X22300Y-16306D01*
X22357Y-16255D01*
X22417Y-16206D01*
X22479Y-16160D01*
X22544Y-16118D01*
X22610Y-16078D01*
X22679Y-16043D01*
X22749Y-16011D01*
X22821Y-15982D01*
X22894Y-15957D01*
X22968Y-15936D01*
X23043Y-15918D01*
X23119Y-15905D01*
X23196Y-15895D01*
X23273Y-15889D01*
X23350Y-15887D01*
X23427Y-15889D01*
X23504Y-15895D01*
X23581Y-15905D01*
X23657Y-15918D01*
X23732Y-15936D01*
X23806Y-15957D01*
X23879Y-15982D01*
X23951Y-16011D01*
X24021Y-16043D01*
X24090Y-16078D01*
X24156Y-16118D01*
X24221Y-16160D01*
X24283Y-16206D01*
X24343Y-16255D01*
X24400Y-16306D01*
X24455Y-16361D01*
X24506Y-16418D01*
X24555Y-16478D01*
X24601Y-16540D01*
X24643Y-16605D01*
X24683Y-16671D01*
X24718Y-16740D01*
X24750Y-16810D01*
X24779Y-16882D01*
X24804Y-16955D01*
X24825Y-17029D01*
X24843Y-17104D01*
X24856Y-17180D01*
X24866Y-17257D01*
X24872Y-17334D01*
X24874Y-17411D01*
X24872Y-17488D01*
X24866Y-17565D01*
X24856Y-17642D01*
X24843Y-17718D01*
X24825Y-17793D01*
X24804Y-17867D01*
X24779Y-17940D01*
X24750Y-18012D01*
X24718Y-18082D01*
X24683Y-18151D01*
X24643Y-18217D01*
X24601Y-18282D01*
X24555Y-18344D01*
X24506Y-18404D01*
X24455Y-18461D01*
X24400Y-18516D01*
X24343Y-18567D01*
X24283Y-18616D01*
X24221Y-18662D01*
X24156Y-18704D01*
X24090Y-18744D01*
X24021Y-18779D01*
X23951Y-18811D01*
X23879Y-18840D01*
X23806Y-18865D01*
X23732Y-18886D01*
X23657Y-18904D01*
X23581Y-18917D01*
X23504Y-18927D01*
X23427Y-18933D01*
X23350Y-18935D01*
X23273Y-18933D01*
X23196Y-18927D01*
X23119Y-18917D01*
X23043Y-18904D01*
X22968Y-18886D01*
X22894Y-18865D01*
X22821Y-18840D01*
X22749Y-18811D01*
X22679Y-18779D01*
X22610Y-18744D01*
X22544Y-18704D01*
X22479Y-18662D01*
X22417Y-18616D01*
X22357Y-18567D01*
X22300Y-18516D01*
X22245Y-18461D01*
X22194Y-18404D01*
X22145Y-18344D01*
X22099Y-18282D01*
X22057Y-18217D01*
X22017Y-18151D01*
X21982Y-18082D01*
X21950Y-18012D01*
X21921Y-17940D01*
X21896Y-17867D01*
X21875Y-17793D01*
X21857Y-17718D01*
X21844Y-17642D01*
X21834Y-17565D01*
X21828Y-17488D01*
X21826Y-17411D01*
X23445Y28089D02*
X25350Y29613D01*
X25350Y22755D01*
X23445Y22755D02*
X27255Y22755D01*
X30760Y22755D02*
X33046Y22755D01*
X33123Y22757D01*
X33200Y22763D01*
X33277Y22773D01*
X33353Y22786D01*
X33428Y22804D01*
X33502Y22825D01*
X33575Y22850D01*
X33647Y22879D01*
X33717Y22911D01*
X33786Y22946D01*
X33852Y22986D01*
X33917Y23028D01*
X33979Y23074D01*
X34039Y23123D01*
X34096Y23174D01*
X34151Y23229D01*
X34202Y23286D01*
X34251Y23346D01*
X34297Y23408D01*
X34339Y23473D01*
X34379Y23539D01*
X34414Y23608D01*
X34446Y23678D01*
X34475Y23750D01*
X34500Y23823D01*
X34521Y23897D01*
X34539Y23972D01*
X34552Y24048D01*
X34562Y24125D01*
X34568Y24202D01*
X34570Y24279D01*
X34570Y25041D01*
X34568Y25118D01*
X34562Y25195D01*
X34552Y25272D01*
X34539Y25348D01*
X34521Y25423D01*
X34500Y25497D01*
X34475Y25570D01*
X34446Y25642D01*
X34414Y25712D01*
X34379Y25781D01*
X34339Y25847D01*
X34297Y25912D01*
X34251Y25974D01*
X34202Y26034D01*
X34151Y26091D01*
X34096Y26146D01*
X34039Y26197D01*
X33979Y26246D01*
X33917Y26292D01*
X33852Y26334D01*
X33786Y26374D01*
X33717Y26409D01*
X33647Y26441D01*
X33575Y26470D01*
X33502Y26495D01*
X33428Y26516D01*
X33353Y26534D01*
X33277Y26547D01*
X33200Y26557D01*
X33123Y26563D01*
X33046Y26565D01*
X30760Y26565D01*
X30760Y29613D01*
X34570Y29613D01*
X27256Y60399D02*
X27254Y60481D01*
X27248Y60562D01*
X27239Y60643D01*
X27225Y60724D01*
X27208Y60803D01*
X27187Y60882D01*
X27162Y60960D01*
X27133Y61036D01*
X27101Y61111D01*
X27065Y61185D01*
X27026Y61257D01*
X26984Y61326D01*
X26938Y61394D01*
X26889Y61459D01*
X26837Y61522D01*
X26782Y61582D01*
X26724Y61640D01*
X26664Y61695D01*
X26601Y61747D01*
X26536Y61796D01*
X26468Y61842D01*
X26399Y61884D01*
X26327Y61923D01*
X26253Y61959D01*
X26178Y61991D01*
X26102Y62020D01*
X26024Y62045D01*
X25945Y62066D01*
X25866Y62083D01*
X25785Y62097D01*
X25704Y62106D01*
X25623Y62112D01*
X25541Y62114D01*
X25541Y62113D02*
X25449Y62111D01*
X25357Y62105D01*
X25265Y62096D01*
X25173Y62082D01*
X25083Y62065D01*
X24993Y62044D01*
X24904Y62019D01*
X24816Y61990D01*
X24729Y61958D01*
X24644Y61922D01*
X24561Y61883D01*
X24479Y61840D01*
X24399Y61794D01*
X24321Y61744D01*
X24245Y61692D01*
X24172Y61636D01*
X24101Y61577D01*
X24032Y61515D01*
X23966Y61450D01*
X23903Y61383D01*
X23843Y61313D01*
X23785Y61241D01*
X23731Y61166D01*
X23680Y61089D01*
X23632Y61010D01*
X23588Y60929D01*
X23547Y60846D01*
X23509Y60762D01*
X23475Y60676D01*
X23445Y60589D01*
X26684Y59065D02*
X26743Y59124D01*
X26799Y59185D01*
X26852Y59248D01*
X26903Y59314D01*
X26950Y59382D01*
X26994Y59452D01*
X27035Y59524D01*
X27073Y59598D01*
X27107Y59673D01*
X27138Y59750D01*
X27165Y59828D01*
X27189Y59908D01*
X27210Y59988D01*
X27226Y60069D01*
X27239Y60151D01*
X27249Y60233D01*
X27254Y60316D01*
X27256Y60399D01*
X26684Y59065D02*
X23445Y55255D01*
X27255Y55255D01*
X30760Y58684D02*
X30762Y58826D01*
X30767Y58969D01*
X30776Y59111D01*
X30789Y59253D01*
X30805Y59394D01*
X30824Y59535D01*
X30848Y59676D01*
X30874Y59816D01*
X30905Y59955D01*
X30939Y60093D01*
X30976Y60231D01*
X31016Y60367D01*
X31061Y60503D01*
X31108Y60637D01*
X31159Y60770D01*
X31213Y60902D01*
X31271Y61032D01*
X31332Y61161D01*
X31331Y61160D02*
X31357Y61229D01*
X31386Y61295D01*
X31418Y61361D01*
X31453Y61424D01*
X31492Y61486D01*
X31534Y61546D01*
X31579Y61603D01*
X31627Y61658D01*
X31678Y61710D01*
X31731Y61760D01*
X31787Y61806D01*
X31845Y61850D01*
X31906Y61891D01*
X31968Y61929D01*
X32032Y61963D01*
X32098Y61994D01*
X32166Y62022D01*
X32235Y62046D01*
X32305Y62066D01*
X32376Y62083D01*
X32447Y62096D01*
X32519Y62105D01*
X32592Y62111D01*
X32665Y62113D01*
X32738Y62111D01*
X32811Y62105D01*
X32883Y62096D01*
X32954Y62083D01*
X33025Y62066D01*
X33095Y62046D01*
X33164Y62022D01*
X33232Y61994D01*
X33298Y61963D01*
X33362Y61929D01*
X33424Y61891D01*
X33485Y61850D01*
X33543Y61806D01*
X33599Y61760D01*
X33652Y61710D01*
X33703Y61658D01*
X33751Y61603D01*
X33796Y61546D01*
X33838Y61486D01*
X33877Y61424D01*
X33912Y61361D01*
X33944Y61295D01*
X33973Y61229D01*
X33999Y61160D01*
X33999Y61161D02*
X34060Y61032D01*
X34118Y60902D01*
X34172Y60770D01*
X34223Y60637D01*
X34270Y60503D01*
X34315Y60367D01*
X34355Y60231D01*
X34392Y60093D01*
X34426Y59955D01*
X34457Y59816D01*
X34483Y59676D01*
X34507Y59535D01*
X34526Y59394D01*
X34542Y59253D01*
X34555Y59111D01*
X34564Y58969D01*
X34569Y58826D01*
X34571Y58684D01*
X30760Y58684D02*
X30762Y58542D01*
X30767Y58399D01*
X30776Y58257D01*
X30789Y58115D01*
X30805Y57974D01*
X30824Y57833D01*
X30848Y57692D01*
X30874Y57552D01*
X30905Y57413D01*
X30939Y57275D01*
X30976Y57137D01*
X31016Y57001D01*
X31061Y56865D01*
X31108Y56731D01*
X31159Y56598D01*
X31213Y56466D01*
X31271Y56336D01*
X31332Y56207D01*
X31331Y56208D02*
X31357Y56139D01*
X31386Y56073D01*
X31418Y56007D01*
X31453Y55944D01*
X31492Y55882D01*
X31534Y55822D01*
X31579Y55765D01*
X31627Y55710D01*
X31678Y55658D01*
X31731Y55608D01*
X31787Y55562D01*
X31845Y55518D01*
X31906Y55477D01*
X31968Y55439D01*
X32032Y55405D01*
X32098Y55374D01*
X32166Y55346D01*
X32235Y55322D01*
X32305Y55302D01*
X32376Y55285D01*
X32447Y55272D01*
X32519Y55263D01*
X32592Y55257D01*
X32665Y55255D01*
X33999Y56207D02*
X34060Y56336D01*
X34118Y56466D01*
X34172Y56598D01*
X34223Y56731D01*
X34270Y56865D01*
X34315Y57001D01*
X34355Y57137D01*
X34392Y57275D01*
X34426Y57413D01*
X34457Y57552D01*
X34483Y57692D01*
X34507Y57833D01*
X34526Y57974D01*
X34542Y58115D01*
X34555Y58257D01*
X34564Y58399D01*
X34569Y58542D01*
X34571Y58684D01*
X33999Y56208D02*
X33973Y56139D01*
X33944Y56073D01*
X33912Y56007D01*
X33877Y55944D01*
X33838Y55882D01*
X33796Y55822D01*
X33751Y55765D01*
X33703Y55710D01*
X33652Y55658D01*
X33599Y55608D01*
X33543Y55562D01*
X33485Y55518D01*
X33424Y55477D01*
X33362Y55439D01*
X33298Y55405D01*
X33232Y55374D01*
X33164Y55346D01*
X33095Y55322D01*
X33025Y55302D01*
X32954Y55285D01*
X32883Y55272D01*
X32811Y55263D01*
X32738Y55257D01*
X32665Y55255D01*
X31141Y56779D02*
X34189Y60589D01*
X27256Y92899D02*
X27254Y92981D01*
X27248Y93062D01*
X27239Y93143D01*
X27225Y93224D01*
X27208Y93303D01*
X27187Y93382D01*
X27162Y93460D01*
X27133Y93536D01*
X27101Y93611D01*
X27065Y93685D01*
X27026Y93757D01*
X26984Y93826D01*
X26938Y93894D01*
X26889Y93959D01*
X26837Y94022D01*
X26782Y94082D01*
X26724Y94140D01*
X26664Y94195D01*
X26601Y94247D01*
X26536Y94296D01*
X26468Y94342D01*
X26399Y94384D01*
X26327Y94423D01*
X26253Y94459D01*
X26178Y94491D01*
X26102Y94520D01*
X26024Y94545D01*
X25945Y94566D01*
X25866Y94583D01*
X25785Y94597D01*
X25704Y94606D01*
X25623Y94612D01*
X25541Y94614D01*
X25541Y94613D02*
X25449Y94611D01*
X25357Y94605D01*
X25265Y94596D01*
X25173Y94582D01*
X25083Y94565D01*
X24993Y94544D01*
X24904Y94519D01*
X24816Y94490D01*
X24729Y94458D01*
X24644Y94422D01*
X24561Y94383D01*
X24479Y94340D01*
X24399Y94294D01*
X24321Y94244D01*
X24245Y94192D01*
X24172Y94136D01*
X24101Y94077D01*
X24032Y94015D01*
X23966Y93950D01*
X23903Y93883D01*
X23843Y93813D01*
X23785Y93741D01*
X23731Y93666D01*
X23680Y93589D01*
X23632Y93510D01*
X23588Y93429D01*
X23547Y93346D01*
X23509Y93262D01*
X23475Y93176D01*
X23445Y93089D01*
X26684Y91565D02*
X26743Y91624D01*
X26799Y91685D01*
X26852Y91748D01*
X26903Y91814D01*
X26950Y91882D01*
X26994Y91952D01*
X27035Y92024D01*
X27073Y92098D01*
X27107Y92173D01*
X27138Y92250D01*
X27165Y92328D01*
X27189Y92408D01*
X27210Y92488D01*
X27226Y92569D01*
X27239Y92651D01*
X27249Y92733D01*
X27254Y92816D01*
X27256Y92899D01*
X26684Y91565D02*
X23445Y87755D01*
X27255Y87755D01*
X30760Y87755D02*
X33046Y87755D01*
X33123Y87757D01*
X33200Y87763D01*
X33277Y87773D01*
X33353Y87786D01*
X33428Y87804D01*
X33502Y87825D01*
X33575Y87850D01*
X33647Y87879D01*
X33717Y87911D01*
X33786Y87946D01*
X33852Y87986D01*
X33917Y88028D01*
X33979Y88074D01*
X34039Y88123D01*
X34096Y88174D01*
X34151Y88229D01*
X34202Y88286D01*
X34251Y88346D01*
X34297Y88408D01*
X34339Y88473D01*
X34379Y88539D01*
X34414Y88608D01*
X34446Y88678D01*
X34475Y88750D01*
X34500Y88823D01*
X34521Y88897D01*
X34539Y88972D01*
X34552Y89048D01*
X34562Y89125D01*
X34568Y89202D01*
X34570Y89279D01*
X34570Y90041D01*
X34568Y90118D01*
X34562Y90195D01*
X34552Y90272D01*
X34539Y90348D01*
X34521Y90423D01*
X34500Y90497D01*
X34475Y90570D01*
X34446Y90642D01*
X34414Y90712D01*
X34379Y90781D01*
X34339Y90847D01*
X34297Y90912D01*
X34251Y90974D01*
X34202Y91034D01*
X34151Y91091D01*
X34096Y91146D01*
X34039Y91197D01*
X33979Y91246D01*
X33917Y91292D01*
X33852Y91334D01*
X33786Y91374D01*
X33717Y91409D01*
X33647Y91441D01*
X33575Y91470D01*
X33502Y91495D01*
X33428Y91516D01*
X33353Y91534D01*
X33277Y91547D01*
X33200Y91557D01*
X33123Y91563D01*
X33046Y91565D01*
X30760Y91565D01*
X30760Y94613D01*
X34570Y94613D01*
X27256Y112399D02*
X27254Y112481D01*
X27248Y112562D01*
X27239Y112643D01*
X27225Y112724D01*
X27208Y112803D01*
X27187Y112882D01*
X27162Y112960D01*
X27133Y113036D01*
X27101Y113111D01*
X27065Y113185D01*
X27026Y113257D01*
X26984Y113326D01*
X26938Y113394D01*
X26889Y113459D01*
X26837Y113522D01*
X26782Y113582D01*
X26724Y113640D01*
X26664Y113695D01*
X26601Y113747D01*
X26536Y113796D01*
X26468Y113842D01*
X26399Y113884D01*
X26327Y113923D01*
X26253Y113959D01*
X26178Y113991D01*
X26102Y114020D01*
X26024Y114045D01*
X25945Y114066D01*
X25866Y114083D01*
X25785Y114097D01*
X25704Y114106D01*
X25623Y114112D01*
X25541Y114114D01*
X25541Y114113D02*
X25449Y114111D01*
X25357Y114105D01*
X25265Y114096D01*
X25173Y114082D01*
X25083Y114065D01*
X24993Y114044D01*
X24904Y114019D01*
X24816Y113990D01*
X24729Y113958D01*
X24644Y113922D01*
X24561Y113883D01*
X24479Y113840D01*
X24399Y113794D01*
X24321Y113744D01*
X24245Y113692D01*
X24172Y113636D01*
X24101Y113577D01*
X24032Y113515D01*
X23966Y113450D01*
X23903Y113383D01*
X23843Y113313D01*
X23785Y113241D01*
X23731Y113166D01*
X23680Y113089D01*
X23632Y113010D01*
X23588Y112929D01*
X23547Y112846D01*
X23509Y112762D01*
X23475Y112676D01*
X23445Y112589D01*
X26684Y111065D02*
X26743Y111124D01*
X26799Y111185D01*
X26852Y111248D01*
X26903Y111314D01*
X26950Y111382D01*
X26994Y111452D01*
X27035Y111524D01*
X27073Y111598D01*
X27107Y111673D01*
X27138Y111750D01*
X27165Y111828D01*
X27189Y111908D01*
X27210Y111988D01*
X27226Y112069D01*
X27239Y112151D01*
X27249Y112233D01*
X27254Y112316D01*
X27256Y112399D01*
X26684Y111065D02*
X23445Y107255D01*
X27255Y107255D01*
X30760Y109160D02*
X30762Y109245D01*
X30768Y109331D01*
X30777Y109416D01*
X30791Y109500D01*
X30808Y109584D01*
X30829Y109667D01*
X30853Y109749D01*
X30881Y109829D01*
X30913Y109909D01*
X30949Y109987D01*
X30987Y110063D01*
X31030Y110137D01*
X31075Y110209D01*
X31124Y110280D01*
X31176Y110348D01*
X31230Y110413D01*
X31288Y110476D01*
X31349Y110537D01*
X31412Y110595D01*
X31477Y110649D01*
X31545Y110701D01*
X31616Y110750D01*
X31688Y110795D01*
X31762Y110838D01*
X31838Y110876D01*
X31916Y110912D01*
X31996Y110944D01*
X32076Y110972D01*
X32158Y110996D01*
X32241Y111017D01*
X32325Y111034D01*
X32409Y111048D01*
X32494Y111057D01*
X32580Y111063D01*
X32665Y111065D01*
X32750Y111063D01*
X32836Y111057D01*
X32921Y111048D01*
X33005Y111034D01*
X33089Y111017D01*
X33172Y110996D01*
X33254Y110972D01*
X33334Y110944D01*
X33414Y110912D01*
X33492Y110876D01*
X33568Y110838D01*
X33642Y110795D01*
X33714Y110750D01*
X33785Y110701D01*
X33853Y110649D01*
X33918Y110595D01*
X33981Y110537D01*
X34042Y110476D01*
X34100Y110413D01*
X34154Y110348D01*
X34206Y110280D01*
X34255Y110209D01*
X34300Y110137D01*
X34343Y110063D01*
X34381Y109987D01*
X34417Y109909D01*
X34449Y109829D01*
X34477Y109749D01*
X34501Y109667D01*
X34522Y109584D01*
X34539Y109500D01*
X34553Y109416D01*
X34562Y109331D01*
X34568Y109245D01*
X34570Y109160D01*
X34568Y109075D01*
X34562Y108989D01*
X34553Y108904D01*
X34539Y108820D01*
X34522Y108736D01*
X34501Y108653D01*
X34477Y108571D01*
X34449Y108491D01*
X34417Y108411D01*
X34381Y108333D01*
X34343Y108257D01*
X34300Y108183D01*
X34255Y108111D01*
X34206Y108040D01*
X34154Y107972D01*
X34100Y107907D01*
X34042Y107844D01*
X33981Y107783D01*
X33918Y107725D01*
X33853Y107671D01*
X33785Y107619D01*
X33714Y107570D01*
X33642Y107525D01*
X33568Y107482D01*
X33492Y107444D01*
X33414Y107408D01*
X33334Y107376D01*
X33254Y107348D01*
X33172Y107324D01*
X33089Y107303D01*
X33005Y107286D01*
X32921Y107272D01*
X32836Y107263D01*
X32750Y107257D01*
X32665Y107255D01*
X32580Y107257D01*
X32494Y107263D01*
X32409Y107272D01*
X32325Y107286D01*
X32241Y107303D01*
X32158Y107324D01*
X32076Y107348D01*
X31996Y107376D01*
X31916Y107408D01*
X31838Y107444D01*
X31762Y107482D01*
X31688Y107525D01*
X31616Y107570D01*
X31545Y107619D01*
X31477Y107671D01*
X31412Y107725D01*
X31349Y107783D01*
X31288Y107844D01*
X31230Y107907D01*
X31176Y107972D01*
X31124Y108040D01*
X31075Y108111D01*
X31030Y108183D01*
X30987Y108257D01*
X30949Y108333D01*
X30913Y108411D01*
X30881Y108491D01*
X30853Y108571D01*
X30829Y108653D01*
X30808Y108736D01*
X30791Y108820D01*
X30777Y108904D01*
X30768Y108989D01*
X30762Y109075D01*
X30760Y109160D01*
X31141Y112589D02*
X31143Y112666D01*
X31149Y112743D01*
X31159Y112820D01*
X31172Y112896D01*
X31190Y112971D01*
X31211Y113045D01*
X31236Y113118D01*
X31265Y113190D01*
X31297Y113260D01*
X31332Y113329D01*
X31372Y113395D01*
X31414Y113460D01*
X31460Y113522D01*
X31509Y113582D01*
X31560Y113639D01*
X31615Y113694D01*
X31672Y113745D01*
X31732Y113794D01*
X31794Y113840D01*
X31859Y113882D01*
X31925Y113922D01*
X31994Y113957D01*
X32064Y113989D01*
X32136Y114018D01*
X32209Y114043D01*
X32283Y114064D01*
X32358Y114082D01*
X32434Y114095D01*
X32511Y114105D01*
X32588Y114111D01*
X32665Y114113D01*
X32742Y114111D01*
X32819Y114105D01*
X32896Y114095D01*
X32972Y114082D01*
X33047Y114064D01*
X33121Y114043D01*
X33194Y114018D01*
X33266Y113989D01*
X33336Y113957D01*
X33405Y113922D01*
X33471Y113882D01*
X33536Y113840D01*
X33598Y113794D01*
X33658Y113745D01*
X33715Y113694D01*
X33770Y113639D01*
X33821Y113582D01*
X33870Y113522D01*
X33916Y113460D01*
X33958Y113395D01*
X33998Y113329D01*
X34033Y113260D01*
X34065Y113190D01*
X34094Y113118D01*
X34119Y113045D01*
X34140Y112971D01*
X34158Y112896D01*
X34171Y112820D01*
X34181Y112743D01*
X34187Y112666D01*
X34189Y112589D01*
X34187Y112512D01*
X34181Y112435D01*
X34171Y112358D01*
X34158Y112282D01*
X34140Y112207D01*
X34119Y112133D01*
X34094Y112060D01*
X34065Y111988D01*
X34033Y111918D01*
X33998Y111849D01*
X33958Y111783D01*
X33916Y111718D01*
X33870Y111656D01*
X33821Y111596D01*
X33770Y111539D01*
X33715Y111484D01*
X33658Y111433D01*
X33598Y111384D01*
X33536Y111338D01*
X33471Y111296D01*
X33405Y111256D01*
X33336Y111221D01*
X33266Y111189D01*
X33194Y111160D01*
X33121Y111135D01*
X33047Y111114D01*
X32972Y111096D01*
X32896Y111083D01*
X32819Y111073D01*
X32742Y111067D01*
X32665Y111065D01*
X32588Y111067D01*
X32511Y111073D01*
X32434Y111083D01*
X32358Y111096D01*
X32283Y111114D01*
X32209Y111135D01*
X32136Y111160D01*
X32064Y111189D01*
X31994Y111221D01*
X31925Y111256D01*
X31859Y111296D01*
X31794Y111338D01*
X31732Y111384D01*
X31672Y111433D01*
X31615Y111484D01*
X31560Y111539D01*
X31509Y111596D01*
X31460Y111656D01*
X31414Y111718D01*
X31372Y111783D01*
X31332Y111849D01*
X31297Y111918D01*
X31265Y111988D01*
X31236Y112060D01*
X31211Y112133D01*
X31190Y112207D01*
X31172Y112282D01*
X31159Y112358D01*
X31149Y112435D01*
X31143Y112512D01*
X31141Y112589D01*
X87409Y-13615D02*
X88933Y-13615D01*
X87409Y-13615D02*
X87332Y-13613D01*
X87255Y-13607D01*
X87178Y-13597D01*
X87102Y-13584D01*
X87027Y-13566D01*
X86953Y-13545D01*
X86880Y-13520D01*
X86808Y-13491D01*
X86738Y-13459D01*
X86669Y-13424D01*
X86603Y-13384D01*
X86538Y-13342D01*
X86476Y-13296D01*
X86416Y-13247D01*
X86359Y-13196D01*
X86304Y-13141D01*
X86253Y-13084D01*
X86204Y-13024D01*
X86158Y-12962D01*
X86116Y-12897D01*
X86076Y-12831D01*
X86041Y-12762D01*
X86009Y-12692D01*
X85980Y-12620D01*
X85955Y-12547D01*
X85934Y-12473D01*
X85916Y-12398D01*
X85903Y-12322D01*
X85893Y-12245D01*
X85887Y-12168D01*
X85885Y-12091D01*
X85885Y-8281D01*
X85887Y-8204D01*
X85893Y-8127D01*
X85903Y-8050D01*
X85916Y-7974D01*
X85934Y-7899D01*
X85955Y-7825D01*
X85980Y-7752D01*
X86009Y-7680D01*
X86041Y-7610D01*
X86076Y-7541D01*
X86116Y-7475D01*
X86158Y-7410D01*
X86204Y-7348D01*
X86253Y-7288D01*
X86304Y-7231D01*
X86359Y-7176D01*
X86416Y-7125D01*
X86476Y-7076D01*
X86538Y-7030D01*
X86603Y-6988D01*
X86669Y-6948D01*
X86738Y-6913D01*
X86808Y-6881D01*
X86880Y-6852D01*
X86953Y-6827D01*
X87027Y-6806D01*
X87102Y-6788D01*
X87178Y-6775D01*
X87255Y-6765D01*
X87332Y-6759D01*
X87409Y-6757D01*
X88933Y-6757D01*
X91224Y-9043D02*
X93510Y-9043D01*
X91986Y-6757D02*
X91986Y-12472D01*
X91988Y-12538D01*
X91994Y-12605D01*
X92003Y-12670D01*
X92017Y-12736D01*
X92034Y-12800D01*
X92055Y-12863D01*
X92079Y-12925D01*
X92108Y-12985D01*
X92139Y-13043D01*
X92174Y-13100D01*
X92212Y-13155D01*
X92253Y-13207D01*
X92298Y-13256D01*
X92345Y-13303D01*
X92394Y-13348D01*
X92446Y-13389D01*
X92501Y-13427D01*
X92558Y-13462D01*
X92616Y-13493D01*
X92676Y-13522D01*
X92738Y-13546D01*
X92801Y-13567D01*
X92865Y-13584D01*
X92931Y-13598D01*
X92996Y-13607D01*
X93063Y-13613D01*
X93129Y-13615D01*
X93510Y-13615D01*
X96845Y-13615D02*
X96845Y-9043D01*
X99131Y-9043D01*
X99131Y-9805D01*
X101684Y-12472D02*
X101684Y-6757D01*
X101684Y-12472D02*
X101686Y-12538D01*
X101692Y-12605D01*
X101701Y-12670D01*
X101715Y-12736D01*
X101732Y-12800D01*
X101753Y-12863D01*
X101777Y-12925D01*
X101806Y-12985D01*
X101837Y-13043D01*
X101872Y-13100D01*
X101910Y-13155D01*
X101951Y-13207D01*
X101996Y-13256D01*
X102043Y-13303D01*
X102092Y-13348D01*
X102144Y-13389D01*
X102199Y-13427D01*
X102256Y-13462D01*
X102314Y-13493D01*
X102374Y-13522D01*
X102436Y-13546D01*
X102499Y-13567D01*
X102563Y-13584D01*
X102629Y-13598D01*
X102694Y-13607D01*
X102761Y-13613D01*
X102827Y-13615D01*
X112385Y-13615D02*
X112385Y-6757D01*
X114290Y-6757D01*
X114375Y-6759D01*
X114461Y-6765D01*
X114546Y-6774D01*
X114630Y-6788D01*
X114714Y-6805D01*
X114797Y-6826D01*
X114879Y-6850D01*
X114959Y-6878D01*
X115039Y-6910D01*
X115117Y-6946D01*
X115193Y-6984D01*
X115267Y-7027D01*
X115339Y-7072D01*
X115410Y-7121D01*
X115478Y-7173D01*
X115543Y-7227D01*
X115606Y-7285D01*
X115667Y-7346D01*
X115725Y-7409D01*
X115779Y-7474D01*
X115831Y-7542D01*
X115880Y-7613D01*
X115925Y-7685D01*
X115968Y-7759D01*
X116006Y-7835D01*
X116042Y-7913D01*
X116074Y-7993D01*
X116102Y-8073D01*
X116126Y-8155D01*
X116147Y-8238D01*
X116164Y-8322D01*
X116178Y-8406D01*
X116187Y-8491D01*
X116193Y-8577D01*
X116195Y-8662D01*
X116193Y-8747D01*
X116187Y-8833D01*
X116178Y-8918D01*
X116164Y-9002D01*
X116147Y-9086D01*
X116126Y-9169D01*
X116102Y-9251D01*
X116074Y-9331D01*
X116042Y-9411D01*
X116006Y-9489D01*
X115968Y-9565D01*
X115925Y-9639D01*
X115880Y-9711D01*
X115831Y-9782D01*
X115779Y-9850D01*
X115725Y-9915D01*
X115667Y-9978D01*
X115606Y-10039D01*
X115543Y-10097D01*
X115478Y-10151D01*
X115410Y-10203D01*
X115339Y-10252D01*
X115267Y-10297D01*
X115193Y-10340D01*
X115117Y-10378D01*
X115039Y-10414D01*
X114959Y-10446D01*
X114879Y-10474D01*
X114797Y-10498D01*
X114714Y-10519D01*
X114630Y-10536D01*
X114546Y-10550D01*
X114461Y-10559D01*
X114375Y-10565D01*
X114290Y-10567D01*
X112385Y-10567D01*
X114671Y-10567D02*
X116195Y-13615D01*
X120095Y-10948D02*
X122000Y-11710D01*
X120095Y-10948D02*
X120038Y-10923D01*
X119983Y-10895D01*
X119929Y-10863D01*
X119878Y-10828D01*
X119829Y-10789D01*
X119782Y-10748D01*
X119738Y-10704D01*
X119697Y-10657D01*
X119659Y-10607D01*
X119625Y-10555D01*
X119593Y-10502D01*
X119565Y-10446D01*
X119541Y-10389D01*
X119520Y-10330D01*
X119503Y-10270D01*
X119490Y-10209D01*
X119481Y-10147D01*
X119475Y-10085D01*
X119474Y-10023D01*
X119477Y-9961D01*
X119483Y-9899D01*
X119493Y-9837D01*
X119507Y-9777D01*
X119525Y-9717D01*
X119547Y-9658D01*
X119572Y-9602D01*
X119601Y-9546D01*
X119633Y-9493D01*
X119669Y-9442D01*
X119708Y-9393D01*
X119749Y-9347D01*
X119794Y-9303D01*
X119841Y-9262D01*
X119891Y-9225D01*
X119943Y-9190D01*
X119997Y-9159D01*
X120053Y-9132D01*
X120110Y-9108D01*
X120169Y-9087D01*
X120229Y-9071D01*
X120290Y-9058D01*
X120352Y-9049D01*
X120414Y-9044D01*
X120476Y-9043D01*
X120477Y-9043D02*
X120603Y-9047D01*
X120729Y-9054D01*
X120855Y-9065D01*
X120981Y-9080D01*
X121106Y-9098D01*
X121230Y-9120D01*
X121354Y-9146D01*
X121477Y-9175D01*
X121599Y-9208D01*
X121720Y-9244D01*
X121839Y-9284D01*
X121958Y-9328D01*
X122075Y-9374D01*
X122191Y-9424D01*
X122001Y-11710D02*
X122058Y-11735D01*
X122113Y-11763D01*
X122167Y-11795D01*
X122218Y-11830D01*
X122267Y-11869D01*
X122314Y-11910D01*
X122358Y-11954D01*
X122399Y-12001D01*
X122437Y-12051D01*
X122471Y-12103D01*
X122503Y-12156D01*
X122531Y-12212D01*
X122555Y-12269D01*
X122576Y-12328D01*
X122593Y-12388D01*
X122606Y-12449D01*
X122615Y-12511D01*
X122621Y-12573D01*
X122622Y-12635D01*
X122619Y-12697D01*
X122613Y-12759D01*
X122603Y-12821D01*
X122589Y-12881D01*
X122571Y-12941D01*
X122549Y-13000D01*
X122524Y-13056D01*
X122495Y-13112D01*
X122463Y-13165D01*
X122427Y-13216D01*
X122388Y-13265D01*
X122347Y-13311D01*
X122302Y-13355D01*
X122255Y-13396D01*
X122205Y-13433D01*
X122153Y-13468D01*
X122099Y-13499D01*
X122043Y-13526D01*
X121986Y-13550D01*
X121927Y-13571D01*
X121867Y-13587D01*
X121806Y-13600D01*
X121744Y-13609D01*
X121682Y-13614D01*
X121620Y-13615D01*
X121467Y-13611D01*
X121314Y-13604D01*
X121162Y-13593D01*
X121010Y-13578D01*
X120858Y-13559D01*
X120707Y-13537D01*
X120556Y-13512D01*
X120406Y-13483D01*
X120257Y-13450D01*
X120108Y-13414D01*
X119961Y-13374D01*
X119814Y-13331D01*
X119668Y-13284D01*
X119524Y-13234D01*
X125182Y-9043D02*
X127468Y-9043D01*
X125944Y-6757D02*
X125944Y-12472D01*
X125946Y-12538D01*
X125952Y-12605D01*
X125961Y-12670D01*
X125975Y-12736D01*
X125992Y-12800D01*
X126013Y-12863D01*
X126037Y-12925D01*
X126066Y-12985D01*
X126097Y-13043D01*
X126132Y-13100D01*
X126170Y-13155D01*
X126211Y-13207D01*
X126256Y-13256D01*
X126303Y-13303D01*
X126352Y-13348D01*
X126404Y-13389D01*
X126459Y-13427D01*
X126516Y-13462D01*
X126574Y-13493D01*
X126634Y-13522D01*
X126696Y-13546D01*
X126759Y-13567D01*
X126823Y-13584D01*
X126889Y-13598D01*
X126954Y-13607D01*
X127021Y-13613D01*
X127087Y-13615D01*
X127468Y-13615D01*
X135635Y-21257D02*
X135635Y-28115D01*
X139445Y-28115D02*
X135635Y-21257D01*
X139445Y-21257D02*
X139445Y-28115D01*
X143194Y-24305D02*
X145480Y-24305D01*
X145557Y-24307D01*
X145634Y-24313D01*
X145711Y-24323D01*
X145787Y-24336D01*
X145862Y-24354D01*
X145936Y-24375D01*
X146009Y-24400D01*
X146081Y-24429D01*
X146151Y-24461D01*
X146220Y-24496D01*
X146286Y-24536D01*
X146351Y-24578D01*
X146413Y-24624D01*
X146473Y-24673D01*
X146530Y-24724D01*
X146585Y-24779D01*
X146636Y-24836D01*
X146685Y-24896D01*
X146731Y-24958D01*
X146773Y-25023D01*
X146813Y-25089D01*
X146848Y-25158D01*
X146880Y-25228D01*
X146909Y-25300D01*
X146934Y-25373D01*
X146955Y-25447D01*
X146973Y-25522D01*
X146986Y-25598D01*
X146996Y-25675D01*
X147002Y-25752D01*
X147004Y-25829D01*
X147004Y-26210D01*
X147002Y-26295D01*
X146996Y-26381D01*
X146987Y-26466D01*
X146973Y-26550D01*
X146956Y-26634D01*
X146935Y-26717D01*
X146911Y-26799D01*
X146883Y-26879D01*
X146851Y-26959D01*
X146815Y-27037D01*
X146777Y-27113D01*
X146734Y-27187D01*
X146689Y-27259D01*
X146640Y-27330D01*
X146588Y-27398D01*
X146534Y-27463D01*
X146476Y-27526D01*
X146415Y-27587D01*
X146352Y-27645D01*
X146287Y-27699D01*
X146219Y-27751D01*
X146148Y-27800D01*
X146076Y-27845D01*
X146002Y-27888D01*
X145926Y-27926D01*
X145848Y-27962D01*
X145768Y-27994D01*
X145688Y-28022D01*
X145606Y-28046D01*
X145523Y-28067D01*
X145439Y-28084D01*
X145355Y-28098D01*
X145270Y-28107D01*
X145184Y-28113D01*
X145099Y-28115D01*
X145014Y-28113D01*
X144928Y-28107D01*
X144843Y-28098D01*
X144759Y-28084D01*
X144675Y-28067D01*
X144592Y-28046D01*
X144510Y-28022D01*
X144430Y-27994D01*
X144350Y-27962D01*
X144272Y-27926D01*
X144196Y-27888D01*
X144122Y-27845D01*
X144050Y-27800D01*
X143979Y-27751D01*
X143911Y-27699D01*
X143846Y-27645D01*
X143783Y-27587D01*
X143722Y-27526D01*
X143664Y-27463D01*
X143610Y-27398D01*
X143558Y-27330D01*
X143509Y-27259D01*
X143464Y-27187D01*
X143421Y-27113D01*
X143383Y-27037D01*
X143347Y-26959D01*
X143315Y-26879D01*
X143287Y-26799D01*
X143263Y-26717D01*
X143242Y-26634D01*
X143225Y-26550D01*
X143211Y-26466D01*
X143202Y-26381D01*
X143196Y-26295D01*
X143194Y-26210D01*
X143194Y-24305D01*
X143196Y-24196D01*
X143202Y-24088D01*
X143211Y-23979D01*
X143225Y-23871D01*
X143242Y-23764D01*
X143264Y-23657D01*
X143289Y-23551D01*
X143317Y-23446D01*
X143350Y-23342D01*
X143386Y-23240D01*
X143426Y-23139D01*
X143469Y-23039D01*
X143516Y-22941D01*
X143567Y-22844D01*
X143621Y-22750D01*
X143678Y-22657D01*
X143738Y-22567D01*
X143802Y-22478D01*
X143869Y-22392D01*
X143938Y-22309D01*
X144011Y-22228D01*
X144087Y-22150D01*
X144165Y-22074D01*
X144246Y-22001D01*
X144329Y-21932D01*
X144415Y-21865D01*
X144504Y-21801D01*
X144594Y-21741D01*
X144687Y-21684D01*
X144781Y-21630D01*
X144878Y-21579D01*
X144976Y-21532D01*
X145076Y-21489D01*
X145177Y-21449D01*
X145279Y-21413D01*
X145383Y-21380D01*
X145488Y-21352D01*
X145594Y-21327D01*
X145701Y-21305D01*
X145808Y-21288D01*
X145916Y-21274D01*
X146025Y-21265D01*
X146133Y-21259D01*
X146242Y-21257D01*
X152033Y-21257D02*
X150509Y-26591D01*
X154319Y-26591D01*
X153176Y-25067D02*
X153176Y-28115D01*
X31030Y-17833D02*
X31030Y-10975D01*
X32935Y-10975D01*
X33020Y-10977D01*
X33106Y-10983D01*
X33191Y-10992D01*
X33275Y-11006D01*
X33359Y-11023D01*
X33442Y-11044D01*
X33524Y-11068D01*
X33604Y-11096D01*
X33684Y-11128D01*
X33762Y-11164D01*
X33838Y-11202D01*
X33912Y-11245D01*
X33984Y-11290D01*
X34055Y-11339D01*
X34123Y-11391D01*
X34188Y-11445D01*
X34251Y-11503D01*
X34312Y-11564D01*
X34370Y-11627D01*
X34424Y-11692D01*
X34476Y-11760D01*
X34525Y-11831D01*
X34570Y-11903D01*
X34613Y-11977D01*
X34651Y-12053D01*
X34687Y-12131D01*
X34719Y-12211D01*
X34747Y-12291D01*
X34771Y-12373D01*
X34792Y-12456D01*
X34809Y-12540D01*
X34823Y-12624D01*
X34832Y-12709D01*
X34838Y-12795D01*
X34840Y-12880D01*
X34838Y-12965D01*
X34832Y-13051D01*
X34823Y-13136D01*
X34809Y-13220D01*
X34792Y-13304D01*
X34771Y-13387D01*
X34747Y-13469D01*
X34719Y-13549D01*
X34687Y-13629D01*
X34651Y-13707D01*
X34613Y-13783D01*
X34570Y-13857D01*
X34525Y-13929D01*
X34476Y-14000D01*
X34424Y-14068D01*
X34370Y-14133D01*
X34312Y-14196D01*
X34251Y-14257D01*
X34188Y-14315D01*
X34123Y-14369D01*
X34055Y-14421D01*
X33984Y-14470D01*
X33912Y-14515D01*
X33838Y-14558D01*
X33762Y-14596D01*
X33684Y-14632D01*
X33604Y-14664D01*
X33524Y-14692D01*
X33442Y-14716D01*
X33359Y-14737D01*
X33275Y-14754D01*
X33191Y-14768D01*
X33106Y-14777D01*
X33020Y-14783D01*
X32935Y-14785D01*
X31030Y-14785D01*
X33316Y-14785D02*
X34840Y-17833D01*
X39768Y-17833D02*
X41292Y-17833D01*
X39768Y-17833D02*
X39691Y-17831D01*
X39614Y-17825D01*
X39537Y-17815D01*
X39461Y-17802D01*
X39386Y-17784D01*
X39312Y-17763D01*
X39239Y-17738D01*
X39167Y-17709D01*
X39097Y-17677D01*
X39028Y-17642D01*
X38962Y-17602D01*
X38897Y-17560D01*
X38835Y-17514D01*
X38775Y-17465D01*
X38718Y-17414D01*
X38663Y-17359D01*
X38612Y-17302D01*
X38563Y-17242D01*
X38517Y-17180D01*
X38475Y-17115D01*
X38435Y-17049D01*
X38400Y-16980D01*
X38368Y-16910D01*
X38339Y-16838D01*
X38314Y-16765D01*
X38293Y-16691D01*
X38275Y-16616D01*
X38262Y-16540D01*
X38252Y-16463D01*
X38246Y-16386D01*
X38244Y-16309D01*
X38244Y-12499D01*
X38246Y-12422D01*
X38252Y-12345D01*
X38262Y-12268D01*
X38275Y-12192D01*
X38293Y-12117D01*
X38314Y-12043D01*
X38339Y-11970D01*
X38368Y-11898D01*
X38400Y-11828D01*
X38435Y-11759D01*
X38475Y-11693D01*
X38517Y-11628D01*
X38563Y-11566D01*
X38612Y-11506D01*
X38663Y-11449D01*
X38718Y-11394D01*
X38775Y-11343D01*
X38835Y-11294D01*
X38897Y-11248D01*
X38962Y-11206D01*
X39028Y-11166D01*
X39097Y-11131D01*
X39167Y-11099D01*
X39239Y-11070D01*
X39312Y-11045D01*
X39386Y-11024D01*
X39461Y-11006D01*
X39537Y-10993D01*
X39614Y-10983D01*
X39691Y-10977D01*
X39768Y-10975D01*
X41292Y-10975D01*
X44775Y-10975D02*
X44775Y-17833D01*
X44775Y-10975D02*
X46680Y-10975D01*
X46765Y-10977D01*
X46851Y-10983D01*
X46936Y-10992D01*
X47020Y-11006D01*
X47104Y-11023D01*
X47187Y-11044D01*
X47269Y-11068D01*
X47349Y-11096D01*
X47429Y-11128D01*
X47507Y-11164D01*
X47583Y-11202D01*
X47657Y-11245D01*
X47729Y-11290D01*
X47800Y-11339D01*
X47868Y-11391D01*
X47933Y-11445D01*
X47996Y-11503D01*
X48057Y-11564D01*
X48115Y-11627D01*
X48169Y-11692D01*
X48221Y-11760D01*
X48270Y-11831D01*
X48315Y-11903D01*
X48358Y-11977D01*
X48396Y-12053D01*
X48432Y-12131D01*
X48464Y-12211D01*
X48492Y-12291D01*
X48516Y-12373D01*
X48537Y-12456D01*
X48554Y-12540D01*
X48568Y-12624D01*
X48577Y-12709D01*
X48583Y-12795D01*
X48585Y-12880D01*
X48583Y-12965D01*
X48577Y-13051D01*
X48568Y-13136D01*
X48554Y-13220D01*
X48537Y-13304D01*
X48516Y-13387D01*
X48492Y-13469D01*
X48464Y-13549D01*
X48432Y-13629D01*
X48396Y-13707D01*
X48358Y-13783D01*
X48315Y-13857D01*
X48270Y-13929D01*
X48221Y-14000D01*
X48169Y-14068D01*
X48115Y-14133D01*
X48057Y-14196D01*
X47996Y-14257D01*
X47933Y-14315D01*
X47868Y-14369D01*
X47800Y-14421D01*
X47729Y-14470D01*
X47657Y-14515D01*
X47583Y-14558D01*
X47507Y-14596D01*
X47429Y-14632D01*
X47349Y-14664D01*
X47269Y-14692D01*
X47187Y-14716D01*
X47104Y-14737D01*
X47020Y-14754D01*
X46936Y-14768D01*
X46851Y-14777D01*
X46765Y-14783D01*
X46680Y-14785D01*
X44775Y-14785D01*
X51793Y-15166D02*
X56365Y-15166D01*
X37437Y-23167D02*
X37437Y-30025D01*
X41247Y-30025D02*
X37437Y-23167D01*
X41247Y-23167D02*
X41247Y-30025D01*
X45240Y-28120D02*
X45240Y-23167D01*
X45240Y-28120D02*
X45242Y-28205D01*
X45248Y-28291D01*
X45257Y-28376D01*
X45271Y-28460D01*
X45288Y-28544D01*
X45309Y-28627D01*
X45333Y-28709D01*
X45361Y-28789D01*
X45393Y-28869D01*
X45429Y-28947D01*
X45467Y-29023D01*
X45510Y-29097D01*
X45555Y-29169D01*
X45604Y-29240D01*
X45656Y-29308D01*
X45710Y-29373D01*
X45768Y-29436D01*
X45829Y-29497D01*
X45892Y-29555D01*
X45957Y-29609D01*
X46025Y-29661D01*
X46096Y-29710D01*
X46168Y-29755D01*
X46242Y-29798D01*
X46318Y-29836D01*
X46396Y-29872D01*
X46476Y-29904D01*
X46556Y-29932D01*
X46638Y-29956D01*
X46721Y-29977D01*
X46805Y-29994D01*
X46889Y-30008D01*
X46974Y-30017D01*
X47060Y-30023D01*
X47145Y-30025D01*
X47230Y-30023D01*
X47316Y-30017D01*
X47401Y-30008D01*
X47485Y-29994D01*
X47569Y-29977D01*
X47652Y-29956D01*
X47734Y-29932D01*
X47814Y-29904D01*
X47894Y-29872D01*
X47972Y-29836D01*
X48048Y-29798D01*
X48122Y-29755D01*
X48194Y-29710D01*
X48265Y-29661D01*
X48333Y-29609D01*
X48398Y-29555D01*
X48461Y-29497D01*
X48522Y-29436D01*
X48580Y-29373D01*
X48634Y-29308D01*
X48686Y-29240D01*
X48735Y-29169D01*
X48780Y-29097D01*
X48823Y-29023D01*
X48861Y-28947D01*
X48897Y-28869D01*
X48929Y-28789D01*
X48957Y-28709D01*
X48981Y-28627D01*
X49002Y-28544D01*
X49019Y-28460D01*
X49033Y-28376D01*
X49042Y-28291D01*
X49048Y-28205D01*
X49050Y-28120D01*
X49050Y-23167D01*
X54841Y-30025D02*
X54918Y-30023D01*
X54995Y-30017D01*
X55072Y-30007D01*
X55148Y-29994D01*
X55223Y-29976D01*
X55297Y-29955D01*
X55370Y-29930D01*
X55442Y-29901D01*
X55512Y-29869D01*
X55581Y-29834D01*
X55647Y-29794D01*
X55712Y-29752D01*
X55774Y-29706D01*
X55834Y-29657D01*
X55891Y-29606D01*
X55946Y-29551D01*
X55997Y-29494D01*
X56046Y-29434D01*
X56092Y-29372D01*
X56134Y-29307D01*
X56174Y-29241D01*
X56209Y-29172D01*
X56241Y-29102D01*
X56270Y-29030D01*
X56295Y-28957D01*
X56316Y-28883D01*
X56334Y-28808D01*
X56347Y-28732D01*
X56357Y-28655D01*
X56363Y-28578D01*
X56365Y-28501D01*
X54841Y-30025D02*
X54731Y-30023D01*
X54620Y-30017D01*
X54510Y-30008D01*
X54400Y-29995D01*
X54291Y-29978D01*
X54183Y-29957D01*
X54075Y-29933D01*
X53968Y-29904D01*
X53862Y-29873D01*
X53758Y-29837D01*
X53654Y-29798D01*
X53552Y-29756D01*
X53452Y-29710D01*
X53353Y-29660D01*
X53256Y-29608D01*
X53160Y-29551D01*
X53067Y-29492D01*
X52976Y-29430D01*
X52887Y-29364D01*
X52800Y-29296D01*
X52716Y-29224D01*
X52634Y-29150D01*
X52555Y-29073D01*
X52746Y-24691D02*
X52748Y-24614D01*
X52754Y-24537D01*
X52764Y-24460D01*
X52777Y-24384D01*
X52795Y-24309D01*
X52816Y-24235D01*
X52841Y-24162D01*
X52870Y-24090D01*
X52902Y-24020D01*
X52937Y-23951D01*
X52977Y-23885D01*
X53019Y-23820D01*
X53065Y-23758D01*
X53114Y-23698D01*
X53165Y-23641D01*
X53220Y-23586D01*
X53277Y-23535D01*
X53337Y-23486D01*
X53399Y-23440D01*
X53464Y-23398D01*
X53530Y-23358D01*
X53599Y-23323D01*
X53669Y-23291D01*
X53741Y-23262D01*
X53814Y-23237D01*
X53888Y-23216D01*
X53963Y-23198D01*
X54039Y-23185D01*
X54116Y-23175D01*
X54193Y-23169D01*
X54270Y-23167D01*
X54372Y-23169D01*
X54474Y-23174D01*
X54576Y-23183D01*
X54677Y-23196D01*
X54778Y-23213D01*
X54878Y-23232D01*
X54978Y-23256D01*
X55076Y-23283D01*
X55174Y-23314D01*
X55270Y-23348D01*
X55365Y-23385D01*
X55459Y-23426D01*
X55551Y-23470D01*
X55641Y-23518D01*
X55730Y-23568D01*
X55817Y-23622D01*
X55902Y-23679D01*
X55985Y-23739D01*
X53507Y-26025D02*
X53442Y-25984D01*
X53379Y-25941D01*
X53319Y-25894D01*
X53260Y-25844D01*
X53205Y-25792D01*
X53152Y-25737D01*
X53101Y-25679D01*
X53054Y-25619D01*
X53010Y-25556D01*
X52968Y-25492D01*
X52930Y-25426D01*
X52896Y-25357D01*
X52865Y-25287D01*
X52837Y-25216D01*
X52813Y-25144D01*
X52792Y-25070D01*
X52775Y-24995D01*
X52762Y-24920D01*
X52753Y-24844D01*
X52747Y-24768D01*
X52745Y-24691D01*
X55603Y-27167D02*
X55668Y-27208D01*
X55731Y-27251D01*
X55791Y-27298D01*
X55850Y-27348D01*
X55905Y-27400D01*
X55958Y-27455D01*
X56009Y-27513D01*
X56056Y-27573D01*
X56100Y-27636D01*
X56142Y-27700D01*
X56180Y-27766D01*
X56214Y-27835D01*
X56245Y-27905D01*
X56273Y-27976D01*
X56297Y-28048D01*
X56318Y-28122D01*
X56335Y-28197D01*
X56348Y-28272D01*
X56357Y-28348D01*
X56363Y-28424D01*
X56365Y-28501D01*
X55603Y-27168D02*
X53508Y-26025D01*
D12*
X203762Y-9998D02*
X203762Y-1362D01*
X206161Y-1362D01*
X206258Y-1364D01*
X206354Y-1370D01*
X206450Y-1379D01*
X206546Y-1393D01*
X206641Y-1410D01*
X206735Y-1432D01*
X206828Y-1457D01*
X206921Y-1485D01*
X207012Y-1518D01*
X207101Y-1554D01*
X207189Y-1594D01*
X207276Y-1637D01*
X207361Y-1683D01*
X207443Y-1733D01*
X207524Y-1787D01*
X207602Y-1843D01*
X207678Y-1903D01*
X207752Y-1965D01*
X207823Y-2031D01*
X207891Y-2099D01*
X207957Y-2170D01*
X208019Y-2244D01*
X208079Y-2320D01*
X208135Y-2398D01*
X208189Y-2479D01*
X208239Y-2562D01*
X208285Y-2646D01*
X208328Y-2733D01*
X208368Y-2821D01*
X208404Y-2910D01*
X208437Y-3001D01*
X208465Y-3094D01*
X208490Y-3187D01*
X208512Y-3281D01*
X208529Y-3376D01*
X208543Y-3472D01*
X208552Y-3568D01*
X208558Y-3664D01*
X208560Y-3761D01*
X208558Y-3858D01*
X208552Y-3954D01*
X208543Y-4050D01*
X208529Y-4146D01*
X208512Y-4241D01*
X208490Y-4335D01*
X208465Y-4428D01*
X208437Y-4521D01*
X208404Y-4612D01*
X208368Y-4701D01*
X208328Y-4789D01*
X208285Y-4876D01*
X208239Y-4961D01*
X208189Y-5043D01*
X208135Y-5124D01*
X208079Y-5202D01*
X208019Y-5278D01*
X207957Y-5352D01*
X207891Y-5423D01*
X207823Y-5491D01*
X207752Y-5557D01*
X207678Y-5619D01*
X207602Y-5679D01*
X207524Y-5735D01*
X207443Y-5789D01*
X207361Y-5839D01*
X207276Y-5885D01*
X207189Y-5928D01*
X207101Y-5968D01*
X207012Y-6004D01*
X206921Y-6037D01*
X206828Y-6065D01*
X206735Y-6090D01*
X206641Y-6112D01*
X206546Y-6129D01*
X206450Y-6143D01*
X206354Y-6152D01*
X206258Y-6158D01*
X206161Y-6160D01*
X203762Y-6160D01*
X206641Y-6160D02*
X208560Y-9998D01*
X214702Y-9998D02*
X216621Y-9998D01*
X214702Y-9998D02*
X214616Y-9996D01*
X214530Y-9990D01*
X214444Y-9981D01*
X214359Y-9967D01*
X214275Y-9950D01*
X214191Y-9929D01*
X214109Y-9904D01*
X214028Y-9876D01*
X213948Y-9844D01*
X213869Y-9808D01*
X213793Y-9769D01*
X213718Y-9726D01*
X213645Y-9681D01*
X213574Y-9632D01*
X213506Y-9579D01*
X213439Y-9524D01*
X213376Y-9466D01*
X213315Y-9405D01*
X213257Y-9342D01*
X213202Y-9275D01*
X213150Y-9207D01*
X213100Y-9136D01*
X213055Y-9063D01*
X213012Y-8988D01*
X212973Y-8912D01*
X212937Y-8833D01*
X212905Y-8753D01*
X212877Y-8672D01*
X212852Y-8590D01*
X212831Y-8506D01*
X212814Y-8422D01*
X212800Y-8337D01*
X212791Y-8251D01*
X212785Y-8165D01*
X212783Y-8079D01*
X212783Y-3281D01*
X212785Y-3195D01*
X212791Y-3109D01*
X212800Y-3023D01*
X212814Y-2938D01*
X212831Y-2854D01*
X212852Y-2770D01*
X212877Y-2688D01*
X212905Y-2607D01*
X212937Y-2527D01*
X212973Y-2448D01*
X213012Y-2372D01*
X213055Y-2297D01*
X213100Y-2224D01*
X213149Y-2153D01*
X213202Y-2085D01*
X213257Y-2018D01*
X213315Y-1955D01*
X213376Y-1894D01*
X213439Y-1836D01*
X213506Y-1781D01*
X213574Y-1729D01*
X213645Y-1679D01*
X213718Y-1634D01*
X213793Y-1591D01*
X213869Y-1552D01*
X213948Y-1516D01*
X214028Y-1484D01*
X214109Y-1456D01*
X214191Y-1431D01*
X214275Y-1410D01*
X214359Y-1393D01*
X214444Y-1379D01*
X214530Y-1370D01*
X214616Y-1364D01*
X214702Y-1362D01*
X216621Y-1362D01*
X220941Y-1362D02*
X220941Y-9998D01*
X220941Y-1362D02*
X223340Y-1362D01*
X223437Y-1364D01*
X223533Y-1370D01*
X223629Y-1379D01*
X223725Y-1393D01*
X223820Y-1410D01*
X223914Y-1432D01*
X224007Y-1457D01*
X224100Y-1485D01*
X224191Y-1518D01*
X224280Y-1554D01*
X224368Y-1594D01*
X224455Y-1637D01*
X224540Y-1683D01*
X224622Y-1733D01*
X224703Y-1787D01*
X224781Y-1843D01*
X224857Y-1903D01*
X224931Y-1965D01*
X225002Y-2031D01*
X225070Y-2099D01*
X225136Y-2170D01*
X225198Y-2244D01*
X225258Y-2320D01*
X225314Y-2398D01*
X225368Y-2479D01*
X225418Y-2562D01*
X225464Y-2646D01*
X225507Y-2733D01*
X225547Y-2821D01*
X225583Y-2910D01*
X225616Y-3001D01*
X225644Y-3094D01*
X225669Y-3187D01*
X225691Y-3281D01*
X225708Y-3376D01*
X225722Y-3472D01*
X225731Y-3568D01*
X225737Y-3664D01*
X225739Y-3761D01*
X225737Y-3858D01*
X225731Y-3954D01*
X225722Y-4050D01*
X225708Y-4146D01*
X225691Y-4241D01*
X225669Y-4335D01*
X225644Y-4428D01*
X225616Y-4521D01*
X225583Y-4612D01*
X225547Y-4701D01*
X225507Y-4789D01*
X225464Y-4876D01*
X225418Y-4961D01*
X225368Y-5043D01*
X225314Y-5124D01*
X225258Y-5202D01*
X225198Y-5278D01*
X225136Y-5352D01*
X225070Y-5423D01*
X225002Y-5491D01*
X224931Y-5557D01*
X224857Y-5619D01*
X224781Y-5679D01*
X224703Y-5735D01*
X224622Y-5789D01*
X224540Y-5839D01*
X224455Y-5885D01*
X224368Y-5928D01*
X224280Y-5968D01*
X224191Y-6004D01*
X224100Y-6037D01*
X224007Y-6065D01*
X223914Y-6090D01*
X223820Y-6112D01*
X223725Y-6129D01*
X223629Y-6143D01*
X223533Y-6152D01*
X223437Y-6158D01*
X223340Y-6160D01*
X220941Y-6160D01*
X232224Y-1362D02*
X232316Y-1364D01*
X232407Y-1370D01*
X232498Y-1379D01*
X232589Y-1393D01*
X232679Y-1410D01*
X232768Y-1432D01*
X232856Y-1457D01*
X232943Y-1485D01*
X233029Y-1518D01*
X233113Y-1554D01*
X233196Y-1593D01*
X233277Y-1636D01*
X233356Y-1683D01*
X233433Y-1732D01*
X233508Y-1785D01*
X233580Y-1841D01*
X233650Y-1900D01*
X233718Y-1962D01*
X233783Y-2027D01*
X233845Y-2095D01*
X233904Y-2165D01*
X233960Y-2237D01*
X234013Y-2312D01*
X234062Y-2389D01*
X234109Y-2468D01*
X234152Y-2549D01*
X234191Y-2632D01*
X234227Y-2716D01*
X234260Y-2802D01*
X234288Y-2889D01*
X234313Y-2977D01*
X234335Y-3066D01*
X234352Y-3156D01*
X234366Y-3247D01*
X234375Y-3338D01*
X234381Y-3429D01*
X234383Y-3521D01*
X232224Y-1362D02*
X232121Y-1364D01*
X232019Y-1370D01*
X231917Y-1379D01*
X231815Y-1392D01*
X231714Y-1409D01*
X231613Y-1430D01*
X231514Y-1454D01*
X231415Y-1483D01*
X231318Y-1514D01*
X231221Y-1550D01*
X231126Y-1588D01*
X231033Y-1631D01*
X230941Y-1677D01*
X230851Y-1726D01*
X230763Y-1778D01*
X230676Y-1834D01*
X230592Y-1893D01*
X230511Y-1954D01*
X230431Y-2019D01*
X230354Y-2087D01*
X230279Y-2158D01*
X230208Y-2231D01*
X230139Y-2307D01*
X230072Y-2385D01*
X230009Y-2466D01*
X229949Y-2549D01*
X229892Y-2634D01*
X229838Y-2721D01*
X229787Y-2811D01*
X229740Y-2902D01*
X229696Y-2994D01*
X229655Y-3089D01*
X229618Y-3184D01*
X229585Y-3281D01*
X233663Y-5200D02*
X233730Y-5134D01*
X233794Y-5065D01*
X233855Y-4994D01*
X233913Y-4920D01*
X233968Y-4844D01*
X234020Y-4766D01*
X234069Y-4686D01*
X234115Y-4604D01*
X234157Y-4520D01*
X234196Y-4434D01*
X234231Y-4347D01*
X234262Y-4259D01*
X234290Y-4169D01*
X234315Y-4079D01*
X234336Y-3987D01*
X234353Y-3895D01*
X234366Y-3802D01*
X234375Y-3709D01*
X234381Y-3615D01*
X234383Y-3521D01*
X233663Y-5200D02*
X229585Y-9998D01*
X234383Y-9998D01*
X239034Y-9998D02*
X239034Y-1362D01*
X243832Y-9998D01*
X243832Y-1362D01*
X248483Y-5200D02*
X251361Y-5200D01*
X251447Y-5202D01*
X251533Y-5208D01*
X251619Y-5217D01*
X251704Y-5231D01*
X251788Y-5248D01*
X251872Y-5269D01*
X251954Y-5294D01*
X252035Y-5322D01*
X252115Y-5354D01*
X252194Y-5390D01*
X252270Y-5429D01*
X252345Y-5472D01*
X252418Y-5517D01*
X252489Y-5567D01*
X252557Y-5619D01*
X252624Y-5674D01*
X252687Y-5732D01*
X252748Y-5793D01*
X252806Y-5856D01*
X252861Y-5923D01*
X252914Y-5991D01*
X252963Y-6062D01*
X253008Y-6135D01*
X253051Y-6210D01*
X253090Y-6286D01*
X253126Y-6365D01*
X253158Y-6445D01*
X253186Y-6526D01*
X253211Y-6609D01*
X253232Y-6692D01*
X253249Y-6776D01*
X253263Y-6861D01*
X253272Y-6947D01*
X253278Y-7033D01*
X253280Y-7119D01*
X253281Y-7119D02*
X253281Y-7599D01*
X253279Y-7696D01*
X253273Y-7792D01*
X253264Y-7888D01*
X253250Y-7984D01*
X253233Y-8079D01*
X253211Y-8173D01*
X253186Y-8266D01*
X253158Y-8359D01*
X253125Y-8450D01*
X253089Y-8539D01*
X253049Y-8627D01*
X253006Y-8714D01*
X252960Y-8799D01*
X252910Y-8881D01*
X252856Y-8962D01*
X252800Y-9040D01*
X252740Y-9116D01*
X252678Y-9190D01*
X252612Y-9261D01*
X252544Y-9329D01*
X252473Y-9395D01*
X252399Y-9457D01*
X252323Y-9517D01*
X252245Y-9573D01*
X252164Y-9627D01*
X252081Y-9677D01*
X251997Y-9723D01*
X251910Y-9766D01*
X251822Y-9806D01*
X251733Y-9842D01*
X251642Y-9875D01*
X251549Y-9903D01*
X251456Y-9928D01*
X251362Y-9950D01*
X251267Y-9967D01*
X251171Y-9981D01*
X251075Y-9990D01*
X250979Y-9996D01*
X250882Y-9998D01*
X250785Y-9996D01*
X250689Y-9990D01*
X250593Y-9981D01*
X250497Y-9967D01*
X250402Y-9950D01*
X250308Y-9928D01*
X250215Y-9903D01*
X250122Y-9875D01*
X250031Y-9842D01*
X249942Y-9806D01*
X249854Y-9766D01*
X249767Y-9723D01*
X249683Y-9677D01*
X249600Y-9627D01*
X249519Y-9573D01*
X249441Y-9517D01*
X249365Y-9457D01*
X249291Y-9395D01*
X249220Y-9329D01*
X249152Y-9261D01*
X249086Y-9190D01*
X249024Y-9116D01*
X248964Y-9040D01*
X248908Y-8962D01*
X248854Y-8881D01*
X248804Y-8798D01*
X248758Y-8714D01*
X248715Y-8627D01*
X248675Y-8539D01*
X248639Y-8450D01*
X248606Y-8359D01*
X248578Y-8266D01*
X248553Y-8173D01*
X248531Y-8079D01*
X248514Y-7984D01*
X248500Y-7888D01*
X248491Y-7792D01*
X248485Y-7696D01*
X248483Y-7599D01*
X248483Y-5200D01*
X248485Y-5077D01*
X248491Y-4954D01*
X248501Y-4831D01*
X248515Y-4709D01*
X248532Y-4587D01*
X248554Y-4466D01*
X248579Y-4346D01*
X248609Y-4226D01*
X248642Y-4108D01*
X248679Y-3991D01*
X248719Y-3874D01*
X248763Y-3760D01*
X248811Y-3646D01*
X248863Y-3535D01*
X248918Y-3425D01*
X248977Y-3317D01*
X249039Y-3210D01*
X249104Y-3106D01*
X249173Y-3004D01*
X249245Y-2904D01*
X249320Y-2807D01*
X249399Y-2712D01*
X249480Y-2620D01*
X249564Y-2530D01*
X249651Y-2443D01*
X249741Y-2359D01*
X249833Y-2278D01*
X249928Y-2199D01*
X250025Y-2124D01*
X250125Y-2052D01*
X250227Y-1983D01*
X250331Y-1918D01*
X250438Y-1856D01*
X250546Y-1797D01*
X250656Y-1742D01*
X250767Y-1690D01*
X250881Y-1643D01*
X250995Y-1598D01*
X251112Y-1558D01*
X251229Y-1521D01*
X251347Y-1488D01*
X251467Y-1458D01*
X251587Y-1433D01*
X251708Y-1411D01*
X251830Y-1394D01*
X251952Y-1380D01*
X252075Y-1370D01*
X252198Y-1364D01*
X252321Y-1362D01*
X259546Y-1362D02*
X257627Y-8079D01*
X262425Y-8079D01*
X260985Y-6160D02*
X260985Y-9998D01*
X267160Y-9998D02*
X267160Y-1362D01*
X269559Y-1362D01*
X269656Y-1364D01*
X269752Y-1370D01*
X269848Y-1379D01*
X269944Y-1393D01*
X270039Y-1410D01*
X270133Y-1432D01*
X270226Y-1457D01*
X270319Y-1485D01*
X270410Y-1518D01*
X270499Y-1554D01*
X270587Y-1594D01*
X270674Y-1637D01*
X270759Y-1683D01*
X270841Y-1733D01*
X270922Y-1787D01*
X271000Y-1843D01*
X271076Y-1903D01*
X271150Y-1965D01*
X271221Y-2031D01*
X271289Y-2099D01*
X271355Y-2170D01*
X271417Y-2244D01*
X271477Y-2320D01*
X271533Y-2398D01*
X271587Y-2479D01*
X271637Y-2562D01*
X271683Y-2646D01*
X271726Y-2733D01*
X271766Y-2821D01*
X271802Y-2910D01*
X271835Y-3001D01*
X271863Y-3094D01*
X271888Y-3187D01*
X271910Y-3281D01*
X271927Y-3376D01*
X271941Y-3472D01*
X271950Y-3568D01*
X271956Y-3664D01*
X271958Y-3761D01*
X271956Y-3858D01*
X271950Y-3954D01*
X271941Y-4050D01*
X271927Y-4146D01*
X271910Y-4241D01*
X271888Y-4335D01*
X271863Y-4428D01*
X271835Y-4521D01*
X271802Y-4612D01*
X271766Y-4701D01*
X271726Y-4789D01*
X271683Y-4876D01*
X271637Y-4961D01*
X271587Y-5043D01*
X271533Y-5124D01*
X271477Y-5202D01*
X271417Y-5278D01*
X271355Y-5352D01*
X271289Y-5423D01*
X271221Y-5491D01*
X271150Y-5557D01*
X271076Y-5619D01*
X271000Y-5679D01*
X270922Y-5735D01*
X270841Y-5789D01*
X270759Y-5839D01*
X270674Y-5885D01*
X270587Y-5928D01*
X270499Y-5968D01*
X270410Y-6004D01*
X270319Y-6037D01*
X270226Y-6065D01*
X270133Y-6090D01*
X270039Y-6112D01*
X269944Y-6129D01*
X269848Y-6143D01*
X269752Y-6152D01*
X269656Y-6158D01*
X269559Y-6160D01*
X267160Y-6160D01*
X270039Y-6160D02*
X271958Y-9998D01*
X279883Y-5200D02*
X281322Y-5200D01*
X281322Y-9998D01*
X278443Y-9998D01*
X278357Y-9996D01*
X278271Y-9990D01*
X278185Y-9981D01*
X278100Y-9967D01*
X278016Y-9950D01*
X277932Y-9929D01*
X277850Y-9904D01*
X277769Y-9876D01*
X277689Y-9844D01*
X277610Y-9808D01*
X277534Y-9769D01*
X277459Y-9726D01*
X277386Y-9681D01*
X277315Y-9632D01*
X277247Y-9579D01*
X277180Y-9524D01*
X277117Y-9466D01*
X277056Y-9405D01*
X276998Y-9342D01*
X276943Y-9275D01*
X276891Y-9207D01*
X276841Y-9136D01*
X276796Y-9063D01*
X276753Y-8988D01*
X276714Y-8912D01*
X276678Y-8833D01*
X276646Y-8753D01*
X276618Y-8672D01*
X276593Y-8590D01*
X276572Y-8506D01*
X276555Y-8422D01*
X276541Y-8337D01*
X276532Y-8251D01*
X276526Y-8165D01*
X276524Y-8079D01*
X276524Y-3281D01*
X276526Y-3195D01*
X276532Y-3109D01*
X276541Y-3023D01*
X276555Y-2938D01*
X276572Y-2854D01*
X276593Y-2770D01*
X276618Y-2688D01*
X276646Y-2607D01*
X276678Y-2527D01*
X276714Y-2448D01*
X276753Y-2372D01*
X276796Y-2297D01*
X276841Y-2224D01*
X276890Y-2153D01*
X276943Y-2085D01*
X276998Y-2018D01*
X277056Y-1955D01*
X277117Y-1894D01*
X277180Y-1836D01*
X277247Y-1781D01*
X277315Y-1729D01*
X277386Y-1679D01*
X277459Y-1634D01*
X277534Y-1591D01*
X277610Y-1552D01*
X277689Y-1516D01*
X277769Y-1484D01*
X277850Y-1456D01*
X277932Y-1431D01*
X278016Y-1410D01*
X278100Y-1393D01*
X278185Y-1379D01*
X278271Y-1370D01*
X278357Y-1364D01*
X278443Y-1362D01*
X281322Y-1362D01*
X286473Y-5200D02*
X288872Y-5200D01*
X288969Y-5202D01*
X289065Y-5208D01*
X289161Y-5217D01*
X289257Y-5231D01*
X289352Y-5248D01*
X289446Y-5270D01*
X289539Y-5295D01*
X289632Y-5323D01*
X289723Y-5356D01*
X289812Y-5392D01*
X289900Y-5432D01*
X289987Y-5475D01*
X290072Y-5521D01*
X290154Y-5571D01*
X290235Y-5625D01*
X290313Y-5681D01*
X290389Y-5741D01*
X290463Y-5803D01*
X290534Y-5869D01*
X290602Y-5937D01*
X290668Y-6008D01*
X290730Y-6082D01*
X290790Y-6158D01*
X290846Y-6236D01*
X290900Y-6317D01*
X290950Y-6400D01*
X290996Y-6484D01*
X291039Y-6571D01*
X291079Y-6659D01*
X291115Y-6748D01*
X291148Y-6839D01*
X291176Y-6932D01*
X291201Y-7025D01*
X291223Y-7119D01*
X291240Y-7214D01*
X291254Y-7310D01*
X291263Y-7406D01*
X291269Y-7502D01*
X291271Y-7599D01*
X291269Y-7696D01*
X291263Y-7792D01*
X291254Y-7888D01*
X291240Y-7984D01*
X291223Y-8079D01*
X291201Y-8173D01*
X291176Y-8266D01*
X291148Y-8359D01*
X291115Y-8450D01*
X291079Y-8539D01*
X291039Y-8627D01*
X290996Y-8714D01*
X290950Y-8799D01*
X290900Y-8881D01*
X290846Y-8962D01*
X290790Y-9040D01*
X290730Y-9116D01*
X290668Y-9190D01*
X290602Y-9261D01*
X290534Y-9329D01*
X290463Y-9395D01*
X290389Y-9457D01*
X290313Y-9517D01*
X290235Y-9573D01*
X290154Y-9627D01*
X290072Y-9677D01*
X289987Y-9723D01*
X289900Y-9766D01*
X289812Y-9806D01*
X289723Y-9842D01*
X289632Y-9875D01*
X289539Y-9903D01*
X289446Y-9928D01*
X289352Y-9950D01*
X289257Y-9967D01*
X289161Y-9981D01*
X289065Y-9990D01*
X288969Y-9996D01*
X288872Y-9998D01*
X286473Y-9998D01*
X286473Y-1362D01*
X288872Y-1362D01*
X288958Y-1364D01*
X289044Y-1370D01*
X289130Y-1379D01*
X289215Y-1393D01*
X289299Y-1410D01*
X289383Y-1431D01*
X289465Y-1456D01*
X289546Y-1484D01*
X289626Y-1516D01*
X289705Y-1552D01*
X289781Y-1591D01*
X289856Y-1634D01*
X289929Y-1679D01*
X290000Y-1728D01*
X290068Y-1781D01*
X290135Y-1836D01*
X290198Y-1894D01*
X290259Y-1955D01*
X290317Y-2018D01*
X290372Y-2085D01*
X290425Y-2153D01*
X290474Y-2224D01*
X290519Y-2297D01*
X290562Y-2372D01*
X290601Y-2448D01*
X290637Y-2527D01*
X290669Y-2607D01*
X290697Y-2688D01*
X290722Y-2770D01*
X290743Y-2854D01*
X290760Y-2938D01*
X290774Y-3023D01*
X290783Y-3109D01*
X290789Y-3195D01*
X290791Y-3281D01*
X290789Y-3367D01*
X290783Y-3453D01*
X290774Y-3539D01*
X290760Y-3624D01*
X290743Y-3708D01*
X290722Y-3792D01*
X290697Y-3874D01*
X290669Y-3955D01*
X290637Y-4035D01*
X290601Y-4114D01*
X290562Y-4190D01*
X290519Y-4265D01*
X290474Y-4338D01*
X290425Y-4409D01*
X290372Y-4477D01*
X290317Y-4544D01*
X290259Y-4607D01*
X290198Y-4668D01*
X290135Y-4726D01*
X290068Y-4781D01*
X290000Y-4834D01*
X289929Y-4883D01*
X289856Y-4928D01*
X289781Y-4971D01*
X289705Y-5010D01*
X289626Y-5046D01*
X289546Y-5078D01*
X289465Y-5106D01*
X289383Y-5131D01*
X289299Y-5152D01*
X289215Y-5169D01*
X289130Y-5183D01*
X289044Y-5192D01*
X288958Y-5198D01*
X288872Y-5200D01*
X205681Y-25238D02*
X203762Y-19481D01*
X207600Y-19481D02*
X205681Y-25238D01*
X214151Y-16602D02*
X214243Y-16604D01*
X214334Y-16610D01*
X214425Y-16619D01*
X214516Y-16633D01*
X214606Y-16650D01*
X214695Y-16672D01*
X214783Y-16697D01*
X214870Y-16725D01*
X214956Y-16758D01*
X215040Y-16794D01*
X215123Y-16833D01*
X215204Y-16876D01*
X215283Y-16923D01*
X215360Y-16972D01*
X215435Y-17025D01*
X215507Y-17081D01*
X215577Y-17140D01*
X215645Y-17202D01*
X215710Y-17267D01*
X215772Y-17335D01*
X215831Y-17405D01*
X215887Y-17477D01*
X215940Y-17552D01*
X215989Y-17629D01*
X216036Y-17708D01*
X216079Y-17789D01*
X216118Y-17872D01*
X216154Y-17956D01*
X216187Y-18042D01*
X216215Y-18129D01*
X216240Y-18217D01*
X216262Y-18306D01*
X216279Y-18396D01*
X216293Y-18487D01*
X216302Y-18578D01*
X216308Y-18669D01*
X216310Y-18761D01*
X214151Y-16602D02*
X214048Y-16604D01*
X213946Y-16610D01*
X213844Y-16619D01*
X213742Y-16632D01*
X213641Y-16649D01*
X213540Y-16670D01*
X213441Y-16694D01*
X213342Y-16723D01*
X213245Y-16754D01*
X213148Y-16790D01*
X213053Y-16828D01*
X212960Y-16871D01*
X212868Y-16917D01*
X212778Y-16966D01*
X212690Y-17018D01*
X212603Y-17074D01*
X212519Y-17133D01*
X212438Y-17194D01*
X212358Y-17259D01*
X212281Y-17327D01*
X212206Y-17398D01*
X212135Y-17471D01*
X212066Y-17547D01*
X211999Y-17625D01*
X211936Y-17706D01*
X211876Y-17789D01*
X211819Y-17874D01*
X211765Y-17961D01*
X211714Y-18051D01*
X211667Y-18142D01*
X211623Y-18234D01*
X211582Y-18329D01*
X211545Y-18424D01*
X211512Y-18521D01*
X215590Y-20440D02*
X215657Y-20374D01*
X215721Y-20305D01*
X215782Y-20234D01*
X215840Y-20160D01*
X215895Y-20084D01*
X215947Y-20006D01*
X215996Y-19926D01*
X216042Y-19844D01*
X216084Y-19760D01*
X216123Y-19674D01*
X216158Y-19587D01*
X216189Y-19499D01*
X216217Y-19409D01*
X216242Y-19319D01*
X216263Y-19227D01*
X216280Y-19135D01*
X216293Y-19042D01*
X216302Y-18949D01*
X216308Y-18855D01*
X216310Y-18761D01*
X215590Y-20440D02*
X211512Y-25238D01*
X216310Y-25238D01*
X220656Y-20920D02*
X220658Y-20750D01*
X220664Y-20580D01*
X220674Y-20411D01*
X220688Y-20241D01*
X220707Y-20072D01*
X220729Y-19904D01*
X220755Y-19736D01*
X220785Y-19569D01*
X220820Y-19403D01*
X220858Y-19237D01*
X220900Y-19072D01*
X220946Y-18909D01*
X220996Y-18747D01*
X221050Y-18585D01*
X221107Y-18426D01*
X221169Y-18267D01*
X221234Y-18110D01*
X221303Y-17955D01*
X221376Y-17801D01*
X221404Y-17725D01*
X221436Y-17650D01*
X221471Y-17576D01*
X221509Y-17504D01*
X221551Y-17434D01*
X221596Y-17366D01*
X221644Y-17300D01*
X221695Y-17236D01*
X221749Y-17175D01*
X221805Y-17116D01*
X221865Y-17060D01*
X221926Y-17007D01*
X221990Y-16957D01*
X222057Y-16909D01*
X222125Y-16865D01*
X222196Y-16824D01*
X222268Y-16786D01*
X222342Y-16752D01*
X222417Y-16721D01*
X222494Y-16693D01*
X222572Y-16669D01*
X222651Y-16649D01*
X222731Y-16632D01*
X222811Y-16619D01*
X222892Y-16609D01*
X222973Y-16604D01*
X223055Y-16602D01*
X223137Y-16604D01*
X223218Y-16609D01*
X223299Y-16619D01*
X223379Y-16632D01*
X223459Y-16649D01*
X223538Y-16669D01*
X223616Y-16693D01*
X223693Y-16721D01*
X223768Y-16752D01*
X223842Y-16786D01*
X223914Y-16824D01*
X223985Y-16865D01*
X224053Y-16909D01*
X224120Y-16957D01*
X224184Y-17007D01*
X224245Y-17060D01*
X224305Y-17116D01*
X224361Y-17175D01*
X224415Y-17236D01*
X224466Y-17300D01*
X224514Y-17366D01*
X224559Y-17434D01*
X224601Y-17504D01*
X224639Y-17576D01*
X224674Y-17650D01*
X224706Y-17725D01*
X224734Y-17801D01*
X224807Y-17955D01*
X224876Y-18110D01*
X224941Y-18267D01*
X225003Y-18426D01*
X225060Y-18585D01*
X225114Y-18747D01*
X225164Y-18909D01*
X225210Y-19072D01*
X225252Y-19237D01*
X225290Y-19403D01*
X225325Y-19569D01*
X225355Y-19736D01*
X225381Y-19904D01*
X225403Y-20072D01*
X225422Y-20241D01*
X225436Y-20411D01*
X225446Y-20580D01*
X225452Y-20750D01*
X225454Y-20920D01*
X220656Y-20920D02*
X220658Y-21090D01*
X220664Y-21260D01*
X220674Y-21429D01*
X220688Y-21599D01*
X220707Y-21768D01*
X220729Y-21936D01*
X220755Y-22104D01*
X220785Y-22271D01*
X220820Y-22437D01*
X220858Y-22603D01*
X220900Y-22768D01*
X220946Y-22931D01*
X220996Y-23093D01*
X221050Y-23255D01*
X221107Y-23414D01*
X221169Y-23573D01*
X221234Y-23730D01*
X221303Y-23885D01*
X221376Y-24039D01*
X221404Y-24115D01*
X221436Y-24190D01*
X221471Y-24264D01*
X221509Y-24336D01*
X221551Y-24406D01*
X221596Y-24474D01*
X221644Y-24540D01*
X221695Y-24604D01*
X221749Y-24665D01*
X221805Y-24724D01*
X221865Y-24780D01*
X221926Y-24833D01*
X221990Y-24883D01*
X222057Y-24931D01*
X222125Y-24975D01*
X222196Y-25016D01*
X222268Y-25054D01*
X222342Y-25088D01*
X222417Y-25119D01*
X222494Y-25147D01*
X222572Y-25171D01*
X222651Y-25191D01*
X222731Y-25208D01*
X222811Y-25221D01*
X222892Y-25231D01*
X222973Y-25236D01*
X223055Y-25238D01*
X224734Y-24039D02*
X224807Y-23885D01*
X224876Y-23730D01*
X224941Y-23573D01*
X225003Y-23414D01*
X225060Y-23255D01*
X225114Y-23093D01*
X225164Y-22931D01*
X225210Y-22768D01*
X225252Y-22603D01*
X225290Y-22437D01*
X225325Y-22271D01*
X225355Y-22104D01*
X225381Y-21936D01*
X225403Y-21768D01*
X225422Y-21599D01*
X225436Y-21429D01*
X225446Y-21260D01*
X225452Y-21090D01*
X225454Y-20920D01*
X224734Y-24039D02*
X224706Y-24115D01*
X224674Y-24190D01*
X224639Y-24264D01*
X224601Y-24336D01*
X224559Y-24406D01*
X224514Y-24474D01*
X224466Y-24540D01*
X224415Y-24604D01*
X224361Y-24665D01*
X224305Y-24724D01*
X224245Y-24780D01*
X224184Y-24833D01*
X224120Y-24883D01*
X224053Y-24931D01*
X223985Y-24975D01*
X223914Y-25016D01*
X223842Y-25054D01*
X223768Y-25088D01*
X223693Y-25119D01*
X223616Y-25147D01*
X223538Y-25171D01*
X223459Y-25191D01*
X223379Y-25208D01*
X223299Y-25221D01*
X223218Y-25231D01*
X223137Y-25236D01*
X223055Y-25238D01*
X221136Y-23319D02*
X224974Y-18521D01*
X232439Y-16602D02*
X232531Y-16604D01*
X232622Y-16610D01*
X232713Y-16619D01*
X232804Y-16633D01*
X232894Y-16650D01*
X232983Y-16672D01*
X233071Y-16697D01*
X233158Y-16725D01*
X233244Y-16758D01*
X233328Y-16794D01*
X233411Y-16833D01*
X233492Y-16876D01*
X233571Y-16923D01*
X233648Y-16972D01*
X233723Y-17025D01*
X233795Y-17081D01*
X233865Y-17140D01*
X233933Y-17202D01*
X233998Y-17267D01*
X234060Y-17335D01*
X234119Y-17405D01*
X234175Y-17477D01*
X234228Y-17552D01*
X234277Y-17629D01*
X234324Y-17708D01*
X234367Y-17789D01*
X234406Y-17872D01*
X234442Y-17956D01*
X234475Y-18042D01*
X234503Y-18129D01*
X234528Y-18217D01*
X234550Y-18306D01*
X234567Y-18396D01*
X234581Y-18487D01*
X234590Y-18578D01*
X234596Y-18669D01*
X234598Y-18761D01*
X232439Y-16602D02*
X232336Y-16604D01*
X232234Y-16610D01*
X232132Y-16619D01*
X232030Y-16632D01*
X231929Y-16649D01*
X231828Y-16670D01*
X231729Y-16694D01*
X231630Y-16723D01*
X231533Y-16754D01*
X231436Y-16790D01*
X231341Y-16828D01*
X231248Y-16871D01*
X231156Y-16917D01*
X231066Y-16966D01*
X230978Y-17018D01*
X230891Y-17074D01*
X230807Y-17133D01*
X230726Y-17194D01*
X230646Y-17259D01*
X230569Y-17327D01*
X230494Y-17398D01*
X230423Y-17471D01*
X230354Y-17547D01*
X230287Y-17625D01*
X230224Y-17706D01*
X230164Y-17789D01*
X230107Y-17874D01*
X230053Y-17961D01*
X230002Y-18051D01*
X229955Y-18142D01*
X229911Y-18234D01*
X229870Y-18329D01*
X229833Y-18424D01*
X229800Y-18521D01*
X233878Y-20440D02*
X233945Y-20374D01*
X234009Y-20305D01*
X234070Y-20234D01*
X234128Y-20160D01*
X234183Y-20084D01*
X234235Y-20006D01*
X234284Y-19926D01*
X234330Y-19844D01*
X234372Y-19760D01*
X234411Y-19674D01*
X234446Y-19587D01*
X234477Y-19499D01*
X234505Y-19409D01*
X234530Y-19319D01*
X234551Y-19227D01*
X234568Y-19135D01*
X234581Y-19042D01*
X234590Y-18949D01*
X234596Y-18855D01*
X234598Y-18761D01*
X233878Y-20440D02*
X229800Y-25238D01*
X234598Y-25238D01*
X238944Y-20920D02*
X238946Y-20750D01*
X238952Y-20580D01*
X238962Y-20411D01*
X238976Y-20241D01*
X238995Y-20072D01*
X239017Y-19904D01*
X239043Y-19736D01*
X239073Y-19569D01*
X239108Y-19403D01*
X239146Y-19237D01*
X239188Y-19072D01*
X239234Y-18909D01*
X239284Y-18747D01*
X239338Y-18585D01*
X239395Y-18426D01*
X239457Y-18267D01*
X239522Y-18110D01*
X239591Y-17955D01*
X239664Y-17801D01*
X239692Y-17725D01*
X239724Y-17650D01*
X239759Y-17576D01*
X239797Y-17504D01*
X239839Y-17434D01*
X239884Y-17366D01*
X239932Y-17300D01*
X239983Y-17236D01*
X240037Y-17175D01*
X240093Y-17116D01*
X240153Y-17060D01*
X240214Y-17007D01*
X240278Y-16957D01*
X240345Y-16909D01*
X240413Y-16865D01*
X240484Y-16824D01*
X240556Y-16786D01*
X240630Y-16752D01*
X240705Y-16721D01*
X240782Y-16693D01*
X240860Y-16669D01*
X240939Y-16649D01*
X241019Y-16632D01*
X241099Y-16619D01*
X241180Y-16609D01*
X241261Y-16604D01*
X241343Y-16602D01*
X241425Y-16604D01*
X241506Y-16609D01*
X241587Y-16619D01*
X241667Y-16632D01*
X241747Y-16649D01*
X241826Y-16669D01*
X241904Y-16693D01*
X241981Y-16721D01*
X242056Y-16752D01*
X242130Y-16786D01*
X242202Y-16824D01*
X242273Y-16865D01*
X242341Y-16909D01*
X242408Y-16957D01*
X242472Y-17007D01*
X242533Y-17060D01*
X242593Y-17116D01*
X242649Y-17175D01*
X242703Y-17236D01*
X242754Y-17300D01*
X242802Y-17366D01*
X242847Y-17434D01*
X242889Y-17504D01*
X242927Y-17576D01*
X242962Y-17650D01*
X242994Y-17725D01*
X243022Y-17801D01*
X243095Y-17955D01*
X243164Y-18110D01*
X243229Y-18267D01*
X243291Y-18426D01*
X243348Y-18585D01*
X243402Y-18747D01*
X243452Y-18909D01*
X243498Y-19072D01*
X243540Y-19237D01*
X243578Y-19403D01*
X243613Y-19569D01*
X243643Y-19736D01*
X243669Y-19904D01*
X243691Y-20072D01*
X243710Y-20241D01*
X243724Y-20411D01*
X243734Y-20580D01*
X243740Y-20750D01*
X243742Y-20920D01*
X238944Y-20920D02*
X238946Y-21090D01*
X238952Y-21260D01*
X238962Y-21429D01*
X238976Y-21599D01*
X238995Y-21768D01*
X239017Y-21936D01*
X239043Y-22104D01*
X239073Y-22271D01*
X239108Y-22437D01*
X239146Y-22603D01*
X239188Y-22768D01*
X239234Y-22931D01*
X239284Y-23093D01*
X239338Y-23255D01*
X239395Y-23414D01*
X239457Y-23573D01*
X239522Y-23730D01*
X239591Y-23885D01*
X239664Y-24039D01*
X239692Y-24115D01*
X239724Y-24190D01*
X239759Y-24264D01*
X239797Y-24336D01*
X239839Y-24406D01*
X239884Y-24474D01*
X239932Y-24540D01*
X239983Y-24604D01*
X240037Y-24665D01*
X240093Y-24724D01*
X240153Y-24780D01*
X240214Y-24833D01*
X240278Y-24883D01*
X240345Y-24931D01*
X240413Y-24975D01*
X240484Y-25016D01*
X240556Y-25054D01*
X240630Y-25088D01*
X240705Y-25119D01*
X240782Y-25147D01*
X240860Y-25171D01*
X240939Y-25191D01*
X241019Y-25208D01*
X241099Y-25221D01*
X241180Y-25231D01*
X241261Y-25236D01*
X241343Y-25238D01*
X243022Y-24039D02*
X243095Y-23885D01*
X243164Y-23730D01*
X243229Y-23573D01*
X243291Y-23414D01*
X243348Y-23255D01*
X243402Y-23093D01*
X243452Y-22931D01*
X243498Y-22768D01*
X243540Y-22603D01*
X243578Y-22437D01*
X243613Y-22271D01*
X243643Y-22104D01*
X243669Y-21936D01*
X243691Y-21768D01*
X243710Y-21599D01*
X243724Y-21429D01*
X243734Y-21260D01*
X243740Y-21090D01*
X243742Y-20920D01*
X243022Y-24039D02*
X242994Y-24115D01*
X242962Y-24190D01*
X242927Y-24264D01*
X242889Y-24336D01*
X242847Y-24406D01*
X242802Y-24474D01*
X242754Y-24540D01*
X242703Y-24604D01*
X242649Y-24665D01*
X242593Y-24724D01*
X242533Y-24780D01*
X242472Y-24833D01*
X242408Y-24883D01*
X242341Y-24931D01*
X242273Y-24975D01*
X242202Y-25016D01*
X242130Y-25054D01*
X242056Y-25088D01*
X241981Y-25119D01*
X241904Y-25147D01*
X241826Y-25171D01*
X241747Y-25191D01*
X241667Y-25208D01*
X241587Y-25221D01*
X241506Y-25231D01*
X241425Y-25236D01*
X241343Y-25238D01*
X239424Y-23319D02*
X243262Y-18521D01*
X248088Y-20920D02*
X248090Y-20750D01*
X248096Y-20580D01*
X248106Y-20411D01*
X248120Y-20241D01*
X248139Y-20072D01*
X248161Y-19904D01*
X248187Y-19736D01*
X248217Y-19569D01*
X248252Y-19403D01*
X248290Y-19237D01*
X248332Y-19072D01*
X248378Y-18909D01*
X248428Y-18747D01*
X248482Y-18585D01*
X248539Y-18426D01*
X248601Y-18267D01*
X248666Y-18110D01*
X248735Y-17955D01*
X248808Y-17801D01*
X248836Y-17725D01*
X248868Y-17650D01*
X248903Y-17576D01*
X248941Y-17504D01*
X248983Y-17434D01*
X249028Y-17366D01*
X249076Y-17300D01*
X249127Y-17236D01*
X249181Y-17175D01*
X249237Y-17116D01*
X249297Y-17060D01*
X249358Y-17007D01*
X249422Y-16957D01*
X249489Y-16909D01*
X249557Y-16865D01*
X249628Y-16824D01*
X249700Y-16786D01*
X249774Y-16752D01*
X249849Y-16721D01*
X249926Y-16693D01*
X250004Y-16669D01*
X250083Y-16649D01*
X250163Y-16632D01*
X250243Y-16619D01*
X250324Y-16609D01*
X250405Y-16604D01*
X250487Y-16602D01*
X250569Y-16604D01*
X250650Y-16609D01*
X250731Y-16619D01*
X250811Y-16632D01*
X250891Y-16649D01*
X250970Y-16669D01*
X251048Y-16693D01*
X251125Y-16721D01*
X251200Y-16752D01*
X251274Y-16786D01*
X251346Y-16824D01*
X251417Y-16865D01*
X251485Y-16909D01*
X251552Y-16957D01*
X251616Y-17007D01*
X251677Y-17060D01*
X251737Y-17116D01*
X251793Y-17175D01*
X251847Y-17236D01*
X251898Y-17300D01*
X251946Y-17366D01*
X251991Y-17434D01*
X252033Y-17504D01*
X252071Y-17576D01*
X252106Y-17650D01*
X252138Y-17725D01*
X252166Y-17801D01*
X252239Y-17955D01*
X252308Y-18110D01*
X252373Y-18267D01*
X252435Y-18426D01*
X252492Y-18585D01*
X252546Y-18747D01*
X252596Y-18909D01*
X252642Y-19072D01*
X252684Y-19237D01*
X252722Y-19403D01*
X252757Y-19569D01*
X252787Y-19736D01*
X252813Y-19904D01*
X252835Y-20072D01*
X252854Y-20241D01*
X252868Y-20411D01*
X252878Y-20580D01*
X252884Y-20750D01*
X252886Y-20920D01*
X248088Y-20920D02*
X248090Y-21090D01*
X248096Y-21260D01*
X248106Y-21429D01*
X248120Y-21599D01*
X248139Y-21768D01*
X248161Y-21936D01*
X248187Y-22104D01*
X248217Y-22271D01*
X248252Y-22437D01*
X248290Y-22603D01*
X248332Y-22768D01*
X248378Y-22931D01*
X248428Y-23093D01*
X248482Y-23255D01*
X248539Y-23414D01*
X248601Y-23573D01*
X248666Y-23730D01*
X248735Y-23885D01*
X248808Y-24039D01*
X248836Y-24115D01*
X248868Y-24190D01*
X248903Y-24264D01*
X248941Y-24336D01*
X248983Y-24406D01*
X249028Y-24474D01*
X249076Y-24540D01*
X249127Y-24604D01*
X249181Y-24665D01*
X249237Y-24724D01*
X249297Y-24780D01*
X249358Y-24833D01*
X249422Y-24883D01*
X249489Y-24931D01*
X249557Y-24975D01*
X249628Y-25016D01*
X249700Y-25054D01*
X249774Y-25088D01*
X249849Y-25119D01*
X249926Y-25147D01*
X250004Y-25171D01*
X250083Y-25191D01*
X250163Y-25208D01*
X250243Y-25221D01*
X250324Y-25231D01*
X250405Y-25236D01*
X250487Y-25238D01*
X252166Y-24039D02*
X252239Y-23885D01*
X252308Y-23730D01*
X252373Y-23573D01*
X252435Y-23414D01*
X252492Y-23255D01*
X252546Y-23093D01*
X252596Y-22931D01*
X252642Y-22768D01*
X252684Y-22603D01*
X252722Y-22437D01*
X252757Y-22271D01*
X252787Y-22104D01*
X252813Y-21936D01*
X252835Y-21768D01*
X252854Y-21599D01*
X252868Y-21429D01*
X252878Y-21260D01*
X252884Y-21090D01*
X252886Y-20920D01*
X252166Y-24039D02*
X252138Y-24115D01*
X252106Y-24190D01*
X252071Y-24264D01*
X252033Y-24336D01*
X251991Y-24406D01*
X251946Y-24474D01*
X251898Y-24540D01*
X251847Y-24604D01*
X251793Y-24665D01*
X251737Y-24724D01*
X251677Y-24780D01*
X251616Y-24833D01*
X251552Y-24883D01*
X251485Y-24931D01*
X251417Y-24975D01*
X251346Y-25016D01*
X251274Y-25054D01*
X251200Y-25088D01*
X251125Y-25119D01*
X251048Y-25147D01*
X250970Y-25171D01*
X250891Y-25191D01*
X250811Y-25208D01*
X250731Y-25221D01*
X250650Y-25231D01*
X250569Y-25236D01*
X250487Y-25238D01*
X248568Y-23319D02*
X252406Y-18521D01*
X257232Y-17562D02*
X257232Y-16602D01*
X262030Y-16602D01*
X259631Y-25238D01*
X266376Y-20920D02*
X266378Y-20750D01*
X266384Y-20580D01*
X266394Y-20411D01*
X266408Y-20241D01*
X266427Y-20072D01*
X266449Y-19904D01*
X266475Y-19736D01*
X266505Y-19569D01*
X266540Y-19403D01*
X266578Y-19237D01*
X266620Y-19072D01*
X266666Y-18909D01*
X266716Y-18747D01*
X266770Y-18585D01*
X266827Y-18426D01*
X266889Y-18267D01*
X266954Y-18110D01*
X267023Y-17955D01*
X267096Y-17801D01*
X267124Y-17725D01*
X267156Y-17650D01*
X267191Y-17576D01*
X267229Y-17504D01*
X267271Y-17434D01*
X267316Y-17366D01*
X267364Y-17300D01*
X267415Y-17236D01*
X267469Y-17175D01*
X267525Y-17116D01*
X267585Y-17060D01*
X267646Y-17007D01*
X267710Y-16957D01*
X267777Y-16909D01*
X267845Y-16865D01*
X267916Y-16824D01*
X267988Y-16786D01*
X268062Y-16752D01*
X268137Y-16721D01*
X268214Y-16693D01*
X268292Y-16669D01*
X268371Y-16649D01*
X268451Y-16632D01*
X268531Y-16619D01*
X268612Y-16609D01*
X268693Y-16604D01*
X268775Y-16602D01*
X268857Y-16604D01*
X268938Y-16609D01*
X269019Y-16619D01*
X269099Y-16632D01*
X269179Y-16649D01*
X269258Y-16669D01*
X269336Y-16693D01*
X269413Y-16721D01*
X269488Y-16752D01*
X269562Y-16786D01*
X269634Y-16824D01*
X269705Y-16865D01*
X269773Y-16909D01*
X269840Y-16957D01*
X269904Y-17007D01*
X269965Y-17060D01*
X270025Y-17116D01*
X270081Y-17175D01*
X270135Y-17236D01*
X270186Y-17300D01*
X270234Y-17366D01*
X270279Y-17434D01*
X270321Y-17504D01*
X270359Y-17576D01*
X270394Y-17650D01*
X270426Y-17725D01*
X270454Y-17801D01*
X270527Y-17955D01*
X270596Y-18110D01*
X270661Y-18267D01*
X270723Y-18426D01*
X270780Y-18585D01*
X270834Y-18747D01*
X270884Y-18909D01*
X270930Y-19072D01*
X270972Y-19237D01*
X271010Y-19403D01*
X271045Y-19569D01*
X271075Y-19736D01*
X271101Y-19904D01*
X271123Y-20072D01*
X271142Y-20241D01*
X271156Y-20411D01*
X271166Y-20580D01*
X271172Y-20750D01*
X271174Y-20920D01*
X266376Y-20920D02*
X266378Y-21090D01*
X266384Y-21260D01*
X266394Y-21429D01*
X266408Y-21599D01*
X266427Y-21768D01*
X266449Y-21936D01*
X266475Y-22104D01*
X266505Y-22271D01*
X266540Y-22437D01*
X266578Y-22603D01*
X266620Y-22768D01*
X266666Y-22931D01*
X266716Y-23093D01*
X266770Y-23255D01*
X266827Y-23414D01*
X266889Y-23573D01*
X266954Y-23730D01*
X267023Y-23885D01*
X267096Y-24039D01*
X267124Y-24115D01*
X267156Y-24190D01*
X267191Y-24264D01*
X267229Y-24336D01*
X267271Y-24406D01*
X267316Y-24474D01*
X267364Y-24540D01*
X267415Y-24604D01*
X267469Y-24665D01*
X267525Y-24724D01*
X267585Y-24780D01*
X267646Y-24833D01*
X267710Y-24883D01*
X267777Y-24931D01*
X267845Y-24975D01*
X267916Y-25016D01*
X267988Y-25054D01*
X268062Y-25088D01*
X268137Y-25119D01*
X268214Y-25147D01*
X268292Y-25171D01*
X268371Y-25191D01*
X268451Y-25208D01*
X268531Y-25221D01*
X268612Y-25231D01*
X268693Y-25236D01*
X268775Y-25238D01*
X270454Y-24039D02*
X270527Y-23885D01*
X270596Y-23730D01*
X270661Y-23573D01*
X270723Y-23414D01*
X270780Y-23255D01*
X270834Y-23093D01*
X270884Y-22931D01*
X270930Y-22768D01*
X270972Y-22603D01*
X271010Y-22437D01*
X271045Y-22271D01*
X271075Y-22104D01*
X271101Y-21936D01*
X271123Y-21768D01*
X271142Y-21599D01*
X271156Y-21429D01*
X271166Y-21260D01*
X271172Y-21090D01*
X271174Y-20920D01*
X270454Y-24039D02*
X270426Y-24115D01*
X270394Y-24190D01*
X270359Y-24264D01*
X270321Y-24336D01*
X270279Y-24406D01*
X270234Y-24474D01*
X270186Y-24540D01*
X270135Y-24604D01*
X270081Y-24665D01*
X270025Y-24724D01*
X269965Y-24780D01*
X269904Y-24833D01*
X269840Y-24883D01*
X269773Y-24931D01*
X269705Y-24975D01*
X269634Y-25016D01*
X269562Y-25054D01*
X269488Y-25088D01*
X269413Y-25119D01*
X269336Y-25147D01*
X269258Y-25171D01*
X269179Y-25191D01*
X269099Y-25208D01*
X269019Y-25221D01*
X268938Y-25231D01*
X268857Y-25236D01*
X268775Y-25238D01*
X266856Y-23319D02*
X270694Y-18521D01*
X275520Y-25238D02*
X278398Y-25238D01*
X278484Y-25236D01*
X278570Y-25230D01*
X278656Y-25221D01*
X278741Y-25207D01*
X278825Y-25190D01*
X278909Y-25169D01*
X278991Y-25144D01*
X279072Y-25116D01*
X279152Y-25084D01*
X279231Y-25048D01*
X279307Y-25009D01*
X279382Y-24966D01*
X279455Y-24921D01*
X279526Y-24872D01*
X279594Y-24819D01*
X279661Y-24764D01*
X279724Y-24706D01*
X279785Y-24645D01*
X279843Y-24582D01*
X279898Y-24515D01*
X279951Y-24447D01*
X280000Y-24376D01*
X280045Y-24303D01*
X280088Y-24228D01*
X280127Y-24152D01*
X280163Y-24073D01*
X280195Y-23993D01*
X280223Y-23912D01*
X280248Y-23830D01*
X280269Y-23746D01*
X280286Y-23662D01*
X280300Y-23577D01*
X280309Y-23491D01*
X280315Y-23405D01*
X280317Y-23319D01*
X280318Y-23319D02*
X280318Y-22359D01*
X280317Y-22359D02*
X280315Y-22273D01*
X280309Y-22187D01*
X280300Y-22101D01*
X280286Y-22016D01*
X280269Y-21932D01*
X280248Y-21848D01*
X280223Y-21766D01*
X280195Y-21685D01*
X280163Y-21605D01*
X280127Y-21526D01*
X280088Y-21450D01*
X280045Y-21375D01*
X280000Y-21302D01*
X279951Y-21231D01*
X279898Y-21163D01*
X279843Y-21096D01*
X279785Y-21033D01*
X279724Y-20972D01*
X279661Y-20914D01*
X279594Y-20859D01*
X279526Y-20807D01*
X279455Y-20757D01*
X279382Y-20712D01*
X279307Y-20669D01*
X279231Y-20630D01*
X279152Y-20594D01*
X279072Y-20562D01*
X278991Y-20534D01*
X278909Y-20509D01*
X278825Y-20488D01*
X278741Y-20471D01*
X278656Y-20457D01*
X278570Y-20448D01*
X278484Y-20442D01*
X278398Y-20440D01*
X275520Y-20440D01*
X275520Y-16602D01*
X280318Y-16602D01*
X521561Y84361D02*
X530120Y92920D01*
X514490Y77290D02*
X505931Y68731D01*
X498860Y61660D02*
X490301Y53101D01*
X483230Y46030D02*
X474670Y37470D01*
X467599Y30399D02*
X459040Y21840D01*
X451969Y14769D02*
X443410Y6210D01*
X436339Y-861D02*
X427780Y-9420D01*
X446453Y2264D02*
X452560Y-3842D01*
X454256Y-2146D01*
X454307Y-2091D01*
X454356Y-2034D01*
X454402Y-1974D01*
X454445Y-1912D01*
X454484Y-1848D01*
X454520Y-1781D01*
X454553Y-1713D01*
X454581Y-1644D01*
X454607Y-1573D01*
X454628Y-1500D01*
X454646Y-1427D01*
X454659Y-1353D01*
X454669Y-1278D01*
X454675Y-1203D01*
X454677Y-1128D01*
X454675Y-1053D01*
X454669Y-978D01*
X454659Y-903D01*
X454646Y-829D01*
X454628Y-756D01*
X454607Y-683D01*
X454581Y-612D01*
X454553Y-543D01*
X454520Y-475D01*
X454484Y-409D01*
X454445Y-344D01*
X454402Y-282D01*
X454356Y-222D01*
X454307Y-165D01*
X454256Y-111D01*
X452221Y1925D01*
X452168Y1975D01*
X452112Y2022D01*
X452055Y2067D01*
X451995Y2109D01*
X451933Y2147D01*
X451869Y2182D01*
X451804Y2215D01*
X451737Y2243D01*
X451668Y2269D01*
X451599Y2290D01*
X451528Y2309D01*
X451457Y2323D01*
X451385Y2334D01*
X451312Y2342D01*
X451239Y2346D01*
X451167Y2346D01*
X451094Y2342D01*
X451021Y2334D01*
X450949Y2323D01*
X450878Y2309D01*
X450807Y2290D01*
X450738Y2269D01*
X450669Y2243D01*
X450602Y2215D01*
X450537Y2182D01*
X450473Y2147D01*
X450411Y2109D01*
X450351Y2067D01*
X450294Y2022D01*
X450238Y1975D01*
X450185Y1925D01*
X448489Y229D01*
X459133Y2731D02*
X460830Y4427D01*
X459134Y2731D02*
X459079Y2680D01*
X459022Y2631D01*
X458962Y2585D01*
X458900Y2542D01*
X458836Y2503D01*
X458769Y2467D01*
X458701Y2434D01*
X458632Y2406D01*
X458561Y2380D01*
X458488Y2359D01*
X458415Y2341D01*
X458341Y2328D01*
X458266Y2318D01*
X458191Y2312D01*
X458116Y2310D01*
X458041Y2312D01*
X457966Y2318D01*
X457891Y2328D01*
X457817Y2341D01*
X457744Y2359D01*
X457671Y2380D01*
X457600Y2406D01*
X457531Y2434D01*
X457463Y2467D01*
X457397Y2503D01*
X457332Y2542D01*
X457270Y2585D01*
X457210Y2631D01*
X457153Y2680D01*
X457098Y2731D01*
X455402Y4427D01*
X455343Y4489D01*
X455286Y4554D01*
X455232Y4621D01*
X455182Y4691D01*
X455134Y4763D01*
X455090Y4837D01*
X455049Y4913D01*
X455012Y4990D01*
X454978Y5070D01*
X454948Y5150D01*
X454921Y5232D01*
X454898Y5315D01*
X454879Y5399D01*
X454864Y5484D01*
X454852Y5569D01*
X454844Y5655D01*
X454840Y5741D01*
X454840Y5827D01*
X454844Y5913D01*
X454852Y5999D01*
X454864Y6084D01*
X454879Y6169D01*
X454898Y6253D01*
X454921Y6336D01*
X454948Y6418D01*
X454978Y6498D01*
X455012Y6578D01*
X455049Y6655D01*
X455090Y6731D01*
X455134Y6805D01*
X455182Y6877D01*
X455232Y6947D01*
X455286Y7014D01*
X455343Y7079D01*
X455402Y7141D01*
X455464Y7200D01*
X455529Y7257D01*
X455596Y7311D01*
X455666Y7361D01*
X455738Y7409D01*
X455812Y7453D01*
X455888Y7494D01*
X455965Y7531D01*
X456045Y7565D01*
X456125Y7595D01*
X456207Y7622D01*
X456290Y7645D01*
X456374Y7664D01*
X456459Y7679D01*
X456544Y7691D01*
X456630Y7699D01*
X456716Y7703D01*
X456802Y7703D01*
X456888Y7699D01*
X456974Y7691D01*
X457059Y7679D01*
X457144Y7664D01*
X457228Y7645D01*
X457311Y7622D01*
X457393Y7595D01*
X457473Y7565D01*
X457553Y7531D01*
X457630Y7494D01*
X457706Y7453D01*
X457780Y7409D01*
X457852Y7361D01*
X457922Y7311D01*
X457989Y7257D01*
X458054Y7200D01*
X458116Y7141D01*
X458794Y6463D01*
X456080Y3749D01*
X463935Y7533D02*
X459864Y11604D01*
X461560Y13300D01*
X461615Y13351D01*
X461672Y13400D01*
X461732Y13446D01*
X461794Y13489D01*
X461858Y13528D01*
X461925Y13564D01*
X461993Y13597D01*
X462062Y13625D01*
X462133Y13651D01*
X462206Y13672D01*
X462279Y13690D01*
X462353Y13703D01*
X462428Y13713D01*
X462503Y13719D01*
X462578Y13721D01*
X462653Y13719D01*
X462728Y13713D01*
X462803Y13703D01*
X462877Y13690D01*
X462950Y13672D01*
X463023Y13651D01*
X463094Y13625D01*
X463163Y13597D01*
X463231Y13564D01*
X463297Y13528D01*
X463362Y13489D01*
X463424Y13446D01*
X463484Y13400D01*
X463541Y13351D01*
X463595Y13300D01*
X463596Y13300D02*
X466649Y10247D01*
X472420Y16018D02*
X466314Y22124D01*
X472420Y16018D02*
X470724Y14322D01*
X470724Y14321D02*
X470669Y14270D01*
X470612Y14221D01*
X470552Y14175D01*
X470490Y14132D01*
X470426Y14093D01*
X470359Y14057D01*
X470291Y14024D01*
X470222Y13996D01*
X470151Y13970D01*
X470078Y13949D01*
X470005Y13931D01*
X469931Y13918D01*
X469856Y13908D01*
X469781Y13902D01*
X469706Y13900D01*
X469631Y13902D01*
X469556Y13908D01*
X469481Y13918D01*
X469407Y13931D01*
X469334Y13949D01*
X469261Y13970D01*
X469190Y13996D01*
X469121Y14024D01*
X469053Y14057D01*
X468987Y14093D01*
X468922Y14132D01*
X468860Y14175D01*
X468800Y14221D01*
X468743Y14270D01*
X468688Y14321D01*
X468688Y14322D02*
X466653Y16357D01*
X466602Y16412D01*
X466553Y16469D01*
X466507Y16529D01*
X466464Y16591D01*
X466425Y16656D01*
X466389Y16722D01*
X466356Y16790D01*
X466328Y16859D01*
X466302Y16930D01*
X466281Y17003D01*
X466263Y17076D01*
X466250Y17150D01*
X466240Y17225D01*
X466234Y17300D01*
X466232Y17375D01*
X466234Y17450D01*
X466240Y17525D01*
X466250Y17600D01*
X466263Y17674D01*
X466281Y17747D01*
X466302Y17820D01*
X466328Y17891D01*
X466356Y17960D01*
X466389Y18028D01*
X466425Y18095D01*
X466464Y18159D01*
X466507Y18221D01*
X466553Y18281D01*
X466602Y18338D01*
X466653Y18393D01*
X468349Y20089D01*
X480050Y23648D02*
X481407Y25005D01*
X480050Y23647D02*
X479995Y23596D01*
X479938Y23547D01*
X479878Y23501D01*
X479816Y23458D01*
X479752Y23419D01*
X479685Y23383D01*
X479617Y23350D01*
X479548Y23322D01*
X479477Y23296D01*
X479404Y23275D01*
X479331Y23257D01*
X479257Y23244D01*
X479182Y23234D01*
X479107Y23228D01*
X479032Y23226D01*
X478957Y23228D01*
X478882Y23234D01*
X478807Y23244D01*
X478733Y23257D01*
X478660Y23275D01*
X478587Y23296D01*
X478516Y23322D01*
X478447Y23350D01*
X478379Y23383D01*
X478313Y23419D01*
X478248Y23458D01*
X478186Y23501D01*
X478126Y23547D01*
X478069Y23596D01*
X478014Y23647D01*
X478015Y23648D02*
X475979Y25683D01*
X475928Y25738D01*
X475879Y25795D01*
X475833Y25855D01*
X475790Y25917D01*
X475751Y25982D01*
X475715Y26048D01*
X475682Y26116D01*
X475654Y26185D01*
X475628Y26256D01*
X475607Y26329D01*
X475589Y26402D01*
X475576Y26476D01*
X475566Y26551D01*
X475560Y26626D01*
X475558Y26701D01*
X475560Y26776D01*
X475566Y26851D01*
X475576Y26926D01*
X475589Y27000D01*
X475607Y27073D01*
X475628Y27146D01*
X475654Y27217D01*
X475682Y27286D01*
X475715Y27354D01*
X475751Y27421D01*
X475790Y27485D01*
X475833Y27547D01*
X475879Y27607D01*
X475928Y27664D01*
X475979Y27719D01*
X477336Y29076D01*
X482743Y31091D02*
X484270Y32617D01*
X482744Y31090D02*
X482688Y31032D01*
X482635Y30970D01*
X482585Y30906D01*
X482538Y30840D01*
X482494Y30772D01*
X482454Y30701D01*
X482417Y30629D01*
X482384Y30555D01*
X482354Y30479D01*
X482328Y30403D01*
X482306Y30324D01*
X482287Y30245D01*
X482273Y30166D01*
X482262Y30085D01*
X482255Y30004D01*
X482252Y29923D01*
X482253Y29842D01*
X482258Y29761D01*
X482267Y29681D01*
X482280Y29600D01*
X482296Y29521D01*
X482316Y29442D01*
X482341Y29365D01*
X482368Y29289D01*
X482400Y29214D01*
X482435Y29141D01*
X482474Y29069D01*
X482516Y29000D01*
X482561Y28933D01*
X482609Y28868D01*
X482661Y28805D01*
X482715Y28745D01*
X482773Y28687D01*
X482833Y28633D01*
X482896Y28581D01*
X482961Y28533D01*
X483028Y28488D01*
X483097Y28446D01*
X483169Y28407D01*
X483242Y28372D01*
X483317Y28340D01*
X483393Y28313D01*
X483470Y28288D01*
X483549Y28268D01*
X483628Y28252D01*
X483709Y28239D01*
X483789Y28230D01*
X483870Y28225D01*
X483951Y28224D01*
X484032Y28227D01*
X484113Y28234D01*
X484194Y28245D01*
X484273Y28259D01*
X484352Y28278D01*
X484431Y28300D01*
X484507Y28326D01*
X484583Y28356D01*
X484657Y28389D01*
X484729Y28426D01*
X484800Y28466D01*
X484868Y28510D01*
X484934Y28557D01*
X484998Y28607D01*
X485060Y28660D01*
X485118Y28716D01*
X486645Y30242D01*
X483591Y33296D01*
X483592Y33296D02*
X483539Y33346D01*
X483483Y33393D01*
X483426Y33438D01*
X483366Y33480D01*
X483304Y33518D01*
X483240Y33553D01*
X483175Y33586D01*
X483108Y33614D01*
X483039Y33640D01*
X482970Y33661D01*
X482899Y33680D01*
X482828Y33694D01*
X482756Y33705D01*
X482683Y33713D01*
X482610Y33717D01*
X482538Y33717D01*
X482465Y33713D01*
X482392Y33705D01*
X482320Y33694D01*
X482249Y33680D01*
X482178Y33661D01*
X482109Y33640D01*
X482040Y33614D01*
X481973Y33586D01*
X481908Y33553D01*
X481844Y33518D01*
X481782Y33480D01*
X481722Y33438D01*
X481665Y33393D01*
X481609Y33346D01*
X481556Y33295D01*
X481556Y33296D02*
X480199Y31939D01*
X483954Y39765D02*
X490061Y33659D01*
X491757Y35355D01*
X491758Y35355D02*
X491809Y35410D01*
X491858Y35467D01*
X491904Y35527D01*
X491947Y35589D01*
X491986Y35653D01*
X492022Y35720D01*
X492055Y35788D01*
X492083Y35857D01*
X492109Y35928D01*
X492130Y36001D01*
X492148Y36074D01*
X492161Y36148D01*
X492171Y36223D01*
X492177Y36298D01*
X492179Y36373D01*
X492177Y36448D01*
X492171Y36523D01*
X492161Y36598D01*
X492148Y36672D01*
X492130Y36745D01*
X492109Y36818D01*
X492083Y36889D01*
X492055Y36958D01*
X492022Y37026D01*
X491986Y37092D01*
X491947Y37157D01*
X491904Y37219D01*
X491858Y37279D01*
X491809Y37336D01*
X491758Y37390D01*
X491757Y37391D02*
X489722Y39426D01*
X489669Y39476D01*
X489613Y39523D01*
X489556Y39568D01*
X489496Y39610D01*
X489434Y39648D01*
X489370Y39683D01*
X489305Y39716D01*
X489238Y39744D01*
X489169Y39770D01*
X489100Y39791D01*
X489029Y39810D01*
X488958Y39824D01*
X488886Y39835D01*
X488813Y39843D01*
X488740Y39847D01*
X488668Y39847D01*
X488595Y39843D01*
X488522Y39835D01*
X488450Y39824D01*
X488379Y39810D01*
X488308Y39791D01*
X488239Y39770D01*
X488170Y39744D01*
X488103Y39716D01*
X488038Y39683D01*
X487974Y39648D01*
X487912Y39610D01*
X487852Y39568D01*
X487795Y39523D01*
X487739Y39476D01*
X487686Y39426D01*
X485990Y37730D01*
X489538Y45348D02*
X494626Y40260D01*
X494626Y40259D02*
X494679Y40209D01*
X494735Y40162D01*
X494792Y40117D01*
X494852Y40075D01*
X494914Y40037D01*
X494978Y40002D01*
X495043Y39969D01*
X495110Y39941D01*
X495179Y39915D01*
X495248Y39894D01*
X495319Y39875D01*
X495390Y39861D01*
X495462Y39850D01*
X495535Y39842D01*
X495608Y39838D01*
X495680Y39838D01*
X495753Y39842D01*
X495826Y39850D01*
X495898Y39861D01*
X495969Y39875D01*
X496040Y39894D01*
X496109Y39915D01*
X496178Y39941D01*
X496245Y39969D01*
X496310Y40002D01*
X496374Y40037D01*
X496436Y40075D01*
X496496Y40117D01*
X496553Y40162D01*
X496609Y40209D01*
X496662Y40259D01*
X500083Y43681D02*
X501779Y45377D01*
X500083Y43680D02*
X500028Y43629D01*
X499971Y43580D01*
X499911Y43534D01*
X499849Y43491D01*
X499785Y43452D01*
X499718Y43416D01*
X499650Y43383D01*
X499581Y43355D01*
X499510Y43329D01*
X499437Y43308D01*
X499364Y43290D01*
X499290Y43277D01*
X499215Y43267D01*
X499140Y43261D01*
X499065Y43259D01*
X498990Y43261D01*
X498915Y43267D01*
X498840Y43277D01*
X498766Y43290D01*
X498693Y43308D01*
X498620Y43329D01*
X498549Y43355D01*
X498480Y43383D01*
X498412Y43416D01*
X498346Y43452D01*
X498281Y43491D01*
X498219Y43534D01*
X498159Y43580D01*
X498102Y43629D01*
X498047Y43680D01*
X498047Y43681D02*
X496351Y45377D01*
X496292Y45439D01*
X496235Y45504D01*
X496181Y45571D01*
X496131Y45641D01*
X496083Y45713D01*
X496039Y45787D01*
X495998Y45863D01*
X495961Y45940D01*
X495927Y46020D01*
X495897Y46100D01*
X495870Y46182D01*
X495847Y46265D01*
X495828Y46349D01*
X495813Y46434D01*
X495801Y46519D01*
X495793Y46605D01*
X495789Y46691D01*
X495789Y46777D01*
X495793Y46863D01*
X495801Y46949D01*
X495813Y47034D01*
X495828Y47119D01*
X495847Y47203D01*
X495870Y47286D01*
X495897Y47368D01*
X495927Y47448D01*
X495961Y47528D01*
X495998Y47605D01*
X496039Y47681D01*
X496083Y47755D01*
X496131Y47827D01*
X496181Y47897D01*
X496235Y47964D01*
X496292Y48029D01*
X496351Y48091D01*
X496413Y48150D01*
X496478Y48207D01*
X496545Y48261D01*
X496615Y48311D01*
X496687Y48359D01*
X496761Y48403D01*
X496837Y48444D01*
X496914Y48481D01*
X496994Y48515D01*
X497074Y48545D01*
X497156Y48572D01*
X497239Y48595D01*
X497323Y48614D01*
X497408Y48629D01*
X497493Y48641D01*
X497579Y48649D01*
X497665Y48653D01*
X497751Y48653D01*
X497837Y48649D01*
X497923Y48641D01*
X498008Y48629D01*
X498093Y48614D01*
X498177Y48595D01*
X498260Y48572D01*
X498342Y48545D01*
X498422Y48515D01*
X498502Y48481D01*
X498579Y48444D01*
X498655Y48403D01*
X498729Y48359D01*
X498801Y48311D01*
X498871Y48261D01*
X498938Y48207D01*
X499003Y48150D01*
X499065Y48091D01*
X499744Y47412D01*
X497030Y44698D01*
X508333Y51930D02*
X502226Y58037D01*
X504262Y56001D02*
X505958Y57698D01*
X506013Y57749D01*
X506070Y57798D01*
X506130Y57844D01*
X506192Y57887D01*
X506256Y57926D01*
X506323Y57962D01*
X506391Y57995D01*
X506460Y58023D01*
X506531Y58049D01*
X506604Y58070D01*
X506677Y58088D01*
X506751Y58101D01*
X506826Y58111D01*
X506901Y58117D01*
X506976Y58119D01*
X507051Y58117D01*
X507126Y58111D01*
X507201Y58101D01*
X507275Y58088D01*
X507348Y58070D01*
X507421Y58049D01*
X507492Y58023D01*
X507561Y57995D01*
X507629Y57962D01*
X507695Y57926D01*
X507760Y57887D01*
X507822Y57844D01*
X507882Y57798D01*
X507939Y57749D01*
X507993Y57698D01*
X511047Y54644D01*
X515170Y58767D02*
X516866Y60464D01*
X515170Y58767D02*
X515115Y58716D01*
X515058Y58667D01*
X514998Y58621D01*
X514936Y58578D01*
X514872Y58539D01*
X514805Y58503D01*
X514737Y58470D01*
X514668Y58442D01*
X514597Y58416D01*
X514524Y58395D01*
X514451Y58377D01*
X514377Y58364D01*
X514302Y58354D01*
X514227Y58348D01*
X514152Y58346D01*
X514077Y58348D01*
X514002Y58354D01*
X513927Y58364D01*
X513853Y58377D01*
X513780Y58395D01*
X513707Y58416D01*
X513636Y58442D01*
X513567Y58470D01*
X513499Y58503D01*
X513433Y58539D01*
X513368Y58578D01*
X513306Y58621D01*
X513246Y58667D01*
X513189Y58716D01*
X513134Y58767D01*
X511438Y60464D01*
X511379Y60526D01*
X511322Y60591D01*
X511268Y60658D01*
X511218Y60728D01*
X511170Y60800D01*
X511126Y60874D01*
X511085Y60950D01*
X511048Y61027D01*
X511014Y61107D01*
X510984Y61187D01*
X510957Y61269D01*
X510934Y61352D01*
X510915Y61436D01*
X510900Y61521D01*
X510888Y61606D01*
X510880Y61692D01*
X510876Y61778D01*
X510876Y61864D01*
X510880Y61950D01*
X510888Y62036D01*
X510900Y62121D01*
X510915Y62206D01*
X510934Y62290D01*
X510957Y62373D01*
X510984Y62455D01*
X511014Y62535D01*
X511048Y62615D01*
X511085Y62692D01*
X511126Y62768D01*
X511170Y62842D01*
X511218Y62914D01*
X511268Y62984D01*
X511322Y63051D01*
X511379Y63116D01*
X511438Y63178D01*
X511500Y63237D01*
X511565Y63294D01*
X511632Y63348D01*
X511702Y63398D01*
X511774Y63446D01*
X511848Y63490D01*
X511924Y63531D01*
X512001Y63568D01*
X512081Y63602D01*
X512161Y63632D01*
X512243Y63659D01*
X512326Y63682D01*
X512410Y63701D01*
X512495Y63716D01*
X512580Y63728D01*
X512666Y63736D01*
X512752Y63740D01*
X512838Y63740D01*
X512924Y63736D01*
X513010Y63728D01*
X513095Y63716D01*
X513180Y63701D01*
X513264Y63682D01*
X513347Y63659D01*
X513429Y63632D01*
X513509Y63602D01*
X513589Y63568D01*
X513666Y63531D01*
X513742Y63490D01*
X513816Y63446D01*
X513888Y63398D01*
X513958Y63348D01*
X514025Y63294D01*
X514090Y63237D01*
X514152Y63178D01*
X514830Y62499D01*
X512116Y59785D01*
X520025Y63623D02*
X515954Y67694D01*
X517989Y69729D01*
X518668Y69051D01*
X525299Y68897D02*
X526995Y70593D01*
X525299Y68897D02*
X525244Y68846D01*
X525187Y68797D01*
X525127Y68751D01*
X525065Y68708D01*
X525001Y68669D01*
X524934Y68633D01*
X524866Y68600D01*
X524797Y68572D01*
X524726Y68546D01*
X524653Y68525D01*
X524580Y68507D01*
X524506Y68494D01*
X524431Y68484D01*
X524356Y68478D01*
X524281Y68476D01*
X524206Y68478D01*
X524131Y68484D01*
X524056Y68494D01*
X523982Y68507D01*
X523909Y68525D01*
X523836Y68546D01*
X523765Y68572D01*
X523696Y68600D01*
X523628Y68633D01*
X523562Y68669D01*
X523497Y68708D01*
X523435Y68751D01*
X523375Y68797D01*
X523318Y68846D01*
X523263Y68897D01*
X523264Y68897D02*
X521567Y70593D01*
X521508Y70655D01*
X521451Y70720D01*
X521397Y70787D01*
X521347Y70857D01*
X521299Y70929D01*
X521255Y71003D01*
X521214Y71079D01*
X521177Y71156D01*
X521143Y71236D01*
X521113Y71316D01*
X521086Y71398D01*
X521063Y71481D01*
X521044Y71565D01*
X521029Y71650D01*
X521017Y71735D01*
X521009Y71821D01*
X521005Y71907D01*
X521005Y71993D01*
X521009Y72079D01*
X521017Y72165D01*
X521029Y72250D01*
X521044Y72335D01*
X521063Y72419D01*
X521086Y72502D01*
X521113Y72584D01*
X521143Y72664D01*
X521177Y72744D01*
X521214Y72821D01*
X521255Y72897D01*
X521299Y72971D01*
X521347Y73043D01*
X521397Y73113D01*
X521451Y73180D01*
X521508Y73245D01*
X521567Y73307D01*
X521629Y73366D01*
X521694Y73423D01*
X521761Y73477D01*
X521831Y73527D01*
X521903Y73575D01*
X521977Y73619D01*
X522053Y73660D01*
X522130Y73697D01*
X522210Y73731D01*
X522290Y73761D01*
X522372Y73788D01*
X522455Y73811D01*
X522539Y73830D01*
X522624Y73845D01*
X522709Y73857D01*
X522795Y73865D01*
X522881Y73869D01*
X522967Y73869D01*
X523053Y73865D01*
X523139Y73857D01*
X523224Y73845D01*
X523309Y73830D01*
X523393Y73811D01*
X523476Y73788D01*
X523558Y73761D01*
X523638Y73731D01*
X523718Y73697D01*
X523795Y73660D01*
X523871Y73619D01*
X523945Y73575D01*
X524017Y73527D01*
X524087Y73477D01*
X524154Y73423D01*
X524219Y73366D01*
X524281Y73307D01*
X524960Y72629D01*
X522246Y69915D01*
D10*
X294500Y94500D02*
X252500Y136500D01*
X294500Y94500D02*
X1427610Y94500D01*
X1466610Y133500D01*
X1490010Y133500D01*
X1494000Y129500D01*
X1494000Y-70000D01*
X1490500Y-73500D01*
X1355000Y-74000D01*
X1293500Y-12500D01*
X390500Y-12000D01*
X368000Y-34500D01*
X25500Y-34500D01*
D12*
X424240Y-7080D02*
X424240Y91980D01*
X523300Y91980D01*
X424240Y-7080D01*
X424240Y-6096D02*
X425224Y-6096D01*
X424240Y0D02*
X431320Y0D01*
X437416Y6096D02*
X424240Y6096D01*
X424240Y12192D02*
X443512Y12192D01*
X449608Y18288D02*
X424240Y18288D01*
X424240Y24384D02*
X455704Y24384D01*
X461800Y30480D02*
X424240Y30480D01*
X424240Y36576D02*
X467896Y36576D01*
X473992Y42672D02*
X424240Y42672D01*
X424240Y48768D02*
X480088Y48768D01*
X486184Y54864D02*
X424240Y54864D01*
X424240Y60960D02*
X492280Y60960D01*
X498376Y67056D02*
X424240Y67056D01*
X424240Y73152D02*
X504472Y73152D01*
X510568Y79248D02*
X424240Y79248D01*
X424240Y85344D02*
X516664Y85344D01*
X522760Y91440D02*
X424240Y91440D01*
X426720Y91980D02*
X426720Y-4600D01*
X432816Y1496D02*
X432816Y91980D01*
X438912Y91980D02*
X438912Y7592D01*
X445008Y13688D02*
X445008Y91980D01*
X451104Y91980D02*
X451104Y19784D01*
X457200Y25880D02*
X457200Y91980D01*
X463296Y91980D02*
X463296Y31976D01*
X469392Y38072D02*
X469392Y91980D01*
X475488Y91980D02*
X475488Y44168D01*
X481584Y50264D02*
X481584Y91980D01*
X487680Y91980D02*
X487680Y56360D01*
X493776Y62456D02*
X493776Y91980D01*
X499872Y91980D02*
X499872Y68552D01*
X505968Y74648D02*
X505968Y91980D01*
X512064Y91980D02*
X512064Y80744D01*
X518160Y86840D02*
X518160Y91980D01*
X1174948Y72960D02*
X1181054Y79067D01*
X1174948Y72960D02*
X1176644Y71264D01*
X1176644Y71263D02*
X1176699Y71212D01*
X1176756Y71163D01*
X1176816Y71117D01*
X1176878Y71074D01*
X1176942Y71035D01*
X1177009Y70999D01*
X1177077Y70966D01*
X1177146Y70938D01*
X1177217Y70912D01*
X1177290Y70891D01*
X1177363Y70873D01*
X1177437Y70860D01*
X1177512Y70850D01*
X1177587Y70844D01*
X1177662Y70842D01*
X1177737Y70844D01*
X1177812Y70850D01*
X1177887Y70860D01*
X1177961Y70873D01*
X1178034Y70891D01*
X1178107Y70912D01*
X1178178Y70938D01*
X1178247Y70966D01*
X1178315Y70999D01*
X1178381Y71035D01*
X1178446Y71074D01*
X1178508Y71117D01*
X1178568Y71163D01*
X1178625Y71212D01*
X1178679Y71263D01*
X1178679Y71264D02*
X1180715Y73299D01*
X1180765Y73352D01*
X1180812Y73408D01*
X1180857Y73465D01*
X1180899Y73525D01*
X1180937Y73587D01*
X1180972Y73651D01*
X1181005Y73716D01*
X1181033Y73783D01*
X1181059Y73852D01*
X1181080Y73921D01*
X1181099Y73992D01*
X1181113Y74063D01*
X1181124Y74135D01*
X1181132Y74208D01*
X1181136Y74281D01*
X1181136Y74353D01*
X1181132Y74426D01*
X1181124Y74499D01*
X1181113Y74571D01*
X1181099Y74642D01*
X1181080Y74713D01*
X1181059Y74782D01*
X1181033Y74851D01*
X1181005Y74918D01*
X1180972Y74983D01*
X1180937Y75047D01*
X1180899Y75109D01*
X1180857Y75169D01*
X1180812Y75226D01*
X1180765Y75282D01*
X1180715Y75335D01*
X1179019Y77031D01*
X1181521Y66386D02*
X1183217Y64690D01*
X1181521Y66386D02*
X1181471Y66439D01*
X1181424Y66495D01*
X1181379Y66552D01*
X1181337Y66612D01*
X1181299Y66674D01*
X1181264Y66738D01*
X1181231Y66803D01*
X1181203Y66870D01*
X1181177Y66939D01*
X1181156Y67008D01*
X1181137Y67079D01*
X1181123Y67150D01*
X1181112Y67222D01*
X1181104Y67295D01*
X1181100Y67368D01*
X1181100Y67440D01*
X1181104Y67513D01*
X1181112Y67586D01*
X1181123Y67658D01*
X1181137Y67729D01*
X1181156Y67800D01*
X1181177Y67869D01*
X1181203Y67938D01*
X1181231Y68005D01*
X1181264Y68070D01*
X1181299Y68134D01*
X1181337Y68196D01*
X1181379Y68256D01*
X1181424Y68313D01*
X1181471Y68369D01*
X1181521Y68422D01*
X1183217Y70118D01*
X1183280Y70178D01*
X1183346Y70236D01*
X1183414Y70290D01*
X1183485Y70341D01*
X1183558Y70389D01*
X1183633Y70434D01*
X1183711Y70475D01*
X1183789Y70512D01*
X1183870Y70546D01*
X1183952Y70576D01*
X1184035Y70603D01*
X1184120Y70625D01*
X1184205Y70644D01*
X1184291Y70659D01*
X1184378Y70670D01*
X1184465Y70677D01*
X1184552Y70680D01*
X1184640Y70679D01*
X1184727Y70674D01*
X1184814Y70665D01*
X1184900Y70652D01*
X1184986Y70635D01*
X1185071Y70615D01*
X1185155Y70590D01*
X1185237Y70562D01*
X1185318Y70530D01*
X1185398Y70494D01*
X1185476Y70455D01*
X1185552Y70412D01*
X1185626Y70366D01*
X1185698Y70316D01*
X1185768Y70263D01*
X1185835Y70207D01*
X1185900Y70148D01*
X1185961Y70087D01*
X1186020Y70022D01*
X1186076Y69955D01*
X1186129Y69885D01*
X1186179Y69813D01*
X1186225Y69739D01*
X1186268Y69663D01*
X1186307Y69585D01*
X1186343Y69505D01*
X1186375Y69424D01*
X1186403Y69342D01*
X1186428Y69258D01*
X1186448Y69173D01*
X1186465Y69087D01*
X1186478Y69001D01*
X1186487Y68914D01*
X1186492Y68827D01*
X1186493Y68739D01*
X1186490Y68652D01*
X1186483Y68565D01*
X1186472Y68478D01*
X1186457Y68392D01*
X1186438Y68307D01*
X1186416Y68222D01*
X1186389Y68139D01*
X1186359Y68057D01*
X1186325Y67977D01*
X1186288Y67898D01*
X1186247Y67820D01*
X1186202Y67745D01*
X1186154Y67672D01*
X1186103Y67601D01*
X1186049Y67533D01*
X1185991Y67467D01*
X1185931Y67404D01*
X1185253Y66726D01*
X1182539Y69440D01*
X1186323Y61585D02*
X1190394Y65656D01*
X1192090Y63960D01*
X1192141Y63905D01*
X1192190Y63848D01*
X1192236Y63788D01*
X1192279Y63726D01*
X1192318Y63662D01*
X1192354Y63595D01*
X1192387Y63527D01*
X1192415Y63458D01*
X1192441Y63387D01*
X1192462Y63314D01*
X1192480Y63241D01*
X1192493Y63167D01*
X1192503Y63092D01*
X1192509Y63017D01*
X1192511Y62942D01*
X1192509Y62867D01*
X1192503Y62792D01*
X1192493Y62717D01*
X1192480Y62643D01*
X1192462Y62570D01*
X1192441Y62497D01*
X1192415Y62426D01*
X1192387Y62357D01*
X1192354Y62289D01*
X1192318Y62223D01*
X1192279Y62158D01*
X1192236Y62096D01*
X1192190Y62036D01*
X1192141Y61979D01*
X1192090Y61925D01*
X1192090Y61924D02*
X1189037Y58871D01*
X1194808Y53100D02*
X1200914Y59206D01*
X1194808Y53100D02*
X1193112Y54796D01*
X1193111Y54796D02*
X1193061Y54849D01*
X1193014Y54905D01*
X1192969Y54962D01*
X1192927Y55022D01*
X1192889Y55084D01*
X1192854Y55148D01*
X1192821Y55213D01*
X1192793Y55280D01*
X1192767Y55349D01*
X1192746Y55418D01*
X1192727Y55489D01*
X1192713Y55560D01*
X1192702Y55632D01*
X1192694Y55705D01*
X1192690Y55778D01*
X1192690Y55850D01*
X1192694Y55923D01*
X1192702Y55996D01*
X1192713Y56068D01*
X1192727Y56139D01*
X1192746Y56210D01*
X1192767Y56279D01*
X1192793Y56348D01*
X1192821Y56415D01*
X1192854Y56480D01*
X1192889Y56544D01*
X1192927Y56606D01*
X1192969Y56666D01*
X1193014Y56723D01*
X1193061Y56779D01*
X1193111Y56832D01*
X1193112Y56831D02*
X1195147Y58867D01*
X1195202Y58918D01*
X1195259Y58967D01*
X1195319Y59013D01*
X1195381Y59056D01*
X1195446Y59095D01*
X1195512Y59131D01*
X1195580Y59164D01*
X1195649Y59192D01*
X1195720Y59218D01*
X1195793Y59239D01*
X1195866Y59257D01*
X1195940Y59270D01*
X1196015Y59280D01*
X1196090Y59286D01*
X1196165Y59288D01*
X1196240Y59286D01*
X1196315Y59280D01*
X1196390Y59270D01*
X1196464Y59257D01*
X1196537Y59239D01*
X1196610Y59218D01*
X1196681Y59192D01*
X1196750Y59164D01*
X1196818Y59131D01*
X1196885Y59095D01*
X1196949Y59056D01*
X1197011Y59013D01*
X1197071Y58967D01*
X1197128Y58918D01*
X1197183Y58867D01*
X1198879Y57171D01*
X1202438Y45470D02*
X1203795Y44113D01*
X1202437Y45469D02*
X1202387Y45522D01*
X1202340Y45578D01*
X1202295Y45635D01*
X1202253Y45695D01*
X1202215Y45757D01*
X1202180Y45821D01*
X1202147Y45886D01*
X1202119Y45953D01*
X1202093Y46022D01*
X1202072Y46091D01*
X1202053Y46162D01*
X1202039Y46233D01*
X1202028Y46305D01*
X1202020Y46378D01*
X1202016Y46451D01*
X1202016Y46523D01*
X1202020Y46596D01*
X1202028Y46669D01*
X1202039Y46741D01*
X1202053Y46812D01*
X1202072Y46883D01*
X1202093Y46952D01*
X1202119Y47021D01*
X1202147Y47088D01*
X1202180Y47153D01*
X1202215Y47217D01*
X1202253Y47279D01*
X1202295Y47339D01*
X1202340Y47396D01*
X1202387Y47452D01*
X1202437Y47505D01*
X1202438Y47505D02*
X1204473Y49541D01*
X1204528Y49592D01*
X1204585Y49641D01*
X1204645Y49687D01*
X1204707Y49730D01*
X1204772Y49769D01*
X1204838Y49805D01*
X1204906Y49838D01*
X1204975Y49866D01*
X1205046Y49892D01*
X1205119Y49913D01*
X1205192Y49931D01*
X1205266Y49944D01*
X1205341Y49954D01*
X1205416Y49960D01*
X1205491Y49962D01*
X1205566Y49960D01*
X1205641Y49954D01*
X1205716Y49944D01*
X1205790Y49931D01*
X1205863Y49913D01*
X1205936Y49892D01*
X1206007Y49866D01*
X1206076Y49838D01*
X1206144Y49805D01*
X1206211Y49769D01*
X1206275Y49730D01*
X1206337Y49687D01*
X1206397Y49641D01*
X1206454Y49592D01*
X1206509Y49541D01*
X1207866Y48184D01*
X1209880Y42776D02*
X1211407Y41250D01*
X1209880Y42776D02*
X1209821Y42832D01*
X1209760Y42885D01*
X1209696Y42935D01*
X1209630Y42982D01*
X1209562Y43026D01*
X1209491Y43066D01*
X1209419Y43103D01*
X1209345Y43136D01*
X1209269Y43166D01*
X1209193Y43192D01*
X1209114Y43214D01*
X1209035Y43233D01*
X1208956Y43247D01*
X1208875Y43258D01*
X1208794Y43265D01*
X1208713Y43268D01*
X1208632Y43267D01*
X1208551Y43262D01*
X1208470Y43253D01*
X1208390Y43240D01*
X1208311Y43224D01*
X1208232Y43204D01*
X1208155Y43179D01*
X1208079Y43152D01*
X1208004Y43120D01*
X1207931Y43085D01*
X1207859Y43046D01*
X1207790Y43004D01*
X1207723Y42959D01*
X1207658Y42911D01*
X1207595Y42859D01*
X1207535Y42805D01*
X1207477Y42747D01*
X1207423Y42687D01*
X1207371Y42624D01*
X1207323Y42559D01*
X1207278Y42492D01*
X1207236Y42423D01*
X1207197Y42351D01*
X1207162Y42278D01*
X1207130Y42203D01*
X1207103Y42127D01*
X1207078Y42050D01*
X1207058Y41971D01*
X1207042Y41892D01*
X1207029Y41812D01*
X1207020Y41731D01*
X1207015Y41650D01*
X1207014Y41569D01*
X1207017Y41488D01*
X1207024Y41407D01*
X1207035Y41326D01*
X1207049Y41247D01*
X1207068Y41168D01*
X1207090Y41089D01*
X1207116Y41013D01*
X1207146Y40937D01*
X1207179Y40863D01*
X1207216Y40791D01*
X1207256Y40720D01*
X1207300Y40652D01*
X1207347Y40586D01*
X1207397Y40522D01*
X1207450Y40461D01*
X1207506Y40402D01*
X1209032Y38875D01*
X1212086Y41928D01*
X1212136Y41981D01*
X1212183Y42037D01*
X1212228Y42094D01*
X1212270Y42154D01*
X1212308Y42216D01*
X1212343Y42280D01*
X1212376Y42345D01*
X1212404Y42412D01*
X1212430Y42481D01*
X1212451Y42550D01*
X1212470Y42621D01*
X1212484Y42692D01*
X1212495Y42764D01*
X1212503Y42837D01*
X1212507Y42910D01*
X1212507Y42982D01*
X1212503Y43055D01*
X1212495Y43128D01*
X1212484Y43200D01*
X1212470Y43271D01*
X1212451Y43342D01*
X1212430Y43411D01*
X1212404Y43480D01*
X1212376Y43547D01*
X1212343Y43612D01*
X1212308Y43676D01*
X1212270Y43738D01*
X1212228Y43798D01*
X1212183Y43855D01*
X1212136Y43911D01*
X1212085Y43964D01*
X1212086Y43964D02*
X1210729Y45321D01*
X1218555Y41565D02*
X1212449Y35458D01*
X1214145Y33762D01*
X1214200Y33711D01*
X1214257Y33662D01*
X1214317Y33616D01*
X1214379Y33573D01*
X1214443Y33534D01*
X1214510Y33498D01*
X1214578Y33465D01*
X1214647Y33437D01*
X1214718Y33411D01*
X1214791Y33390D01*
X1214864Y33372D01*
X1214938Y33359D01*
X1215013Y33349D01*
X1215088Y33343D01*
X1215163Y33341D01*
X1215238Y33343D01*
X1215313Y33349D01*
X1215388Y33359D01*
X1215462Y33372D01*
X1215535Y33390D01*
X1215608Y33411D01*
X1215679Y33437D01*
X1215748Y33465D01*
X1215816Y33498D01*
X1215882Y33534D01*
X1215947Y33573D01*
X1216009Y33616D01*
X1216069Y33662D01*
X1216126Y33711D01*
X1216180Y33762D01*
X1218216Y35798D01*
X1218216Y35797D02*
X1218266Y35850D01*
X1218313Y35906D01*
X1218358Y35963D01*
X1218400Y36023D01*
X1218438Y36085D01*
X1218473Y36149D01*
X1218506Y36214D01*
X1218534Y36281D01*
X1218560Y36350D01*
X1218581Y36419D01*
X1218600Y36490D01*
X1218614Y36561D01*
X1218625Y36633D01*
X1218633Y36706D01*
X1218637Y36779D01*
X1218637Y36851D01*
X1218633Y36924D01*
X1218625Y36997D01*
X1218614Y37069D01*
X1218600Y37140D01*
X1218581Y37211D01*
X1218560Y37280D01*
X1218534Y37349D01*
X1218506Y37416D01*
X1218473Y37481D01*
X1218438Y37545D01*
X1218400Y37607D01*
X1218358Y37667D01*
X1218313Y37724D01*
X1218266Y37780D01*
X1218216Y37833D01*
X1216520Y39530D01*
X1224138Y35982D02*
X1219049Y30893D01*
X1218998Y30838D01*
X1218949Y30781D01*
X1218903Y30721D01*
X1218860Y30659D01*
X1218821Y30595D01*
X1218785Y30528D01*
X1218752Y30460D01*
X1218724Y30391D01*
X1218698Y30320D01*
X1218677Y30247D01*
X1218659Y30174D01*
X1218646Y30100D01*
X1218636Y30025D01*
X1218630Y29950D01*
X1218628Y29875D01*
X1218630Y29800D01*
X1218636Y29725D01*
X1218646Y29650D01*
X1218659Y29576D01*
X1218677Y29503D01*
X1218698Y29430D01*
X1218724Y29359D01*
X1218752Y29290D01*
X1218785Y29222D01*
X1218821Y29156D01*
X1218860Y29091D01*
X1218903Y29029D01*
X1218949Y28969D01*
X1218998Y28912D01*
X1219049Y28857D01*
X1222471Y25437D02*
X1224167Y23740D01*
X1222470Y25436D02*
X1222420Y25489D01*
X1222373Y25545D01*
X1222328Y25602D01*
X1222286Y25662D01*
X1222248Y25724D01*
X1222213Y25788D01*
X1222180Y25853D01*
X1222152Y25920D01*
X1222126Y25989D01*
X1222105Y26058D01*
X1222086Y26129D01*
X1222072Y26200D01*
X1222061Y26272D01*
X1222053Y26345D01*
X1222049Y26418D01*
X1222049Y26490D01*
X1222053Y26563D01*
X1222061Y26636D01*
X1222072Y26708D01*
X1222086Y26779D01*
X1222105Y26850D01*
X1222126Y26919D01*
X1222152Y26988D01*
X1222180Y27055D01*
X1222213Y27120D01*
X1222248Y27184D01*
X1222286Y27246D01*
X1222328Y27306D01*
X1222373Y27363D01*
X1222420Y27419D01*
X1222470Y27472D01*
X1222471Y27472D02*
X1224167Y29168D01*
X1224230Y29228D01*
X1224296Y29286D01*
X1224364Y29340D01*
X1224435Y29391D01*
X1224508Y29439D01*
X1224583Y29484D01*
X1224661Y29525D01*
X1224739Y29562D01*
X1224820Y29596D01*
X1224902Y29626D01*
X1224985Y29653D01*
X1225070Y29675D01*
X1225155Y29694D01*
X1225241Y29709D01*
X1225328Y29720D01*
X1225415Y29727D01*
X1225502Y29730D01*
X1225590Y29729D01*
X1225677Y29724D01*
X1225764Y29715D01*
X1225850Y29702D01*
X1225936Y29685D01*
X1226021Y29665D01*
X1226105Y29640D01*
X1226187Y29612D01*
X1226268Y29580D01*
X1226348Y29544D01*
X1226426Y29505D01*
X1226502Y29462D01*
X1226576Y29416D01*
X1226648Y29366D01*
X1226718Y29313D01*
X1226785Y29257D01*
X1226850Y29198D01*
X1226911Y29137D01*
X1226970Y29072D01*
X1227026Y29005D01*
X1227079Y28935D01*
X1227129Y28863D01*
X1227175Y28789D01*
X1227218Y28713D01*
X1227257Y28635D01*
X1227293Y28555D01*
X1227325Y28474D01*
X1227353Y28392D01*
X1227378Y28308D01*
X1227398Y28223D01*
X1227415Y28137D01*
X1227428Y28051D01*
X1227437Y27964D01*
X1227442Y27877D01*
X1227443Y27789D01*
X1227440Y27702D01*
X1227433Y27615D01*
X1227422Y27528D01*
X1227407Y27442D01*
X1227388Y27357D01*
X1227366Y27272D01*
X1227339Y27189D01*
X1227309Y27107D01*
X1227275Y27027D01*
X1227238Y26948D01*
X1227197Y26870D01*
X1227152Y26795D01*
X1227104Y26722D01*
X1227053Y26651D01*
X1226999Y26583D01*
X1226941Y26517D01*
X1226881Y26454D01*
X1226202Y25776D01*
X1223488Y28490D01*
X1230720Y17187D02*
X1236827Y23293D01*
X1234791Y21258D02*
X1236488Y19561D01*
X1236488Y19562D02*
X1236539Y19507D01*
X1236588Y19450D01*
X1236634Y19390D01*
X1236677Y19328D01*
X1236716Y19264D01*
X1236752Y19197D01*
X1236785Y19129D01*
X1236813Y19060D01*
X1236839Y18989D01*
X1236860Y18916D01*
X1236878Y18843D01*
X1236891Y18769D01*
X1236901Y18694D01*
X1236907Y18619D01*
X1236909Y18544D01*
X1236907Y18469D01*
X1236901Y18394D01*
X1236891Y18319D01*
X1236878Y18245D01*
X1236860Y18172D01*
X1236839Y18099D01*
X1236813Y18028D01*
X1236785Y17959D01*
X1236752Y17891D01*
X1236716Y17825D01*
X1236677Y17760D01*
X1236634Y17698D01*
X1236588Y17638D01*
X1236539Y17581D01*
X1236488Y17527D01*
X1236488Y17526D02*
X1233434Y14473D01*
X1237557Y10350D02*
X1239253Y8653D01*
X1237557Y10349D02*
X1237507Y10402D01*
X1237460Y10458D01*
X1237415Y10515D01*
X1237373Y10575D01*
X1237335Y10637D01*
X1237300Y10701D01*
X1237267Y10766D01*
X1237239Y10833D01*
X1237213Y10902D01*
X1237192Y10971D01*
X1237173Y11042D01*
X1237159Y11113D01*
X1237148Y11185D01*
X1237140Y11258D01*
X1237136Y11331D01*
X1237136Y11403D01*
X1237140Y11476D01*
X1237148Y11549D01*
X1237159Y11621D01*
X1237173Y11692D01*
X1237192Y11763D01*
X1237213Y11832D01*
X1237239Y11901D01*
X1237267Y11968D01*
X1237300Y12033D01*
X1237335Y12097D01*
X1237373Y12159D01*
X1237415Y12219D01*
X1237460Y12276D01*
X1237507Y12332D01*
X1237557Y12385D01*
X1239253Y14081D01*
X1239316Y14141D01*
X1239382Y14199D01*
X1239450Y14253D01*
X1239521Y14304D01*
X1239594Y14352D01*
X1239669Y14397D01*
X1239747Y14438D01*
X1239825Y14475D01*
X1239906Y14509D01*
X1239988Y14539D01*
X1240071Y14566D01*
X1240156Y14588D01*
X1240241Y14607D01*
X1240327Y14622D01*
X1240414Y14633D01*
X1240501Y14640D01*
X1240588Y14643D01*
X1240676Y14642D01*
X1240763Y14637D01*
X1240850Y14628D01*
X1240936Y14615D01*
X1241022Y14598D01*
X1241107Y14578D01*
X1241191Y14553D01*
X1241273Y14525D01*
X1241354Y14493D01*
X1241434Y14457D01*
X1241512Y14418D01*
X1241588Y14375D01*
X1241662Y14329D01*
X1241734Y14279D01*
X1241804Y14226D01*
X1241871Y14170D01*
X1241936Y14111D01*
X1241997Y14050D01*
X1242056Y13985D01*
X1242112Y13918D01*
X1242165Y13848D01*
X1242215Y13776D01*
X1242261Y13702D01*
X1242304Y13626D01*
X1242343Y13548D01*
X1242379Y13468D01*
X1242411Y13387D01*
X1242439Y13305D01*
X1242464Y13221D01*
X1242484Y13136D01*
X1242501Y13050D01*
X1242514Y12964D01*
X1242523Y12877D01*
X1242528Y12790D01*
X1242529Y12702D01*
X1242526Y12615D01*
X1242519Y12528D01*
X1242508Y12441D01*
X1242493Y12355D01*
X1242474Y12270D01*
X1242452Y12185D01*
X1242425Y12102D01*
X1242395Y12020D01*
X1242361Y11939D01*
X1242324Y11861D01*
X1242283Y11783D01*
X1242238Y11708D01*
X1242190Y11635D01*
X1242139Y11564D01*
X1242085Y11496D01*
X1242027Y11430D01*
X1241967Y11367D01*
X1241289Y10689D01*
X1238575Y13403D01*
X1242413Y5494D02*
X1246484Y9565D01*
X1248519Y7530D01*
X1247841Y6851D01*
X1247687Y220D02*
X1249383Y-1476D01*
X1247686Y220D02*
X1247636Y273D01*
X1247589Y329D01*
X1247544Y386D01*
X1247502Y446D01*
X1247464Y508D01*
X1247429Y572D01*
X1247396Y637D01*
X1247368Y704D01*
X1247342Y773D01*
X1247321Y842D01*
X1247302Y913D01*
X1247288Y984D01*
X1247277Y1056D01*
X1247269Y1129D01*
X1247265Y1202D01*
X1247265Y1274D01*
X1247269Y1347D01*
X1247277Y1420D01*
X1247288Y1492D01*
X1247302Y1563D01*
X1247321Y1634D01*
X1247342Y1703D01*
X1247368Y1772D01*
X1247396Y1839D01*
X1247429Y1904D01*
X1247464Y1968D01*
X1247502Y2030D01*
X1247544Y2090D01*
X1247589Y2147D01*
X1247636Y2203D01*
X1247687Y2256D01*
X1247687Y2255D02*
X1249383Y3952D01*
X1249446Y4012D01*
X1249512Y4070D01*
X1249580Y4124D01*
X1249651Y4175D01*
X1249724Y4223D01*
X1249799Y4268D01*
X1249877Y4309D01*
X1249955Y4346D01*
X1250036Y4380D01*
X1250118Y4410D01*
X1250201Y4437D01*
X1250286Y4459D01*
X1250371Y4478D01*
X1250457Y4493D01*
X1250544Y4504D01*
X1250631Y4511D01*
X1250718Y4514D01*
X1250806Y4513D01*
X1250893Y4508D01*
X1250980Y4499D01*
X1251066Y4486D01*
X1251152Y4469D01*
X1251237Y4449D01*
X1251321Y4424D01*
X1251403Y4396D01*
X1251484Y4364D01*
X1251564Y4328D01*
X1251642Y4289D01*
X1251718Y4246D01*
X1251792Y4200D01*
X1251864Y4150D01*
X1251934Y4097D01*
X1252001Y4041D01*
X1252066Y3982D01*
X1252127Y3921D01*
X1252186Y3856D01*
X1252242Y3789D01*
X1252295Y3719D01*
X1252345Y3647D01*
X1252391Y3573D01*
X1252434Y3497D01*
X1252473Y3419D01*
X1252509Y3339D01*
X1252541Y3258D01*
X1252569Y3176D01*
X1252594Y3092D01*
X1252614Y3007D01*
X1252631Y2921D01*
X1252644Y2835D01*
X1252653Y2748D01*
X1252658Y2661D01*
X1252659Y2573D01*
X1252656Y2486D01*
X1252649Y2399D01*
X1252638Y2312D01*
X1252623Y2226D01*
X1252604Y2141D01*
X1252582Y2056D01*
X1252555Y1973D01*
X1252525Y1891D01*
X1252491Y1810D01*
X1252454Y1732D01*
X1252413Y1654D01*
X1252368Y1579D01*
X1252320Y1506D01*
X1252269Y1435D01*
X1252215Y1367D01*
X1252157Y1301D01*
X1252097Y1238D01*
X1251419Y559D01*
X1248705Y3273D01*
X1272701Y-2171D02*
X1281700Y-11170D01*
X1265630Y4900D02*
X1256631Y13899D01*
X1249560Y20970D02*
X1240561Y29969D01*
X1233490Y37040D02*
X1224490Y46040D01*
X1217419Y53111D02*
X1208420Y62110D01*
X1201349Y69181D02*
X1192350Y78180D01*
X1185279Y85251D02*
X1176280Y94250D01*
D11*
X105517Y112522D02*
X100945Y112522D01*
X103231Y110236D02*
X103231Y114808D01*
X109129Y109855D02*
X111034Y109855D01*
X111119Y109857D01*
X111205Y109863D01*
X111290Y109872D01*
X111374Y109886D01*
X111458Y109903D01*
X111541Y109924D01*
X111623Y109948D01*
X111703Y109976D01*
X111783Y110008D01*
X111861Y110044D01*
X111937Y110082D01*
X112011Y110125D01*
X112083Y110170D01*
X112154Y110219D01*
X112222Y110271D01*
X112287Y110325D01*
X112350Y110383D01*
X112411Y110444D01*
X112469Y110507D01*
X112523Y110572D01*
X112575Y110640D01*
X112624Y110711D01*
X112669Y110783D01*
X112712Y110857D01*
X112750Y110933D01*
X112786Y111011D01*
X112818Y111091D01*
X112846Y111171D01*
X112870Y111253D01*
X112891Y111336D01*
X112908Y111420D01*
X112922Y111504D01*
X112931Y111589D01*
X112937Y111675D01*
X112939Y111760D01*
X112937Y111845D01*
X112931Y111931D01*
X112922Y112016D01*
X112908Y112100D01*
X112891Y112184D01*
X112870Y112267D01*
X112846Y112349D01*
X112818Y112429D01*
X112786Y112509D01*
X112750Y112587D01*
X112712Y112663D01*
X112669Y112737D01*
X112624Y112809D01*
X112575Y112880D01*
X112523Y112948D01*
X112469Y113013D01*
X112411Y113076D01*
X112350Y113137D01*
X112287Y113195D01*
X112222Y113249D01*
X112154Y113301D01*
X112083Y113350D01*
X112011Y113395D01*
X111937Y113438D01*
X111861Y113476D01*
X111783Y113512D01*
X111703Y113544D01*
X111623Y113572D01*
X111541Y113596D01*
X111458Y113617D01*
X111374Y113634D01*
X111290Y113648D01*
X111205Y113657D01*
X111119Y113663D01*
X111034Y113665D01*
X111415Y116713D02*
X109129Y116713D01*
X111415Y116713D02*
X111492Y116711D01*
X111569Y116705D01*
X111646Y116695D01*
X111722Y116682D01*
X111797Y116664D01*
X111871Y116643D01*
X111944Y116618D01*
X112016Y116589D01*
X112086Y116557D01*
X112155Y116522D01*
X112221Y116482D01*
X112286Y116440D01*
X112348Y116394D01*
X112408Y116345D01*
X112465Y116294D01*
X112520Y116239D01*
X112571Y116182D01*
X112620Y116122D01*
X112666Y116060D01*
X112708Y115995D01*
X112748Y115929D01*
X112783Y115860D01*
X112815Y115790D01*
X112844Y115718D01*
X112869Y115645D01*
X112890Y115571D01*
X112908Y115496D01*
X112921Y115420D01*
X112931Y115343D01*
X112937Y115266D01*
X112939Y115189D01*
X112937Y115112D01*
X112931Y115035D01*
X112921Y114958D01*
X112908Y114882D01*
X112890Y114807D01*
X112869Y114733D01*
X112844Y114660D01*
X112815Y114588D01*
X112783Y114518D01*
X112748Y114449D01*
X112708Y114383D01*
X112666Y114318D01*
X112620Y114256D01*
X112571Y114196D01*
X112520Y114139D01*
X112465Y114084D01*
X112408Y114033D01*
X112348Y113984D01*
X112286Y113938D01*
X112221Y113896D01*
X112155Y113856D01*
X112086Y113821D01*
X112016Y113789D01*
X111944Y113760D01*
X111871Y113735D01*
X111797Y113714D01*
X111722Y113696D01*
X111646Y113683D01*
X111569Y113673D01*
X111492Y113667D01*
X111415Y113665D01*
X109891Y113665D01*
X116063Y116713D02*
X118349Y109855D01*
X120635Y116713D01*
X123759Y109855D02*
X125664Y109855D01*
X125749Y109857D01*
X125835Y109863D01*
X125920Y109872D01*
X126004Y109886D01*
X126088Y109903D01*
X126171Y109924D01*
X126253Y109948D01*
X126333Y109976D01*
X126413Y110008D01*
X126491Y110044D01*
X126567Y110082D01*
X126641Y110125D01*
X126713Y110170D01*
X126784Y110219D01*
X126852Y110271D01*
X126917Y110325D01*
X126980Y110383D01*
X127041Y110444D01*
X127099Y110507D01*
X127153Y110572D01*
X127205Y110640D01*
X127254Y110711D01*
X127299Y110783D01*
X127342Y110857D01*
X127380Y110933D01*
X127416Y111011D01*
X127448Y111091D01*
X127476Y111171D01*
X127500Y111253D01*
X127521Y111336D01*
X127538Y111420D01*
X127552Y111504D01*
X127561Y111589D01*
X127567Y111675D01*
X127569Y111760D01*
X127567Y111845D01*
X127561Y111931D01*
X127552Y112016D01*
X127538Y112100D01*
X127521Y112184D01*
X127500Y112267D01*
X127476Y112349D01*
X127448Y112429D01*
X127416Y112509D01*
X127380Y112587D01*
X127342Y112663D01*
X127299Y112737D01*
X127254Y112809D01*
X127205Y112880D01*
X127153Y112948D01*
X127099Y113013D01*
X127041Y113076D01*
X126980Y113137D01*
X126917Y113195D01*
X126852Y113249D01*
X126784Y113301D01*
X126713Y113350D01*
X126641Y113395D01*
X126567Y113438D01*
X126491Y113476D01*
X126413Y113512D01*
X126333Y113544D01*
X126253Y113572D01*
X126171Y113596D01*
X126088Y113617D01*
X126004Y113634D01*
X125920Y113648D01*
X125835Y113657D01*
X125749Y113663D01*
X125664Y113665D01*
X126045Y116713D02*
X123759Y116713D01*
X126045Y116713D02*
X126122Y116711D01*
X126199Y116705D01*
X126276Y116695D01*
X126352Y116682D01*
X126427Y116664D01*
X126501Y116643D01*
X126574Y116618D01*
X126646Y116589D01*
X126716Y116557D01*
X126785Y116522D01*
X126851Y116482D01*
X126916Y116440D01*
X126978Y116394D01*
X127038Y116345D01*
X127095Y116294D01*
X127150Y116239D01*
X127201Y116182D01*
X127250Y116122D01*
X127296Y116060D01*
X127338Y115995D01*
X127378Y115929D01*
X127413Y115860D01*
X127445Y115790D01*
X127474Y115718D01*
X127499Y115645D01*
X127520Y115571D01*
X127538Y115496D01*
X127551Y115420D01*
X127561Y115343D01*
X127567Y115266D01*
X127569Y115189D01*
X127567Y115112D01*
X127561Y115035D01*
X127551Y114958D01*
X127538Y114882D01*
X127520Y114807D01*
X127499Y114733D01*
X127474Y114660D01*
X127445Y114588D01*
X127413Y114518D01*
X127378Y114449D01*
X127338Y114383D01*
X127296Y114318D01*
X127250Y114256D01*
X127201Y114196D01*
X127150Y114139D01*
X127095Y114084D01*
X127038Y114033D01*
X126978Y113984D01*
X126916Y113938D01*
X126851Y113896D01*
X126785Y113856D01*
X126716Y113821D01*
X126646Y113789D01*
X126574Y113760D01*
X126501Y113735D01*
X126427Y113714D01*
X126352Y113696D01*
X126276Y113683D01*
X126199Y113673D01*
X126122Y113667D01*
X126045Y113665D01*
X124521Y113665D01*
X160887Y83945D02*
X167745Y83945D01*
X160887Y83945D02*
X160887Y85850D01*
X160889Y85935D01*
X160895Y86021D01*
X160904Y86106D01*
X160918Y86190D01*
X160935Y86274D01*
X160956Y86357D01*
X160980Y86439D01*
X161008Y86519D01*
X161040Y86599D01*
X161076Y86677D01*
X161114Y86753D01*
X161157Y86827D01*
X161202Y86899D01*
X161251Y86970D01*
X161303Y87038D01*
X161357Y87103D01*
X161415Y87166D01*
X161476Y87227D01*
X161539Y87285D01*
X161604Y87339D01*
X161672Y87391D01*
X161743Y87440D01*
X161815Y87485D01*
X161889Y87528D01*
X161965Y87566D01*
X162043Y87602D01*
X162123Y87634D01*
X162203Y87662D01*
X162285Y87686D01*
X162368Y87707D01*
X162452Y87724D01*
X162536Y87738D01*
X162621Y87747D01*
X162707Y87753D01*
X162792Y87755D01*
X162877Y87753D01*
X162963Y87747D01*
X163048Y87738D01*
X163132Y87724D01*
X163216Y87707D01*
X163299Y87686D01*
X163381Y87662D01*
X163461Y87634D01*
X163541Y87602D01*
X163619Y87566D01*
X163695Y87528D01*
X163769Y87485D01*
X163841Y87440D01*
X163912Y87391D01*
X163980Y87339D01*
X164045Y87285D01*
X164108Y87227D01*
X164169Y87166D01*
X164227Y87103D01*
X164281Y87038D01*
X164333Y86970D01*
X164382Y86899D01*
X164427Y86827D01*
X164470Y86753D01*
X164508Y86677D01*
X164544Y86599D01*
X164576Y86519D01*
X164604Y86439D01*
X164628Y86357D01*
X164649Y86274D01*
X164666Y86190D01*
X164680Y86106D01*
X164689Y86021D01*
X164695Y85935D01*
X164697Y85850D01*
X164697Y83945D01*
X164697Y86231D02*
X167745Y87755D01*
X167745Y91434D02*
X160887Y91434D01*
X167745Y95244D01*
X160887Y95244D01*
X167745Y98994D02*
X167745Y100899D01*
X167743Y100984D01*
X167737Y101070D01*
X167728Y101155D01*
X167714Y101239D01*
X167697Y101323D01*
X167676Y101406D01*
X167652Y101488D01*
X167624Y101568D01*
X167592Y101648D01*
X167556Y101726D01*
X167518Y101802D01*
X167475Y101876D01*
X167430Y101948D01*
X167381Y102019D01*
X167329Y102087D01*
X167275Y102152D01*
X167217Y102215D01*
X167156Y102276D01*
X167093Y102334D01*
X167028Y102388D01*
X166960Y102440D01*
X166889Y102489D01*
X166817Y102534D01*
X166743Y102577D01*
X166667Y102615D01*
X166589Y102651D01*
X166509Y102683D01*
X166429Y102711D01*
X166347Y102735D01*
X166264Y102756D01*
X166180Y102773D01*
X166096Y102787D01*
X166011Y102796D01*
X165925Y102802D01*
X165840Y102804D01*
X165755Y102802D01*
X165669Y102796D01*
X165584Y102787D01*
X165500Y102773D01*
X165416Y102756D01*
X165333Y102735D01*
X165251Y102711D01*
X165171Y102683D01*
X165091Y102651D01*
X165013Y102615D01*
X164937Y102577D01*
X164863Y102534D01*
X164791Y102489D01*
X164720Y102440D01*
X164652Y102388D01*
X164587Y102334D01*
X164524Y102276D01*
X164463Y102215D01*
X164405Y102152D01*
X164351Y102087D01*
X164299Y102019D01*
X164250Y101948D01*
X164205Y101876D01*
X164162Y101802D01*
X164124Y101726D01*
X164088Y101648D01*
X164056Y101568D01*
X164028Y101488D01*
X164004Y101406D01*
X163983Y101323D01*
X163966Y101239D01*
X163952Y101155D01*
X163943Y101070D01*
X163937Y100984D01*
X163935Y100899D01*
X160887Y101280D02*
X160887Y98994D01*
X160887Y101280D02*
X160889Y101357D01*
X160895Y101434D01*
X160905Y101511D01*
X160918Y101587D01*
X160936Y101662D01*
X160957Y101736D01*
X160982Y101809D01*
X161011Y101881D01*
X161043Y101951D01*
X161078Y102020D01*
X161118Y102086D01*
X161160Y102151D01*
X161206Y102213D01*
X161255Y102273D01*
X161306Y102330D01*
X161361Y102385D01*
X161418Y102436D01*
X161478Y102485D01*
X161540Y102531D01*
X161605Y102573D01*
X161671Y102613D01*
X161740Y102648D01*
X161810Y102680D01*
X161882Y102709D01*
X161955Y102734D01*
X162029Y102755D01*
X162104Y102773D01*
X162180Y102786D01*
X162257Y102796D01*
X162334Y102802D01*
X162411Y102804D01*
X162488Y102802D01*
X162565Y102796D01*
X162642Y102786D01*
X162718Y102773D01*
X162793Y102755D01*
X162867Y102734D01*
X162940Y102709D01*
X163012Y102680D01*
X163082Y102648D01*
X163151Y102613D01*
X163217Y102573D01*
X163282Y102531D01*
X163344Y102485D01*
X163404Y102436D01*
X163461Y102385D01*
X163516Y102330D01*
X163567Y102273D01*
X163616Y102213D01*
X163662Y102151D01*
X163704Y102086D01*
X163744Y102020D01*
X163779Y101951D01*
X163811Y101881D01*
X163840Y101809D01*
X163865Y101736D01*
X163886Y101662D01*
X163904Y101587D01*
X163917Y101511D01*
X163927Y101434D01*
X163933Y101357D01*
X163935Y101280D01*
X163935Y99756D01*
X160887Y43445D02*
X167745Y43445D01*
X160887Y43445D02*
X160887Y45350D01*
X160889Y45435D01*
X160895Y45521D01*
X160904Y45606D01*
X160918Y45690D01*
X160935Y45774D01*
X160956Y45857D01*
X160980Y45939D01*
X161008Y46019D01*
X161040Y46099D01*
X161076Y46177D01*
X161114Y46253D01*
X161157Y46327D01*
X161202Y46399D01*
X161251Y46470D01*
X161303Y46538D01*
X161357Y46603D01*
X161415Y46666D01*
X161476Y46727D01*
X161539Y46785D01*
X161604Y46839D01*
X161672Y46891D01*
X161743Y46940D01*
X161815Y46985D01*
X161889Y47028D01*
X161965Y47066D01*
X162043Y47102D01*
X162123Y47134D01*
X162203Y47162D01*
X162285Y47186D01*
X162368Y47207D01*
X162452Y47224D01*
X162536Y47238D01*
X162621Y47247D01*
X162707Y47253D01*
X162792Y47255D01*
X162877Y47253D01*
X162963Y47247D01*
X163048Y47238D01*
X163132Y47224D01*
X163216Y47207D01*
X163299Y47186D01*
X163381Y47162D01*
X163461Y47134D01*
X163541Y47102D01*
X163619Y47066D01*
X163695Y47028D01*
X163769Y46985D01*
X163841Y46940D01*
X163912Y46891D01*
X163980Y46839D01*
X164045Y46785D01*
X164108Y46727D01*
X164169Y46666D01*
X164227Y46603D01*
X164281Y46538D01*
X164333Y46470D01*
X164382Y46399D01*
X164427Y46327D01*
X164470Y46253D01*
X164508Y46177D01*
X164544Y46099D01*
X164576Y46019D01*
X164604Y45939D01*
X164628Y45857D01*
X164649Y45774D01*
X164666Y45690D01*
X164680Y45606D01*
X164689Y45521D01*
X164695Y45435D01*
X164697Y45350D01*
X164697Y43445D01*
X164697Y45731D02*
X167745Y47255D01*
X167745Y50934D02*
X160887Y50934D01*
X167745Y54744D01*
X160887Y54744D01*
X160887Y60589D02*
X160889Y60671D01*
X160895Y60752D01*
X160904Y60833D01*
X160918Y60914D01*
X160935Y60993D01*
X160956Y61072D01*
X160981Y61150D01*
X161010Y61226D01*
X161042Y61301D01*
X161078Y61375D01*
X161117Y61447D01*
X161159Y61516D01*
X161205Y61584D01*
X161254Y61649D01*
X161306Y61712D01*
X161361Y61772D01*
X161419Y61830D01*
X161479Y61885D01*
X161542Y61937D01*
X161607Y61986D01*
X161675Y62032D01*
X161745Y62074D01*
X161816Y62113D01*
X161890Y62149D01*
X161965Y62181D01*
X162041Y62210D01*
X162119Y62235D01*
X162198Y62256D01*
X162277Y62273D01*
X162358Y62287D01*
X162439Y62296D01*
X162520Y62302D01*
X162602Y62304D01*
X160887Y60589D02*
X160889Y60497D01*
X160895Y60405D01*
X160904Y60313D01*
X160918Y60221D01*
X160935Y60131D01*
X160956Y60041D01*
X160981Y59952D01*
X161010Y59864D01*
X161042Y59777D01*
X161078Y59692D01*
X161117Y59609D01*
X161160Y59527D01*
X161206Y59447D01*
X161256Y59369D01*
X161308Y59293D01*
X161364Y59220D01*
X161423Y59149D01*
X161485Y59080D01*
X161550Y59014D01*
X161617Y58951D01*
X161687Y58891D01*
X161759Y58833D01*
X161834Y58779D01*
X161911Y58728D01*
X161990Y58680D01*
X162071Y58636D01*
X162154Y58595D01*
X162238Y58557D01*
X162324Y58523D01*
X162411Y58493D01*
X163936Y61732D02*
X163877Y61791D01*
X163816Y61847D01*
X163753Y61900D01*
X163687Y61951D01*
X163619Y61998D01*
X163549Y62042D01*
X163477Y62083D01*
X163403Y62121D01*
X163328Y62155D01*
X163251Y62186D01*
X163173Y62213D01*
X163093Y62237D01*
X163013Y62258D01*
X162932Y62274D01*
X162850Y62287D01*
X162768Y62297D01*
X162685Y62302D01*
X162602Y62304D01*
X163935Y61732D02*
X167745Y58494D01*
X167745Y62304D01*
X167745Y3945D02*
X160887Y3945D01*
X160887Y5850D01*
X160889Y5935D01*
X160895Y6021D01*
X160904Y6106D01*
X160918Y6190D01*
X160935Y6274D01*
X160956Y6357D01*
X160980Y6439D01*
X161008Y6519D01*
X161040Y6599D01*
X161076Y6677D01*
X161114Y6753D01*
X161157Y6827D01*
X161202Y6899D01*
X161251Y6970D01*
X161303Y7038D01*
X161357Y7103D01*
X161415Y7166D01*
X161476Y7227D01*
X161539Y7285D01*
X161604Y7339D01*
X161672Y7391D01*
X161743Y7440D01*
X161815Y7485D01*
X161889Y7528D01*
X161965Y7566D01*
X162043Y7602D01*
X162123Y7634D01*
X162203Y7662D01*
X162285Y7686D01*
X162368Y7707D01*
X162452Y7724D01*
X162536Y7738D01*
X162621Y7747D01*
X162707Y7753D01*
X162792Y7755D01*
X162877Y7753D01*
X162963Y7747D01*
X163048Y7738D01*
X163132Y7724D01*
X163216Y7707D01*
X163299Y7686D01*
X163381Y7662D01*
X163461Y7634D01*
X163541Y7602D01*
X163619Y7566D01*
X163695Y7528D01*
X163769Y7485D01*
X163841Y7440D01*
X163912Y7391D01*
X163980Y7339D01*
X164045Y7285D01*
X164108Y7227D01*
X164169Y7166D01*
X164227Y7103D01*
X164281Y7038D01*
X164333Y6970D01*
X164382Y6899D01*
X164427Y6827D01*
X164470Y6753D01*
X164508Y6677D01*
X164544Y6599D01*
X164576Y6519D01*
X164604Y6439D01*
X164628Y6357D01*
X164649Y6274D01*
X164666Y6190D01*
X164680Y6106D01*
X164689Y6021D01*
X164695Y5935D01*
X164697Y5850D01*
X164697Y3945D01*
X164697Y6231D02*
X167745Y7755D01*
X167745Y11434D02*
X160887Y11434D01*
X167745Y15244D01*
X160887Y15244D01*
X162411Y18994D02*
X160887Y20899D01*
X167745Y20899D01*
X167745Y18994D02*
X167745Y22804D01*
D10*
X1000Y15500D02*
X0Y16500D01*
X1000Y15500D02*
X4000Y15500D01*
X5000Y14500D01*
X5000Y11500D01*
X4000Y10500D01*
X1000Y10500D01*
X0Y9500D01*
X17000Y-26000D02*
X25500Y-34500D01*
D13*
X136000Y78500D02*
X151000Y78500D01*
X151000Y109500D02*
X136000Y109500D01*
X136000Y36500D02*
X151000Y36500D01*
X151000Y67500D02*
X136000Y67500D01*
X136000Y-5500D02*
X151000Y-5500D01*
X151000Y25500D02*
X136000Y25500D01*
D12*
X70310Y117396D02*
X62690Y117396D01*
X62690Y130604D02*
X70310Y130604D01*
D11*
X38993Y120835D02*
X37469Y120835D01*
X37392Y120837D01*
X37315Y120843D01*
X37238Y120853D01*
X37162Y120866D01*
X37087Y120884D01*
X37013Y120905D01*
X36940Y120930D01*
X36868Y120959D01*
X36798Y120991D01*
X36729Y121026D01*
X36663Y121066D01*
X36598Y121108D01*
X36536Y121154D01*
X36476Y121203D01*
X36419Y121254D01*
X36364Y121309D01*
X36313Y121366D01*
X36264Y121426D01*
X36218Y121488D01*
X36176Y121553D01*
X36136Y121619D01*
X36101Y121688D01*
X36069Y121758D01*
X36040Y121830D01*
X36015Y121903D01*
X35994Y121977D01*
X35976Y122052D01*
X35963Y122128D01*
X35953Y122205D01*
X35947Y122282D01*
X35945Y122359D01*
X35945Y126169D01*
X35947Y126246D01*
X35953Y126323D01*
X35963Y126400D01*
X35976Y126476D01*
X35994Y126551D01*
X36015Y126625D01*
X36040Y126698D01*
X36069Y126770D01*
X36101Y126840D01*
X36136Y126909D01*
X36176Y126975D01*
X36218Y127040D01*
X36264Y127102D01*
X36313Y127162D01*
X36364Y127219D01*
X36419Y127274D01*
X36476Y127325D01*
X36536Y127374D01*
X36598Y127420D01*
X36663Y127462D01*
X36729Y127502D01*
X36798Y127537D01*
X36868Y127569D01*
X36940Y127598D01*
X37013Y127623D01*
X37087Y127644D01*
X37162Y127662D01*
X37238Y127675D01*
X37315Y127685D01*
X37392Y127691D01*
X37469Y127693D01*
X38993Y127693D01*
X42072Y120835D02*
X43977Y120835D01*
X44062Y120837D01*
X44148Y120843D01*
X44233Y120852D01*
X44317Y120866D01*
X44401Y120883D01*
X44484Y120904D01*
X44566Y120928D01*
X44646Y120956D01*
X44726Y120988D01*
X44804Y121024D01*
X44880Y121062D01*
X44954Y121105D01*
X45026Y121150D01*
X45097Y121199D01*
X45165Y121251D01*
X45230Y121305D01*
X45293Y121363D01*
X45354Y121424D01*
X45412Y121487D01*
X45466Y121552D01*
X45518Y121620D01*
X45567Y121691D01*
X45612Y121763D01*
X45655Y121837D01*
X45693Y121913D01*
X45729Y121991D01*
X45761Y122071D01*
X45789Y122151D01*
X45813Y122233D01*
X45834Y122316D01*
X45851Y122400D01*
X45865Y122484D01*
X45874Y122569D01*
X45880Y122655D01*
X45882Y122740D01*
X45880Y122825D01*
X45874Y122911D01*
X45865Y122996D01*
X45851Y123080D01*
X45834Y123164D01*
X45813Y123247D01*
X45789Y123329D01*
X45761Y123409D01*
X45729Y123489D01*
X45693Y123567D01*
X45655Y123643D01*
X45612Y123717D01*
X45567Y123789D01*
X45518Y123860D01*
X45466Y123928D01*
X45412Y123993D01*
X45354Y124056D01*
X45293Y124117D01*
X45230Y124175D01*
X45165Y124229D01*
X45097Y124281D01*
X45026Y124330D01*
X44954Y124375D01*
X44880Y124418D01*
X44804Y124456D01*
X44726Y124492D01*
X44646Y124524D01*
X44566Y124552D01*
X44484Y124576D01*
X44401Y124597D01*
X44317Y124614D01*
X44233Y124628D01*
X44148Y124637D01*
X44062Y124643D01*
X43977Y124645D01*
X44358Y127693D02*
X42072Y127693D01*
X44358Y127693D02*
X44435Y127691D01*
X44512Y127685D01*
X44589Y127675D01*
X44665Y127662D01*
X44740Y127644D01*
X44814Y127623D01*
X44887Y127598D01*
X44959Y127569D01*
X45029Y127537D01*
X45098Y127502D01*
X45164Y127462D01*
X45229Y127420D01*
X45291Y127374D01*
X45351Y127325D01*
X45408Y127274D01*
X45463Y127219D01*
X45514Y127162D01*
X45563Y127102D01*
X45609Y127040D01*
X45651Y126975D01*
X45691Y126909D01*
X45726Y126840D01*
X45758Y126770D01*
X45787Y126698D01*
X45812Y126625D01*
X45833Y126551D01*
X45851Y126476D01*
X45864Y126400D01*
X45874Y126323D01*
X45880Y126246D01*
X45882Y126169D01*
X45880Y126092D01*
X45874Y126015D01*
X45864Y125938D01*
X45851Y125862D01*
X45833Y125787D01*
X45812Y125713D01*
X45787Y125640D01*
X45758Y125568D01*
X45726Y125498D01*
X45691Y125429D01*
X45651Y125363D01*
X45609Y125298D01*
X45563Y125236D01*
X45514Y125176D01*
X45463Y125119D01*
X45408Y125064D01*
X45351Y125013D01*
X45291Y124964D01*
X45229Y124918D01*
X45164Y124876D01*
X45098Y124836D01*
X45029Y124801D01*
X44959Y124769D01*
X44887Y124740D01*
X44814Y124715D01*
X44740Y124694D01*
X44665Y124676D01*
X44589Y124663D01*
X44512Y124653D01*
X44435Y124647D01*
X44358Y124645D01*
X42834Y124645D01*
D12*
X63825Y97531D02*
X70175Y97531D01*
X70175Y105469D02*
X63825Y105469D01*
D11*
X86809Y98485D02*
X88333Y98485D01*
X86809Y98485D02*
X86732Y98487D01*
X86655Y98493D01*
X86578Y98503D01*
X86502Y98516D01*
X86427Y98534D01*
X86353Y98555D01*
X86280Y98580D01*
X86208Y98609D01*
X86138Y98641D01*
X86069Y98676D01*
X86003Y98716D01*
X85938Y98758D01*
X85876Y98804D01*
X85816Y98853D01*
X85759Y98904D01*
X85704Y98959D01*
X85653Y99016D01*
X85604Y99076D01*
X85558Y99138D01*
X85516Y99203D01*
X85476Y99269D01*
X85441Y99338D01*
X85409Y99408D01*
X85380Y99480D01*
X85355Y99553D01*
X85334Y99627D01*
X85316Y99702D01*
X85303Y99778D01*
X85293Y99855D01*
X85287Y99932D01*
X85285Y100009D01*
X85285Y103819D01*
X85287Y103896D01*
X85293Y103973D01*
X85303Y104050D01*
X85316Y104126D01*
X85334Y104201D01*
X85355Y104275D01*
X85380Y104348D01*
X85409Y104420D01*
X85441Y104490D01*
X85476Y104559D01*
X85516Y104625D01*
X85558Y104690D01*
X85604Y104752D01*
X85653Y104812D01*
X85704Y104869D01*
X85759Y104924D01*
X85816Y104975D01*
X85876Y105024D01*
X85938Y105070D01*
X86003Y105112D01*
X86069Y105152D01*
X86138Y105187D01*
X86208Y105219D01*
X86280Y105248D01*
X86353Y105273D01*
X86427Y105294D01*
X86502Y105312D01*
X86578Y105325D01*
X86655Y105335D01*
X86732Y105341D01*
X86809Y105343D01*
X88333Y105343D01*
X91412Y103819D02*
X93317Y105343D01*
X93317Y98485D01*
X91412Y98485D02*
X95222Y98485D01*
D12*
X48672Y83646D02*
X48672Y20354D01*
X94328Y20354D01*
X94328Y83646D01*
X48672Y83646D01*
D14*
X50958Y81360D02*
X50958Y22640D01*
X92042Y22640D01*
X92042Y81360D01*
X50958Y81360D01*
D12*
X54736Y74756D02*
X54738Y74891D01*
X54744Y75026D01*
X54754Y75160D01*
X54768Y75294D01*
X54786Y75428D01*
X54807Y75561D01*
X54833Y75693D01*
X54863Y75825D01*
X54896Y75956D01*
X54933Y76085D01*
X54975Y76214D01*
X55019Y76341D01*
X55068Y76467D01*
X55120Y76591D01*
X55176Y76714D01*
X55236Y76835D01*
X55299Y76954D01*
X55365Y77071D01*
X55435Y77186D01*
X55509Y77300D01*
X55586Y77411D01*
X55665Y77519D01*
X55749Y77625D01*
X55835Y77729D01*
X55924Y77830D01*
X56016Y77929D01*
X56111Y78024D01*
X56209Y78117D01*
X56309Y78207D01*
X56412Y78294D01*
X56518Y78378D01*
X56626Y78459D01*
X56736Y78536D01*
X56849Y78610D01*
X56964Y78681D01*
X57081Y78749D01*
X57199Y78813D01*
X57320Y78873D01*
X57442Y78930D01*
X57566Y78983D01*
X57692Y79033D01*
X57818Y79079D01*
X57947Y79121D01*
X58076Y79159D01*
X58206Y79193D01*
X58338Y79224D01*
X58470Y79251D01*
X58603Y79273D01*
X58736Y79292D01*
X58870Y79307D01*
X59005Y79318D01*
X59139Y79325D01*
X59274Y79328D01*
X59409Y79327D01*
X59544Y79322D01*
X59678Y79313D01*
X59813Y79300D01*
X59947Y79283D01*
X60080Y79262D01*
X60212Y79238D01*
X60344Y79209D01*
X60475Y79177D01*
X60605Y79140D01*
X60734Y79100D01*
X60861Y79056D01*
X60987Y79008D01*
X61112Y78957D01*
X61235Y78902D01*
X61357Y78843D01*
X61476Y78781D01*
X61594Y78715D01*
X61710Y78646D01*
X61823Y78574D01*
X61935Y78498D01*
X62044Y78419D01*
X62151Y78337D01*
X62255Y78251D01*
X62357Y78163D01*
X62456Y78071D01*
X62553Y77977D01*
X62646Y77880D01*
X62737Y77780D01*
X62825Y77678D01*
X62909Y77573D01*
X62991Y77465D01*
X63069Y77355D01*
X63144Y77243D01*
X63216Y77129D01*
X63284Y77013D01*
X63349Y76894D01*
X63410Y76774D01*
X63468Y76652D01*
X63522Y76529D01*
X63573Y76404D01*
X63619Y76277D01*
X63662Y76150D01*
X63702Y76021D01*
X63737Y75890D01*
X63769Y75759D01*
X63796Y75627D01*
X63820Y75495D01*
X63840Y75361D01*
X63856Y75227D01*
X63868Y75093D01*
X63876Y74958D01*
X63880Y74823D01*
X63880Y74689D01*
X63876Y74554D01*
X63868Y74419D01*
X63856Y74285D01*
X63840Y74151D01*
X63820Y74017D01*
X63796Y73885D01*
X63769Y73753D01*
X63737Y73622D01*
X63702Y73491D01*
X63662Y73362D01*
X63619Y73235D01*
X63573Y73108D01*
X63522Y72983D01*
X63468Y72860D01*
X63410Y72738D01*
X63349Y72618D01*
X63284Y72499D01*
X63216Y72383D01*
X63144Y72269D01*
X63069Y72157D01*
X62991Y72047D01*
X62909Y71939D01*
X62825Y71834D01*
X62737Y71732D01*
X62646Y71632D01*
X62553Y71535D01*
X62456Y71441D01*
X62357Y71349D01*
X62255Y71261D01*
X62151Y71175D01*
X62044Y71093D01*
X61935Y71014D01*
X61823Y70938D01*
X61710Y70866D01*
X61594Y70797D01*
X61476Y70731D01*
X61357Y70669D01*
X61235Y70610D01*
X61112Y70555D01*
X60987Y70504D01*
X60861Y70456D01*
X60734Y70412D01*
X60605Y70372D01*
X60475Y70335D01*
X60344Y70303D01*
X60212Y70274D01*
X60080Y70250D01*
X59947Y70229D01*
X59813Y70212D01*
X59678Y70199D01*
X59544Y70190D01*
X59409Y70185D01*
X59274Y70184D01*
X59139Y70187D01*
X59005Y70194D01*
X58870Y70205D01*
X58736Y70220D01*
X58603Y70239D01*
X58470Y70261D01*
X58338Y70288D01*
X58206Y70319D01*
X58076Y70353D01*
X57947Y70391D01*
X57818Y70433D01*
X57692Y70479D01*
X57566Y70529D01*
X57442Y70582D01*
X57320Y70639D01*
X57199Y70699D01*
X57081Y70763D01*
X56964Y70831D01*
X56849Y70902D01*
X56736Y70976D01*
X56626Y71053D01*
X56518Y71134D01*
X56412Y71218D01*
X56309Y71305D01*
X56209Y71395D01*
X56111Y71488D01*
X56016Y71583D01*
X55924Y71682D01*
X55835Y71783D01*
X55749Y71887D01*
X55665Y71993D01*
X55586Y72101D01*
X55509Y72212D01*
X55435Y72326D01*
X55365Y72441D01*
X55299Y72558D01*
X55236Y72677D01*
X55176Y72798D01*
X55120Y72921D01*
X55068Y73045D01*
X55019Y73171D01*
X54975Y73298D01*
X54933Y73427D01*
X54896Y73556D01*
X54863Y73687D01*
X54833Y73819D01*
X54807Y73951D01*
X54786Y74084D01*
X54768Y74218D01*
X54754Y74352D01*
X54744Y74486D01*
X54738Y74621D01*
X54736Y74756D01*
D11*
X41307Y89496D02*
X41307Y94449D01*
X41307Y89496D02*
X41309Y89411D01*
X41315Y89325D01*
X41324Y89240D01*
X41338Y89156D01*
X41355Y89072D01*
X41376Y88989D01*
X41400Y88907D01*
X41428Y88827D01*
X41460Y88747D01*
X41496Y88669D01*
X41534Y88593D01*
X41577Y88519D01*
X41622Y88447D01*
X41671Y88376D01*
X41723Y88308D01*
X41777Y88243D01*
X41835Y88180D01*
X41896Y88119D01*
X41959Y88061D01*
X42024Y88007D01*
X42092Y87955D01*
X42163Y87906D01*
X42235Y87861D01*
X42309Y87818D01*
X42385Y87780D01*
X42463Y87744D01*
X42543Y87712D01*
X42623Y87684D01*
X42705Y87660D01*
X42788Y87639D01*
X42872Y87622D01*
X42956Y87608D01*
X43041Y87599D01*
X43127Y87593D01*
X43212Y87591D01*
X43297Y87593D01*
X43383Y87599D01*
X43468Y87608D01*
X43552Y87622D01*
X43636Y87639D01*
X43719Y87660D01*
X43801Y87684D01*
X43881Y87712D01*
X43961Y87744D01*
X44039Y87780D01*
X44115Y87818D01*
X44189Y87861D01*
X44261Y87906D01*
X44332Y87955D01*
X44400Y88007D01*
X44465Y88061D01*
X44528Y88119D01*
X44589Y88180D01*
X44647Y88243D01*
X44701Y88308D01*
X44753Y88376D01*
X44802Y88447D01*
X44847Y88519D01*
X44890Y88593D01*
X44928Y88669D01*
X44964Y88747D01*
X44996Y88827D01*
X45024Y88907D01*
X45048Y88989D01*
X45069Y89072D01*
X45086Y89156D01*
X45100Y89240D01*
X45109Y89325D01*
X45115Y89411D01*
X45117Y89496D01*
X45117Y94449D01*
X48866Y92925D02*
X50771Y94449D01*
X50771Y87591D01*
X48866Y87591D02*
X52676Y87591D01*
D15*
X59250Y9000D02*
X71250Y9000D01*
X71250Y-10500D02*
X59250Y-10500D01*
D16*
X62710Y4965D03*
D11*
X39485Y9990D02*
X39485Y14943D01*
X39485Y9990D02*
X39487Y9905D01*
X39493Y9819D01*
X39502Y9734D01*
X39516Y9650D01*
X39533Y9566D01*
X39554Y9483D01*
X39578Y9401D01*
X39606Y9321D01*
X39638Y9241D01*
X39674Y9163D01*
X39712Y9087D01*
X39755Y9013D01*
X39800Y8941D01*
X39849Y8870D01*
X39901Y8802D01*
X39955Y8737D01*
X40013Y8674D01*
X40074Y8613D01*
X40137Y8555D01*
X40202Y8501D01*
X40270Y8449D01*
X40341Y8400D01*
X40413Y8355D01*
X40487Y8312D01*
X40563Y8274D01*
X40641Y8238D01*
X40721Y8206D01*
X40801Y8178D01*
X40883Y8154D01*
X40966Y8133D01*
X41050Y8116D01*
X41134Y8102D01*
X41219Y8093D01*
X41305Y8087D01*
X41390Y8085D01*
X41475Y8087D01*
X41561Y8093D01*
X41646Y8102D01*
X41730Y8116D01*
X41814Y8133D01*
X41897Y8154D01*
X41979Y8178D01*
X42059Y8206D01*
X42139Y8238D01*
X42217Y8274D01*
X42293Y8312D01*
X42367Y8355D01*
X42439Y8400D01*
X42510Y8449D01*
X42578Y8501D01*
X42643Y8555D01*
X42706Y8613D01*
X42767Y8674D01*
X42825Y8737D01*
X42879Y8802D01*
X42931Y8870D01*
X42980Y8941D01*
X43025Y9013D01*
X43068Y9087D01*
X43106Y9163D01*
X43142Y9241D01*
X43174Y9321D01*
X43202Y9401D01*
X43226Y9483D01*
X43247Y9566D01*
X43264Y9650D01*
X43278Y9734D01*
X43287Y9819D01*
X43293Y9905D01*
X43295Y9990D01*
X43295Y14943D01*
X49140Y14944D02*
X49222Y14942D01*
X49303Y14936D01*
X49384Y14927D01*
X49465Y14913D01*
X49544Y14896D01*
X49623Y14875D01*
X49701Y14850D01*
X49777Y14821D01*
X49852Y14789D01*
X49926Y14753D01*
X49998Y14714D01*
X50067Y14672D01*
X50135Y14626D01*
X50200Y14577D01*
X50263Y14525D01*
X50323Y14470D01*
X50381Y14412D01*
X50436Y14352D01*
X50488Y14289D01*
X50537Y14224D01*
X50583Y14156D01*
X50625Y14087D01*
X50664Y14015D01*
X50700Y13941D01*
X50732Y13866D01*
X50761Y13790D01*
X50786Y13712D01*
X50807Y13633D01*
X50824Y13554D01*
X50838Y13473D01*
X50847Y13392D01*
X50853Y13311D01*
X50855Y13229D01*
X49140Y14943D02*
X49048Y14941D01*
X48956Y14935D01*
X48864Y14926D01*
X48772Y14912D01*
X48682Y14895D01*
X48592Y14874D01*
X48503Y14849D01*
X48415Y14820D01*
X48328Y14788D01*
X48243Y14752D01*
X48160Y14713D01*
X48078Y14670D01*
X47998Y14624D01*
X47920Y14574D01*
X47844Y14522D01*
X47771Y14466D01*
X47700Y14407D01*
X47631Y14345D01*
X47565Y14280D01*
X47502Y14213D01*
X47442Y14143D01*
X47384Y14071D01*
X47330Y13996D01*
X47279Y13919D01*
X47231Y13840D01*
X47187Y13759D01*
X47146Y13676D01*
X47108Y13592D01*
X47074Y13506D01*
X47044Y13419D01*
X50283Y11895D02*
X50342Y11954D01*
X50398Y12015D01*
X50451Y12078D01*
X50502Y12144D01*
X50549Y12212D01*
X50593Y12282D01*
X50634Y12354D01*
X50672Y12428D01*
X50706Y12503D01*
X50737Y12580D01*
X50764Y12658D01*
X50788Y12738D01*
X50809Y12818D01*
X50825Y12899D01*
X50838Y12981D01*
X50848Y13063D01*
X50853Y13146D01*
X50855Y13229D01*
X50283Y11895D02*
X47044Y8085D01*
X50854Y8085D01*
D12*
X96325Y9469D02*
X102675Y9469D01*
X102675Y1531D02*
X96325Y1531D01*
D11*
X113309Y17985D02*
X114833Y17985D01*
X113309Y17985D02*
X113232Y17987D01*
X113155Y17993D01*
X113078Y18003D01*
X113002Y18016D01*
X112927Y18034D01*
X112853Y18055D01*
X112780Y18080D01*
X112708Y18109D01*
X112638Y18141D01*
X112569Y18176D01*
X112503Y18216D01*
X112438Y18258D01*
X112376Y18304D01*
X112316Y18353D01*
X112259Y18404D01*
X112204Y18459D01*
X112153Y18516D01*
X112104Y18576D01*
X112058Y18638D01*
X112016Y18703D01*
X111976Y18769D01*
X111941Y18838D01*
X111909Y18908D01*
X111880Y18980D01*
X111855Y19053D01*
X111834Y19127D01*
X111816Y19202D01*
X111803Y19278D01*
X111793Y19355D01*
X111787Y19432D01*
X111785Y19509D01*
X111785Y23319D01*
X111787Y23396D01*
X111793Y23473D01*
X111803Y23550D01*
X111816Y23626D01*
X111834Y23701D01*
X111855Y23775D01*
X111880Y23848D01*
X111909Y23920D01*
X111941Y23990D01*
X111976Y24059D01*
X112016Y24125D01*
X112058Y24190D01*
X112104Y24252D01*
X112153Y24312D01*
X112204Y24369D01*
X112259Y24424D01*
X112316Y24475D01*
X112376Y24524D01*
X112438Y24570D01*
X112503Y24612D01*
X112569Y24652D01*
X112638Y24687D01*
X112708Y24719D01*
X112780Y24748D01*
X112853Y24773D01*
X112927Y24794D01*
X113002Y24812D01*
X113078Y24825D01*
X113155Y24835D01*
X113232Y24841D01*
X113309Y24843D01*
X114833Y24843D01*
X120008Y24844D02*
X120090Y24842D01*
X120171Y24836D01*
X120252Y24827D01*
X120333Y24813D01*
X120412Y24796D01*
X120491Y24775D01*
X120569Y24750D01*
X120645Y24721D01*
X120720Y24689D01*
X120794Y24653D01*
X120866Y24614D01*
X120935Y24572D01*
X121003Y24526D01*
X121068Y24477D01*
X121131Y24425D01*
X121191Y24370D01*
X121249Y24312D01*
X121304Y24252D01*
X121356Y24189D01*
X121405Y24124D01*
X121451Y24056D01*
X121493Y23987D01*
X121532Y23915D01*
X121568Y23841D01*
X121600Y23766D01*
X121629Y23690D01*
X121654Y23612D01*
X121675Y23533D01*
X121692Y23454D01*
X121706Y23373D01*
X121715Y23292D01*
X121721Y23211D01*
X121723Y23129D01*
X120008Y24843D02*
X119916Y24841D01*
X119824Y24835D01*
X119732Y24826D01*
X119640Y24812D01*
X119550Y24795D01*
X119460Y24774D01*
X119371Y24749D01*
X119283Y24720D01*
X119196Y24688D01*
X119111Y24652D01*
X119028Y24613D01*
X118946Y24570D01*
X118866Y24524D01*
X118788Y24474D01*
X118712Y24422D01*
X118639Y24366D01*
X118568Y24307D01*
X118499Y24245D01*
X118433Y24180D01*
X118370Y24113D01*
X118310Y24043D01*
X118252Y23971D01*
X118198Y23896D01*
X118147Y23819D01*
X118099Y23740D01*
X118055Y23659D01*
X118014Y23576D01*
X117976Y23492D01*
X117942Y23406D01*
X117912Y23319D01*
X121151Y21795D02*
X121210Y21854D01*
X121266Y21915D01*
X121319Y21978D01*
X121370Y22044D01*
X121417Y22112D01*
X121461Y22182D01*
X121502Y22254D01*
X121540Y22328D01*
X121574Y22403D01*
X121605Y22480D01*
X121632Y22558D01*
X121656Y22638D01*
X121677Y22718D01*
X121693Y22799D01*
X121706Y22881D01*
X121716Y22963D01*
X121721Y23046D01*
X121723Y23129D01*
X121151Y21795D02*
X117912Y17985D01*
X121722Y17985D01*
M02*
