G04 EAGLE Gerber X2 export*
%TF.Part,Single*%
%TF.FileFunction,Other,bottom copper*%
%TF.FilePolarity,Positive*%
%TF.GenerationSoftware,Autodesk,EAGLE,9.6.2*%
%TF.CreationDate,2022-07-13T20:40:15Z*%
G75*
%MOMM*%
%FSLAX34Y34*%
%LPD*%
%INbottom copper*%
%AMOC8*
5,1,8,0,0,1.08239X$1,22.5*%
G01*
%ADD10C,0.000000*%
%ADD11R,1.350000X0.450000*%
%ADD12R,1.600000X0.800000*%
%ADD13R,2.540000X1.270000*%
%ADD14C,0.454000*%
%ADD15C,0.254000*%
%ADD16C,0.935000*%
%ADD17C,1.020000*%
%ADD18C,0.203200*%
%ADD19C,0.304800*%
%ADD20C,0.127000*%
%ADD21C,0.680000*%
%ADD22C,0.850000*%
%ADD23C,0.152400*%
%ADD24C,0.406400*%
%ADD25C,0.609600*%
%ADD26C,1.016000*%

G36*
X1617115Y75870D02*
X1617115Y75870D01*
X1617232Y75870D01*
X1617315Y75887D01*
X1617400Y75894D01*
X1617512Y75927D01*
X1617627Y75951D01*
X1617720Y75988D01*
X1617786Y76007D01*
X1617846Y76039D01*
X1617934Y76074D01*
X1636904Y85559D01*
X1636933Y85577D01*
X1636963Y85590D01*
X1637102Y85684D01*
X1637245Y85774D01*
X1637269Y85797D01*
X1637296Y85816D01*
X1637415Y85936D01*
X1637536Y86052D01*
X1637555Y86079D01*
X1637579Y86103D01*
X1637671Y86244D01*
X1637767Y86382D01*
X1637781Y86412D01*
X1637799Y86440D01*
X1637861Y86596D01*
X1637929Y86751D01*
X1637936Y86783D01*
X1637948Y86814D01*
X1637978Y86979D01*
X1638014Y87144D01*
X1638014Y87177D01*
X1638020Y87210D01*
X1638018Y87378D01*
X1638020Y87547D01*
X1638014Y87579D01*
X1638013Y87613D01*
X1637977Y87777D01*
X1637947Y87942D01*
X1637934Y87973D01*
X1637927Y88006D01*
X1637859Y88160D01*
X1637797Y88316D01*
X1637778Y88344D01*
X1637765Y88374D01*
X1637668Y88512D01*
X1637576Y88653D01*
X1637552Y88676D01*
X1637533Y88704D01*
X1637411Y88819D01*
X1637293Y88939D01*
X1637266Y88958D01*
X1637241Y88981D01*
X1636963Y89162D01*
X1636959Y89164D01*
X1617993Y99438D01*
X1617818Y99511D01*
X1617641Y99587D01*
X1617631Y99589D01*
X1617622Y99593D01*
X1617436Y99631D01*
X1617247Y99671D01*
X1617237Y99671D01*
X1617227Y99673D01*
X1617036Y99673D01*
X1616844Y99675D01*
X1616835Y99673D01*
X1616825Y99673D01*
X1616637Y99635D01*
X1616449Y99599D01*
X1616440Y99595D01*
X1616430Y99593D01*
X1616255Y99520D01*
X1616076Y99447D01*
X1616068Y99441D01*
X1616059Y99438D01*
X1615901Y99331D01*
X1615741Y99224D01*
X1615734Y99217D01*
X1615726Y99212D01*
X1615591Y99075D01*
X1615456Y98940D01*
X1615450Y98932D01*
X1615443Y98925D01*
X1615338Y98763D01*
X1615232Y98605D01*
X1615229Y98596D01*
X1615223Y98588D01*
X1615152Y98408D01*
X1615080Y98232D01*
X1615078Y98223D01*
X1615074Y98214D01*
X1615040Y98025D01*
X1615003Y97837D01*
X1615003Y97826D01*
X1615002Y97818D01*
X1615003Y97762D01*
X1615000Y97505D01*
X1615421Y91679D01*
X1614996Y77954D01*
X1615004Y77837D01*
X1615002Y77720D01*
X1615017Y77637D01*
X1615023Y77552D01*
X1615054Y77439D01*
X1615075Y77325D01*
X1615107Y77246D01*
X1615129Y77164D01*
X1615182Y77059D01*
X1615225Y76951D01*
X1615272Y76880D01*
X1615310Y76804D01*
X1615382Y76712D01*
X1615446Y76614D01*
X1615506Y76554D01*
X1615558Y76487D01*
X1615647Y76411D01*
X1615729Y76328D01*
X1615799Y76280D01*
X1615864Y76225D01*
X1615966Y76168D01*
X1616063Y76103D01*
X1616141Y76070D01*
X1616215Y76029D01*
X1616327Y75993D01*
X1616434Y75948D01*
X1616518Y75931D01*
X1616599Y75905D01*
X1616715Y75892D01*
X1616829Y75869D01*
X1616914Y75869D01*
X1616999Y75860D01*
X1617115Y75870D01*
G37*
D10*
X0Y-23000D02*
X3000Y-26000D01*
X17000Y-26000D01*
X39750Y136500D02*
X252500Y136500D01*
X39750Y136500D02*
X23750Y120500D01*
X7000Y120500D01*
X0Y113500D01*
X0Y107500D01*
X0Y94000D02*
X0Y75000D01*
X1000Y74000D01*
X4000Y74000D01*
X5000Y73000D01*
X5000Y70000D02*
X4000Y69000D01*
X1000Y69000D01*
X0Y68000D01*
X5000Y70000D02*
X5000Y73000D01*
X0Y68000D02*
X0Y42500D01*
X1000Y41500D01*
X4000Y41500D01*
X5000Y40500D01*
X5000Y37500D02*
X4000Y36500D01*
X1000Y36500D01*
X0Y35500D01*
X5000Y37500D02*
X5000Y40500D01*
X0Y-16500D02*
X0Y-23000D01*
X0Y-3000D02*
X0Y9500D01*
X0Y16500D02*
X0Y35500D01*
X0Y-3000D02*
X1000Y-4000D01*
X4000Y-4000D02*
X5000Y-5000D01*
X4000Y-4000D02*
X1000Y-4000D01*
X5000Y-5000D02*
X5000Y-14500D01*
X4000Y-15500D01*
X1000Y-15500D01*
X0Y-16500D01*
X1000Y106500D02*
X0Y107500D01*
X1000Y106500D02*
X4000Y106500D01*
X5000Y105500D01*
X5000Y96000D01*
X4000Y95000D01*
X1000Y95000D01*
X0Y94000D01*
X252500Y136500D02*
X294500Y94500D01*
X1582410Y94500D01*
X1621410Y133500D01*
X1644810Y133500D01*
X1648800Y129500D01*
X1648800Y-70000D01*
X1645300Y-73500D01*
X1509800Y-74000D01*
X1448300Y-12500D01*
X390500Y-12000D01*
X368000Y-34500D01*
X25500Y-34500D01*
X1000Y15500D02*
X0Y16500D01*
X1000Y15500D02*
X4000Y15500D01*
X5000Y14500D01*
X5000Y11500D01*
X4000Y10500D01*
X1000Y10500D01*
X0Y9500D01*
X17000Y-26000D02*
X25500Y-34500D01*
D11*
X2000Y91000D03*
X2000Y84500D03*
X2000Y78000D03*
X2000Y65000D03*
X2000Y58500D03*
X2000Y52000D03*
X2000Y45500D03*
X2000Y32500D03*
X2000Y26000D03*
X2000Y19500D03*
X2000Y6500D03*
X2000Y0D03*
X2000Y-19500D03*
X2000Y110500D03*
D12*
X1641990Y38110D03*
X1641990Y-63490D03*
X1641990Y-50790D03*
X1641990Y-38090D03*
X1641990Y-25390D03*
X1641990Y-12690D03*
X1641990Y10D03*
X1641990Y12710D03*
X1641990Y25410D03*
D13*
X1636910Y87640D03*
X1636910Y119390D03*
D12*
X1641990Y50810D03*
X1641990Y63510D03*
D14*
X6500Y0D03*
X0Y0D03*
D15*
X2000Y0D02*
X13500Y0D01*
D14*
X0Y65000D03*
X6500Y65000D03*
X0Y110500D03*
X6500Y110500D03*
X0Y6500D03*
D16*
X44516Y-22388D03*
D14*
X0Y-19500D03*
X6500Y-19500D03*
X6500Y6500D03*
X6500Y32500D03*
X0Y32500D03*
D17*
X1649442Y87376D03*
X1636742Y87376D03*
D18*
X195143Y63626D02*
X195143Y63626D01*
X186742Y60146D01*
X186742Y60146D01*
X184782Y58186D01*
X184782Y58186D01*
X179300Y52704D01*
X179300Y52704D01*
X177904Y51309D01*
X177904Y51309D01*
X174155Y44815D01*
X174155Y44815D01*
X172594Y38990D01*
X171061Y37456D01*
X170084Y35098D01*
X170084Y32546D01*
X171061Y30188D01*
X172866Y28383D01*
X175224Y27406D01*
X177776Y27406D01*
X180134Y28383D01*
X181939Y30188D01*
X182916Y32546D01*
X182916Y35098D01*
X181939Y37456D01*
X181383Y38013D01*
X182301Y41440D01*
X184900Y45941D01*
X186616Y47898D01*
X189588Y50870D01*
X191753Y52646D01*
X196902Y54780D01*
X199689Y55054D01*
X1579076Y55054D01*
X1578695Y54800D01*
X1577624Y53729D01*
X1576782Y52469D01*
X1576203Y51069D01*
X1575907Y49584D01*
X1575907Y49185D01*
X1583239Y49185D01*
X1583239Y48467D01*
X1575907Y48467D01*
X1575907Y48068D01*
X1576203Y46583D01*
X1576782Y45183D01*
X1577624Y43923D01*
X1577944Y43604D01*
X1574405Y45647D01*
X1572858Y47003D01*
X1571637Y48224D01*
X1571603Y48259D01*
X1571575Y48286D01*
X1571575Y48286D01*
X1570553Y49308D01*
X1570553Y49308D01*
X1564975Y52529D01*
X1564975Y52529D01*
X1558753Y54196D01*
X216023Y54196D01*
X208473Y52173D01*
X208473Y52173D01*
X201703Y48265D01*
X200195Y46756D01*
X200195Y46756D01*
X181654Y28215D01*
X181654Y28215D01*
X180145Y26707D01*
X180145Y26707D01*
X180145Y26707D01*
X176237Y19937D01*
X176237Y19937D01*
X174214Y12387D01*
X174214Y2288D01*
X173061Y1134D01*
X172084Y-1224D01*
X172084Y-3776D01*
X173061Y-6134D01*
X174866Y-7939D01*
X177224Y-8916D01*
X179776Y-8916D01*
X182134Y-7939D01*
X183939Y-6134D01*
X184916Y-3776D01*
X184916Y-1224D01*
X183939Y1134D01*
X182786Y2288D01*
X182786Y8479D01*
X182967Y11235D01*
X184393Y16559D01*
X187149Y21332D01*
X188970Y23409D01*
X205001Y39440D01*
X207078Y41261D01*
X207078Y41261D01*
X211851Y44017D01*
X217175Y45443D01*
X219931Y45624D01*
X1555532Y45624D01*
X1557606Y45488D01*
X1561614Y44414D01*
X1562610Y43839D01*
X1562289Y43775D01*
X1560889Y43196D01*
X1559629Y42354D01*
X1558558Y41283D01*
X1557716Y40023D01*
X1557137Y38623D01*
X1556841Y37138D01*
X1556841Y36739D01*
X1564173Y36739D01*
X1564173Y36021D01*
X1556841Y36021D01*
X1556841Y35622D01*
X1556961Y35021D01*
X1555981Y35880D01*
X1551575Y40286D01*
X1551575Y40286D01*
X1549966Y41895D01*
X1549966Y41895D01*
X1542480Y44996D01*
X229664Y44996D01*
X229390Y45202D01*
X227930Y44996D01*
X226456Y44996D01*
X226213Y44754D01*
X224412Y44499D01*
X218425Y41954D01*
X218425Y41954D01*
X213302Y37946D01*
X213302Y37946D01*
X211400Y35420D01*
X200723Y22416D01*
X199724Y22416D01*
X197366Y21439D01*
X195561Y19634D01*
X194584Y17276D01*
X194584Y14724D01*
X195561Y12366D01*
X197366Y10561D01*
X199724Y9584D01*
X202276Y9584D01*
X204634Y10561D01*
X206439Y12366D01*
X207416Y14724D01*
X207416Y17060D01*
X217023Y28760D01*
X217127Y28775D01*
X218140Y30121D01*
X218303Y30319D01*
X219571Y31793D01*
X222889Y34387D01*
X226764Y36035D01*
X228628Y36424D01*
X1538429Y36424D01*
X1540730Y36197D01*
X1544982Y34436D01*
X1545274Y34197D01*
X1545264Y34197D01*
X1543779Y33901D01*
X1542379Y33322D01*
X1541119Y32480D01*
X1540048Y31409D01*
X1539206Y30149D01*
X1538627Y28749D01*
X1538331Y27264D01*
X1538331Y26865D01*
X1545663Y26865D01*
X1545663Y26147D01*
X1538331Y26147D01*
X1538331Y25748D01*
X1538385Y25476D01*
X1535005Y28856D01*
X1535005Y28856D01*
X1533497Y30365D01*
X1533497Y30365D01*
X1526727Y34273D01*
X1526727Y34273D01*
X1519177Y36296D01*
X246123Y36296D01*
X238573Y34273D01*
X238573Y34273D01*
X231803Y30365D01*
X231803Y30365D01*
X230295Y28856D01*
X230295Y28856D01*
X227889Y26450D01*
X227785Y26346D01*
X227785Y26346D01*
X217855Y16416D01*
X216224Y16416D01*
X213866Y15439D01*
X212061Y13634D01*
X211084Y11276D01*
X211084Y8724D01*
X212061Y6366D01*
X213866Y4561D01*
X216224Y3584D01*
X218776Y3584D01*
X221134Y4561D01*
X222939Y6366D01*
X223916Y8724D01*
X223916Y10355D01*
X233846Y20285D01*
X233846Y20285D01*
X233950Y20389D01*
X235101Y21540D01*
X237178Y23361D01*
X241951Y26117D01*
X247275Y27543D01*
X250031Y27724D01*
X250897Y27724D01*
X246793Y25355D01*
X246793Y25355D01*
X245285Y23846D01*
X245285Y23846D01*
X242879Y21440D01*
X242775Y21336D01*
X242775Y21336D01*
X237855Y16416D01*
X236224Y16416D01*
X233866Y15439D01*
X232061Y13634D01*
X231084Y11276D01*
X231084Y8724D01*
X232061Y6366D01*
X233866Y4561D01*
X236224Y3584D01*
X238776Y3584D01*
X241134Y4561D01*
X242939Y6366D01*
X243916Y8724D01*
X243916Y10355D01*
X248836Y15275D01*
X248836Y15275D01*
X248940Y15379D01*
X250091Y16530D01*
X252168Y18351D01*
X256941Y21107D01*
X262265Y22533D01*
X265021Y22714D01*
X265880Y22714D01*
X261793Y20355D01*
X261793Y20355D01*
X260285Y18846D01*
X260285Y18846D01*
X257879Y16440D01*
X257855Y16416D01*
X256224Y16416D01*
X253866Y15439D01*
X252061Y13634D01*
X251084Y11276D01*
X251084Y8724D01*
X252061Y6366D01*
X253866Y4561D01*
X256224Y3584D01*
X258776Y3584D01*
X261134Y4561D01*
X262939Y6366D01*
X263916Y8724D01*
X263916Y10355D01*
X263940Y10379D01*
X265091Y11530D01*
X267168Y13351D01*
X271941Y16107D01*
X277265Y17533D01*
X280021Y17714D01*
X280660Y17714D01*
X278412Y16416D01*
X276224Y16416D01*
X273866Y15439D01*
X272061Y13634D01*
X271084Y11276D01*
X271084Y8724D01*
X272061Y6366D01*
X273866Y4561D01*
X276224Y3584D01*
X278776Y3584D01*
X281134Y4561D01*
X282939Y6366D01*
X283916Y8724D01*
X283916Y9502D01*
X286894Y11221D01*
X291839Y12546D01*
X294399Y12714D01*
X1494279Y12714D01*
X1497602Y12496D01*
X1504022Y10776D01*
X1509778Y7453D01*
X1512281Y5257D01*
X1537265Y-19726D01*
X1537281Y-19743D01*
X1539775Y-22236D01*
X1539775Y-22236D01*
X1541283Y-23745D01*
X1541283Y-23745D01*
X1548053Y-27653D01*
X1548053Y-27653D01*
X1555603Y-29676D01*
X1624011Y-29676D01*
X1624011Y-33804D01*
X1536211Y-33804D01*
X1533455Y-33623D01*
X1528131Y-32197D01*
X1523358Y-29441D01*
X1521281Y-27620D01*
X1520043Y-26381D01*
X1520026Y-26365D01*
X1492088Y1574D01*
X1492088Y1574D01*
X1490175Y3486D01*
X1490175Y3486D01*
X1482415Y7967D01*
X1482415Y7967D01*
X1473759Y10286D01*
X356113Y10286D01*
X348563Y8263D01*
X348563Y8263D01*
X341793Y4355D01*
X341793Y4355D01*
X340285Y2846D01*
X340285Y2846D01*
X337878Y439D01*
X337775Y336D01*
X325855Y-11584D01*
X324224Y-11584D01*
X321866Y-12561D01*
X320061Y-14366D01*
X319084Y-16724D01*
X319084Y-19276D01*
X320061Y-21634D01*
X321866Y-23439D01*
X324224Y-24416D01*
X326776Y-24416D01*
X329134Y-23439D01*
X330939Y-21634D01*
X331916Y-19276D01*
X331916Y-17645D01*
X343836Y-5725D01*
X343939Y-5622D01*
X345091Y-4470D01*
X347168Y-2649D01*
X351941Y107D01*
X357265Y1533D01*
X360021Y1714D01*
X360880Y1714D01*
X356793Y-645D01*
X356793Y-645D01*
X355285Y-2154D01*
X355285Y-2154D01*
X352878Y-4561D01*
X352775Y-4664D01*
X352775Y-4664D01*
X345855Y-11584D01*
X344224Y-11584D01*
X341866Y-12561D01*
X340061Y-14366D01*
X339084Y-16724D01*
X339084Y-19276D01*
X340061Y-21634D01*
X341866Y-23439D01*
X344224Y-24416D01*
X346776Y-24416D01*
X349134Y-23439D01*
X350939Y-21634D01*
X351916Y-19276D01*
X351916Y-17645D01*
X358836Y-10725D01*
X358836Y-10725D01*
X358940Y-10622D01*
X360091Y-9470D01*
X362168Y-7649D01*
X366941Y-4893D01*
X372265Y-3467D01*
X375021Y-3286D01*
X375880Y-3286D01*
X371793Y-5645D01*
X371793Y-5645D01*
X370285Y-7154D01*
X370285Y-7154D01*
X367878Y-9561D01*
X367775Y-9664D01*
X365855Y-11584D01*
X364224Y-11584D01*
X361866Y-12561D01*
X360061Y-14366D01*
X359084Y-16724D01*
X359084Y-19276D01*
X360061Y-21634D01*
X361866Y-23439D01*
X364224Y-24416D01*
X366776Y-24416D01*
X369134Y-23439D01*
X370939Y-21634D01*
X371916Y-19276D01*
X371916Y-17645D01*
X373836Y-15725D01*
X373939Y-15622D01*
X375091Y-14470D01*
X377168Y-12649D01*
X381941Y-9893D01*
X387265Y-8467D01*
X390021Y-8286D01*
X1455279Y-8286D01*
X1458602Y-8504D01*
X1465022Y-10224D01*
X1470778Y-13547D01*
X1473281Y-15743D01*
X1490272Y-32733D01*
X1489768Y-32633D01*
X1489369Y-32633D01*
X1489369Y-39965D01*
X1488651Y-39965D01*
X1488651Y-32633D01*
X1488252Y-32633D01*
X1486767Y-32929D01*
X1485367Y-33508D01*
X1484107Y-34350D01*
X1483036Y-35421D01*
X1482194Y-36681D01*
X1481615Y-38081D01*
X1481319Y-39566D01*
X1481319Y-39965D01*
X1488651Y-39965D01*
X1488651Y-40683D01*
X1481319Y-40683D01*
X1481319Y-41082D01*
X1481362Y-41297D01*
X1450451Y-10386D01*
X1449551Y-9485D01*
X1449550Y-9485D01*
X1449549Y-9484D01*
X1448295Y-9484D01*
X391750Y-8985D01*
X391749Y-8984D01*
X390508Y-8984D01*
X389252Y-8983D01*
X389252Y-8984D01*
X389251Y-8984D01*
X388385Y-9850D01*
X387485Y-10749D01*
X387485Y-10750D01*
X366751Y-31484D01*
X26749Y-31484D01*
X18249Y-22984D01*
X11520Y-22984D01*
X11560Y-22914D01*
X11766Y-22147D01*
X11766Y-20271D01*
X11786Y-20196D01*
X11786Y-19500D01*
X6500Y-19500D01*
X6500Y-19500D01*
X11786Y-19500D01*
X11786Y-18804D01*
X11766Y-18729D01*
X11766Y-16853D01*
X11578Y-16151D01*
X13884Y-16151D01*
X14851Y-15184D01*
X14851Y-4286D01*
X15275Y-4286D01*
X17786Y-1775D01*
X17786Y1775D01*
X15275Y4286D01*
X11766Y4286D01*
X11766Y5729D01*
X11786Y5804D01*
X11786Y6500D01*
X6500Y6500D01*
X6500Y6500D01*
X11786Y6500D01*
X11786Y7196D01*
X11766Y7271D01*
X11766Y9147D01*
X11578Y9849D01*
X13884Y9849D01*
X14851Y10816D01*
X14851Y15214D01*
X15175Y15214D01*
X17686Y17725D01*
X17686Y21275D01*
X16261Y22700D01*
X17786Y24225D01*
X17786Y27775D01*
X15275Y30286D01*
X11766Y30286D01*
X11766Y31729D01*
X11786Y31804D01*
X11786Y32500D01*
X6500Y32500D01*
X6500Y32500D01*
X11786Y32500D01*
X11786Y33196D01*
X11766Y33271D01*
X11766Y35147D01*
X11578Y35849D01*
X13884Y35849D01*
X14851Y36816D01*
X14851Y41214D01*
X15375Y41214D01*
X17886Y43725D01*
X17886Y47275D01*
X16311Y48850D01*
X17686Y50225D01*
X17686Y53775D01*
X16261Y55200D01*
X17786Y56725D01*
X17786Y60275D01*
X15275Y62786D01*
X11766Y62786D01*
X11766Y64229D01*
X11786Y64304D01*
X11786Y65000D01*
X6500Y65000D01*
X6500Y65000D01*
X11786Y65000D01*
X11786Y65696D01*
X11766Y65771D01*
X11766Y67647D01*
X11578Y68349D01*
X13884Y68349D01*
X14851Y69316D01*
X14851Y73714D01*
X15275Y73714D01*
X17786Y76225D01*
X17786Y79775D01*
X16261Y81300D01*
X17686Y82725D01*
X17686Y86275D01*
X16211Y87750D01*
X17686Y89225D01*
X17686Y92775D01*
X15175Y95286D01*
X14851Y95286D01*
X14851Y105804D01*
X13884Y106771D01*
X11536Y106771D01*
X11766Y107001D01*
X11766Y109729D01*
X11786Y109804D01*
X11786Y110500D01*
X11766Y110500D01*
X11766Y110500D01*
X11786Y110500D01*
X11786Y111196D01*
X11766Y111271D01*
X11766Y113999D01*
X9999Y115766D01*
X7271Y115766D01*
X7196Y115786D01*
X6551Y115786D01*
X8249Y117484D01*
X24999Y117484D01*
X26766Y119251D01*
X40999Y133484D01*
X148237Y133484D01*
X146594Y132803D01*
X144317Y130526D01*
X143084Y127550D01*
X143084Y124330D01*
X144317Y121354D01*
X146594Y119077D01*
X149570Y117844D01*
X178190Y117844D01*
X181166Y119077D01*
X181965Y119876D01*
X240559Y119876D01*
X243083Y119711D01*
X247959Y118404D01*
X252330Y115880D01*
X254232Y114213D01*
X282237Y86208D01*
X282237Y86208D01*
X284013Y84432D01*
X286942Y81503D01*
X286942Y81503D01*
X294116Y77360D01*
X294116Y77360D01*
X302119Y75216D01*
X1573871Y75216D01*
X1581874Y77360D01*
X1581874Y77360D01*
X1589048Y81503D01*
X1589048Y81503D01*
X1591977Y84432D01*
X1593753Y86208D01*
X1593753Y86208D01*
X1613432Y105887D01*
X1613432Y105887D01*
X1615208Y107663D01*
X1617110Y109330D01*
X1621259Y111726D01*
X1622961Y110024D01*
X1625781Y110024D01*
X1625781Y109806D01*
X1626748Y108839D01*
X1645784Y108839D01*
X1645784Y97006D01*
X1637926Y97006D01*
X1637926Y95415D01*
X1637541Y95492D01*
X1637226Y95492D01*
X1637226Y88656D01*
X1636258Y88656D01*
X1636258Y95492D01*
X1635943Y95492D01*
X1635894Y95482D01*
X1635894Y97006D01*
X1626080Y97006D01*
X1626561Y98169D01*
X1626857Y99654D01*
X1626857Y100053D01*
X1619525Y100053D01*
X1619525Y100771D01*
X1626857Y100771D01*
X1626857Y101170D01*
X1626561Y102655D01*
X1625982Y104055D01*
X1625140Y105315D01*
X1624069Y106386D01*
X1622809Y107228D01*
X1621409Y107807D01*
X1619924Y108103D01*
X1619525Y108103D01*
X1619525Y100771D01*
X1618807Y100771D01*
X1618807Y108103D01*
X1618408Y108103D01*
X1616923Y107807D01*
X1615523Y107228D01*
X1614263Y106386D01*
X1613192Y105315D01*
X1612350Y104055D01*
X1611771Y102655D01*
X1611475Y101170D01*
X1611475Y100771D01*
X1618807Y100771D01*
X1618807Y100053D01*
X1611475Y100053D01*
X1611475Y99654D01*
X1611771Y98169D01*
X1612350Y96769D01*
X1613192Y95509D01*
X1614263Y94438D01*
X1615523Y93596D01*
X1616923Y93017D01*
X1618408Y92721D01*
X1618807Y92721D01*
X1618807Y100053D01*
X1619525Y100053D01*
X1619525Y92721D01*
X1619924Y92721D01*
X1621194Y92974D01*
X1621194Y88656D01*
X1628722Y88656D01*
X1628626Y88175D01*
X1628626Y87860D01*
X1635894Y87860D01*
X1635894Y86892D01*
X1628626Y86892D01*
X1628626Y86624D01*
X1621194Y86624D01*
X1621194Y80893D01*
X1621400Y80126D01*
X1621797Y79438D01*
X1622358Y78877D01*
X1623046Y78480D01*
X1623813Y78274D01*
X1635894Y78274D01*
X1635894Y79270D01*
X1635943Y79260D01*
X1636258Y79260D01*
X1636258Y86624D01*
X1637226Y86624D01*
X1637226Y79260D01*
X1637541Y79260D01*
X1637926Y79337D01*
X1637926Y78274D01*
X1645784Y78274D01*
X1645784Y72671D01*
X1645684Y72771D01*
X1624978Y72771D01*
X1624011Y71804D01*
X1624011Y68132D01*
X1618590Y68725D01*
X1612987Y70219D01*
X1612912Y70334D01*
X1611290Y70672D01*
X1609689Y71099D01*
X1609570Y71030D01*
X1600429Y72934D01*
X1600081Y73284D01*
X1598745Y73285D01*
X1597436Y73558D01*
X1597024Y73288D01*
X1592568Y73294D01*
X1592565Y73296D01*
X1590802Y73296D01*
X1589020Y73298D01*
X1589018Y73296D01*
X188837Y73296D01*
X188447Y73558D01*
X187114Y73296D01*
X185756Y73296D01*
X185424Y72964D01*
X182511Y72392D01*
X182511Y72392D01*
X176720Y69553D01*
X176730Y69567D01*
X177309Y70967D01*
X177605Y72452D01*
X177605Y72851D01*
X170273Y72851D01*
X170273Y73569D01*
X177605Y73569D01*
X177605Y73968D01*
X177309Y75453D01*
X176730Y76853D01*
X175888Y78113D01*
X174817Y79184D01*
X173557Y80026D01*
X172157Y80605D01*
X170672Y80901D01*
X170273Y80901D01*
X170273Y73569D01*
X169555Y73569D01*
X169555Y80901D01*
X169156Y80901D01*
X167671Y80605D01*
X166271Y80026D01*
X165011Y79184D01*
X163940Y78113D01*
X163098Y76853D01*
X162519Y75453D01*
X162223Y73968D01*
X162223Y73569D01*
X169555Y73569D01*
X169555Y72851D01*
X162223Y72851D01*
X162223Y72452D01*
X162519Y70967D01*
X163098Y69567D01*
X163940Y68307D01*
X165011Y67236D01*
X166271Y66394D01*
X167671Y65815D01*
X169156Y65519D01*
X169555Y65519D01*
X169555Y72851D01*
X170273Y72851D01*
X170273Y65519D01*
X170672Y65519D01*
X171449Y65674D01*
X168395Y63008D01*
X168395Y63008D01*
X168395Y63008D01*
X166245Y59806D01*
X166221Y59783D01*
X164214Y57775D01*
X164214Y57775D01*
X163322Y56884D01*
X163322Y56884D01*
X160286Y51624D01*
X160286Y51624D01*
X158714Y45758D01*
X158714Y44471D01*
X158696Y44452D01*
X158714Y42697D01*
X158714Y40946D01*
X158733Y40928D01*
X159164Y-262D01*
X158061Y-1366D01*
X157084Y-3724D01*
X157084Y-6276D01*
X158061Y-8634D01*
X159866Y-10439D01*
X162224Y-11416D01*
X164776Y-11416D01*
X167134Y-10439D01*
X168939Y-8634D01*
X169916Y-6276D01*
X169916Y-3724D01*
X168939Y-1366D01*
X167736Y-162D01*
X167286Y42725D01*
X167410Y44613D01*
X168389Y48268D01*
X170281Y51544D01*
X171530Y52969D01*
X171678Y53117D01*
X172139Y53207D01*
X172896Y54335D01*
X173856Y55295D01*
X173856Y55625D01*
X175037Y57156D01*
X179736Y61257D01*
X185337Y64003D01*
X188054Y64724D01*
X1590789Y64724D01*
X1597855Y64715D01*
X1598480Y64585D01*
X1598124Y64229D01*
X1597282Y62969D01*
X1596703Y61569D01*
X1596407Y60084D01*
X1596407Y59685D01*
X1603739Y59685D01*
X1603739Y58967D01*
X1596407Y58967D01*
X1596407Y58568D01*
X1596528Y57959D01*
X1596103Y58385D01*
X1596085Y58402D01*
X1595845Y58642D01*
X1595845Y58642D01*
X1594104Y60383D01*
X1594104Y60383D01*
X1586275Y63626D01*
X197914Y63626D01*
X195143Y63626D01*
X85003Y67259D02*
X85003Y74591D01*
X85003Y67259D02*
X84285Y67259D01*
X84285Y74591D01*
X83886Y74591D01*
X82401Y74295D01*
X81001Y73716D01*
X79741Y72874D01*
X78670Y71803D01*
X77828Y70543D01*
X77249Y69143D01*
X76953Y67658D01*
X76953Y67259D01*
X84285Y67259D01*
X84285Y66541D01*
X76953Y66541D01*
X76953Y66142D01*
X77249Y64657D01*
X77828Y63257D01*
X78670Y61997D01*
X79741Y60926D01*
X81001Y60084D01*
X82401Y59505D01*
X83886Y59209D01*
X84285Y59209D01*
X84285Y66541D01*
X85003Y66541D01*
X85003Y59209D01*
X85402Y59209D01*
X86887Y59505D01*
X88287Y60084D01*
X89547Y60926D01*
X90618Y61997D01*
X91460Y63257D01*
X92039Y64657D01*
X92335Y66142D01*
X92335Y66541D01*
X85003Y66541D01*
X85003Y67259D01*
X92335Y67259D01*
X92335Y67658D01*
X92039Y69143D01*
X91460Y70543D01*
X90618Y71803D01*
X89547Y72874D01*
X88287Y73716D01*
X86887Y74295D01*
X85402Y74591D01*
X85003Y74591D01*
X195877Y110471D02*
X195877Y117803D01*
X195877Y110471D02*
X195159Y110471D01*
X195159Y117803D01*
X194760Y117803D01*
X193275Y117507D01*
X191875Y116928D01*
X190615Y116086D01*
X189544Y115015D01*
X188702Y113755D01*
X188123Y112355D01*
X187827Y110870D01*
X187827Y110471D01*
X195159Y110471D01*
X195159Y109753D01*
X187827Y109753D01*
X187827Y109354D01*
X188123Y107869D01*
X188702Y106469D01*
X189544Y105209D01*
X190615Y104138D01*
X191875Y103296D01*
X193275Y102717D01*
X194760Y102421D01*
X195159Y102421D01*
X195159Y109753D01*
X195877Y109753D01*
X195877Y102421D01*
X196276Y102421D01*
X197761Y102717D01*
X199161Y103296D01*
X200421Y104138D01*
X201492Y105209D01*
X202334Y106469D01*
X202913Y107869D01*
X203209Y109354D01*
X203209Y109753D01*
X195877Y109753D01*
X195877Y110471D01*
X203209Y110471D01*
X203209Y110870D01*
X202913Y112355D01*
X202334Y113755D01*
X201492Y115015D01*
X200421Y116086D01*
X199161Y116928D01*
X197761Y117507D01*
X196276Y117803D01*
X195877Y117803D01*
X163911Y-12317D02*
X163911Y-19649D01*
X163193Y-19649D01*
X163193Y-12317D01*
X162794Y-12317D01*
X161309Y-12613D01*
X159909Y-13192D01*
X158649Y-14034D01*
X157578Y-15105D01*
X156736Y-16365D01*
X156157Y-17765D01*
X155861Y-19250D01*
X155861Y-19649D01*
X163193Y-19649D01*
X163193Y-20367D01*
X155861Y-20367D01*
X155861Y-20766D01*
X156157Y-22251D01*
X156736Y-23651D01*
X157578Y-24911D01*
X158649Y-25982D01*
X159909Y-26824D01*
X161309Y-27403D01*
X162794Y-27699D01*
X163193Y-27699D01*
X163193Y-20367D01*
X163911Y-20367D01*
X163911Y-27699D01*
X164310Y-27699D01*
X165795Y-27403D01*
X167195Y-26824D01*
X168455Y-25982D01*
X169526Y-24911D01*
X170368Y-23651D01*
X170947Y-22251D01*
X171243Y-20766D01*
X171243Y-20367D01*
X163911Y-20367D01*
X163911Y-19649D01*
X171243Y-19649D01*
X171243Y-19250D01*
X170947Y-17765D01*
X170368Y-16365D01*
X169526Y-15105D01*
X168455Y-14034D01*
X167195Y-13192D01*
X165795Y-12613D01*
X164310Y-12317D01*
X163911Y-12317D01*
X28003Y38247D02*
X28003Y45579D01*
X28003Y38247D02*
X27285Y38247D01*
X27285Y45579D01*
X26886Y45579D01*
X25401Y45283D01*
X24001Y44704D01*
X22741Y43862D01*
X21670Y42791D01*
X20828Y41531D01*
X20249Y40131D01*
X19953Y38646D01*
X19953Y38247D01*
X27285Y38247D01*
X27285Y37529D01*
X19953Y37529D01*
X19953Y37130D01*
X20249Y35645D01*
X20828Y34245D01*
X21670Y32985D01*
X22741Y31914D01*
X24001Y31072D01*
X25401Y30493D01*
X26886Y30197D01*
X27285Y30197D01*
X27285Y37529D01*
X28003Y37529D01*
X28003Y30197D01*
X28402Y30197D01*
X29887Y30493D01*
X31287Y31072D01*
X32547Y31914D01*
X33618Y32985D01*
X34460Y34245D01*
X35039Y35645D01*
X35335Y37130D01*
X35335Y37529D01*
X28003Y37529D01*
X28003Y38247D01*
X35335Y38247D01*
X35335Y38646D01*
X35039Y40131D01*
X34460Y41531D01*
X33618Y42791D01*
X32547Y43862D01*
X31287Y44704D01*
X29887Y45283D01*
X28402Y45579D01*
X28003Y45579D01*
X301041Y-10353D02*
X301041Y-17685D01*
X300323Y-17685D01*
X300323Y-10353D01*
X299924Y-10353D01*
X298439Y-10649D01*
X297039Y-11228D01*
X295779Y-12070D01*
X294708Y-13141D01*
X293866Y-14401D01*
X293287Y-15801D01*
X292991Y-17286D01*
X292991Y-17685D01*
X300323Y-17685D01*
X300323Y-18403D01*
X292991Y-18403D01*
X292991Y-18802D01*
X293287Y-20287D01*
X293866Y-21687D01*
X294708Y-22947D01*
X295779Y-24018D01*
X297039Y-24860D01*
X298439Y-25439D01*
X299924Y-25735D01*
X300323Y-25735D01*
X300323Y-18403D01*
X301041Y-18403D01*
X301041Y-25735D01*
X301440Y-25735D01*
X302925Y-25439D01*
X304325Y-24860D01*
X305585Y-24018D01*
X306656Y-22947D01*
X307498Y-21687D01*
X308077Y-20287D01*
X308373Y-18802D01*
X308373Y-18403D01*
X301041Y-18403D01*
X301041Y-17685D01*
X308373Y-17685D01*
X308373Y-17286D01*
X308077Y-15801D01*
X307498Y-14401D01*
X306656Y-13141D01*
X305585Y-12070D01*
X304325Y-11228D01*
X302925Y-10649D01*
X301440Y-10353D01*
X301041Y-10353D01*
X106377Y99471D02*
X106377Y106803D01*
X106377Y99471D02*
X105659Y99471D01*
X105659Y106803D01*
X105260Y106803D01*
X103775Y106507D01*
X102375Y105928D01*
X101115Y105086D01*
X100044Y104015D01*
X99202Y102755D01*
X98623Y101355D01*
X98327Y99870D01*
X98327Y99471D01*
X105659Y99471D01*
X105659Y98753D01*
X98327Y98753D01*
X98327Y98354D01*
X98623Y96869D01*
X99202Y95469D01*
X100044Y94209D01*
X101115Y93138D01*
X102375Y92296D01*
X103775Y91717D01*
X105260Y91421D01*
X105659Y91421D01*
X105659Y98753D01*
X106377Y98753D01*
X106377Y91421D01*
X106776Y91421D01*
X108261Y91717D01*
X109661Y92296D01*
X110921Y93138D01*
X111992Y94209D01*
X112834Y95469D01*
X113413Y96869D01*
X113709Y98354D01*
X113709Y98753D01*
X106377Y98753D01*
X106377Y99471D01*
X113709Y99471D01*
X113709Y99870D01*
X113413Y101355D01*
X112834Y102755D01*
X111992Y104015D01*
X110921Y105086D01*
X109661Y105928D01*
X108261Y106507D01*
X106776Y106803D01*
X106377Y106803D01*
X44875Y-14697D02*
X44875Y-22029D01*
X44157Y-22029D01*
X44157Y-14697D01*
X43758Y-14697D01*
X42273Y-14993D01*
X40873Y-15572D01*
X39613Y-16414D01*
X38542Y-17485D01*
X37700Y-18745D01*
X37121Y-20145D01*
X36825Y-21630D01*
X36825Y-22029D01*
X44157Y-22029D01*
X44157Y-22747D01*
X36825Y-22747D01*
X36825Y-23146D01*
X37121Y-24631D01*
X37700Y-26031D01*
X38542Y-27291D01*
X39613Y-28362D01*
X40873Y-29204D01*
X42273Y-29783D01*
X43758Y-30079D01*
X44157Y-30079D01*
X44157Y-22747D01*
X44875Y-22747D01*
X44875Y-30079D01*
X45274Y-30079D01*
X46759Y-29783D01*
X48159Y-29204D01*
X49419Y-28362D01*
X50490Y-27291D01*
X51332Y-26031D01*
X51911Y-24631D01*
X52207Y-23146D01*
X52207Y-22747D01*
X44875Y-22747D01*
X44875Y-22029D01*
X52207Y-22029D01*
X52207Y-21630D01*
X51911Y-20145D01*
X51332Y-18745D01*
X50490Y-17485D01*
X49419Y-16414D01*
X48159Y-15572D01*
X46759Y-14993D01*
X45274Y-14697D01*
X44875Y-14697D01*
X60003Y60759D02*
X60003Y68091D01*
X60003Y60759D02*
X59285Y60759D01*
X59285Y68091D01*
X58886Y68091D01*
X57401Y67795D01*
X56001Y67216D01*
X54741Y66374D01*
X53670Y65303D01*
X52828Y64043D01*
X52249Y62643D01*
X51953Y61158D01*
X51953Y60759D01*
X59285Y60759D01*
X59285Y60041D01*
X51953Y60041D01*
X51953Y59642D01*
X52249Y58157D01*
X52828Y56757D01*
X53670Y55497D01*
X54741Y54426D01*
X56001Y53584D01*
X57401Y53005D01*
X58886Y52709D01*
X59285Y52709D01*
X59285Y60041D01*
X60003Y60041D01*
X60003Y52709D01*
X60402Y52709D01*
X61887Y53005D01*
X63287Y53584D01*
X64547Y54426D01*
X65618Y55497D01*
X66460Y56757D01*
X67039Y58157D01*
X67335Y59642D01*
X67335Y60041D01*
X60003Y60041D01*
X60003Y60759D01*
X67335Y60759D01*
X67335Y61158D01*
X67039Y62643D01*
X66460Y64043D01*
X65618Y65303D01*
X64547Y66374D01*
X63287Y67216D01*
X61887Y67795D01*
X60402Y68091D01*
X60003Y68091D01*
X56503Y33441D02*
X56503Y26109D01*
X55785Y26109D01*
X55785Y33441D01*
X55386Y33441D01*
X53901Y33145D01*
X52501Y32566D01*
X51241Y31724D01*
X50170Y30653D01*
X49328Y29393D01*
X48749Y27993D01*
X48453Y26508D01*
X48453Y26109D01*
X55785Y26109D01*
X55785Y25391D01*
X48453Y25391D01*
X48453Y24992D01*
X48749Y23507D01*
X49328Y22107D01*
X50170Y20847D01*
X51241Y19776D01*
X52501Y18934D01*
X53901Y18355D01*
X55386Y18059D01*
X55785Y18059D01*
X55785Y25391D01*
X56503Y25391D01*
X56503Y18059D01*
X56902Y18059D01*
X58387Y18355D01*
X59787Y18934D01*
X61047Y19776D01*
X62118Y20847D01*
X62960Y22107D01*
X63539Y23507D01*
X63835Y24992D01*
X63835Y25391D01*
X56503Y25391D01*
X56503Y26109D01*
X63835Y26109D01*
X63835Y26508D01*
X63539Y27993D01*
X62960Y29393D01*
X62118Y30653D01*
X61047Y31724D01*
X59787Y32566D01*
X58387Y33145D01*
X56902Y33441D01*
X56503Y33441D01*
X190051Y-12571D02*
X190051Y-19903D01*
X189333Y-19903D01*
X189333Y-12571D01*
X188934Y-12571D01*
X187449Y-12867D01*
X186049Y-13446D01*
X184789Y-14288D01*
X183718Y-15359D01*
X182876Y-16619D01*
X182297Y-18019D01*
X182001Y-19504D01*
X182001Y-19903D01*
X189333Y-19903D01*
X189333Y-20621D01*
X182001Y-20621D01*
X182001Y-21020D01*
X182297Y-22505D01*
X182876Y-23905D01*
X183718Y-25165D01*
X184789Y-26236D01*
X186049Y-27078D01*
X187449Y-27657D01*
X188934Y-27953D01*
X189333Y-27953D01*
X189333Y-20621D01*
X190051Y-20621D01*
X190051Y-27953D01*
X190450Y-27953D01*
X191935Y-27657D01*
X193335Y-27078D01*
X194595Y-26236D01*
X195666Y-25165D01*
X196508Y-23905D01*
X197087Y-22505D01*
X197383Y-21020D01*
X197383Y-20621D01*
X190051Y-20621D01*
X190051Y-19903D01*
X197383Y-19903D01*
X197383Y-19504D01*
X197087Y-18019D01*
X196508Y-16619D01*
X195666Y-15359D01*
X194595Y-14288D01*
X193335Y-13446D01*
X191935Y-12867D01*
X190450Y-12571D01*
X190051Y-12571D01*
X1604769Y83761D02*
X1604769Y91093D01*
X1604769Y83761D02*
X1604051Y83761D01*
X1604051Y91093D01*
X1603652Y91093D01*
X1602167Y90797D01*
X1600767Y90218D01*
X1599507Y89376D01*
X1598436Y88305D01*
X1597594Y87045D01*
X1597015Y85645D01*
X1596719Y84160D01*
X1596719Y83761D01*
X1604051Y83761D01*
X1604051Y83043D01*
X1596719Y83043D01*
X1596719Y82644D01*
X1597015Y81159D01*
X1597594Y79759D01*
X1598436Y78499D01*
X1599507Y77428D01*
X1600767Y76586D01*
X1602167Y76007D01*
X1603652Y75711D01*
X1604051Y75711D01*
X1604051Y83043D01*
X1604769Y83043D01*
X1604769Y75711D01*
X1605168Y75711D01*
X1606653Y76007D01*
X1608053Y76586D01*
X1609313Y77428D01*
X1610384Y78499D01*
X1611226Y79759D01*
X1611805Y81159D01*
X1612101Y82644D01*
X1612101Y83043D01*
X1604769Y83043D01*
X1604769Y83761D01*
X1612101Y83761D01*
X1612101Y84160D01*
X1611805Y85645D01*
X1611226Y87045D01*
X1610384Y88305D01*
X1609313Y89376D01*
X1608053Y90218D01*
X1606653Y90797D01*
X1605168Y91093D01*
X1604769Y91093D01*
X1514869Y-633D02*
X1514869Y-7965D01*
X1514151Y-7965D01*
X1514151Y-633D01*
X1513752Y-633D01*
X1512267Y-929D01*
X1510867Y-1508D01*
X1509607Y-2350D01*
X1508536Y-3421D01*
X1507694Y-4681D01*
X1507115Y-6081D01*
X1506819Y-7566D01*
X1506819Y-7965D01*
X1514151Y-7965D01*
X1514151Y-8683D01*
X1506819Y-8683D01*
X1506819Y-9082D01*
X1507115Y-10567D01*
X1507694Y-11967D01*
X1508536Y-13227D01*
X1509607Y-14298D01*
X1510867Y-15140D01*
X1512267Y-15719D01*
X1513752Y-16015D01*
X1514151Y-16015D01*
X1514151Y-8683D01*
X1514869Y-8683D01*
X1514869Y-16015D01*
X1515268Y-16015D01*
X1516753Y-15719D01*
X1518153Y-15140D01*
X1519413Y-14298D01*
X1520484Y-13227D01*
X1521326Y-11967D01*
X1521905Y-10567D01*
X1522201Y-9082D01*
X1522201Y-8683D01*
X1514869Y-8683D01*
X1514869Y-7965D01*
X1522201Y-7965D01*
X1522201Y-7566D01*
X1521905Y-6081D01*
X1521326Y-4681D01*
X1520484Y-3421D01*
X1519413Y-2350D01*
X1518153Y-1508D01*
X1516753Y-929D01*
X1515268Y-633D01*
X1514869Y-633D01*
X41021Y105963D02*
X41021Y113295D01*
X41021Y105963D02*
X40303Y105963D01*
X40303Y113295D01*
X39904Y113295D01*
X38419Y112999D01*
X37019Y112420D01*
X35759Y111578D01*
X34688Y110507D01*
X33846Y109247D01*
X33267Y107847D01*
X32971Y106362D01*
X32971Y105963D01*
X40303Y105963D01*
X40303Y105245D01*
X32971Y105245D01*
X32971Y104846D01*
X33267Y103361D01*
X33846Y101961D01*
X34688Y100701D01*
X35759Y99630D01*
X37019Y98788D01*
X38419Y98209D01*
X39904Y97913D01*
X40303Y97913D01*
X40303Y105245D01*
X41021Y105245D01*
X41021Y97913D01*
X41420Y97913D01*
X42905Y98209D01*
X44305Y98788D01*
X45565Y99630D01*
X46636Y100701D01*
X47478Y101961D01*
X48057Y103361D01*
X48353Y104846D01*
X48353Y105245D01*
X41021Y105245D01*
X41021Y105963D01*
X48353Y105963D01*
X48353Y106362D01*
X48057Y107847D01*
X47478Y109247D01*
X46636Y110507D01*
X45565Y111578D01*
X44305Y112420D01*
X42905Y112999D01*
X41420Y113295D01*
X41021Y113295D01*
X234877Y110471D02*
X234877Y117803D01*
X234877Y110471D02*
X234159Y110471D01*
X234159Y117803D01*
X233760Y117803D01*
X232275Y117507D01*
X230875Y116928D01*
X229615Y116086D01*
X228544Y115015D01*
X227702Y113755D01*
X227123Y112355D01*
X226827Y110870D01*
X226827Y110471D01*
X234159Y110471D01*
X234159Y109753D01*
X226827Y109753D01*
X226827Y109354D01*
X227123Y107869D01*
X227702Y106469D01*
X228544Y105209D01*
X229615Y104138D01*
X230875Y103296D01*
X232275Y102717D01*
X233760Y102421D01*
X234159Y102421D01*
X234159Y109753D01*
X234877Y109753D01*
X234877Y102421D01*
X235276Y102421D01*
X236761Y102717D01*
X238161Y103296D01*
X239421Y104138D01*
X240492Y105209D01*
X241334Y106469D01*
X241913Y107869D01*
X242209Y109354D01*
X242209Y109753D01*
X234877Y109753D01*
X234877Y110471D01*
X242209Y110471D01*
X242209Y110870D01*
X241913Y112355D01*
X241334Y113755D01*
X240492Y115015D01*
X239421Y116086D01*
X238161Y116928D01*
X236761Y117507D01*
X235276Y117803D01*
X234877Y117803D01*
X26003Y16441D02*
X26003Y9109D01*
X25285Y9109D01*
X25285Y16441D01*
X24886Y16441D01*
X23401Y16145D01*
X22001Y15566D01*
X20741Y14724D01*
X19670Y13653D01*
X18828Y12393D01*
X18249Y10993D01*
X17953Y9508D01*
X17953Y9109D01*
X25285Y9109D01*
X25285Y8391D01*
X17953Y8391D01*
X17953Y7992D01*
X18249Y6507D01*
X18828Y5107D01*
X19670Y3847D01*
X20741Y2776D01*
X22001Y1934D01*
X23401Y1355D01*
X24886Y1059D01*
X25285Y1059D01*
X25285Y8391D01*
X26003Y8391D01*
X26003Y1059D01*
X26402Y1059D01*
X27887Y1355D01*
X29287Y1934D01*
X30547Y2776D01*
X31618Y3847D01*
X32460Y5107D01*
X33039Y6507D01*
X33335Y7992D01*
X33335Y8391D01*
X26003Y8391D01*
X26003Y9109D01*
X33335Y9109D01*
X33335Y9508D01*
X33039Y10993D01*
X32460Y12393D01*
X31618Y13653D01*
X30547Y14724D01*
X29287Y15566D01*
X27887Y16145D01*
X26402Y16441D01*
X26003Y16441D01*
X21500Y66500D02*
X21500Y72916D01*
X21500Y66500D02*
X21500Y66500D01*
X21500Y72916D01*
X20868Y72916D01*
X19629Y72669D01*
X18461Y72186D01*
X17410Y71484D01*
X16516Y70590D01*
X15814Y69539D01*
X15331Y68371D01*
X15084Y67132D01*
X15084Y66500D01*
X21500Y66500D01*
X21500Y66500D01*
X15084Y66500D01*
X15084Y65868D01*
X15331Y64629D01*
X15814Y63461D01*
X16516Y62410D01*
X17410Y61516D01*
X18461Y60814D01*
X19629Y60331D01*
X20868Y60084D01*
X21500Y60084D01*
X21500Y66500D01*
X21500Y66500D01*
X21500Y60084D01*
X22132Y60084D01*
X23371Y60331D01*
X24539Y60814D01*
X25590Y61516D01*
X26484Y62410D01*
X27186Y63461D01*
X27669Y64629D01*
X27916Y65868D01*
X27916Y66500D01*
X21500Y66500D01*
X21500Y66500D01*
X27916Y66500D01*
X27916Y67132D01*
X27669Y68371D01*
X27186Y69539D01*
X26484Y70590D01*
X25590Y71484D01*
X24539Y72186D01*
X23371Y72669D01*
X22132Y72916D01*
X21500Y72916D01*
X99500Y1416D02*
X99500Y-5000D01*
X99500Y-5000D01*
X99500Y1416D01*
X98868Y1416D01*
X97629Y1169D01*
X96461Y686D01*
X95410Y-16D01*
X94516Y-910D01*
X93814Y-1961D01*
X93331Y-3129D01*
X93084Y-4368D01*
X93084Y-5000D01*
X99500Y-5000D01*
X99500Y-5000D01*
X93084Y-5000D01*
X93084Y-5632D01*
X93331Y-6871D01*
X93814Y-8039D01*
X94516Y-9090D01*
X95410Y-9984D01*
X96461Y-10686D01*
X97629Y-11169D01*
X98868Y-11416D01*
X99500Y-11416D01*
X99500Y-5000D01*
X99500Y-5000D01*
X99500Y-11416D01*
X100132Y-11416D01*
X101371Y-11169D01*
X102539Y-10686D01*
X103590Y-9984D01*
X104484Y-9090D01*
X105186Y-8039D01*
X105669Y-6871D01*
X105916Y-5632D01*
X105916Y-5000D01*
X99500Y-5000D01*
X99500Y-5000D01*
X105916Y-5000D01*
X105916Y-4368D01*
X105669Y-3129D01*
X105186Y-1961D01*
X104484Y-910D01*
X103590Y-16D01*
X102539Y686D01*
X101371Y1169D01*
X100132Y1416D01*
X99500Y1416D01*
X1555611Y16996D02*
X1624011Y16996D01*
X1555611Y16996D02*
X1552855Y17177D01*
X1547531Y18603D01*
X1547066Y18872D01*
X1548265Y19111D01*
X1549665Y19690D01*
X1550925Y20532D01*
X1551996Y21603D01*
X1552838Y22863D01*
X1553417Y24263D01*
X1553713Y25748D01*
X1553713Y26147D01*
X1546381Y26147D01*
X1546381Y26865D01*
X1553013Y26865D01*
X1559453Y23147D01*
X1559453Y23147D01*
X1567003Y21124D01*
X1624011Y21124D01*
X1624011Y16996D01*
X1624011Y42396D02*
X1624011Y46524D01*
X1624011Y42396D02*
X1587818Y42396D01*
X1588501Y42852D01*
X1589572Y43923D01*
X1590414Y45183D01*
X1590993Y46583D01*
X1591289Y48068D01*
X1591289Y48467D01*
X1583957Y48467D01*
X1583957Y49185D01*
X1591289Y49185D01*
X1591289Y49584D01*
X1590993Y51069D01*
X1590809Y51514D01*
X1591039Y51326D01*
X1592535Y49830D01*
X1592535Y49830D01*
X1593470Y48895D01*
X1593470Y48895D01*
X1599194Y46524D01*
X1604067Y46524D01*
X1624011Y46524D01*
X1610914Y55683D02*
X1611493Y57083D01*
X1611789Y58568D01*
X1611789Y58967D01*
X1604457Y58967D01*
X1604457Y59685D01*
X1611789Y59685D01*
X1611789Y60084D01*
X1611493Y61569D01*
X1611411Y61768D01*
X1615338Y60721D01*
X1615569Y60433D01*
X1617010Y60275D01*
X1618411Y59901D01*
X1618731Y60087D01*
X1624011Y59509D01*
X1624011Y55096D01*
X1610521Y55096D01*
X1610914Y55683D01*
X1624011Y29696D02*
X1570911Y29696D01*
X1568599Y29848D01*
X1569435Y30406D01*
X1570506Y31477D01*
X1571348Y32737D01*
X1571927Y34137D01*
X1572223Y35622D01*
X1572223Y36021D01*
X1564891Y36021D01*
X1564891Y36739D01*
X1572223Y36739D01*
X1572223Y36853D01*
X1574601Y35480D01*
X1574601Y35480D01*
X1580782Y33824D01*
X1624011Y33824D01*
X1624011Y29696D01*
X1637926Y86892D02*
X1645784Y86892D01*
X1637926Y86892D02*
X1637926Y87860D01*
X1645784Y87860D01*
X1645784Y86892D01*
X1624011Y-67776D02*
X1535836Y-67776D01*
X1624011Y-67776D02*
X1624011Y-70563D01*
X1511045Y-70979D01*
X1488037Y-47972D01*
X1488252Y-48015D01*
X1488651Y-48015D01*
X1488651Y-40683D01*
X1489369Y-40683D01*
X1489369Y-48015D01*
X1489768Y-48015D01*
X1491253Y-47719D01*
X1492653Y-47140D01*
X1493913Y-46298D01*
X1494984Y-45227D01*
X1495826Y-43967D01*
X1496405Y-42567D01*
X1496701Y-41082D01*
X1496701Y-40683D01*
X1489369Y-40683D01*
X1489369Y-39965D01*
X1496701Y-39965D01*
X1496701Y-39566D01*
X1496601Y-39062D01*
X1515365Y-57826D01*
X1515381Y-57843D01*
X1517875Y-60336D01*
X1517875Y-60336D01*
X1519383Y-61845D01*
X1519383Y-61845D01*
X1526153Y-65753D01*
X1526153Y-65753D01*
X1533703Y-67776D01*
X1535836Y-67776D01*
X1524890Y-65024D02*
X1505089Y-65024D01*
X1496961Y-56896D02*
X1514435Y-56896D01*
X1506307Y-48768D02*
X1488833Y-48768D01*
X1488651Y-40640D02*
X1480705Y-40640D01*
X1489369Y-40640D02*
X1498179Y-40640D01*
X1490051Y-32512D02*
X1472577Y-32512D01*
X1529307Y-32512D02*
X1624011Y-32512D01*
X37071Y-24384D02*
X19649Y-24384D01*
X44157Y-24384D02*
X44875Y-24384D01*
X51961Y-24384D02*
X157226Y-24384D01*
X163193Y-24384D02*
X163911Y-24384D01*
X169878Y-24384D02*
X183196Y-24384D01*
X189333Y-24384D02*
X190051Y-24384D01*
X196188Y-24384D02*
X296327Y-24384D01*
X300323Y-24384D02*
X301041Y-24384D01*
X305037Y-24384D02*
X324147Y-24384D01*
X326853Y-24384D02*
X344147Y-24384D01*
X346853Y-24384D02*
X364147Y-24384D01*
X366853Y-24384D02*
X373851Y-24384D01*
X1464449Y-24384D02*
X1481923Y-24384D01*
X1518045Y-24384D02*
X1542391Y-24384D01*
X39850Y-16256D02*
X11606Y-16256D01*
X44157Y-16256D02*
X44875Y-16256D01*
X49182Y-16256D02*
X156809Y-16256D01*
X163193Y-16256D02*
X163911Y-16256D01*
X170295Y-16256D02*
X183119Y-16256D01*
X189333Y-16256D02*
X190051Y-16256D01*
X196265Y-16256D02*
X293196Y-16256D01*
X300323Y-16256D02*
X301041Y-16256D01*
X308168Y-16256D02*
X319278Y-16256D01*
X333305Y-16256D02*
X339278Y-16256D01*
X353305Y-16256D02*
X359278Y-16256D01*
X373305Y-16256D02*
X381979Y-16256D01*
X1456321Y-16256D02*
X1473795Y-16256D01*
X1509917Y-16256D02*
X1533795Y-16256D01*
X93874Y-8128D02*
X14851Y-8128D01*
X99500Y-8128D02*
X99500Y-8128D01*
X105126Y-8128D02*
X157851Y-8128D01*
X169149Y-8128D02*
X175321Y-8128D01*
X181679Y-8128D02*
X329311Y-8128D01*
X341433Y-8128D02*
X349311Y-8128D01*
X361622Y-8128D02*
X369311Y-8128D01*
X1501789Y-8128D02*
X1514151Y-8128D01*
X1514869Y-8128D02*
X1525667Y-8128D01*
X95435Y0D02*
X17786Y0D01*
X99500Y0D02*
X99500Y0D01*
X103565Y0D02*
X159161Y0D01*
X167734Y0D02*
X172591Y0D01*
X184409Y0D02*
X337439Y0D01*
X351756Y0D02*
X357911Y0D01*
X1493661Y0D02*
X1517539Y0D01*
X17953Y8128D02*
X11766Y8128D01*
X25285Y8128D02*
X26003Y8128D01*
X33335Y8128D02*
X159076Y8128D01*
X167649Y8128D02*
X174214Y8128D01*
X182786Y8128D02*
X211331Y8128D01*
X223669Y8128D02*
X231331Y8128D01*
X243669Y8128D02*
X251331Y8128D01*
X263669Y8128D02*
X271331Y8128D01*
X283669Y8128D02*
X348329Y8128D01*
X1481813Y8128D02*
X1508608Y8128D01*
X23957Y16256D02*
X16217Y16256D01*
X25285Y16256D02*
X26003Y16256D01*
X27331Y16256D02*
X158991Y16256D01*
X167564Y16256D02*
X175251Y16256D01*
X184312Y16256D02*
X194584Y16256D01*
X207416Y16256D02*
X215838Y16256D01*
X229817Y16256D02*
X235838Y16256D01*
X249817Y16256D02*
X255838Y16256D01*
X272498Y16256D02*
X275838Y16256D01*
X48574Y24384D02*
X17786Y24384D01*
X55785Y24384D02*
X56503Y24384D01*
X63714Y24384D02*
X158906Y24384D01*
X167478Y24384D02*
X178804Y24384D01*
X189945Y24384D02*
X202339Y24384D01*
X213430Y24384D02*
X225823Y24384D01*
X238950Y24384D02*
X245823Y24384D01*
X1553442Y24384D02*
X1557310Y24384D01*
X22143Y32512D02*
X11786Y32512D01*
X27285Y32512D02*
X28003Y32512D01*
X33145Y32512D02*
X52421Y32512D01*
X55785Y32512D02*
X56503Y32512D01*
X59867Y32512D02*
X158821Y32512D01*
X167393Y32512D02*
X170098Y32512D01*
X182902Y32512D02*
X185951Y32512D01*
X198073Y32512D02*
X209013Y32512D01*
X220491Y32512D02*
X235523Y32512D01*
X1529777Y32512D02*
X1541167Y32512D01*
X1571197Y32512D02*
X1624011Y32512D01*
X20459Y40640D02*
X14851Y40640D01*
X27285Y40640D02*
X28003Y40640D01*
X34829Y40640D02*
X158736Y40640D01*
X167308Y40640D02*
X173036Y40640D01*
X182087Y40640D02*
X194079Y40640D01*
X206370Y40640D02*
X216745Y40640D01*
X1551221Y40640D02*
X1558129Y40640D01*
X159520Y48768D02*
X16393Y48768D01*
X168678Y48768D02*
X176437Y48768D01*
X187486Y48768D02*
X202575Y48768D01*
X1571093Y48768D02*
X1583239Y48768D01*
X1583957Y48768D02*
X1593776Y48768D01*
X52771Y56896D02*
X17786Y56896D01*
X59285Y56896D02*
X60003Y56896D01*
X66517Y56896D02*
X163335Y56896D01*
X174837Y56896D02*
X183492Y56896D01*
X1611416Y56896D02*
X1624011Y56896D01*
X15252Y65024D02*
X11786Y65024D01*
X21500Y65024D02*
X21500Y65024D01*
X27748Y65024D02*
X53484Y65024D01*
X59285Y65024D02*
X60003Y65024D01*
X65804Y65024D02*
X77175Y65024D01*
X84285Y65024D02*
X85003Y65024D01*
X92112Y65024D02*
X170705Y65024D01*
X80157Y73152D02*
X14851Y73152D01*
X84285Y73152D02*
X85003Y73152D01*
X89131Y73152D02*
X169555Y73152D01*
X170273Y73152D02*
X185612Y73152D01*
X1600212Y73152D02*
X1645784Y73152D01*
X287327Y81280D02*
X16281Y81280D01*
X1588663Y81280D02*
X1596990Y81280D01*
X1604051Y81280D02*
X1604769Y81280D01*
X1611830Y81280D02*
X1621194Y81280D01*
X1636258Y81280D02*
X1637226Y81280D01*
X279036Y89408D02*
X17686Y89408D01*
X1596954Y89408D02*
X1599555Y89408D01*
X1604051Y89408D02*
X1604769Y89408D01*
X1609265Y89408D02*
X1621194Y89408D01*
X1636258Y89408D02*
X1637226Y89408D01*
X98490Y97536D02*
X14851Y97536D01*
X105659Y97536D02*
X106377Y97536D01*
X113546Y97536D02*
X270908Y97536D01*
X1605082Y97536D02*
X1612033Y97536D01*
X1618807Y97536D02*
X1619525Y97536D01*
X1626299Y97536D02*
X1645784Y97536D01*
X40303Y105664D02*
X14851Y105664D01*
X41021Y105664D02*
X101980Y105664D01*
X105659Y105664D02*
X106377Y105664D01*
X110056Y105664D02*
X189240Y105664D01*
X195159Y105664D02*
X195877Y105664D01*
X201796Y105664D02*
X228240Y105664D01*
X234159Y105664D02*
X234877Y105664D01*
X240796Y105664D02*
X262780Y105664D01*
X1613210Y105664D02*
X1613541Y105664D01*
X1618807Y105664D02*
X1619525Y105664D01*
X1624791Y105664D02*
X1645784Y105664D01*
X188727Y113792D02*
X11766Y113792D01*
X195159Y113792D02*
X195877Y113792D01*
X202309Y113792D02*
X227727Y113792D01*
X234159Y113792D02*
X234877Y113792D01*
X241309Y113792D02*
X254652Y113792D01*
X144082Y121920D02*
X29435Y121920D01*
X37563Y130048D02*
X144119Y130048D01*
X8128Y-19500D02*
X8128Y-19500D01*
X8128Y6500D02*
X8128Y6500D01*
X8128Y32500D02*
X8128Y32500D01*
X8128Y65000D02*
X8128Y65000D01*
X8128Y115766D02*
X8128Y117363D01*
X16256Y-3305D02*
X16256Y-22984D01*
X16256Y3305D02*
X16256Y16295D01*
X16256Y29305D02*
X16256Y42095D01*
X16256Y61805D02*
X16256Y62800D01*
X16256Y66500D02*
X16256Y66500D01*
X16256Y70200D02*
X16256Y74695D01*
X16256Y87705D02*
X16256Y87795D01*
X16256Y94205D02*
X16256Y117484D01*
X24384Y1159D02*
X24384Y-29119D01*
X24384Y8391D02*
X24384Y9109D01*
X24384Y16341D02*
X24384Y30914D01*
X24384Y37529D02*
X24384Y38247D01*
X24384Y44862D02*
X24384Y60750D01*
X24384Y66500D02*
X24384Y66500D01*
X24384Y72250D02*
X24384Y117484D01*
X32512Y5233D02*
X32512Y-31484D01*
X32512Y8391D02*
X32512Y9109D01*
X32512Y12267D02*
X32512Y31891D01*
X32512Y37529D02*
X32512Y38247D01*
X32512Y43885D02*
X32512Y124997D01*
X40640Y-29048D02*
X40640Y-31484D01*
X40640Y-22747D02*
X40640Y-22029D01*
X40640Y-15728D02*
X40640Y105245D01*
X40640Y105963D02*
X40640Y133125D01*
X48768Y-28797D02*
X48768Y-31484D01*
X48768Y-22747D02*
X48768Y-22029D01*
X48768Y-15979D02*
X48768Y23460D01*
X48768Y25391D02*
X48768Y26109D01*
X48768Y28040D02*
X48768Y133484D01*
X56896Y18059D02*
X56896Y-31484D01*
X56896Y25391D02*
X56896Y26109D01*
X56896Y33441D02*
X56896Y53214D01*
X56896Y60041D02*
X56896Y60759D01*
X56896Y67586D02*
X56896Y133484D01*
X65024Y54903D02*
X65024Y-31484D01*
X65024Y60041D02*
X65024Y60759D01*
X65024Y65897D02*
X65024Y133484D01*
X73152Y133484D02*
X73152Y-31484D01*
X81280Y-31484D02*
X81280Y59969D01*
X81280Y66541D02*
X81280Y67259D01*
X81280Y73831D02*
X81280Y133484D01*
X89408Y60833D02*
X89408Y-31484D01*
X89408Y66541D02*
X89408Y67259D01*
X89408Y72967D02*
X89408Y133484D01*
X97536Y-11131D02*
X97536Y-31484D01*
X97536Y-5000D02*
X97536Y-5000D01*
X97536Y1131D02*
X97536Y133484D01*
X105664Y-6885D02*
X105664Y-31484D01*
X105664Y-5000D02*
X105664Y-5000D01*
X105664Y-3115D02*
X105664Y98753D01*
X105664Y99471D02*
X105664Y133484D01*
X113792Y133484D02*
X113792Y-31484D01*
X121920Y-31484D02*
X121920Y133484D01*
X130048Y133484D02*
X130048Y-31484D01*
X138176Y-31484D02*
X138176Y133484D01*
X146304Y119367D02*
X146304Y-31484D01*
X146304Y132513D02*
X146304Y133484D01*
X154432Y117844D02*
X154432Y-31484D01*
X162560Y-31484D02*
X162560Y-27652D01*
X162560Y-20367D02*
X162560Y-19649D01*
X162560Y-12364D02*
X162560Y-11416D01*
X162560Y55563D02*
X162560Y70867D01*
X162560Y72851D02*
X162560Y73569D01*
X162560Y75553D02*
X162560Y117844D01*
X170688Y-22878D02*
X170688Y-31484D01*
X170688Y-20367D02*
X170688Y-19649D01*
X170688Y-17138D02*
X170688Y31088D01*
X170688Y36557D02*
X170688Y52008D01*
X170688Y65009D02*
X170688Y65522D01*
X170688Y72851D02*
X170688Y73569D01*
X170688Y80898D02*
X170688Y117844D01*
X178816Y-8916D02*
X178816Y-31484D01*
X178816Y24404D02*
X178816Y27837D01*
X178816Y52220D02*
X178816Y60454D01*
X178816Y70580D02*
X178816Y118103D01*
X186944Y-27448D02*
X186944Y-31484D01*
X186944Y-20621D02*
X186944Y-19903D01*
X186944Y-13076D02*
X186944Y20977D01*
X186944Y33505D02*
X186944Y48226D01*
X186944Y60230D02*
X186944Y64429D01*
X186944Y73296D02*
X186944Y119876D01*
X195072Y-25759D02*
X195072Y-31484D01*
X195072Y-20621D02*
X195072Y-19903D01*
X195072Y-14765D02*
X195072Y13546D01*
X195072Y18454D02*
X195072Y29511D01*
X195072Y41633D02*
X195072Y54021D01*
X195072Y63597D02*
X195072Y64724D01*
X195072Y73296D02*
X195072Y102421D01*
X195072Y109753D02*
X195072Y110471D01*
X195072Y117803D02*
X195072Y119876D01*
X203200Y9967D02*
X203200Y-31484D01*
X203200Y25433D02*
X203200Y37639D01*
X203200Y49129D02*
X203200Y55054D01*
X203200Y63626D02*
X203200Y64724D01*
X203200Y73296D02*
X203200Y109309D01*
X203200Y109753D02*
X203200Y110471D01*
X203200Y110915D02*
X203200Y119876D01*
X211328Y8135D02*
X211328Y-31484D01*
X211328Y11865D02*
X211328Y21824D01*
X211328Y35332D02*
X211328Y43715D01*
X211328Y52938D02*
X211328Y55054D01*
X211328Y63626D02*
X211328Y64724D01*
X211328Y73296D02*
X211328Y119876D01*
X219456Y3866D02*
X219456Y-31484D01*
X219456Y18017D02*
X219456Y31658D01*
X219456Y42392D02*
X219456Y45593D01*
X219456Y54196D02*
X219456Y55054D01*
X219456Y63626D02*
X219456Y64724D01*
X219456Y73296D02*
X219456Y119876D01*
X227584Y14023D02*
X227584Y-31484D01*
X227584Y26145D02*
X227584Y36206D01*
X227584Y44996D02*
X227584Y45624D01*
X227584Y54196D02*
X227584Y55054D01*
X227584Y63626D02*
X227584Y64724D01*
X227584Y73296D02*
X227584Y106755D01*
X227584Y109753D02*
X227584Y110471D01*
X227584Y113469D02*
X227584Y119876D01*
X235712Y3796D02*
X235712Y-31484D01*
X235712Y16204D02*
X235712Y22076D01*
X235712Y32621D02*
X235712Y36424D01*
X235712Y44996D02*
X235712Y45624D01*
X235712Y54196D02*
X235712Y55054D01*
X235712Y63626D02*
X235712Y64724D01*
X235712Y73296D02*
X235712Y102508D01*
X235712Y109753D02*
X235712Y110471D01*
X235712Y117716D02*
X235712Y119876D01*
X243840Y8540D02*
X243840Y-31484D01*
X243840Y22401D02*
X243840Y26623D01*
X243840Y35684D02*
X243840Y36424D01*
X243840Y44996D02*
X243840Y45624D01*
X243840Y54196D02*
X243840Y55054D01*
X243840Y63626D02*
X243840Y64724D01*
X243840Y73296D02*
X243840Y119508D01*
X251968Y6590D02*
X251968Y-31484D01*
X251968Y13410D02*
X251968Y18176D01*
X251968Y36296D02*
X251968Y36424D01*
X251968Y44996D02*
X251968Y45624D01*
X251968Y54196D02*
X251968Y55054D01*
X251968Y63626D02*
X251968Y64724D01*
X251968Y73296D02*
X251968Y116089D01*
X260096Y4131D02*
X260096Y-31484D01*
X260096Y18657D02*
X260096Y21952D01*
X260096Y36296D02*
X260096Y36424D01*
X260096Y44996D02*
X260096Y45624D01*
X260096Y54196D02*
X260096Y55054D01*
X260096Y63626D02*
X260096Y64724D01*
X260096Y73296D02*
X260096Y108348D01*
X268224Y13961D02*
X268224Y-31484D01*
X268224Y36296D02*
X268224Y36424D01*
X268224Y44996D02*
X268224Y45624D01*
X268224Y54196D02*
X268224Y55054D01*
X268224Y63626D02*
X268224Y64724D01*
X268224Y73296D02*
X268224Y100220D01*
X276352Y3584D02*
X276352Y-31484D01*
X276352Y16416D02*
X276352Y17289D01*
X276352Y36296D02*
X276352Y36424D01*
X276352Y44996D02*
X276352Y45624D01*
X276352Y54196D02*
X276352Y55054D01*
X276352Y63626D02*
X276352Y64724D01*
X276352Y73296D02*
X276352Y92092D01*
X284480Y9827D02*
X284480Y-31484D01*
X284480Y36296D02*
X284480Y36424D01*
X284480Y44996D02*
X284480Y45624D01*
X284480Y54196D02*
X284480Y55054D01*
X284480Y63626D02*
X284480Y64724D01*
X284480Y73296D02*
X284480Y83964D01*
X292608Y12597D02*
X292608Y-31484D01*
X292608Y36296D02*
X292608Y36424D01*
X292608Y44996D02*
X292608Y45624D01*
X292608Y54196D02*
X292608Y55054D01*
X292608Y63626D02*
X292608Y64724D01*
X292608Y73296D02*
X292608Y78231D01*
X300736Y-18403D02*
X300736Y-31484D01*
X300736Y-17685D02*
X300736Y12714D01*
X300736Y36296D02*
X300736Y36424D01*
X300736Y44996D02*
X300736Y45624D01*
X300736Y54196D02*
X300736Y55054D01*
X300736Y63626D02*
X300736Y64724D01*
X300736Y73296D02*
X300736Y75587D01*
X308864Y12714D02*
X308864Y-31484D01*
X308864Y36296D02*
X308864Y36424D01*
X308864Y44996D02*
X308864Y45624D01*
X308864Y54196D02*
X308864Y55054D01*
X308864Y63626D02*
X308864Y64724D01*
X308864Y73296D02*
X308864Y75216D01*
X316992Y12714D02*
X316992Y-31484D01*
X316992Y36296D02*
X316992Y36424D01*
X316992Y44996D02*
X316992Y45624D01*
X316992Y54196D02*
X316992Y55054D01*
X316992Y63626D02*
X316992Y64724D01*
X316992Y73296D02*
X316992Y75216D01*
X325120Y-24416D02*
X325120Y-31484D01*
X325120Y-11584D02*
X325120Y12714D01*
X325120Y36296D02*
X325120Y36424D01*
X325120Y44996D02*
X325120Y45624D01*
X325120Y54196D02*
X325120Y55054D01*
X325120Y63626D02*
X325120Y64724D01*
X325120Y73296D02*
X325120Y75216D01*
X333248Y-16313D02*
X333248Y-31484D01*
X333248Y-4191D02*
X333248Y12714D01*
X333248Y36296D02*
X333248Y36424D01*
X333248Y44996D02*
X333248Y45624D01*
X333248Y54196D02*
X333248Y55054D01*
X333248Y63626D02*
X333248Y64724D01*
X333248Y73296D02*
X333248Y75216D01*
X341376Y-22950D02*
X341376Y-31484D01*
X341376Y-13050D02*
X341376Y-8185D01*
X341376Y3937D02*
X341376Y12714D01*
X341376Y36296D02*
X341376Y36424D01*
X341376Y44996D02*
X341376Y45624D01*
X341376Y54196D02*
X341376Y55054D01*
X341376Y63626D02*
X341376Y64724D01*
X341376Y73296D02*
X341376Y75216D01*
X349504Y-23070D02*
X349504Y-31484D01*
X349504Y-7935D02*
X349504Y-1300D01*
X349504Y8515D02*
X349504Y12714D01*
X349504Y36296D02*
X349504Y36424D01*
X349504Y44996D02*
X349504Y45624D01*
X349504Y54196D02*
X349504Y55054D01*
X349504Y63626D02*
X349504Y64724D01*
X349504Y73296D02*
X349504Y75216D01*
X357632Y-11929D02*
X357632Y-31484D01*
X357632Y-161D02*
X357632Y1557D01*
X357632Y10286D02*
X357632Y12714D01*
X357632Y36296D02*
X357632Y36424D01*
X357632Y44996D02*
X357632Y45624D01*
X357632Y54196D02*
X357632Y55054D01*
X357632Y63626D02*
X357632Y64724D01*
X357632Y73296D02*
X357632Y75216D01*
X365760Y-24416D02*
X365760Y-31484D01*
X365760Y-11584D02*
X365760Y-5575D01*
X365760Y10286D02*
X365760Y12714D01*
X365760Y36296D02*
X365760Y36424D01*
X365760Y44996D02*
X365760Y45624D01*
X365760Y54196D02*
X365760Y55054D01*
X365760Y63626D02*
X365760Y64724D01*
X365760Y73296D02*
X365760Y75216D01*
X373888Y-15673D02*
X373888Y-24347D01*
X373888Y-4436D02*
X373888Y-3360D01*
X373888Y10286D02*
X373888Y12714D01*
X373888Y36296D02*
X373888Y36424D01*
X373888Y44996D02*
X373888Y45624D01*
X373888Y54196D02*
X373888Y55054D01*
X373888Y63626D02*
X373888Y64724D01*
X373888Y73296D02*
X373888Y75216D01*
X382016Y-9873D02*
X382016Y-16219D01*
X382016Y10286D02*
X382016Y12714D01*
X382016Y36296D02*
X382016Y36424D01*
X382016Y44996D02*
X382016Y45624D01*
X382016Y54196D02*
X382016Y55054D01*
X382016Y63626D02*
X382016Y64724D01*
X382016Y73296D02*
X382016Y75216D01*
X390144Y-8286D02*
X390144Y-8984D01*
X390144Y10286D02*
X390144Y12714D01*
X390144Y36296D02*
X390144Y36424D01*
X390144Y44996D02*
X390144Y45624D01*
X390144Y54196D02*
X390144Y55054D01*
X390144Y63626D02*
X390144Y64724D01*
X390144Y73296D02*
X390144Y75216D01*
X398272Y-8286D02*
X398272Y-8988D01*
X398272Y10286D02*
X398272Y12714D01*
X398272Y36296D02*
X398272Y36424D01*
X398272Y44996D02*
X398272Y45624D01*
X398272Y54196D02*
X398272Y55054D01*
X398272Y63626D02*
X398272Y64724D01*
X398272Y73296D02*
X398272Y75216D01*
X406400Y-8286D02*
X406400Y-8992D01*
X406400Y10286D02*
X406400Y12714D01*
X406400Y36296D02*
X406400Y36424D01*
X406400Y44996D02*
X406400Y45624D01*
X406400Y54196D02*
X406400Y55054D01*
X406400Y63626D02*
X406400Y64724D01*
X406400Y73296D02*
X406400Y75216D01*
X414528Y-8286D02*
X414528Y-8995D01*
X414528Y10286D02*
X414528Y12714D01*
X414528Y36296D02*
X414528Y36424D01*
X414528Y44996D02*
X414528Y45624D01*
X414528Y54196D02*
X414528Y55054D01*
X414528Y63626D02*
X414528Y64724D01*
X414528Y73296D02*
X414528Y75216D01*
X422656Y-8286D02*
X422656Y-8999D01*
X422656Y10286D02*
X422656Y12714D01*
X422656Y36296D02*
X422656Y36424D01*
X422656Y44996D02*
X422656Y45624D01*
X422656Y54196D02*
X422656Y55054D01*
X422656Y63626D02*
X422656Y64724D01*
X422656Y73296D02*
X422656Y75216D01*
X430784Y-8286D02*
X430784Y-9003D01*
X430784Y10286D02*
X430784Y12714D01*
X430784Y36296D02*
X430784Y36424D01*
X430784Y44996D02*
X430784Y45624D01*
X430784Y54196D02*
X430784Y55054D01*
X430784Y63626D02*
X430784Y64724D01*
X430784Y73296D02*
X430784Y75216D01*
X438912Y-8286D02*
X438912Y-9007D01*
X438912Y10286D02*
X438912Y12714D01*
X438912Y36296D02*
X438912Y36424D01*
X438912Y44996D02*
X438912Y45624D01*
X438912Y54196D02*
X438912Y55054D01*
X438912Y63626D02*
X438912Y64724D01*
X438912Y73296D02*
X438912Y75216D01*
X447040Y-8286D02*
X447040Y-9011D01*
X447040Y10286D02*
X447040Y12714D01*
X447040Y36296D02*
X447040Y36424D01*
X447040Y44996D02*
X447040Y45624D01*
X447040Y54196D02*
X447040Y55054D01*
X447040Y63626D02*
X447040Y64724D01*
X447040Y73296D02*
X447040Y75216D01*
X455168Y-8286D02*
X455168Y-9015D01*
X455168Y10286D02*
X455168Y12714D01*
X455168Y36296D02*
X455168Y36424D01*
X455168Y44996D02*
X455168Y45624D01*
X455168Y54196D02*
X455168Y55054D01*
X455168Y63626D02*
X455168Y64724D01*
X455168Y73296D02*
X455168Y75216D01*
X463296Y-8286D02*
X463296Y-9018D01*
X463296Y10286D02*
X463296Y12714D01*
X463296Y36296D02*
X463296Y36424D01*
X463296Y44996D02*
X463296Y45624D01*
X463296Y54196D02*
X463296Y55054D01*
X463296Y63626D02*
X463296Y64724D01*
X463296Y73296D02*
X463296Y75216D01*
X471424Y-8286D02*
X471424Y-9022D01*
X471424Y10286D02*
X471424Y12714D01*
X471424Y36296D02*
X471424Y36424D01*
X471424Y44996D02*
X471424Y45624D01*
X471424Y54196D02*
X471424Y55054D01*
X471424Y63626D02*
X471424Y64724D01*
X471424Y73296D02*
X471424Y75216D01*
X479552Y-8286D02*
X479552Y-9026D01*
X479552Y10286D02*
X479552Y12714D01*
X479552Y36296D02*
X479552Y36424D01*
X479552Y44996D02*
X479552Y45624D01*
X479552Y54196D02*
X479552Y55054D01*
X479552Y63626D02*
X479552Y64724D01*
X479552Y73296D02*
X479552Y75216D01*
X487680Y-8286D02*
X487680Y-9030D01*
X487680Y10286D02*
X487680Y12714D01*
X487680Y36296D02*
X487680Y36424D01*
X487680Y44996D02*
X487680Y45624D01*
X487680Y54196D02*
X487680Y55054D01*
X487680Y63626D02*
X487680Y64724D01*
X487680Y73296D02*
X487680Y75216D01*
X495808Y-8286D02*
X495808Y-9034D01*
X495808Y10286D02*
X495808Y12714D01*
X495808Y36296D02*
X495808Y36424D01*
X495808Y44996D02*
X495808Y45624D01*
X495808Y54196D02*
X495808Y55054D01*
X495808Y63626D02*
X495808Y64724D01*
X495808Y73296D02*
X495808Y75216D01*
X503936Y-8286D02*
X503936Y-9038D01*
X503936Y10286D02*
X503936Y12714D01*
X503936Y36296D02*
X503936Y36424D01*
X503936Y44996D02*
X503936Y45624D01*
X503936Y54196D02*
X503936Y55054D01*
X503936Y63626D02*
X503936Y64724D01*
X503936Y73296D02*
X503936Y75216D01*
X512064Y-8286D02*
X512064Y-9041D01*
X512064Y10286D02*
X512064Y12714D01*
X512064Y36296D02*
X512064Y36424D01*
X512064Y44996D02*
X512064Y45624D01*
X512064Y54196D02*
X512064Y55054D01*
X512064Y63626D02*
X512064Y64724D01*
X512064Y73296D02*
X512064Y75216D01*
X520192Y-8286D02*
X520192Y-9045D01*
X520192Y10286D02*
X520192Y12714D01*
X520192Y36296D02*
X520192Y36424D01*
X520192Y44996D02*
X520192Y45624D01*
X520192Y54196D02*
X520192Y55054D01*
X520192Y63626D02*
X520192Y64724D01*
X520192Y73296D02*
X520192Y75216D01*
X528320Y-8286D02*
X528320Y-9049D01*
X528320Y10286D02*
X528320Y12714D01*
X528320Y36296D02*
X528320Y36424D01*
X528320Y44996D02*
X528320Y45624D01*
X528320Y54196D02*
X528320Y55054D01*
X528320Y63626D02*
X528320Y64724D01*
X528320Y73296D02*
X528320Y75216D01*
X536448Y-8286D02*
X536448Y-9053D01*
X536448Y10286D02*
X536448Y12714D01*
X536448Y36296D02*
X536448Y36424D01*
X536448Y44996D02*
X536448Y45624D01*
X536448Y54196D02*
X536448Y55054D01*
X536448Y63626D02*
X536448Y64724D01*
X536448Y73296D02*
X536448Y75216D01*
X544576Y-8286D02*
X544576Y-9057D01*
X544576Y10286D02*
X544576Y12714D01*
X544576Y36296D02*
X544576Y36424D01*
X544576Y44996D02*
X544576Y45624D01*
X544576Y54196D02*
X544576Y55054D01*
X544576Y63626D02*
X544576Y64724D01*
X544576Y73296D02*
X544576Y75216D01*
X552704Y-8286D02*
X552704Y-9061D01*
X552704Y10286D02*
X552704Y12714D01*
X552704Y36296D02*
X552704Y36424D01*
X552704Y44996D02*
X552704Y45624D01*
X552704Y54196D02*
X552704Y55054D01*
X552704Y63626D02*
X552704Y64724D01*
X552704Y73296D02*
X552704Y75216D01*
X560832Y-8286D02*
X560832Y-9065D01*
X560832Y10286D02*
X560832Y12714D01*
X560832Y36296D02*
X560832Y36424D01*
X560832Y44996D02*
X560832Y45624D01*
X560832Y54196D02*
X560832Y55054D01*
X560832Y63626D02*
X560832Y64724D01*
X560832Y73296D02*
X560832Y75216D01*
X568960Y-8286D02*
X568960Y-9068D01*
X568960Y10286D02*
X568960Y12714D01*
X568960Y36296D02*
X568960Y36424D01*
X568960Y44996D02*
X568960Y45624D01*
X568960Y54196D02*
X568960Y55054D01*
X568960Y63626D02*
X568960Y64724D01*
X568960Y73296D02*
X568960Y75216D01*
X577088Y-8286D02*
X577088Y-9072D01*
X577088Y10286D02*
X577088Y12714D01*
X577088Y36296D02*
X577088Y36424D01*
X577088Y44996D02*
X577088Y45624D01*
X577088Y54196D02*
X577088Y55054D01*
X577088Y63626D02*
X577088Y64724D01*
X577088Y73296D02*
X577088Y75216D01*
X585216Y-8286D02*
X585216Y-9076D01*
X585216Y10286D02*
X585216Y12714D01*
X585216Y36296D02*
X585216Y36424D01*
X585216Y44996D02*
X585216Y45624D01*
X585216Y54196D02*
X585216Y55054D01*
X585216Y63626D02*
X585216Y64724D01*
X585216Y73296D02*
X585216Y75216D01*
X593344Y-8286D02*
X593344Y-9080D01*
X593344Y10286D02*
X593344Y12714D01*
X593344Y36296D02*
X593344Y36424D01*
X593344Y44996D02*
X593344Y45624D01*
X593344Y54196D02*
X593344Y55054D01*
X593344Y63626D02*
X593344Y64724D01*
X593344Y73296D02*
X593344Y75216D01*
X601472Y-8286D02*
X601472Y-9084D01*
X601472Y10286D02*
X601472Y12714D01*
X601472Y36296D02*
X601472Y36424D01*
X601472Y44996D02*
X601472Y45624D01*
X601472Y54196D02*
X601472Y55054D01*
X601472Y63626D02*
X601472Y64724D01*
X601472Y73296D02*
X601472Y75216D01*
X609600Y-8286D02*
X609600Y-9088D01*
X609600Y10286D02*
X609600Y12714D01*
X609600Y36296D02*
X609600Y36424D01*
X609600Y44996D02*
X609600Y45624D01*
X609600Y54196D02*
X609600Y55054D01*
X609600Y63626D02*
X609600Y64724D01*
X609600Y73296D02*
X609600Y75216D01*
X617728Y-8286D02*
X617728Y-9091D01*
X617728Y10286D02*
X617728Y12714D01*
X617728Y36296D02*
X617728Y36424D01*
X617728Y44996D02*
X617728Y45624D01*
X617728Y54196D02*
X617728Y55054D01*
X617728Y63626D02*
X617728Y64724D01*
X617728Y73296D02*
X617728Y75216D01*
X625856Y-8286D02*
X625856Y-9095D01*
X625856Y10286D02*
X625856Y12714D01*
X625856Y36296D02*
X625856Y36424D01*
X625856Y44996D02*
X625856Y45624D01*
X625856Y54196D02*
X625856Y55054D01*
X625856Y63626D02*
X625856Y64724D01*
X625856Y73296D02*
X625856Y75216D01*
X633984Y-8286D02*
X633984Y-9099D01*
X633984Y10286D02*
X633984Y12714D01*
X633984Y36296D02*
X633984Y36424D01*
X633984Y44996D02*
X633984Y45624D01*
X633984Y54196D02*
X633984Y55054D01*
X633984Y63626D02*
X633984Y64724D01*
X633984Y73296D02*
X633984Y75216D01*
X642112Y-8286D02*
X642112Y-9103D01*
X642112Y10286D02*
X642112Y12714D01*
X642112Y36296D02*
X642112Y36424D01*
X642112Y44996D02*
X642112Y45624D01*
X642112Y54196D02*
X642112Y55054D01*
X642112Y63626D02*
X642112Y64724D01*
X642112Y73296D02*
X642112Y75216D01*
X650240Y-8286D02*
X650240Y-9107D01*
X650240Y10286D02*
X650240Y12714D01*
X650240Y36296D02*
X650240Y36424D01*
X650240Y44996D02*
X650240Y45624D01*
X650240Y54196D02*
X650240Y55054D01*
X650240Y63626D02*
X650240Y64724D01*
X650240Y73296D02*
X650240Y75216D01*
X658368Y-8286D02*
X658368Y-9111D01*
X658368Y10286D02*
X658368Y12714D01*
X658368Y36296D02*
X658368Y36424D01*
X658368Y44996D02*
X658368Y45624D01*
X658368Y54196D02*
X658368Y55054D01*
X658368Y63626D02*
X658368Y64724D01*
X658368Y73296D02*
X658368Y75216D01*
X666496Y-8286D02*
X666496Y-9114D01*
X666496Y10286D02*
X666496Y12714D01*
X666496Y36296D02*
X666496Y36424D01*
X666496Y44996D02*
X666496Y45624D01*
X666496Y54196D02*
X666496Y55054D01*
X666496Y63626D02*
X666496Y64724D01*
X666496Y73296D02*
X666496Y75216D01*
X674624Y-8286D02*
X674624Y-9118D01*
X674624Y10286D02*
X674624Y12714D01*
X674624Y36296D02*
X674624Y36424D01*
X674624Y44996D02*
X674624Y45624D01*
X674624Y54196D02*
X674624Y55054D01*
X674624Y63626D02*
X674624Y64724D01*
X674624Y73296D02*
X674624Y75216D01*
X682752Y-8286D02*
X682752Y-9122D01*
X682752Y10286D02*
X682752Y12714D01*
X682752Y36296D02*
X682752Y36424D01*
X682752Y44996D02*
X682752Y45624D01*
X682752Y54196D02*
X682752Y55054D01*
X682752Y63626D02*
X682752Y64724D01*
X682752Y73296D02*
X682752Y75216D01*
X690880Y-8286D02*
X690880Y-9126D01*
X690880Y10286D02*
X690880Y12714D01*
X690880Y36296D02*
X690880Y36424D01*
X690880Y44996D02*
X690880Y45624D01*
X690880Y54196D02*
X690880Y55054D01*
X690880Y63626D02*
X690880Y64724D01*
X690880Y73296D02*
X690880Y75216D01*
X699008Y-8286D02*
X699008Y-9130D01*
X699008Y10286D02*
X699008Y12714D01*
X699008Y36296D02*
X699008Y36424D01*
X699008Y44996D02*
X699008Y45624D01*
X699008Y54196D02*
X699008Y55054D01*
X699008Y63626D02*
X699008Y64724D01*
X699008Y73296D02*
X699008Y75216D01*
X707136Y-8286D02*
X707136Y-9134D01*
X707136Y10286D02*
X707136Y12714D01*
X707136Y36296D02*
X707136Y36424D01*
X707136Y44996D02*
X707136Y45624D01*
X707136Y54196D02*
X707136Y55054D01*
X707136Y63626D02*
X707136Y64724D01*
X707136Y73296D02*
X707136Y75216D01*
X715264Y-8286D02*
X715264Y-9138D01*
X715264Y10286D02*
X715264Y12714D01*
X715264Y36296D02*
X715264Y36424D01*
X715264Y44996D02*
X715264Y45624D01*
X715264Y54196D02*
X715264Y55054D01*
X715264Y63626D02*
X715264Y64724D01*
X715264Y73296D02*
X715264Y75216D01*
X723392Y-8286D02*
X723392Y-9141D01*
X723392Y10286D02*
X723392Y12714D01*
X723392Y36296D02*
X723392Y36424D01*
X723392Y44996D02*
X723392Y45624D01*
X723392Y54196D02*
X723392Y55054D01*
X723392Y63626D02*
X723392Y64724D01*
X723392Y73296D02*
X723392Y75216D01*
X731520Y-8286D02*
X731520Y-9145D01*
X731520Y10286D02*
X731520Y12714D01*
X731520Y36296D02*
X731520Y36424D01*
X731520Y44996D02*
X731520Y45624D01*
X731520Y54196D02*
X731520Y55054D01*
X731520Y63626D02*
X731520Y64724D01*
X731520Y73296D02*
X731520Y75216D01*
X739648Y-8286D02*
X739648Y-9149D01*
X739648Y10286D02*
X739648Y12714D01*
X739648Y36296D02*
X739648Y36424D01*
X739648Y44996D02*
X739648Y45624D01*
X739648Y54196D02*
X739648Y55054D01*
X739648Y63626D02*
X739648Y64724D01*
X739648Y73296D02*
X739648Y75216D01*
X747776Y-8286D02*
X747776Y-9153D01*
X747776Y10286D02*
X747776Y12714D01*
X747776Y36296D02*
X747776Y36424D01*
X747776Y44996D02*
X747776Y45624D01*
X747776Y54196D02*
X747776Y55054D01*
X747776Y63626D02*
X747776Y64724D01*
X747776Y73296D02*
X747776Y75216D01*
X755904Y-8286D02*
X755904Y-9157D01*
X755904Y10286D02*
X755904Y12714D01*
X755904Y36296D02*
X755904Y36424D01*
X755904Y44996D02*
X755904Y45624D01*
X755904Y54196D02*
X755904Y55054D01*
X755904Y63626D02*
X755904Y64724D01*
X755904Y73296D02*
X755904Y75216D01*
X764032Y-8286D02*
X764032Y-9161D01*
X764032Y10286D02*
X764032Y12714D01*
X764032Y36296D02*
X764032Y36424D01*
X764032Y44996D02*
X764032Y45624D01*
X764032Y54196D02*
X764032Y55054D01*
X764032Y63626D02*
X764032Y64724D01*
X764032Y73296D02*
X764032Y75216D01*
X772160Y-8286D02*
X772160Y-9164D01*
X772160Y10286D02*
X772160Y12714D01*
X772160Y36296D02*
X772160Y36424D01*
X772160Y44996D02*
X772160Y45624D01*
X772160Y54196D02*
X772160Y55054D01*
X772160Y63626D02*
X772160Y64724D01*
X772160Y73296D02*
X772160Y75216D01*
X780288Y-8286D02*
X780288Y-9168D01*
X780288Y10286D02*
X780288Y12714D01*
X780288Y36296D02*
X780288Y36424D01*
X780288Y44996D02*
X780288Y45624D01*
X780288Y54196D02*
X780288Y55054D01*
X780288Y63626D02*
X780288Y64724D01*
X780288Y73296D02*
X780288Y75216D01*
X788416Y-8286D02*
X788416Y-9172D01*
X788416Y10286D02*
X788416Y12714D01*
X788416Y36296D02*
X788416Y36424D01*
X788416Y44996D02*
X788416Y45624D01*
X788416Y54196D02*
X788416Y55054D01*
X788416Y63626D02*
X788416Y64724D01*
X788416Y73296D02*
X788416Y75216D01*
X796544Y-8286D02*
X796544Y-9176D01*
X796544Y10286D02*
X796544Y12714D01*
X796544Y36296D02*
X796544Y36424D01*
X796544Y44996D02*
X796544Y45624D01*
X796544Y54196D02*
X796544Y55054D01*
X796544Y63626D02*
X796544Y64724D01*
X796544Y73296D02*
X796544Y75216D01*
X804672Y-8286D02*
X804672Y-9180D01*
X804672Y10286D02*
X804672Y12714D01*
X804672Y36296D02*
X804672Y36424D01*
X804672Y44996D02*
X804672Y45624D01*
X804672Y54196D02*
X804672Y55054D01*
X804672Y63626D02*
X804672Y64724D01*
X804672Y73296D02*
X804672Y75216D01*
X812800Y-8286D02*
X812800Y-9184D01*
X812800Y10286D02*
X812800Y12714D01*
X812800Y36296D02*
X812800Y36424D01*
X812800Y44996D02*
X812800Y45624D01*
X812800Y54196D02*
X812800Y55054D01*
X812800Y63626D02*
X812800Y64724D01*
X812800Y73296D02*
X812800Y75216D01*
X820928Y-8286D02*
X820928Y-9187D01*
X820928Y10286D02*
X820928Y12714D01*
X820928Y36296D02*
X820928Y36424D01*
X820928Y44996D02*
X820928Y45624D01*
X820928Y54196D02*
X820928Y55054D01*
X820928Y63626D02*
X820928Y64724D01*
X820928Y73296D02*
X820928Y75216D01*
X829056Y-8286D02*
X829056Y-9191D01*
X829056Y10286D02*
X829056Y12714D01*
X829056Y36296D02*
X829056Y36424D01*
X829056Y44996D02*
X829056Y45624D01*
X829056Y54196D02*
X829056Y55054D01*
X829056Y63626D02*
X829056Y64724D01*
X829056Y73296D02*
X829056Y75216D01*
X837184Y-8286D02*
X837184Y-9195D01*
X837184Y10286D02*
X837184Y12714D01*
X837184Y36296D02*
X837184Y36424D01*
X837184Y44996D02*
X837184Y45624D01*
X837184Y54196D02*
X837184Y55054D01*
X837184Y63626D02*
X837184Y64724D01*
X837184Y73296D02*
X837184Y75216D01*
X845312Y-8286D02*
X845312Y-9199D01*
X845312Y10286D02*
X845312Y12714D01*
X845312Y36296D02*
X845312Y36424D01*
X845312Y44996D02*
X845312Y45624D01*
X845312Y54196D02*
X845312Y55054D01*
X845312Y63626D02*
X845312Y64724D01*
X845312Y73296D02*
X845312Y75216D01*
X853440Y-8286D02*
X853440Y-9203D01*
X853440Y10286D02*
X853440Y12714D01*
X853440Y36296D02*
X853440Y36424D01*
X853440Y44996D02*
X853440Y45624D01*
X853440Y54196D02*
X853440Y55054D01*
X853440Y63626D02*
X853440Y64724D01*
X853440Y73296D02*
X853440Y75216D01*
X861568Y-8286D02*
X861568Y-9207D01*
X861568Y10286D02*
X861568Y12714D01*
X861568Y36296D02*
X861568Y36424D01*
X861568Y44996D02*
X861568Y45624D01*
X861568Y54196D02*
X861568Y55054D01*
X861568Y63626D02*
X861568Y64724D01*
X861568Y73296D02*
X861568Y75216D01*
X869696Y-8286D02*
X869696Y-9211D01*
X869696Y10286D02*
X869696Y12714D01*
X869696Y36296D02*
X869696Y36424D01*
X869696Y44996D02*
X869696Y45624D01*
X869696Y54196D02*
X869696Y55054D01*
X869696Y63626D02*
X869696Y64724D01*
X869696Y73296D02*
X869696Y75216D01*
X877824Y-8286D02*
X877824Y-9214D01*
X877824Y10286D02*
X877824Y12714D01*
X877824Y36296D02*
X877824Y36424D01*
X877824Y44996D02*
X877824Y45624D01*
X877824Y54196D02*
X877824Y55054D01*
X877824Y63626D02*
X877824Y64724D01*
X877824Y73296D02*
X877824Y75216D01*
X885952Y-8286D02*
X885952Y-9218D01*
X885952Y10286D02*
X885952Y12714D01*
X885952Y36296D02*
X885952Y36424D01*
X885952Y44996D02*
X885952Y45624D01*
X885952Y54196D02*
X885952Y55054D01*
X885952Y63626D02*
X885952Y64724D01*
X885952Y73296D02*
X885952Y75216D01*
X894080Y-8286D02*
X894080Y-9222D01*
X894080Y10286D02*
X894080Y12714D01*
X894080Y36296D02*
X894080Y36424D01*
X894080Y44996D02*
X894080Y45624D01*
X894080Y54196D02*
X894080Y55054D01*
X894080Y63626D02*
X894080Y64724D01*
X894080Y73296D02*
X894080Y75216D01*
X902208Y-8286D02*
X902208Y-9226D01*
X902208Y10286D02*
X902208Y12714D01*
X902208Y36296D02*
X902208Y36424D01*
X902208Y44996D02*
X902208Y45624D01*
X902208Y54196D02*
X902208Y55054D01*
X902208Y63626D02*
X902208Y64724D01*
X902208Y73296D02*
X902208Y75216D01*
X910336Y-8286D02*
X910336Y-9230D01*
X910336Y10286D02*
X910336Y12714D01*
X910336Y36296D02*
X910336Y36424D01*
X910336Y44996D02*
X910336Y45624D01*
X910336Y54196D02*
X910336Y55054D01*
X910336Y63626D02*
X910336Y64724D01*
X910336Y73296D02*
X910336Y75216D01*
X918464Y-8286D02*
X918464Y-9234D01*
X918464Y10286D02*
X918464Y12714D01*
X918464Y36296D02*
X918464Y36424D01*
X918464Y44996D02*
X918464Y45624D01*
X918464Y54196D02*
X918464Y55054D01*
X918464Y63626D02*
X918464Y64724D01*
X918464Y73296D02*
X918464Y75216D01*
X926592Y-8286D02*
X926592Y-9237D01*
X926592Y10286D02*
X926592Y12714D01*
X926592Y36296D02*
X926592Y36424D01*
X926592Y44996D02*
X926592Y45624D01*
X926592Y54196D02*
X926592Y55054D01*
X926592Y63626D02*
X926592Y64724D01*
X926592Y73296D02*
X926592Y75216D01*
X934720Y-8286D02*
X934720Y-9241D01*
X934720Y10286D02*
X934720Y12714D01*
X934720Y36296D02*
X934720Y36424D01*
X934720Y44996D02*
X934720Y45624D01*
X934720Y54196D02*
X934720Y55054D01*
X934720Y63626D02*
X934720Y64724D01*
X934720Y73296D02*
X934720Y75216D01*
X942848Y-8286D02*
X942848Y-9245D01*
X942848Y10286D02*
X942848Y12714D01*
X942848Y36296D02*
X942848Y36424D01*
X942848Y44996D02*
X942848Y45624D01*
X942848Y54196D02*
X942848Y55054D01*
X942848Y63626D02*
X942848Y64724D01*
X942848Y73296D02*
X942848Y75216D01*
X950976Y-8286D02*
X950976Y-9249D01*
X950976Y10286D02*
X950976Y12714D01*
X950976Y36296D02*
X950976Y36424D01*
X950976Y44996D02*
X950976Y45624D01*
X950976Y54196D02*
X950976Y55054D01*
X950976Y63626D02*
X950976Y64724D01*
X950976Y73296D02*
X950976Y75216D01*
X959104Y-8286D02*
X959104Y-9253D01*
X959104Y10286D02*
X959104Y12714D01*
X959104Y36296D02*
X959104Y36424D01*
X959104Y44996D02*
X959104Y45624D01*
X959104Y54196D02*
X959104Y55054D01*
X959104Y63626D02*
X959104Y64724D01*
X959104Y73296D02*
X959104Y75216D01*
X967232Y-8286D02*
X967232Y-9257D01*
X967232Y10286D02*
X967232Y12714D01*
X967232Y36296D02*
X967232Y36424D01*
X967232Y44996D02*
X967232Y45624D01*
X967232Y54196D02*
X967232Y55054D01*
X967232Y63626D02*
X967232Y64724D01*
X967232Y73296D02*
X967232Y75216D01*
X975360Y-8286D02*
X975360Y-9260D01*
X975360Y10286D02*
X975360Y12714D01*
X975360Y36296D02*
X975360Y36424D01*
X975360Y44996D02*
X975360Y45624D01*
X975360Y54196D02*
X975360Y55054D01*
X975360Y63626D02*
X975360Y64724D01*
X975360Y73296D02*
X975360Y75216D01*
X983488Y-8286D02*
X983488Y-9264D01*
X983488Y10286D02*
X983488Y12714D01*
X983488Y36296D02*
X983488Y36424D01*
X983488Y44996D02*
X983488Y45624D01*
X983488Y54196D02*
X983488Y55054D01*
X983488Y63626D02*
X983488Y64724D01*
X983488Y73296D02*
X983488Y75216D01*
X991616Y-8286D02*
X991616Y-9268D01*
X991616Y10286D02*
X991616Y12714D01*
X991616Y36296D02*
X991616Y36424D01*
X991616Y44996D02*
X991616Y45624D01*
X991616Y54196D02*
X991616Y55054D01*
X991616Y63626D02*
X991616Y64724D01*
X991616Y73296D02*
X991616Y75216D01*
X999744Y-8286D02*
X999744Y-9272D01*
X999744Y10286D02*
X999744Y12714D01*
X999744Y36296D02*
X999744Y36424D01*
X999744Y44996D02*
X999744Y45624D01*
X999744Y54196D02*
X999744Y55054D01*
X999744Y63626D02*
X999744Y64724D01*
X999744Y73296D02*
X999744Y75216D01*
X1007872Y-8286D02*
X1007872Y-9276D01*
X1007872Y10286D02*
X1007872Y12714D01*
X1007872Y36296D02*
X1007872Y36424D01*
X1007872Y44996D02*
X1007872Y45624D01*
X1007872Y54196D02*
X1007872Y55054D01*
X1007872Y63626D02*
X1007872Y64724D01*
X1007872Y73296D02*
X1007872Y75216D01*
X1016000Y-8286D02*
X1016000Y-9280D01*
X1016000Y10286D02*
X1016000Y12714D01*
X1016000Y36296D02*
X1016000Y36424D01*
X1016000Y44996D02*
X1016000Y45624D01*
X1016000Y54196D02*
X1016000Y55054D01*
X1016000Y63626D02*
X1016000Y64724D01*
X1016000Y73296D02*
X1016000Y75216D01*
X1024128Y-8286D02*
X1024128Y-9284D01*
X1024128Y10286D02*
X1024128Y12714D01*
X1024128Y36296D02*
X1024128Y36424D01*
X1024128Y44996D02*
X1024128Y45624D01*
X1024128Y54196D02*
X1024128Y55054D01*
X1024128Y63626D02*
X1024128Y64724D01*
X1024128Y73296D02*
X1024128Y75216D01*
X1032256Y-8286D02*
X1032256Y-9287D01*
X1032256Y10286D02*
X1032256Y12714D01*
X1032256Y36296D02*
X1032256Y36424D01*
X1032256Y44996D02*
X1032256Y45624D01*
X1032256Y54196D02*
X1032256Y55054D01*
X1032256Y63626D02*
X1032256Y64724D01*
X1032256Y73296D02*
X1032256Y75216D01*
X1040384Y-8286D02*
X1040384Y-9291D01*
X1040384Y10286D02*
X1040384Y12714D01*
X1040384Y36296D02*
X1040384Y36424D01*
X1040384Y44996D02*
X1040384Y45624D01*
X1040384Y54196D02*
X1040384Y55054D01*
X1040384Y63626D02*
X1040384Y64724D01*
X1040384Y73296D02*
X1040384Y75216D01*
X1048512Y-8286D02*
X1048512Y-9295D01*
X1048512Y10286D02*
X1048512Y12714D01*
X1048512Y36296D02*
X1048512Y36424D01*
X1048512Y44996D02*
X1048512Y45624D01*
X1048512Y54196D02*
X1048512Y55054D01*
X1048512Y63626D02*
X1048512Y64724D01*
X1048512Y73296D02*
X1048512Y75216D01*
X1056640Y-8286D02*
X1056640Y-9299D01*
X1056640Y10286D02*
X1056640Y12714D01*
X1056640Y36296D02*
X1056640Y36424D01*
X1056640Y44996D02*
X1056640Y45624D01*
X1056640Y54196D02*
X1056640Y55054D01*
X1056640Y63626D02*
X1056640Y64724D01*
X1056640Y73296D02*
X1056640Y75216D01*
X1064768Y-8286D02*
X1064768Y-9303D01*
X1064768Y10286D02*
X1064768Y12714D01*
X1064768Y36296D02*
X1064768Y36424D01*
X1064768Y44996D02*
X1064768Y45624D01*
X1064768Y54196D02*
X1064768Y55054D01*
X1064768Y63626D02*
X1064768Y64724D01*
X1064768Y73296D02*
X1064768Y75216D01*
X1072896Y-8286D02*
X1072896Y-9307D01*
X1072896Y10286D02*
X1072896Y12714D01*
X1072896Y36296D02*
X1072896Y36424D01*
X1072896Y44996D02*
X1072896Y45624D01*
X1072896Y54196D02*
X1072896Y55054D01*
X1072896Y63626D02*
X1072896Y64724D01*
X1072896Y73296D02*
X1072896Y75216D01*
X1081024Y-8286D02*
X1081024Y-9310D01*
X1081024Y10286D02*
X1081024Y12714D01*
X1081024Y36296D02*
X1081024Y36424D01*
X1081024Y44996D02*
X1081024Y45624D01*
X1081024Y54196D02*
X1081024Y55054D01*
X1081024Y63626D02*
X1081024Y64724D01*
X1081024Y73296D02*
X1081024Y75216D01*
X1089152Y-8286D02*
X1089152Y-9314D01*
X1089152Y10286D02*
X1089152Y12714D01*
X1089152Y36296D02*
X1089152Y36424D01*
X1089152Y44996D02*
X1089152Y45624D01*
X1089152Y54196D02*
X1089152Y55054D01*
X1089152Y63626D02*
X1089152Y64724D01*
X1089152Y73296D02*
X1089152Y75216D01*
X1097280Y-8286D02*
X1097280Y-9318D01*
X1097280Y10286D02*
X1097280Y12714D01*
X1097280Y36296D02*
X1097280Y36424D01*
X1097280Y44996D02*
X1097280Y45624D01*
X1097280Y54196D02*
X1097280Y55054D01*
X1097280Y63626D02*
X1097280Y64724D01*
X1097280Y73296D02*
X1097280Y75216D01*
X1105408Y-8286D02*
X1105408Y-9322D01*
X1105408Y10286D02*
X1105408Y12714D01*
X1105408Y36296D02*
X1105408Y36424D01*
X1105408Y44996D02*
X1105408Y45624D01*
X1105408Y54196D02*
X1105408Y55054D01*
X1105408Y63626D02*
X1105408Y64724D01*
X1105408Y73296D02*
X1105408Y75216D01*
X1113536Y-8286D02*
X1113536Y-9326D01*
X1113536Y10286D02*
X1113536Y12714D01*
X1113536Y36296D02*
X1113536Y36424D01*
X1113536Y44996D02*
X1113536Y45624D01*
X1113536Y54196D02*
X1113536Y55054D01*
X1113536Y63626D02*
X1113536Y64724D01*
X1113536Y73296D02*
X1113536Y75216D01*
X1121664Y-8286D02*
X1121664Y-9330D01*
X1121664Y10286D02*
X1121664Y12714D01*
X1121664Y36296D02*
X1121664Y36424D01*
X1121664Y44996D02*
X1121664Y45624D01*
X1121664Y54196D02*
X1121664Y55054D01*
X1121664Y63626D02*
X1121664Y64724D01*
X1121664Y73296D02*
X1121664Y75216D01*
X1129792Y-8286D02*
X1129792Y-9333D01*
X1129792Y10286D02*
X1129792Y12714D01*
X1129792Y36296D02*
X1129792Y36424D01*
X1129792Y44996D02*
X1129792Y45624D01*
X1129792Y54196D02*
X1129792Y55054D01*
X1129792Y63626D02*
X1129792Y64724D01*
X1129792Y73296D02*
X1129792Y75216D01*
X1137920Y-8286D02*
X1137920Y-9337D01*
X1137920Y10286D02*
X1137920Y12714D01*
X1137920Y36296D02*
X1137920Y36424D01*
X1137920Y44996D02*
X1137920Y45624D01*
X1137920Y54196D02*
X1137920Y55054D01*
X1137920Y63626D02*
X1137920Y64724D01*
X1137920Y73296D02*
X1137920Y75216D01*
X1146048Y-8286D02*
X1146048Y-9341D01*
X1146048Y10286D02*
X1146048Y12714D01*
X1146048Y36296D02*
X1146048Y36424D01*
X1146048Y44996D02*
X1146048Y45624D01*
X1146048Y54196D02*
X1146048Y55054D01*
X1146048Y63626D02*
X1146048Y64724D01*
X1146048Y73296D02*
X1146048Y75216D01*
X1154176Y-8286D02*
X1154176Y-9345D01*
X1154176Y10286D02*
X1154176Y12714D01*
X1154176Y36296D02*
X1154176Y36424D01*
X1154176Y44996D02*
X1154176Y45624D01*
X1154176Y54196D02*
X1154176Y55054D01*
X1154176Y63626D02*
X1154176Y64724D01*
X1154176Y73296D02*
X1154176Y75216D01*
X1162304Y-8286D02*
X1162304Y-9349D01*
X1162304Y10286D02*
X1162304Y12714D01*
X1162304Y36296D02*
X1162304Y36424D01*
X1162304Y44996D02*
X1162304Y45624D01*
X1162304Y54196D02*
X1162304Y55054D01*
X1162304Y63626D02*
X1162304Y64724D01*
X1162304Y73296D02*
X1162304Y75216D01*
X1170432Y-8286D02*
X1170432Y-9353D01*
X1170432Y10286D02*
X1170432Y12714D01*
X1170432Y36296D02*
X1170432Y36424D01*
X1170432Y44996D02*
X1170432Y45624D01*
X1170432Y54196D02*
X1170432Y55054D01*
X1170432Y63626D02*
X1170432Y64724D01*
X1170432Y73296D02*
X1170432Y75216D01*
X1178560Y-8286D02*
X1178560Y-9357D01*
X1178560Y10286D02*
X1178560Y12714D01*
X1178560Y36296D02*
X1178560Y36424D01*
X1178560Y44996D02*
X1178560Y45624D01*
X1178560Y54196D02*
X1178560Y55054D01*
X1178560Y63626D02*
X1178560Y64724D01*
X1178560Y73296D02*
X1178560Y75216D01*
X1186688Y-8286D02*
X1186688Y-9360D01*
X1186688Y10286D02*
X1186688Y12714D01*
X1186688Y36296D02*
X1186688Y36424D01*
X1186688Y44996D02*
X1186688Y45624D01*
X1186688Y54196D02*
X1186688Y55054D01*
X1186688Y63626D02*
X1186688Y64724D01*
X1186688Y73296D02*
X1186688Y75216D01*
X1194816Y-8286D02*
X1194816Y-9364D01*
X1194816Y10286D02*
X1194816Y12714D01*
X1194816Y36296D02*
X1194816Y36424D01*
X1194816Y44996D02*
X1194816Y45624D01*
X1194816Y54196D02*
X1194816Y55054D01*
X1194816Y63626D02*
X1194816Y64724D01*
X1194816Y73296D02*
X1194816Y75216D01*
X1202944Y-8286D02*
X1202944Y-9368D01*
X1202944Y10286D02*
X1202944Y12714D01*
X1202944Y36296D02*
X1202944Y36424D01*
X1202944Y44996D02*
X1202944Y45624D01*
X1202944Y54196D02*
X1202944Y55054D01*
X1202944Y63626D02*
X1202944Y64724D01*
X1202944Y73296D02*
X1202944Y75216D01*
X1211072Y-8286D02*
X1211072Y-9372D01*
X1211072Y10286D02*
X1211072Y12714D01*
X1211072Y36296D02*
X1211072Y36424D01*
X1211072Y44996D02*
X1211072Y45624D01*
X1211072Y54196D02*
X1211072Y55054D01*
X1211072Y63626D02*
X1211072Y64724D01*
X1211072Y73296D02*
X1211072Y75216D01*
X1219200Y-8286D02*
X1219200Y-9376D01*
X1219200Y10286D02*
X1219200Y12714D01*
X1219200Y36296D02*
X1219200Y36424D01*
X1219200Y44996D02*
X1219200Y45624D01*
X1219200Y54196D02*
X1219200Y55054D01*
X1219200Y63626D02*
X1219200Y64724D01*
X1219200Y73296D02*
X1219200Y75216D01*
X1227328Y-8286D02*
X1227328Y-9380D01*
X1227328Y10286D02*
X1227328Y12714D01*
X1227328Y36296D02*
X1227328Y36424D01*
X1227328Y44996D02*
X1227328Y45624D01*
X1227328Y54196D02*
X1227328Y55054D01*
X1227328Y63626D02*
X1227328Y64724D01*
X1227328Y73296D02*
X1227328Y75216D01*
X1235456Y-8286D02*
X1235456Y-9383D01*
X1235456Y10286D02*
X1235456Y12714D01*
X1235456Y36296D02*
X1235456Y36424D01*
X1235456Y44996D02*
X1235456Y45624D01*
X1235456Y54196D02*
X1235456Y55054D01*
X1235456Y63626D02*
X1235456Y64724D01*
X1235456Y73296D02*
X1235456Y75216D01*
X1243584Y-8286D02*
X1243584Y-9387D01*
X1243584Y10286D02*
X1243584Y12714D01*
X1243584Y36296D02*
X1243584Y36424D01*
X1243584Y44996D02*
X1243584Y45624D01*
X1243584Y54196D02*
X1243584Y55054D01*
X1243584Y63626D02*
X1243584Y64724D01*
X1243584Y73296D02*
X1243584Y75216D01*
X1251712Y-8286D02*
X1251712Y-9391D01*
X1251712Y10286D02*
X1251712Y12714D01*
X1251712Y36296D02*
X1251712Y36424D01*
X1251712Y44996D02*
X1251712Y45624D01*
X1251712Y54196D02*
X1251712Y55054D01*
X1251712Y63626D02*
X1251712Y64724D01*
X1251712Y73296D02*
X1251712Y75216D01*
X1259840Y-8286D02*
X1259840Y-9395D01*
X1259840Y10286D02*
X1259840Y12714D01*
X1259840Y36296D02*
X1259840Y36424D01*
X1259840Y44996D02*
X1259840Y45624D01*
X1259840Y54196D02*
X1259840Y55054D01*
X1259840Y63626D02*
X1259840Y64724D01*
X1259840Y73296D02*
X1259840Y75216D01*
X1267968Y-8286D02*
X1267968Y-9399D01*
X1267968Y10286D02*
X1267968Y12714D01*
X1267968Y36296D02*
X1267968Y36424D01*
X1267968Y44996D02*
X1267968Y45624D01*
X1267968Y54196D02*
X1267968Y55054D01*
X1267968Y63626D02*
X1267968Y64724D01*
X1267968Y73296D02*
X1267968Y75216D01*
X1276096Y-8286D02*
X1276096Y-9403D01*
X1276096Y10286D02*
X1276096Y12714D01*
X1276096Y36296D02*
X1276096Y36424D01*
X1276096Y44996D02*
X1276096Y45624D01*
X1276096Y54196D02*
X1276096Y55054D01*
X1276096Y63626D02*
X1276096Y64724D01*
X1276096Y73296D02*
X1276096Y75216D01*
X1284224Y-8286D02*
X1284224Y-9406D01*
X1284224Y10286D02*
X1284224Y12714D01*
X1284224Y36296D02*
X1284224Y36424D01*
X1284224Y44996D02*
X1284224Y45624D01*
X1284224Y54196D02*
X1284224Y55054D01*
X1284224Y63626D02*
X1284224Y64724D01*
X1284224Y73296D02*
X1284224Y75216D01*
X1292352Y-8286D02*
X1292352Y-9410D01*
X1292352Y10286D02*
X1292352Y12714D01*
X1292352Y36296D02*
X1292352Y36424D01*
X1292352Y44996D02*
X1292352Y45624D01*
X1292352Y54196D02*
X1292352Y55054D01*
X1292352Y63626D02*
X1292352Y64724D01*
X1292352Y73296D02*
X1292352Y75216D01*
X1300480Y-8286D02*
X1300480Y-9414D01*
X1300480Y10286D02*
X1300480Y12714D01*
X1300480Y36296D02*
X1300480Y36424D01*
X1300480Y44996D02*
X1300480Y45624D01*
X1300480Y54196D02*
X1300480Y55054D01*
X1300480Y63626D02*
X1300480Y64724D01*
X1300480Y73296D02*
X1300480Y75216D01*
X1308608Y-8286D02*
X1308608Y-9418D01*
X1308608Y10286D02*
X1308608Y12714D01*
X1308608Y36296D02*
X1308608Y36424D01*
X1308608Y44996D02*
X1308608Y45624D01*
X1308608Y54196D02*
X1308608Y55054D01*
X1308608Y63626D02*
X1308608Y64724D01*
X1308608Y73296D02*
X1308608Y75216D01*
X1316736Y-8286D02*
X1316736Y-9422D01*
X1316736Y10286D02*
X1316736Y12714D01*
X1316736Y36296D02*
X1316736Y36424D01*
X1316736Y44996D02*
X1316736Y45624D01*
X1316736Y54196D02*
X1316736Y55054D01*
X1316736Y63626D02*
X1316736Y64724D01*
X1316736Y73296D02*
X1316736Y75216D01*
X1324864Y-8286D02*
X1324864Y-9426D01*
X1324864Y10286D02*
X1324864Y12714D01*
X1324864Y36296D02*
X1324864Y36424D01*
X1324864Y44996D02*
X1324864Y45624D01*
X1324864Y54196D02*
X1324864Y55054D01*
X1324864Y63626D02*
X1324864Y64724D01*
X1324864Y73296D02*
X1324864Y75216D01*
X1332992Y-8286D02*
X1332992Y-9430D01*
X1332992Y10286D02*
X1332992Y12714D01*
X1332992Y36296D02*
X1332992Y36424D01*
X1332992Y44996D02*
X1332992Y45624D01*
X1332992Y54196D02*
X1332992Y55054D01*
X1332992Y63626D02*
X1332992Y64724D01*
X1332992Y73296D02*
X1332992Y75216D01*
X1341120Y-8286D02*
X1341120Y-9433D01*
X1341120Y10286D02*
X1341120Y12714D01*
X1341120Y36296D02*
X1341120Y36424D01*
X1341120Y44996D02*
X1341120Y45624D01*
X1341120Y54196D02*
X1341120Y55054D01*
X1341120Y63626D02*
X1341120Y64724D01*
X1341120Y73296D02*
X1341120Y75216D01*
X1349248Y-8286D02*
X1349248Y-9437D01*
X1349248Y10286D02*
X1349248Y12714D01*
X1349248Y36296D02*
X1349248Y36424D01*
X1349248Y44996D02*
X1349248Y45624D01*
X1349248Y54196D02*
X1349248Y55054D01*
X1349248Y63626D02*
X1349248Y64724D01*
X1349248Y73296D02*
X1349248Y75216D01*
X1357376Y-8286D02*
X1357376Y-9441D01*
X1357376Y10286D02*
X1357376Y12714D01*
X1357376Y36296D02*
X1357376Y36424D01*
X1357376Y44996D02*
X1357376Y45624D01*
X1357376Y54196D02*
X1357376Y55054D01*
X1357376Y63626D02*
X1357376Y64724D01*
X1357376Y73296D02*
X1357376Y75216D01*
X1365504Y-8286D02*
X1365504Y-9445D01*
X1365504Y10286D02*
X1365504Y12714D01*
X1365504Y36296D02*
X1365504Y36424D01*
X1365504Y44996D02*
X1365504Y45624D01*
X1365504Y54196D02*
X1365504Y55054D01*
X1365504Y63626D02*
X1365504Y64724D01*
X1365504Y73296D02*
X1365504Y75216D01*
X1373632Y-8286D02*
X1373632Y-9449D01*
X1373632Y10286D02*
X1373632Y12714D01*
X1373632Y36296D02*
X1373632Y36424D01*
X1373632Y44996D02*
X1373632Y45624D01*
X1373632Y54196D02*
X1373632Y55054D01*
X1373632Y63626D02*
X1373632Y64724D01*
X1373632Y73296D02*
X1373632Y75216D01*
X1381760Y-8286D02*
X1381760Y-9453D01*
X1381760Y10286D02*
X1381760Y12714D01*
X1381760Y36296D02*
X1381760Y36424D01*
X1381760Y44996D02*
X1381760Y45624D01*
X1381760Y54196D02*
X1381760Y55054D01*
X1381760Y63626D02*
X1381760Y64724D01*
X1381760Y73296D02*
X1381760Y75216D01*
X1389888Y-8286D02*
X1389888Y-9456D01*
X1389888Y10286D02*
X1389888Y12714D01*
X1389888Y36296D02*
X1389888Y36424D01*
X1389888Y44996D02*
X1389888Y45624D01*
X1389888Y54196D02*
X1389888Y55054D01*
X1389888Y63626D02*
X1389888Y64724D01*
X1389888Y73296D02*
X1389888Y75216D01*
X1398016Y-8286D02*
X1398016Y-9460D01*
X1398016Y10286D02*
X1398016Y12714D01*
X1398016Y36296D02*
X1398016Y36424D01*
X1398016Y44996D02*
X1398016Y45624D01*
X1398016Y54196D02*
X1398016Y55054D01*
X1398016Y63626D02*
X1398016Y64724D01*
X1398016Y73296D02*
X1398016Y75216D01*
X1406144Y-8286D02*
X1406144Y-9464D01*
X1406144Y10286D02*
X1406144Y12714D01*
X1406144Y36296D02*
X1406144Y36424D01*
X1406144Y44996D02*
X1406144Y45624D01*
X1406144Y54196D02*
X1406144Y55054D01*
X1406144Y63626D02*
X1406144Y64724D01*
X1406144Y73296D02*
X1406144Y75216D01*
X1414272Y-8286D02*
X1414272Y-9468D01*
X1414272Y10286D02*
X1414272Y12714D01*
X1414272Y36296D02*
X1414272Y36424D01*
X1414272Y44996D02*
X1414272Y45624D01*
X1414272Y54196D02*
X1414272Y55054D01*
X1414272Y63626D02*
X1414272Y64724D01*
X1414272Y73296D02*
X1414272Y75216D01*
X1422400Y-8286D02*
X1422400Y-9472D01*
X1422400Y10286D02*
X1422400Y12714D01*
X1422400Y36296D02*
X1422400Y36424D01*
X1422400Y44996D02*
X1422400Y45624D01*
X1422400Y54196D02*
X1422400Y55054D01*
X1422400Y63626D02*
X1422400Y64724D01*
X1422400Y73296D02*
X1422400Y75216D01*
X1430528Y-8286D02*
X1430528Y-9476D01*
X1430528Y10286D02*
X1430528Y12714D01*
X1430528Y36296D02*
X1430528Y36424D01*
X1430528Y44996D02*
X1430528Y45624D01*
X1430528Y54196D02*
X1430528Y55054D01*
X1430528Y63626D02*
X1430528Y64724D01*
X1430528Y73296D02*
X1430528Y75216D01*
X1438656Y-8286D02*
X1438656Y-9479D01*
X1438656Y10286D02*
X1438656Y12714D01*
X1438656Y36296D02*
X1438656Y36424D01*
X1438656Y44996D02*
X1438656Y45624D01*
X1438656Y54196D02*
X1438656Y55054D01*
X1438656Y63626D02*
X1438656Y64724D01*
X1438656Y73296D02*
X1438656Y75216D01*
X1446784Y-8286D02*
X1446784Y-9483D01*
X1446784Y10286D02*
X1446784Y12714D01*
X1446784Y36296D02*
X1446784Y36424D01*
X1446784Y44996D02*
X1446784Y45624D01*
X1446784Y54196D02*
X1446784Y55054D01*
X1446784Y63626D02*
X1446784Y64724D01*
X1446784Y73296D02*
X1446784Y75216D01*
X1454912Y-8286D02*
X1454912Y-14847D01*
X1454912Y10286D02*
X1454912Y12714D01*
X1454912Y36296D02*
X1454912Y36424D01*
X1454912Y44996D02*
X1454912Y45624D01*
X1454912Y54196D02*
X1454912Y55054D01*
X1454912Y63626D02*
X1454912Y64724D01*
X1454912Y73296D02*
X1454912Y75216D01*
X1463040Y-9693D02*
X1463040Y-22975D01*
X1463040Y10286D02*
X1463040Y12714D01*
X1463040Y36296D02*
X1463040Y36424D01*
X1463040Y44996D02*
X1463040Y45624D01*
X1463040Y54196D02*
X1463040Y55054D01*
X1463040Y63626D02*
X1463040Y64724D01*
X1463040Y73296D02*
X1463040Y75216D01*
X1471168Y-13889D02*
X1471168Y-31103D01*
X1471168Y10286D02*
X1471168Y12714D01*
X1471168Y36296D02*
X1471168Y36424D01*
X1471168Y44996D02*
X1471168Y45624D01*
X1471168Y54196D02*
X1471168Y55054D01*
X1471168Y63626D02*
X1471168Y64724D01*
X1471168Y73296D02*
X1471168Y75216D01*
X1479296Y-21757D02*
X1479296Y-39231D01*
X1479296Y8802D02*
X1479296Y12714D01*
X1479296Y36296D02*
X1479296Y36424D01*
X1479296Y44996D02*
X1479296Y45624D01*
X1479296Y54196D02*
X1479296Y55054D01*
X1479296Y63626D02*
X1479296Y64724D01*
X1479296Y73296D02*
X1479296Y75216D01*
X1487424Y-39965D02*
X1487424Y-40683D01*
X1487424Y-32798D02*
X1487424Y-29885D01*
X1487424Y5075D02*
X1487424Y12714D01*
X1487424Y36296D02*
X1487424Y36424D01*
X1487424Y44996D02*
X1487424Y45624D01*
X1487424Y54196D02*
X1487424Y55054D01*
X1487424Y63626D02*
X1487424Y64724D01*
X1487424Y73296D02*
X1487424Y75216D01*
X1495552Y-44377D02*
X1495552Y-55487D01*
X1495552Y-40683D02*
X1495552Y-39965D01*
X1495552Y-1891D02*
X1495552Y12631D01*
X1495552Y36296D02*
X1495552Y36424D01*
X1495552Y44996D02*
X1495552Y45624D01*
X1495552Y54196D02*
X1495552Y55054D01*
X1495552Y63626D02*
X1495552Y64724D01*
X1495552Y73296D02*
X1495552Y75216D01*
X1503680Y-46141D02*
X1503680Y-63615D01*
X1503680Y-10019D02*
X1503680Y10868D01*
X1503680Y36296D02*
X1503680Y36424D01*
X1503680Y44996D02*
X1503680Y45624D01*
X1503680Y54196D02*
X1503680Y55054D01*
X1503680Y63626D02*
X1503680Y64724D01*
X1503680Y73296D02*
X1503680Y75216D01*
X1511808Y-54269D02*
X1511808Y-70977D01*
X1511808Y-18147D02*
X1511808Y-15529D01*
X1511808Y-8683D02*
X1511808Y-7965D01*
X1511808Y-1119D02*
X1511808Y5672D01*
X1511808Y36296D02*
X1511808Y36424D01*
X1511808Y44996D02*
X1511808Y45624D01*
X1511808Y54196D02*
X1511808Y55054D01*
X1511808Y63626D02*
X1511808Y64724D01*
X1511808Y73296D02*
X1511808Y75216D01*
X1519936Y-62164D02*
X1519936Y-70947D01*
X1519936Y-26275D02*
X1519936Y-13775D01*
X1519936Y-8683D02*
X1519936Y-7965D01*
X1519936Y-2873D02*
X1519936Y-2397D01*
X1519936Y36093D02*
X1519936Y36424D01*
X1519936Y44996D02*
X1519936Y45624D01*
X1519936Y54196D02*
X1519936Y55054D01*
X1519936Y63626D02*
X1519936Y64724D01*
X1519936Y73296D02*
X1519936Y75216D01*
X1528064Y-66265D02*
X1528064Y-70917D01*
X1528064Y-32158D02*
X1528064Y-10525D01*
X1528064Y33501D02*
X1528064Y36424D01*
X1528064Y44996D02*
X1528064Y45624D01*
X1528064Y54196D02*
X1528064Y55054D01*
X1528064Y63626D02*
X1528064Y64724D01*
X1528064Y73296D02*
X1528064Y75216D01*
X1536192Y-67776D02*
X1536192Y-70887D01*
X1536192Y-33803D02*
X1536192Y-18653D01*
X1536192Y27669D02*
X1536192Y36424D01*
X1536192Y44996D02*
X1536192Y45624D01*
X1536192Y54196D02*
X1536192Y55054D01*
X1536192Y63626D02*
X1536192Y64724D01*
X1536192Y73296D02*
X1536192Y75216D01*
X1544320Y-67776D02*
X1544320Y-70857D01*
X1544320Y-33804D02*
X1544320Y-25498D01*
X1544320Y26147D02*
X1544320Y26865D01*
X1544320Y34009D02*
X1544320Y34710D01*
X1544320Y44234D02*
X1544320Y45624D01*
X1544320Y54196D02*
X1544320Y55054D01*
X1544320Y63626D02*
X1544320Y64724D01*
X1544320Y73296D02*
X1544320Y75216D01*
X1552448Y-67776D02*
X1552448Y-70827D01*
X1552448Y-33804D02*
X1552448Y-28831D01*
X1552448Y17286D02*
X1552448Y22280D01*
X1552448Y26147D02*
X1552448Y26865D01*
X1552448Y39413D02*
X1552448Y45624D01*
X1552448Y54196D02*
X1552448Y55054D01*
X1552448Y63626D02*
X1552448Y64724D01*
X1552448Y73296D02*
X1552448Y75216D01*
X1560576Y-67776D02*
X1560576Y-70797D01*
X1560576Y-33804D02*
X1560576Y-29676D01*
X1560576Y16996D02*
X1560576Y22846D01*
X1560576Y36021D02*
X1560576Y36739D01*
X1560576Y42987D02*
X1560576Y44692D01*
X1560576Y53707D02*
X1560576Y55054D01*
X1560576Y63626D02*
X1560576Y64724D01*
X1560576Y73296D02*
X1560576Y75216D01*
X1568704Y-67776D02*
X1568704Y-70767D01*
X1568704Y-33804D02*
X1568704Y-29676D01*
X1568704Y16996D02*
X1568704Y21124D01*
X1568704Y29841D02*
X1568704Y29918D01*
X1568704Y36021D02*
X1568704Y36739D01*
X1568704Y50376D02*
X1568704Y55054D01*
X1568704Y63626D02*
X1568704Y64724D01*
X1568704Y73296D02*
X1568704Y75216D01*
X1576832Y-67776D02*
X1576832Y-70737D01*
X1576832Y-33804D02*
X1576832Y-29676D01*
X1576832Y16996D02*
X1576832Y21124D01*
X1576832Y29696D02*
X1576832Y34882D01*
X1576832Y44245D02*
X1576832Y45109D01*
X1576832Y48467D02*
X1576832Y49185D01*
X1576832Y52543D02*
X1576832Y55054D01*
X1576832Y63626D02*
X1576832Y64724D01*
X1576832Y73296D02*
X1576832Y76009D01*
X1584960Y-67776D02*
X1584960Y-70707D01*
X1584960Y-33804D02*
X1584960Y-29676D01*
X1584960Y16996D02*
X1584960Y21124D01*
X1584960Y29696D02*
X1584960Y33824D01*
X1584960Y48467D02*
X1584960Y49185D01*
X1584960Y63626D02*
X1584960Y64724D01*
X1584960Y73296D02*
X1584960Y79142D01*
X1593088Y-67776D02*
X1593088Y-70677D01*
X1593088Y-33804D02*
X1593088Y-29676D01*
X1593088Y16996D02*
X1593088Y21124D01*
X1593088Y29696D02*
X1593088Y33824D01*
X1593088Y42396D02*
X1593088Y49277D01*
X1593088Y60804D02*
X1593088Y64721D01*
X1593088Y73293D02*
X1593088Y85542D01*
X1601216Y-67776D02*
X1601216Y-70647D01*
X1601216Y-33804D02*
X1601216Y-29676D01*
X1601216Y16996D02*
X1601216Y21124D01*
X1601216Y29696D02*
X1601216Y33824D01*
X1601216Y42396D02*
X1601216Y46524D01*
X1601216Y58967D02*
X1601216Y59685D01*
X1601216Y72770D02*
X1601216Y76400D01*
X1601216Y83043D02*
X1601216Y83761D01*
X1601216Y90404D02*
X1601216Y93670D01*
X1609344Y-67776D02*
X1609344Y-70617D01*
X1609344Y-33804D02*
X1609344Y-29676D01*
X1609344Y16996D02*
X1609344Y21124D01*
X1609344Y29696D02*
X1609344Y33824D01*
X1609344Y42396D02*
X1609344Y46524D01*
X1609344Y58967D02*
X1609344Y59685D01*
X1609344Y71077D02*
X1609344Y77459D01*
X1609344Y83043D02*
X1609344Y83761D01*
X1609344Y89345D02*
X1609344Y101798D01*
X1617472Y-67776D02*
X1617472Y-70587D01*
X1617472Y-33804D02*
X1617472Y-29676D01*
X1617472Y16996D02*
X1617472Y21124D01*
X1617472Y29696D02*
X1617472Y33824D01*
X1617472Y42396D02*
X1617472Y46524D01*
X1617472Y55096D02*
X1617472Y60152D01*
X1617472Y69023D02*
X1617472Y92907D01*
X1617472Y100053D02*
X1617472Y100771D01*
X1617472Y107917D02*
X1617472Y109539D01*
X1625600Y78274D02*
X1625600Y72771D01*
X1625600Y86624D02*
X1625600Y88656D01*
X1625600Y100053D02*
X1625600Y100771D01*
X1625600Y104626D02*
X1625600Y110024D01*
X1633728Y78274D02*
X1633728Y72771D01*
X1633728Y86892D02*
X1633728Y87860D01*
X1633728Y97006D02*
X1633728Y108839D01*
X1641856Y78274D02*
X1641856Y72771D01*
X1641856Y86892D02*
X1641856Y87860D01*
X1641856Y97006D02*
X1641856Y108839D01*
D16*
X106018Y99112D03*
X169914Y73210D03*
X300682Y-18044D03*
X59644Y60400D03*
X27644Y37888D03*
X56144Y25750D03*
X163552Y-20008D03*
X189692Y-20262D03*
X1619166Y100412D03*
X1604410Y83402D03*
X1514510Y-8324D03*
X1546022Y26506D03*
X1564532Y36380D03*
X1583598Y48826D03*
D19*
X6500Y110500D02*
X0Y110500D01*
D15*
X12000Y35000D02*
X6500Y32500D01*
X12000Y30600D02*
X12000Y35000D01*
X12000Y30600D02*
X6500Y32500D01*
X6500Y65000D02*
X12000Y67500D01*
X12000Y63100D01*
X6500Y65000D01*
X12500Y8500D02*
X12500Y4600D01*
X7000Y6500D01*
X12000Y-18000D02*
X12000Y-22000D01*
X6500Y-19500D01*
X6500Y110500D02*
X10730Y112423D01*
X10730Y108577D01*
X6500Y110500D01*
D20*
X6500Y65000D02*
X2000Y65000D01*
D16*
X40662Y105604D03*
D15*
X12500Y8500D02*
X6500Y6500D01*
X12000Y-18000D02*
X6500Y-19500D01*
D16*
X195518Y110112D03*
X234518Y110112D03*
X1489010Y-40324D03*
X25644Y8750D03*
X1604098Y59326D03*
D15*
X1598300Y64000D01*
X1604098Y59326D02*
X1610800Y55500D01*
X1587800Y43000D02*
X1583598Y48826D01*
X1579300Y54500D01*
X1583598Y48826D02*
X1578300Y44000D01*
X1564532Y36380D02*
X1568800Y30500D01*
X1564532Y36380D02*
X1562300Y43500D01*
X1544800Y33500D02*
X1546022Y26506D01*
X1547300Y19000D01*
D21*
X21500Y66500D03*
D16*
X84644Y66900D03*
D21*
X99500Y-5000D03*
D14*
X6500Y19500D03*
X0Y19500D03*
D15*
X2000Y19500D02*
X13400Y19500D01*
D14*
X6500Y26000D03*
D20*
X2000Y26000D01*
D15*
X13500Y26000D01*
D14*
X0Y26000D03*
X6500Y45500D03*
D20*
X2000Y45500D01*
D14*
X0Y45500D03*
D15*
X2000Y45500D02*
X13600Y45500D01*
D14*
X6500Y52000D03*
X0Y52000D03*
D15*
X2000Y52000D02*
X13400Y52000D01*
D14*
X6500Y58500D03*
X0Y58500D03*
D15*
X2000Y58500D02*
X13500Y58500D01*
D14*
X6500Y84500D03*
D20*
X2000Y84500D01*
D14*
X0Y84500D03*
D15*
X2000Y84500D02*
X13400Y84500D01*
D14*
X6500Y78000D03*
X0Y78000D03*
D15*
X2000Y78000D02*
X13500Y78000D01*
D14*
X6500Y91000D03*
X0Y91000D03*
D15*
X2000Y91000D02*
X13400Y91000D01*
D21*
X163500Y-5000D03*
D22*
X1648680Y63500D03*
D21*
X1641060Y63500D03*
D18*
X1641060Y66040D01*
X1633440Y63500D01*
X1641060Y60960D01*
X1644995Y63505D02*
X1645000Y63505D01*
X1644995Y63505D02*
X1641060Y63500D01*
D20*
X1645000Y63505D02*
X1648485Y63505D01*
D18*
X1634560Y60960D02*
X1626940Y63500D01*
X1634560Y66040D01*
X1634560Y60960D02*
X1641060Y60960D01*
X1641060Y63500D01*
D15*
X1648680Y63500D02*
X1626940Y63500D01*
X163000Y42722D02*
X163500Y-5000D01*
X163000Y42722D02*
X163005Y43169D01*
X163021Y43615D01*
X163048Y44062D01*
X163085Y44507D01*
X163133Y44951D01*
X163191Y45394D01*
X163260Y45836D01*
X163339Y46276D01*
X163429Y46714D01*
X163529Y47149D01*
X163640Y47582D01*
X163761Y48012D01*
X163892Y48440D01*
X164033Y48864D01*
X164184Y49284D01*
X164345Y49701D01*
X164516Y50114D01*
X164697Y50523D01*
X164887Y50927D01*
X165087Y51327D01*
X165297Y51721D01*
X165516Y52111D01*
X165744Y52495D01*
X165981Y52874D01*
X166227Y53247D01*
X166482Y53614D01*
X166745Y53975D01*
X167017Y54330D01*
X167298Y54678D01*
X167587Y55019D01*
X167883Y55353D01*
X168188Y55680D01*
X168500Y56000D01*
X169571Y57071D01*
X169570Y57071D02*
X169951Y57623D01*
X170344Y58166D01*
X170751Y58700D01*
X171169Y59223D01*
X171601Y59737D01*
X172044Y60240D01*
X172499Y60732D01*
X172966Y61214D01*
X173444Y61684D01*
X173933Y62143D01*
X174433Y62590D01*
X174944Y63025D01*
X175465Y63448D01*
X175995Y63858D01*
X176535Y64255D01*
X177085Y64640D01*
X177643Y65011D01*
X178211Y65369D01*
X178786Y65713D01*
X179370Y66044D01*
X179961Y66360D01*
X180560Y66662D01*
X181165Y66950D01*
X181778Y67224D01*
X182396Y67483D01*
X183021Y67727D01*
X183651Y67956D01*
X184287Y68170D01*
X184927Y68369D01*
X185572Y68553D01*
X186221Y68721D01*
X186874Y68873D01*
X187531Y69010D01*
X1590790Y69010D01*
X1617800Y64500D02*
X1626940Y63500D01*
X1617800Y64500D02*
X1610300Y66500D01*
X1598300Y69000D01*
X1590790Y69010D01*
D21*
X365500Y-18000D03*
D15*
X372061Y-11440D01*
X372060Y-11439D02*
X372493Y-11017D01*
X372935Y-10605D01*
X373388Y-10204D01*
X373849Y-9814D01*
X374320Y-9434D01*
X374799Y-9066D01*
X375288Y-8710D01*
X375784Y-8365D01*
X376289Y-8032D01*
X376801Y-7711D01*
X377321Y-7403D01*
X377848Y-7107D01*
X378382Y-6824D01*
X378923Y-6553D01*
X379469Y-6295D01*
X380022Y-6051D01*
X380581Y-5819D01*
X381145Y-5601D01*
X381713Y-5397D01*
X382287Y-5206D01*
X382865Y-5029D01*
X383447Y-4865D01*
X384033Y-4716D01*
X384622Y-4580D01*
X385214Y-4459D01*
X385809Y-4352D01*
X386406Y-4259D01*
X387006Y-4180D01*
X387607Y-4115D01*
X388209Y-4065D01*
X388812Y-4029D01*
X389417Y-4007D01*
X390021Y-4000D01*
X1455279Y-4000D02*
X1456009Y-4009D01*
X1456739Y-4036D01*
X1457467Y-4081D01*
X1458195Y-4143D01*
X1458920Y-4224D01*
X1459644Y-4322D01*
X1460364Y-4438D01*
X1461082Y-4572D01*
X1461796Y-4723D01*
X1462507Y-4891D01*
X1463213Y-5078D01*
X1463914Y-5281D01*
X1464610Y-5501D01*
X1465300Y-5739D01*
X1465984Y-5993D01*
X1466662Y-6264D01*
X1467333Y-6552D01*
X1467997Y-6856D01*
X1468653Y-7176D01*
X1469301Y-7512D01*
X1469941Y-7864D01*
X1470571Y-8232D01*
X1471193Y-8615D01*
X1471805Y-9013D01*
X1472407Y-9426D01*
X1472999Y-9854D01*
X1473580Y-10296D01*
X1474150Y-10752D01*
X1474708Y-11222D01*
X1475255Y-11706D01*
X1475790Y-12203D01*
X1476313Y-12712D01*
X1537611Y-63490D02*
X1641060Y-63490D01*
X1455279Y-4000D02*
X390021Y-4000D01*
X1476312Y-12712D02*
X1519651Y-56051D01*
X1519650Y-56051D02*
X1520083Y-56473D01*
X1520525Y-56885D01*
X1520978Y-57286D01*
X1521439Y-57676D01*
X1521910Y-58056D01*
X1522389Y-58424D01*
X1522878Y-58780D01*
X1523374Y-59125D01*
X1523879Y-59458D01*
X1524391Y-59779D01*
X1524911Y-60087D01*
X1525438Y-60383D01*
X1525972Y-60666D01*
X1526513Y-60937D01*
X1527059Y-61195D01*
X1527612Y-61439D01*
X1528171Y-61671D01*
X1528735Y-61889D01*
X1529303Y-62093D01*
X1529877Y-62284D01*
X1530455Y-62461D01*
X1531037Y-62625D01*
X1531623Y-62774D01*
X1532212Y-62910D01*
X1532804Y-63031D01*
X1533399Y-63138D01*
X1533996Y-63231D01*
X1534596Y-63310D01*
X1535197Y-63375D01*
X1535799Y-63425D01*
X1536402Y-63461D01*
X1537007Y-63483D01*
X1537611Y-63490D01*
D22*
X1648680Y-63500D03*
D21*
X1641060Y-63500D03*
D18*
X1641060Y-63490D01*
X1641060Y-60960D01*
X1633440Y-63500D01*
X1641060Y-66040D01*
X1634560Y-60960D02*
X1626940Y-63500D01*
X1634560Y-66040D01*
X1641990Y-66040D02*
X1641990Y-63490D01*
X1641990Y-66040D02*
X1641060Y-66040D01*
D23*
X1641990Y-63490D02*
X1637090Y-63490D01*
X1634560Y-60960D01*
D21*
X345500Y-18000D03*
D15*
X357061Y-6440D01*
X357060Y-6439D02*
X357493Y-6017D01*
X357935Y-5605D01*
X358388Y-5204D01*
X358849Y-4814D01*
X359320Y-4434D01*
X359799Y-4066D01*
X360288Y-3710D01*
X360784Y-3365D01*
X361289Y-3032D01*
X361801Y-2711D01*
X362321Y-2403D01*
X362848Y-2107D01*
X363382Y-1824D01*
X363923Y-1553D01*
X364469Y-1295D01*
X365022Y-1051D01*
X365581Y-819D01*
X366145Y-601D01*
X366713Y-397D01*
X367287Y-206D01*
X367865Y-29D01*
X368447Y135D01*
X369033Y284D01*
X369622Y420D01*
X370214Y541D01*
X370809Y648D01*
X371406Y741D01*
X372006Y820D01*
X372607Y885D01*
X373209Y935D01*
X373812Y971D01*
X374417Y993D01*
X375021Y1000D01*
X1536911Y-50790D02*
X1641060Y-50790D01*
X1462279Y1000D02*
X375021Y1000D01*
X1462279Y1000D02*
X1463009Y991D01*
X1463739Y964D01*
X1464467Y919D01*
X1465195Y857D01*
X1465920Y776D01*
X1466644Y678D01*
X1467364Y562D01*
X1468082Y428D01*
X1468796Y277D01*
X1469507Y109D01*
X1470213Y-78D01*
X1470914Y-281D01*
X1471610Y-501D01*
X1472300Y-739D01*
X1472984Y-993D01*
X1473662Y-1264D01*
X1474333Y-1552D01*
X1474997Y-1856D01*
X1475653Y-2176D01*
X1476301Y-2512D01*
X1476941Y-2864D01*
X1477571Y-3232D01*
X1478193Y-3615D01*
X1478805Y-4013D01*
X1479407Y-4426D01*
X1479999Y-4854D01*
X1480580Y-5296D01*
X1481150Y-5752D01*
X1481708Y-6222D01*
X1482255Y-6706D01*
X1482790Y-7203D01*
X1483313Y-7712D01*
X1483312Y-7712D02*
X1518951Y-43351D01*
X1518950Y-43351D02*
X1519383Y-43773D01*
X1519825Y-44185D01*
X1520278Y-44586D01*
X1520739Y-44976D01*
X1521210Y-45356D01*
X1521689Y-45724D01*
X1522178Y-46080D01*
X1522674Y-46425D01*
X1523179Y-46758D01*
X1523691Y-47079D01*
X1524211Y-47387D01*
X1524738Y-47683D01*
X1525272Y-47966D01*
X1525813Y-48237D01*
X1526359Y-48495D01*
X1526912Y-48739D01*
X1527471Y-48971D01*
X1528035Y-49189D01*
X1528603Y-49393D01*
X1529177Y-49584D01*
X1529755Y-49761D01*
X1530337Y-49925D01*
X1530923Y-50074D01*
X1531512Y-50210D01*
X1532104Y-50331D01*
X1532699Y-50438D01*
X1533296Y-50531D01*
X1533896Y-50610D01*
X1534497Y-50675D01*
X1535099Y-50725D01*
X1535702Y-50761D01*
X1536307Y-50783D01*
X1536911Y-50790D01*
D22*
X1648680Y-50800D03*
D21*
X1641060Y-50800D03*
D18*
X1641060Y-50790D01*
X1641060Y-48260D01*
X1633440Y-50800D01*
X1641060Y-53340D01*
X1641060Y-50790D02*
X1645000Y-50790D01*
X1634560Y-48260D02*
X1634434Y-48302D01*
X1626940Y-50800D01*
X1634560Y-53340D01*
X1641990Y-53340D02*
X1641990Y-50790D01*
X1641990Y-53340D02*
X1641060Y-53340D01*
D23*
X1641990Y-50790D02*
X1636922Y-50790D01*
X1634434Y-48302D01*
D21*
X325500Y-18000D03*
D15*
X342061Y-1440D01*
X342060Y-1439D02*
X342493Y-1017D01*
X342935Y-605D01*
X343388Y-204D01*
X343849Y186D01*
X344320Y566D01*
X344799Y934D01*
X345288Y1290D01*
X345784Y1635D01*
X346289Y1968D01*
X346801Y2289D01*
X347321Y2597D01*
X347848Y2893D01*
X348382Y3176D01*
X348923Y3447D01*
X349469Y3705D01*
X350022Y3949D01*
X350581Y4181D01*
X351145Y4399D01*
X351713Y4603D01*
X352287Y4794D01*
X352865Y4971D01*
X353447Y5135D01*
X354033Y5284D01*
X354622Y5420D01*
X355214Y5541D01*
X355809Y5648D01*
X356406Y5741D01*
X357006Y5820D01*
X357607Y5885D01*
X358209Y5935D01*
X358812Y5971D01*
X359417Y5993D01*
X360021Y6000D01*
X1469279Y6000D01*
X1470009Y5991D01*
X1470739Y5964D01*
X1471467Y5919D01*
X1472195Y5857D01*
X1472920Y5776D01*
X1473644Y5678D01*
X1474364Y5562D01*
X1475082Y5428D01*
X1475796Y5277D01*
X1476507Y5109D01*
X1477213Y4922D01*
X1477914Y4719D01*
X1478610Y4499D01*
X1479300Y4261D01*
X1479984Y4007D01*
X1480662Y3736D01*
X1481333Y3448D01*
X1481997Y3144D01*
X1482653Y2824D01*
X1483301Y2488D01*
X1483941Y2136D01*
X1484571Y1768D01*
X1485193Y1385D01*
X1485805Y987D01*
X1486407Y574D01*
X1486999Y146D01*
X1487580Y-296D01*
X1488150Y-752D01*
X1488708Y-1222D01*
X1489255Y-1706D01*
X1489790Y-2203D01*
X1490313Y-2712D01*
X1536211Y-38090D02*
X1641060Y-38090D01*
X1518251Y-30651D02*
X1490312Y-2712D01*
X1518250Y-30651D02*
X1518683Y-31073D01*
X1519125Y-31485D01*
X1519578Y-31886D01*
X1520039Y-32276D01*
X1520510Y-32656D01*
X1520989Y-33024D01*
X1521478Y-33380D01*
X1521974Y-33725D01*
X1522479Y-34058D01*
X1522991Y-34379D01*
X1523511Y-34687D01*
X1524038Y-34983D01*
X1524572Y-35266D01*
X1525113Y-35537D01*
X1525659Y-35795D01*
X1526212Y-36039D01*
X1526771Y-36271D01*
X1527335Y-36489D01*
X1527903Y-36693D01*
X1528477Y-36884D01*
X1529055Y-37061D01*
X1529637Y-37225D01*
X1530223Y-37374D01*
X1530812Y-37510D01*
X1531404Y-37631D01*
X1531999Y-37738D01*
X1532596Y-37831D01*
X1533196Y-37910D01*
X1533797Y-37975D01*
X1534399Y-38025D01*
X1535002Y-38061D01*
X1535607Y-38083D01*
X1536211Y-38090D01*
D22*
X1648680Y-38100D03*
D21*
X1641060Y-38100D03*
D18*
X1641060Y-38090D01*
X1641060Y-35560D01*
X1633440Y-38100D01*
X1639614Y-40158D01*
X1633114Y-40158D02*
X1626940Y-38100D01*
X1633114Y-40158D02*
X1634560Y-40640D01*
X1634560Y-35560D02*
X1626940Y-38100D01*
X1633114Y-40158D02*
X1639614Y-40158D01*
D23*
X1641990Y-38090D02*
X1648670Y-38090D01*
X1648680Y-38100D01*
D21*
X277500Y10000D03*
D15*
X277499Y10000D02*
X277906Y10397D01*
X278322Y10785D01*
X278748Y11162D01*
X279182Y11530D01*
X279625Y11887D01*
X280076Y12233D01*
X280536Y12568D01*
X281003Y12893D01*
X281478Y13206D01*
X281960Y13508D01*
X282449Y13798D01*
X282945Y14077D01*
X283447Y14343D01*
X283956Y14598D01*
X284471Y14840D01*
X284991Y15070D01*
X285516Y15288D01*
X286047Y15493D01*
X286582Y15686D01*
X287122Y15865D01*
X287666Y16032D01*
X288213Y16186D01*
X288764Y16326D01*
X289319Y16454D01*
X289876Y16568D01*
X290436Y16669D01*
X290998Y16757D01*
X291562Y16831D01*
X292127Y16892D01*
X292694Y16939D01*
X293262Y16973D01*
X293830Y16993D01*
X294399Y17000D01*
X1494279Y17000D02*
X1495009Y16991D01*
X1495739Y16964D01*
X1496467Y16919D01*
X1497195Y16857D01*
X1497920Y16776D01*
X1498644Y16678D01*
X1499364Y16562D01*
X1500082Y16428D01*
X1500796Y16277D01*
X1501507Y16109D01*
X1502213Y15922D01*
X1502914Y15719D01*
X1503610Y15499D01*
X1504300Y15261D01*
X1504984Y15007D01*
X1505662Y14736D01*
X1506333Y14448D01*
X1506997Y14144D01*
X1507653Y13824D01*
X1508301Y13488D01*
X1508941Y13136D01*
X1509571Y12768D01*
X1510193Y12385D01*
X1510805Y11987D01*
X1511407Y11574D01*
X1511999Y11146D01*
X1512580Y10704D01*
X1513150Y10248D01*
X1513708Y9778D01*
X1514255Y9294D01*
X1514790Y8797D01*
X1515313Y8288D01*
X1559511Y-25390D02*
X1641060Y-25390D01*
X1494279Y17000D02*
X294400Y17000D01*
X1515312Y8288D02*
X1541551Y-17951D01*
X1541550Y-17951D02*
X1541983Y-18373D01*
X1542425Y-18785D01*
X1542878Y-19186D01*
X1543339Y-19576D01*
X1543810Y-19956D01*
X1544289Y-20324D01*
X1544778Y-20680D01*
X1545274Y-21025D01*
X1545779Y-21358D01*
X1546291Y-21679D01*
X1546811Y-21987D01*
X1547338Y-22283D01*
X1547872Y-22566D01*
X1548413Y-22837D01*
X1548959Y-23095D01*
X1549512Y-23339D01*
X1550071Y-23571D01*
X1550635Y-23789D01*
X1551203Y-23993D01*
X1551777Y-24184D01*
X1552355Y-24361D01*
X1552937Y-24525D01*
X1553523Y-24674D01*
X1554112Y-24810D01*
X1554704Y-24931D01*
X1555299Y-25038D01*
X1555896Y-25131D01*
X1556496Y-25210D01*
X1557097Y-25275D01*
X1557699Y-25325D01*
X1558302Y-25361D01*
X1558907Y-25383D01*
X1559511Y-25390D01*
D22*
X1648680Y-25400D03*
D21*
X1641060Y-25400D03*
D18*
X1641060Y-25390D01*
X1641060Y-22860D01*
X1633440Y-25400D01*
X1641060Y-27940D01*
X1634560Y-22860D02*
X1626940Y-25400D01*
X1634560Y-27940D01*
X1641990Y-27940D02*
X1641990Y-25390D01*
X1641990Y-27940D02*
X1641060Y-27940D01*
D23*
X1641990Y-25390D02*
X1637090Y-25390D01*
X1634560Y-22860D01*
D21*
X257500Y10000D03*
D15*
X262061Y14561D01*
X262060Y14561D02*
X262493Y14983D01*
X262935Y15395D01*
X263388Y15796D01*
X263849Y16186D01*
X264320Y16566D01*
X264799Y16934D01*
X265288Y17290D01*
X265784Y17635D01*
X266289Y17968D01*
X266801Y18289D01*
X267321Y18597D01*
X267848Y18893D01*
X268382Y19176D01*
X268923Y19447D01*
X269469Y19705D01*
X270022Y19949D01*
X270581Y20181D01*
X271145Y20399D01*
X271713Y20603D01*
X272287Y20794D01*
X272865Y20971D01*
X273447Y21135D01*
X274033Y21284D01*
X274622Y21420D01*
X275214Y21541D01*
X275809Y21648D01*
X276406Y21741D01*
X277006Y21820D01*
X277607Y21885D01*
X278209Y21935D01*
X278812Y21971D01*
X279417Y21993D01*
X280021Y22000D01*
X1558811Y-12690D02*
X1641060Y-12690D01*
X1522313Y13288D02*
X1521790Y13797D01*
X1521255Y14294D01*
X1520708Y14778D01*
X1520150Y15248D01*
X1519580Y15704D01*
X1518999Y16146D01*
X1518407Y16574D01*
X1517805Y16987D01*
X1517193Y17385D01*
X1516571Y17768D01*
X1515941Y18136D01*
X1515301Y18488D01*
X1514653Y18824D01*
X1513997Y19144D01*
X1513333Y19448D01*
X1512662Y19736D01*
X1511984Y20007D01*
X1511300Y20261D01*
X1510610Y20499D01*
X1509914Y20719D01*
X1509213Y20922D01*
X1508507Y21109D01*
X1507796Y21277D01*
X1507082Y21428D01*
X1506364Y21562D01*
X1505644Y21678D01*
X1504920Y21776D01*
X1504195Y21857D01*
X1503467Y21919D01*
X1502739Y21964D01*
X1502009Y21991D01*
X1501279Y22000D01*
X280021Y22000D01*
X1522312Y13288D02*
X1540851Y-5251D01*
X1540850Y-5251D02*
X1541283Y-5673D01*
X1541725Y-6085D01*
X1542178Y-6486D01*
X1542639Y-6876D01*
X1543110Y-7256D01*
X1543589Y-7624D01*
X1544078Y-7980D01*
X1544574Y-8325D01*
X1545079Y-8658D01*
X1545591Y-8979D01*
X1546111Y-9287D01*
X1546638Y-9583D01*
X1547172Y-9866D01*
X1547713Y-10137D01*
X1548259Y-10395D01*
X1548812Y-10639D01*
X1549371Y-10871D01*
X1549935Y-11089D01*
X1550503Y-11293D01*
X1551077Y-11484D01*
X1551655Y-11661D01*
X1552237Y-11825D01*
X1552823Y-11974D01*
X1553412Y-12110D01*
X1554004Y-12231D01*
X1554599Y-12338D01*
X1555196Y-12431D01*
X1555796Y-12510D01*
X1556397Y-12575D01*
X1556999Y-12625D01*
X1557602Y-12661D01*
X1558207Y-12683D01*
X1558811Y-12690D01*
D22*
X1648680Y-12700D03*
D21*
X1641060Y-12700D03*
D18*
X1641060Y-12690D01*
X1641060Y-10160D01*
X1633440Y-12700D01*
X1641060Y-15240D01*
X1634560Y-10160D02*
X1626940Y-12700D01*
X1634560Y-15240D01*
X1641990Y-15240D02*
X1641990Y-12690D01*
X1641990Y-15240D02*
X1641060Y-15240D01*
D23*
X1641990Y-12690D02*
X1637090Y-12690D01*
X1634560Y-10160D01*
D21*
X237500Y10000D03*
D15*
X247061Y19561D01*
X247060Y19561D02*
X247493Y19983D01*
X247935Y20395D01*
X248388Y20796D01*
X248849Y21186D01*
X249320Y21566D01*
X249799Y21934D01*
X250288Y22290D01*
X250784Y22635D01*
X251289Y22968D01*
X251801Y23289D01*
X252321Y23597D01*
X252848Y23893D01*
X253382Y24176D01*
X253923Y24447D01*
X254469Y24705D01*
X255022Y24949D01*
X255581Y25181D01*
X256145Y25399D01*
X256713Y25603D01*
X257287Y25794D01*
X257865Y25971D01*
X258447Y26135D01*
X259033Y26284D01*
X259622Y26420D01*
X260214Y26541D01*
X260809Y26648D01*
X261406Y26741D01*
X262006Y26820D01*
X262607Y26885D01*
X263209Y26935D01*
X263812Y26971D01*
X264417Y26993D01*
X265021Y27000D01*
X1508279Y27000D02*
X1509009Y26991D01*
X1509739Y26964D01*
X1510467Y26919D01*
X1511195Y26857D01*
X1511920Y26776D01*
X1512644Y26678D01*
X1513364Y26562D01*
X1514082Y26428D01*
X1514796Y26277D01*
X1515507Y26109D01*
X1516213Y25922D01*
X1516914Y25719D01*
X1517610Y25499D01*
X1518300Y25261D01*
X1518984Y25007D01*
X1519662Y24736D01*
X1520333Y24448D01*
X1520997Y24144D01*
X1521653Y23824D01*
X1522301Y23488D01*
X1522941Y23136D01*
X1523571Y22768D01*
X1524193Y22385D01*
X1524805Y21987D01*
X1525407Y21574D01*
X1525999Y21146D01*
X1526580Y20704D01*
X1527150Y20248D01*
X1527708Y19778D01*
X1528255Y19294D01*
X1528790Y18797D01*
X1529313Y18288D01*
X1558111Y10D02*
X1641060Y10D01*
X1508279Y27000D02*
X265021Y27000D01*
X1529312Y18288D02*
X1540151Y7450D01*
X1540150Y7449D02*
X1540583Y7027D01*
X1541025Y6615D01*
X1541478Y6214D01*
X1541939Y5824D01*
X1542410Y5444D01*
X1542889Y5076D01*
X1543378Y4720D01*
X1543874Y4375D01*
X1544379Y4042D01*
X1544891Y3721D01*
X1545411Y3413D01*
X1545938Y3117D01*
X1546472Y2834D01*
X1547013Y2563D01*
X1547559Y2305D01*
X1548112Y2061D01*
X1548671Y1829D01*
X1549235Y1611D01*
X1549803Y1407D01*
X1550377Y1216D01*
X1550955Y1039D01*
X1551537Y875D01*
X1552123Y726D01*
X1552712Y590D01*
X1553304Y469D01*
X1553899Y362D01*
X1554496Y269D01*
X1555096Y190D01*
X1555697Y125D01*
X1556299Y75D01*
X1556902Y39D01*
X1557507Y17D01*
X1558111Y10D01*
D22*
X1648680Y0D03*
D21*
X1641060Y0D03*
D18*
X1641060Y10D01*
X1641060Y2540D01*
X1633440Y0D01*
X1641060Y-2540D01*
X1634560Y-2540D02*
X1626940Y0D01*
X1634560Y2540D01*
X1641990Y10D02*
X1641990Y-2540D01*
X1641060Y-2540D01*
D23*
X1641990Y10D02*
X1637110Y10D01*
X1634560Y-2540D01*
D21*
X217500Y10000D03*
D15*
X250031Y32010D02*
X1515269Y32010D01*
X232071Y24571D02*
X217500Y10000D01*
X232070Y24571D02*
X232503Y24993D01*
X232945Y25405D01*
X233398Y25806D01*
X233859Y26196D01*
X234330Y26576D01*
X234809Y26944D01*
X235298Y27300D01*
X235794Y27645D01*
X236299Y27978D01*
X236811Y28299D01*
X237331Y28607D01*
X237858Y28903D01*
X238392Y29186D01*
X238933Y29457D01*
X239479Y29715D01*
X240032Y29959D01*
X240591Y30191D01*
X241155Y30409D01*
X241723Y30613D01*
X242297Y30804D01*
X242875Y30981D01*
X243457Y31145D01*
X244043Y31294D01*
X244632Y31430D01*
X245224Y31551D01*
X245819Y31658D01*
X246416Y31751D01*
X247016Y31830D01*
X247617Y31895D01*
X248219Y31945D01*
X248822Y31981D01*
X249427Y32003D01*
X250031Y32010D01*
X1515269Y32010D02*
X1515892Y32002D01*
X1516515Y31979D01*
X1517138Y31941D01*
X1517759Y31888D01*
X1518378Y31819D01*
X1518996Y31735D01*
X1519611Y31636D01*
X1520224Y31522D01*
X1520834Y31393D01*
X1521441Y31249D01*
X1522044Y31090D01*
X1522642Y30916D01*
X1523237Y30728D01*
X1523826Y30525D01*
X1524410Y30308D01*
X1524989Y30077D01*
X1525562Y29831D01*
X1526129Y29571D01*
X1526689Y29298D01*
X1527242Y29011D01*
X1527789Y28710D01*
X1528327Y28396D01*
X1528858Y28069D01*
X1529380Y27729D01*
X1529895Y27377D01*
X1530400Y27011D01*
X1530896Y26634D01*
X1531383Y26244D01*
X1531860Y25843D01*
X1532327Y25430D01*
X1532783Y25006D01*
X1533230Y24571D01*
X1537650Y20149D02*
X1538083Y19727D01*
X1538525Y19315D01*
X1538978Y18914D01*
X1539439Y18524D01*
X1539910Y18144D01*
X1540389Y17776D01*
X1540878Y17420D01*
X1541374Y17075D01*
X1541879Y16742D01*
X1542391Y16421D01*
X1542911Y16113D01*
X1543438Y15817D01*
X1543972Y15534D01*
X1544513Y15263D01*
X1545059Y15005D01*
X1545612Y14761D01*
X1546171Y14529D01*
X1546735Y14311D01*
X1547303Y14107D01*
X1547877Y13916D01*
X1548455Y13739D01*
X1549037Y13575D01*
X1549623Y13426D01*
X1550212Y13290D01*
X1550804Y13169D01*
X1551399Y13062D01*
X1551996Y12969D01*
X1552596Y12890D01*
X1553197Y12825D01*
X1553799Y12775D01*
X1554402Y12739D01*
X1555007Y12717D01*
X1555611Y12710D01*
X1641990Y12710D02*
X1648490Y12710D01*
X1641990Y12710D02*
X1555611Y12710D01*
X1537651Y20150D02*
X1533230Y24571D01*
D22*
X1648680Y12700D03*
D21*
X1641060Y12700D03*
D18*
X1641060Y15240D01*
X1633440Y12700D01*
X1641060Y10160D01*
X1634560Y15240D02*
X1626940Y12700D01*
X1634560Y10160D01*
X1641990Y10160D02*
X1641990Y12710D01*
X1641990Y10160D02*
X1641060Y10160D01*
D23*
X1641980Y12700D02*
X1641990Y12710D01*
X1641980Y12700D02*
X1641060Y12700D01*
X1641990Y12710D02*
X1637090Y12710D01*
X1634560Y15240D01*
D21*
X201000Y16000D03*
D15*
X228231Y40710D02*
X1538429Y40710D01*
X1538812Y40705D01*
X1539194Y40692D01*
X1539576Y40669D01*
X1539958Y40637D01*
X1540338Y40596D01*
X1540718Y40546D01*
X1541096Y40487D01*
X1541472Y40419D01*
X1541847Y40342D01*
X1542220Y40257D01*
X1542591Y40162D01*
X1542960Y40059D01*
X1543325Y39946D01*
X1543689Y39826D01*
X1544049Y39696D01*
X1544406Y39558D01*
X1544759Y39412D01*
X1545109Y39257D01*
X1545456Y39094D01*
X1545798Y38922D01*
X1546136Y38743D01*
X1546470Y38556D01*
X1546799Y38360D01*
X1547123Y38157D01*
X1547443Y37946D01*
X1547757Y37728D01*
X1548066Y37503D01*
X1548370Y37270D01*
X1548668Y37029D01*
X1548960Y36782D01*
X1549246Y36528D01*
X1549526Y36267D01*
X1549800Y36000D01*
X1552950Y32849D02*
X1553383Y32427D01*
X1553825Y32015D01*
X1554278Y31614D01*
X1554739Y31224D01*
X1555210Y30844D01*
X1555689Y30476D01*
X1556178Y30120D01*
X1556674Y29775D01*
X1557179Y29442D01*
X1557691Y29121D01*
X1558211Y28813D01*
X1558738Y28517D01*
X1559272Y28234D01*
X1559813Y27963D01*
X1560359Y27705D01*
X1560912Y27461D01*
X1561471Y27229D01*
X1562035Y27011D01*
X1562603Y26807D01*
X1563177Y26616D01*
X1563755Y26439D01*
X1564337Y26275D01*
X1564923Y26126D01*
X1565512Y25990D01*
X1566104Y25869D01*
X1566699Y25762D01*
X1567296Y25669D01*
X1567896Y25590D01*
X1568497Y25525D01*
X1569099Y25475D01*
X1569702Y25439D01*
X1570307Y25417D01*
X1570911Y25410D01*
X1552951Y32850D02*
X1549800Y36000D01*
X1570911Y25410D02*
X1648490Y25410D01*
D22*
X1648680Y25400D03*
D21*
X1641060Y25400D03*
D18*
X1641060Y27940D01*
X1633440Y25400D01*
X1641060Y22860D01*
X1634560Y22860D02*
X1626940Y25400D01*
X1634560Y27940D01*
X1641990Y25410D02*
X1641990Y22860D01*
X1641060Y22860D01*
X1641990Y25410D02*
X1648490Y25410D01*
D23*
X1641990Y25410D02*
X1637090Y25410D01*
X1634560Y27940D01*
D15*
X214771Y32771D02*
X201000Y16000D01*
X214771Y32770D02*
X215068Y33155D01*
X215374Y33533D01*
X215689Y33903D01*
X216012Y34265D01*
X216344Y34620D01*
X216685Y34967D01*
X217033Y35306D01*
X217390Y35636D01*
X217754Y35957D01*
X218126Y36270D01*
X218505Y36574D01*
X218891Y36869D01*
X219284Y37155D01*
X219684Y37431D01*
X220091Y37697D01*
X220503Y37954D01*
X220922Y38201D01*
X221346Y38438D01*
X221776Y38664D01*
X222211Y38881D01*
X222651Y39087D01*
X223096Y39282D01*
X223545Y39467D01*
X223999Y39641D01*
X224457Y39804D01*
X224918Y39957D01*
X225383Y40098D01*
X225851Y40228D01*
X226323Y40347D01*
X226796Y40455D01*
X227273Y40551D01*
X227751Y40636D01*
X228232Y40710D01*
X1555532Y49910D02*
X1556012Y49904D01*
X1556492Y49887D01*
X1556971Y49859D01*
X1557450Y49819D01*
X1557928Y49767D01*
X1558404Y49705D01*
X1558878Y49631D01*
X1559351Y49545D01*
X1559821Y49449D01*
X1560289Y49341D01*
X1560754Y49222D01*
X1561217Y49093D01*
X1561676Y48952D01*
X1562132Y48800D01*
X1562583Y48638D01*
X1563031Y48465D01*
X1563475Y48281D01*
X1563914Y48087D01*
X1564349Y47882D01*
X1564778Y47667D01*
X1565202Y47442D01*
X1565621Y47207D01*
X1566034Y46962D01*
X1566441Y46707D01*
X1566842Y46442D01*
X1567236Y46169D01*
X1567624Y45885D01*
X1568005Y45593D01*
X1568379Y45292D01*
X1568746Y44982D01*
X1569105Y44663D01*
X1569456Y44336D01*
X1569800Y44000D01*
X1569827Y43973D01*
X1555532Y49910D02*
X219931Y49910D01*
X1569827Y43973D02*
X1570168Y43640D01*
X1570516Y43315D01*
X1570873Y42999D01*
X1571236Y42691D01*
X1571607Y42393D01*
X1571985Y42103D01*
X1572370Y41822D01*
X1572761Y41550D01*
X1573159Y41288D01*
X1573563Y41035D01*
X1573972Y40792D01*
X1574388Y40559D01*
X1574809Y40335D01*
X1575235Y40122D01*
X1575666Y39919D01*
X1576101Y39726D01*
X1576541Y39544D01*
X1576986Y39372D01*
X1577434Y39211D01*
X1577886Y39060D01*
X1578342Y38921D01*
X1578800Y38792D01*
X1579262Y38674D01*
X1579726Y38567D01*
X1580193Y38472D01*
X1580662Y38387D01*
X1581132Y38314D01*
X1581605Y38252D01*
X1582078Y38201D01*
X1582553Y38161D01*
X1583029Y38133D01*
X1583505Y38116D01*
X1583981Y38110D01*
D22*
X1648680Y38100D03*
D21*
X1641060Y38100D03*
D15*
X1641060Y38110D02*
X1583981Y38110D01*
D18*
X1641060Y38100D02*
X1641060Y38110D01*
X1641060Y40640D01*
X1633440Y38100D01*
X1639074Y36222D01*
X1641060Y35560D01*
X1634560Y35560D02*
X1626940Y38100D01*
X1634560Y40640D01*
X1641990Y38110D02*
X1641990Y36222D01*
X1639074Y36222D01*
D15*
X219931Y49910D02*
X219327Y49903D01*
X218722Y49881D01*
X218119Y49845D01*
X217517Y49795D01*
X216916Y49730D01*
X216316Y49651D01*
X215719Y49558D01*
X215124Y49451D01*
X214532Y49330D01*
X213943Y49194D01*
X213357Y49045D01*
X212775Y48881D01*
X212197Y48704D01*
X211623Y48513D01*
X211055Y48309D01*
X210491Y48091D01*
X209932Y47859D01*
X209379Y47615D01*
X208833Y47357D01*
X208292Y47086D01*
X207758Y46803D01*
X207231Y46507D01*
X206711Y46199D01*
X206199Y45878D01*
X205694Y45545D01*
X205198Y45200D01*
X204709Y44844D01*
X204230Y44476D01*
X203759Y44096D01*
X203298Y43706D01*
X202845Y43305D01*
X202403Y42893D01*
X201970Y42471D01*
D21*
X178500Y-2500D03*
D15*
X178500Y8479D01*
X178508Y9102D01*
X178531Y9725D01*
X178569Y10348D01*
X178622Y10969D01*
X178691Y11588D01*
X178775Y12206D01*
X178874Y12821D01*
X178988Y13434D01*
X179117Y14044D01*
X179261Y14651D01*
X179420Y15254D01*
X179594Y15852D01*
X179782Y16447D01*
X179985Y17036D01*
X180202Y17620D01*
X180433Y18199D01*
X180679Y18772D01*
X180939Y19339D01*
X181212Y19899D01*
X181499Y20452D01*
X181800Y20999D01*
X182114Y21537D01*
X182441Y22068D01*
X182781Y22590D01*
X183133Y23105D01*
X183499Y23610D01*
X183876Y24106D01*
X184266Y24593D01*
X184667Y25070D01*
X185080Y25537D01*
X185504Y25993D01*
X185939Y26440D01*
X185940Y26440D02*
X201971Y42471D01*
X1602291Y50810D02*
X1641060Y50810D01*
X1594070Y54356D02*
X1593771Y54648D01*
X1593465Y54932D01*
X1593152Y55209D01*
X1592833Y55478D01*
X1592507Y55739D01*
X1592174Y55991D01*
X1591836Y56236D01*
X1591492Y56472D01*
X1591142Y56700D01*
X1590786Y56919D01*
X1590425Y57129D01*
X1590059Y57331D01*
X1589689Y57523D01*
X1589313Y57706D01*
X1588934Y57880D01*
X1588550Y58045D01*
X1588162Y58200D01*
X1587771Y58345D01*
X1587376Y58481D01*
X1586977Y58607D01*
X1586576Y58724D01*
X1586173Y58830D01*
X1585766Y58927D01*
X1585358Y59013D01*
X1584947Y59089D01*
X1584535Y59156D01*
X1584121Y59212D01*
X1583706Y59258D01*
X1583290Y59294D01*
X1582873Y59320D01*
X1582456Y59335D01*
X1582038Y59340D01*
X1594070Y54356D02*
X1594310Y54116D01*
X1594508Y53922D01*
X1594711Y53734D01*
X1594919Y53550D01*
X1595131Y53372D01*
X1595347Y53199D01*
X1595567Y53031D01*
X1595792Y52869D01*
X1596020Y52712D01*
X1596252Y52561D01*
X1596488Y52416D01*
X1596728Y52276D01*
X1596970Y52143D01*
X1597216Y52015D01*
X1597465Y51894D01*
X1597717Y51778D01*
X1597972Y51669D01*
X1598229Y51566D01*
X1598489Y51470D01*
X1598750Y51380D01*
X1599015Y51296D01*
X1599281Y51219D01*
X1599548Y51148D01*
X1599818Y51084D01*
X1600089Y51027D01*
X1600361Y50976D01*
X1600635Y50932D01*
X1600909Y50895D01*
X1601185Y50864D01*
X1601461Y50841D01*
X1601737Y50824D01*
X1602014Y50813D01*
X1602291Y50810D01*
D22*
X1648680Y50800D03*
D21*
X1641060Y50800D03*
D18*
X1641060Y50810D01*
X1641060Y53340D01*
X1633440Y50800D01*
X1641060Y48260D01*
D24*
X1641990Y50810D02*
X1644758Y50810D01*
D18*
X1634560Y48260D02*
X1626940Y50800D01*
X1634560Y53340D01*
X1641990Y50810D02*
X1641990Y48260D01*
X1641060Y48260D01*
D23*
X1638530Y53340D02*
X1634560Y53340D01*
X1638530Y53340D02*
X1641060Y50810D01*
D15*
X199689Y59340D02*
X199233Y59334D01*
X198778Y59318D01*
X198323Y59290D01*
X197869Y59251D01*
X197416Y59200D01*
X196964Y59139D01*
X196514Y59067D01*
X196066Y58983D01*
X195620Y58889D01*
X195176Y58783D01*
X194736Y58667D01*
X194298Y58540D01*
X193863Y58403D01*
X193432Y58254D01*
X193005Y58096D01*
X192582Y57926D01*
X192163Y57747D01*
X191748Y57557D01*
X191339Y57357D01*
X190934Y57147D01*
X190535Y56927D01*
X190141Y56698D01*
X189753Y56459D01*
X189371Y56210D01*
X188995Y55952D01*
X188626Y55685D01*
X188263Y55409D01*
X187907Y55124D01*
X187558Y54831D01*
X187217Y54529D01*
X186883Y54219D01*
X186557Y53900D01*
X199689Y59340D02*
X1582038Y59340D01*
X183586Y50929D02*
X183184Y50517D01*
X182791Y50096D01*
X182409Y49665D01*
X182037Y49225D01*
X181676Y48777D01*
X181326Y48320D01*
X180986Y47855D01*
X180658Y47382D01*
X180341Y46902D01*
X180035Y46414D01*
X179741Y45919D01*
X179459Y45416D01*
X179189Y44908D01*
X178932Y44393D01*
X178686Y43872D01*
X178453Y43346D01*
X178233Y42814D01*
X178025Y42277D01*
X177831Y41735D01*
X177649Y41188D01*
X177480Y40638D01*
X177324Y40084D01*
X177182Y39526D01*
X177053Y38965D01*
X176937Y38401D01*
X176835Y37834D01*
X176746Y37265D01*
X176671Y36694D01*
X176610Y36122D01*
X176562Y35548D01*
X176527Y34973D01*
X176507Y34398D01*
X176500Y33822D01*
X183586Y50929D02*
X186557Y53901D01*
D21*
X176500Y33822D03*
D17*
X1648934Y119380D03*
X1636234Y119380D03*
D25*
X1636910Y119390D02*
X1628881Y119390D01*
X1636910Y119390D02*
X1643410Y119390D01*
X1628881Y119390D02*
X1628258Y119382D01*
X1627635Y119359D01*
X1627012Y119321D01*
X1626391Y119268D01*
X1625772Y119199D01*
X1625154Y119115D01*
X1624539Y119016D01*
X1623926Y118902D01*
X1623316Y118773D01*
X1622709Y118629D01*
X1622106Y118470D01*
X1621508Y118296D01*
X1620913Y118108D01*
X1620324Y117905D01*
X1619740Y117688D01*
X1619161Y117457D01*
X1618588Y117211D01*
X1618021Y116951D01*
X1617461Y116678D01*
X1616908Y116391D01*
X1616361Y116090D01*
X1615823Y115776D01*
X1615292Y115449D01*
X1614770Y115109D01*
X1614255Y114757D01*
X1613750Y114391D01*
X1613254Y114014D01*
X1612767Y113624D01*
X1612290Y113223D01*
X1611823Y112810D01*
X1611367Y112386D01*
X1610920Y111951D01*
X1587690Y88719D02*
X1587243Y88284D01*
X1586787Y87860D01*
X1586320Y87447D01*
X1585843Y87046D01*
X1585356Y86656D01*
X1584860Y86279D01*
X1584355Y85913D01*
X1583840Y85561D01*
X1583318Y85221D01*
X1582787Y84894D01*
X1582249Y84580D01*
X1581702Y84279D01*
X1581149Y83992D01*
X1580589Y83719D01*
X1580022Y83459D01*
X1579449Y83213D01*
X1578870Y82982D01*
X1578286Y82765D01*
X1577697Y82562D01*
X1577102Y82374D01*
X1576504Y82200D01*
X1575901Y82041D01*
X1575294Y81897D01*
X1574684Y81768D01*
X1574071Y81654D01*
X1573456Y81555D01*
X1572838Y81471D01*
X1572219Y81402D01*
X1571598Y81349D01*
X1570975Y81311D01*
X1570352Y81288D01*
X1569729Y81280D01*
X306261Y81280D02*
X305638Y81288D01*
X305015Y81311D01*
X304392Y81349D01*
X303771Y81402D01*
X303152Y81471D01*
X302534Y81555D01*
X301919Y81654D01*
X301306Y81768D01*
X300696Y81897D01*
X300089Y82041D01*
X299486Y82200D01*
X298888Y82374D01*
X298293Y82562D01*
X297704Y82765D01*
X297120Y82982D01*
X296541Y83213D01*
X295968Y83459D01*
X295401Y83719D01*
X294841Y83992D01*
X294288Y84279D01*
X293741Y84580D01*
X293203Y84894D01*
X292672Y85221D01*
X292150Y85561D01*
X291635Y85913D01*
X291130Y86279D01*
X290634Y86656D01*
X290147Y87046D01*
X289670Y87447D01*
X289203Y87860D01*
X288747Y88284D01*
X288300Y88719D01*
X258520Y118501D02*
X258073Y118936D01*
X257617Y119360D01*
X257150Y119773D01*
X256673Y120174D01*
X256186Y120564D01*
X255690Y120941D01*
X255185Y121307D01*
X254670Y121659D01*
X254148Y121999D01*
X253617Y122326D01*
X253079Y122640D01*
X252532Y122941D01*
X251979Y123228D01*
X251419Y123501D01*
X250852Y123761D01*
X250279Y124007D01*
X249700Y124238D01*
X249116Y124455D01*
X248527Y124658D01*
X247932Y124846D01*
X247334Y125020D01*
X246731Y125179D01*
X246124Y125323D01*
X245514Y125452D01*
X244901Y125566D01*
X244286Y125665D01*
X243668Y125749D01*
X243049Y125818D01*
X242428Y125871D01*
X241805Y125909D01*
X241182Y125932D01*
X240559Y125940D01*
X1587690Y88720D02*
X1610921Y111951D01*
X1569729Y81280D02*
X306261Y81280D01*
X288301Y88720D02*
X258520Y118501D01*
D16*
X151180Y125940D03*
X163880Y125940D03*
X176580Y125940D03*
D26*
X151180Y125940D01*
D20*
X163880Y125940D02*
X176580Y125940D01*
D25*
X240559Y125940D01*
M02*
