G04 EAGLE Gerber X2 export*
%TF.Part,Single*%
%TF.FileFunction,Other,silk bottom*%
%TF.FilePolarity,Positive*%
%TF.GenerationSoftware,Autodesk,EAGLE,9.5.2*%
%TF.CreationDate,2020-04-08T10:13:28Z*%
G75*
%MOMM*%
%FSLAX34Y34*%
%LPD*%
%INsilk bottom*%
%AMOC8*
5,1,8,0,0,1.08239X$1,22.5*%
G01*
%ADD10C,0.000000*%
%ADD11C,0.152400*%


D10*
X0Y232410D02*
X50800Y181610D01*
X50800Y100330D01*
X60960Y90170D01*
X60960Y59690D01*
X50800Y49530D01*
X50800Y6350D01*
X55880Y1270D01*
X213360Y1270D01*
X1236980Y210820D02*
X1236980Y270510D01*
D11*
X796324Y219744D02*
X788670Y212090D01*
X803395Y226815D02*
X811049Y234469D01*
X818120Y241540D02*
X825774Y249194D01*
X832846Y256266D02*
X840500Y263920D01*
X847571Y270991D02*
X855225Y278645D01*
X862296Y285716D02*
X869950Y293370D01*
X863600Y293370D02*
X784860Y214630D01*
X784860Y293370D01*
X863600Y293370D01*
X789686Y219456D02*
X784860Y219456D01*
X784860Y227584D02*
X797814Y227584D01*
X805942Y235712D02*
X784860Y235712D01*
X784860Y243840D02*
X814070Y243840D01*
X822198Y251968D02*
X784860Y251968D01*
X784860Y260096D02*
X830326Y260096D01*
X838454Y268224D02*
X784860Y268224D01*
X784860Y276352D02*
X846582Y276352D01*
X854710Y284480D02*
X784860Y284480D01*
X784860Y292608D02*
X862838Y292608D01*
X788416Y293370D02*
X788416Y218186D01*
X796544Y226314D02*
X796544Y293370D01*
X804672Y293370D02*
X804672Y234442D01*
X812800Y242570D02*
X812800Y293370D01*
X820928Y293370D02*
X820928Y250698D01*
X829056Y258826D02*
X829056Y293370D01*
X837184Y293370D02*
X837184Y266954D01*
X845312Y275082D02*
X845312Y293370D01*
X853440Y293370D02*
X853440Y283210D01*
X861568Y291338D02*
X861568Y293370D01*
X869699Y289900D02*
X875806Y283794D01*
X874110Y282097D01*
X874055Y282046D01*
X873998Y281997D01*
X873938Y281951D01*
X873876Y281908D01*
X873812Y281869D01*
X873745Y281833D01*
X873677Y281800D01*
X873608Y281772D01*
X873537Y281746D01*
X873464Y281725D01*
X873391Y281707D01*
X873317Y281694D01*
X873242Y281684D01*
X873167Y281678D01*
X873092Y281676D01*
X873017Y281678D01*
X872942Y281684D01*
X872867Y281694D01*
X872793Y281707D01*
X872720Y281725D01*
X872647Y281746D01*
X872576Y281772D01*
X872507Y281800D01*
X872439Y281833D01*
X872373Y281869D01*
X872308Y281908D01*
X872246Y281951D01*
X872186Y281997D01*
X872129Y282046D01*
X872075Y282097D01*
X872074Y282097D02*
X870039Y284133D01*
X870038Y284133D02*
X869988Y284186D01*
X869941Y284242D01*
X869896Y284299D01*
X869854Y284359D01*
X869816Y284421D01*
X869781Y284485D01*
X869748Y284550D01*
X869720Y284617D01*
X869694Y284686D01*
X869673Y284755D01*
X869654Y284826D01*
X869640Y284897D01*
X869629Y284969D01*
X869621Y285042D01*
X869617Y285115D01*
X869617Y285187D01*
X869621Y285260D01*
X869629Y285333D01*
X869640Y285405D01*
X869654Y285476D01*
X869673Y285547D01*
X869694Y285616D01*
X869720Y285685D01*
X869748Y285752D01*
X869781Y285817D01*
X869816Y285881D01*
X869854Y285943D01*
X869896Y286003D01*
X869941Y286060D01*
X869988Y286116D01*
X870038Y286169D01*
X870039Y286168D02*
X871735Y287865D01*
X869233Y277220D02*
X867536Y275524D01*
X869233Y277220D02*
X869283Y277273D01*
X869330Y277329D01*
X869375Y277386D01*
X869417Y277446D01*
X869455Y277508D01*
X869490Y277572D01*
X869523Y277637D01*
X869551Y277704D01*
X869577Y277773D01*
X869598Y277842D01*
X869617Y277913D01*
X869631Y277984D01*
X869642Y278056D01*
X869650Y278129D01*
X869654Y278202D01*
X869654Y278274D01*
X869650Y278347D01*
X869642Y278420D01*
X869631Y278492D01*
X869617Y278563D01*
X869598Y278634D01*
X869577Y278703D01*
X869551Y278772D01*
X869523Y278839D01*
X869490Y278904D01*
X869455Y278968D01*
X869417Y279030D01*
X869375Y279090D01*
X869330Y279147D01*
X869283Y279203D01*
X869233Y279256D01*
X869233Y279255D02*
X867536Y280952D01*
X867473Y281012D01*
X867407Y281070D01*
X867339Y281124D01*
X867268Y281175D01*
X867195Y281223D01*
X867120Y281268D01*
X867042Y281309D01*
X866964Y281346D01*
X866883Y281380D01*
X866801Y281410D01*
X866718Y281437D01*
X866633Y281459D01*
X866548Y281478D01*
X866462Y281493D01*
X866375Y281504D01*
X866288Y281511D01*
X866201Y281514D01*
X866113Y281513D01*
X866026Y281508D01*
X865939Y281499D01*
X865853Y281486D01*
X865767Y281469D01*
X865682Y281449D01*
X865598Y281424D01*
X865516Y281396D01*
X865435Y281364D01*
X865355Y281328D01*
X865277Y281289D01*
X865201Y281246D01*
X865127Y281200D01*
X865055Y281150D01*
X864985Y281097D01*
X864918Y281041D01*
X864853Y280982D01*
X864792Y280921D01*
X864733Y280856D01*
X864677Y280789D01*
X864624Y280719D01*
X864574Y280647D01*
X864528Y280573D01*
X864485Y280497D01*
X864446Y280419D01*
X864410Y280339D01*
X864378Y280258D01*
X864350Y280176D01*
X864325Y280092D01*
X864305Y280007D01*
X864288Y279921D01*
X864275Y279835D01*
X864266Y279748D01*
X864261Y279661D01*
X864260Y279573D01*
X864263Y279486D01*
X864270Y279399D01*
X864281Y279312D01*
X864296Y279226D01*
X864315Y279141D01*
X864337Y279056D01*
X864364Y278973D01*
X864394Y278891D01*
X864428Y278811D01*
X864465Y278732D01*
X864506Y278654D01*
X864551Y278579D01*
X864599Y278506D01*
X864650Y278435D01*
X864704Y278367D01*
X864762Y278301D01*
X864822Y278238D01*
X865501Y277559D01*
X868215Y280273D01*
X864431Y272419D02*
X860360Y276490D01*
X858664Y274793D01*
X858613Y274738D01*
X858564Y274681D01*
X858518Y274621D01*
X858475Y274559D01*
X858436Y274495D01*
X858400Y274428D01*
X858367Y274360D01*
X858339Y274291D01*
X858313Y274220D01*
X858292Y274147D01*
X858274Y274074D01*
X858261Y274000D01*
X858251Y273925D01*
X858245Y273850D01*
X858243Y273775D01*
X858245Y273700D01*
X858251Y273625D01*
X858261Y273550D01*
X858274Y273476D01*
X858292Y273403D01*
X858313Y273330D01*
X858339Y273259D01*
X858367Y273190D01*
X858400Y273122D01*
X858436Y273056D01*
X858475Y272991D01*
X858518Y272929D01*
X858564Y272869D01*
X858613Y272812D01*
X858664Y272758D01*
X861717Y269704D01*
X855946Y263933D02*
X849839Y270040D01*
X855946Y263933D02*
X857642Y265629D01*
X857692Y265682D01*
X857739Y265738D01*
X857784Y265795D01*
X857826Y265855D01*
X857864Y265917D01*
X857899Y265981D01*
X857932Y266046D01*
X857960Y266113D01*
X857986Y266182D01*
X858007Y266251D01*
X858026Y266322D01*
X858040Y266393D01*
X858051Y266465D01*
X858059Y266538D01*
X858063Y266611D01*
X858063Y266683D01*
X858059Y266756D01*
X858051Y266829D01*
X858040Y266901D01*
X858026Y266972D01*
X858007Y267043D01*
X857986Y267112D01*
X857960Y267181D01*
X857932Y267248D01*
X857899Y267313D01*
X857864Y267377D01*
X857826Y267439D01*
X857784Y267499D01*
X857739Y267556D01*
X857692Y267612D01*
X857642Y267665D01*
X855607Y269700D01*
X855607Y269701D02*
X855552Y269752D01*
X855495Y269801D01*
X855435Y269847D01*
X855373Y269890D01*
X855309Y269929D01*
X855242Y269965D01*
X855174Y269998D01*
X855105Y270026D01*
X855034Y270052D01*
X854961Y270073D01*
X854888Y270091D01*
X854814Y270104D01*
X854739Y270114D01*
X854664Y270120D01*
X854589Y270122D01*
X854514Y270120D01*
X854439Y270114D01*
X854364Y270104D01*
X854290Y270091D01*
X854217Y270073D01*
X854144Y270052D01*
X854073Y270026D01*
X854004Y269998D01*
X853936Y269965D01*
X853870Y269929D01*
X853805Y269890D01*
X853743Y269847D01*
X853683Y269801D01*
X853626Y269752D01*
X853571Y269701D01*
X853571Y269700D02*
X851875Y268004D01*
X848316Y256303D02*
X846959Y254946D01*
X848316Y256303D02*
X848366Y256356D01*
X848413Y256412D01*
X848458Y256469D01*
X848500Y256529D01*
X848538Y256591D01*
X848573Y256655D01*
X848606Y256720D01*
X848634Y256787D01*
X848660Y256856D01*
X848681Y256925D01*
X848700Y256996D01*
X848714Y257067D01*
X848725Y257139D01*
X848733Y257212D01*
X848737Y257285D01*
X848737Y257357D01*
X848733Y257430D01*
X848725Y257503D01*
X848714Y257575D01*
X848700Y257646D01*
X848681Y257717D01*
X848660Y257786D01*
X848634Y257855D01*
X848606Y257922D01*
X848573Y257987D01*
X848538Y258051D01*
X848500Y258113D01*
X848458Y258173D01*
X848413Y258230D01*
X848366Y258286D01*
X848316Y258339D01*
X846280Y260374D01*
X846281Y260374D02*
X846226Y260425D01*
X846169Y260474D01*
X846109Y260520D01*
X846047Y260563D01*
X845983Y260602D01*
X845916Y260638D01*
X845848Y260671D01*
X845779Y260699D01*
X845708Y260725D01*
X845635Y260746D01*
X845562Y260764D01*
X845488Y260777D01*
X845413Y260787D01*
X845338Y260793D01*
X845263Y260795D01*
X845188Y260793D01*
X845113Y260787D01*
X845038Y260777D01*
X844964Y260764D01*
X844891Y260746D01*
X844818Y260725D01*
X844747Y260699D01*
X844678Y260671D01*
X844610Y260638D01*
X844544Y260602D01*
X844479Y260563D01*
X844417Y260520D01*
X844357Y260474D01*
X844300Y260425D01*
X844245Y260374D01*
X842888Y259017D01*
X840873Y253610D02*
X839347Y252083D01*
X840874Y253610D02*
X840932Y253666D01*
X840994Y253719D01*
X841058Y253769D01*
X841124Y253816D01*
X841192Y253860D01*
X841263Y253900D01*
X841335Y253937D01*
X841409Y253970D01*
X841485Y254000D01*
X841561Y254026D01*
X841640Y254048D01*
X841719Y254067D01*
X841798Y254081D01*
X841879Y254092D01*
X841960Y254099D01*
X842041Y254102D01*
X842122Y254101D01*
X842203Y254096D01*
X842283Y254087D01*
X842364Y254074D01*
X842443Y254058D01*
X842522Y254038D01*
X842599Y254013D01*
X842675Y253986D01*
X842750Y253954D01*
X842823Y253919D01*
X842895Y253880D01*
X842964Y253838D01*
X843031Y253793D01*
X843096Y253745D01*
X843159Y253693D01*
X843219Y253639D01*
X843277Y253581D01*
X843331Y253521D01*
X843383Y253458D01*
X843431Y253393D01*
X843476Y253326D01*
X843518Y253257D01*
X843557Y253185D01*
X843592Y253112D01*
X843624Y253037D01*
X843651Y252961D01*
X843676Y252884D01*
X843696Y252805D01*
X843712Y252726D01*
X843725Y252645D01*
X843734Y252565D01*
X843739Y252484D01*
X843740Y252403D01*
X843737Y252322D01*
X843730Y252241D01*
X843719Y252160D01*
X843705Y252081D01*
X843686Y252002D01*
X843664Y251923D01*
X843638Y251847D01*
X843608Y251771D01*
X843575Y251697D01*
X843538Y251625D01*
X843498Y251554D01*
X843454Y251486D01*
X843407Y251420D01*
X843357Y251356D01*
X843304Y251294D01*
X843248Y251236D01*
X843248Y251235D02*
X841721Y249708D01*
X838668Y252762D01*
X838618Y252815D01*
X838571Y252871D01*
X838526Y252928D01*
X838484Y252988D01*
X838446Y253050D01*
X838411Y253114D01*
X838378Y253179D01*
X838350Y253246D01*
X838324Y253315D01*
X838303Y253384D01*
X838284Y253455D01*
X838270Y253526D01*
X838259Y253598D01*
X838251Y253671D01*
X838247Y253744D01*
X838247Y253816D01*
X838251Y253889D01*
X838259Y253962D01*
X838270Y254034D01*
X838284Y254105D01*
X838303Y254176D01*
X838324Y254245D01*
X838350Y254314D01*
X838378Y254381D01*
X838411Y254446D01*
X838446Y254510D01*
X838484Y254572D01*
X838526Y254632D01*
X838571Y254689D01*
X838618Y254745D01*
X838669Y254798D01*
X838668Y254797D02*
X840025Y256154D01*
X832198Y252399D02*
X838305Y246292D01*
X836609Y244596D01*
X836554Y244545D01*
X836497Y244496D01*
X836437Y244450D01*
X836375Y244407D01*
X836311Y244368D01*
X836244Y244332D01*
X836176Y244299D01*
X836107Y244271D01*
X836036Y244245D01*
X835963Y244224D01*
X835890Y244206D01*
X835816Y244193D01*
X835741Y244183D01*
X835666Y244177D01*
X835591Y244175D01*
X835516Y244177D01*
X835441Y244183D01*
X835366Y244193D01*
X835292Y244206D01*
X835219Y244224D01*
X835146Y244245D01*
X835075Y244271D01*
X835006Y244299D01*
X834938Y244332D01*
X834872Y244368D01*
X834807Y244407D01*
X834745Y244450D01*
X834685Y244496D01*
X834628Y244545D01*
X834574Y244596D01*
X834573Y244596D02*
X832538Y246631D01*
X832537Y246631D02*
X832487Y246684D01*
X832440Y246740D01*
X832395Y246797D01*
X832353Y246857D01*
X832315Y246919D01*
X832280Y246983D01*
X832247Y247048D01*
X832219Y247115D01*
X832193Y247184D01*
X832172Y247253D01*
X832153Y247324D01*
X832139Y247395D01*
X832128Y247467D01*
X832120Y247540D01*
X832116Y247613D01*
X832116Y247685D01*
X832120Y247758D01*
X832128Y247831D01*
X832139Y247903D01*
X832153Y247974D01*
X832172Y248045D01*
X832193Y248114D01*
X832219Y248183D01*
X832247Y248250D01*
X832280Y248315D01*
X832315Y248379D01*
X832353Y248441D01*
X832395Y248501D01*
X832440Y248558D01*
X832487Y248614D01*
X832537Y248667D01*
X832538Y248667D02*
X834234Y250363D01*
X826615Y246815D02*
X831704Y241727D01*
X831755Y241672D01*
X831804Y241615D01*
X831850Y241555D01*
X831893Y241493D01*
X831932Y241429D01*
X831968Y241362D01*
X832001Y241294D01*
X832029Y241225D01*
X832055Y241154D01*
X832076Y241081D01*
X832094Y241008D01*
X832107Y240934D01*
X832117Y240859D01*
X832123Y240784D01*
X832125Y240709D01*
X832123Y240634D01*
X832117Y240559D01*
X832107Y240484D01*
X832094Y240410D01*
X832076Y240337D01*
X832055Y240264D01*
X832029Y240193D01*
X832001Y240124D01*
X831968Y240056D01*
X831932Y239990D01*
X831893Y239925D01*
X831850Y239863D01*
X831804Y239803D01*
X831755Y239746D01*
X831704Y239691D01*
X828283Y236270D02*
X826587Y234574D01*
X828283Y236270D02*
X828333Y236323D01*
X828380Y236379D01*
X828425Y236436D01*
X828467Y236496D01*
X828505Y236558D01*
X828540Y236622D01*
X828573Y236687D01*
X828601Y236754D01*
X828627Y236823D01*
X828648Y236892D01*
X828667Y236963D01*
X828681Y237034D01*
X828692Y237106D01*
X828700Y237179D01*
X828704Y237252D01*
X828704Y237324D01*
X828700Y237397D01*
X828692Y237470D01*
X828681Y237542D01*
X828667Y237613D01*
X828648Y237684D01*
X828627Y237753D01*
X828601Y237822D01*
X828573Y237889D01*
X828540Y237954D01*
X828505Y238018D01*
X828467Y238080D01*
X828425Y238140D01*
X828380Y238197D01*
X828333Y238253D01*
X828283Y238306D01*
X826587Y240002D01*
X826524Y240062D01*
X826458Y240120D01*
X826390Y240174D01*
X826319Y240225D01*
X826246Y240273D01*
X826171Y240318D01*
X826093Y240359D01*
X826015Y240396D01*
X825934Y240430D01*
X825852Y240460D01*
X825769Y240487D01*
X825684Y240509D01*
X825599Y240528D01*
X825513Y240543D01*
X825426Y240554D01*
X825339Y240561D01*
X825252Y240564D01*
X825164Y240563D01*
X825077Y240558D01*
X824990Y240549D01*
X824904Y240536D01*
X824818Y240519D01*
X824733Y240499D01*
X824649Y240474D01*
X824567Y240446D01*
X824486Y240414D01*
X824406Y240378D01*
X824328Y240339D01*
X824252Y240296D01*
X824178Y240250D01*
X824106Y240200D01*
X824036Y240147D01*
X823969Y240091D01*
X823904Y240032D01*
X823843Y239971D01*
X823784Y239906D01*
X823728Y239839D01*
X823675Y239769D01*
X823625Y239697D01*
X823579Y239623D01*
X823536Y239547D01*
X823497Y239469D01*
X823461Y239389D01*
X823429Y239308D01*
X823401Y239226D01*
X823376Y239142D01*
X823356Y239057D01*
X823339Y238971D01*
X823326Y238885D01*
X823317Y238798D01*
X823312Y238711D01*
X823311Y238623D01*
X823314Y238536D01*
X823321Y238449D01*
X823332Y238362D01*
X823347Y238276D01*
X823366Y238191D01*
X823388Y238106D01*
X823415Y238023D01*
X823445Y237941D01*
X823479Y237861D01*
X823516Y237782D01*
X823557Y237704D01*
X823602Y237629D01*
X823650Y237556D01*
X823701Y237485D01*
X823755Y237417D01*
X823813Y237351D01*
X823873Y237288D01*
X824551Y236609D01*
X827265Y239323D01*
X820033Y228020D02*
X813927Y234127D01*
X815962Y232091D02*
X814266Y230395D01*
X814215Y230340D01*
X814166Y230283D01*
X814120Y230223D01*
X814077Y230161D01*
X814038Y230097D01*
X814002Y230030D01*
X813969Y229962D01*
X813941Y229893D01*
X813915Y229822D01*
X813894Y229749D01*
X813876Y229676D01*
X813863Y229602D01*
X813853Y229527D01*
X813847Y229452D01*
X813845Y229377D01*
X813847Y229302D01*
X813853Y229227D01*
X813863Y229152D01*
X813876Y229078D01*
X813894Y229005D01*
X813915Y228932D01*
X813941Y228861D01*
X813969Y228792D01*
X814002Y228724D01*
X814038Y228658D01*
X814077Y228593D01*
X814120Y228531D01*
X814166Y228471D01*
X814215Y228414D01*
X814266Y228360D01*
X814266Y228359D02*
X817319Y225306D01*
X813196Y221183D02*
X811500Y219487D01*
X813197Y221183D02*
X813247Y221236D01*
X813294Y221292D01*
X813339Y221349D01*
X813381Y221409D01*
X813419Y221471D01*
X813454Y221535D01*
X813487Y221600D01*
X813515Y221667D01*
X813541Y221736D01*
X813562Y221805D01*
X813581Y221876D01*
X813595Y221947D01*
X813606Y222019D01*
X813614Y222092D01*
X813618Y222165D01*
X813618Y222237D01*
X813614Y222310D01*
X813606Y222383D01*
X813595Y222455D01*
X813581Y222526D01*
X813562Y222597D01*
X813541Y222666D01*
X813515Y222735D01*
X813487Y222802D01*
X813454Y222867D01*
X813419Y222931D01*
X813381Y222993D01*
X813339Y223053D01*
X813294Y223110D01*
X813247Y223166D01*
X813197Y223219D01*
X813196Y223219D02*
X811500Y224915D01*
X811437Y224975D01*
X811371Y225033D01*
X811303Y225087D01*
X811232Y225138D01*
X811159Y225186D01*
X811084Y225231D01*
X811006Y225272D01*
X810928Y225309D01*
X810847Y225343D01*
X810765Y225373D01*
X810682Y225400D01*
X810597Y225422D01*
X810512Y225441D01*
X810426Y225456D01*
X810339Y225467D01*
X810252Y225474D01*
X810165Y225477D01*
X810077Y225476D01*
X809990Y225471D01*
X809903Y225462D01*
X809817Y225449D01*
X809731Y225432D01*
X809646Y225412D01*
X809562Y225387D01*
X809480Y225359D01*
X809399Y225327D01*
X809319Y225291D01*
X809241Y225252D01*
X809165Y225209D01*
X809091Y225163D01*
X809019Y225113D01*
X808949Y225060D01*
X808882Y225004D01*
X808817Y224945D01*
X808756Y224884D01*
X808697Y224819D01*
X808641Y224752D01*
X808588Y224682D01*
X808538Y224610D01*
X808492Y224536D01*
X808449Y224460D01*
X808410Y224382D01*
X808374Y224302D01*
X808342Y224221D01*
X808314Y224139D01*
X808289Y224055D01*
X808269Y223970D01*
X808252Y223884D01*
X808239Y223798D01*
X808230Y223711D01*
X808225Y223624D01*
X808224Y223536D01*
X808227Y223449D01*
X808234Y223362D01*
X808245Y223275D01*
X808260Y223189D01*
X808279Y223104D01*
X808301Y223019D01*
X808328Y222936D01*
X808358Y222854D01*
X808392Y222774D01*
X808429Y222695D01*
X808470Y222617D01*
X808515Y222542D01*
X808563Y222469D01*
X808614Y222398D01*
X808668Y222330D01*
X808726Y222264D01*
X808786Y222201D01*
X809465Y221522D01*
X812179Y224236D01*
X808341Y216328D02*
X804270Y220399D01*
X802234Y218363D01*
X802913Y217685D01*
X803067Y211053D02*
X801371Y209357D01*
X803067Y211053D02*
X803117Y211106D01*
X803164Y211162D01*
X803209Y211219D01*
X803251Y211279D01*
X803289Y211341D01*
X803324Y211405D01*
X803357Y211470D01*
X803385Y211537D01*
X803411Y211606D01*
X803432Y211675D01*
X803451Y211746D01*
X803465Y211817D01*
X803476Y211889D01*
X803484Y211962D01*
X803488Y212035D01*
X803488Y212107D01*
X803484Y212180D01*
X803476Y212253D01*
X803465Y212325D01*
X803451Y212396D01*
X803432Y212467D01*
X803411Y212536D01*
X803385Y212605D01*
X803357Y212672D01*
X803324Y212737D01*
X803289Y212801D01*
X803251Y212863D01*
X803209Y212923D01*
X803164Y212980D01*
X803117Y213036D01*
X803067Y213089D01*
X801371Y214785D01*
X801308Y214845D01*
X801242Y214903D01*
X801174Y214957D01*
X801103Y215008D01*
X801030Y215056D01*
X800955Y215101D01*
X800877Y215142D01*
X800799Y215179D01*
X800718Y215213D01*
X800636Y215243D01*
X800553Y215270D01*
X800468Y215292D01*
X800383Y215311D01*
X800297Y215326D01*
X800210Y215337D01*
X800123Y215344D01*
X800036Y215347D01*
X799948Y215346D01*
X799861Y215341D01*
X799774Y215332D01*
X799688Y215319D01*
X799602Y215302D01*
X799517Y215282D01*
X799433Y215257D01*
X799351Y215229D01*
X799270Y215197D01*
X799190Y215161D01*
X799112Y215122D01*
X799036Y215079D01*
X798962Y215033D01*
X798890Y214983D01*
X798820Y214930D01*
X798753Y214874D01*
X798688Y214815D01*
X798627Y214754D01*
X798568Y214689D01*
X798512Y214622D01*
X798459Y214552D01*
X798409Y214480D01*
X798363Y214406D01*
X798320Y214330D01*
X798281Y214252D01*
X798245Y214172D01*
X798213Y214091D01*
X798185Y214009D01*
X798160Y213925D01*
X798140Y213840D01*
X798123Y213754D01*
X798110Y213668D01*
X798101Y213581D01*
X798096Y213494D01*
X798095Y213406D01*
X798098Y213319D01*
X798105Y213232D01*
X798116Y213145D01*
X798131Y213059D01*
X798150Y212974D01*
X798172Y212889D01*
X798199Y212806D01*
X798229Y212724D01*
X798263Y212644D01*
X798300Y212565D01*
X798341Y212487D01*
X798386Y212412D01*
X798434Y212339D01*
X798485Y212268D01*
X798539Y212200D01*
X798597Y212134D01*
X798657Y212071D01*
X799335Y211393D01*
X802049Y214107D01*
X107188Y145020D02*
X98552Y145020D01*
X98552Y147419D01*
X98554Y147494D01*
X98560Y147569D01*
X98570Y147644D01*
X98583Y147718D01*
X98601Y147791D01*
X98622Y147864D01*
X98648Y147935D01*
X98676Y148004D01*
X98709Y148072D01*
X98745Y148138D01*
X98784Y148203D01*
X98827Y148265D01*
X98873Y148325D01*
X98922Y148382D01*
X98973Y148437D01*
X99028Y148488D01*
X99085Y148537D01*
X99145Y148583D01*
X99207Y148626D01*
X99271Y148665D01*
X99338Y148701D01*
X99406Y148734D01*
X99475Y148762D01*
X99546Y148788D01*
X99619Y148809D01*
X99692Y148827D01*
X99766Y148840D01*
X99841Y148850D01*
X99916Y148856D01*
X99991Y148858D01*
X102870Y148858D01*
X102945Y148856D01*
X103020Y148850D01*
X103095Y148840D01*
X103169Y148827D01*
X103242Y148809D01*
X103315Y148788D01*
X103386Y148762D01*
X103455Y148734D01*
X103523Y148701D01*
X103590Y148665D01*
X103654Y148626D01*
X103716Y148583D01*
X103776Y148537D01*
X103833Y148488D01*
X103888Y148437D01*
X103939Y148382D01*
X103988Y148325D01*
X104034Y148265D01*
X104077Y148203D01*
X104116Y148139D01*
X104152Y148072D01*
X104185Y148004D01*
X104213Y147935D01*
X104239Y147864D01*
X104260Y147791D01*
X104278Y147718D01*
X104291Y147644D01*
X104301Y147569D01*
X104307Y147494D01*
X104309Y147419D01*
X104309Y145020D01*
X98552Y154317D02*
X98552Y156715D01*
X98552Y154317D02*
X98554Y154242D01*
X98560Y154167D01*
X98570Y154092D01*
X98583Y154018D01*
X98601Y153945D01*
X98622Y153872D01*
X98648Y153801D01*
X98676Y153732D01*
X98709Y153664D01*
X98745Y153598D01*
X98784Y153533D01*
X98827Y153471D01*
X98873Y153411D01*
X98922Y153354D01*
X98973Y153299D01*
X99028Y153248D01*
X99085Y153199D01*
X99145Y153153D01*
X99207Y153110D01*
X99272Y153071D01*
X99338Y153035D01*
X99406Y153002D01*
X99475Y152974D01*
X99546Y152948D01*
X99619Y152927D01*
X99692Y152909D01*
X99766Y152896D01*
X99841Y152886D01*
X99916Y152880D01*
X99991Y152878D01*
X99991Y152877D02*
X102390Y152877D01*
X102476Y152879D01*
X102562Y152885D01*
X102648Y152894D01*
X102733Y152908D01*
X102817Y152925D01*
X102901Y152946D01*
X102983Y152971D01*
X103064Y152999D01*
X103144Y153031D01*
X103223Y153067D01*
X103299Y153106D01*
X103374Y153149D01*
X103447Y153194D01*
X103518Y153243D01*
X103586Y153296D01*
X103653Y153351D01*
X103716Y153409D01*
X103777Y153470D01*
X103835Y153533D01*
X103890Y153600D01*
X103943Y153668D01*
X103992Y153739D01*
X104037Y153812D01*
X104080Y153887D01*
X104119Y153963D01*
X104155Y154042D01*
X104187Y154122D01*
X104215Y154203D01*
X104240Y154285D01*
X104261Y154369D01*
X104278Y154453D01*
X104292Y154538D01*
X104301Y154624D01*
X104307Y154710D01*
X104309Y154796D01*
X104307Y154882D01*
X104301Y154968D01*
X104292Y155054D01*
X104278Y155139D01*
X104261Y155223D01*
X104240Y155307D01*
X104215Y155389D01*
X104187Y155470D01*
X104155Y155550D01*
X104119Y155629D01*
X104080Y155705D01*
X104037Y155780D01*
X103992Y155853D01*
X103943Y155924D01*
X103890Y155992D01*
X103835Y156059D01*
X103777Y156122D01*
X103716Y156183D01*
X103653Y156241D01*
X103586Y156296D01*
X103518Y156349D01*
X103447Y156398D01*
X103374Y156443D01*
X103299Y156486D01*
X103223Y156525D01*
X103144Y156561D01*
X103064Y156593D01*
X102983Y156621D01*
X102901Y156646D01*
X102817Y156667D01*
X102733Y156684D01*
X102648Y156698D01*
X102562Y156707D01*
X102476Y156713D01*
X102390Y156715D01*
X101431Y156715D01*
X101431Y152877D01*
X104309Y161107D02*
X98552Y161107D01*
X104309Y161107D02*
X104309Y163506D01*
X104307Y163581D01*
X104301Y163656D01*
X104291Y163731D01*
X104278Y163805D01*
X104260Y163878D01*
X104239Y163951D01*
X104213Y164022D01*
X104185Y164091D01*
X104152Y164159D01*
X104116Y164226D01*
X104077Y164290D01*
X104034Y164352D01*
X103988Y164412D01*
X103939Y164469D01*
X103888Y164524D01*
X103833Y164575D01*
X103776Y164624D01*
X103716Y164670D01*
X103654Y164713D01*
X103590Y164752D01*
X103523Y164788D01*
X103455Y164821D01*
X103386Y164849D01*
X103315Y164875D01*
X103242Y164896D01*
X103169Y164914D01*
X103095Y164927D01*
X103020Y164937D01*
X102945Y164943D01*
X102870Y164945D01*
X98552Y164945D01*
X98552Y173107D02*
X107188Y173107D01*
X98552Y173107D02*
X98552Y170708D01*
X98554Y170633D01*
X98560Y170558D01*
X98570Y170483D01*
X98583Y170409D01*
X98601Y170336D01*
X98622Y170263D01*
X98648Y170192D01*
X98676Y170123D01*
X98709Y170055D01*
X98745Y169989D01*
X98784Y169924D01*
X98827Y169862D01*
X98873Y169802D01*
X98922Y169745D01*
X98973Y169690D01*
X99028Y169639D01*
X99085Y169590D01*
X99145Y169544D01*
X99207Y169501D01*
X99272Y169462D01*
X99338Y169426D01*
X99406Y169393D01*
X99475Y169365D01*
X99546Y169339D01*
X99619Y169318D01*
X99692Y169300D01*
X99766Y169287D01*
X99841Y169277D01*
X99916Y169271D01*
X99991Y169269D01*
X102870Y169269D01*
X102945Y169271D01*
X103020Y169277D01*
X103095Y169287D01*
X103169Y169300D01*
X103242Y169318D01*
X103315Y169339D01*
X103386Y169365D01*
X103455Y169393D01*
X103523Y169426D01*
X103590Y169462D01*
X103654Y169501D01*
X103716Y169544D01*
X103776Y169590D01*
X103833Y169639D01*
X103888Y169690D01*
X103939Y169745D01*
X103988Y169802D01*
X104034Y169862D01*
X104077Y169924D01*
X104116Y169989D01*
X104152Y170055D01*
X104185Y170123D01*
X104213Y170192D01*
X104239Y170263D01*
X104260Y170336D01*
X104278Y170409D01*
X104291Y170483D01*
X104301Y170558D01*
X104307Y170633D01*
X104309Y170708D01*
X104309Y173107D01*
X101910Y184054D02*
X101910Y186213D01*
X101910Y184054D02*
X101908Y183973D01*
X101902Y183892D01*
X101892Y183811D01*
X101879Y183731D01*
X101861Y183652D01*
X101840Y183574D01*
X101815Y183497D01*
X101786Y183421D01*
X101754Y183346D01*
X101718Y183274D01*
X101678Y183203D01*
X101635Y183134D01*
X101589Y183067D01*
X101540Y183003D01*
X101488Y182941D01*
X101432Y182881D01*
X101374Y182825D01*
X101314Y182771D01*
X101250Y182720D01*
X101185Y182672D01*
X101117Y182628D01*
X101047Y182587D01*
X100975Y182549D01*
X100902Y182515D01*
X100826Y182484D01*
X100750Y182457D01*
X100672Y182434D01*
X100593Y182415D01*
X100514Y182399D01*
X100433Y182387D01*
X100353Y182379D01*
X100272Y182375D01*
X100190Y182375D01*
X100109Y182379D01*
X100029Y182387D01*
X99948Y182399D01*
X99869Y182415D01*
X99790Y182434D01*
X99712Y182457D01*
X99636Y182484D01*
X99560Y182515D01*
X99487Y182549D01*
X99415Y182587D01*
X99345Y182628D01*
X99277Y182672D01*
X99212Y182720D01*
X99148Y182771D01*
X99088Y182825D01*
X99030Y182881D01*
X98974Y182941D01*
X98922Y183003D01*
X98873Y183067D01*
X98827Y183134D01*
X98784Y183203D01*
X98744Y183274D01*
X98708Y183346D01*
X98676Y183421D01*
X98647Y183497D01*
X98622Y183574D01*
X98601Y183652D01*
X98583Y183731D01*
X98570Y183811D01*
X98560Y183892D01*
X98554Y183973D01*
X98552Y184054D01*
X98552Y186213D01*
X102870Y186213D01*
X102945Y186211D01*
X103020Y186205D01*
X103095Y186195D01*
X103169Y186182D01*
X103242Y186164D01*
X103315Y186143D01*
X103386Y186117D01*
X103455Y186089D01*
X103523Y186056D01*
X103590Y186020D01*
X103654Y185981D01*
X103716Y185938D01*
X103776Y185892D01*
X103833Y185843D01*
X103888Y185792D01*
X103939Y185737D01*
X103988Y185680D01*
X104034Y185620D01*
X104077Y185558D01*
X104116Y185494D01*
X104152Y185427D01*
X104185Y185359D01*
X104213Y185290D01*
X104239Y185219D01*
X104260Y185146D01*
X104278Y185073D01*
X104291Y184999D01*
X104301Y184924D01*
X104307Y184849D01*
X104309Y184774D01*
X104309Y182855D01*
X104309Y191053D02*
X98552Y191053D01*
X104309Y191053D02*
X104309Y193932D01*
X103350Y193932D01*
X102390Y197073D02*
X100471Y197073D01*
X102390Y197073D02*
X102476Y197075D01*
X102562Y197081D01*
X102648Y197090D01*
X102733Y197104D01*
X102817Y197121D01*
X102901Y197142D01*
X102983Y197167D01*
X103064Y197195D01*
X103144Y197227D01*
X103223Y197263D01*
X103299Y197302D01*
X103374Y197345D01*
X103447Y197390D01*
X103518Y197439D01*
X103586Y197492D01*
X103653Y197547D01*
X103716Y197605D01*
X103777Y197666D01*
X103835Y197729D01*
X103890Y197796D01*
X103943Y197864D01*
X103992Y197935D01*
X104037Y198008D01*
X104080Y198083D01*
X104119Y198159D01*
X104155Y198238D01*
X104187Y198318D01*
X104215Y198399D01*
X104240Y198481D01*
X104261Y198565D01*
X104278Y198649D01*
X104292Y198734D01*
X104301Y198820D01*
X104307Y198906D01*
X104309Y198992D01*
X104307Y199078D01*
X104301Y199164D01*
X104292Y199250D01*
X104278Y199335D01*
X104261Y199419D01*
X104240Y199503D01*
X104215Y199585D01*
X104187Y199666D01*
X104155Y199746D01*
X104119Y199825D01*
X104080Y199901D01*
X104037Y199976D01*
X103992Y200049D01*
X103943Y200120D01*
X103890Y200188D01*
X103835Y200255D01*
X103777Y200318D01*
X103716Y200379D01*
X103653Y200437D01*
X103586Y200492D01*
X103518Y200545D01*
X103447Y200594D01*
X103374Y200639D01*
X103299Y200682D01*
X103223Y200721D01*
X103144Y200757D01*
X103064Y200789D01*
X102983Y200817D01*
X102901Y200842D01*
X102817Y200863D01*
X102733Y200880D01*
X102648Y200894D01*
X102562Y200903D01*
X102476Y200909D01*
X102390Y200911D01*
X100471Y200911D01*
X100385Y200909D01*
X100299Y200903D01*
X100213Y200894D01*
X100128Y200880D01*
X100044Y200863D01*
X99960Y200842D01*
X99878Y200817D01*
X99797Y200789D01*
X99717Y200757D01*
X99638Y200721D01*
X99562Y200682D01*
X99487Y200639D01*
X99414Y200594D01*
X99343Y200545D01*
X99275Y200492D01*
X99208Y200437D01*
X99145Y200379D01*
X99084Y200318D01*
X99026Y200255D01*
X98971Y200188D01*
X98918Y200120D01*
X98869Y200049D01*
X98824Y199976D01*
X98781Y199901D01*
X98742Y199825D01*
X98706Y199746D01*
X98674Y199666D01*
X98646Y199585D01*
X98621Y199503D01*
X98600Y199419D01*
X98583Y199335D01*
X98569Y199250D01*
X98560Y199164D01*
X98554Y199078D01*
X98552Y198992D01*
X98554Y198906D01*
X98560Y198820D01*
X98569Y198734D01*
X98583Y198649D01*
X98600Y198565D01*
X98621Y198481D01*
X98646Y198399D01*
X98674Y198318D01*
X98706Y198238D01*
X98742Y198159D01*
X98781Y198083D01*
X98824Y198008D01*
X98869Y197935D01*
X98918Y197864D01*
X98971Y197796D01*
X99026Y197729D01*
X99084Y197666D01*
X99145Y197605D01*
X99208Y197547D01*
X99275Y197492D01*
X99343Y197439D01*
X99414Y197390D01*
X99487Y197345D01*
X99562Y197302D01*
X99638Y197263D01*
X99717Y197227D01*
X99797Y197195D01*
X99878Y197167D01*
X99960Y197142D01*
X100044Y197121D01*
X100128Y197104D01*
X100213Y197090D01*
X100299Y197081D01*
X100385Y197075D01*
X100471Y197073D01*
X99991Y205303D02*
X104309Y205303D01*
X99991Y205303D02*
X99916Y205305D01*
X99841Y205311D01*
X99766Y205321D01*
X99692Y205334D01*
X99619Y205352D01*
X99546Y205373D01*
X99475Y205399D01*
X99406Y205427D01*
X99338Y205460D01*
X99272Y205496D01*
X99207Y205535D01*
X99145Y205578D01*
X99085Y205624D01*
X99028Y205673D01*
X98973Y205724D01*
X98922Y205779D01*
X98873Y205836D01*
X98827Y205896D01*
X98784Y205958D01*
X98745Y206023D01*
X98709Y206089D01*
X98676Y206157D01*
X98648Y206226D01*
X98622Y206297D01*
X98601Y206370D01*
X98583Y206443D01*
X98570Y206517D01*
X98560Y206592D01*
X98554Y206667D01*
X98552Y206742D01*
X98552Y209141D01*
X104309Y209141D01*
X104309Y213837D02*
X98552Y213837D01*
X104309Y213837D02*
X104309Y216236D01*
X104307Y216311D01*
X104301Y216386D01*
X104291Y216461D01*
X104278Y216535D01*
X104260Y216608D01*
X104239Y216681D01*
X104213Y216752D01*
X104185Y216821D01*
X104152Y216889D01*
X104116Y216956D01*
X104077Y217020D01*
X104034Y217082D01*
X103988Y217142D01*
X103939Y217199D01*
X103888Y217254D01*
X103833Y217305D01*
X103776Y217354D01*
X103716Y217400D01*
X103654Y217443D01*
X103590Y217482D01*
X103523Y217518D01*
X103455Y217551D01*
X103386Y217579D01*
X103315Y217605D01*
X103242Y217626D01*
X103169Y217644D01*
X103095Y217657D01*
X103020Y217667D01*
X102945Y217673D01*
X102870Y217675D01*
X98552Y217675D01*
X98552Y225837D02*
X107188Y225837D01*
X98552Y225837D02*
X98552Y223438D01*
X98554Y223363D01*
X98560Y223288D01*
X98570Y223213D01*
X98583Y223139D01*
X98601Y223066D01*
X98622Y222993D01*
X98648Y222922D01*
X98676Y222853D01*
X98709Y222785D01*
X98745Y222719D01*
X98784Y222654D01*
X98827Y222592D01*
X98873Y222532D01*
X98922Y222475D01*
X98973Y222420D01*
X99028Y222369D01*
X99085Y222320D01*
X99145Y222274D01*
X99207Y222231D01*
X99272Y222192D01*
X99338Y222156D01*
X99406Y222123D01*
X99475Y222095D01*
X99546Y222069D01*
X99619Y222048D01*
X99692Y222030D01*
X99766Y222017D01*
X99841Y222007D01*
X99916Y222001D01*
X99991Y221999D01*
X102870Y221999D01*
X102945Y222001D01*
X103020Y222007D01*
X103095Y222017D01*
X103169Y222030D01*
X103242Y222048D01*
X103315Y222069D01*
X103386Y222095D01*
X103455Y222123D01*
X103523Y222156D01*
X103590Y222192D01*
X103654Y222231D01*
X103716Y222274D01*
X103776Y222320D01*
X103833Y222369D01*
X103888Y222420D01*
X103939Y222475D01*
X103988Y222532D01*
X104034Y222592D01*
X104077Y222654D01*
X104116Y222719D01*
X104152Y222785D01*
X104185Y222853D01*
X104213Y222922D01*
X104239Y222993D01*
X104260Y223066D01*
X104278Y223139D01*
X104291Y223213D01*
X104301Y223288D01*
X104307Y223363D01*
X104309Y223438D01*
X104309Y225837D01*
X107188Y235478D02*
X98552Y235478D01*
X104309Y235478D02*
X104309Y237876D01*
X104307Y237951D01*
X104301Y238026D01*
X104291Y238101D01*
X104278Y238175D01*
X104260Y238248D01*
X104239Y238321D01*
X104213Y238392D01*
X104185Y238461D01*
X104152Y238529D01*
X104116Y238596D01*
X104077Y238660D01*
X104034Y238722D01*
X103988Y238782D01*
X103939Y238839D01*
X103888Y238894D01*
X103833Y238945D01*
X103776Y238994D01*
X103716Y239040D01*
X103654Y239083D01*
X103590Y239122D01*
X103523Y239158D01*
X103455Y239191D01*
X103386Y239219D01*
X103315Y239245D01*
X103242Y239266D01*
X103169Y239284D01*
X103095Y239297D01*
X103020Y239307D01*
X102945Y239313D01*
X102870Y239315D01*
X102870Y239316D02*
X98552Y239316D01*
X98552Y245146D02*
X98552Y247545D01*
X98552Y245146D02*
X98554Y245071D01*
X98560Y244996D01*
X98570Y244921D01*
X98583Y244847D01*
X98601Y244774D01*
X98622Y244701D01*
X98648Y244630D01*
X98676Y244561D01*
X98709Y244493D01*
X98745Y244427D01*
X98784Y244362D01*
X98827Y244300D01*
X98873Y244240D01*
X98922Y244183D01*
X98973Y244128D01*
X99028Y244077D01*
X99085Y244028D01*
X99145Y243982D01*
X99207Y243939D01*
X99272Y243900D01*
X99338Y243864D01*
X99406Y243831D01*
X99475Y243803D01*
X99546Y243777D01*
X99619Y243756D01*
X99692Y243738D01*
X99766Y243725D01*
X99841Y243715D01*
X99916Y243709D01*
X99991Y243707D01*
X102390Y243707D01*
X102476Y243709D01*
X102562Y243715D01*
X102648Y243724D01*
X102733Y243738D01*
X102817Y243755D01*
X102901Y243776D01*
X102983Y243801D01*
X103064Y243829D01*
X103144Y243861D01*
X103223Y243897D01*
X103299Y243936D01*
X103374Y243979D01*
X103447Y244024D01*
X103518Y244073D01*
X103586Y244126D01*
X103653Y244181D01*
X103716Y244239D01*
X103777Y244300D01*
X103835Y244363D01*
X103890Y244430D01*
X103943Y244498D01*
X103992Y244569D01*
X104037Y244642D01*
X104080Y244717D01*
X104119Y244793D01*
X104155Y244872D01*
X104187Y244952D01*
X104215Y245033D01*
X104240Y245115D01*
X104261Y245199D01*
X104278Y245283D01*
X104292Y245368D01*
X104301Y245454D01*
X104307Y245540D01*
X104309Y245626D01*
X104307Y245712D01*
X104301Y245798D01*
X104292Y245884D01*
X104278Y245969D01*
X104261Y246053D01*
X104240Y246137D01*
X104215Y246219D01*
X104187Y246300D01*
X104155Y246380D01*
X104119Y246459D01*
X104080Y246535D01*
X104037Y246610D01*
X103992Y246683D01*
X103943Y246754D01*
X103890Y246822D01*
X103835Y246889D01*
X103777Y246952D01*
X103716Y247013D01*
X103653Y247071D01*
X103586Y247126D01*
X103518Y247179D01*
X103447Y247228D01*
X103374Y247273D01*
X103299Y247316D01*
X103223Y247355D01*
X103144Y247391D01*
X103064Y247423D01*
X102983Y247451D01*
X102901Y247476D01*
X102817Y247497D01*
X102733Y247514D01*
X102648Y247528D01*
X102562Y247537D01*
X102476Y247543D01*
X102390Y247545D01*
X101431Y247545D01*
X101431Y243707D01*
X101910Y253243D02*
X101910Y255402D01*
X101910Y253243D02*
X101908Y253162D01*
X101902Y253081D01*
X101892Y253000D01*
X101879Y252920D01*
X101861Y252841D01*
X101840Y252763D01*
X101815Y252686D01*
X101786Y252610D01*
X101754Y252535D01*
X101718Y252463D01*
X101678Y252392D01*
X101635Y252323D01*
X101589Y252256D01*
X101540Y252192D01*
X101488Y252130D01*
X101432Y252070D01*
X101374Y252014D01*
X101314Y251960D01*
X101250Y251909D01*
X101185Y251861D01*
X101117Y251817D01*
X101047Y251776D01*
X100975Y251738D01*
X100902Y251704D01*
X100826Y251673D01*
X100750Y251646D01*
X100672Y251623D01*
X100593Y251604D01*
X100514Y251588D01*
X100433Y251576D01*
X100353Y251568D01*
X100272Y251564D01*
X100190Y251564D01*
X100109Y251568D01*
X100029Y251576D01*
X99948Y251588D01*
X99869Y251604D01*
X99790Y251623D01*
X99712Y251646D01*
X99636Y251673D01*
X99560Y251704D01*
X99487Y251738D01*
X99415Y251776D01*
X99345Y251817D01*
X99277Y251861D01*
X99212Y251909D01*
X99148Y251960D01*
X99088Y252014D01*
X99030Y252070D01*
X98974Y252130D01*
X98922Y252192D01*
X98873Y252256D01*
X98827Y252323D01*
X98784Y252392D01*
X98744Y252463D01*
X98708Y252535D01*
X98676Y252610D01*
X98647Y252686D01*
X98622Y252763D01*
X98601Y252841D01*
X98583Y252920D01*
X98570Y253000D01*
X98560Y253081D01*
X98554Y253162D01*
X98552Y253243D01*
X98552Y255402D01*
X102870Y255402D01*
X102945Y255400D01*
X103020Y255394D01*
X103095Y255384D01*
X103169Y255371D01*
X103242Y255353D01*
X103315Y255332D01*
X103386Y255306D01*
X103455Y255278D01*
X103523Y255245D01*
X103590Y255209D01*
X103654Y255170D01*
X103716Y255127D01*
X103776Y255081D01*
X103833Y255032D01*
X103888Y254981D01*
X103939Y254926D01*
X103988Y254869D01*
X104034Y254809D01*
X104077Y254747D01*
X104116Y254683D01*
X104152Y254616D01*
X104185Y254548D01*
X104213Y254479D01*
X104239Y254408D01*
X104260Y254335D01*
X104278Y254262D01*
X104291Y254188D01*
X104301Y254113D01*
X104307Y254038D01*
X104309Y253963D01*
X104309Y252044D01*
X104309Y259016D02*
X104309Y261894D01*
X107188Y259975D02*
X99991Y259975D01*
X99991Y259976D02*
X99918Y259978D01*
X99845Y259983D01*
X99773Y259993D01*
X99701Y260005D01*
X99630Y260022D01*
X99560Y260042D01*
X99491Y260066D01*
X99424Y260093D01*
X99357Y260123D01*
X99293Y260157D01*
X99230Y260194D01*
X99169Y260234D01*
X99110Y260277D01*
X99054Y260323D01*
X99000Y260372D01*
X98948Y260424D01*
X98899Y260478D01*
X98853Y260534D01*
X98810Y260593D01*
X98770Y260654D01*
X98733Y260717D01*
X98699Y260781D01*
X98669Y260848D01*
X98642Y260915D01*
X98618Y260984D01*
X98598Y261054D01*
X98581Y261125D01*
X98569Y261197D01*
X98559Y261269D01*
X98554Y261342D01*
X98552Y261415D01*
X98552Y261894D01*
X101910Y266372D02*
X100951Y268771D01*
X101910Y266372D02*
X101937Y266309D01*
X101968Y266247D01*
X102003Y266187D01*
X102040Y266129D01*
X102081Y266073D01*
X102124Y266020D01*
X102171Y265969D01*
X102220Y265921D01*
X102272Y265875D01*
X102327Y265833D01*
X102384Y265793D01*
X102442Y265757D01*
X102503Y265724D01*
X102566Y265695D01*
X102629Y265669D01*
X102695Y265646D01*
X102761Y265628D01*
X102829Y265613D01*
X102897Y265601D01*
X102965Y265594D01*
X103034Y265590D01*
X103103Y265591D01*
X103172Y265595D01*
X103241Y265603D01*
X103309Y265614D01*
X103376Y265630D01*
X103443Y265649D01*
X103508Y265671D01*
X103572Y265698D01*
X103634Y265728D01*
X103694Y265761D01*
X103753Y265798D01*
X103809Y265837D01*
X103864Y265880D01*
X103915Y265926D01*
X103964Y265974D01*
X104011Y266026D01*
X104054Y266079D01*
X104094Y266135D01*
X104131Y266194D01*
X104165Y266254D01*
X104196Y266316D01*
X104223Y266379D01*
X104246Y266444D01*
X104266Y266510D01*
X104282Y266577D01*
X104295Y266645D01*
X104303Y266714D01*
X104308Y266783D01*
X104309Y266852D01*
X104306Y266991D01*
X104298Y267130D01*
X104287Y267269D01*
X104273Y267407D01*
X104255Y267545D01*
X104234Y267683D01*
X104209Y267820D01*
X104180Y267956D01*
X104148Y268092D01*
X104113Y268226D01*
X104074Y268360D01*
X104032Y268493D01*
X103986Y268624D01*
X103937Y268754D01*
X103885Y268883D01*
X103830Y269011D01*
X100951Y268771D02*
X100924Y268834D01*
X100893Y268896D01*
X100858Y268956D01*
X100821Y269014D01*
X100780Y269070D01*
X100737Y269123D01*
X100690Y269174D01*
X100641Y269222D01*
X100589Y269268D01*
X100534Y269310D01*
X100477Y269350D01*
X100419Y269386D01*
X100358Y269419D01*
X100296Y269448D01*
X100232Y269474D01*
X100166Y269497D01*
X100100Y269515D01*
X100032Y269530D01*
X99964Y269542D01*
X99896Y269549D01*
X99827Y269553D01*
X99758Y269552D01*
X99689Y269548D01*
X99620Y269540D01*
X99552Y269529D01*
X99485Y269513D01*
X99418Y269494D01*
X99353Y269472D01*
X99289Y269445D01*
X99227Y269415D01*
X99167Y269382D01*
X99108Y269345D01*
X99052Y269306D01*
X98997Y269263D01*
X98946Y269217D01*
X98897Y269169D01*
X98850Y269117D01*
X98807Y269064D01*
X98767Y269008D01*
X98730Y268949D01*
X98696Y268889D01*
X98665Y268827D01*
X98638Y268764D01*
X98615Y268699D01*
X98595Y268633D01*
X98579Y268566D01*
X98566Y268498D01*
X98558Y268429D01*
X98553Y268360D01*
X98552Y268291D01*
X98552Y268292D02*
X98557Y268099D01*
X98566Y267907D01*
X98581Y267715D01*
X98599Y267524D01*
X98622Y267333D01*
X98650Y267142D01*
X98682Y266952D01*
X98719Y266763D01*
X98760Y266575D01*
X98806Y266388D01*
X98856Y266203D01*
X98910Y266018D01*
X98969Y265835D01*
X99032Y265653D01*
X98552Y273363D02*
X104309Y273363D01*
X106708Y273123D02*
X107188Y273123D01*
X107188Y273603D01*
X106708Y273603D01*
X106708Y273123D01*
X104309Y277540D02*
X98552Y277540D01*
X104309Y277540D02*
X104309Y279939D01*
X104307Y280014D01*
X104301Y280089D01*
X104291Y280164D01*
X104278Y280238D01*
X104260Y280311D01*
X104239Y280384D01*
X104213Y280455D01*
X104185Y280524D01*
X104152Y280592D01*
X104116Y280659D01*
X104077Y280723D01*
X104034Y280785D01*
X103988Y280845D01*
X103939Y280902D01*
X103888Y280957D01*
X103833Y281008D01*
X103776Y281057D01*
X103716Y281103D01*
X103654Y281146D01*
X103590Y281185D01*
X103523Y281221D01*
X103455Y281254D01*
X103386Y281282D01*
X103315Y281308D01*
X103242Y281329D01*
X103169Y281347D01*
X103095Y281360D01*
X103020Y281370D01*
X102945Y281376D01*
X102870Y281378D01*
X98552Y281378D01*
X98552Y286230D02*
X107188Y286230D01*
X104309Y290068D02*
X101431Y286230D01*
X102630Y287909D02*
X98552Y290068D01*
D10*
X0Y290830D02*
X0Y232410D01*
X0Y290830D02*
X5080Y295910D01*
X220980Y8890D02*
X213360Y1270D01*
X220980Y8890D02*
X220980Y199390D01*
X228600Y207010D01*
X1074420Y207010D01*
X1056640Y295910D02*
X5080Y295910D01*
X1074420Y207010D02*
X1098550Y182880D01*
X1209040Y182880D01*
X1236980Y210820D01*
D11*
X322580Y292100D02*
X314926Y284446D01*
X307855Y277375D02*
X300201Y269721D01*
X293130Y262650D02*
X285476Y254996D01*
X278404Y247924D02*
X270750Y240270D01*
X263679Y233199D02*
X256025Y225545D01*
X248954Y218474D02*
X241300Y210820D01*
X236220Y212090D02*
X314960Y290830D01*
X236220Y290830D02*
X236220Y212090D01*
X236220Y290830D02*
X314960Y290830D01*
X243586Y219456D02*
X236220Y219456D01*
X236220Y227584D02*
X251714Y227584D01*
X259842Y235712D02*
X236220Y235712D01*
X236220Y243840D02*
X267970Y243840D01*
X276098Y251968D02*
X236220Y251968D01*
X236220Y260096D02*
X284226Y260096D01*
X292354Y268224D02*
X236220Y268224D01*
X236220Y276352D02*
X300482Y276352D01*
X308610Y284480D02*
X236220Y284480D01*
X243840Y290830D02*
X243840Y219710D01*
X251968Y227838D02*
X251968Y290830D01*
X260096Y290830D02*
X260096Y235966D01*
X268224Y244094D02*
X268224Y290830D01*
X276352Y290830D02*
X276352Y252222D01*
X284480Y260350D02*
X284480Y290830D01*
X292608Y290830D02*
X292608Y268478D01*
X300736Y276606D02*
X300736Y290830D01*
X308864Y290830D02*
X308864Y284734D01*
X324286Y290587D02*
X330392Y284480D01*
X328696Y282784D01*
X328696Y282783D02*
X328641Y282732D01*
X328584Y282683D01*
X328524Y282637D01*
X328462Y282594D01*
X328398Y282555D01*
X328331Y282519D01*
X328263Y282486D01*
X328194Y282458D01*
X328123Y282432D01*
X328050Y282411D01*
X327977Y282393D01*
X327903Y282380D01*
X327828Y282370D01*
X327753Y282364D01*
X327678Y282362D01*
X327603Y282364D01*
X327528Y282370D01*
X327453Y282380D01*
X327379Y282393D01*
X327306Y282411D01*
X327233Y282432D01*
X327162Y282458D01*
X327093Y282486D01*
X327025Y282519D01*
X326959Y282555D01*
X326894Y282594D01*
X326832Y282637D01*
X326772Y282683D01*
X326715Y282732D01*
X326661Y282783D01*
X326661Y282784D02*
X324625Y284819D01*
X324575Y284872D01*
X324528Y284928D01*
X324483Y284985D01*
X324441Y285045D01*
X324403Y285107D01*
X324368Y285171D01*
X324335Y285236D01*
X324307Y285303D01*
X324281Y285372D01*
X324260Y285441D01*
X324241Y285512D01*
X324227Y285583D01*
X324216Y285655D01*
X324208Y285728D01*
X324204Y285801D01*
X324204Y285873D01*
X324208Y285946D01*
X324216Y286019D01*
X324227Y286091D01*
X324241Y286162D01*
X324260Y286233D01*
X324281Y286302D01*
X324307Y286371D01*
X324335Y286438D01*
X324368Y286503D01*
X324403Y286567D01*
X324441Y286629D01*
X324483Y286689D01*
X324528Y286746D01*
X324575Y286802D01*
X324625Y286855D01*
X326321Y288551D01*
X323819Y277906D02*
X322123Y276210D01*
X323819Y277906D02*
X323869Y277959D01*
X323916Y278015D01*
X323961Y278072D01*
X324003Y278132D01*
X324041Y278194D01*
X324076Y278258D01*
X324109Y278323D01*
X324137Y278390D01*
X324163Y278459D01*
X324184Y278528D01*
X324203Y278599D01*
X324217Y278670D01*
X324228Y278742D01*
X324236Y278815D01*
X324240Y278888D01*
X324240Y278960D01*
X324236Y279033D01*
X324228Y279106D01*
X324217Y279178D01*
X324203Y279249D01*
X324184Y279320D01*
X324163Y279389D01*
X324137Y279458D01*
X324109Y279525D01*
X324076Y279590D01*
X324041Y279654D01*
X324003Y279716D01*
X323961Y279776D01*
X323916Y279833D01*
X323869Y279889D01*
X323819Y279942D01*
X322123Y281638D01*
X322060Y281698D01*
X321994Y281756D01*
X321926Y281810D01*
X321855Y281861D01*
X321782Y281909D01*
X321707Y281954D01*
X321629Y281995D01*
X321551Y282032D01*
X321470Y282066D01*
X321388Y282096D01*
X321305Y282123D01*
X321220Y282145D01*
X321135Y282164D01*
X321049Y282179D01*
X320962Y282190D01*
X320875Y282197D01*
X320788Y282200D01*
X320700Y282199D01*
X320613Y282194D01*
X320526Y282185D01*
X320440Y282172D01*
X320354Y282155D01*
X320269Y282135D01*
X320185Y282110D01*
X320103Y282082D01*
X320022Y282050D01*
X319942Y282014D01*
X319864Y281975D01*
X319788Y281932D01*
X319714Y281886D01*
X319642Y281836D01*
X319572Y281783D01*
X319505Y281727D01*
X319440Y281668D01*
X319379Y281607D01*
X319320Y281542D01*
X319264Y281475D01*
X319211Y281405D01*
X319161Y281333D01*
X319115Y281259D01*
X319072Y281183D01*
X319033Y281105D01*
X318997Y281025D01*
X318965Y280944D01*
X318937Y280862D01*
X318912Y280778D01*
X318892Y280693D01*
X318875Y280607D01*
X318862Y280521D01*
X318853Y280434D01*
X318848Y280347D01*
X318847Y280259D01*
X318850Y280172D01*
X318857Y280085D01*
X318868Y279998D01*
X318883Y279912D01*
X318902Y279827D01*
X318924Y279742D01*
X318951Y279659D01*
X318981Y279577D01*
X319015Y279497D01*
X319052Y279418D01*
X319093Y279340D01*
X319138Y279265D01*
X319186Y279192D01*
X319237Y279121D01*
X319291Y279053D01*
X319349Y278987D01*
X319409Y278924D01*
X320087Y278246D01*
X322801Y280960D01*
X319017Y273105D02*
X314946Y277176D01*
X313250Y275480D01*
X313199Y275425D01*
X313150Y275368D01*
X313104Y275308D01*
X313061Y275246D01*
X313022Y275182D01*
X312986Y275115D01*
X312953Y275047D01*
X312925Y274978D01*
X312899Y274907D01*
X312878Y274834D01*
X312860Y274761D01*
X312847Y274687D01*
X312837Y274612D01*
X312831Y274537D01*
X312829Y274462D01*
X312831Y274387D01*
X312837Y274312D01*
X312847Y274237D01*
X312860Y274163D01*
X312878Y274090D01*
X312899Y274017D01*
X312925Y273946D01*
X312953Y273877D01*
X312986Y273809D01*
X313022Y273743D01*
X313061Y273678D01*
X313104Y273616D01*
X313150Y273556D01*
X313199Y273499D01*
X313250Y273445D01*
X313250Y273444D02*
X316303Y270391D01*
X310532Y264620D02*
X304426Y270726D01*
X310532Y264620D02*
X312229Y266316D01*
X312279Y266369D01*
X312326Y266425D01*
X312371Y266482D01*
X312413Y266542D01*
X312451Y266604D01*
X312486Y266668D01*
X312519Y266733D01*
X312547Y266800D01*
X312573Y266869D01*
X312594Y266938D01*
X312613Y267009D01*
X312627Y267080D01*
X312638Y267152D01*
X312646Y267225D01*
X312650Y267298D01*
X312650Y267370D01*
X312646Y267443D01*
X312638Y267516D01*
X312627Y267588D01*
X312613Y267659D01*
X312594Y267730D01*
X312573Y267799D01*
X312547Y267868D01*
X312519Y267935D01*
X312486Y268000D01*
X312451Y268064D01*
X312413Y268126D01*
X312371Y268186D01*
X312326Y268243D01*
X312279Y268299D01*
X312229Y268352D01*
X312229Y268351D02*
X310193Y270387D01*
X310138Y270438D01*
X310081Y270487D01*
X310021Y270533D01*
X309959Y270576D01*
X309895Y270615D01*
X309828Y270651D01*
X309760Y270684D01*
X309691Y270712D01*
X309620Y270738D01*
X309547Y270759D01*
X309474Y270777D01*
X309400Y270790D01*
X309325Y270800D01*
X309250Y270806D01*
X309175Y270808D01*
X309100Y270806D01*
X309025Y270800D01*
X308950Y270790D01*
X308876Y270777D01*
X308803Y270759D01*
X308730Y270738D01*
X308659Y270712D01*
X308590Y270684D01*
X308522Y270651D01*
X308456Y270615D01*
X308391Y270576D01*
X308329Y270533D01*
X308269Y270487D01*
X308212Y270438D01*
X308157Y270387D01*
X306461Y268691D01*
X302902Y256990D02*
X301545Y255633D01*
X302903Y256989D02*
X302953Y257042D01*
X303000Y257098D01*
X303045Y257155D01*
X303087Y257215D01*
X303125Y257277D01*
X303160Y257341D01*
X303193Y257406D01*
X303221Y257473D01*
X303247Y257542D01*
X303268Y257611D01*
X303287Y257682D01*
X303301Y257753D01*
X303312Y257825D01*
X303320Y257898D01*
X303324Y257971D01*
X303324Y258043D01*
X303320Y258116D01*
X303312Y258189D01*
X303301Y258261D01*
X303287Y258332D01*
X303268Y258403D01*
X303247Y258472D01*
X303221Y258541D01*
X303193Y258608D01*
X303160Y258673D01*
X303125Y258737D01*
X303087Y258799D01*
X303045Y258859D01*
X303000Y258916D01*
X302953Y258972D01*
X302903Y259025D01*
X302902Y259025D02*
X300867Y261061D01*
X300812Y261112D01*
X300755Y261161D01*
X300695Y261207D01*
X300633Y261250D01*
X300569Y261289D01*
X300502Y261325D01*
X300434Y261358D01*
X300365Y261386D01*
X300294Y261412D01*
X300221Y261433D01*
X300148Y261451D01*
X300074Y261464D01*
X299999Y261474D01*
X299924Y261480D01*
X299849Y261482D01*
X299774Y261480D01*
X299699Y261474D01*
X299624Y261464D01*
X299550Y261451D01*
X299477Y261433D01*
X299404Y261412D01*
X299333Y261386D01*
X299264Y261358D01*
X299196Y261325D01*
X299130Y261289D01*
X299065Y261250D01*
X299003Y261207D01*
X298943Y261161D01*
X298886Y261112D01*
X298831Y261061D01*
X297474Y259704D01*
X295460Y254296D02*
X293933Y252770D01*
X295460Y254296D02*
X295518Y254352D01*
X295580Y254405D01*
X295644Y254455D01*
X295710Y254502D01*
X295778Y254546D01*
X295849Y254586D01*
X295921Y254623D01*
X295995Y254656D01*
X296071Y254686D01*
X296147Y254712D01*
X296226Y254734D01*
X296305Y254753D01*
X296384Y254767D01*
X296465Y254778D01*
X296546Y254785D01*
X296627Y254788D01*
X296708Y254787D01*
X296789Y254782D01*
X296869Y254773D01*
X296950Y254760D01*
X297029Y254744D01*
X297108Y254724D01*
X297185Y254699D01*
X297261Y254672D01*
X297336Y254640D01*
X297409Y254605D01*
X297481Y254566D01*
X297550Y254524D01*
X297617Y254479D01*
X297682Y254431D01*
X297745Y254379D01*
X297805Y254325D01*
X297863Y254267D01*
X297917Y254207D01*
X297969Y254144D01*
X298017Y254079D01*
X298062Y254012D01*
X298104Y253943D01*
X298143Y253871D01*
X298178Y253798D01*
X298210Y253723D01*
X298237Y253647D01*
X298262Y253570D01*
X298282Y253491D01*
X298298Y253412D01*
X298311Y253331D01*
X298320Y253251D01*
X298325Y253170D01*
X298326Y253089D01*
X298323Y253008D01*
X298316Y252927D01*
X298305Y252846D01*
X298291Y252767D01*
X298272Y252688D01*
X298250Y252609D01*
X298224Y252533D01*
X298194Y252457D01*
X298161Y252383D01*
X298124Y252311D01*
X298084Y252240D01*
X298040Y252172D01*
X297993Y252106D01*
X297943Y252042D01*
X297890Y251980D01*
X297834Y251922D01*
X296308Y250395D01*
X293254Y253448D01*
X293204Y253501D01*
X293157Y253557D01*
X293112Y253614D01*
X293070Y253674D01*
X293032Y253736D01*
X292997Y253800D01*
X292964Y253865D01*
X292936Y253932D01*
X292910Y254001D01*
X292889Y254070D01*
X292870Y254141D01*
X292856Y254212D01*
X292845Y254284D01*
X292837Y254357D01*
X292833Y254430D01*
X292833Y254502D01*
X292837Y254575D01*
X292845Y254648D01*
X292856Y254720D01*
X292870Y254791D01*
X292889Y254862D01*
X292910Y254931D01*
X292936Y255000D01*
X292964Y255067D01*
X292997Y255132D01*
X293032Y255196D01*
X293070Y255258D01*
X293112Y255318D01*
X293157Y255375D01*
X293204Y255431D01*
X293255Y255484D01*
X293254Y255484D02*
X294611Y256841D01*
X286785Y253085D02*
X292891Y246978D01*
X291195Y245282D01*
X291140Y245231D01*
X291083Y245182D01*
X291023Y245136D01*
X290961Y245093D01*
X290897Y245054D01*
X290830Y245018D01*
X290762Y244985D01*
X290693Y244957D01*
X290622Y244931D01*
X290549Y244910D01*
X290476Y244892D01*
X290402Y244879D01*
X290327Y244869D01*
X290252Y244863D01*
X290177Y244861D01*
X290102Y244863D01*
X290027Y244869D01*
X289952Y244879D01*
X289878Y244892D01*
X289805Y244910D01*
X289732Y244931D01*
X289661Y244957D01*
X289592Y244985D01*
X289524Y245018D01*
X289458Y245054D01*
X289393Y245093D01*
X289331Y245136D01*
X289271Y245182D01*
X289214Y245231D01*
X289160Y245282D01*
X287124Y247318D01*
X287124Y247317D02*
X287074Y247370D01*
X287027Y247426D01*
X286982Y247483D01*
X286940Y247543D01*
X286902Y247605D01*
X286867Y247669D01*
X286834Y247734D01*
X286806Y247801D01*
X286780Y247870D01*
X286759Y247939D01*
X286740Y248010D01*
X286726Y248081D01*
X286715Y248153D01*
X286707Y248226D01*
X286703Y248299D01*
X286703Y248371D01*
X286707Y248444D01*
X286715Y248517D01*
X286726Y248589D01*
X286740Y248660D01*
X286759Y248731D01*
X286780Y248800D01*
X286806Y248869D01*
X286834Y248936D01*
X286867Y249001D01*
X286902Y249065D01*
X286940Y249127D01*
X286982Y249187D01*
X287027Y249244D01*
X287074Y249300D01*
X287124Y249353D01*
X288820Y251050D01*
X281202Y247502D02*
X286291Y242413D01*
X286342Y242358D01*
X286391Y242301D01*
X286437Y242241D01*
X286480Y242179D01*
X286519Y242115D01*
X286555Y242048D01*
X286588Y241980D01*
X286616Y241911D01*
X286642Y241840D01*
X286663Y241767D01*
X286681Y241694D01*
X286694Y241620D01*
X286704Y241545D01*
X286710Y241470D01*
X286712Y241395D01*
X286710Y241320D01*
X286704Y241245D01*
X286694Y241170D01*
X286681Y241096D01*
X286663Y241023D01*
X286642Y240950D01*
X286616Y240879D01*
X286588Y240810D01*
X286555Y240742D01*
X286519Y240676D01*
X286480Y240611D01*
X286437Y240549D01*
X286391Y240489D01*
X286342Y240432D01*
X286291Y240377D01*
X282870Y236957D02*
X281173Y235260D01*
X282870Y236956D02*
X282920Y237009D01*
X282967Y237065D01*
X283012Y237122D01*
X283054Y237182D01*
X283092Y237244D01*
X283127Y237308D01*
X283160Y237373D01*
X283188Y237440D01*
X283214Y237509D01*
X283235Y237578D01*
X283254Y237649D01*
X283268Y237720D01*
X283279Y237792D01*
X283287Y237865D01*
X283291Y237938D01*
X283291Y238010D01*
X283287Y238083D01*
X283279Y238156D01*
X283268Y238228D01*
X283254Y238299D01*
X283235Y238370D01*
X283214Y238439D01*
X283188Y238508D01*
X283160Y238575D01*
X283127Y238640D01*
X283092Y238704D01*
X283054Y238766D01*
X283012Y238826D01*
X282967Y238883D01*
X282920Y238939D01*
X282870Y238992D01*
X281173Y240688D01*
X281110Y240748D01*
X281044Y240806D01*
X280976Y240860D01*
X280905Y240911D01*
X280832Y240959D01*
X280757Y241004D01*
X280679Y241045D01*
X280601Y241082D01*
X280520Y241116D01*
X280438Y241146D01*
X280355Y241173D01*
X280270Y241195D01*
X280185Y241214D01*
X280099Y241229D01*
X280012Y241240D01*
X279925Y241247D01*
X279838Y241250D01*
X279750Y241249D01*
X279663Y241244D01*
X279576Y241235D01*
X279490Y241222D01*
X279404Y241205D01*
X279319Y241185D01*
X279235Y241160D01*
X279153Y241132D01*
X279072Y241100D01*
X278992Y241064D01*
X278914Y241025D01*
X278838Y240982D01*
X278764Y240936D01*
X278692Y240886D01*
X278622Y240833D01*
X278555Y240777D01*
X278490Y240718D01*
X278429Y240657D01*
X278370Y240592D01*
X278314Y240525D01*
X278261Y240455D01*
X278211Y240383D01*
X278165Y240309D01*
X278122Y240233D01*
X278083Y240155D01*
X278047Y240075D01*
X278015Y239994D01*
X277987Y239912D01*
X277962Y239828D01*
X277942Y239743D01*
X277925Y239657D01*
X277912Y239571D01*
X277903Y239484D01*
X277898Y239397D01*
X277897Y239309D01*
X277900Y239222D01*
X277907Y239135D01*
X277918Y239048D01*
X277933Y238962D01*
X277952Y238877D01*
X277974Y238792D01*
X278001Y238709D01*
X278031Y238627D01*
X278065Y238547D01*
X278102Y238468D01*
X278143Y238390D01*
X278188Y238315D01*
X278236Y238242D01*
X278287Y238171D01*
X278341Y238103D01*
X278399Y238037D01*
X278459Y237974D01*
X279138Y237296D01*
X281852Y240010D01*
X274620Y228707D02*
X268513Y234813D01*
X270549Y232778D02*
X268852Y231081D01*
X268852Y231082D02*
X268801Y231027D01*
X268752Y230970D01*
X268706Y230910D01*
X268663Y230848D01*
X268624Y230784D01*
X268588Y230717D01*
X268555Y230649D01*
X268527Y230580D01*
X268501Y230509D01*
X268480Y230436D01*
X268462Y230363D01*
X268449Y230289D01*
X268439Y230214D01*
X268433Y230139D01*
X268431Y230064D01*
X268433Y229989D01*
X268439Y229914D01*
X268449Y229839D01*
X268462Y229765D01*
X268480Y229692D01*
X268501Y229619D01*
X268527Y229548D01*
X268555Y229479D01*
X268588Y229411D01*
X268624Y229345D01*
X268663Y229280D01*
X268706Y229218D01*
X268752Y229158D01*
X268801Y229101D01*
X268852Y229047D01*
X268852Y229046D02*
X271906Y225993D01*
X267783Y221870D02*
X266087Y220173D01*
X267783Y221869D02*
X267833Y221922D01*
X267880Y221978D01*
X267925Y222035D01*
X267967Y222095D01*
X268005Y222157D01*
X268040Y222221D01*
X268073Y222286D01*
X268101Y222353D01*
X268127Y222422D01*
X268148Y222491D01*
X268167Y222562D01*
X268181Y222633D01*
X268192Y222705D01*
X268200Y222778D01*
X268204Y222851D01*
X268204Y222923D01*
X268200Y222996D01*
X268192Y223069D01*
X268181Y223141D01*
X268167Y223212D01*
X268148Y223283D01*
X268127Y223352D01*
X268101Y223421D01*
X268073Y223488D01*
X268040Y223553D01*
X268005Y223617D01*
X267967Y223679D01*
X267925Y223739D01*
X267880Y223796D01*
X267833Y223852D01*
X267783Y223905D01*
X266087Y225601D01*
X266024Y225661D01*
X265958Y225719D01*
X265890Y225773D01*
X265819Y225824D01*
X265746Y225872D01*
X265671Y225917D01*
X265593Y225958D01*
X265515Y225995D01*
X265434Y226029D01*
X265352Y226059D01*
X265269Y226086D01*
X265184Y226108D01*
X265099Y226127D01*
X265013Y226142D01*
X264926Y226153D01*
X264839Y226160D01*
X264752Y226163D01*
X264664Y226162D01*
X264577Y226157D01*
X264490Y226148D01*
X264404Y226135D01*
X264318Y226118D01*
X264233Y226098D01*
X264149Y226073D01*
X264067Y226045D01*
X263986Y226013D01*
X263906Y225977D01*
X263828Y225938D01*
X263752Y225895D01*
X263678Y225849D01*
X263606Y225799D01*
X263536Y225746D01*
X263469Y225690D01*
X263404Y225631D01*
X263343Y225570D01*
X263284Y225505D01*
X263228Y225438D01*
X263175Y225368D01*
X263125Y225296D01*
X263079Y225222D01*
X263036Y225146D01*
X262997Y225068D01*
X262961Y224988D01*
X262929Y224907D01*
X262901Y224825D01*
X262876Y224741D01*
X262856Y224656D01*
X262839Y224570D01*
X262826Y224484D01*
X262817Y224397D01*
X262812Y224310D01*
X262811Y224222D01*
X262814Y224135D01*
X262821Y224048D01*
X262832Y223961D01*
X262847Y223875D01*
X262866Y223790D01*
X262888Y223705D01*
X262915Y223622D01*
X262945Y223540D01*
X262979Y223460D01*
X263016Y223381D01*
X263057Y223303D01*
X263102Y223228D01*
X263150Y223155D01*
X263201Y223084D01*
X263255Y223016D01*
X263313Y222950D01*
X263373Y222887D01*
X264051Y222209D01*
X266765Y224923D01*
X262927Y217014D02*
X258856Y221085D01*
X256821Y219050D01*
X257499Y218371D01*
X257653Y211740D02*
X255957Y210044D01*
X257654Y211740D02*
X257704Y211793D01*
X257751Y211849D01*
X257796Y211906D01*
X257838Y211966D01*
X257876Y212028D01*
X257911Y212092D01*
X257944Y212157D01*
X257972Y212224D01*
X257998Y212293D01*
X258019Y212362D01*
X258038Y212433D01*
X258052Y212504D01*
X258063Y212576D01*
X258071Y212649D01*
X258075Y212722D01*
X258075Y212794D01*
X258071Y212867D01*
X258063Y212940D01*
X258052Y213012D01*
X258038Y213083D01*
X258019Y213154D01*
X257998Y213223D01*
X257972Y213292D01*
X257944Y213359D01*
X257911Y213424D01*
X257876Y213488D01*
X257838Y213550D01*
X257796Y213610D01*
X257751Y213667D01*
X257704Y213723D01*
X257654Y213776D01*
X257653Y213775D02*
X255957Y215472D01*
X255894Y215532D01*
X255828Y215590D01*
X255760Y215644D01*
X255689Y215695D01*
X255616Y215743D01*
X255541Y215788D01*
X255463Y215829D01*
X255385Y215866D01*
X255304Y215900D01*
X255222Y215930D01*
X255139Y215957D01*
X255054Y215979D01*
X254969Y215998D01*
X254883Y216013D01*
X254796Y216024D01*
X254709Y216031D01*
X254622Y216034D01*
X254534Y216033D01*
X254447Y216028D01*
X254360Y216019D01*
X254274Y216006D01*
X254188Y215989D01*
X254103Y215969D01*
X254019Y215944D01*
X253937Y215916D01*
X253856Y215884D01*
X253776Y215848D01*
X253698Y215809D01*
X253622Y215766D01*
X253548Y215720D01*
X253476Y215670D01*
X253406Y215617D01*
X253339Y215561D01*
X253274Y215502D01*
X253213Y215441D01*
X253154Y215376D01*
X253098Y215309D01*
X253045Y215239D01*
X252995Y215167D01*
X252949Y215093D01*
X252906Y215017D01*
X252867Y214939D01*
X252831Y214859D01*
X252799Y214778D01*
X252771Y214696D01*
X252746Y214612D01*
X252726Y214527D01*
X252709Y214441D01*
X252696Y214355D01*
X252687Y214268D01*
X252682Y214181D01*
X252681Y214093D01*
X252684Y214006D01*
X252691Y213919D01*
X252702Y213832D01*
X252717Y213746D01*
X252736Y213661D01*
X252758Y213576D01*
X252785Y213493D01*
X252815Y213411D01*
X252849Y213331D01*
X252886Y213252D01*
X252927Y213174D01*
X252972Y213099D01*
X253020Y213026D01*
X253071Y212955D01*
X253125Y212887D01*
X253183Y212821D01*
X253243Y212758D01*
X253921Y212079D01*
X256635Y214793D01*
X111760Y293370D02*
X111760Y6350D01*
X111760Y293370D02*
X215900Y293370D01*
X215900Y6350D01*
X111760Y6350D01*
X111760Y8128D02*
X215900Y8128D01*
X215900Y16256D02*
X111760Y16256D01*
X111760Y24384D02*
X215900Y24384D01*
X215900Y32512D02*
X111760Y32512D01*
X111760Y40640D02*
X215900Y40640D01*
X215900Y48768D02*
X111760Y48768D01*
X111760Y56896D02*
X215900Y56896D01*
X215900Y65024D02*
X111760Y65024D01*
X111760Y73152D02*
X215900Y73152D01*
X215900Y81280D02*
X111760Y81280D01*
X111760Y89408D02*
X215900Y89408D01*
X215900Y97536D02*
X111760Y97536D01*
X111760Y105664D02*
X215900Y105664D01*
X215900Y113792D02*
X111760Y113792D01*
X111760Y121920D02*
X215900Y121920D01*
X215900Y130048D02*
X111760Y130048D01*
X111760Y138176D02*
X215900Y138176D01*
X215900Y146304D02*
X111760Y146304D01*
X111760Y154432D02*
X215900Y154432D01*
X215900Y162560D02*
X111760Y162560D01*
X111760Y170688D02*
X215900Y170688D01*
X215900Y178816D02*
X111760Y178816D01*
X111760Y186944D02*
X215900Y186944D01*
X215900Y195072D02*
X111760Y195072D01*
X111760Y203200D02*
X215900Y203200D01*
X215900Y211328D02*
X111760Y211328D01*
X111760Y219456D02*
X215900Y219456D01*
X215900Y227584D02*
X111760Y227584D01*
X111760Y235712D02*
X215900Y235712D01*
X215900Y243840D02*
X111760Y243840D01*
X111760Y251968D02*
X215900Y251968D01*
X215900Y260096D02*
X111760Y260096D01*
X111760Y268224D02*
X215900Y268224D01*
X215900Y276352D02*
X111760Y276352D01*
X111760Y284480D02*
X215900Y284480D01*
X215900Y292608D02*
X111760Y292608D01*
X113792Y293370D02*
X113792Y6350D01*
X121920Y6350D02*
X121920Y293370D01*
X130048Y293370D02*
X130048Y6350D01*
X138176Y6350D02*
X138176Y293370D01*
X146304Y293370D02*
X146304Y6350D01*
X154432Y6350D02*
X154432Y293370D01*
X162560Y293370D02*
X162560Y6350D01*
X170688Y6350D02*
X170688Y293370D01*
X178816Y293370D02*
X178816Y6350D01*
X186944Y6350D02*
X186944Y293370D01*
X195072Y293370D02*
X195072Y6350D01*
X203200Y6350D02*
X203200Y293370D01*
X211328Y293370D02*
X211328Y6350D01*
D10*
X1056640Y295910D02*
X1073150Y279400D01*
X1228090Y279400D01*
X1236980Y270510D01*
X1115140Y227330D02*
X1115142Y227471D01*
X1115148Y227612D01*
X1115158Y227752D01*
X1115172Y227892D01*
X1115190Y228032D01*
X1115211Y228171D01*
X1115237Y228310D01*
X1115266Y228448D01*
X1115300Y228584D01*
X1115337Y228720D01*
X1115378Y228855D01*
X1115423Y228989D01*
X1115472Y229121D01*
X1115524Y229252D01*
X1115580Y229381D01*
X1115640Y229508D01*
X1115703Y229634D01*
X1115769Y229758D01*
X1115840Y229881D01*
X1115913Y230001D01*
X1115990Y230119D01*
X1116070Y230235D01*
X1116154Y230348D01*
X1116240Y230459D01*
X1116330Y230568D01*
X1116423Y230674D01*
X1116518Y230777D01*
X1116617Y230878D01*
X1116718Y230976D01*
X1116822Y231071D01*
X1116929Y231163D01*
X1117038Y231252D01*
X1117150Y231337D01*
X1117264Y231420D01*
X1117380Y231500D01*
X1117499Y231576D01*
X1117620Y231648D01*
X1117742Y231718D01*
X1117867Y231783D01*
X1117993Y231846D01*
X1118121Y231904D01*
X1118251Y231959D01*
X1118382Y232011D01*
X1118515Y232058D01*
X1118649Y232102D01*
X1118784Y232143D01*
X1118920Y232179D01*
X1119057Y232211D01*
X1119195Y232240D01*
X1119333Y232265D01*
X1119473Y232285D01*
X1119613Y232302D01*
X1119753Y232315D01*
X1119894Y232324D01*
X1120034Y232329D01*
X1120175Y232330D01*
X1120316Y232327D01*
X1120457Y232320D01*
X1120597Y232309D01*
X1120737Y232294D01*
X1120877Y232275D01*
X1121016Y232253D01*
X1121154Y232226D01*
X1121292Y232196D01*
X1121428Y232161D01*
X1121564Y232123D01*
X1121698Y232081D01*
X1121832Y232035D01*
X1121964Y231986D01*
X1122094Y231932D01*
X1122223Y231875D01*
X1122350Y231815D01*
X1122476Y231751D01*
X1122599Y231683D01*
X1122721Y231612D01*
X1122841Y231538D01*
X1122958Y231460D01*
X1123073Y231379D01*
X1123186Y231295D01*
X1123297Y231208D01*
X1123405Y231117D01*
X1123510Y231024D01*
X1123613Y230927D01*
X1123713Y230828D01*
X1123810Y230726D01*
X1123904Y230621D01*
X1123995Y230514D01*
X1124083Y230404D01*
X1124168Y230292D01*
X1124250Y230177D01*
X1124329Y230060D01*
X1124404Y229941D01*
X1124476Y229820D01*
X1124544Y229697D01*
X1124609Y229572D01*
X1124671Y229445D01*
X1124728Y229316D01*
X1124783Y229186D01*
X1124833Y229055D01*
X1124880Y228922D01*
X1124923Y228788D01*
X1124962Y228652D01*
X1124997Y228516D01*
X1125029Y228379D01*
X1125056Y228241D01*
X1125080Y228102D01*
X1125100Y227962D01*
X1125116Y227822D01*
X1125128Y227682D01*
X1125136Y227541D01*
X1125140Y227400D01*
X1125140Y227260D01*
X1125136Y227119D01*
X1125128Y226978D01*
X1125116Y226838D01*
X1125100Y226698D01*
X1125080Y226558D01*
X1125056Y226419D01*
X1125029Y226281D01*
X1124997Y226144D01*
X1124962Y226008D01*
X1124923Y225872D01*
X1124880Y225738D01*
X1124833Y225605D01*
X1124783Y225474D01*
X1124728Y225344D01*
X1124671Y225215D01*
X1124609Y225088D01*
X1124544Y224963D01*
X1124476Y224840D01*
X1124404Y224719D01*
X1124329Y224600D01*
X1124250Y224483D01*
X1124168Y224368D01*
X1124083Y224256D01*
X1123995Y224146D01*
X1123904Y224039D01*
X1123810Y223934D01*
X1123713Y223832D01*
X1123613Y223733D01*
X1123510Y223636D01*
X1123405Y223543D01*
X1123297Y223452D01*
X1123186Y223365D01*
X1123073Y223281D01*
X1122958Y223200D01*
X1122841Y223122D01*
X1122721Y223048D01*
X1122599Y222977D01*
X1122476Y222909D01*
X1122350Y222845D01*
X1122223Y222785D01*
X1122094Y222728D01*
X1121964Y222674D01*
X1121832Y222625D01*
X1121698Y222579D01*
X1121564Y222537D01*
X1121428Y222499D01*
X1121292Y222464D01*
X1121154Y222434D01*
X1121016Y222407D01*
X1120877Y222385D01*
X1120737Y222366D01*
X1120597Y222351D01*
X1120457Y222340D01*
X1120316Y222333D01*
X1120175Y222330D01*
X1120034Y222331D01*
X1119894Y222336D01*
X1119753Y222345D01*
X1119613Y222358D01*
X1119473Y222375D01*
X1119333Y222395D01*
X1119195Y222420D01*
X1119057Y222449D01*
X1118920Y222481D01*
X1118784Y222517D01*
X1118649Y222558D01*
X1118515Y222602D01*
X1118382Y222649D01*
X1118251Y222701D01*
X1118121Y222756D01*
X1117993Y222814D01*
X1117867Y222877D01*
X1117742Y222942D01*
X1117620Y223012D01*
X1117499Y223084D01*
X1117380Y223160D01*
X1117264Y223240D01*
X1117150Y223323D01*
X1117038Y223408D01*
X1116929Y223497D01*
X1116822Y223589D01*
X1116718Y223684D01*
X1116617Y223782D01*
X1116518Y223883D01*
X1116423Y223986D01*
X1116330Y224092D01*
X1116240Y224201D01*
X1116154Y224312D01*
X1116070Y224425D01*
X1115990Y224541D01*
X1115913Y224659D01*
X1115840Y224779D01*
X1115769Y224902D01*
X1115703Y225026D01*
X1115640Y225152D01*
X1115580Y225279D01*
X1115524Y225408D01*
X1115472Y225539D01*
X1115423Y225671D01*
X1115378Y225805D01*
X1115337Y225940D01*
X1115300Y226076D01*
X1115266Y226212D01*
X1115237Y226350D01*
X1115211Y226489D01*
X1115190Y226628D01*
X1115172Y226768D01*
X1115158Y226908D01*
X1115148Y227048D01*
X1115142Y227189D01*
X1115140Y227330D01*
X1089740Y227330D02*
X1089742Y227471D01*
X1089748Y227612D01*
X1089758Y227752D01*
X1089772Y227892D01*
X1089790Y228032D01*
X1089811Y228171D01*
X1089837Y228310D01*
X1089866Y228448D01*
X1089900Y228584D01*
X1089937Y228720D01*
X1089978Y228855D01*
X1090023Y228989D01*
X1090072Y229121D01*
X1090124Y229252D01*
X1090180Y229381D01*
X1090240Y229508D01*
X1090303Y229634D01*
X1090369Y229758D01*
X1090440Y229881D01*
X1090513Y230001D01*
X1090590Y230119D01*
X1090670Y230235D01*
X1090754Y230348D01*
X1090840Y230459D01*
X1090930Y230568D01*
X1091023Y230674D01*
X1091118Y230777D01*
X1091217Y230878D01*
X1091318Y230976D01*
X1091422Y231071D01*
X1091529Y231163D01*
X1091638Y231252D01*
X1091750Y231337D01*
X1091864Y231420D01*
X1091980Y231500D01*
X1092099Y231576D01*
X1092220Y231648D01*
X1092342Y231718D01*
X1092467Y231783D01*
X1092593Y231846D01*
X1092721Y231904D01*
X1092851Y231959D01*
X1092982Y232011D01*
X1093115Y232058D01*
X1093249Y232102D01*
X1093384Y232143D01*
X1093520Y232179D01*
X1093657Y232211D01*
X1093795Y232240D01*
X1093933Y232265D01*
X1094073Y232285D01*
X1094213Y232302D01*
X1094353Y232315D01*
X1094494Y232324D01*
X1094634Y232329D01*
X1094775Y232330D01*
X1094916Y232327D01*
X1095057Y232320D01*
X1095197Y232309D01*
X1095337Y232294D01*
X1095477Y232275D01*
X1095616Y232253D01*
X1095754Y232226D01*
X1095892Y232196D01*
X1096028Y232161D01*
X1096164Y232123D01*
X1096298Y232081D01*
X1096432Y232035D01*
X1096564Y231986D01*
X1096694Y231932D01*
X1096823Y231875D01*
X1096950Y231815D01*
X1097076Y231751D01*
X1097199Y231683D01*
X1097321Y231612D01*
X1097441Y231538D01*
X1097558Y231460D01*
X1097673Y231379D01*
X1097786Y231295D01*
X1097897Y231208D01*
X1098005Y231117D01*
X1098110Y231024D01*
X1098213Y230927D01*
X1098313Y230828D01*
X1098410Y230726D01*
X1098504Y230621D01*
X1098595Y230514D01*
X1098683Y230404D01*
X1098768Y230292D01*
X1098850Y230177D01*
X1098929Y230060D01*
X1099004Y229941D01*
X1099076Y229820D01*
X1099144Y229697D01*
X1099209Y229572D01*
X1099271Y229445D01*
X1099328Y229316D01*
X1099383Y229186D01*
X1099433Y229055D01*
X1099480Y228922D01*
X1099523Y228788D01*
X1099562Y228652D01*
X1099597Y228516D01*
X1099629Y228379D01*
X1099656Y228241D01*
X1099680Y228102D01*
X1099700Y227962D01*
X1099716Y227822D01*
X1099728Y227682D01*
X1099736Y227541D01*
X1099740Y227400D01*
X1099740Y227260D01*
X1099736Y227119D01*
X1099728Y226978D01*
X1099716Y226838D01*
X1099700Y226698D01*
X1099680Y226558D01*
X1099656Y226419D01*
X1099629Y226281D01*
X1099597Y226144D01*
X1099562Y226008D01*
X1099523Y225872D01*
X1099480Y225738D01*
X1099433Y225605D01*
X1099383Y225474D01*
X1099328Y225344D01*
X1099271Y225215D01*
X1099209Y225088D01*
X1099144Y224963D01*
X1099076Y224840D01*
X1099004Y224719D01*
X1098929Y224600D01*
X1098850Y224483D01*
X1098768Y224368D01*
X1098683Y224256D01*
X1098595Y224146D01*
X1098504Y224039D01*
X1098410Y223934D01*
X1098313Y223832D01*
X1098213Y223733D01*
X1098110Y223636D01*
X1098005Y223543D01*
X1097897Y223452D01*
X1097786Y223365D01*
X1097673Y223281D01*
X1097558Y223200D01*
X1097441Y223122D01*
X1097321Y223048D01*
X1097199Y222977D01*
X1097076Y222909D01*
X1096950Y222845D01*
X1096823Y222785D01*
X1096694Y222728D01*
X1096564Y222674D01*
X1096432Y222625D01*
X1096298Y222579D01*
X1096164Y222537D01*
X1096028Y222499D01*
X1095892Y222464D01*
X1095754Y222434D01*
X1095616Y222407D01*
X1095477Y222385D01*
X1095337Y222366D01*
X1095197Y222351D01*
X1095057Y222340D01*
X1094916Y222333D01*
X1094775Y222330D01*
X1094634Y222331D01*
X1094494Y222336D01*
X1094353Y222345D01*
X1094213Y222358D01*
X1094073Y222375D01*
X1093933Y222395D01*
X1093795Y222420D01*
X1093657Y222449D01*
X1093520Y222481D01*
X1093384Y222517D01*
X1093249Y222558D01*
X1093115Y222602D01*
X1092982Y222649D01*
X1092851Y222701D01*
X1092721Y222756D01*
X1092593Y222814D01*
X1092467Y222877D01*
X1092342Y222942D01*
X1092220Y223012D01*
X1092099Y223084D01*
X1091980Y223160D01*
X1091864Y223240D01*
X1091750Y223323D01*
X1091638Y223408D01*
X1091529Y223497D01*
X1091422Y223589D01*
X1091318Y223684D01*
X1091217Y223782D01*
X1091118Y223883D01*
X1091023Y223986D01*
X1090930Y224092D01*
X1090840Y224201D01*
X1090754Y224312D01*
X1090670Y224425D01*
X1090590Y224541D01*
X1090513Y224659D01*
X1090440Y224779D01*
X1090369Y224902D01*
X1090303Y225026D01*
X1090240Y225152D01*
X1090180Y225279D01*
X1090124Y225408D01*
X1090072Y225539D01*
X1090023Y225671D01*
X1089978Y225805D01*
X1089937Y225940D01*
X1089900Y226076D01*
X1089866Y226212D01*
X1089837Y226350D01*
X1089811Y226489D01*
X1089790Y226628D01*
X1089772Y226768D01*
X1089758Y226908D01*
X1089748Y227048D01*
X1089742Y227189D01*
X1089740Y227330D01*
X1089740Y252730D02*
X1089742Y252871D01*
X1089748Y253012D01*
X1089758Y253152D01*
X1089772Y253292D01*
X1089790Y253432D01*
X1089811Y253571D01*
X1089837Y253710D01*
X1089866Y253848D01*
X1089900Y253984D01*
X1089937Y254120D01*
X1089978Y254255D01*
X1090023Y254389D01*
X1090072Y254521D01*
X1090124Y254652D01*
X1090180Y254781D01*
X1090240Y254908D01*
X1090303Y255034D01*
X1090369Y255158D01*
X1090440Y255281D01*
X1090513Y255401D01*
X1090590Y255519D01*
X1090670Y255635D01*
X1090754Y255748D01*
X1090840Y255859D01*
X1090930Y255968D01*
X1091023Y256074D01*
X1091118Y256177D01*
X1091217Y256278D01*
X1091318Y256376D01*
X1091422Y256471D01*
X1091529Y256563D01*
X1091638Y256652D01*
X1091750Y256737D01*
X1091864Y256820D01*
X1091980Y256900D01*
X1092099Y256976D01*
X1092220Y257048D01*
X1092342Y257118D01*
X1092467Y257183D01*
X1092593Y257246D01*
X1092721Y257304D01*
X1092851Y257359D01*
X1092982Y257411D01*
X1093115Y257458D01*
X1093249Y257502D01*
X1093384Y257543D01*
X1093520Y257579D01*
X1093657Y257611D01*
X1093795Y257640D01*
X1093933Y257665D01*
X1094073Y257685D01*
X1094213Y257702D01*
X1094353Y257715D01*
X1094494Y257724D01*
X1094634Y257729D01*
X1094775Y257730D01*
X1094916Y257727D01*
X1095057Y257720D01*
X1095197Y257709D01*
X1095337Y257694D01*
X1095477Y257675D01*
X1095616Y257653D01*
X1095754Y257626D01*
X1095892Y257596D01*
X1096028Y257561D01*
X1096164Y257523D01*
X1096298Y257481D01*
X1096432Y257435D01*
X1096564Y257386D01*
X1096694Y257332D01*
X1096823Y257275D01*
X1096950Y257215D01*
X1097076Y257151D01*
X1097199Y257083D01*
X1097321Y257012D01*
X1097441Y256938D01*
X1097558Y256860D01*
X1097673Y256779D01*
X1097786Y256695D01*
X1097897Y256608D01*
X1098005Y256517D01*
X1098110Y256424D01*
X1098213Y256327D01*
X1098313Y256228D01*
X1098410Y256126D01*
X1098504Y256021D01*
X1098595Y255914D01*
X1098683Y255804D01*
X1098768Y255692D01*
X1098850Y255577D01*
X1098929Y255460D01*
X1099004Y255341D01*
X1099076Y255220D01*
X1099144Y255097D01*
X1099209Y254972D01*
X1099271Y254845D01*
X1099328Y254716D01*
X1099383Y254586D01*
X1099433Y254455D01*
X1099480Y254322D01*
X1099523Y254188D01*
X1099562Y254052D01*
X1099597Y253916D01*
X1099629Y253779D01*
X1099656Y253641D01*
X1099680Y253502D01*
X1099700Y253362D01*
X1099716Y253222D01*
X1099728Y253082D01*
X1099736Y252941D01*
X1099740Y252800D01*
X1099740Y252660D01*
X1099736Y252519D01*
X1099728Y252378D01*
X1099716Y252238D01*
X1099700Y252098D01*
X1099680Y251958D01*
X1099656Y251819D01*
X1099629Y251681D01*
X1099597Y251544D01*
X1099562Y251408D01*
X1099523Y251272D01*
X1099480Y251138D01*
X1099433Y251005D01*
X1099383Y250874D01*
X1099328Y250744D01*
X1099271Y250615D01*
X1099209Y250488D01*
X1099144Y250363D01*
X1099076Y250240D01*
X1099004Y250119D01*
X1098929Y250000D01*
X1098850Y249883D01*
X1098768Y249768D01*
X1098683Y249656D01*
X1098595Y249546D01*
X1098504Y249439D01*
X1098410Y249334D01*
X1098313Y249232D01*
X1098213Y249133D01*
X1098110Y249036D01*
X1098005Y248943D01*
X1097897Y248852D01*
X1097786Y248765D01*
X1097673Y248681D01*
X1097558Y248600D01*
X1097441Y248522D01*
X1097321Y248448D01*
X1097199Y248377D01*
X1097076Y248309D01*
X1096950Y248245D01*
X1096823Y248185D01*
X1096694Y248128D01*
X1096564Y248074D01*
X1096432Y248025D01*
X1096298Y247979D01*
X1096164Y247937D01*
X1096028Y247899D01*
X1095892Y247864D01*
X1095754Y247834D01*
X1095616Y247807D01*
X1095477Y247785D01*
X1095337Y247766D01*
X1095197Y247751D01*
X1095057Y247740D01*
X1094916Y247733D01*
X1094775Y247730D01*
X1094634Y247731D01*
X1094494Y247736D01*
X1094353Y247745D01*
X1094213Y247758D01*
X1094073Y247775D01*
X1093933Y247795D01*
X1093795Y247820D01*
X1093657Y247849D01*
X1093520Y247881D01*
X1093384Y247917D01*
X1093249Y247958D01*
X1093115Y248002D01*
X1092982Y248049D01*
X1092851Y248101D01*
X1092721Y248156D01*
X1092593Y248214D01*
X1092467Y248277D01*
X1092342Y248342D01*
X1092220Y248412D01*
X1092099Y248484D01*
X1091980Y248560D01*
X1091864Y248640D01*
X1091750Y248723D01*
X1091638Y248808D01*
X1091529Y248897D01*
X1091422Y248989D01*
X1091318Y249084D01*
X1091217Y249182D01*
X1091118Y249283D01*
X1091023Y249386D01*
X1090930Y249492D01*
X1090840Y249601D01*
X1090754Y249712D01*
X1090670Y249825D01*
X1090590Y249941D01*
X1090513Y250059D01*
X1090440Y250179D01*
X1090369Y250302D01*
X1090303Y250426D01*
X1090240Y250552D01*
X1090180Y250679D01*
X1090124Y250808D01*
X1090072Y250939D01*
X1090023Y251071D01*
X1089978Y251205D01*
X1089937Y251340D01*
X1089900Y251476D01*
X1089866Y251612D01*
X1089837Y251750D01*
X1089811Y251889D01*
X1089790Y252028D01*
X1089772Y252168D01*
X1089758Y252308D01*
X1089748Y252448D01*
X1089742Y252589D01*
X1089740Y252730D01*
X1140540Y252730D02*
X1140542Y252871D01*
X1140548Y253012D01*
X1140558Y253152D01*
X1140572Y253292D01*
X1140590Y253432D01*
X1140611Y253571D01*
X1140637Y253710D01*
X1140666Y253848D01*
X1140700Y253984D01*
X1140737Y254120D01*
X1140778Y254255D01*
X1140823Y254389D01*
X1140872Y254521D01*
X1140924Y254652D01*
X1140980Y254781D01*
X1141040Y254908D01*
X1141103Y255034D01*
X1141169Y255158D01*
X1141240Y255281D01*
X1141313Y255401D01*
X1141390Y255519D01*
X1141470Y255635D01*
X1141554Y255748D01*
X1141640Y255859D01*
X1141730Y255968D01*
X1141823Y256074D01*
X1141918Y256177D01*
X1142017Y256278D01*
X1142118Y256376D01*
X1142222Y256471D01*
X1142329Y256563D01*
X1142438Y256652D01*
X1142550Y256737D01*
X1142664Y256820D01*
X1142780Y256900D01*
X1142899Y256976D01*
X1143020Y257048D01*
X1143142Y257118D01*
X1143267Y257183D01*
X1143393Y257246D01*
X1143521Y257304D01*
X1143651Y257359D01*
X1143782Y257411D01*
X1143915Y257458D01*
X1144049Y257502D01*
X1144184Y257543D01*
X1144320Y257579D01*
X1144457Y257611D01*
X1144595Y257640D01*
X1144733Y257665D01*
X1144873Y257685D01*
X1145013Y257702D01*
X1145153Y257715D01*
X1145294Y257724D01*
X1145434Y257729D01*
X1145575Y257730D01*
X1145716Y257727D01*
X1145857Y257720D01*
X1145997Y257709D01*
X1146137Y257694D01*
X1146277Y257675D01*
X1146416Y257653D01*
X1146554Y257626D01*
X1146692Y257596D01*
X1146828Y257561D01*
X1146964Y257523D01*
X1147098Y257481D01*
X1147232Y257435D01*
X1147364Y257386D01*
X1147494Y257332D01*
X1147623Y257275D01*
X1147750Y257215D01*
X1147876Y257151D01*
X1147999Y257083D01*
X1148121Y257012D01*
X1148241Y256938D01*
X1148358Y256860D01*
X1148473Y256779D01*
X1148586Y256695D01*
X1148697Y256608D01*
X1148805Y256517D01*
X1148910Y256424D01*
X1149013Y256327D01*
X1149113Y256228D01*
X1149210Y256126D01*
X1149304Y256021D01*
X1149395Y255914D01*
X1149483Y255804D01*
X1149568Y255692D01*
X1149650Y255577D01*
X1149729Y255460D01*
X1149804Y255341D01*
X1149876Y255220D01*
X1149944Y255097D01*
X1150009Y254972D01*
X1150071Y254845D01*
X1150128Y254716D01*
X1150183Y254586D01*
X1150233Y254455D01*
X1150280Y254322D01*
X1150323Y254188D01*
X1150362Y254052D01*
X1150397Y253916D01*
X1150429Y253779D01*
X1150456Y253641D01*
X1150480Y253502D01*
X1150500Y253362D01*
X1150516Y253222D01*
X1150528Y253082D01*
X1150536Y252941D01*
X1150540Y252800D01*
X1150540Y252660D01*
X1150536Y252519D01*
X1150528Y252378D01*
X1150516Y252238D01*
X1150500Y252098D01*
X1150480Y251958D01*
X1150456Y251819D01*
X1150429Y251681D01*
X1150397Y251544D01*
X1150362Y251408D01*
X1150323Y251272D01*
X1150280Y251138D01*
X1150233Y251005D01*
X1150183Y250874D01*
X1150128Y250744D01*
X1150071Y250615D01*
X1150009Y250488D01*
X1149944Y250363D01*
X1149876Y250240D01*
X1149804Y250119D01*
X1149729Y250000D01*
X1149650Y249883D01*
X1149568Y249768D01*
X1149483Y249656D01*
X1149395Y249546D01*
X1149304Y249439D01*
X1149210Y249334D01*
X1149113Y249232D01*
X1149013Y249133D01*
X1148910Y249036D01*
X1148805Y248943D01*
X1148697Y248852D01*
X1148586Y248765D01*
X1148473Y248681D01*
X1148358Y248600D01*
X1148241Y248522D01*
X1148121Y248448D01*
X1147999Y248377D01*
X1147876Y248309D01*
X1147750Y248245D01*
X1147623Y248185D01*
X1147494Y248128D01*
X1147364Y248074D01*
X1147232Y248025D01*
X1147098Y247979D01*
X1146964Y247937D01*
X1146828Y247899D01*
X1146692Y247864D01*
X1146554Y247834D01*
X1146416Y247807D01*
X1146277Y247785D01*
X1146137Y247766D01*
X1145997Y247751D01*
X1145857Y247740D01*
X1145716Y247733D01*
X1145575Y247730D01*
X1145434Y247731D01*
X1145294Y247736D01*
X1145153Y247745D01*
X1145013Y247758D01*
X1144873Y247775D01*
X1144733Y247795D01*
X1144595Y247820D01*
X1144457Y247849D01*
X1144320Y247881D01*
X1144184Y247917D01*
X1144049Y247958D01*
X1143915Y248002D01*
X1143782Y248049D01*
X1143651Y248101D01*
X1143521Y248156D01*
X1143393Y248214D01*
X1143267Y248277D01*
X1143142Y248342D01*
X1143020Y248412D01*
X1142899Y248484D01*
X1142780Y248560D01*
X1142664Y248640D01*
X1142550Y248723D01*
X1142438Y248808D01*
X1142329Y248897D01*
X1142222Y248989D01*
X1142118Y249084D01*
X1142017Y249182D01*
X1141918Y249283D01*
X1141823Y249386D01*
X1141730Y249492D01*
X1141640Y249601D01*
X1141554Y249712D01*
X1141470Y249825D01*
X1141390Y249941D01*
X1141313Y250059D01*
X1141240Y250179D01*
X1141169Y250302D01*
X1141103Y250426D01*
X1141040Y250552D01*
X1140980Y250679D01*
X1140924Y250808D01*
X1140872Y250939D01*
X1140823Y251071D01*
X1140778Y251205D01*
X1140737Y251340D01*
X1140700Y251476D01*
X1140666Y251612D01*
X1140637Y251750D01*
X1140611Y251889D01*
X1140590Y252028D01*
X1140572Y252168D01*
X1140558Y252308D01*
X1140548Y252448D01*
X1140542Y252589D01*
X1140540Y252730D01*
M02*
