M48
;GenerationSoftware,Autodesk,EAGLE,9.5.2*%
;CreationDate,2020-04-08T10:13:28Z*%
FMAT,2
ICI,OFF
METRIC,TZ,000.000
T4C0.400
T3C0.550
T2C0.600
T1C1.000
%
G90
M71
T1
X112014Y25273
X114554Y22733
X122174Y22733
X112014Y22733
X109474Y22733
X109474Y25273
X114554Y25273
X122174Y25273
X119634Y22733
X119634Y25273
X117094Y22733
X117094Y25273
T2
X6350Y17399
X6350Y12954
X5080Y12954
X6350Y1524
X6350Y14859
X5080Y4064
X1270Y28194
X0Y26289
X0Y24384
X6350Y4064
X1270Y26289
X1270Y24384
X4572Y20701
X3556Y19685
X5080Y11049
X6350Y11049
X5080Y17399
X2794Y20447
X3810Y21463
X0Y28194
X5080Y1524
X5080Y14859
T3
X6223Y21590
X11303Y10922
X11303Y8382
X11303Y5842
X15367Y5842
X15367Y8382
X15367Y10922
X22479Y22352
X19939Y19812
X16637Y22987
X12827Y24257
X6350Y19304
X7493Y6604
X8890Y4064
T4
X86614Y24096
X86868Y27264
X91186Y22699
X117221Y21209
X101346Y26218
X91694Y25908
X106299Y26980
X95123Y21429
X91694Y27264
X15494Y21209
X107950Y24003
X101854Y28575
X96520Y27940
X101346Y25146
X95250Y27940
M30