G04 EAGLE Gerber X2 export*
%TF.Part,Single*%
%TF.FileFunction,Other,solder mask top*%
%TF.FilePolarity,Positive*%
%TF.GenerationSoftware,Autodesk,EAGLE,9.5.2*%
%TF.CreationDate,2020-04-08T10:13:28Z*%
G75*
%MOMM*%
%FSLAX34Y34*%
%LPD*%
%INsolder mask top*%
%AMOC8*
5,1,8,0,0,1.08239X$1,22.5*%
G01*
%ADD10C,0.000000*%
%ADD11R,2.641600X1.371600*%
%ADD12R,1.371600X2.641600*%
%ADD13R,1.601600X1.601600*%
%ADD14C,1.601600*%
%ADD15C,1.101600*%
%ADD16R,1.270000X1.701800*%
%ADD17R,1.401600X1.601600*%
%ADD18R,1.701600X0.451600*%
%ADD19R,1.000000X0.600000*%
%ADD20R,1.201600X1.101600*%
%ADD21R,0.609600X0.990600*%
%ADD22R,0.152400X1.092200*%
%ADD23R,1.701800X1.270000*%
%ADD24R,1.091600X0.791600*%


D10*
X0Y232410D02*
X50800Y181610D01*
X50800Y100330D01*
X60960Y90170D01*
X60960Y59690D01*
X50800Y49530D01*
X50800Y6350D01*
X55880Y1270D01*
X213360Y1270D01*
X1236980Y210820D02*
X1236980Y270510D01*
X0Y290830D02*
X0Y232410D01*
X0Y290830D02*
X5080Y295910D01*
X220980Y8890D02*
X213360Y1270D01*
X220980Y8890D02*
X220980Y199390D01*
X228600Y207010D01*
X1074420Y207010D01*
X1056640Y295910D02*
X5080Y295910D01*
X1074420Y207010D02*
X1098550Y182880D01*
X1209040Y182880D01*
X1236980Y210820D01*
X1073150Y279400D02*
X1056640Y295910D01*
X1073150Y279400D02*
X1228090Y279400D01*
X1236980Y270510D01*
D11*
X63500Y110490D03*
X63500Y173990D03*
X63500Y129540D03*
X63500Y40640D03*
D12*
G36*
X56098Y206330D02*
X46400Y196632D01*
X27722Y215310D01*
X37420Y225008D01*
X56098Y206330D01*
G37*
D11*
X63500Y15240D03*
X63500Y148590D03*
D12*
G36*
X49748Y199980D02*
X40050Y190282D01*
X21372Y208960D01*
X31070Y218658D01*
X49748Y199980D01*
G37*
D13*
X1221740Y227330D03*
D14*
X1221740Y252730D03*
X1196340Y227330D03*
X1196340Y252730D03*
X1170940Y227330D03*
X1170940Y252730D03*
X1120140Y252730D03*
D10*
X1115140Y227330D02*
X1115142Y227471D01*
X1115148Y227612D01*
X1115158Y227752D01*
X1115172Y227892D01*
X1115190Y228032D01*
X1115211Y228171D01*
X1115237Y228310D01*
X1115266Y228448D01*
X1115300Y228584D01*
X1115337Y228720D01*
X1115378Y228855D01*
X1115423Y228989D01*
X1115472Y229121D01*
X1115524Y229252D01*
X1115580Y229381D01*
X1115640Y229508D01*
X1115703Y229634D01*
X1115769Y229758D01*
X1115840Y229881D01*
X1115913Y230001D01*
X1115990Y230119D01*
X1116070Y230235D01*
X1116154Y230348D01*
X1116240Y230459D01*
X1116330Y230568D01*
X1116423Y230674D01*
X1116518Y230777D01*
X1116617Y230878D01*
X1116718Y230976D01*
X1116822Y231071D01*
X1116929Y231163D01*
X1117038Y231252D01*
X1117150Y231337D01*
X1117264Y231420D01*
X1117380Y231500D01*
X1117499Y231576D01*
X1117620Y231648D01*
X1117742Y231718D01*
X1117867Y231783D01*
X1117993Y231846D01*
X1118121Y231904D01*
X1118251Y231959D01*
X1118382Y232011D01*
X1118515Y232058D01*
X1118649Y232102D01*
X1118784Y232143D01*
X1118920Y232179D01*
X1119057Y232211D01*
X1119195Y232240D01*
X1119333Y232265D01*
X1119473Y232285D01*
X1119613Y232302D01*
X1119753Y232315D01*
X1119894Y232324D01*
X1120034Y232329D01*
X1120175Y232330D01*
X1120316Y232327D01*
X1120457Y232320D01*
X1120597Y232309D01*
X1120737Y232294D01*
X1120877Y232275D01*
X1121016Y232253D01*
X1121154Y232226D01*
X1121292Y232196D01*
X1121428Y232161D01*
X1121564Y232123D01*
X1121698Y232081D01*
X1121832Y232035D01*
X1121964Y231986D01*
X1122094Y231932D01*
X1122223Y231875D01*
X1122350Y231815D01*
X1122476Y231751D01*
X1122599Y231683D01*
X1122721Y231612D01*
X1122841Y231538D01*
X1122958Y231460D01*
X1123073Y231379D01*
X1123186Y231295D01*
X1123297Y231208D01*
X1123405Y231117D01*
X1123510Y231024D01*
X1123613Y230927D01*
X1123713Y230828D01*
X1123810Y230726D01*
X1123904Y230621D01*
X1123995Y230514D01*
X1124083Y230404D01*
X1124168Y230292D01*
X1124250Y230177D01*
X1124329Y230060D01*
X1124404Y229941D01*
X1124476Y229820D01*
X1124544Y229697D01*
X1124609Y229572D01*
X1124671Y229445D01*
X1124728Y229316D01*
X1124783Y229186D01*
X1124833Y229055D01*
X1124880Y228922D01*
X1124923Y228788D01*
X1124962Y228652D01*
X1124997Y228516D01*
X1125029Y228379D01*
X1125056Y228241D01*
X1125080Y228102D01*
X1125100Y227962D01*
X1125116Y227822D01*
X1125128Y227682D01*
X1125136Y227541D01*
X1125140Y227400D01*
X1125140Y227260D01*
X1125136Y227119D01*
X1125128Y226978D01*
X1125116Y226838D01*
X1125100Y226698D01*
X1125080Y226558D01*
X1125056Y226419D01*
X1125029Y226281D01*
X1124997Y226144D01*
X1124962Y226008D01*
X1124923Y225872D01*
X1124880Y225738D01*
X1124833Y225605D01*
X1124783Y225474D01*
X1124728Y225344D01*
X1124671Y225215D01*
X1124609Y225088D01*
X1124544Y224963D01*
X1124476Y224840D01*
X1124404Y224719D01*
X1124329Y224600D01*
X1124250Y224483D01*
X1124168Y224368D01*
X1124083Y224256D01*
X1123995Y224146D01*
X1123904Y224039D01*
X1123810Y223934D01*
X1123713Y223832D01*
X1123613Y223733D01*
X1123510Y223636D01*
X1123405Y223543D01*
X1123297Y223452D01*
X1123186Y223365D01*
X1123073Y223281D01*
X1122958Y223200D01*
X1122841Y223122D01*
X1122721Y223048D01*
X1122599Y222977D01*
X1122476Y222909D01*
X1122350Y222845D01*
X1122223Y222785D01*
X1122094Y222728D01*
X1121964Y222674D01*
X1121832Y222625D01*
X1121698Y222579D01*
X1121564Y222537D01*
X1121428Y222499D01*
X1121292Y222464D01*
X1121154Y222434D01*
X1121016Y222407D01*
X1120877Y222385D01*
X1120737Y222366D01*
X1120597Y222351D01*
X1120457Y222340D01*
X1120316Y222333D01*
X1120175Y222330D01*
X1120034Y222331D01*
X1119894Y222336D01*
X1119753Y222345D01*
X1119613Y222358D01*
X1119473Y222375D01*
X1119333Y222395D01*
X1119195Y222420D01*
X1119057Y222449D01*
X1118920Y222481D01*
X1118784Y222517D01*
X1118649Y222558D01*
X1118515Y222602D01*
X1118382Y222649D01*
X1118251Y222701D01*
X1118121Y222756D01*
X1117993Y222814D01*
X1117867Y222877D01*
X1117742Y222942D01*
X1117620Y223012D01*
X1117499Y223084D01*
X1117380Y223160D01*
X1117264Y223240D01*
X1117150Y223323D01*
X1117038Y223408D01*
X1116929Y223497D01*
X1116822Y223589D01*
X1116718Y223684D01*
X1116617Y223782D01*
X1116518Y223883D01*
X1116423Y223986D01*
X1116330Y224092D01*
X1116240Y224201D01*
X1116154Y224312D01*
X1116070Y224425D01*
X1115990Y224541D01*
X1115913Y224659D01*
X1115840Y224779D01*
X1115769Y224902D01*
X1115703Y225026D01*
X1115640Y225152D01*
X1115580Y225279D01*
X1115524Y225408D01*
X1115472Y225539D01*
X1115423Y225671D01*
X1115378Y225805D01*
X1115337Y225940D01*
X1115300Y226076D01*
X1115266Y226212D01*
X1115237Y226350D01*
X1115211Y226489D01*
X1115190Y226628D01*
X1115172Y226768D01*
X1115158Y226908D01*
X1115148Y227048D01*
X1115142Y227189D01*
X1115140Y227330D01*
D15*
X1120140Y227330D03*
D10*
X1089740Y227330D02*
X1089742Y227471D01*
X1089748Y227612D01*
X1089758Y227752D01*
X1089772Y227892D01*
X1089790Y228032D01*
X1089811Y228171D01*
X1089837Y228310D01*
X1089866Y228448D01*
X1089900Y228584D01*
X1089937Y228720D01*
X1089978Y228855D01*
X1090023Y228989D01*
X1090072Y229121D01*
X1090124Y229252D01*
X1090180Y229381D01*
X1090240Y229508D01*
X1090303Y229634D01*
X1090369Y229758D01*
X1090440Y229881D01*
X1090513Y230001D01*
X1090590Y230119D01*
X1090670Y230235D01*
X1090754Y230348D01*
X1090840Y230459D01*
X1090930Y230568D01*
X1091023Y230674D01*
X1091118Y230777D01*
X1091217Y230878D01*
X1091318Y230976D01*
X1091422Y231071D01*
X1091529Y231163D01*
X1091638Y231252D01*
X1091750Y231337D01*
X1091864Y231420D01*
X1091980Y231500D01*
X1092099Y231576D01*
X1092220Y231648D01*
X1092342Y231718D01*
X1092467Y231783D01*
X1092593Y231846D01*
X1092721Y231904D01*
X1092851Y231959D01*
X1092982Y232011D01*
X1093115Y232058D01*
X1093249Y232102D01*
X1093384Y232143D01*
X1093520Y232179D01*
X1093657Y232211D01*
X1093795Y232240D01*
X1093933Y232265D01*
X1094073Y232285D01*
X1094213Y232302D01*
X1094353Y232315D01*
X1094494Y232324D01*
X1094634Y232329D01*
X1094775Y232330D01*
X1094916Y232327D01*
X1095057Y232320D01*
X1095197Y232309D01*
X1095337Y232294D01*
X1095477Y232275D01*
X1095616Y232253D01*
X1095754Y232226D01*
X1095892Y232196D01*
X1096028Y232161D01*
X1096164Y232123D01*
X1096298Y232081D01*
X1096432Y232035D01*
X1096564Y231986D01*
X1096694Y231932D01*
X1096823Y231875D01*
X1096950Y231815D01*
X1097076Y231751D01*
X1097199Y231683D01*
X1097321Y231612D01*
X1097441Y231538D01*
X1097558Y231460D01*
X1097673Y231379D01*
X1097786Y231295D01*
X1097897Y231208D01*
X1098005Y231117D01*
X1098110Y231024D01*
X1098213Y230927D01*
X1098313Y230828D01*
X1098410Y230726D01*
X1098504Y230621D01*
X1098595Y230514D01*
X1098683Y230404D01*
X1098768Y230292D01*
X1098850Y230177D01*
X1098929Y230060D01*
X1099004Y229941D01*
X1099076Y229820D01*
X1099144Y229697D01*
X1099209Y229572D01*
X1099271Y229445D01*
X1099328Y229316D01*
X1099383Y229186D01*
X1099433Y229055D01*
X1099480Y228922D01*
X1099523Y228788D01*
X1099562Y228652D01*
X1099597Y228516D01*
X1099629Y228379D01*
X1099656Y228241D01*
X1099680Y228102D01*
X1099700Y227962D01*
X1099716Y227822D01*
X1099728Y227682D01*
X1099736Y227541D01*
X1099740Y227400D01*
X1099740Y227260D01*
X1099736Y227119D01*
X1099728Y226978D01*
X1099716Y226838D01*
X1099700Y226698D01*
X1099680Y226558D01*
X1099656Y226419D01*
X1099629Y226281D01*
X1099597Y226144D01*
X1099562Y226008D01*
X1099523Y225872D01*
X1099480Y225738D01*
X1099433Y225605D01*
X1099383Y225474D01*
X1099328Y225344D01*
X1099271Y225215D01*
X1099209Y225088D01*
X1099144Y224963D01*
X1099076Y224840D01*
X1099004Y224719D01*
X1098929Y224600D01*
X1098850Y224483D01*
X1098768Y224368D01*
X1098683Y224256D01*
X1098595Y224146D01*
X1098504Y224039D01*
X1098410Y223934D01*
X1098313Y223832D01*
X1098213Y223733D01*
X1098110Y223636D01*
X1098005Y223543D01*
X1097897Y223452D01*
X1097786Y223365D01*
X1097673Y223281D01*
X1097558Y223200D01*
X1097441Y223122D01*
X1097321Y223048D01*
X1097199Y222977D01*
X1097076Y222909D01*
X1096950Y222845D01*
X1096823Y222785D01*
X1096694Y222728D01*
X1096564Y222674D01*
X1096432Y222625D01*
X1096298Y222579D01*
X1096164Y222537D01*
X1096028Y222499D01*
X1095892Y222464D01*
X1095754Y222434D01*
X1095616Y222407D01*
X1095477Y222385D01*
X1095337Y222366D01*
X1095197Y222351D01*
X1095057Y222340D01*
X1094916Y222333D01*
X1094775Y222330D01*
X1094634Y222331D01*
X1094494Y222336D01*
X1094353Y222345D01*
X1094213Y222358D01*
X1094073Y222375D01*
X1093933Y222395D01*
X1093795Y222420D01*
X1093657Y222449D01*
X1093520Y222481D01*
X1093384Y222517D01*
X1093249Y222558D01*
X1093115Y222602D01*
X1092982Y222649D01*
X1092851Y222701D01*
X1092721Y222756D01*
X1092593Y222814D01*
X1092467Y222877D01*
X1092342Y222942D01*
X1092220Y223012D01*
X1092099Y223084D01*
X1091980Y223160D01*
X1091864Y223240D01*
X1091750Y223323D01*
X1091638Y223408D01*
X1091529Y223497D01*
X1091422Y223589D01*
X1091318Y223684D01*
X1091217Y223782D01*
X1091118Y223883D01*
X1091023Y223986D01*
X1090930Y224092D01*
X1090840Y224201D01*
X1090754Y224312D01*
X1090670Y224425D01*
X1090590Y224541D01*
X1090513Y224659D01*
X1090440Y224779D01*
X1090369Y224902D01*
X1090303Y225026D01*
X1090240Y225152D01*
X1090180Y225279D01*
X1090124Y225408D01*
X1090072Y225539D01*
X1090023Y225671D01*
X1089978Y225805D01*
X1089937Y225940D01*
X1089900Y226076D01*
X1089866Y226212D01*
X1089837Y226350D01*
X1089811Y226489D01*
X1089790Y226628D01*
X1089772Y226768D01*
X1089758Y226908D01*
X1089748Y227048D01*
X1089742Y227189D01*
X1089740Y227330D01*
D15*
X1094740Y227330D03*
D10*
X1089740Y252730D02*
X1089742Y252871D01*
X1089748Y253012D01*
X1089758Y253152D01*
X1089772Y253292D01*
X1089790Y253432D01*
X1089811Y253571D01*
X1089837Y253710D01*
X1089866Y253848D01*
X1089900Y253984D01*
X1089937Y254120D01*
X1089978Y254255D01*
X1090023Y254389D01*
X1090072Y254521D01*
X1090124Y254652D01*
X1090180Y254781D01*
X1090240Y254908D01*
X1090303Y255034D01*
X1090369Y255158D01*
X1090440Y255281D01*
X1090513Y255401D01*
X1090590Y255519D01*
X1090670Y255635D01*
X1090754Y255748D01*
X1090840Y255859D01*
X1090930Y255968D01*
X1091023Y256074D01*
X1091118Y256177D01*
X1091217Y256278D01*
X1091318Y256376D01*
X1091422Y256471D01*
X1091529Y256563D01*
X1091638Y256652D01*
X1091750Y256737D01*
X1091864Y256820D01*
X1091980Y256900D01*
X1092099Y256976D01*
X1092220Y257048D01*
X1092342Y257118D01*
X1092467Y257183D01*
X1092593Y257246D01*
X1092721Y257304D01*
X1092851Y257359D01*
X1092982Y257411D01*
X1093115Y257458D01*
X1093249Y257502D01*
X1093384Y257543D01*
X1093520Y257579D01*
X1093657Y257611D01*
X1093795Y257640D01*
X1093933Y257665D01*
X1094073Y257685D01*
X1094213Y257702D01*
X1094353Y257715D01*
X1094494Y257724D01*
X1094634Y257729D01*
X1094775Y257730D01*
X1094916Y257727D01*
X1095057Y257720D01*
X1095197Y257709D01*
X1095337Y257694D01*
X1095477Y257675D01*
X1095616Y257653D01*
X1095754Y257626D01*
X1095892Y257596D01*
X1096028Y257561D01*
X1096164Y257523D01*
X1096298Y257481D01*
X1096432Y257435D01*
X1096564Y257386D01*
X1096694Y257332D01*
X1096823Y257275D01*
X1096950Y257215D01*
X1097076Y257151D01*
X1097199Y257083D01*
X1097321Y257012D01*
X1097441Y256938D01*
X1097558Y256860D01*
X1097673Y256779D01*
X1097786Y256695D01*
X1097897Y256608D01*
X1098005Y256517D01*
X1098110Y256424D01*
X1098213Y256327D01*
X1098313Y256228D01*
X1098410Y256126D01*
X1098504Y256021D01*
X1098595Y255914D01*
X1098683Y255804D01*
X1098768Y255692D01*
X1098850Y255577D01*
X1098929Y255460D01*
X1099004Y255341D01*
X1099076Y255220D01*
X1099144Y255097D01*
X1099209Y254972D01*
X1099271Y254845D01*
X1099328Y254716D01*
X1099383Y254586D01*
X1099433Y254455D01*
X1099480Y254322D01*
X1099523Y254188D01*
X1099562Y254052D01*
X1099597Y253916D01*
X1099629Y253779D01*
X1099656Y253641D01*
X1099680Y253502D01*
X1099700Y253362D01*
X1099716Y253222D01*
X1099728Y253082D01*
X1099736Y252941D01*
X1099740Y252800D01*
X1099740Y252660D01*
X1099736Y252519D01*
X1099728Y252378D01*
X1099716Y252238D01*
X1099700Y252098D01*
X1099680Y251958D01*
X1099656Y251819D01*
X1099629Y251681D01*
X1099597Y251544D01*
X1099562Y251408D01*
X1099523Y251272D01*
X1099480Y251138D01*
X1099433Y251005D01*
X1099383Y250874D01*
X1099328Y250744D01*
X1099271Y250615D01*
X1099209Y250488D01*
X1099144Y250363D01*
X1099076Y250240D01*
X1099004Y250119D01*
X1098929Y250000D01*
X1098850Y249883D01*
X1098768Y249768D01*
X1098683Y249656D01*
X1098595Y249546D01*
X1098504Y249439D01*
X1098410Y249334D01*
X1098313Y249232D01*
X1098213Y249133D01*
X1098110Y249036D01*
X1098005Y248943D01*
X1097897Y248852D01*
X1097786Y248765D01*
X1097673Y248681D01*
X1097558Y248600D01*
X1097441Y248522D01*
X1097321Y248448D01*
X1097199Y248377D01*
X1097076Y248309D01*
X1096950Y248245D01*
X1096823Y248185D01*
X1096694Y248128D01*
X1096564Y248074D01*
X1096432Y248025D01*
X1096298Y247979D01*
X1096164Y247937D01*
X1096028Y247899D01*
X1095892Y247864D01*
X1095754Y247834D01*
X1095616Y247807D01*
X1095477Y247785D01*
X1095337Y247766D01*
X1095197Y247751D01*
X1095057Y247740D01*
X1094916Y247733D01*
X1094775Y247730D01*
X1094634Y247731D01*
X1094494Y247736D01*
X1094353Y247745D01*
X1094213Y247758D01*
X1094073Y247775D01*
X1093933Y247795D01*
X1093795Y247820D01*
X1093657Y247849D01*
X1093520Y247881D01*
X1093384Y247917D01*
X1093249Y247958D01*
X1093115Y248002D01*
X1092982Y248049D01*
X1092851Y248101D01*
X1092721Y248156D01*
X1092593Y248214D01*
X1092467Y248277D01*
X1092342Y248342D01*
X1092220Y248412D01*
X1092099Y248484D01*
X1091980Y248560D01*
X1091864Y248640D01*
X1091750Y248723D01*
X1091638Y248808D01*
X1091529Y248897D01*
X1091422Y248989D01*
X1091318Y249084D01*
X1091217Y249182D01*
X1091118Y249283D01*
X1091023Y249386D01*
X1090930Y249492D01*
X1090840Y249601D01*
X1090754Y249712D01*
X1090670Y249825D01*
X1090590Y249941D01*
X1090513Y250059D01*
X1090440Y250179D01*
X1090369Y250302D01*
X1090303Y250426D01*
X1090240Y250552D01*
X1090180Y250679D01*
X1090124Y250808D01*
X1090072Y250939D01*
X1090023Y251071D01*
X1089978Y251205D01*
X1089937Y251340D01*
X1089900Y251476D01*
X1089866Y251612D01*
X1089837Y251750D01*
X1089811Y251889D01*
X1089790Y252028D01*
X1089772Y252168D01*
X1089758Y252308D01*
X1089748Y252448D01*
X1089742Y252589D01*
X1089740Y252730D01*
D15*
X1094740Y252730D03*
D14*
X1145540Y227330D03*
D10*
X1140540Y252730D02*
X1140542Y252871D01*
X1140548Y253012D01*
X1140558Y253152D01*
X1140572Y253292D01*
X1140590Y253432D01*
X1140611Y253571D01*
X1140637Y253710D01*
X1140666Y253848D01*
X1140700Y253984D01*
X1140737Y254120D01*
X1140778Y254255D01*
X1140823Y254389D01*
X1140872Y254521D01*
X1140924Y254652D01*
X1140980Y254781D01*
X1141040Y254908D01*
X1141103Y255034D01*
X1141169Y255158D01*
X1141240Y255281D01*
X1141313Y255401D01*
X1141390Y255519D01*
X1141470Y255635D01*
X1141554Y255748D01*
X1141640Y255859D01*
X1141730Y255968D01*
X1141823Y256074D01*
X1141918Y256177D01*
X1142017Y256278D01*
X1142118Y256376D01*
X1142222Y256471D01*
X1142329Y256563D01*
X1142438Y256652D01*
X1142550Y256737D01*
X1142664Y256820D01*
X1142780Y256900D01*
X1142899Y256976D01*
X1143020Y257048D01*
X1143142Y257118D01*
X1143267Y257183D01*
X1143393Y257246D01*
X1143521Y257304D01*
X1143651Y257359D01*
X1143782Y257411D01*
X1143915Y257458D01*
X1144049Y257502D01*
X1144184Y257543D01*
X1144320Y257579D01*
X1144457Y257611D01*
X1144595Y257640D01*
X1144733Y257665D01*
X1144873Y257685D01*
X1145013Y257702D01*
X1145153Y257715D01*
X1145294Y257724D01*
X1145434Y257729D01*
X1145575Y257730D01*
X1145716Y257727D01*
X1145857Y257720D01*
X1145997Y257709D01*
X1146137Y257694D01*
X1146277Y257675D01*
X1146416Y257653D01*
X1146554Y257626D01*
X1146692Y257596D01*
X1146828Y257561D01*
X1146964Y257523D01*
X1147098Y257481D01*
X1147232Y257435D01*
X1147364Y257386D01*
X1147494Y257332D01*
X1147623Y257275D01*
X1147750Y257215D01*
X1147876Y257151D01*
X1147999Y257083D01*
X1148121Y257012D01*
X1148241Y256938D01*
X1148358Y256860D01*
X1148473Y256779D01*
X1148586Y256695D01*
X1148697Y256608D01*
X1148805Y256517D01*
X1148910Y256424D01*
X1149013Y256327D01*
X1149113Y256228D01*
X1149210Y256126D01*
X1149304Y256021D01*
X1149395Y255914D01*
X1149483Y255804D01*
X1149568Y255692D01*
X1149650Y255577D01*
X1149729Y255460D01*
X1149804Y255341D01*
X1149876Y255220D01*
X1149944Y255097D01*
X1150009Y254972D01*
X1150071Y254845D01*
X1150128Y254716D01*
X1150183Y254586D01*
X1150233Y254455D01*
X1150280Y254322D01*
X1150323Y254188D01*
X1150362Y254052D01*
X1150397Y253916D01*
X1150429Y253779D01*
X1150456Y253641D01*
X1150480Y253502D01*
X1150500Y253362D01*
X1150516Y253222D01*
X1150528Y253082D01*
X1150536Y252941D01*
X1150540Y252800D01*
X1150540Y252660D01*
X1150536Y252519D01*
X1150528Y252378D01*
X1150516Y252238D01*
X1150500Y252098D01*
X1150480Y251958D01*
X1150456Y251819D01*
X1150429Y251681D01*
X1150397Y251544D01*
X1150362Y251408D01*
X1150323Y251272D01*
X1150280Y251138D01*
X1150233Y251005D01*
X1150183Y250874D01*
X1150128Y250744D01*
X1150071Y250615D01*
X1150009Y250488D01*
X1149944Y250363D01*
X1149876Y250240D01*
X1149804Y250119D01*
X1149729Y250000D01*
X1149650Y249883D01*
X1149568Y249768D01*
X1149483Y249656D01*
X1149395Y249546D01*
X1149304Y249439D01*
X1149210Y249334D01*
X1149113Y249232D01*
X1149013Y249133D01*
X1148910Y249036D01*
X1148805Y248943D01*
X1148697Y248852D01*
X1148586Y248765D01*
X1148473Y248681D01*
X1148358Y248600D01*
X1148241Y248522D01*
X1148121Y248448D01*
X1147999Y248377D01*
X1147876Y248309D01*
X1147750Y248245D01*
X1147623Y248185D01*
X1147494Y248128D01*
X1147364Y248074D01*
X1147232Y248025D01*
X1147098Y247979D01*
X1146964Y247937D01*
X1146828Y247899D01*
X1146692Y247864D01*
X1146554Y247834D01*
X1146416Y247807D01*
X1146277Y247785D01*
X1146137Y247766D01*
X1145997Y247751D01*
X1145857Y247740D01*
X1145716Y247733D01*
X1145575Y247730D01*
X1145434Y247731D01*
X1145294Y247736D01*
X1145153Y247745D01*
X1145013Y247758D01*
X1144873Y247775D01*
X1144733Y247795D01*
X1144595Y247820D01*
X1144457Y247849D01*
X1144320Y247881D01*
X1144184Y247917D01*
X1144049Y247958D01*
X1143915Y248002D01*
X1143782Y248049D01*
X1143651Y248101D01*
X1143521Y248156D01*
X1143393Y248214D01*
X1143267Y248277D01*
X1143142Y248342D01*
X1143020Y248412D01*
X1142899Y248484D01*
X1142780Y248560D01*
X1142664Y248640D01*
X1142550Y248723D01*
X1142438Y248808D01*
X1142329Y248897D01*
X1142222Y248989D01*
X1142118Y249084D01*
X1142017Y249182D01*
X1141918Y249283D01*
X1141823Y249386D01*
X1141730Y249492D01*
X1141640Y249601D01*
X1141554Y249712D01*
X1141470Y249825D01*
X1141390Y249941D01*
X1141313Y250059D01*
X1141240Y250179D01*
X1141169Y250302D01*
X1141103Y250426D01*
X1141040Y250552D01*
X1140980Y250679D01*
X1140924Y250808D01*
X1140872Y250939D01*
X1140823Y251071D01*
X1140778Y251205D01*
X1140737Y251340D01*
X1140700Y251476D01*
X1140666Y251612D01*
X1140637Y251750D01*
X1140611Y251889D01*
X1140590Y252028D01*
X1140572Y252168D01*
X1140558Y252308D01*
X1140548Y252448D01*
X1140542Y252589D01*
X1140540Y252730D01*
D15*
X1145540Y252730D03*
D16*
X1187450Y198120D03*
X1172210Y198120D03*
X1156970Y198120D03*
D17*
X883310Y264160D03*
X902310Y264160D03*
D18*
X935930Y277870D03*
X935930Y271370D03*
X935930Y264870D03*
X935930Y258370D03*
X935930Y251870D03*
X935930Y245370D03*
X935930Y238870D03*
X935930Y232370D03*
X935930Y225870D03*
X935930Y219370D03*
X991930Y219370D03*
X991930Y225870D03*
X991930Y232370D03*
X991930Y238870D03*
X991930Y245370D03*
X991930Y251870D03*
X991930Y258370D03*
X991930Y264870D03*
X991930Y271370D03*
X991930Y277870D03*
D19*
X900810Y220410D03*
X900810Y228410D03*
X900810Y236410D03*
X900810Y244410D03*
X884810Y244410D03*
X884810Y236410D03*
X884810Y228410D03*
X884810Y220410D03*
D11*
X12700Y243840D03*
X12700Y262890D03*
X12700Y281940D03*
D19*
X1029590Y238060D03*
X1029590Y230060D03*
X1029590Y222060D03*
X1029590Y214060D03*
X1045590Y214060D03*
X1045590Y222060D03*
X1045590Y230060D03*
X1045590Y238060D03*
D20*
X902580Y284480D03*
X885580Y284480D03*
D21*
X963930Y247650D03*
X971550Y247650D03*
D22*
X967740Y247650D03*
D21*
X963930Y233680D03*
X971550Y233680D03*
D22*
X967740Y233680D03*
D21*
X963930Y219710D03*
X971550Y219710D03*
D22*
X967740Y219710D03*
D23*
X82550Y281940D03*
X82550Y266700D03*
X82550Y251460D03*
D24*
X1024690Y269850D03*
X1024690Y260350D03*
X1024690Y250850D03*
X1050590Y250850D03*
X1050590Y269850D03*
D20*
X1046090Y285750D03*
X1029090Y285750D03*
M02*
