G04 EAGLE Gerber X2 export*
%TF.Part,Single*%
%TF.FileFunction,Other,bottom copper*%
%TF.FilePolarity,Positive*%
%TF.GenerationSoftware,Autodesk,EAGLE,9.5.2*%
%TF.CreationDate,2020-04-08T10:13:28Z*%
G75*
%MOMM*%
%FSLAX34Y34*%
%LPD*%
%INbottom copper*%
%AMOC8*
5,1,8,0,0,1.08239X$1,22.5*%
G01*
%ADD10C,0.000000*%
%ADD11R,2.540000X1.270000*%
%ADD12R,1.270000X2.540000*%
%ADD13R,1.500000X1.500000*%
%ADD14C,1.500000*%
%ADD15C,1.020000*%
%ADD16C,0.304800*%
%ADD17C,0.609600*%
%ADD18C,0.254000*%
%ADD19C,0.935000*%
%ADD20C,0.406400*%
%ADD21C,0.203200*%
%ADD22C,0.680000*%
%ADD23C,0.508000*%


D10*
X0Y232410D02*
X50800Y181610D01*
X50800Y100330D01*
X60960Y90170D01*
X60960Y59690D01*
X50800Y49530D01*
X50800Y6350D01*
X55880Y1270D01*
X213360Y1270D01*
X1236980Y210820D02*
X1236980Y270510D01*
X0Y290830D02*
X0Y232410D01*
X0Y290830D02*
X5080Y295910D01*
X220980Y8890D02*
X213360Y1270D01*
X220980Y8890D02*
X220980Y199390D01*
X228600Y207010D01*
X1074420Y207010D01*
X1056640Y295910D02*
X5080Y295910D01*
X1074420Y207010D02*
X1098550Y182880D01*
X1209040Y182880D01*
X1236980Y210820D01*
X1073150Y279400D02*
X1056640Y295910D01*
X1073150Y279400D02*
X1228090Y279400D01*
X1236980Y270510D01*
D11*
X50800Y173990D03*
X50800Y148590D03*
X50800Y129540D03*
X50800Y110490D03*
X50800Y40640D03*
X50800Y15240D03*
D12*
G36*
X15740Y202610D02*
X24720Y211590D01*
X42680Y193630D01*
X33700Y184650D01*
X15740Y202610D01*
G37*
G36*
X22090Y208960D02*
X31070Y217940D01*
X49030Y199980D01*
X40050Y191000D01*
X22090Y208960D01*
G37*
D13*
X1221740Y227330D03*
D14*
X1221740Y252730D03*
X1196340Y227330D03*
X1196340Y252730D03*
X1170940Y227330D03*
X1170940Y252730D03*
X1120140Y252730D03*
D10*
X1115140Y227330D02*
X1115142Y227471D01*
X1115148Y227612D01*
X1115158Y227752D01*
X1115172Y227892D01*
X1115190Y228032D01*
X1115211Y228171D01*
X1115237Y228310D01*
X1115266Y228448D01*
X1115300Y228584D01*
X1115337Y228720D01*
X1115378Y228855D01*
X1115423Y228989D01*
X1115472Y229121D01*
X1115524Y229252D01*
X1115580Y229381D01*
X1115640Y229508D01*
X1115703Y229634D01*
X1115769Y229758D01*
X1115840Y229881D01*
X1115913Y230001D01*
X1115990Y230119D01*
X1116070Y230235D01*
X1116154Y230348D01*
X1116240Y230459D01*
X1116330Y230568D01*
X1116423Y230674D01*
X1116518Y230777D01*
X1116617Y230878D01*
X1116718Y230976D01*
X1116822Y231071D01*
X1116929Y231163D01*
X1117038Y231252D01*
X1117150Y231337D01*
X1117264Y231420D01*
X1117380Y231500D01*
X1117499Y231576D01*
X1117620Y231648D01*
X1117742Y231718D01*
X1117867Y231783D01*
X1117993Y231846D01*
X1118121Y231904D01*
X1118251Y231959D01*
X1118382Y232011D01*
X1118515Y232058D01*
X1118649Y232102D01*
X1118784Y232143D01*
X1118920Y232179D01*
X1119057Y232211D01*
X1119195Y232240D01*
X1119333Y232265D01*
X1119473Y232285D01*
X1119613Y232302D01*
X1119753Y232315D01*
X1119894Y232324D01*
X1120034Y232329D01*
X1120175Y232330D01*
X1120316Y232327D01*
X1120457Y232320D01*
X1120597Y232309D01*
X1120737Y232294D01*
X1120877Y232275D01*
X1121016Y232253D01*
X1121154Y232226D01*
X1121292Y232196D01*
X1121428Y232161D01*
X1121564Y232123D01*
X1121698Y232081D01*
X1121832Y232035D01*
X1121964Y231986D01*
X1122094Y231932D01*
X1122223Y231875D01*
X1122350Y231815D01*
X1122476Y231751D01*
X1122599Y231683D01*
X1122721Y231612D01*
X1122841Y231538D01*
X1122958Y231460D01*
X1123073Y231379D01*
X1123186Y231295D01*
X1123297Y231208D01*
X1123405Y231117D01*
X1123510Y231024D01*
X1123613Y230927D01*
X1123713Y230828D01*
X1123810Y230726D01*
X1123904Y230621D01*
X1123995Y230514D01*
X1124083Y230404D01*
X1124168Y230292D01*
X1124250Y230177D01*
X1124329Y230060D01*
X1124404Y229941D01*
X1124476Y229820D01*
X1124544Y229697D01*
X1124609Y229572D01*
X1124671Y229445D01*
X1124728Y229316D01*
X1124783Y229186D01*
X1124833Y229055D01*
X1124880Y228922D01*
X1124923Y228788D01*
X1124962Y228652D01*
X1124997Y228516D01*
X1125029Y228379D01*
X1125056Y228241D01*
X1125080Y228102D01*
X1125100Y227962D01*
X1125116Y227822D01*
X1125128Y227682D01*
X1125136Y227541D01*
X1125140Y227400D01*
X1125140Y227260D01*
X1125136Y227119D01*
X1125128Y226978D01*
X1125116Y226838D01*
X1125100Y226698D01*
X1125080Y226558D01*
X1125056Y226419D01*
X1125029Y226281D01*
X1124997Y226144D01*
X1124962Y226008D01*
X1124923Y225872D01*
X1124880Y225738D01*
X1124833Y225605D01*
X1124783Y225474D01*
X1124728Y225344D01*
X1124671Y225215D01*
X1124609Y225088D01*
X1124544Y224963D01*
X1124476Y224840D01*
X1124404Y224719D01*
X1124329Y224600D01*
X1124250Y224483D01*
X1124168Y224368D01*
X1124083Y224256D01*
X1123995Y224146D01*
X1123904Y224039D01*
X1123810Y223934D01*
X1123713Y223832D01*
X1123613Y223733D01*
X1123510Y223636D01*
X1123405Y223543D01*
X1123297Y223452D01*
X1123186Y223365D01*
X1123073Y223281D01*
X1122958Y223200D01*
X1122841Y223122D01*
X1122721Y223048D01*
X1122599Y222977D01*
X1122476Y222909D01*
X1122350Y222845D01*
X1122223Y222785D01*
X1122094Y222728D01*
X1121964Y222674D01*
X1121832Y222625D01*
X1121698Y222579D01*
X1121564Y222537D01*
X1121428Y222499D01*
X1121292Y222464D01*
X1121154Y222434D01*
X1121016Y222407D01*
X1120877Y222385D01*
X1120737Y222366D01*
X1120597Y222351D01*
X1120457Y222340D01*
X1120316Y222333D01*
X1120175Y222330D01*
X1120034Y222331D01*
X1119894Y222336D01*
X1119753Y222345D01*
X1119613Y222358D01*
X1119473Y222375D01*
X1119333Y222395D01*
X1119195Y222420D01*
X1119057Y222449D01*
X1118920Y222481D01*
X1118784Y222517D01*
X1118649Y222558D01*
X1118515Y222602D01*
X1118382Y222649D01*
X1118251Y222701D01*
X1118121Y222756D01*
X1117993Y222814D01*
X1117867Y222877D01*
X1117742Y222942D01*
X1117620Y223012D01*
X1117499Y223084D01*
X1117380Y223160D01*
X1117264Y223240D01*
X1117150Y223323D01*
X1117038Y223408D01*
X1116929Y223497D01*
X1116822Y223589D01*
X1116718Y223684D01*
X1116617Y223782D01*
X1116518Y223883D01*
X1116423Y223986D01*
X1116330Y224092D01*
X1116240Y224201D01*
X1116154Y224312D01*
X1116070Y224425D01*
X1115990Y224541D01*
X1115913Y224659D01*
X1115840Y224779D01*
X1115769Y224902D01*
X1115703Y225026D01*
X1115640Y225152D01*
X1115580Y225279D01*
X1115524Y225408D01*
X1115472Y225539D01*
X1115423Y225671D01*
X1115378Y225805D01*
X1115337Y225940D01*
X1115300Y226076D01*
X1115266Y226212D01*
X1115237Y226350D01*
X1115211Y226489D01*
X1115190Y226628D01*
X1115172Y226768D01*
X1115158Y226908D01*
X1115148Y227048D01*
X1115142Y227189D01*
X1115140Y227330D01*
X1089740Y227330D02*
X1089742Y227471D01*
X1089748Y227612D01*
X1089758Y227752D01*
X1089772Y227892D01*
X1089790Y228032D01*
X1089811Y228171D01*
X1089837Y228310D01*
X1089866Y228448D01*
X1089900Y228584D01*
X1089937Y228720D01*
X1089978Y228855D01*
X1090023Y228989D01*
X1090072Y229121D01*
X1090124Y229252D01*
X1090180Y229381D01*
X1090240Y229508D01*
X1090303Y229634D01*
X1090369Y229758D01*
X1090440Y229881D01*
X1090513Y230001D01*
X1090590Y230119D01*
X1090670Y230235D01*
X1090754Y230348D01*
X1090840Y230459D01*
X1090930Y230568D01*
X1091023Y230674D01*
X1091118Y230777D01*
X1091217Y230878D01*
X1091318Y230976D01*
X1091422Y231071D01*
X1091529Y231163D01*
X1091638Y231252D01*
X1091750Y231337D01*
X1091864Y231420D01*
X1091980Y231500D01*
X1092099Y231576D01*
X1092220Y231648D01*
X1092342Y231718D01*
X1092467Y231783D01*
X1092593Y231846D01*
X1092721Y231904D01*
X1092851Y231959D01*
X1092982Y232011D01*
X1093115Y232058D01*
X1093249Y232102D01*
X1093384Y232143D01*
X1093520Y232179D01*
X1093657Y232211D01*
X1093795Y232240D01*
X1093933Y232265D01*
X1094073Y232285D01*
X1094213Y232302D01*
X1094353Y232315D01*
X1094494Y232324D01*
X1094634Y232329D01*
X1094775Y232330D01*
X1094916Y232327D01*
X1095057Y232320D01*
X1095197Y232309D01*
X1095337Y232294D01*
X1095477Y232275D01*
X1095616Y232253D01*
X1095754Y232226D01*
X1095892Y232196D01*
X1096028Y232161D01*
X1096164Y232123D01*
X1096298Y232081D01*
X1096432Y232035D01*
X1096564Y231986D01*
X1096694Y231932D01*
X1096823Y231875D01*
X1096950Y231815D01*
X1097076Y231751D01*
X1097199Y231683D01*
X1097321Y231612D01*
X1097441Y231538D01*
X1097558Y231460D01*
X1097673Y231379D01*
X1097786Y231295D01*
X1097897Y231208D01*
X1098005Y231117D01*
X1098110Y231024D01*
X1098213Y230927D01*
X1098313Y230828D01*
X1098410Y230726D01*
X1098504Y230621D01*
X1098595Y230514D01*
X1098683Y230404D01*
X1098768Y230292D01*
X1098850Y230177D01*
X1098929Y230060D01*
X1099004Y229941D01*
X1099076Y229820D01*
X1099144Y229697D01*
X1099209Y229572D01*
X1099271Y229445D01*
X1099328Y229316D01*
X1099383Y229186D01*
X1099433Y229055D01*
X1099480Y228922D01*
X1099523Y228788D01*
X1099562Y228652D01*
X1099597Y228516D01*
X1099629Y228379D01*
X1099656Y228241D01*
X1099680Y228102D01*
X1099700Y227962D01*
X1099716Y227822D01*
X1099728Y227682D01*
X1099736Y227541D01*
X1099740Y227400D01*
X1099740Y227260D01*
X1099736Y227119D01*
X1099728Y226978D01*
X1099716Y226838D01*
X1099700Y226698D01*
X1099680Y226558D01*
X1099656Y226419D01*
X1099629Y226281D01*
X1099597Y226144D01*
X1099562Y226008D01*
X1099523Y225872D01*
X1099480Y225738D01*
X1099433Y225605D01*
X1099383Y225474D01*
X1099328Y225344D01*
X1099271Y225215D01*
X1099209Y225088D01*
X1099144Y224963D01*
X1099076Y224840D01*
X1099004Y224719D01*
X1098929Y224600D01*
X1098850Y224483D01*
X1098768Y224368D01*
X1098683Y224256D01*
X1098595Y224146D01*
X1098504Y224039D01*
X1098410Y223934D01*
X1098313Y223832D01*
X1098213Y223733D01*
X1098110Y223636D01*
X1098005Y223543D01*
X1097897Y223452D01*
X1097786Y223365D01*
X1097673Y223281D01*
X1097558Y223200D01*
X1097441Y223122D01*
X1097321Y223048D01*
X1097199Y222977D01*
X1097076Y222909D01*
X1096950Y222845D01*
X1096823Y222785D01*
X1096694Y222728D01*
X1096564Y222674D01*
X1096432Y222625D01*
X1096298Y222579D01*
X1096164Y222537D01*
X1096028Y222499D01*
X1095892Y222464D01*
X1095754Y222434D01*
X1095616Y222407D01*
X1095477Y222385D01*
X1095337Y222366D01*
X1095197Y222351D01*
X1095057Y222340D01*
X1094916Y222333D01*
X1094775Y222330D01*
X1094634Y222331D01*
X1094494Y222336D01*
X1094353Y222345D01*
X1094213Y222358D01*
X1094073Y222375D01*
X1093933Y222395D01*
X1093795Y222420D01*
X1093657Y222449D01*
X1093520Y222481D01*
X1093384Y222517D01*
X1093249Y222558D01*
X1093115Y222602D01*
X1092982Y222649D01*
X1092851Y222701D01*
X1092721Y222756D01*
X1092593Y222814D01*
X1092467Y222877D01*
X1092342Y222942D01*
X1092220Y223012D01*
X1092099Y223084D01*
X1091980Y223160D01*
X1091864Y223240D01*
X1091750Y223323D01*
X1091638Y223408D01*
X1091529Y223497D01*
X1091422Y223589D01*
X1091318Y223684D01*
X1091217Y223782D01*
X1091118Y223883D01*
X1091023Y223986D01*
X1090930Y224092D01*
X1090840Y224201D01*
X1090754Y224312D01*
X1090670Y224425D01*
X1090590Y224541D01*
X1090513Y224659D01*
X1090440Y224779D01*
X1090369Y224902D01*
X1090303Y225026D01*
X1090240Y225152D01*
X1090180Y225279D01*
X1090124Y225408D01*
X1090072Y225539D01*
X1090023Y225671D01*
X1089978Y225805D01*
X1089937Y225940D01*
X1089900Y226076D01*
X1089866Y226212D01*
X1089837Y226350D01*
X1089811Y226489D01*
X1089790Y226628D01*
X1089772Y226768D01*
X1089758Y226908D01*
X1089748Y227048D01*
X1089742Y227189D01*
X1089740Y227330D01*
X1089740Y252730D02*
X1089742Y252871D01*
X1089748Y253012D01*
X1089758Y253152D01*
X1089772Y253292D01*
X1089790Y253432D01*
X1089811Y253571D01*
X1089837Y253710D01*
X1089866Y253848D01*
X1089900Y253984D01*
X1089937Y254120D01*
X1089978Y254255D01*
X1090023Y254389D01*
X1090072Y254521D01*
X1090124Y254652D01*
X1090180Y254781D01*
X1090240Y254908D01*
X1090303Y255034D01*
X1090369Y255158D01*
X1090440Y255281D01*
X1090513Y255401D01*
X1090590Y255519D01*
X1090670Y255635D01*
X1090754Y255748D01*
X1090840Y255859D01*
X1090930Y255968D01*
X1091023Y256074D01*
X1091118Y256177D01*
X1091217Y256278D01*
X1091318Y256376D01*
X1091422Y256471D01*
X1091529Y256563D01*
X1091638Y256652D01*
X1091750Y256737D01*
X1091864Y256820D01*
X1091980Y256900D01*
X1092099Y256976D01*
X1092220Y257048D01*
X1092342Y257118D01*
X1092467Y257183D01*
X1092593Y257246D01*
X1092721Y257304D01*
X1092851Y257359D01*
X1092982Y257411D01*
X1093115Y257458D01*
X1093249Y257502D01*
X1093384Y257543D01*
X1093520Y257579D01*
X1093657Y257611D01*
X1093795Y257640D01*
X1093933Y257665D01*
X1094073Y257685D01*
X1094213Y257702D01*
X1094353Y257715D01*
X1094494Y257724D01*
X1094634Y257729D01*
X1094775Y257730D01*
X1094916Y257727D01*
X1095057Y257720D01*
X1095197Y257709D01*
X1095337Y257694D01*
X1095477Y257675D01*
X1095616Y257653D01*
X1095754Y257626D01*
X1095892Y257596D01*
X1096028Y257561D01*
X1096164Y257523D01*
X1096298Y257481D01*
X1096432Y257435D01*
X1096564Y257386D01*
X1096694Y257332D01*
X1096823Y257275D01*
X1096950Y257215D01*
X1097076Y257151D01*
X1097199Y257083D01*
X1097321Y257012D01*
X1097441Y256938D01*
X1097558Y256860D01*
X1097673Y256779D01*
X1097786Y256695D01*
X1097897Y256608D01*
X1098005Y256517D01*
X1098110Y256424D01*
X1098213Y256327D01*
X1098313Y256228D01*
X1098410Y256126D01*
X1098504Y256021D01*
X1098595Y255914D01*
X1098683Y255804D01*
X1098768Y255692D01*
X1098850Y255577D01*
X1098929Y255460D01*
X1099004Y255341D01*
X1099076Y255220D01*
X1099144Y255097D01*
X1099209Y254972D01*
X1099271Y254845D01*
X1099328Y254716D01*
X1099383Y254586D01*
X1099433Y254455D01*
X1099480Y254322D01*
X1099523Y254188D01*
X1099562Y254052D01*
X1099597Y253916D01*
X1099629Y253779D01*
X1099656Y253641D01*
X1099680Y253502D01*
X1099700Y253362D01*
X1099716Y253222D01*
X1099728Y253082D01*
X1099736Y252941D01*
X1099740Y252800D01*
X1099740Y252660D01*
X1099736Y252519D01*
X1099728Y252378D01*
X1099716Y252238D01*
X1099700Y252098D01*
X1099680Y251958D01*
X1099656Y251819D01*
X1099629Y251681D01*
X1099597Y251544D01*
X1099562Y251408D01*
X1099523Y251272D01*
X1099480Y251138D01*
X1099433Y251005D01*
X1099383Y250874D01*
X1099328Y250744D01*
X1099271Y250615D01*
X1099209Y250488D01*
X1099144Y250363D01*
X1099076Y250240D01*
X1099004Y250119D01*
X1098929Y250000D01*
X1098850Y249883D01*
X1098768Y249768D01*
X1098683Y249656D01*
X1098595Y249546D01*
X1098504Y249439D01*
X1098410Y249334D01*
X1098313Y249232D01*
X1098213Y249133D01*
X1098110Y249036D01*
X1098005Y248943D01*
X1097897Y248852D01*
X1097786Y248765D01*
X1097673Y248681D01*
X1097558Y248600D01*
X1097441Y248522D01*
X1097321Y248448D01*
X1097199Y248377D01*
X1097076Y248309D01*
X1096950Y248245D01*
X1096823Y248185D01*
X1096694Y248128D01*
X1096564Y248074D01*
X1096432Y248025D01*
X1096298Y247979D01*
X1096164Y247937D01*
X1096028Y247899D01*
X1095892Y247864D01*
X1095754Y247834D01*
X1095616Y247807D01*
X1095477Y247785D01*
X1095337Y247766D01*
X1095197Y247751D01*
X1095057Y247740D01*
X1094916Y247733D01*
X1094775Y247730D01*
X1094634Y247731D01*
X1094494Y247736D01*
X1094353Y247745D01*
X1094213Y247758D01*
X1094073Y247775D01*
X1093933Y247795D01*
X1093795Y247820D01*
X1093657Y247849D01*
X1093520Y247881D01*
X1093384Y247917D01*
X1093249Y247958D01*
X1093115Y248002D01*
X1092982Y248049D01*
X1092851Y248101D01*
X1092721Y248156D01*
X1092593Y248214D01*
X1092467Y248277D01*
X1092342Y248342D01*
X1092220Y248412D01*
X1092099Y248484D01*
X1091980Y248560D01*
X1091864Y248640D01*
X1091750Y248723D01*
X1091638Y248808D01*
X1091529Y248897D01*
X1091422Y248989D01*
X1091318Y249084D01*
X1091217Y249182D01*
X1091118Y249283D01*
X1091023Y249386D01*
X1090930Y249492D01*
X1090840Y249601D01*
X1090754Y249712D01*
X1090670Y249825D01*
X1090590Y249941D01*
X1090513Y250059D01*
X1090440Y250179D01*
X1090369Y250302D01*
X1090303Y250426D01*
X1090240Y250552D01*
X1090180Y250679D01*
X1090124Y250808D01*
X1090072Y250939D01*
X1090023Y251071D01*
X1089978Y251205D01*
X1089937Y251340D01*
X1089900Y251476D01*
X1089866Y251612D01*
X1089837Y251750D01*
X1089811Y251889D01*
X1089790Y252028D01*
X1089772Y252168D01*
X1089758Y252308D01*
X1089748Y252448D01*
X1089742Y252589D01*
X1089740Y252730D01*
D14*
X1145540Y227330D03*
D10*
X1140540Y252730D02*
X1140542Y252871D01*
X1140548Y253012D01*
X1140558Y253152D01*
X1140572Y253292D01*
X1140590Y253432D01*
X1140611Y253571D01*
X1140637Y253710D01*
X1140666Y253848D01*
X1140700Y253984D01*
X1140737Y254120D01*
X1140778Y254255D01*
X1140823Y254389D01*
X1140872Y254521D01*
X1140924Y254652D01*
X1140980Y254781D01*
X1141040Y254908D01*
X1141103Y255034D01*
X1141169Y255158D01*
X1141240Y255281D01*
X1141313Y255401D01*
X1141390Y255519D01*
X1141470Y255635D01*
X1141554Y255748D01*
X1141640Y255859D01*
X1141730Y255968D01*
X1141823Y256074D01*
X1141918Y256177D01*
X1142017Y256278D01*
X1142118Y256376D01*
X1142222Y256471D01*
X1142329Y256563D01*
X1142438Y256652D01*
X1142550Y256737D01*
X1142664Y256820D01*
X1142780Y256900D01*
X1142899Y256976D01*
X1143020Y257048D01*
X1143142Y257118D01*
X1143267Y257183D01*
X1143393Y257246D01*
X1143521Y257304D01*
X1143651Y257359D01*
X1143782Y257411D01*
X1143915Y257458D01*
X1144049Y257502D01*
X1144184Y257543D01*
X1144320Y257579D01*
X1144457Y257611D01*
X1144595Y257640D01*
X1144733Y257665D01*
X1144873Y257685D01*
X1145013Y257702D01*
X1145153Y257715D01*
X1145294Y257724D01*
X1145434Y257729D01*
X1145575Y257730D01*
X1145716Y257727D01*
X1145857Y257720D01*
X1145997Y257709D01*
X1146137Y257694D01*
X1146277Y257675D01*
X1146416Y257653D01*
X1146554Y257626D01*
X1146692Y257596D01*
X1146828Y257561D01*
X1146964Y257523D01*
X1147098Y257481D01*
X1147232Y257435D01*
X1147364Y257386D01*
X1147494Y257332D01*
X1147623Y257275D01*
X1147750Y257215D01*
X1147876Y257151D01*
X1147999Y257083D01*
X1148121Y257012D01*
X1148241Y256938D01*
X1148358Y256860D01*
X1148473Y256779D01*
X1148586Y256695D01*
X1148697Y256608D01*
X1148805Y256517D01*
X1148910Y256424D01*
X1149013Y256327D01*
X1149113Y256228D01*
X1149210Y256126D01*
X1149304Y256021D01*
X1149395Y255914D01*
X1149483Y255804D01*
X1149568Y255692D01*
X1149650Y255577D01*
X1149729Y255460D01*
X1149804Y255341D01*
X1149876Y255220D01*
X1149944Y255097D01*
X1150009Y254972D01*
X1150071Y254845D01*
X1150128Y254716D01*
X1150183Y254586D01*
X1150233Y254455D01*
X1150280Y254322D01*
X1150323Y254188D01*
X1150362Y254052D01*
X1150397Y253916D01*
X1150429Y253779D01*
X1150456Y253641D01*
X1150480Y253502D01*
X1150500Y253362D01*
X1150516Y253222D01*
X1150528Y253082D01*
X1150536Y252941D01*
X1150540Y252800D01*
X1150540Y252660D01*
X1150536Y252519D01*
X1150528Y252378D01*
X1150516Y252238D01*
X1150500Y252098D01*
X1150480Y251958D01*
X1150456Y251819D01*
X1150429Y251681D01*
X1150397Y251544D01*
X1150362Y251408D01*
X1150323Y251272D01*
X1150280Y251138D01*
X1150233Y251005D01*
X1150183Y250874D01*
X1150128Y250744D01*
X1150071Y250615D01*
X1150009Y250488D01*
X1149944Y250363D01*
X1149876Y250240D01*
X1149804Y250119D01*
X1149729Y250000D01*
X1149650Y249883D01*
X1149568Y249768D01*
X1149483Y249656D01*
X1149395Y249546D01*
X1149304Y249439D01*
X1149210Y249334D01*
X1149113Y249232D01*
X1149013Y249133D01*
X1148910Y249036D01*
X1148805Y248943D01*
X1148697Y248852D01*
X1148586Y248765D01*
X1148473Y248681D01*
X1148358Y248600D01*
X1148241Y248522D01*
X1148121Y248448D01*
X1147999Y248377D01*
X1147876Y248309D01*
X1147750Y248245D01*
X1147623Y248185D01*
X1147494Y248128D01*
X1147364Y248074D01*
X1147232Y248025D01*
X1147098Y247979D01*
X1146964Y247937D01*
X1146828Y247899D01*
X1146692Y247864D01*
X1146554Y247834D01*
X1146416Y247807D01*
X1146277Y247785D01*
X1146137Y247766D01*
X1145997Y247751D01*
X1145857Y247740D01*
X1145716Y247733D01*
X1145575Y247730D01*
X1145434Y247731D01*
X1145294Y247736D01*
X1145153Y247745D01*
X1145013Y247758D01*
X1144873Y247775D01*
X1144733Y247795D01*
X1144595Y247820D01*
X1144457Y247849D01*
X1144320Y247881D01*
X1144184Y247917D01*
X1144049Y247958D01*
X1143915Y248002D01*
X1143782Y248049D01*
X1143651Y248101D01*
X1143521Y248156D01*
X1143393Y248214D01*
X1143267Y248277D01*
X1143142Y248342D01*
X1143020Y248412D01*
X1142899Y248484D01*
X1142780Y248560D01*
X1142664Y248640D01*
X1142550Y248723D01*
X1142438Y248808D01*
X1142329Y248897D01*
X1142222Y248989D01*
X1142118Y249084D01*
X1142017Y249182D01*
X1141918Y249283D01*
X1141823Y249386D01*
X1141730Y249492D01*
X1141640Y249601D01*
X1141554Y249712D01*
X1141470Y249825D01*
X1141390Y249941D01*
X1141313Y250059D01*
X1141240Y250179D01*
X1141169Y250302D01*
X1141103Y250426D01*
X1141040Y250552D01*
X1140980Y250679D01*
X1140924Y250808D01*
X1140872Y250939D01*
X1140823Y251071D01*
X1140778Y251205D01*
X1140737Y251340D01*
X1140700Y251476D01*
X1140666Y251612D01*
X1140637Y251750D01*
X1140611Y251889D01*
X1140590Y252028D01*
X1140572Y252168D01*
X1140558Y252308D01*
X1140548Y252448D01*
X1140542Y252589D01*
X1140540Y252730D01*
D11*
X0Y281940D03*
X0Y262890D03*
X0Y243840D03*
D15*
X50800Y40640D03*
X63500Y40640D03*
X45720Y207010D03*
X35560Y196850D03*
D16*
X55880Y40640D02*
X63500Y40640D01*
X55880Y40640D02*
X55880Y49530D01*
X57150Y50800D01*
X55880Y40640D02*
X54610Y39370D01*
X54610Y31750D01*
D17*
X63500Y40640D02*
X69850Y40640D01*
D18*
X63500Y44450D02*
X67310Y48260D01*
X63500Y44450D02*
X63500Y40640D01*
X63500Y36830D01*
X67310Y33020D01*
D19*
X74930Y66040D03*
X88900Y40640D03*
X62230Y215900D03*
X63500Y193040D03*
D20*
X45720Y207010D02*
X39370Y200660D01*
D21*
X26670Y213360D02*
X26670Y218440D01*
X26670Y213360D02*
X30480Y209550D01*
X35560Y204470D01*
X39370Y200660D02*
X54610Y200660D01*
X39370Y200660D02*
X35560Y204470D01*
X35560Y215900D01*
X36830Y217170D01*
X35560Y204470D02*
X48260Y204470D01*
X30480Y209550D02*
X30480Y220980D01*
D20*
X29210Y198120D02*
X34290Y198120D01*
X35560Y196850D01*
D15*
X27940Y204470D03*
X38100Y214630D03*
D22*
X916940Y272640D03*
X911860Y226990D03*
D21*
X58916Y40156D02*
X53816Y40156D01*
X53816Y41124D01*
X63016Y41124D01*
X63016Y40156D01*
X58916Y40156D01*
X1156056Y225238D02*
X1156056Y229422D01*
X1154455Y233287D01*
X1152252Y235490D01*
X1164280Y235490D01*
X1164089Y235351D01*
X1162919Y234181D01*
X1161946Y232842D01*
X1161194Y231367D01*
X1160683Y229793D01*
X1160454Y228346D01*
X1169924Y228346D01*
X1169924Y226314D01*
X1160454Y226314D01*
X1160683Y224867D01*
X1161194Y223293D01*
X1161946Y221818D01*
X1162919Y220479D01*
X1164089Y219309D01*
X1165428Y218336D01*
X1166903Y217584D01*
X1168207Y217161D01*
X1167676Y216630D01*
X1092811Y216630D01*
X1081500Y227941D01*
X1078841Y230600D01*
X941729Y230600D01*
X939070Y227941D01*
X927759Y216630D01*
X228254Y216630D01*
X228433Y216704D01*
X229693Y217546D01*
X230764Y218617D01*
X231606Y219877D01*
X232185Y221277D01*
X232481Y222762D01*
X232481Y223161D01*
X225149Y223161D01*
X225149Y223879D01*
X232481Y223879D01*
X232481Y224278D01*
X232185Y225763D01*
X231606Y227163D01*
X230764Y228423D01*
X229693Y229494D01*
X228433Y230336D01*
X227033Y230915D01*
X225548Y231211D01*
X225149Y231211D01*
X225149Y223879D01*
X224431Y223879D01*
X224431Y231211D01*
X224032Y231211D01*
X222547Y230915D01*
X221147Y230336D01*
X219887Y229494D01*
X218816Y228423D01*
X217974Y227163D01*
X217395Y225763D01*
X217099Y224278D01*
X217099Y223879D01*
X224431Y223879D01*
X224431Y223161D01*
X217099Y223161D01*
X217099Y222762D01*
X217395Y221277D01*
X217974Y219877D01*
X218816Y218617D01*
X219887Y217546D01*
X221147Y216704D01*
X221326Y216630D01*
X159474Y216630D01*
X158574Y217529D01*
X156216Y218506D01*
X153664Y218506D01*
X151306Y217529D01*
X149501Y215724D01*
X148524Y213366D01*
X148524Y210814D01*
X149501Y208456D01*
X151306Y206651D01*
X153664Y205674D01*
X156216Y205674D01*
X158574Y206651D01*
X159474Y207550D01*
X224875Y207550D01*
X217964Y200639D01*
X217964Y10139D01*
X212111Y4286D01*
X84836Y4286D01*
X84836Y9684D01*
X100091Y9684D01*
X134381Y43974D01*
X137636Y47229D01*
X137636Y217409D01*
X173751Y253524D01*
X913588Y253524D01*
X915664Y252664D01*
X918216Y252664D01*
X920292Y253524D01*
X981471Y253524D01*
X984726Y256779D01*
X995441Y267494D01*
X1007875Y267494D01*
X1008788Y266581D01*
X1008021Y265814D01*
X1007044Y263456D01*
X1007044Y260904D01*
X1008021Y258546D01*
X1009821Y256745D01*
X1009370Y256444D01*
X1008476Y255550D01*
X1007774Y254499D01*
X1007291Y253331D01*
X1007044Y252092D01*
X1007044Y251460D01*
X1013460Y251460D01*
X1013460Y251460D01*
X1007044Y251460D01*
X1007044Y250828D01*
X1007291Y249589D01*
X1007774Y248421D01*
X1008476Y247370D01*
X1009370Y246476D01*
X1010421Y245774D01*
X1011589Y245291D01*
X1012828Y245044D01*
X1013460Y245044D01*
X1013460Y251460D01*
X1013460Y251460D01*
X1013460Y245044D01*
X1014092Y245044D01*
X1015331Y245291D01*
X1016499Y245774D01*
X1017550Y246476D01*
X1018444Y247370D01*
X1019146Y248421D01*
X1019629Y249589D01*
X1019876Y250828D01*
X1019876Y251460D01*
X1013460Y251460D01*
X1013460Y251460D01*
X1019876Y251460D01*
X1019876Y252092D01*
X1019629Y253331D01*
X1019146Y254499D01*
X1018444Y255550D01*
X1017550Y256444D01*
X1017099Y256745D01*
X1018899Y258546D01*
X1019876Y260904D01*
X1019876Y263456D01*
X1018899Y265814D01*
X1018132Y266581D01*
X1019045Y267494D01*
X1040369Y267494D01*
X1046004Y261859D01*
X1049259Y258604D01*
X1089278Y258604D01*
X1087944Y257271D01*
X1086724Y254324D01*
X1086724Y251136D01*
X1087944Y248189D01*
X1090199Y245934D01*
X1093146Y244714D01*
X1096334Y244714D01*
X1099281Y245934D01*
X1101536Y248189D01*
X1102756Y251136D01*
X1102756Y254324D01*
X1101536Y257271D01*
X1100202Y258604D01*
X1106409Y258604D01*
X1107069Y257944D01*
X1109624Y251556D01*
X1109624Y250638D01*
X1111225Y246773D01*
X1113428Y244570D01*
X1084034Y244570D01*
X1083134Y245469D01*
X1080776Y246446D01*
X1078224Y246446D01*
X1075866Y245469D01*
X1074061Y243664D01*
X1073084Y241306D01*
X1073084Y238754D01*
X1074061Y236396D01*
X1075866Y234591D01*
X1078224Y233614D01*
X1080776Y233614D01*
X1083134Y234591D01*
X1084034Y235490D01*
X1138828Y235490D01*
X1136625Y233287D01*
X1135024Y229422D01*
X1135024Y225238D01*
X1136625Y221373D01*
X1139583Y218415D01*
X1143448Y216814D01*
X1147632Y216814D01*
X1151497Y218415D01*
X1154455Y221373D01*
X1156056Y225238D01*
X866140Y240960D02*
X866140Y247376D01*
X866140Y240960D02*
X866140Y240960D01*
X866140Y247376D01*
X865508Y247376D01*
X864269Y247129D01*
X863101Y246646D01*
X862050Y245944D01*
X861156Y245050D01*
X860454Y243999D01*
X859971Y242831D01*
X859724Y241592D01*
X859724Y240960D01*
X866140Y240960D01*
X866140Y240960D01*
X859724Y240960D01*
X859724Y240328D01*
X859971Y239089D01*
X860454Y237921D01*
X861156Y236870D01*
X862050Y235976D01*
X863101Y235274D01*
X864269Y234791D01*
X865508Y234544D01*
X866140Y234544D01*
X866140Y240960D01*
X866140Y240960D01*
X866140Y234544D01*
X866772Y234544D01*
X868011Y234791D01*
X869179Y235274D01*
X870230Y235976D01*
X871124Y236870D01*
X871826Y237921D01*
X872309Y239089D01*
X872556Y240328D01*
X872556Y240960D01*
X866140Y240960D01*
X866140Y240960D01*
X872556Y240960D01*
X872556Y241592D01*
X872309Y242831D01*
X871826Y243999D01*
X871124Y245050D01*
X870230Y245944D01*
X869179Y246646D01*
X868011Y247129D01*
X866772Y247376D01*
X866140Y247376D01*
X199749Y205811D02*
X199749Y198479D01*
X199031Y198479D01*
X199031Y205811D01*
X198632Y205811D01*
X197147Y205515D01*
X195747Y204936D01*
X194487Y204094D01*
X193416Y203023D01*
X192574Y201763D01*
X191995Y200363D01*
X191699Y198878D01*
X191699Y198479D01*
X199031Y198479D01*
X199031Y197761D01*
X191699Y197761D01*
X191699Y197362D01*
X191995Y195877D01*
X192574Y194477D01*
X193416Y193217D01*
X194487Y192146D01*
X195747Y191304D01*
X197147Y190725D01*
X198632Y190429D01*
X199031Y190429D01*
X199031Y197761D01*
X199749Y197761D01*
X199749Y190429D01*
X200148Y190429D01*
X201633Y190725D01*
X203033Y191304D01*
X204293Y192146D01*
X205364Y193217D01*
X206206Y194477D01*
X206785Y195877D01*
X207081Y197362D01*
X207081Y197761D01*
X199749Y197761D01*
X199749Y198479D01*
X207081Y198479D01*
X207081Y198878D01*
X206785Y200363D01*
X206206Y201763D01*
X205364Y203023D01*
X204293Y204094D01*
X203033Y204936D01*
X201633Y205515D01*
X200148Y205811D01*
X199749Y205811D01*
X154029Y116911D02*
X154029Y109579D01*
X153311Y109579D01*
X153311Y116911D01*
X152912Y116911D01*
X151427Y116615D01*
X150027Y116036D01*
X148767Y115194D01*
X147696Y114123D01*
X146854Y112863D01*
X146275Y111463D01*
X145979Y109978D01*
X145979Y109579D01*
X153311Y109579D01*
X153311Y108861D01*
X145979Y108861D01*
X145979Y108462D01*
X146275Y106977D01*
X146854Y105577D01*
X147696Y104317D01*
X148767Y103246D01*
X150027Y102404D01*
X151427Y101825D01*
X152912Y101529D01*
X153311Y101529D01*
X153311Y108861D01*
X154029Y108861D01*
X154029Y101529D01*
X154428Y101529D01*
X155913Y101825D01*
X157313Y102404D01*
X158573Y103246D01*
X159644Y104317D01*
X160486Y105577D01*
X161065Y106977D01*
X161361Y108462D01*
X161361Y108861D01*
X154029Y108861D01*
X154029Y109579D01*
X161361Y109579D01*
X161361Y109978D01*
X161065Y111463D01*
X160486Y112863D01*
X159644Y114123D01*
X158573Y115194D01*
X157313Y116036D01*
X155913Y116615D01*
X154428Y116911D01*
X154029Y116911D01*
X154029Y66111D02*
X154029Y58779D01*
X153311Y58779D01*
X153311Y66111D01*
X152912Y66111D01*
X151427Y65815D01*
X150027Y65236D01*
X148767Y64394D01*
X147696Y63323D01*
X146854Y62063D01*
X146275Y60663D01*
X145979Y59178D01*
X145979Y58779D01*
X153311Y58779D01*
X153311Y58061D01*
X145979Y58061D01*
X145979Y57662D01*
X146275Y56177D01*
X146854Y54777D01*
X147696Y53517D01*
X148767Y52446D01*
X150027Y51604D01*
X151427Y51025D01*
X152912Y50729D01*
X153311Y50729D01*
X153311Y58061D01*
X154029Y58061D01*
X154029Y50729D01*
X154428Y50729D01*
X155913Y51025D01*
X157313Y51604D01*
X158573Y52446D01*
X159644Y53517D01*
X160486Y54777D01*
X161065Y56177D01*
X161361Y57662D01*
X161361Y58061D01*
X154029Y58061D01*
X154029Y58779D01*
X161361Y58779D01*
X161361Y59178D01*
X161065Y60663D01*
X160486Y62063D01*
X159644Y63323D01*
X158573Y64394D01*
X157313Y65236D01*
X155913Y65815D01*
X154428Y66111D01*
X154029Y66111D01*
X911860Y226990D02*
X911860Y233406D01*
X911860Y226990D02*
X911860Y226990D01*
X911860Y233406D01*
X911228Y233406D01*
X909989Y233159D01*
X908821Y232676D01*
X907770Y231974D01*
X906876Y231080D01*
X906174Y230029D01*
X905691Y228861D01*
X905444Y227622D01*
X905444Y226990D01*
X911860Y226990D01*
X911860Y226990D01*
X905444Y226990D01*
X905444Y226358D01*
X905691Y225119D01*
X906174Y223951D01*
X906876Y222900D01*
X907770Y222006D01*
X908821Y221304D01*
X909989Y220821D01*
X911228Y220574D01*
X911860Y220574D01*
X911860Y226990D01*
X911860Y226990D01*
X911860Y220574D01*
X912492Y220574D01*
X913731Y220821D01*
X914899Y221304D01*
X915950Y222006D01*
X916844Y222900D01*
X917546Y223951D01*
X918029Y225119D01*
X918276Y226358D01*
X918276Y226990D01*
X911860Y226990D01*
X911860Y226990D01*
X918276Y226990D01*
X918276Y227622D01*
X918029Y228861D01*
X917546Y230029D01*
X916844Y231080D01*
X915950Y231974D01*
X914899Y232676D01*
X913731Y233159D01*
X912492Y233406D01*
X911860Y233406D01*
X1102756Y228924D02*
X1102756Y225736D01*
X1102756Y228924D02*
X1101536Y231871D01*
X1099281Y234126D01*
X1096334Y235346D01*
X1093146Y235346D01*
X1090199Y234126D01*
X1087944Y231871D01*
X1086724Y228924D01*
X1086724Y225736D01*
X1087944Y222789D01*
X1090199Y220534D01*
X1093146Y219314D01*
X1096334Y219314D01*
X1099281Y220534D01*
X1101536Y222789D01*
X1102756Y225736D01*
X1128156Y225736D02*
X1128156Y228924D01*
X1126936Y231871D01*
X1124681Y234126D01*
X1121734Y235346D01*
X1118546Y235346D01*
X1115599Y234126D01*
X1113344Y231871D01*
X1112124Y228924D01*
X1112124Y225736D01*
X1113344Y222789D01*
X1115599Y220534D01*
X1118546Y219314D01*
X1121734Y219314D01*
X1124681Y220534D01*
X1126936Y222789D01*
X1128156Y225736D01*
X154029Y91511D02*
X154029Y84179D01*
X153311Y84179D01*
X153311Y91511D01*
X152912Y91511D01*
X151427Y91215D01*
X150027Y90636D01*
X148767Y89794D01*
X147696Y88723D01*
X146854Y87463D01*
X146275Y86063D01*
X145979Y84578D01*
X145979Y84179D01*
X153311Y84179D01*
X153311Y83461D01*
X145979Y83461D01*
X145979Y83062D01*
X146275Y81577D01*
X146854Y80177D01*
X147696Y78917D01*
X148767Y77846D01*
X150027Y77004D01*
X151427Y76425D01*
X152912Y76129D01*
X153311Y76129D01*
X153311Y83461D01*
X154029Y83461D01*
X154029Y76129D01*
X154428Y76129D01*
X155913Y76425D01*
X157313Y77004D01*
X158573Y77846D01*
X159644Y78917D01*
X160486Y80177D01*
X161065Y81577D01*
X161361Y83062D01*
X161361Y83461D01*
X154029Y83461D01*
X154029Y84179D01*
X161361Y84179D01*
X161361Y84578D01*
X161065Y86063D01*
X160486Y87463D01*
X159644Y88723D01*
X158573Y89794D01*
X157313Y90636D01*
X155913Y91215D01*
X154428Y91511D01*
X154029Y91511D01*
X166729Y230229D02*
X166729Y237561D01*
X166729Y230229D02*
X166011Y230229D01*
X166011Y237561D01*
X165612Y237561D01*
X164127Y237265D01*
X162727Y236686D01*
X161467Y235844D01*
X160396Y234773D01*
X159554Y233513D01*
X158975Y232113D01*
X158679Y230628D01*
X158679Y230229D01*
X166011Y230229D01*
X166011Y229511D01*
X158679Y229511D01*
X158679Y229112D01*
X158975Y227627D01*
X159554Y226227D01*
X160396Y224967D01*
X161467Y223896D01*
X162727Y223054D01*
X164127Y222475D01*
X165612Y222179D01*
X166011Y222179D01*
X166011Y229511D01*
X166729Y229511D01*
X166729Y222179D01*
X167128Y222179D01*
X168613Y222475D01*
X170013Y223054D01*
X171273Y223896D01*
X172344Y224967D01*
X173186Y226227D01*
X173765Y227627D01*
X174061Y229112D01*
X174061Y229511D01*
X166729Y229511D01*
X166729Y230229D01*
X174061Y230229D01*
X174061Y230628D01*
X173765Y232113D01*
X173186Y233513D01*
X172344Y234773D01*
X171273Y235844D01*
X170013Y236686D01*
X168613Y237265D01*
X167128Y237561D01*
X166729Y237561D01*
X971616Y278124D02*
X971616Y280676D01*
X970639Y283034D01*
X968834Y284839D01*
X966476Y285816D01*
X964845Y285816D01*
X958056Y292605D01*
X957767Y292894D01*
X1055391Y292894D01*
X1070134Y278151D01*
X1071901Y276384D01*
X1226841Y276384D01*
X1233964Y269261D01*
X1233964Y212069D01*
X1207791Y185896D01*
X1099799Y185896D01*
X1075669Y210026D01*
X956040Y210026D01*
X956214Y210200D01*
X956916Y211251D01*
X957399Y212419D01*
X957646Y213658D01*
X957646Y214290D01*
X951230Y214290D01*
X951230Y214290D01*
X957646Y214290D01*
X957646Y214922D01*
X957399Y216161D01*
X956916Y217329D01*
X956214Y218380D01*
X955320Y219274D01*
X954269Y219976D01*
X953101Y220459D01*
X951862Y220706D01*
X951230Y220706D01*
X951230Y214290D01*
X951230Y214290D01*
X951230Y220706D01*
X950598Y220706D01*
X949359Y220459D01*
X948191Y219976D01*
X947140Y219274D01*
X946246Y218380D01*
X945544Y217329D01*
X945061Y216161D01*
X944814Y214922D01*
X944814Y214290D01*
X951230Y214290D01*
X951230Y214290D01*
X944814Y214290D01*
X944814Y213658D01*
X945061Y212419D01*
X945544Y211251D01*
X946246Y210200D01*
X946420Y210026D01*
X933996Y210026D01*
X945491Y221520D01*
X1075079Y221520D01*
X1089049Y207550D01*
X1167676Y207550D01*
X1168576Y206651D01*
X1170934Y205674D01*
X1173486Y205674D01*
X1175844Y206651D01*
X1177649Y208456D01*
X1178626Y210814D01*
X1178626Y213366D01*
X1177649Y215724D01*
X1175844Y217529D01*
X1175306Y217752D01*
X1176452Y218336D01*
X1177791Y219309D01*
X1178961Y220479D01*
X1179934Y221818D01*
X1180686Y223293D01*
X1181197Y224867D01*
X1181426Y226314D01*
X1171956Y226314D01*
X1171956Y228346D01*
X1181426Y228346D01*
X1181197Y229793D01*
X1180686Y231367D01*
X1179934Y232842D01*
X1178961Y234181D01*
X1177791Y235351D01*
X1177600Y235490D01*
X1189628Y235490D01*
X1187425Y233287D01*
X1185824Y229422D01*
X1185824Y225238D01*
X1187425Y221373D01*
X1190383Y218415D01*
X1194248Y216814D01*
X1198432Y216814D01*
X1202297Y218415D01*
X1205255Y221373D01*
X1206856Y225238D01*
X1206856Y229422D01*
X1205255Y233287D01*
X1203052Y235490D01*
X1210921Y235490D01*
X1211224Y235794D01*
X1211224Y218581D01*
X1212991Y216814D01*
X1230489Y216814D01*
X1232256Y218581D01*
X1232256Y236079D01*
X1230489Y237846D01*
X1213276Y237846D01*
X1213580Y238149D01*
X1216790Y241360D01*
X1220208Y242214D01*
X1223832Y242214D01*
X1227697Y243815D01*
X1230655Y246773D01*
X1232256Y250638D01*
X1232256Y254822D01*
X1230655Y258687D01*
X1227697Y261645D01*
X1223832Y263246D01*
X1219648Y263246D01*
X1215783Y261645D01*
X1212825Y258687D01*
X1211224Y254822D01*
X1211224Y251198D01*
X1210370Y247780D01*
X1207159Y244570D01*
X1203052Y244570D01*
X1205255Y246773D01*
X1206856Y250638D01*
X1206856Y254822D01*
X1205255Y258687D01*
X1202297Y261645D01*
X1198432Y263246D01*
X1194248Y263246D01*
X1190383Y261645D01*
X1187425Y258687D01*
X1185824Y254822D01*
X1185824Y250638D01*
X1187425Y246773D01*
X1189628Y244570D01*
X1177600Y244570D01*
X1177791Y244709D01*
X1178961Y245879D01*
X1179934Y247218D01*
X1180686Y248693D01*
X1181197Y250267D01*
X1181426Y251714D01*
X1171956Y251714D01*
X1171956Y253746D01*
X1181426Y253746D01*
X1181197Y255193D01*
X1180686Y256767D01*
X1179934Y258242D01*
X1178961Y259581D01*
X1177791Y260751D01*
X1176452Y261724D01*
X1174977Y262476D01*
X1173403Y262987D01*
X1171956Y263216D01*
X1171956Y253746D01*
X1169924Y253746D01*
X1169924Y263216D01*
X1168477Y262987D01*
X1166903Y262476D01*
X1165428Y261724D01*
X1164089Y260751D01*
X1162919Y259581D01*
X1161946Y258242D01*
X1161194Y256767D01*
X1160683Y255193D01*
X1160454Y253746D01*
X1169924Y253746D01*
X1169924Y251714D01*
X1160454Y251714D01*
X1160683Y250267D01*
X1161194Y248693D01*
X1161946Y247218D01*
X1162919Y245879D01*
X1164089Y244709D01*
X1164280Y244570D01*
X1126852Y244570D01*
X1129055Y246773D01*
X1130656Y250638D01*
X1130656Y254822D01*
X1129055Y258687D01*
X1126097Y261645D01*
X1122232Y263246D01*
X1120729Y263246D01*
X1115858Y264870D01*
X1115536Y265191D01*
X1114266Y266461D01*
X1111011Y269716D01*
X1069406Y269716D01*
X1069406Y271076D01*
X1068429Y273434D01*
X1066624Y275239D01*
X1064266Y276216D01*
X1061714Y276216D01*
X1059356Y275239D01*
X1057551Y273434D01*
X1056574Y271076D01*
X1056574Y269716D01*
X1053861Y269716D01*
X1044971Y278606D01*
X990839Y278606D01*
X976869Y264636D01*
X920292Y264636D01*
X918216Y265496D01*
X915664Y265496D01*
X913588Y264636D01*
X169149Y264636D01*
X165894Y261381D01*
X165894Y261381D01*
X129779Y225266D01*
X126524Y222011D01*
X126524Y51831D01*
X95489Y20796D01*
X84836Y20796D01*
X84836Y27091D01*
X84241Y27686D01*
X53816Y27686D01*
X53816Y31274D01*
X63897Y31274D01*
X64664Y31480D01*
X65352Y31877D01*
X65913Y32438D01*
X66230Y32986D01*
X67344Y33448D01*
X68674Y34336D01*
X69804Y35466D01*
X70692Y36796D01*
X71304Y38273D01*
X71616Y39841D01*
X71616Y40156D01*
X63984Y40156D01*
X63984Y41124D01*
X71616Y41124D01*
X71616Y41439D01*
X71304Y43007D01*
X70692Y44484D01*
X69804Y45814D01*
X68674Y46944D01*
X67344Y47832D01*
X66230Y48294D01*
X65913Y48842D01*
X65352Y49403D01*
X64664Y49800D01*
X63897Y50006D01*
X55541Y50006D01*
X63976Y58441D01*
X63976Y91419D01*
X63701Y91694D01*
X76621Y91694D01*
X77216Y92289D01*
X77216Y105950D01*
X78081Y105950D01*
X80740Y108609D01*
X80740Y112371D01*
X78081Y115030D01*
X77216Y115030D01*
X77216Y125000D01*
X78081Y125000D01*
X80740Y127659D01*
X80740Y131421D01*
X78081Y134080D01*
X77216Y134080D01*
X77216Y144050D01*
X78081Y144050D01*
X80740Y146709D01*
X80740Y150471D01*
X78081Y153130D01*
X77216Y153130D01*
X77216Y169450D01*
X78081Y169450D01*
X80740Y172109D01*
X80740Y175871D01*
X78081Y178530D01*
X77216Y178530D01*
X77216Y184571D01*
X76621Y185166D01*
X51509Y185166D01*
X44995Y191680D01*
X45094Y191778D01*
X45094Y191778D01*
X45954Y192639D01*
X45625Y192968D01*
X45696Y193233D01*
X45696Y194027D01*
X45491Y194794D01*
X45094Y195482D01*
X43241Y197334D01*
X43676Y197334D01*
X43676Y197649D01*
X43641Y197826D01*
X47391Y194076D01*
X51444Y198128D01*
X51841Y198816D01*
X52046Y199583D01*
X52046Y200377D01*
X51841Y201144D01*
X51654Y201467D01*
X52024Y201836D01*
X52912Y203166D01*
X53524Y204643D01*
X53836Y206211D01*
X53836Y206526D01*
X46750Y206526D01*
X46204Y207071D01*
X46204Y207494D01*
X53836Y207494D01*
X53836Y207809D01*
X53524Y209377D01*
X52912Y210854D01*
X52024Y212184D01*
X50894Y213314D01*
X49564Y214202D01*
X48087Y214814D01*
X46519Y215126D01*
X46216Y215126D01*
X46216Y215429D01*
X45904Y216997D01*
X45292Y218474D01*
X44404Y219804D01*
X43274Y220934D01*
X41944Y221822D01*
X40467Y222434D01*
X38899Y222746D01*
X38584Y222746D01*
X38584Y215114D01*
X38161Y215114D01*
X37616Y215660D01*
X37616Y222746D01*
X37301Y222746D01*
X35733Y222434D01*
X34256Y221822D01*
X32926Y220934D01*
X32557Y220564D01*
X32234Y220751D01*
X31467Y220956D01*
X30673Y220956D01*
X29906Y220751D01*
X29218Y220354D01*
X25166Y216301D01*
X28916Y212551D01*
X28739Y212586D01*
X28424Y212586D01*
X28424Y212151D01*
X26572Y214004D01*
X25884Y214401D01*
X25117Y214606D01*
X24323Y214606D01*
X24058Y214535D01*
X23729Y214864D01*
X22868Y214004D01*
X22868Y214004D01*
X22770Y213905D01*
X5281Y231394D01*
X25821Y231394D01*
X26416Y231989D01*
X26416Y239554D01*
X42415Y239554D01*
X83055Y280194D01*
X945645Y280194D01*
X946084Y279755D01*
X946084Y278124D01*
X947061Y275766D01*
X948866Y273961D01*
X951224Y272984D01*
X953776Y272984D01*
X956134Y273961D01*
X957939Y275766D01*
X958850Y277965D01*
X959761Y275766D01*
X961566Y273961D01*
X963924Y272984D01*
X966476Y272984D01*
X968834Y273961D01*
X970639Y275766D01*
X971616Y278124D01*
X128629Y250261D02*
X128629Y242929D01*
X127911Y242929D01*
X127911Y250261D01*
X127512Y250261D01*
X126027Y249965D01*
X124627Y249386D01*
X123367Y248544D01*
X122296Y247473D01*
X121454Y246213D01*
X120875Y244813D01*
X120579Y243328D01*
X120579Y242929D01*
X127911Y242929D01*
X127911Y242211D01*
X120579Y242211D01*
X120579Y241812D01*
X120875Y240327D01*
X121454Y238927D01*
X122296Y237667D01*
X123367Y236596D01*
X124627Y235754D01*
X126027Y235175D01*
X127512Y234879D01*
X127911Y234879D01*
X127911Y242211D01*
X128629Y242211D01*
X128629Y234879D01*
X129028Y234879D01*
X130513Y235175D01*
X131913Y235754D01*
X133173Y236596D01*
X134244Y237667D01*
X135086Y238927D01*
X135665Y240327D01*
X135961Y241812D01*
X135961Y242211D01*
X128629Y242211D01*
X128629Y242929D01*
X135961Y242929D01*
X135961Y243328D01*
X135665Y244813D01*
X135086Y246213D01*
X134244Y247473D01*
X133173Y248544D01*
X131913Y249386D01*
X130513Y249965D01*
X129028Y250261D01*
X128629Y250261D01*
X113389Y91511D02*
X113389Y84179D01*
X112671Y84179D01*
X112671Y91511D01*
X112272Y91511D01*
X110787Y91215D01*
X109387Y90636D01*
X108127Y89794D01*
X107056Y88723D01*
X106214Y87463D01*
X105635Y86063D01*
X105339Y84578D01*
X105339Y84179D01*
X112671Y84179D01*
X112671Y83461D01*
X105339Y83461D01*
X105339Y83062D01*
X105635Y81577D01*
X106214Y80177D01*
X107056Y78917D01*
X108127Y77846D01*
X109387Y77004D01*
X110787Y76425D01*
X112272Y76129D01*
X112671Y76129D01*
X112671Y83461D01*
X113389Y83461D01*
X113389Y76129D01*
X113788Y76129D01*
X115273Y76425D01*
X116673Y77004D01*
X117933Y77846D01*
X119004Y78917D01*
X119846Y80177D01*
X120425Y81577D01*
X120721Y83062D01*
X120721Y83461D01*
X113389Y83461D01*
X113389Y84179D01*
X120721Y84179D01*
X120721Y84578D01*
X120425Y86063D01*
X119846Y87463D01*
X119004Y88723D01*
X117933Y89794D01*
X116673Y90636D01*
X115273Y91215D01*
X113788Y91511D01*
X113389Y91511D01*
X63859Y193399D02*
X63859Y200731D01*
X63859Y193399D02*
X63141Y193399D01*
X63141Y200731D01*
X62742Y200731D01*
X61257Y200435D01*
X59857Y199856D01*
X58597Y199014D01*
X57526Y197943D01*
X56684Y196683D01*
X56105Y195283D01*
X55809Y193798D01*
X55809Y193399D01*
X63141Y193399D01*
X63141Y192681D01*
X55809Y192681D01*
X55809Y192282D01*
X56105Y190797D01*
X56684Y189397D01*
X57526Y188137D01*
X58597Y187066D01*
X59857Y186224D01*
X61257Y185645D01*
X62742Y185349D01*
X63141Y185349D01*
X63141Y192681D01*
X63859Y192681D01*
X63859Y185349D01*
X64258Y185349D01*
X65743Y185645D01*
X67143Y186224D01*
X68403Y187066D01*
X69474Y188137D01*
X70316Y189397D01*
X70895Y190797D01*
X71191Y192282D01*
X71191Y192681D01*
X63859Y192681D01*
X63859Y193399D01*
X71191Y193399D01*
X71191Y193798D01*
X70895Y195283D01*
X70316Y196683D01*
X69474Y197943D01*
X68403Y199014D01*
X67143Y199856D01*
X65743Y200435D01*
X64258Y200731D01*
X63859Y200731D01*
X89259Y48331D02*
X89259Y40999D01*
X88541Y40999D01*
X88541Y48331D01*
X88142Y48331D01*
X86657Y48035D01*
X85257Y47456D01*
X83997Y46614D01*
X82926Y45543D01*
X82084Y44283D01*
X81505Y42883D01*
X81209Y41398D01*
X81209Y40999D01*
X88541Y40999D01*
X88541Y40281D01*
X81209Y40281D01*
X81209Y39882D01*
X81505Y38397D01*
X82084Y36997D01*
X82926Y35737D01*
X83997Y34666D01*
X85257Y33824D01*
X86657Y33245D01*
X88142Y32949D01*
X88541Y32949D01*
X88541Y40281D01*
X89259Y40281D01*
X89259Y32949D01*
X89658Y32949D01*
X91143Y33245D01*
X92543Y33824D01*
X93803Y34666D01*
X94874Y35737D01*
X95716Y36997D01*
X96295Y38397D01*
X96591Y39882D01*
X96591Y40281D01*
X89259Y40281D01*
X89259Y40999D01*
X96591Y40999D01*
X96591Y41398D01*
X96295Y42883D01*
X95716Y44283D01*
X94874Y45543D01*
X93803Y46614D01*
X92543Y47456D01*
X91143Y48035D01*
X89658Y48331D01*
X89259Y48331D01*
X1153556Y251136D02*
X1153556Y254324D01*
X1152336Y257271D01*
X1150081Y259526D01*
X1147134Y260746D01*
X1143946Y260746D01*
X1140999Y259526D01*
X1138744Y257271D01*
X1137524Y254324D01*
X1137524Y251136D01*
X1138744Y248189D01*
X1140999Y245934D01*
X1143946Y244714D01*
X1147134Y244714D01*
X1150081Y245934D01*
X1152336Y248189D01*
X1153556Y251136D01*
X75289Y73731D02*
X75289Y66399D01*
X74571Y66399D01*
X74571Y73731D01*
X74172Y73731D01*
X72687Y73435D01*
X71287Y72856D01*
X70027Y72014D01*
X68956Y70943D01*
X68114Y69683D01*
X67535Y68283D01*
X67239Y66798D01*
X67239Y66399D01*
X74571Y66399D01*
X74571Y65681D01*
X67239Y65681D01*
X67239Y65282D01*
X67535Y63797D01*
X68114Y62397D01*
X68956Y61137D01*
X70027Y60066D01*
X71287Y59224D01*
X72687Y58645D01*
X74172Y58349D01*
X74571Y58349D01*
X74571Y65681D01*
X75289Y65681D01*
X75289Y58349D01*
X75688Y58349D01*
X77173Y58645D01*
X78573Y59224D01*
X79833Y60066D01*
X80904Y61137D01*
X81746Y62397D01*
X82325Y63797D01*
X82621Y65282D01*
X82621Y65681D01*
X75289Y65681D01*
X75289Y66399D01*
X82621Y66399D01*
X82621Y66798D01*
X82325Y68283D01*
X81746Y69683D01*
X80904Y70943D01*
X79833Y72014D01*
X78573Y72856D01*
X77173Y73435D01*
X75688Y73731D01*
X75289Y73731D01*
X62589Y216259D02*
X62589Y223591D01*
X62589Y216259D02*
X61871Y216259D01*
X61871Y223591D01*
X61472Y223591D01*
X59987Y223295D01*
X58587Y222716D01*
X57327Y221874D01*
X56256Y220803D01*
X55414Y219543D01*
X54835Y218143D01*
X54539Y216658D01*
X54539Y216259D01*
X61871Y216259D01*
X61871Y215541D01*
X54539Y215541D01*
X54539Y215142D01*
X54835Y213657D01*
X55414Y212257D01*
X56256Y210997D01*
X57327Y209926D01*
X58587Y209084D01*
X59987Y208505D01*
X61472Y208209D01*
X61871Y208209D01*
X61871Y215541D01*
X62589Y215541D01*
X62589Y208209D01*
X62988Y208209D01*
X64473Y208505D01*
X65873Y209084D01*
X67133Y209926D01*
X68204Y210997D01*
X69046Y212257D01*
X69625Y213657D01*
X69921Y215142D01*
X69921Y215541D01*
X62589Y215541D01*
X62589Y216259D01*
X69921Y216259D01*
X69921Y216658D01*
X69625Y218143D01*
X69046Y219543D01*
X68204Y220803D01*
X67133Y221874D01*
X65873Y222716D01*
X64473Y223295D01*
X62988Y223591D01*
X62589Y223591D01*
X916940Y272640D02*
X916940Y279056D01*
X916940Y272640D02*
X916940Y272640D01*
X916940Y279056D01*
X916308Y279056D01*
X915069Y278809D01*
X913901Y278326D01*
X912850Y277624D01*
X911956Y276730D01*
X911254Y275679D01*
X910771Y274511D01*
X910524Y273272D01*
X910524Y272640D01*
X916940Y272640D01*
X916940Y272640D01*
X910524Y272640D01*
X910524Y272008D01*
X910771Y270769D01*
X911254Y269601D01*
X911956Y268550D01*
X912850Y267656D01*
X913901Y266954D01*
X915069Y266471D01*
X916308Y266224D01*
X916940Y266224D01*
X916940Y272640D01*
X916940Y272640D01*
X916940Y266224D01*
X917572Y266224D01*
X918811Y266471D01*
X919979Y266954D01*
X921030Y267656D01*
X921924Y268550D01*
X922626Y269601D01*
X923109Y270769D01*
X923356Y272008D01*
X923356Y272640D01*
X916940Y272640D01*
X916940Y272640D01*
X923356Y272640D01*
X923356Y273272D01*
X923109Y274511D01*
X922626Y275679D01*
X921924Y276730D01*
X921030Y277624D01*
X919979Y278326D01*
X918811Y278809D01*
X917572Y279056D01*
X916940Y279056D01*
X113389Y116911D02*
X113389Y109579D01*
X112671Y109579D01*
X112671Y116911D01*
X112272Y116911D01*
X110787Y116615D01*
X109387Y116036D01*
X108127Y115194D01*
X107056Y114123D01*
X106214Y112863D01*
X105635Y111463D01*
X105339Y109978D01*
X105339Y109579D01*
X112671Y109579D01*
X112671Y108861D01*
X105339Y108861D01*
X105339Y108462D01*
X105635Y106977D01*
X106214Y105577D01*
X107056Y104317D01*
X108127Y103246D01*
X109387Y102404D01*
X110787Y101825D01*
X112272Y101529D01*
X112671Y101529D01*
X112671Y108861D01*
X113389Y108861D01*
X113389Y101529D01*
X113788Y101529D01*
X115273Y101825D01*
X116673Y102404D01*
X117933Y103246D01*
X119004Y104317D01*
X119846Y105577D01*
X120425Y106977D01*
X120721Y108462D01*
X120721Y108861D01*
X113389Y108861D01*
X113389Y109579D01*
X120721Y109579D01*
X120721Y109978D01*
X120425Y111463D01*
X119846Y112863D01*
X119004Y114123D01*
X117933Y115194D01*
X116673Y116036D01*
X115273Y116615D01*
X113788Y116911D01*
X113389Y116911D01*
X113389Y66111D02*
X113389Y58779D01*
X112671Y58779D01*
X112671Y66111D01*
X112272Y66111D01*
X110787Y65815D01*
X109387Y65236D01*
X108127Y64394D01*
X107056Y63323D01*
X106214Y62063D01*
X105635Y60663D01*
X105339Y59178D01*
X105339Y58779D01*
X112671Y58779D01*
X112671Y58061D01*
X105339Y58061D01*
X105339Y57662D01*
X105635Y56177D01*
X106214Y54777D01*
X107056Y53517D01*
X108127Y52446D01*
X109387Y51604D01*
X110787Y51025D01*
X112272Y50729D01*
X112671Y50729D01*
X112671Y58061D01*
X113389Y58061D01*
X113389Y50729D01*
X113788Y50729D01*
X115273Y51025D01*
X116673Y51604D01*
X117933Y52446D01*
X119004Y53517D01*
X119846Y54777D01*
X120425Y56177D01*
X120721Y57662D01*
X120721Y58061D01*
X113389Y58061D01*
X113389Y58779D01*
X120721Y58779D01*
X120721Y59178D01*
X120425Y60663D01*
X119846Y62063D01*
X119004Y63323D01*
X117933Y64394D01*
X116673Y65236D01*
X115273Y65815D01*
X113788Y66111D01*
X113389Y66111D01*
X868680Y272640D02*
X868680Y279056D01*
X868680Y272640D02*
X868680Y272640D01*
X868680Y279056D01*
X868048Y279056D01*
X866809Y278809D01*
X865641Y278326D01*
X864590Y277624D01*
X863696Y276730D01*
X862994Y275679D01*
X862511Y274511D01*
X862264Y273272D01*
X862264Y272640D01*
X868680Y272640D01*
X868680Y272640D01*
X862264Y272640D01*
X862264Y272008D01*
X862511Y270769D01*
X862994Y269601D01*
X863696Y268550D01*
X864590Y267656D01*
X865641Y266954D01*
X866809Y266471D01*
X868048Y266224D01*
X868680Y266224D01*
X868680Y272640D01*
X868680Y272640D01*
X868680Y266224D01*
X869312Y266224D01*
X870551Y266471D01*
X871719Y266954D01*
X872770Y267656D01*
X873664Y268550D01*
X874366Y269601D01*
X874849Y270769D01*
X875096Y272008D01*
X875096Y272640D01*
X868680Y272640D01*
X868680Y272640D01*
X875096Y272640D01*
X875096Y273272D01*
X874849Y274511D01*
X874366Y275679D01*
X873664Y276730D01*
X872770Y277624D01*
X871719Y278326D01*
X870551Y278809D01*
X869312Y279056D01*
X868680Y279056D01*
X1018540Y285750D02*
X1018540Y292166D01*
X1018540Y285750D02*
X1018540Y285750D01*
X1018540Y292166D01*
X1017908Y292166D01*
X1016669Y291919D01*
X1015501Y291436D01*
X1014450Y290734D01*
X1013556Y289840D01*
X1012854Y288789D01*
X1012371Y287621D01*
X1012124Y286382D01*
X1012124Y285750D01*
X1018540Y285750D01*
X1018540Y285750D01*
X1012124Y285750D01*
X1012124Y285118D01*
X1012371Y283879D01*
X1012854Y282711D01*
X1013556Y281660D01*
X1014450Y280766D01*
X1015501Y280064D01*
X1016669Y279581D01*
X1017908Y279334D01*
X1018540Y279334D01*
X1018540Y285750D01*
X1018540Y285750D01*
X1018540Y279334D01*
X1019172Y279334D01*
X1020411Y279581D01*
X1021579Y280064D01*
X1022630Y280766D01*
X1023524Y281660D01*
X1024226Y282711D01*
X1024709Y283879D01*
X1024956Y285118D01*
X1024956Y285750D01*
X1018540Y285750D01*
X1018540Y285750D01*
X1024956Y285750D01*
X1024956Y286382D01*
X1024709Y287621D01*
X1024226Y288789D01*
X1023524Y289840D01*
X1022630Y290734D01*
X1021579Y291436D01*
X1020411Y291919D01*
X1019172Y292166D01*
X1018540Y292166D01*
X215953Y8128D02*
X84836Y8128D01*
X106663Y16256D02*
X217964Y16256D01*
X99077Y24384D02*
X84836Y24384D01*
X114791Y24384D02*
X217964Y24384D01*
X107205Y32512D02*
X65956Y32512D01*
X122919Y32512D02*
X217964Y32512D01*
X63016Y40640D02*
X53816Y40640D01*
X63984Y40640D02*
X88541Y40640D01*
X89259Y40640D02*
X115333Y40640D01*
X131047Y40640D02*
X217964Y40640D01*
X123461Y48768D02*
X65956Y48768D01*
X137636Y48768D02*
X217964Y48768D01*
X105491Y56896D02*
X62431Y56896D01*
X112671Y56896D02*
X113389Y56896D01*
X120569Y56896D02*
X126524Y56896D01*
X137636Y56896D02*
X146131Y56896D01*
X153311Y56896D02*
X154029Y56896D01*
X161209Y56896D02*
X217964Y56896D01*
X67290Y65024D02*
X63976Y65024D01*
X74571Y65024D02*
X75289Y65024D01*
X82570Y65024D02*
X109070Y65024D01*
X112671Y65024D02*
X113389Y65024D01*
X116990Y65024D02*
X126524Y65024D01*
X137636Y65024D02*
X149710Y65024D01*
X153311Y65024D02*
X154029Y65024D01*
X157630Y65024D02*
X217964Y65024D01*
X72002Y73152D02*
X63976Y73152D01*
X74571Y73152D02*
X75289Y73152D01*
X77858Y73152D02*
X126524Y73152D01*
X137636Y73152D02*
X217964Y73152D01*
X105757Y81280D02*
X63976Y81280D01*
X112671Y81280D02*
X113389Y81280D01*
X120303Y81280D02*
X126524Y81280D01*
X137636Y81280D02*
X146397Y81280D01*
X153311Y81280D02*
X154029Y81280D01*
X160943Y81280D02*
X217964Y81280D01*
X107741Y89408D02*
X63976Y89408D01*
X112671Y89408D02*
X113389Y89408D01*
X118319Y89408D02*
X126524Y89408D01*
X137636Y89408D02*
X148381Y89408D01*
X153311Y89408D02*
X154029Y89408D01*
X158959Y89408D02*
X217964Y89408D01*
X126524Y97536D02*
X77216Y97536D01*
X137636Y97536D02*
X217964Y97536D01*
X106178Y105664D02*
X77216Y105664D01*
X112671Y105664D02*
X113389Y105664D01*
X119882Y105664D02*
X126524Y105664D01*
X137636Y105664D02*
X146818Y105664D01*
X153311Y105664D02*
X154029Y105664D01*
X160522Y105664D02*
X217964Y105664D01*
X106835Y113792D02*
X79319Y113792D01*
X112671Y113792D02*
X113389Y113792D01*
X119225Y113792D02*
X126524Y113792D01*
X137636Y113792D02*
X147475Y113792D01*
X153311Y113792D02*
X154029Y113792D01*
X159865Y113792D02*
X217964Y113792D01*
X126524Y121920D02*
X77216Y121920D01*
X137636Y121920D02*
X217964Y121920D01*
X126524Y130048D02*
X80740Y130048D01*
X137636Y130048D02*
X217964Y130048D01*
X126524Y138176D02*
X77216Y138176D01*
X137636Y138176D02*
X217964Y138176D01*
X126524Y146304D02*
X80335Y146304D01*
X137636Y146304D02*
X217964Y146304D01*
X126524Y154432D02*
X77216Y154432D01*
X137636Y154432D02*
X217964Y154432D01*
X126524Y162560D02*
X77216Y162560D01*
X137636Y162560D02*
X217964Y162560D01*
X126524Y170688D02*
X79319Y170688D01*
X137636Y170688D02*
X217964Y170688D01*
X126524Y178816D02*
X77216Y178816D01*
X137636Y178816D02*
X217964Y178816D01*
X58780Y186944D02*
X49731Y186944D01*
X63141Y186944D02*
X63859Y186944D01*
X68220Y186944D02*
X126524Y186944D01*
X137636Y186944D02*
X217964Y186944D01*
X1098751Y186944D02*
X1208839Y186944D01*
X46395Y195072D02*
X45330Y195072D01*
X48388Y195072D02*
X56063Y195072D01*
X63141Y195072D02*
X63859Y195072D01*
X70937Y195072D02*
X126524Y195072D01*
X137636Y195072D02*
X192328Y195072D01*
X199031Y195072D02*
X199749Y195072D01*
X206452Y195072D02*
X217964Y195072D01*
X1090623Y195072D02*
X1216967Y195072D01*
X126524Y203200D02*
X52927Y203200D01*
X137636Y203200D02*
X193593Y203200D01*
X199031Y203200D02*
X199749Y203200D01*
X205187Y203200D02*
X220525Y203200D01*
X1082495Y203200D02*
X1225095Y203200D01*
X56035Y211328D02*
X52596Y211328D01*
X61871Y211328D02*
X62589Y211328D01*
X68425Y211328D02*
X126524Y211328D01*
X137636Y211328D02*
X148524Y211328D01*
X935299Y211328D02*
X945512Y211328D01*
X956948Y211328D02*
X1085271Y211328D01*
X1178626Y211328D02*
X1233223Y211328D01*
X28320Y219456D02*
X17219Y219456D01*
X37616Y219456D02*
X38584Y219456D01*
X44636Y219456D02*
X55378Y219456D01*
X61871Y219456D02*
X62589Y219456D01*
X69082Y219456D02*
X126524Y219456D01*
X139683Y219456D02*
X218256Y219456D01*
X231324Y219456D02*
X930585Y219456D01*
X943427Y219456D02*
X947413Y219456D01*
X951230Y219456D02*
X951230Y219456D01*
X955047Y219456D02*
X1077143Y219456D01*
X1089985Y219456D02*
X1092803Y219456D01*
X1096677Y219456D02*
X1118203Y219456D01*
X1122077Y219456D02*
X1138542Y219456D01*
X1152538Y219456D02*
X1163942Y219456D01*
X1177938Y219456D02*
X1189342Y219456D01*
X1203338Y219456D02*
X1211224Y219456D01*
X1232256Y219456D02*
X1233964Y219456D01*
X132097Y227584D02*
X9091Y227584D01*
X147811Y227584D02*
X158992Y227584D01*
X166011Y227584D02*
X166729Y227584D01*
X173748Y227584D02*
X218256Y227584D01*
X224431Y227584D02*
X225149Y227584D01*
X231324Y227584D02*
X905444Y227584D01*
X911860Y227584D02*
X911860Y227584D01*
X918276Y227584D02*
X938713Y227584D01*
X1081857Y227584D02*
X1086724Y227584D01*
X1102756Y227584D02*
X1112124Y227584D01*
X1128156Y227584D02*
X1135024Y227584D01*
X1156056Y227584D02*
X1169924Y227584D01*
X1171956Y227584D02*
X1185824Y227584D01*
X1206856Y227584D02*
X1211224Y227584D01*
X1232256Y227584D02*
X1233964Y227584D01*
X124729Y235712D02*
X26416Y235712D01*
X127911Y235712D02*
X128629Y235712D01*
X131811Y235712D02*
X140225Y235712D01*
X155939Y235712D02*
X161335Y235712D01*
X166011Y235712D02*
X166729Y235712D01*
X171405Y235712D02*
X862446Y235712D01*
X866140Y235712D02*
X866140Y235712D01*
X869834Y235712D02*
X1074744Y235712D01*
X1211143Y235712D02*
X1211224Y235712D01*
X1232256Y235712D02*
X1233964Y235712D01*
X120681Y243840D02*
X46701Y243840D01*
X127911Y243840D02*
X128629Y243840D01*
X135859Y243840D02*
X148353Y243840D01*
X164067Y243840D02*
X860388Y243840D01*
X866140Y243840D02*
X866140Y243840D01*
X871892Y243840D02*
X1074236Y243840D01*
X1227722Y243840D02*
X1233964Y243840D01*
X156481Y251968D02*
X54829Y251968D01*
X172195Y251968D02*
X1007044Y251968D01*
X1019876Y251968D02*
X1086724Y251968D01*
X1102756Y251968D02*
X1109459Y251968D01*
X1130656Y251968D02*
X1137524Y251968D01*
X1153556Y251968D02*
X1169924Y251968D01*
X1171956Y251968D02*
X1185824Y251968D01*
X1206856Y251968D02*
X1211224Y251968D01*
X1232256Y251968D02*
X1233964Y251968D01*
X164609Y260096D02*
X62957Y260096D01*
X988043Y260096D02*
X1007379Y260096D01*
X1019541Y260096D02*
X1047767Y260096D01*
X1127646Y260096D02*
X1142376Y260096D01*
X1148704Y260096D02*
X1163434Y260096D01*
X1169924Y260096D02*
X1171956Y260096D01*
X1178446Y260096D02*
X1188834Y260096D01*
X1203846Y260096D02*
X1214234Y260096D01*
X1229246Y260096D02*
X1233964Y260096D01*
X864022Y268224D02*
X71085Y268224D01*
X868680Y268224D02*
X868680Y268224D01*
X873338Y268224D02*
X912282Y268224D01*
X916940Y268224D02*
X916940Y268224D01*
X921598Y268224D02*
X980457Y268224D01*
X1112503Y268224D02*
X1233964Y268224D01*
X863444Y276352D02*
X79213Y276352D01*
X868680Y276352D02*
X868680Y276352D01*
X873916Y276352D02*
X911704Y276352D01*
X916940Y276352D02*
X916940Y276352D01*
X922176Y276352D02*
X946818Y276352D01*
X958182Y276352D02*
X959518Y276352D01*
X970882Y276352D02*
X988585Y276352D01*
X1047225Y276352D02*
X1226873Y276352D01*
X1012251Y284480D02*
X969194Y284480D01*
X1018540Y284480D02*
X1018540Y284480D01*
X1024829Y284480D02*
X1063805Y284480D01*
X1055677Y292608D02*
X958053Y292608D01*
X8128Y231394D02*
X8128Y228547D01*
X16256Y231394D02*
X16256Y220419D01*
X24384Y214606D02*
X24384Y231394D01*
X32512Y239554D02*
X32512Y220590D01*
X40640Y222363D02*
X40640Y239554D01*
X48768Y195452D02*
X48768Y187907D01*
X48768Y206526D02*
X48768Y207494D01*
X48768Y214532D02*
X48768Y245907D01*
X56896Y31274D02*
X56896Y27686D01*
X56896Y40156D02*
X56896Y41124D01*
X56896Y50006D02*
X56896Y51361D01*
X56896Y185166D02*
X56896Y189080D01*
X56896Y192681D02*
X56896Y193399D01*
X56896Y197000D02*
X56896Y210357D01*
X56896Y215541D02*
X56896Y216259D01*
X56896Y221443D02*
X56896Y254035D01*
X65024Y31687D02*
X65024Y27686D01*
X65024Y40156D02*
X65024Y41124D01*
X65024Y49593D02*
X65024Y91694D01*
X65024Y185166D02*
X65024Y185501D01*
X65024Y192681D02*
X65024Y193399D01*
X65024Y200579D02*
X65024Y208733D01*
X65024Y215541D02*
X65024Y216259D01*
X65024Y223067D02*
X65024Y262163D01*
X73152Y58552D02*
X73152Y27686D01*
X73152Y65681D02*
X73152Y66399D01*
X73152Y73528D02*
X73152Y91694D01*
X73152Y185166D02*
X73152Y270291D01*
X81280Y39526D02*
X81280Y27686D01*
X81280Y40281D02*
X81280Y40999D01*
X81280Y41754D02*
X81280Y61700D01*
X81280Y65681D02*
X81280Y66399D01*
X81280Y70380D02*
X81280Y278419D01*
X89408Y9684D02*
X89408Y4286D01*
X89408Y20796D02*
X89408Y32949D01*
X89408Y40281D02*
X89408Y40999D01*
X89408Y48331D02*
X89408Y280194D01*
X97536Y9684D02*
X97536Y4286D01*
X97536Y22843D02*
X97536Y280194D01*
X105664Y15257D02*
X105664Y4286D01*
X105664Y30971D02*
X105664Y56106D01*
X105664Y58061D02*
X105664Y58779D01*
X105664Y60734D02*
X105664Y81506D01*
X105664Y83461D02*
X105664Y84179D01*
X105664Y86134D02*
X105664Y106906D01*
X105664Y108861D02*
X105664Y109579D01*
X105664Y111534D02*
X105664Y280194D01*
X113792Y23385D02*
X113792Y4286D01*
X113792Y39099D02*
X113792Y50730D01*
X113792Y58061D02*
X113792Y58779D01*
X113792Y66110D02*
X113792Y76130D01*
X113792Y83461D02*
X113792Y84179D01*
X113792Y91510D02*
X113792Y101530D01*
X113792Y108861D02*
X113792Y109579D01*
X113792Y116910D02*
X113792Y280194D01*
X121920Y31513D02*
X121920Y4286D01*
X121920Y47227D02*
X121920Y238230D01*
X121920Y242211D02*
X121920Y242929D01*
X121920Y246910D02*
X121920Y280194D01*
X130048Y39641D02*
X130048Y4286D01*
X130048Y225535D02*
X130048Y235082D01*
X130048Y242211D02*
X130048Y242929D01*
X130048Y250058D02*
X130048Y280194D01*
X138176Y217949D02*
X138176Y4286D01*
X138176Y233663D02*
X138176Y280194D01*
X146304Y56106D02*
X146304Y4286D01*
X146304Y58061D02*
X146304Y58779D01*
X146304Y60734D02*
X146304Y81506D01*
X146304Y83461D02*
X146304Y84179D01*
X146304Y86134D02*
X146304Y106906D01*
X146304Y108861D02*
X146304Y109579D01*
X146304Y111534D02*
X146304Y226077D01*
X146304Y241791D02*
X146304Y280194D01*
X154432Y50730D02*
X154432Y4286D01*
X154432Y58061D02*
X154432Y58779D01*
X154432Y66110D02*
X154432Y76130D01*
X154432Y83461D02*
X154432Y84179D01*
X154432Y91510D02*
X154432Y101530D01*
X154432Y108861D02*
X154432Y109579D01*
X154432Y116910D02*
X154432Y205674D01*
X154432Y218506D02*
X154432Y234205D01*
X154432Y249919D02*
X154432Y280194D01*
X162560Y207550D02*
X162560Y4286D01*
X162560Y216630D02*
X162560Y223166D01*
X162560Y229511D02*
X162560Y230229D01*
X162560Y236574D02*
X162560Y242333D01*
X162560Y258047D02*
X162560Y280194D01*
X170688Y207550D02*
X170688Y4286D01*
X170688Y216630D02*
X170688Y223505D01*
X170688Y229511D02*
X170688Y230229D01*
X170688Y236235D02*
X170688Y250461D01*
X170688Y264636D02*
X170688Y280194D01*
X178816Y207550D02*
X178816Y4286D01*
X178816Y216630D02*
X178816Y253524D01*
X178816Y264636D02*
X178816Y280194D01*
X186944Y207550D02*
X186944Y4286D01*
X186944Y216630D02*
X186944Y253524D01*
X186944Y264636D02*
X186944Y280194D01*
X195072Y191755D02*
X195072Y4286D01*
X195072Y197761D02*
X195072Y198479D01*
X195072Y204485D02*
X195072Y207550D01*
X195072Y216630D02*
X195072Y253524D01*
X195072Y264636D02*
X195072Y280194D01*
X203200Y191416D02*
X203200Y4286D01*
X203200Y197761D02*
X203200Y198479D01*
X203200Y204824D02*
X203200Y207550D01*
X203200Y216630D02*
X203200Y253524D01*
X203200Y264636D02*
X203200Y280194D01*
X211328Y207550D02*
X211328Y4286D01*
X211328Y216630D02*
X211328Y253524D01*
X211328Y264636D02*
X211328Y280194D01*
X219456Y207550D02*
X219456Y202131D01*
X219456Y216630D02*
X219456Y217977D01*
X219456Y223161D02*
X219456Y223879D01*
X219456Y229063D02*
X219456Y253524D01*
X219456Y264636D02*
X219456Y280194D01*
X227584Y223879D02*
X227584Y223161D01*
X227584Y230687D02*
X227584Y253524D01*
X227584Y264636D02*
X227584Y280194D01*
X235712Y253524D02*
X235712Y216630D01*
X235712Y264636D02*
X235712Y280194D01*
X243840Y253524D02*
X243840Y216630D01*
X243840Y264636D02*
X243840Y280194D01*
X251968Y253524D02*
X251968Y216630D01*
X251968Y264636D02*
X251968Y280194D01*
X260096Y253524D02*
X260096Y216630D01*
X260096Y264636D02*
X260096Y280194D01*
X268224Y253524D02*
X268224Y216630D01*
X268224Y264636D02*
X268224Y280194D01*
X276352Y253524D02*
X276352Y216630D01*
X276352Y264636D02*
X276352Y280194D01*
X284480Y253524D02*
X284480Y216630D01*
X284480Y264636D02*
X284480Y280194D01*
X292608Y253524D02*
X292608Y216630D01*
X292608Y264636D02*
X292608Y280194D01*
X300736Y253524D02*
X300736Y216630D01*
X300736Y264636D02*
X300736Y280194D01*
X308864Y253524D02*
X308864Y216630D01*
X308864Y264636D02*
X308864Y280194D01*
X316992Y253524D02*
X316992Y216630D01*
X316992Y264636D02*
X316992Y280194D01*
X325120Y253524D02*
X325120Y216630D01*
X325120Y264636D02*
X325120Y280194D01*
X333248Y253524D02*
X333248Y216630D01*
X333248Y264636D02*
X333248Y280194D01*
X341376Y253524D02*
X341376Y216630D01*
X341376Y264636D02*
X341376Y280194D01*
X349504Y253524D02*
X349504Y216630D01*
X349504Y264636D02*
X349504Y280194D01*
X357632Y253524D02*
X357632Y216630D01*
X357632Y264636D02*
X357632Y280194D01*
X365760Y253524D02*
X365760Y216630D01*
X365760Y264636D02*
X365760Y280194D01*
X373888Y253524D02*
X373888Y216630D01*
X373888Y264636D02*
X373888Y280194D01*
X382016Y253524D02*
X382016Y216630D01*
X382016Y264636D02*
X382016Y280194D01*
X390144Y253524D02*
X390144Y216630D01*
X390144Y264636D02*
X390144Y280194D01*
X398272Y253524D02*
X398272Y216630D01*
X398272Y264636D02*
X398272Y280194D01*
X406400Y253524D02*
X406400Y216630D01*
X406400Y264636D02*
X406400Y280194D01*
X414528Y253524D02*
X414528Y216630D01*
X414528Y264636D02*
X414528Y280194D01*
X422656Y253524D02*
X422656Y216630D01*
X422656Y264636D02*
X422656Y280194D01*
X430784Y253524D02*
X430784Y216630D01*
X430784Y264636D02*
X430784Y280194D01*
X438912Y253524D02*
X438912Y216630D01*
X438912Y264636D02*
X438912Y280194D01*
X447040Y253524D02*
X447040Y216630D01*
X447040Y264636D02*
X447040Y280194D01*
X455168Y253524D02*
X455168Y216630D01*
X455168Y264636D02*
X455168Y280194D01*
X463296Y253524D02*
X463296Y216630D01*
X463296Y264636D02*
X463296Y280194D01*
X471424Y253524D02*
X471424Y216630D01*
X471424Y264636D02*
X471424Y280194D01*
X479552Y253524D02*
X479552Y216630D01*
X479552Y264636D02*
X479552Y280194D01*
X487680Y253524D02*
X487680Y216630D01*
X487680Y264636D02*
X487680Y280194D01*
X495808Y253524D02*
X495808Y216630D01*
X495808Y264636D02*
X495808Y280194D01*
X503936Y253524D02*
X503936Y216630D01*
X503936Y264636D02*
X503936Y280194D01*
X512064Y253524D02*
X512064Y216630D01*
X512064Y264636D02*
X512064Y280194D01*
X520192Y253524D02*
X520192Y216630D01*
X520192Y264636D02*
X520192Y280194D01*
X528320Y253524D02*
X528320Y216630D01*
X528320Y264636D02*
X528320Y280194D01*
X536448Y253524D02*
X536448Y216630D01*
X536448Y264636D02*
X536448Y280194D01*
X544576Y253524D02*
X544576Y216630D01*
X544576Y264636D02*
X544576Y280194D01*
X552704Y253524D02*
X552704Y216630D01*
X552704Y264636D02*
X552704Y280194D01*
X560832Y253524D02*
X560832Y216630D01*
X560832Y264636D02*
X560832Y280194D01*
X568960Y253524D02*
X568960Y216630D01*
X568960Y264636D02*
X568960Y280194D01*
X577088Y253524D02*
X577088Y216630D01*
X577088Y264636D02*
X577088Y280194D01*
X585216Y253524D02*
X585216Y216630D01*
X585216Y264636D02*
X585216Y280194D01*
X593344Y253524D02*
X593344Y216630D01*
X593344Y264636D02*
X593344Y280194D01*
X601472Y253524D02*
X601472Y216630D01*
X601472Y264636D02*
X601472Y280194D01*
X609600Y253524D02*
X609600Y216630D01*
X609600Y264636D02*
X609600Y280194D01*
X617728Y253524D02*
X617728Y216630D01*
X617728Y264636D02*
X617728Y280194D01*
X625856Y253524D02*
X625856Y216630D01*
X625856Y264636D02*
X625856Y280194D01*
X633984Y253524D02*
X633984Y216630D01*
X633984Y264636D02*
X633984Y280194D01*
X642112Y253524D02*
X642112Y216630D01*
X642112Y264636D02*
X642112Y280194D01*
X650240Y253524D02*
X650240Y216630D01*
X650240Y264636D02*
X650240Y280194D01*
X658368Y253524D02*
X658368Y216630D01*
X658368Y264636D02*
X658368Y280194D01*
X666496Y253524D02*
X666496Y216630D01*
X666496Y264636D02*
X666496Y280194D01*
X674624Y253524D02*
X674624Y216630D01*
X674624Y264636D02*
X674624Y280194D01*
X682752Y253524D02*
X682752Y216630D01*
X682752Y264636D02*
X682752Y280194D01*
X690880Y253524D02*
X690880Y216630D01*
X690880Y264636D02*
X690880Y280194D01*
X699008Y253524D02*
X699008Y216630D01*
X699008Y264636D02*
X699008Y280194D01*
X707136Y253524D02*
X707136Y216630D01*
X707136Y264636D02*
X707136Y280194D01*
X715264Y253524D02*
X715264Y216630D01*
X715264Y264636D02*
X715264Y280194D01*
X723392Y253524D02*
X723392Y216630D01*
X723392Y264636D02*
X723392Y280194D01*
X731520Y253524D02*
X731520Y216630D01*
X731520Y264636D02*
X731520Y280194D01*
X739648Y253524D02*
X739648Y216630D01*
X739648Y264636D02*
X739648Y280194D01*
X747776Y253524D02*
X747776Y216630D01*
X747776Y264636D02*
X747776Y280194D01*
X755904Y253524D02*
X755904Y216630D01*
X755904Y264636D02*
X755904Y280194D01*
X764032Y253524D02*
X764032Y216630D01*
X764032Y264636D02*
X764032Y280194D01*
X772160Y253524D02*
X772160Y216630D01*
X772160Y264636D02*
X772160Y280194D01*
X780288Y253524D02*
X780288Y216630D01*
X780288Y264636D02*
X780288Y280194D01*
X788416Y253524D02*
X788416Y216630D01*
X788416Y264636D02*
X788416Y280194D01*
X796544Y253524D02*
X796544Y216630D01*
X796544Y264636D02*
X796544Y280194D01*
X804672Y253524D02*
X804672Y216630D01*
X804672Y264636D02*
X804672Y280194D01*
X812800Y253524D02*
X812800Y216630D01*
X812800Y264636D02*
X812800Y280194D01*
X820928Y253524D02*
X820928Y216630D01*
X820928Y264636D02*
X820928Y280194D01*
X829056Y253524D02*
X829056Y216630D01*
X829056Y264636D02*
X829056Y280194D01*
X837184Y253524D02*
X837184Y216630D01*
X837184Y264636D02*
X837184Y280194D01*
X845312Y253524D02*
X845312Y216630D01*
X845312Y264636D02*
X845312Y280194D01*
X853440Y253524D02*
X853440Y216630D01*
X853440Y264636D02*
X853440Y280194D01*
X861568Y236458D02*
X861568Y216630D01*
X861568Y240960D02*
X861568Y240960D01*
X861568Y245462D02*
X861568Y253524D01*
X861568Y264636D02*
X861568Y280194D01*
X869696Y235620D02*
X869696Y216630D01*
X869696Y240960D02*
X869696Y240960D01*
X869696Y246300D02*
X869696Y253524D01*
X869696Y264636D02*
X869696Y266300D01*
X869696Y272640D02*
X869696Y272640D01*
X869696Y278980D02*
X869696Y280194D01*
X877824Y253524D02*
X877824Y216630D01*
X877824Y264636D02*
X877824Y280194D01*
X885952Y253524D02*
X885952Y216630D01*
X885952Y264636D02*
X885952Y280194D01*
X894080Y253524D02*
X894080Y216630D01*
X894080Y264636D02*
X894080Y280194D01*
X902208Y253524D02*
X902208Y216630D01*
X902208Y264636D02*
X902208Y280194D01*
X910336Y220751D02*
X910336Y216630D01*
X910336Y226990D02*
X910336Y226990D01*
X910336Y233229D02*
X910336Y253524D01*
X910336Y264636D02*
X910336Y280194D01*
X918464Y252767D02*
X918464Y216630D01*
X918464Y265393D02*
X918464Y266401D01*
X918464Y272640D02*
X918464Y272640D01*
X918464Y278879D02*
X918464Y280194D01*
X926592Y253524D02*
X926592Y216630D01*
X926592Y264636D02*
X926592Y280194D01*
X934720Y210749D02*
X934720Y210026D01*
X934720Y223591D02*
X934720Y253524D01*
X934720Y264636D02*
X934720Y280194D01*
X942848Y218877D02*
X942848Y210026D01*
X942848Y230600D02*
X942848Y253524D01*
X942848Y264636D02*
X942848Y280194D01*
X950976Y214290D02*
X950976Y214290D01*
X950976Y220706D02*
X950976Y221520D01*
X950976Y230600D02*
X950976Y253524D01*
X950976Y264636D02*
X950976Y273087D01*
X959104Y221520D02*
X959104Y210026D01*
X959104Y230600D02*
X959104Y253524D01*
X959104Y264636D02*
X959104Y277351D01*
X959104Y291557D02*
X959104Y292894D01*
X967232Y221520D02*
X967232Y210026D01*
X967232Y230600D02*
X967232Y253524D01*
X967232Y264636D02*
X967232Y273297D01*
X967232Y285503D02*
X967232Y292894D01*
X975360Y221520D02*
X975360Y210026D01*
X975360Y230600D02*
X975360Y253524D01*
X975360Y264636D02*
X975360Y292894D01*
X983488Y221520D02*
X983488Y210026D01*
X983488Y230600D02*
X983488Y255541D01*
X983488Y271255D02*
X983488Y292894D01*
X991616Y221520D02*
X991616Y210026D01*
X991616Y230600D02*
X991616Y263669D01*
X991616Y278606D02*
X991616Y292894D01*
X999744Y221520D02*
X999744Y210026D01*
X999744Y230600D02*
X999744Y267494D01*
X999744Y278606D02*
X999744Y292894D01*
X1007872Y221520D02*
X1007872Y210026D01*
X1007872Y230600D02*
X1007872Y248275D01*
X1007872Y251460D02*
X1007872Y251460D01*
X1007872Y254645D02*
X1007872Y258905D01*
X1007872Y265455D02*
X1007872Y267494D01*
X1007872Y278606D02*
X1007872Y292894D01*
X1016000Y221520D02*
X1016000Y210026D01*
X1016000Y230600D02*
X1016000Y245567D01*
X1016000Y251460D02*
X1016000Y251460D01*
X1016000Y278606D02*
X1016000Y279858D01*
X1016000Y285750D02*
X1016000Y285750D01*
X1016000Y291643D02*
X1016000Y292894D01*
X1024128Y221520D02*
X1024128Y210026D01*
X1024128Y230600D02*
X1024128Y267494D01*
X1024128Y278606D02*
X1024128Y282565D01*
X1024128Y285750D02*
X1024128Y285750D01*
X1024128Y288935D02*
X1024128Y292894D01*
X1032256Y221520D02*
X1032256Y210026D01*
X1032256Y230600D02*
X1032256Y267494D01*
X1032256Y278606D02*
X1032256Y292894D01*
X1040384Y221520D02*
X1040384Y210026D01*
X1040384Y230600D02*
X1040384Y267479D01*
X1040384Y278606D02*
X1040384Y292894D01*
X1048512Y221520D02*
X1048512Y210026D01*
X1048512Y230600D02*
X1048512Y259351D01*
X1048512Y275065D02*
X1048512Y292894D01*
X1056640Y221520D02*
X1056640Y210026D01*
X1056640Y230600D02*
X1056640Y258604D01*
X1056640Y271236D02*
X1056640Y291645D01*
X1064768Y221520D02*
X1064768Y210026D01*
X1064768Y230600D02*
X1064768Y258604D01*
X1064768Y276008D02*
X1064768Y283517D01*
X1072896Y221520D02*
X1072896Y210026D01*
X1072896Y230600D02*
X1072896Y258604D01*
X1072896Y269716D02*
X1072896Y276384D01*
X1081024Y215575D02*
X1081024Y204671D01*
X1081024Y228417D02*
X1081024Y233717D01*
X1081024Y246343D02*
X1081024Y258604D01*
X1081024Y269716D02*
X1081024Y276384D01*
X1089152Y207550D02*
X1089152Y196543D01*
X1089152Y220289D02*
X1089152Y221582D01*
X1089152Y233078D02*
X1089152Y235490D01*
X1089152Y244570D02*
X1089152Y246982D01*
X1089152Y258478D02*
X1089152Y258604D01*
X1089152Y269716D02*
X1089152Y276384D01*
X1097280Y207550D02*
X1097280Y188415D01*
X1097280Y216630D02*
X1097280Y219706D01*
X1097280Y234954D02*
X1097280Y235490D01*
X1097280Y244570D02*
X1097280Y245106D01*
X1097280Y269716D02*
X1097280Y276384D01*
X1105408Y207550D02*
X1105408Y185896D01*
X1105408Y216630D02*
X1105408Y235490D01*
X1105408Y244570D02*
X1105408Y258604D01*
X1105408Y269716D02*
X1105408Y276384D01*
X1113536Y207550D02*
X1113536Y185896D01*
X1113536Y216630D02*
X1113536Y222598D01*
X1113536Y232062D02*
X1113536Y235490D01*
X1113536Y267191D02*
X1113536Y276384D01*
X1121664Y207550D02*
X1121664Y185896D01*
X1121664Y216630D02*
X1121664Y219314D01*
X1121664Y235346D02*
X1121664Y235490D01*
X1121664Y263246D02*
X1121664Y276384D01*
X1129792Y207550D02*
X1129792Y185896D01*
X1129792Y216630D02*
X1129792Y235490D01*
X1129792Y244570D02*
X1129792Y248552D01*
X1129792Y256908D02*
X1129792Y276384D01*
X1137920Y207550D02*
X1137920Y185896D01*
X1137920Y216630D02*
X1137920Y220078D01*
X1137920Y234582D02*
X1137920Y235490D01*
X1137920Y244570D02*
X1137920Y250179D01*
X1137920Y255281D02*
X1137920Y276384D01*
X1146048Y207550D02*
X1146048Y185896D01*
X1146048Y216630D02*
X1146048Y216814D01*
X1146048Y244570D02*
X1146048Y244714D01*
X1146048Y260746D02*
X1146048Y276384D01*
X1154176Y207550D02*
X1154176Y185896D01*
X1154176Y216630D02*
X1154176Y221094D01*
X1154176Y233566D02*
X1154176Y235490D01*
X1154176Y244570D02*
X1154176Y276384D01*
X1162304Y207550D02*
X1162304Y185896D01*
X1162304Y216630D02*
X1162304Y221326D01*
X1162304Y226314D02*
X1162304Y228346D01*
X1162304Y233334D02*
X1162304Y235490D01*
X1162304Y244570D02*
X1162304Y246726D01*
X1162304Y251714D02*
X1162304Y253746D01*
X1162304Y258734D02*
X1162304Y276384D01*
X1170432Y205882D02*
X1170432Y185896D01*
X1170432Y253746D02*
X1170432Y276384D01*
X1178560Y210654D02*
X1178560Y185896D01*
X1178560Y213525D02*
X1178560Y220078D01*
X1178560Y226314D02*
X1178560Y228346D01*
X1178560Y234582D02*
X1178560Y235490D01*
X1178560Y244570D02*
X1178560Y245478D01*
X1178560Y251714D02*
X1178560Y253746D01*
X1178560Y259982D02*
X1178560Y276384D01*
X1186688Y223152D02*
X1186688Y185896D01*
X1186688Y231508D02*
X1186688Y235490D01*
X1186688Y244570D02*
X1186688Y248552D01*
X1186688Y256908D02*
X1186688Y276384D01*
X1194816Y216814D02*
X1194816Y185896D01*
X1194816Y263246D02*
X1194816Y276384D01*
X1202944Y219062D02*
X1202944Y185896D01*
X1202944Y260998D02*
X1202944Y276384D01*
X1211072Y235641D02*
X1211072Y189177D01*
X1211072Y250590D02*
X1211072Y276384D01*
X1219200Y216814D02*
X1219200Y197305D01*
X1219200Y237846D02*
X1219200Y241962D01*
X1219200Y263060D02*
X1219200Y276384D01*
X1227328Y216814D02*
X1227328Y205433D01*
X1227328Y237846D02*
X1227328Y243662D01*
X1227328Y261798D02*
X1227328Y275897D01*
D19*
X113030Y109220D03*
X113030Y83820D03*
X113030Y58420D03*
X153670Y58420D03*
X153670Y83820D03*
X153670Y109220D03*
X224790Y223520D03*
X199390Y198120D03*
X166370Y229870D03*
X128270Y242570D03*
D22*
X868680Y272640D03*
X866140Y240960D03*
X951230Y214290D03*
X1013460Y251460D03*
X1018540Y285750D03*
D15*
X50800Y110490D03*
X63500Y110490D03*
D16*
X50800Y110490D02*
X76200Y110490D01*
D15*
X50800Y173990D03*
X63500Y173990D03*
D16*
X50800Y173990D02*
X76200Y173990D01*
D22*
X1172210Y212090D03*
X154940Y212090D03*
D16*
X1090930Y212090D02*
X1172210Y212090D01*
X929640Y212090D02*
X154940Y212090D01*
X929640Y212090D02*
X943610Y226060D01*
X1076960Y226060D02*
X1090930Y212090D01*
X1076960Y226060D02*
X943610Y226060D01*
D15*
X50800Y148590D03*
X63500Y148590D03*
D16*
X50800Y148590D02*
X76200Y148590D01*
D15*
X50800Y129540D03*
X63500Y129540D03*
D16*
X50800Y129540D02*
X76200Y129540D01*
D15*
X50800Y15240D03*
X63500Y15240D03*
D20*
X50800Y15240D01*
D23*
X1018540Y273050D02*
X1042670Y273050D01*
X1018540Y273050D02*
X1013460Y273050D01*
X1008380Y273050D01*
D22*
X1013460Y262180D03*
D18*
X1013460Y267970D02*
X1013460Y273050D01*
X1013460Y267970D02*
X1008380Y273050D01*
X1013460Y267970D02*
X1013460Y262180D01*
X1013460Y267970D02*
X1018540Y273050D01*
D23*
X97790Y15240D02*
X63500Y15240D01*
X132080Y219710D02*
X171450Y259080D01*
X132080Y49530D02*
X97790Y15240D01*
X132080Y49530D02*
X132080Y219710D01*
X1111250Y261620D02*
X1120140Y252730D01*
X1111250Y261620D02*
X1109980Y262890D01*
X1108710Y264160D01*
X1051560Y264160D02*
X1042670Y273050D01*
X1068070Y264160D02*
X1108710Y264160D01*
X1068070Y264160D02*
X1062990Y264160D01*
X1057910Y264160D01*
X1051560Y264160D01*
D16*
X1109980Y262890D02*
X1115060Y250190D01*
X1122680Y257810D02*
X1111250Y261620D01*
D22*
X916940Y259080D03*
D23*
X171450Y259080D01*
X993140Y273050D02*
X1008380Y273050D01*
X993140Y273050D02*
X979170Y259080D01*
X916940Y259080D01*
D22*
X1062990Y269800D03*
D16*
X1062990Y269240D02*
X1057910Y264160D01*
X1062990Y269240D02*
X1068070Y264160D01*
X1062990Y264160D02*
X1062990Y269800D01*
D21*
X0Y281940D02*
X-3620Y278320D01*
D15*
X0Y281940D03*
D16*
X25400Y281940D01*
D15*
X12700Y281940D03*
D16*
X1214120Y245110D02*
X1221740Y252730D01*
X1214120Y245110D02*
X1209040Y240030D01*
X1079500Y240030D01*
D18*
X1214120Y245110D02*
X1224280Y247650D01*
X1214120Y245110D02*
X1216660Y255270D01*
D22*
X1079500Y240030D03*
D15*
X0Y262890D03*
D22*
X965200Y279400D03*
D18*
X953770Y290830D01*
X78740Y290830D02*
X50800Y262890D01*
X0Y262890D01*
X78740Y290830D02*
X953770Y290830D01*
D15*
X0Y243840D03*
D22*
X952500Y279400D03*
D18*
X947420Y284480D01*
X40640Y243840D02*
X0Y243840D01*
X81280Y284480D02*
X947420Y284480D01*
X81280Y284480D02*
X40640Y243840D01*
D15*
X12700Y262890D03*
X12700Y243840D03*
M02*
