G04 EAGLE Gerber X2 export*
%TF.Part,Single*%
%TF.FileFunction,Other,stiffener on bottom layer*%
%TF.FilePolarity,Positive*%
%TF.GenerationSoftware,Autodesk,EAGLE,9.5.2*%
%TF.CreationDate,2020-04-08T10:13:28Z*%
G75*
%MOMM*%
%FSLAX34Y34*%
%LPD*%
%INstiffener bottom*%
%AMOC8*
5,1,8,0,0,1.08239X$1,22.5*%
G01*

G36*
X1056758Y208296D02*
X1056758Y208296D01*
X1056877Y208303D01*
X1056915Y208316D01*
X1056956Y208321D01*
X1057066Y208364D01*
X1057179Y208401D01*
X1057214Y208423D01*
X1057251Y208438D01*
X1057347Y208508D01*
X1057448Y208571D01*
X1057476Y208601D01*
X1057509Y208624D01*
X1057585Y208716D01*
X1057666Y208803D01*
X1057686Y208838D01*
X1057711Y208869D01*
X1057762Y208977D01*
X1057820Y209081D01*
X1057830Y209121D01*
X1057847Y209157D01*
X1057869Y209274D01*
X1057899Y209389D01*
X1057903Y209450D01*
X1057907Y209470D01*
X1057905Y209490D01*
X1057909Y209550D01*
X1057909Y292100D01*
X1057894Y292218D01*
X1057887Y292337D01*
X1057874Y292375D01*
X1057869Y292416D01*
X1057826Y292526D01*
X1057789Y292639D01*
X1057767Y292674D01*
X1057752Y292711D01*
X1057683Y292807D01*
X1057619Y292908D01*
X1057589Y292936D01*
X1057566Y292969D01*
X1057474Y293045D01*
X1057387Y293126D01*
X1057352Y293146D01*
X1057321Y293171D01*
X1057213Y293222D01*
X1057109Y293280D01*
X1057069Y293290D01*
X1057033Y293307D01*
X1056916Y293329D01*
X1056801Y293359D01*
X1056741Y293363D01*
X1056721Y293367D01*
X1056700Y293365D01*
X1056640Y293369D01*
X878840Y293369D01*
X878722Y293354D01*
X878603Y293347D01*
X878565Y293334D01*
X878524Y293329D01*
X878414Y293286D01*
X878301Y293249D01*
X878266Y293227D01*
X878229Y293212D01*
X878133Y293143D01*
X878032Y293079D01*
X878004Y293049D01*
X877971Y293026D01*
X877896Y292934D01*
X877814Y292847D01*
X877794Y292812D01*
X877769Y292781D01*
X877718Y292673D01*
X877660Y292569D01*
X877650Y292529D01*
X877633Y292493D01*
X877611Y292376D01*
X877581Y292261D01*
X877577Y292201D01*
X877573Y292181D01*
X877575Y292160D01*
X877571Y292100D01*
X877571Y209550D01*
X877586Y209432D01*
X877593Y209313D01*
X877606Y209275D01*
X877611Y209234D01*
X877654Y209124D01*
X877691Y209011D01*
X877713Y208976D01*
X877728Y208939D01*
X877798Y208843D01*
X877861Y208742D01*
X877891Y208714D01*
X877914Y208681D01*
X878006Y208606D01*
X878093Y208524D01*
X878128Y208504D01*
X878159Y208479D01*
X878267Y208428D01*
X878371Y208370D01*
X878411Y208360D01*
X878447Y208343D01*
X878564Y208321D01*
X878679Y208291D01*
X878740Y208287D01*
X878760Y208283D01*
X878780Y208285D01*
X878840Y208281D01*
X1056640Y208281D01*
X1056758Y208296D01*
G37*
M02*
