G04 EAGLE Gerber X2 export*
%TF.Part,Single*%
%TF.FileFunction,Other,padmask top*%
%TF.FilePolarity,Positive*%
%TF.GenerationSoftware,Autodesk,EAGLE,9.6.2*%
%TF.CreationDate,2020-07-07T11:12:48Z*%
G75*
%MOMM*%
%FSLAX34Y34*%
%LPD*%
%INpadmask top*%
%AMOC8*
5,1,8,0,0,1.08239X$1,22.5*%
G01*
%ADD10R,0.900000X0.500000*%
%ADD11R,1.300000X1.500000*%
%ADD12R,1.100000X1.000000*%
%ADD13R,0.990600X0.304800*%
%ADD14R,0.800000X0.350000*%


D10*
X135500Y106000D03*
X135500Y98000D03*
X135500Y90000D03*
X135500Y82000D03*
X151500Y82000D03*
X151500Y90000D03*
X151500Y98000D03*
X151500Y106000D03*
X135500Y64000D03*
X135500Y56000D03*
X135500Y48000D03*
X135500Y40000D03*
X151500Y40000D03*
X151500Y48000D03*
X151500Y56000D03*
X151500Y64000D03*
X135500Y22000D03*
X135500Y14000D03*
X135500Y6000D03*
X135500Y-2000D03*
X151500Y-2000D03*
X151500Y6000D03*
X151500Y14000D03*
X151500Y22000D03*
D11*
X76000Y124000D03*
X57000Y124000D03*
D12*
X75500Y101500D03*
X58500Y101500D03*
D13*
X42322Y81250D03*
X42322Y74750D03*
X42322Y68250D03*
X42322Y61750D03*
X42322Y55250D03*
X42322Y48750D03*
X42322Y42250D03*
X42322Y35750D03*
X42322Y29250D03*
X42322Y22750D03*
X100678Y22750D03*
X100678Y29250D03*
X100678Y35750D03*
X100678Y42250D03*
X100678Y48750D03*
X100678Y55250D03*
X100678Y61750D03*
X100678Y68250D03*
X100678Y74750D03*
X100678Y81250D03*
D14*
X74750Y-7250D03*
X74750Y5750D03*
X55750Y5750D03*
X55750Y-750D03*
X55750Y-7250D03*
D12*
X91000Y5500D03*
X108000Y5500D03*
M02*
