G04 EAGLE Gerber X2 export*
%TF.Part,Single*%
%TF.FileFunction,Other,solder mask top*%
%TF.FilePolarity,Positive*%
%TF.GenerationSoftware,Autodesk,EAGLE,9.6.2*%
%TF.CreationDate,2022-07-13T20:55:59Z*%
G75*
%MOMM*%
%FSLAX34Y34*%
%LPD*%
%INsolder mask top*%
%AMOC8*
5,1,8,0,0,1.08239X$1,22.5*%
G01*
%ADD10C,0.000000*%
%ADD11R,2.641600X1.371600*%
%ADD12R,1.371600X2.641600*%
%ADD13R,1.601600X1.601600*%
%ADD14C,1.601600*%
%ADD15C,1.101600*%
%ADD16R,1.401600X1.601600*%
%ADD17R,1.701600X0.451600*%
%ADD18R,1.000000X0.600000*%
%ADD19R,1.201600X1.101600*%
%ADD20R,0.609600X0.990600*%
%ADD21R,0.152400X1.092200*%
%ADD22R,1.091600X0.791600*%
%ADD23R,1.270000X1.701800*%
%ADD24R,0.152400X1.828800*%
%ADD25R,1.701800X1.270000*%
%ADD26R,1.828800X0.152400*%


D10*
X0Y232410D02*
X50800Y181610D01*
X50800Y100330D01*
X60960Y90170D01*
X60960Y59690D01*
X50800Y49530D01*
X50800Y6350D01*
X55880Y1270D01*
X213360Y1270D01*
X1236980Y209550D02*
X1236980Y293370D01*
X0Y290830D02*
X0Y232410D01*
X0Y290830D02*
X5080Y295910D01*
X220980Y8890D02*
X213360Y1270D01*
X220980Y8890D02*
X220980Y199390D01*
X228600Y207010D01*
X1234440Y207010D01*
X1234440Y295910D02*
X5080Y295910D01*
X1234440Y207010D02*
X1236980Y209550D01*
X1236980Y293370D02*
X1234440Y295910D01*
D11*
X63500Y110490D03*
X63500Y173990D03*
X63500Y129540D03*
X63500Y40640D03*
D12*
G36*
X56098Y206330D02*
X46400Y196632D01*
X27722Y215310D01*
X37420Y225008D01*
X56098Y206330D01*
G37*
D11*
X63500Y15240D03*
X63500Y148590D03*
D12*
G36*
X49748Y199980D02*
X40050Y190282D01*
X21372Y208960D01*
X31070Y218658D01*
X49748Y199980D01*
G37*
D13*
X1221740Y236220D03*
D14*
X1221740Y261620D03*
X1196340Y236220D03*
X1196340Y261620D03*
X1170940Y236220D03*
X1170940Y261620D03*
X1120140Y261620D03*
D10*
X1089740Y236220D02*
X1089742Y236361D01*
X1089748Y236502D01*
X1089758Y236642D01*
X1089772Y236782D01*
X1089790Y236922D01*
X1089811Y237061D01*
X1089837Y237200D01*
X1089866Y237338D01*
X1089900Y237474D01*
X1089937Y237610D01*
X1089978Y237745D01*
X1090023Y237879D01*
X1090072Y238011D01*
X1090124Y238142D01*
X1090180Y238271D01*
X1090240Y238398D01*
X1090303Y238524D01*
X1090369Y238648D01*
X1090440Y238771D01*
X1090513Y238891D01*
X1090590Y239009D01*
X1090670Y239125D01*
X1090754Y239238D01*
X1090840Y239349D01*
X1090930Y239458D01*
X1091023Y239564D01*
X1091118Y239667D01*
X1091217Y239768D01*
X1091318Y239866D01*
X1091422Y239961D01*
X1091529Y240053D01*
X1091638Y240142D01*
X1091750Y240227D01*
X1091864Y240310D01*
X1091980Y240390D01*
X1092099Y240466D01*
X1092220Y240538D01*
X1092342Y240608D01*
X1092467Y240673D01*
X1092593Y240736D01*
X1092721Y240794D01*
X1092851Y240849D01*
X1092982Y240901D01*
X1093115Y240948D01*
X1093249Y240992D01*
X1093384Y241033D01*
X1093520Y241069D01*
X1093657Y241101D01*
X1093795Y241130D01*
X1093933Y241155D01*
X1094073Y241175D01*
X1094213Y241192D01*
X1094353Y241205D01*
X1094494Y241214D01*
X1094634Y241219D01*
X1094775Y241220D01*
X1094916Y241217D01*
X1095057Y241210D01*
X1095197Y241199D01*
X1095337Y241184D01*
X1095477Y241165D01*
X1095616Y241143D01*
X1095754Y241116D01*
X1095892Y241086D01*
X1096028Y241051D01*
X1096164Y241013D01*
X1096298Y240971D01*
X1096432Y240925D01*
X1096564Y240876D01*
X1096694Y240822D01*
X1096823Y240765D01*
X1096950Y240705D01*
X1097076Y240641D01*
X1097199Y240573D01*
X1097321Y240502D01*
X1097441Y240428D01*
X1097558Y240350D01*
X1097673Y240269D01*
X1097786Y240185D01*
X1097897Y240098D01*
X1098005Y240007D01*
X1098110Y239914D01*
X1098213Y239817D01*
X1098313Y239718D01*
X1098410Y239616D01*
X1098504Y239511D01*
X1098595Y239404D01*
X1098683Y239294D01*
X1098768Y239182D01*
X1098850Y239067D01*
X1098929Y238950D01*
X1099004Y238831D01*
X1099076Y238710D01*
X1099144Y238587D01*
X1099209Y238462D01*
X1099271Y238335D01*
X1099328Y238206D01*
X1099383Y238076D01*
X1099433Y237945D01*
X1099480Y237812D01*
X1099523Y237678D01*
X1099562Y237542D01*
X1099597Y237406D01*
X1099629Y237269D01*
X1099656Y237131D01*
X1099680Y236992D01*
X1099700Y236852D01*
X1099716Y236712D01*
X1099728Y236572D01*
X1099736Y236431D01*
X1099740Y236290D01*
X1099740Y236150D01*
X1099736Y236009D01*
X1099728Y235868D01*
X1099716Y235728D01*
X1099700Y235588D01*
X1099680Y235448D01*
X1099656Y235309D01*
X1099629Y235171D01*
X1099597Y235034D01*
X1099562Y234898D01*
X1099523Y234762D01*
X1099480Y234628D01*
X1099433Y234495D01*
X1099383Y234364D01*
X1099328Y234234D01*
X1099271Y234105D01*
X1099209Y233978D01*
X1099144Y233853D01*
X1099076Y233730D01*
X1099004Y233609D01*
X1098929Y233490D01*
X1098850Y233373D01*
X1098768Y233258D01*
X1098683Y233146D01*
X1098595Y233036D01*
X1098504Y232929D01*
X1098410Y232824D01*
X1098313Y232722D01*
X1098213Y232623D01*
X1098110Y232526D01*
X1098005Y232433D01*
X1097897Y232342D01*
X1097786Y232255D01*
X1097673Y232171D01*
X1097558Y232090D01*
X1097441Y232012D01*
X1097321Y231938D01*
X1097199Y231867D01*
X1097076Y231799D01*
X1096950Y231735D01*
X1096823Y231675D01*
X1096694Y231618D01*
X1096564Y231564D01*
X1096432Y231515D01*
X1096298Y231469D01*
X1096164Y231427D01*
X1096028Y231389D01*
X1095892Y231354D01*
X1095754Y231324D01*
X1095616Y231297D01*
X1095477Y231275D01*
X1095337Y231256D01*
X1095197Y231241D01*
X1095057Y231230D01*
X1094916Y231223D01*
X1094775Y231220D01*
X1094634Y231221D01*
X1094494Y231226D01*
X1094353Y231235D01*
X1094213Y231248D01*
X1094073Y231265D01*
X1093933Y231285D01*
X1093795Y231310D01*
X1093657Y231339D01*
X1093520Y231371D01*
X1093384Y231407D01*
X1093249Y231448D01*
X1093115Y231492D01*
X1092982Y231539D01*
X1092851Y231591D01*
X1092721Y231646D01*
X1092593Y231704D01*
X1092467Y231767D01*
X1092342Y231832D01*
X1092220Y231902D01*
X1092099Y231974D01*
X1091980Y232050D01*
X1091864Y232130D01*
X1091750Y232213D01*
X1091638Y232298D01*
X1091529Y232387D01*
X1091422Y232479D01*
X1091318Y232574D01*
X1091217Y232672D01*
X1091118Y232773D01*
X1091023Y232876D01*
X1090930Y232982D01*
X1090840Y233091D01*
X1090754Y233202D01*
X1090670Y233315D01*
X1090590Y233431D01*
X1090513Y233549D01*
X1090440Y233669D01*
X1090369Y233792D01*
X1090303Y233916D01*
X1090240Y234042D01*
X1090180Y234169D01*
X1090124Y234298D01*
X1090072Y234429D01*
X1090023Y234561D01*
X1089978Y234695D01*
X1089937Y234830D01*
X1089900Y234966D01*
X1089866Y235102D01*
X1089837Y235240D01*
X1089811Y235379D01*
X1089790Y235518D01*
X1089772Y235658D01*
X1089758Y235798D01*
X1089748Y235938D01*
X1089742Y236079D01*
X1089740Y236220D01*
D15*
X1094740Y236220D03*
D10*
X1089740Y261620D02*
X1089742Y261761D01*
X1089748Y261902D01*
X1089758Y262042D01*
X1089772Y262182D01*
X1089790Y262322D01*
X1089811Y262461D01*
X1089837Y262600D01*
X1089866Y262738D01*
X1089900Y262874D01*
X1089937Y263010D01*
X1089978Y263145D01*
X1090023Y263279D01*
X1090072Y263411D01*
X1090124Y263542D01*
X1090180Y263671D01*
X1090240Y263798D01*
X1090303Y263924D01*
X1090369Y264048D01*
X1090440Y264171D01*
X1090513Y264291D01*
X1090590Y264409D01*
X1090670Y264525D01*
X1090754Y264638D01*
X1090840Y264749D01*
X1090930Y264858D01*
X1091023Y264964D01*
X1091118Y265067D01*
X1091217Y265168D01*
X1091318Y265266D01*
X1091422Y265361D01*
X1091529Y265453D01*
X1091638Y265542D01*
X1091750Y265627D01*
X1091864Y265710D01*
X1091980Y265790D01*
X1092099Y265866D01*
X1092220Y265938D01*
X1092342Y266008D01*
X1092467Y266073D01*
X1092593Y266136D01*
X1092721Y266194D01*
X1092851Y266249D01*
X1092982Y266301D01*
X1093115Y266348D01*
X1093249Y266392D01*
X1093384Y266433D01*
X1093520Y266469D01*
X1093657Y266501D01*
X1093795Y266530D01*
X1093933Y266555D01*
X1094073Y266575D01*
X1094213Y266592D01*
X1094353Y266605D01*
X1094494Y266614D01*
X1094634Y266619D01*
X1094775Y266620D01*
X1094916Y266617D01*
X1095057Y266610D01*
X1095197Y266599D01*
X1095337Y266584D01*
X1095477Y266565D01*
X1095616Y266543D01*
X1095754Y266516D01*
X1095892Y266486D01*
X1096028Y266451D01*
X1096164Y266413D01*
X1096298Y266371D01*
X1096432Y266325D01*
X1096564Y266276D01*
X1096694Y266222D01*
X1096823Y266165D01*
X1096950Y266105D01*
X1097076Y266041D01*
X1097199Y265973D01*
X1097321Y265902D01*
X1097441Y265828D01*
X1097558Y265750D01*
X1097673Y265669D01*
X1097786Y265585D01*
X1097897Y265498D01*
X1098005Y265407D01*
X1098110Y265314D01*
X1098213Y265217D01*
X1098313Y265118D01*
X1098410Y265016D01*
X1098504Y264911D01*
X1098595Y264804D01*
X1098683Y264694D01*
X1098768Y264582D01*
X1098850Y264467D01*
X1098929Y264350D01*
X1099004Y264231D01*
X1099076Y264110D01*
X1099144Y263987D01*
X1099209Y263862D01*
X1099271Y263735D01*
X1099328Y263606D01*
X1099383Y263476D01*
X1099433Y263345D01*
X1099480Y263212D01*
X1099523Y263078D01*
X1099562Y262942D01*
X1099597Y262806D01*
X1099629Y262669D01*
X1099656Y262531D01*
X1099680Y262392D01*
X1099700Y262252D01*
X1099716Y262112D01*
X1099728Y261972D01*
X1099736Y261831D01*
X1099740Y261690D01*
X1099740Y261550D01*
X1099736Y261409D01*
X1099728Y261268D01*
X1099716Y261128D01*
X1099700Y260988D01*
X1099680Y260848D01*
X1099656Y260709D01*
X1099629Y260571D01*
X1099597Y260434D01*
X1099562Y260298D01*
X1099523Y260162D01*
X1099480Y260028D01*
X1099433Y259895D01*
X1099383Y259764D01*
X1099328Y259634D01*
X1099271Y259505D01*
X1099209Y259378D01*
X1099144Y259253D01*
X1099076Y259130D01*
X1099004Y259009D01*
X1098929Y258890D01*
X1098850Y258773D01*
X1098768Y258658D01*
X1098683Y258546D01*
X1098595Y258436D01*
X1098504Y258329D01*
X1098410Y258224D01*
X1098313Y258122D01*
X1098213Y258023D01*
X1098110Y257926D01*
X1098005Y257833D01*
X1097897Y257742D01*
X1097786Y257655D01*
X1097673Y257571D01*
X1097558Y257490D01*
X1097441Y257412D01*
X1097321Y257338D01*
X1097199Y257267D01*
X1097076Y257199D01*
X1096950Y257135D01*
X1096823Y257075D01*
X1096694Y257018D01*
X1096564Y256964D01*
X1096432Y256915D01*
X1096298Y256869D01*
X1096164Y256827D01*
X1096028Y256789D01*
X1095892Y256754D01*
X1095754Y256724D01*
X1095616Y256697D01*
X1095477Y256675D01*
X1095337Y256656D01*
X1095197Y256641D01*
X1095057Y256630D01*
X1094916Y256623D01*
X1094775Y256620D01*
X1094634Y256621D01*
X1094494Y256626D01*
X1094353Y256635D01*
X1094213Y256648D01*
X1094073Y256665D01*
X1093933Y256685D01*
X1093795Y256710D01*
X1093657Y256739D01*
X1093520Y256771D01*
X1093384Y256807D01*
X1093249Y256848D01*
X1093115Y256892D01*
X1092982Y256939D01*
X1092851Y256991D01*
X1092721Y257046D01*
X1092593Y257104D01*
X1092467Y257167D01*
X1092342Y257232D01*
X1092220Y257302D01*
X1092099Y257374D01*
X1091980Y257450D01*
X1091864Y257530D01*
X1091750Y257613D01*
X1091638Y257698D01*
X1091529Y257787D01*
X1091422Y257879D01*
X1091318Y257974D01*
X1091217Y258072D01*
X1091118Y258173D01*
X1091023Y258276D01*
X1090930Y258382D01*
X1090840Y258491D01*
X1090754Y258602D01*
X1090670Y258715D01*
X1090590Y258831D01*
X1090513Y258949D01*
X1090440Y259069D01*
X1090369Y259192D01*
X1090303Y259316D01*
X1090240Y259442D01*
X1090180Y259569D01*
X1090124Y259698D01*
X1090072Y259829D01*
X1090023Y259961D01*
X1089978Y260095D01*
X1089937Y260230D01*
X1089900Y260366D01*
X1089866Y260502D01*
X1089837Y260640D01*
X1089811Y260779D01*
X1089790Y260918D01*
X1089772Y261058D01*
X1089758Y261198D01*
X1089748Y261338D01*
X1089742Y261479D01*
X1089740Y261620D01*
D15*
X1094740Y261620D03*
D14*
X1145540Y236220D03*
D10*
X1140540Y261620D02*
X1140542Y261761D01*
X1140548Y261902D01*
X1140558Y262042D01*
X1140572Y262182D01*
X1140590Y262322D01*
X1140611Y262461D01*
X1140637Y262600D01*
X1140666Y262738D01*
X1140700Y262874D01*
X1140737Y263010D01*
X1140778Y263145D01*
X1140823Y263279D01*
X1140872Y263411D01*
X1140924Y263542D01*
X1140980Y263671D01*
X1141040Y263798D01*
X1141103Y263924D01*
X1141169Y264048D01*
X1141240Y264171D01*
X1141313Y264291D01*
X1141390Y264409D01*
X1141470Y264525D01*
X1141554Y264638D01*
X1141640Y264749D01*
X1141730Y264858D01*
X1141823Y264964D01*
X1141918Y265067D01*
X1142017Y265168D01*
X1142118Y265266D01*
X1142222Y265361D01*
X1142329Y265453D01*
X1142438Y265542D01*
X1142550Y265627D01*
X1142664Y265710D01*
X1142780Y265790D01*
X1142899Y265866D01*
X1143020Y265938D01*
X1143142Y266008D01*
X1143267Y266073D01*
X1143393Y266136D01*
X1143521Y266194D01*
X1143651Y266249D01*
X1143782Y266301D01*
X1143915Y266348D01*
X1144049Y266392D01*
X1144184Y266433D01*
X1144320Y266469D01*
X1144457Y266501D01*
X1144595Y266530D01*
X1144733Y266555D01*
X1144873Y266575D01*
X1145013Y266592D01*
X1145153Y266605D01*
X1145294Y266614D01*
X1145434Y266619D01*
X1145575Y266620D01*
X1145716Y266617D01*
X1145857Y266610D01*
X1145997Y266599D01*
X1146137Y266584D01*
X1146277Y266565D01*
X1146416Y266543D01*
X1146554Y266516D01*
X1146692Y266486D01*
X1146828Y266451D01*
X1146964Y266413D01*
X1147098Y266371D01*
X1147232Y266325D01*
X1147364Y266276D01*
X1147494Y266222D01*
X1147623Y266165D01*
X1147750Y266105D01*
X1147876Y266041D01*
X1147999Y265973D01*
X1148121Y265902D01*
X1148241Y265828D01*
X1148358Y265750D01*
X1148473Y265669D01*
X1148586Y265585D01*
X1148697Y265498D01*
X1148805Y265407D01*
X1148910Y265314D01*
X1149013Y265217D01*
X1149113Y265118D01*
X1149210Y265016D01*
X1149304Y264911D01*
X1149395Y264804D01*
X1149483Y264694D01*
X1149568Y264582D01*
X1149650Y264467D01*
X1149729Y264350D01*
X1149804Y264231D01*
X1149876Y264110D01*
X1149944Y263987D01*
X1150009Y263862D01*
X1150071Y263735D01*
X1150128Y263606D01*
X1150183Y263476D01*
X1150233Y263345D01*
X1150280Y263212D01*
X1150323Y263078D01*
X1150362Y262942D01*
X1150397Y262806D01*
X1150429Y262669D01*
X1150456Y262531D01*
X1150480Y262392D01*
X1150500Y262252D01*
X1150516Y262112D01*
X1150528Y261972D01*
X1150536Y261831D01*
X1150540Y261690D01*
X1150540Y261550D01*
X1150536Y261409D01*
X1150528Y261268D01*
X1150516Y261128D01*
X1150500Y260988D01*
X1150480Y260848D01*
X1150456Y260709D01*
X1150429Y260571D01*
X1150397Y260434D01*
X1150362Y260298D01*
X1150323Y260162D01*
X1150280Y260028D01*
X1150233Y259895D01*
X1150183Y259764D01*
X1150128Y259634D01*
X1150071Y259505D01*
X1150009Y259378D01*
X1149944Y259253D01*
X1149876Y259130D01*
X1149804Y259009D01*
X1149729Y258890D01*
X1149650Y258773D01*
X1149568Y258658D01*
X1149483Y258546D01*
X1149395Y258436D01*
X1149304Y258329D01*
X1149210Y258224D01*
X1149113Y258122D01*
X1149013Y258023D01*
X1148910Y257926D01*
X1148805Y257833D01*
X1148697Y257742D01*
X1148586Y257655D01*
X1148473Y257571D01*
X1148358Y257490D01*
X1148241Y257412D01*
X1148121Y257338D01*
X1147999Y257267D01*
X1147876Y257199D01*
X1147750Y257135D01*
X1147623Y257075D01*
X1147494Y257018D01*
X1147364Y256964D01*
X1147232Y256915D01*
X1147098Y256869D01*
X1146964Y256827D01*
X1146828Y256789D01*
X1146692Y256754D01*
X1146554Y256724D01*
X1146416Y256697D01*
X1146277Y256675D01*
X1146137Y256656D01*
X1145997Y256641D01*
X1145857Y256630D01*
X1145716Y256623D01*
X1145575Y256620D01*
X1145434Y256621D01*
X1145294Y256626D01*
X1145153Y256635D01*
X1145013Y256648D01*
X1144873Y256665D01*
X1144733Y256685D01*
X1144595Y256710D01*
X1144457Y256739D01*
X1144320Y256771D01*
X1144184Y256807D01*
X1144049Y256848D01*
X1143915Y256892D01*
X1143782Y256939D01*
X1143651Y256991D01*
X1143521Y257046D01*
X1143393Y257104D01*
X1143267Y257167D01*
X1143142Y257232D01*
X1143020Y257302D01*
X1142899Y257374D01*
X1142780Y257450D01*
X1142664Y257530D01*
X1142550Y257613D01*
X1142438Y257698D01*
X1142329Y257787D01*
X1142222Y257879D01*
X1142118Y257974D01*
X1142017Y258072D01*
X1141918Y258173D01*
X1141823Y258276D01*
X1141730Y258382D01*
X1141640Y258491D01*
X1141554Y258602D01*
X1141470Y258715D01*
X1141390Y258831D01*
X1141313Y258949D01*
X1141240Y259069D01*
X1141169Y259192D01*
X1141103Y259316D01*
X1141040Y259442D01*
X1140980Y259569D01*
X1140924Y259698D01*
X1140872Y259829D01*
X1140823Y259961D01*
X1140778Y260095D01*
X1140737Y260230D01*
X1140700Y260366D01*
X1140666Y260502D01*
X1140637Y260640D01*
X1140611Y260779D01*
X1140590Y260918D01*
X1140572Y261058D01*
X1140558Y261198D01*
X1140548Y261338D01*
X1140542Y261479D01*
X1140540Y261620D01*
D15*
X1145540Y261620D03*
D14*
X1120140Y236220D03*
D16*
X883310Y264160D03*
X902310Y264160D03*
D17*
X935930Y277870D03*
X935930Y271370D03*
X935930Y264870D03*
X935930Y258370D03*
X935930Y251870D03*
X935930Y245370D03*
X935930Y238870D03*
X935930Y232370D03*
X935930Y225870D03*
X935930Y219370D03*
X991930Y219370D03*
X991930Y225870D03*
X991930Y232370D03*
X991930Y238870D03*
X991930Y245370D03*
X991930Y251870D03*
X991930Y258370D03*
X991930Y264870D03*
X991930Y271370D03*
X991930Y277870D03*
D18*
X900810Y220410D03*
X900810Y228410D03*
X900810Y236410D03*
X900810Y244410D03*
X884810Y244410D03*
X884810Y236410D03*
X884810Y228410D03*
X884810Y220410D03*
D11*
X12700Y243840D03*
X12700Y262890D03*
X12700Y281940D03*
D18*
X1029590Y238060D03*
X1029590Y230060D03*
X1029590Y222060D03*
X1029590Y214060D03*
X1045590Y214060D03*
X1045590Y222060D03*
X1045590Y230060D03*
X1045590Y238060D03*
D19*
X902580Y284480D03*
X885580Y284480D03*
D20*
X963930Y247650D03*
X971550Y247650D03*
D21*
X967740Y247650D03*
D20*
X963930Y233680D03*
X971550Y233680D03*
D21*
X967740Y233680D03*
D20*
X963930Y219710D03*
X971550Y219710D03*
D21*
X967740Y219710D03*
D22*
X1024690Y269850D03*
X1024690Y260350D03*
X1024690Y250850D03*
X1050590Y250850D03*
X1050590Y269850D03*
D19*
X1046090Y285750D03*
X1029090Y285750D03*
D23*
X74930Y284480D03*
X90170Y284480D03*
D24*
X82550Y284480D03*
D23*
X74930Y264160D03*
X90170Y264160D03*
D24*
X82550Y264160D03*
D23*
X74930Y243840D03*
X90170Y243840D03*
D24*
X82550Y243840D03*
D25*
X109220Y207010D03*
X109220Y222250D03*
D26*
X109220Y214630D03*
D25*
X129540Y207010D03*
X129540Y222250D03*
D26*
X129540Y214630D03*
D25*
X149860Y207010D03*
X149860Y222250D03*
D26*
X149860Y214630D03*
M02*
