G04 EAGLE Gerber X2 export*
%TF.Part,Single*%
%TF.FileFunction,Other,stiffener on bottom layer*%
%TF.FilePolarity,Positive*%
%TF.GenerationSoftware,Autodesk,EAGLE,9.6.2*%
%TF.CreationDate,2022-07-13T20:55:59Z*%
G75*
%MOMM*%
%FSLAX34Y34*%
%LPD*%
%INstiffener bottom*%
%AMOC8*
5,1,8,0,0,1.08239X$1,22.5*%
G01*

G36*
X1234558Y208296D02*
X1234558Y208296D01*
X1234677Y208303D01*
X1234715Y208316D01*
X1234756Y208321D01*
X1234866Y208364D01*
X1234979Y208401D01*
X1235014Y208423D01*
X1235051Y208438D01*
X1235147Y208508D01*
X1235248Y208571D01*
X1235276Y208601D01*
X1235309Y208624D01*
X1235385Y208716D01*
X1235466Y208803D01*
X1235486Y208838D01*
X1235511Y208869D01*
X1235562Y208977D01*
X1235620Y209081D01*
X1235630Y209121D01*
X1235647Y209157D01*
X1235669Y209274D01*
X1235699Y209389D01*
X1235703Y209450D01*
X1235707Y209470D01*
X1235705Y209490D01*
X1235709Y209550D01*
X1235709Y292100D01*
X1235694Y292218D01*
X1235687Y292337D01*
X1235674Y292375D01*
X1235669Y292416D01*
X1235626Y292526D01*
X1235589Y292639D01*
X1235567Y292674D01*
X1235552Y292711D01*
X1235483Y292807D01*
X1235419Y292908D01*
X1235389Y292936D01*
X1235366Y292969D01*
X1235274Y293045D01*
X1235187Y293126D01*
X1235152Y293146D01*
X1235121Y293171D01*
X1235013Y293222D01*
X1234909Y293280D01*
X1234869Y293290D01*
X1234833Y293307D01*
X1234716Y293329D01*
X1234601Y293359D01*
X1234541Y293363D01*
X1234521Y293367D01*
X1234500Y293365D01*
X1234440Y293369D01*
X872490Y293369D01*
X872372Y293354D01*
X872253Y293347D01*
X872215Y293334D01*
X872174Y293329D01*
X872064Y293286D01*
X871951Y293249D01*
X871916Y293227D01*
X871879Y293212D01*
X871783Y293143D01*
X871682Y293079D01*
X871654Y293049D01*
X871621Y293026D01*
X871546Y292934D01*
X871464Y292847D01*
X871444Y292812D01*
X871419Y292781D01*
X871368Y292673D01*
X871310Y292569D01*
X871300Y292529D01*
X871283Y292493D01*
X871261Y292376D01*
X871231Y292261D01*
X871227Y292201D01*
X871223Y292181D01*
X871225Y292160D01*
X871221Y292100D01*
X871221Y209550D01*
X871236Y209432D01*
X871243Y209313D01*
X871256Y209275D01*
X871261Y209234D01*
X871304Y209124D01*
X871341Y209011D01*
X871363Y208976D01*
X871378Y208939D01*
X871448Y208843D01*
X871511Y208742D01*
X871541Y208714D01*
X871564Y208681D01*
X871656Y208606D01*
X871743Y208524D01*
X871778Y208504D01*
X871809Y208479D01*
X871917Y208428D01*
X872021Y208370D01*
X872061Y208360D01*
X872097Y208343D01*
X872214Y208321D01*
X872329Y208291D01*
X872390Y208287D01*
X872410Y208283D01*
X872430Y208285D01*
X872490Y208281D01*
X1234440Y208281D01*
X1234558Y208296D01*
G37*
G36*
X99588Y232922D02*
X99588Y232922D01*
X99607Y232920D01*
X99709Y232942D01*
X99811Y232959D01*
X99828Y232968D01*
X99848Y232972D01*
X99937Y233025D01*
X100028Y233074D01*
X100042Y233088D01*
X100059Y233098D01*
X100126Y233177D01*
X100198Y233252D01*
X100206Y233270D01*
X100219Y233285D01*
X100258Y233381D01*
X100301Y233475D01*
X100303Y233495D01*
X100311Y233513D01*
X100329Y233680D01*
X100329Y294640D01*
X100326Y294660D01*
X100328Y294679D01*
X100306Y294781D01*
X100290Y294883D01*
X100280Y294900D01*
X100276Y294920D01*
X100223Y295009D01*
X100174Y295100D01*
X100160Y295114D01*
X100150Y295131D01*
X100071Y295198D01*
X99996Y295270D01*
X99978Y295278D01*
X99963Y295291D01*
X99867Y295330D01*
X99773Y295373D01*
X99753Y295375D01*
X99735Y295383D01*
X99568Y295401D01*
X65786Y295401D01*
X65766Y295398D01*
X65747Y295400D01*
X65645Y295378D01*
X65543Y295362D01*
X65526Y295352D01*
X65506Y295348D01*
X65417Y295295D01*
X65326Y295246D01*
X65312Y295232D01*
X65295Y295222D01*
X65228Y295143D01*
X65157Y295068D01*
X65148Y295050D01*
X65135Y295035D01*
X65096Y294939D01*
X65053Y294845D01*
X65051Y294825D01*
X65043Y294807D01*
X65025Y294640D01*
X65025Y233680D01*
X65028Y233660D01*
X65026Y233641D01*
X65048Y233539D01*
X65065Y233437D01*
X65074Y233420D01*
X65078Y233400D01*
X65131Y233311D01*
X65180Y233220D01*
X65194Y233206D01*
X65204Y233189D01*
X65283Y233122D01*
X65358Y233051D01*
X65376Y233042D01*
X65391Y233029D01*
X65487Y232990D01*
X65581Y232947D01*
X65601Y232945D01*
X65619Y232937D01*
X65786Y232919D01*
X99568Y232919D01*
X99588Y232922D01*
G37*
G36*
X160040Y197362D02*
X160040Y197362D01*
X160059Y197360D01*
X160161Y197382D01*
X160263Y197399D01*
X160280Y197408D01*
X160300Y197412D01*
X160389Y197465D01*
X160480Y197514D01*
X160494Y197528D01*
X160511Y197538D01*
X160578Y197617D01*
X160650Y197692D01*
X160658Y197710D01*
X160671Y197725D01*
X160710Y197821D01*
X160753Y197915D01*
X160755Y197935D01*
X160763Y197953D01*
X160781Y198120D01*
X160781Y231140D01*
X160778Y231160D01*
X160780Y231179D01*
X160758Y231281D01*
X160742Y231383D01*
X160732Y231400D01*
X160728Y231420D01*
X160675Y231509D01*
X160626Y231600D01*
X160612Y231614D01*
X160602Y231631D01*
X160523Y231698D01*
X160448Y231770D01*
X160430Y231778D01*
X160415Y231791D01*
X160319Y231830D01*
X160225Y231873D01*
X160205Y231875D01*
X160187Y231883D01*
X160020Y231901D01*
X99060Y231901D01*
X99040Y231898D01*
X99021Y231900D01*
X98919Y231878D01*
X98817Y231862D01*
X98800Y231852D01*
X98780Y231848D01*
X98691Y231795D01*
X98600Y231746D01*
X98586Y231732D01*
X98569Y231722D01*
X98502Y231643D01*
X98431Y231568D01*
X98422Y231550D01*
X98409Y231535D01*
X98370Y231439D01*
X98327Y231345D01*
X98325Y231325D01*
X98317Y231307D01*
X98299Y231140D01*
X98299Y198120D01*
X98302Y198100D01*
X98300Y198081D01*
X98322Y197979D01*
X98339Y197877D01*
X98348Y197860D01*
X98352Y197840D01*
X98405Y197751D01*
X98454Y197660D01*
X98468Y197646D01*
X98478Y197629D01*
X98557Y197562D01*
X98632Y197491D01*
X98650Y197482D01*
X98665Y197469D01*
X98761Y197430D01*
X98855Y197387D01*
X98875Y197385D01*
X98893Y197377D01*
X99060Y197359D01*
X160020Y197359D01*
X160040Y197362D01*
G37*
M02*
