G04 EAGLE Gerber X2 export*
%TF.Part,Single*%
%TF.FileFunction,Other,bottom copper*%
%TF.FilePolarity,Positive*%
%TF.GenerationSoftware,Autodesk,EAGLE,9.6.2*%
%TF.CreationDate,2022-07-13T20:55:59Z*%
G75*
%MOMM*%
%FSLAX34Y34*%
%LPD*%
%INbottom copper*%
%AMOC8*
5,1,8,0,0,1.08239X$1,22.5*%
G01*
%ADD10C,0.000000*%
%ADD11R,2.540000X1.270000*%
%ADD12R,1.270000X2.540000*%
%ADD13R,1.500000X1.500000*%
%ADD14C,1.500000*%
%ADD15C,1.020000*%
%ADD16C,0.304800*%
%ADD17C,0.609600*%
%ADD18C,0.254000*%
%ADD19C,0.935000*%
%ADD20C,0.406400*%
%ADD21C,0.203200*%
%ADD22C,0.680000*%
%ADD23C,0.508000*%


D10*
X0Y232410D02*
X50800Y181610D01*
X50800Y100330D01*
X60960Y90170D01*
X60960Y59690D01*
X50800Y49530D01*
X50800Y6350D01*
X55880Y1270D01*
X213360Y1270D01*
X1236980Y209550D02*
X1236980Y293370D01*
X0Y290830D02*
X0Y232410D01*
X0Y290830D02*
X5080Y295910D01*
X220980Y8890D02*
X213360Y1270D01*
X220980Y8890D02*
X220980Y199390D01*
X228600Y207010D01*
X1234440Y207010D01*
X1234440Y295910D02*
X5080Y295910D01*
X1234440Y207010D02*
X1236980Y209550D01*
X1236980Y293370D02*
X1234440Y295910D01*
D11*
X50800Y173990D03*
X50800Y148590D03*
X50800Y129540D03*
X50800Y110490D03*
X50800Y40640D03*
X50800Y15240D03*
D12*
G36*
X15740Y202610D02*
X24720Y211590D01*
X42680Y193630D01*
X33700Y184650D01*
X15740Y202610D01*
G37*
G36*
X22090Y208960D02*
X31070Y217940D01*
X49030Y199980D01*
X40050Y191000D01*
X22090Y208960D01*
G37*
D13*
X1221740Y236220D03*
D14*
X1221740Y261620D03*
X1196340Y236220D03*
X1196340Y261620D03*
X1170940Y236220D03*
X1170940Y261620D03*
X1120140Y261620D03*
D10*
X1089740Y236220D02*
X1089742Y236361D01*
X1089748Y236502D01*
X1089758Y236642D01*
X1089772Y236782D01*
X1089790Y236922D01*
X1089811Y237061D01*
X1089837Y237200D01*
X1089866Y237338D01*
X1089900Y237474D01*
X1089937Y237610D01*
X1089978Y237745D01*
X1090023Y237879D01*
X1090072Y238011D01*
X1090124Y238142D01*
X1090180Y238271D01*
X1090240Y238398D01*
X1090303Y238524D01*
X1090369Y238648D01*
X1090440Y238771D01*
X1090513Y238891D01*
X1090590Y239009D01*
X1090670Y239125D01*
X1090754Y239238D01*
X1090840Y239349D01*
X1090930Y239458D01*
X1091023Y239564D01*
X1091118Y239667D01*
X1091217Y239768D01*
X1091318Y239866D01*
X1091422Y239961D01*
X1091529Y240053D01*
X1091638Y240142D01*
X1091750Y240227D01*
X1091864Y240310D01*
X1091980Y240390D01*
X1092099Y240466D01*
X1092220Y240538D01*
X1092342Y240608D01*
X1092467Y240673D01*
X1092593Y240736D01*
X1092721Y240794D01*
X1092851Y240849D01*
X1092982Y240901D01*
X1093115Y240948D01*
X1093249Y240992D01*
X1093384Y241033D01*
X1093520Y241069D01*
X1093657Y241101D01*
X1093795Y241130D01*
X1093933Y241155D01*
X1094073Y241175D01*
X1094213Y241192D01*
X1094353Y241205D01*
X1094494Y241214D01*
X1094634Y241219D01*
X1094775Y241220D01*
X1094916Y241217D01*
X1095057Y241210D01*
X1095197Y241199D01*
X1095337Y241184D01*
X1095477Y241165D01*
X1095616Y241143D01*
X1095754Y241116D01*
X1095892Y241086D01*
X1096028Y241051D01*
X1096164Y241013D01*
X1096298Y240971D01*
X1096432Y240925D01*
X1096564Y240876D01*
X1096694Y240822D01*
X1096823Y240765D01*
X1096950Y240705D01*
X1097076Y240641D01*
X1097199Y240573D01*
X1097321Y240502D01*
X1097441Y240428D01*
X1097558Y240350D01*
X1097673Y240269D01*
X1097786Y240185D01*
X1097897Y240098D01*
X1098005Y240007D01*
X1098110Y239914D01*
X1098213Y239817D01*
X1098313Y239718D01*
X1098410Y239616D01*
X1098504Y239511D01*
X1098595Y239404D01*
X1098683Y239294D01*
X1098768Y239182D01*
X1098850Y239067D01*
X1098929Y238950D01*
X1099004Y238831D01*
X1099076Y238710D01*
X1099144Y238587D01*
X1099209Y238462D01*
X1099271Y238335D01*
X1099328Y238206D01*
X1099383Y238076D01*
X1099433Y237945D01*
X1099480Y237812D01*
X1099523Y237678D01*
X1099562Y237542D01*
X1099597Y237406D01*
X1099629Y237269D01*
X1099656Y237131D01*
X1099680Y236992D01*
X1099700Y236852D01*
X1099716Y236712D01*
X1099728Y236572D01*
X1099736Y236431D01*
X1099740Y236290D01*
X1099740Y236150D01*
X1099736Y236009D01*
X1099728Y235868D01*
X1099716Y235728D01*
X1099700Y235588D01*
X1099680Y235448D01*
X1099656Y235309D01*
X1099629Y235171D01*
X1099597Y235034D01*
X1099562Y234898D01*
X1099523Y234762D01*
X1099480Y234628D01*
X1099433Y234495D01*
X1099383Y234364D01*
X1099328Y234234D01*
X1099271Y234105D01*
X1099209Y233978D01*
X1099144Y233853D01*
X1099076Y233730D01*
X1099004Y233609D01*
X1098929Y233490D01*
X1098850Y233373D01*
X1098768Y233258D01*
X1098683Y233146D01*
X1098595Y233036D01*
X1098504Y232929D01*
X1098410Y232824D01*
X1098313Y232722D01*
X1098213Y232623D01*
X1098110Y232526D01*
X1098005Y232433D01*
X1097897Y232342D01*
X1097786Y232255D01*
X1097673Y232171D01*
X1097558Y232090D01*
X1097441Y232012D01*
X1097321Y231938D01*
X1097199Y231867D01*
X1097076Y231799D01*
X1096950Y231735D01*
X1096823Y231675D01*
X1096694Y231618D01*
X1096564Y231564D01*
X1096432Y231515D01*
X1096298Y231469D01*
X1096164Y231427D01*
X1096028Y231389D01*
X1095892Y231354D01*
X1095754Y231324D01*
X1095616Y231297D01*
X1095477Y231275D01*
X1095337Y231256D01*
X1095197Y231241D01*
X1095057Y231230D01*
X1094916Y231223D01*
X1094775Y231220D01*
X1094634Y231221D01*
X1094494Y231226D01*
X1094353Y231235D01*
X1094213Y231248D01*
X1094073Y231265D01*
X1093933Y231285D01*
X1093795Y231310D01*
X1093657Y231339D01*
X1093520Y231371D01*
X1093384Y231407D01*
X1093249Y231448D01*
X1093115Y231492D01*
X1092982Y231539D01*
X1092851Y231591D01*
X1092721Y231646D01*
X1092593Y231704D01*
X1092467Y231767D01*
X1092342Y231832D01*
X1092220Y231902D01*
X1092099Y231974D01*
X1091980Y232050D01*
X1091864Y232130D01*
X1091750Y232213D01*
X1091638Y232298D01*
X1091529Y232387D01*
X1091422Y232479D01*
X1091318Y232574D01*
X1091217Y232672D01*
X1091118Y232773D01*
X1091023Y232876D01*
X1090930Y232982D01*
X1090840Y233091D01*
X1090754Y233202D01*
X1090670Y233315D01*
X1090590Y233431D01*
X1090513Y233549D01*
X1090440Y233669D01*
X1090369Y233792D01*
X1090303Y233916D01*
X1090240Y234042D01*
X1090180Y234169D01*
X1090124Y234298D01*
X1090072Y234429D01*
X1090023Y234561D01*
X1089978Y234695D01*
X1089937Y234830D01*
X1089900Y234966D01*
X1089866Y235102D01*
X1089837Y235240D01*
X1089811Y235379D01*
X1089790Y235518D01*
X1089772Y235658D01*
X1089758Y235798D01*
X1089748Y235938D01*
X1089742Y236079D01*
X1089740Y236220D01*
X1089740Y261620D02*
X1089742Y261761D01*
X1089748Y261902D01*
X1089758Y262042D01*
X1089772Y262182D01*
X1089790Y262322D01*
X1089811Y262461D01*
X1089837Y262600D01*
X1089866Y262738D01*
X1089900Y262874D01*
X1089937Y263010D01*
X1089978Y263145D01*
X1090023Y263279D01*
X1090072Y263411D01*
X1090124Y263542D01*
X1090180Y263671D01*
X1090240Y263798D01*
X1090303Y263924D01*
X1090369Y264048D01*
X1090440Y264171D01*
X1090513Y264291D01*
X1090590Y264409D01*
X1090670Y264525D01*
X1090754Y264638D01*
X1090840Y264749D01*
X1090930Y264858D01*
X1091023Y264964D01*
X1091118Y265067D01*
X1091217Y265168D01*
X1091318Y265266D01*
X1091422Y265361D01*
X1091529Y265453D01*
X1091638Y265542D01*
X1091750Y265627D01*
X1091864Y265710D01*
X1091980Y265790D01*
X1092099Y265866D01*
X1092220Y265938D01*
X1092342Y266008D01*
X1092467Y266073D01*
X1092593Y266136D01*
X1092721Y266194D01*
X1092851Y266249D01*
X1092982Y266301D01*
X1093115Y266348D01*
X1093249Y266392D01*
X1093384Y266433D01*
X1093520Y266469D01*
X1093657Y266501D01*
X1093795Y266530D01*
X1093933Y266555D01*
X1094073Y266575D01*
X1094213Y266592D01*
X1094353Y266605D01*
X1094494Y266614D01*
X1094634Y266619D01*
X1094775Y266620D01*
X1094916Y266617D01*
X1095057Y266610D01*
X1095197Y266599D01*
X1095337Y266584D01*
X1095477Y266565D01*
X1095616Y266543D01*
X1095754Y266516D01*
X1095892Y266486D01*
X1096028Y266451D01*
X1096164Y266413D01*
X1096298Y266371D01*
X1096432Y266325D01*
X1096564Y266276D01*
X1096694Y266222D01*
X1096823Y266165D01*
X1096950Y266105D01*
X1097076Y266041D01*
X1097199Y265973D01*
X1097321Y265902D01*
X1097441Y265828D01*
X1097558Y265750D01*
X1097673Y265669D01*
X1097786Y265585D01*
X1097897Y265498D01*
X1098005Y265407D01*
X1098110Y265314D01*
X1098213Y265217D01*
X1098313Y265118D01*
X1098410Y265016D01*
X1098504Y264911D01*
X1098595Y264804D01*
X1098683Y264694D01*
X1098768Y264582D01*
X1098850Y264467D01*
X1098929Y264350D01*
X1099004Y264231D01*
X1099076Y264110D01*
X1099144Y263987D01*
X1099209Y263862D01*
X1099271Y263735D01*
X1099328Y263606D01*
X1099383Y263476D01*
X1099433Y263345D01*
X1099480Y263212D01*
X1099523Y263078D01*
X1099562Y262942D01*
X1099597Y262806D01*
X1099629Y262669D01*
X1099656Y262531D01*
X1099680Y262392D01*
X1099700Y262252D01*
X1099716Y262112D01*
X1099728Y261972D01*
X1099736Y261831D01*
X1099740Y261690D01*
X1099740Y261550D01*
X1099736Y261409D01*
X1099728Y261268D01*
X1099716Y261128D01*
X1099700Y260988D01*
X1099680Y260848D01*
X1099656Y260709D01*
X1099629Y260571D01*
X1099597Y260434D01*
X1099562Y260298D01*
X1099523Y260162D01*
X1099480Y260028D01*
X1099433Y259895D01*
X1099383Y259764D01*
X1099328Y259634D01*
X1099271Y259505D01*
X1099209Y259378D01*
X1099144Y259253D01*
X1099076Y259130D01*
X1099004Y259009D01*
X1098929Y258890D01*
X1098850Y258773D01*
X1098768Y258658D01*
X1098683Y258546D01*
X1098595Y258436D01*
X1098504Y258329D01*
X1098410Y258224D01*
X1098313Y258122D01*
X1098213Y258023D01*
X1098110Y257926D01*
X1098005Y257833D01*
X1097897Y257742D01*
X1097786Y257655D01*
X1097673Y257571D01*
X1097558Y257490D01*
X1097441Y257412D01*
X1097321Y257338D01*
X1097199Y257267D01*
X1097076Y257199D01*
X1096950Y257135D01*
X1096823Y257075D01*
X1096694Y257018D01*
X1096564Y256964D01*
X1096432Y256915D01*
X1096298Y256869D01*
X1096164Y256827D01*
X1096028Y256789D01*
X1095892Y256754D01*
X1095754Y256724D01*
X1095616Y256697D01*
X1095477Y256675D01*
X1095337Y256656D01*
X1095197Y256641D01*
X1095057Y256630D01*
X1094916Y256623D01*
X1094775Y256620D01*
X1094634Y256621D01*
X1094494Y256626D01*
X1094353Y256635D01*
X1094213Y256648D01*
X1094073Y256665D01*
X1093933Y256685D01*
X1093795Y256710D01*
X1093657Y256739D01*
X1093520Y256771D01*
X1093384Y256807D01*
X1093249Y256848D01*
X1093115Y256892D01*
X1092982Y256939D01*
X1092851Y256991D01*
X1092721Y257046D01*
X1092593Y257104D01*
X1092467Y257167D01*
X1092342Y257232D01*
X1092220Y257302D01*
X1092099Y257374D01*
X1091980Y257450D01*
X1091864Y257530D01*
X1091750Y257613D01*
X1091638Y257698D01*
X1091529Y257787D01*
X1091422Y257879D01*
X1091318Y257974D01*
X1091217Y258072D01*
X1091118Y258173D01*
X1091023Y258276D01*
X1090930Y258382D01*
X1090840Y258491D01*
X1090754Y258602D01*
X1090670Y258715D01*
X1090590Y258831D01*
X1090513Y258949D01*
X1090440Y259069D01*
X1090369Y259192D01*
X1090303Y259316D01*
X1090240Y259442D01*
X1090180Y259569D01*
X1090124Y259698D01*
X1090072Y259829D01*
X1090023Y259961D01*
X1089978Y260095D01*
X1089937Y260230D01*
X1089900Y260366D01*
X1089866Y260502D01*
X1089837Y260640D01*
X1089811Y260779D01*
X1089790Y260918D01*
X1089772Y261058D01*
X1089758Y261198D01*
X1089748Y261338D01*
X1089742Y261479D01*
X1089740Y261620D01*
D14*
X1145540Y236220D03*
D10*
X1140540Y261620D02*
X1140542Y261761D01*
X1140548Y261902D01*
X1140558Y262042D01*
X1140572Y262182D01*
X1140590Y262322D01*
X1140611Y262461D01*
X1140637Y262600D01*
X1140666Y262738D01*
X1140700Y262874D01*
X1140737Y263010D01*
X1140778Y263145D01*
X1140823Y263279D01*
X1140872Y263411D01*
X1140924Y263542D01*
X1140980Y263671D01*
X1141040Y263798D01*
X1141103Y263924D01*
X1141169Y264048D01*
X1141240Y264171D01*
X1141313Y264291D01*
X1141390Y264409D01*
X1141470Y264525D01*
X1141554Y264638D01*
X1141640Y264749D01*
X1141730Y264858D01*
X1141823Y264964D01*
X1141918Y265067D01*
X1142017Y265168D01*
X1142118Y265266D01*
X1142222Y265361D01*
X1142329Y265453D01*
X1142438Y265542D01*
X1142550Y265627D01*
X1142664Y265710D01*
X1142780Y265790D01*
X1142899Y265866D01*
X1143020Y265938D01*
X1143142Y266008D01*
X1143267Y266073D01*
X1143393Y266136D01*
X1143521Y266194D01*
X1143651Y266249D01*
X1143782Y266301D01*
X1143915Y266348D01*
X1144049Y266392D01*
X1144184Y266433D01*
X1144320Y266469D01*
X1144457Y266501D01*
X1144595Y266530D01*
X1144733Y266555D01*
X1144873Y266575D01*
X1145013Y266592D01*
X1145153Y266605D01*
X1145294Y266614D01*
X1145434Y266619D01*
X1145575Y266620D01*
X1145716Y266617D01*
X1145857Y266610D01*
X1145997Y266599D01*
X1146137Y266584D01*
X1146277Y266565D01*
X1146416Y266543D01*
X1146554Y266516D01*
X1146692Y266486D01*
X1146828Y266451D01*
X1146964Y266413D01*
X1147098Y266371D01*
X1147232Y266325D01*
X1147364Y266276D01*
X1147494Y266222D01*
X1147623Y266165D01*
X1147750Y266105D01*
X1147876Y266041D01*
X1147999Y265973D01*
X1148121Y265902D01*
X1148241Y265828D01*
X1148358Y265750D01*
X1148473Y265669D01*
X1148586Y265585D01*
X1148697Y265498D01*
X1148805Y265407D01*
X1148910Y265314D01*
X1149013Y265217D01*
X1149113Y265118D01*
X1149210Y265016D01*
X1149304Y264911D01*
X1149395Y264804D01*
X1149483Y264694D01*
X1149568Y264582D01*
X1149650Y264467D01*
X1149729Y264350D01*
X1149804Y264231D01*
X1149876Y264110D01*
X1149944Y263987D01*
X1150009Y263862D01*
X1150071Y263735D01*
X1150128Y263606D01*
X1150183Y263476D01*
X1150233Y263345D01*
X1150280Y263212D01*
X1150323Y263078D01*
X1150362Y262942D01*
X1150397Y262806D01*
X1150429Y262669D01*
X1150456Y262531D01*
X1150480Y262392D01*
X1150500Y262252D01*
X1150516Y262112D01*
X1150528Y261972D01*
X1150536Y261831D01*
X1150540Y261690D01*
X1150540Y261550D01*
X1150536Y261409D01*
X1150528Y261268D01*
X1150516Y261128D01*
X1150500Y260988D01*
X1150480Y260848D01*
X1150456Y260709D01*
X1150429Y260571D01*
X1150397Y260434D01*
X1150362Y260298D01*
X1150323Y260162D01*
X1150280Y260028D01*
X1150233Y259895D01*
X1150183Y259764D01*
X1150128Y259634D01*
X1150071Y259505D01*
X1150009Y259378D01*
X1149944Y259253D01*
X1149876Y259130D01*
X1149804Y259009D01*
X1149729Y258890D01*
X1149650Y258773D01*
X1149568Y258658D01*
X1149483Y258546D01*
X1149395Y258436D01*
X1149304Y258329D01*
X1149210Y258224D01*
X1149113Y258122D01*
X1149013Y258023D01*
X1148910Y257926D01*
X1148805Y257833D01*
X1148697Y257742D01*
X1148586Y257655D01*
X1148473Y257571D01*
X1148358Y257490D01*
X1148241Y257412D01*
X1148121Y257338D01*
X1147999Y257267D01*
X1147876Y257199D01*
X1147750Y257135D01*
X1147623Y257075D01*
X1147494Y257018D01*
X1147364Y256964D01*
X1147232Y256915D01*
X1147098Y256869D01*
X1146964Y256827D01*
X1146828Y256789D01*
X1146692Y256754D01*
X1146554Y256724D01*
X1146416Y256697D01*
X1146277Y256675D01*
X1146137Y256656D01*
X1145997Y256641D01*
X1145857Y256630D01*
X1145716Y256623D01*
X1145575Y256620D01*
X1145434Y256621D01*
X1145294Y256626D01*
X1145153Y256635D01*
X1145013Y256648D01*
X1144873Y256665D01*
X1144733Y256685D01*
X1144595Y256710D01*
X1144457Y256739D01*
X1144320Y256771D01*
X1144184Y256807D01*
X1144049Y256848D01*
X1143915Y256892D01*
X1143782Y256939D01*
X1143651Y256991D01*
X1143521Y257046D01*
X1143393Y257104D01*
X1143267Y257167D01*
X1143142Y257232D01*
X1143020Y257302D01*
X1142899Y257374D01*
X1142780Y257450D01*
X1142664Y257530D01*
X1142550Y257613D01*
X1142438Y257698D01*
X1142329Y257787D01*
X1142222Y257879D01*
X1142118Y257974D01*
X1142017Y258072D01*
X1141918Y258173D01*
X1141823Y258276D01*
X1141730Y258382D01*
X1141640Y258491D01*
X1141554Y258602D01*
X1141470Y258715D01*
X1141390Y258831D01*
X1141313Y258949D01*
X1141240Y259069D01*
X1141169Y259192D01*
X1141103Y259316D01*
X1141040Y259442D01*
X1140980Y259569D01*
X1140924Y259698D01*
X1140872Y259829D01*
X1140823Y259961D01*
X1140778Y260095D01*
X1140737Y260230D01*
X1140700Y260366D01*
X1140666Y260502D01*
X1140637Y260640D01*
X1140611Y260779D01*
X1140590Y260918D01*
X1140572Y261058D01*
X1140558Y261198D01*
X1140548Y261338D01*
X1140542Y261479D01*
X1140540Y261620D01*
D14*
X1120140Y236220D03*
D11*
X0Y281940D03*
X0Y262890D03*
X0Y243840D03*
D15*
X50800Y40640D03*
X63500Y40640D03*
X45720Y207010D03*
X35560Y196850D03*
D16*
X55880Y40640D02*
X63500Y40640D01*
X55880Y40640D02*
X55880Y49530D01*
X57150Y50800D01*
X55880Y40640D02*
X54610Y39370D01*
X54610Y31750D01*
D17*
X63500Y40640D02*
X69850Y40640D01*
D18*
X63500Y44450D02*
X67310Y48260D01*
X63500Y44450D02*
X63500Y40640D01*
X63500Y36830D01*
X67310Y33020D01*
D19*
X74930Y66040D03*
X88900Y40640D03*
X62230Y215900D03*
X63500Y193040D03*
D20*
X45720Y207010D02*
X39370Y200660D01*
D21*
X26670Y213360D02*
X26670Y218440D01*
X26670Y213360D02*
X30480Y209550D01*
X35560Y204470D01*
X39370Y200660D02*
X54610Y200660D01*
X39370Y200660D02*
X35560Y204470D01*
X35560Y215900D01*
X36830Y217170D01*
X35560Y204470D02*
X48260Y204470D01*
X30480Y209550D02*
X30480Y220980D01*
D20*
X29210Y198120D02*
X34290Y198120D01*
X35560Y196850D01*
D15*
X27940Y204470D03*
X38100Y214630D03*
D22*
X916940Y276450D03*
X911860Y226990D03*
D21*
X163364Y279233D02*
X162785Y277833D01*
X162489Y276348D01*
X162489Y275949D01*
X169821Y275949D01*
X169821Y275231D01*
X162489Y275231D01*
X162489Y274832D01*
X162785Y273347D01*
X163364Y271947D01*
X164006Y270986D01*
X104379Y270986D01*
X90409Y257016D01*
X87154Y253761D01*
X87154Y114539D01*
X102394Y99299D01*
X102394Y27701D01*
X95489Y20796D01*
X84836Y20796D01*
X84836Y27091D01*
X84241Y27686D01*
X53816Y27686D01*
X53816Y31274D01*
X63897Y31274D01*
X64664Y31480D01*
X65352Y31877D01*
X65913Y32438D01*
X66230Y32986D01*
X67344Y33448D01*
X68674Y34336D01*
X69804Y35466D01*
X70692Y36796D01*
X71304Y38273D01*
X71616Y39841D01*
X71616Y40156D01*
X63984Y40156D01*
X63984Y41124D01*
X71616Y41124D01*
X71616Y41439D01*
X71304Y43007D01*
X70692Y44484D01*
X69804Y45814D01*
X68674Y46944D01*
X67344Y47832D01*
X66230Y48294D01*
X65913Y48842D01*
X65352Y49403D01*
X64664Y49800D01*
X63897Y50006D01*
X55541Y50006D01*
X63976Y58441D01*
X63976Y91419D01*
X63701Y91694D01*
X76621Y91694D01*
X77216Y92289D01*
X77216Y105950D01*
X78081Y105950D01*
X80740Y108609D01*
X80740Y112371D01*
X78081Y115030D01*
X77216Y115030D01*
X77216Y125000D01*
X78081Y125000D01*
X80740Y127659D01*
X80740Y131421D01*
X78081Y134080D01*
X77216Y134080D01*
X77216Y144050D01*
X78081Y144050D01*
X80740Y146709D01*
X80740Y150471D01*
X78081Y153130D01*
X77216Y153130D01*
X77216Y169450D01*
X78081Y169450D01*
X80740Y172109D01*
X80740Y175871D01*
X78081Y178530D01*
X77216Y178530D01*
X77216Y184571D01*
X76621Y185166D01*
X51509Y185166D01*
X44995Y191680D01*
X45094Y191778D01*
X45094Y191778D01*
X45954Y192639D01*
X45625Y192968D01*
X45696Y193233D01*
X45696Y194027D01*
X45491Y194794D01*
X45094Y195482D01*
X43241Y197334D01*
X43676Y197334D01*
X43676Y197649D01*
X43641Y197826D01*
X47391Y194076D01*
X51444Y198128D01*
X51841Y198816D01*
X52046Y199583D01*
X52046Y200377D01*
X51841Y201144D01*
X51654Y201467D01*
X52024Y201836D01*
X52912Y203166D01*
X53524Y204643D01*
X53836Y206211D01*
X53836Y206526D01*
X46750Y206526D01*
X46204Y207071D01*
X46204Y207494D01*
X53836Y207494D01*
X53836Y207809D01*
X53524Y209377D01*
X52912Y210854D01*
X52024Y212184D01*
X50894Y213314D01*
X49564Y214202D01*
X48087Y214814D01*
X46519Y215126D01*
X46216Y215126D01*
X46216Y215429D01*
X45904Y216997D01*
X45292Y218474D01*
X44404Y219804D01*
X43274Y220934D01*
X41944Y221822D01*
X40467Y222434D01*
X38899Y222746D01*
X38584Y222746D01*
X38584Y215114D01*
X38161Y215114D01*
X37616Y215660D01*
X37616Y222746D01*
X37301Y222746D01*
X35733Y222434D01*
X34256Y221822D01*
X32926Y220934D01*
X32557Y220564D01*
X32234Y220751D01*
X31467Y220956D01*
X30673Y220956D01*
X29906Y220751D01*
X29218Y220354D01*
X25166Y216301D01*
X28916Y212551D01*
X28739Y212586D01*
X28424Y212586D01*
X28424Y212151D01*
X26572Y214004D01*
X25884Y214401D01*
X25117Y214606D01*
X24323Y214606D01*
X24058Y214535D01*
X23729Y214864D01*
X22868Y214004D01*
X22868Y214004D01*
X22770Y213905D01*
X5281Y231394D01*
X25821Y231394D01*
X26416Y231989D01*
X26416Y239554D01*
X42415Y239554D01*
X83055Y280194D01*
X164006Y280194D01*
X163364Y279233D01*
X94339Y102941D02*
X94339Y95609D01*
X93621Y95609D01*
X93621Y102941D01*
X93222Y102941D01*
X91737Y102645D01*
X90337Y102066D01*
X89077Y101224D01*
X88006Y100153D01*
X87164Y98893D01*
X86585Y97493D01*
X86289Y96008D01*
X86289Y95609D01*
X93621Y95609D01*
X93621Y94891D01*
X86289Y94891D01*
X86289Y94492D01*
X86585Y93007D01*
X87164Y91607D01*
X88006Y90347D01*
X89077Y89276D01*
X90337Y88434D01*
X91737Y87855D01*
X93222Y87559D01*
X93621Y87559D01*
X93621Y94891D01*
X94339Y94891D01*
X94339Y87559D01*
X94738Y87559D01*
X96223Y87855D01*
X97623Y88434D01*
X98883Y89276D01*
X99954Y90347D01*
X100796Y91607D01*
X101375Y93007D01*
X101671Y94492D01*
X101671Y94891D01*
X94339Y94891D01*
X94339Y95609D01*
X101671Y95609D01*
X101671Y96008D01*
X101375Y97493D01*
X100796Y98893D01*
X99954Y100153D01*
X98883Y101224D01*
X97623Y102066D01*
X96223Y102645D01*
X94738Y102941D01*
X94339Y102941D01*
X62589Y216259D02*
X62589Y223591D01*
X62589Y216259D02*
X61871Y216259D01*
X61871Y223591D01*
X61472Y223591D01*
X59987Y223295D01*
X58587Y222716D01*
X57327Y221874D01*
X56256Y220803D01*
X55414Y219543D01*
X54835Y218143D01*
X54539Y216658D01*
X54539Y216259D01*
X61871Y216259D01*
X61871Y215541D01*
X54539Y215541D01*
X54539Y215142D01*
X54835Y213657D01*
X55414Y212257D01*
X56256Y210997D01*
X57327Y209926D01*
X58587Y209084D01*
X59987Y208505D01*
X61472Y208209D01*
X61871Y208209D01*
X61871Y215541D01*
X62589Y215541D01*
X62589Y208209D01*
X62988Y208209D01*
X64473Y208505D01*
X65873Y209084D01*
X67133Y209926D01*
X68204Y210997D01*
X69046Y212257D01*
X69625Y213657D01*
X69921Y215142D01*
X69921Y215541D01*
X62589Y215541D01*
X62589Y216259D01*
X69921Y216259D01*
X69921Y216658D01*
X69625Y218143D01*
X69046Y219543D01*
X68204Y220803D01*
X67133Y221874D01*
X65873Y222716D01*
X64473Y223295D01*
X62988Y223591D01*
X62589Y223591D01*
X75289Y73731D02*
X75289Y66399D01*
X74571Y66399D01*
X74571Y73731D01*
X74172Y73731D01*
X72687Y73435D01*
X71287Y72856D01*
X70027Y72014D01*
X68956Y70943D01*
X68114Y69683D01*
X67535Y68283D01*
X67239Y66798D01*
X67239Y66399D01*
X74571Y66399D01*
X74571Y65681D01*
X67239Y65681D01*
X67239Y65282D01*
X67535Y63797D01*
X68114Y62397D01*
X68956Y61137D01*
X70027Y60066D01*
X71287Y59224D01*
X72687Y58645D01*
X74172Y58349D01*
X74571Y58349D01*
X74571Y65681D01*
X75289Y65681D01*
X75289Y58349D01*
X75688Y58349D01*
X77173Y58645D01*
X78573Y59224D01*
X79833Y60066D01*
X80904Y61137D01*
X81746Y62397D01*
X82325Y63797D01*
X82621Y65282D01*
X82621Y65681D01*
X75289Y65681D01*
X75289Y66399D01*
X82621Y66399D01*
X82621Y66798D01*
X82325Y68283D01*
X81746Y69683D01*
X80904Y70943D01*
X79833Y72014D01*
X78573Y72856D01*
X77173Y73435D01*
X75688Y73731D01*
X75289Y73731D01*
X89259Y48331D02*
X89259Y40999D01*
X88541Y40999D01*
X88541Y48331D01*
X88142Y48331D01*
X86657Y48035D01*
X85257Y47456D01*
X83997Y46614D01*
X82926Y45543D01*
X82084Y44283D01*
X81505Y42883D01*
X81209Y41398D01*
X81209Y40999D01*
X88541Y40999D01*
X88541Y40281D01*
X81209Y40281D01*
X81209Y39882D01*
X81505Y38397D01*
X82084Y36997D01*
X82926Y35737D01*
X83997Y34666D01*
X85257Y33824D01*
X86657Y33245D01*
X88142Y32949D01*
X88541Y32949D01*
X88541Y40281D01*
X89259Y40281D01*
X89259Y32949D01*
X89658Y32949D01*
X91143Y33245D01*
X92543Y33824D01*
X93803Y34666D01*
X94874Y35737D01*
X95716Y36997D01*
X96295Y38397D01*
X96591Y39882D01*
X96591Y40281D01*
X89259Y40281D01*
X89259Y40999D01*
X96591Y40999D01*
X96591Y41398D01*
X96295Y42883D01*
X95716Y44283D01*
X94874Y45543D01*
X93803Y46614D01*
X92543Y47456D01*
X91143Y48035D01*
X89658Y48331D01*
X89259Y48331D01*
X63859Y193399D02*
X63859Y200731D01*
X63859Y193399D02*
X63141Y193399D01*
X63141Y200731D01*
X62742Y200731D01*
X61257Y200435D01*
X59857Y199856D01*
X58597Y199014D01*
X57526Y197943D01*
X56684Y196683D01*
X56105Y195283D01*
X55809Y193798D01*
X55809Y193399D01*
X63141Y193399D01*
X63141Y192681D01*
X55809Y192681D01*
X55809Y192282D01*
X56105Y190797D01*
X56684Y189397D01*
X57526Y188137D01*
X58597Y187066D01*
X59857Y186224D01*
X61257Y185645D01*
X62742Y185349D01*
X63141Y185349D01*
X63141Y192681D01*
X63859Y192681D01*
X63859Y185349D01*
X64258Y185349D01*
X65743Y185645D01*
X67143Y186224D01*
X68403Y187066D01*
X69474Y188137D01*
X70316Y189397D01*
X70895Y190797D01*
X71191Y192282D01*
X71191Y192681D01*
X63859Y192681D01*
X63859Y193399D01*
X71191Y193399D01*
X71191Y193798D01*
X70895Y195283D01*
X70316Y196683D01*
X69474Y197943D01*
X68403Y199014D01*
X67143Y199856D01*
X65743Y200435D01*
X64258Y200731D01*
X63859Y200731D01*
X169821Y275949D02*
X170539Y275949D01*
X169821Y275949D02*
X169821Y280194D01*
X170539Y280194D01*
X170539Y275949D01*
X862257Y278067D02*
X862740Y279235D01*
X862257Y278067D02*
X862010Y276828D01*
X862010Y276196D01*
X868426Y276196D01*
X868426Y276196D01*
X862010Y276196D01*
X862010Y275564D01*
X862257Y274325D01*
X862740Y273157D01*
X863442Y272106D01*
X864336Y271212D01*
X864675Y270986D01*
X176354Y270986D01*
X176996Y271947D01*
X177575Y273347D01*
X177871Y274832D01*
X177871Y275231D01*
X170539Y275231D01*
X170539Y275949D01*
X177871Y275949D01*
X177871Y276348D01*
X177575Y277833D01*
X176996Y279233D01*
X176354Y280194D01*
X863381Y280194D01*
X862740Y279235D01*
X868426Y276196D02*
X868426Y276196D01*
X868426Y280194D01*
X868426Y280194D01*
X868426Y276196D01*
X910771Y278321D02*
X911254Y279489D01*
X910771Y278321D02*
X910524Y277082D01*
X910524Y276450D01*
X916940Y276450D01*
X916940Y276450D01*
X910524Y276450D01*
X910524Y275818D01*
X910771Y274579D01*
X911254Y273411D01*
X911956Y272360D01*
X912662Y271655D01*
X911048Y270986D01*
X872177Y270986D01*
X872516Y271212D01*
X873410Y272106D01*
X874112Y273157D01*
X874595Y274325D01*
X874842Y275564D01*
X874842Y276196D01*
X868426Y276196D01*
X868426Y276196D01*
X874842Y276196D01*
X874842Y276828D01*
X874595Y278067D01*
X874112Y279235D01*
X873471Y280194D01*
X911725Y280194D01*
X911254Y279489D01*
X1086724Y260709D02*
X1086724Y260026D01*
X1086738Y259991D01*
X1079859Y259991D01*
X1079859Y260709D01*
X1086724Y260709D01*
X1102756Y237814D02*
X1102756Y234626D01*
X1102756Y237814D02*
X1101536Y240761D01*
X1099281Y243016D01*
X1096334Y244236D01*
X1093146Y244236D01*
X1090199Y243016D01*
X1087944Y240761D01*
X1086724Y237814D01*
X1086724Y234626D01*
X1087944Y231679D01*
X1090199Y229424D01*
X1091654Y228822D01*
X1072280Y228822D01*
X1062120Y238982D01*
X998620Y238982D01*
X984472Y253130D01*
X982110Y255492D01*
X211690Y255492D01*
X197720Y241522D01*
X187090Y241522D01*
X175482Y253130D01*
X173120Y255492D01*
X113900Y255492D01*
X111538Y253130D01*
X109934Y251526D01*
X107944Y251526D01*
X105586Y250549D01*
X103781Y248744D01*
X102804Y246386D01*
X102804Y243834D01*
X103781Y241476D01*
X105586Y239671D01*
X107944Y238694D01*
X110496Y238694D01*
X112854Y239671D01*
X114659Y241476D01*
X115636Y243834D01*
X115636Y245824D01*
X117240Y247428D01*
X125324Y247428D01*
X124101Y246204D01*
X123124Y243846D01*
X123124Y241294D01*
X124101Y238936D01*
X125906Y237131D01*
X128264Y236154D01*
X130816Y236154D01*
X133174Y237131D01*
X134979Y238936D01*
X135956Y241294D01*
X135956Y242348D01*
X144402Y242348D01*
X143444Y240036D01*
X143444Y237484D01*
X144421Y235126D01*
X146226Y233321D01*
X148584Y232344D01*
X151136Y232344D01*
X153494Y233321D01*
X154902Y234728D01*
X167240Y234728D01*
X176308Y225660D01*
X178670Y223298D01*
X206140Y223298D01*
X208502Y225660D01*
X220110Y237268D01*
X853946Y237268D01*
X853621Y236481D01*
X853374Y235242D01*
X853374Y234610D01*
X859790Y234610D01*
X859790Y234610D01*
X853374Y234610D01*
X853374Y233978D01*
X853621Y232739D01*
X854104Y231571D01*
X854806Y230520D01*
X855700Y229626D01*
X856751Y228924D01*
X857919Y228441D01*
X859158Y228194D01*
X859790Y228194D01*
X859790Y234610D01*
X859790Y234610D01*
X859790Y228194D01*
X860422Y228194D01*
X861661Y228441D01*
X862829Y228924D01*
X863880Y229626D01*
X864774Y230520D01*
X865476Y231571D01*
X865959Y232739D01*
X866206Y233978D01*
X866206Y234610D01*
X859790Y234610D01*
X859790Y234610D01*
X866206Y234610D01*
X866206Y235242D01*
X865959Y236481D01*
X865634Y237268D01*
X976230Y237268D01*
X990378Y223120D01*
X990378Y223120D01*
X992740Y220758D01*
X1052430Y220758D01*
X1062590Y210598D01*
X1176420Y210598D01*
X1190741Y224919D01*
X1194275Y225704D01*
X1198432Y225704D01*
X1202297Y227305D01*
X1202530Y227539D01*
X1202655Y227566D01*
X1202824Y227833D01*
X1205255Y230263D01*
X1206856Y234128D01*
X1206856Y238312D01*
X1205255Y242177D01*
X1203052Y244380D01*
X1210921Y244380D01*
X1211224Y244684D01*
X1211224Y227471D01*
X1212991Y225704D01*
X1230489Y225704D01*
X1232256Y227471D01*
X1232256Y244969D01*
X1230489Y246736D01*
X1213276Y246736D01*
X1213580Y247039D01*
X1216790Y250250D01*
X1220208Y251104D01*
X1223832Y251104D01*
X1227697Y252705D01*
X1230655Y255663D01*
X1232256Y259528D01*
X1232256Y263712D01*
X1230655Y267577D01*
X1227697Y270535D01*
X1223832Y272136D01*
X1219648Y272136D01*
X1215783Y270535D01*
X1212825Y267577D01*
X1211224Y263712D01*
X1211224Y260088D01*
X1210370Y256670D01*
X1207159Y253460D01*
X1203052Y253460D01*
X1205255Y255663D01*
X1206856Y259528D01*
X1206856Y263712D01*
X1205255Y267577D01*
X1202297Y270535D01*
X1198432Y272136D01*
X1194248Y272136D01*
X1190383Y270535D01*
X1187425Y267577D01*
X1185824Y263712D01*
X1185824Y259528D01*
X1187425Y255663D01*
X1189628Y253460D01*
X1177600Y253460D01*
X1177791Y253599D01*
X1178961Y254769D01*
X1179934Y256108D01*
X1180686Y257583D01*
X1181197Y259157D01*
X1181426Y260604D01*
X1171956Y260604D01*
X1171956Y262636D01*
X1181426Y262636D01*
X1181197Y264083D01*
X1180686Y265657D01*
X1179934Y267132D01*
X1178961Y268471D01*
X1177791Y269641D01*
X1176452Y270614D01*
X1174977Y271366D01*
X1173403Y271877D01*
X1171956Y272106D01*
X1171956Y262636D01*
X1169924Y262636D01*
X1169924Y272106D01*
X1168477Y271877D01*
X1166903Y271366D01*
X1165428Y270614D01*
X1164089Y269641D01*
X1162919Y268471D01*
X1161946Y267132D01*
X1161194Y265657D01*
X1160683Y264083D01*
X1160454Y262636D01*
X1169924Y262636D01*
X1169924Y260604D01*
X1160454Y260604D01*
X1160683Y259157D01*
X1161194Y257583D01*
X1161946Y256108D01*
X1162919Y254769D01*
X1164089Y253599D01*
X1164280Y253460D01*
X1126852Y253460D01*
X1129055Y255663D01*
X1130656Y259528D01*
X1130656Y263712D01*
X1129055Y267577D01*
X1126097Y270535D01*
X1122232Y272136D01*
X1120729Y272136D01*
X1115858Y273760D01*
X1115536Y274081D01*
X1114266Y275351D01*
X1111011Y278606D01*
X1066141Y278606D01*
X1065138Y279609D01*
X1065596Y280716D01*
X1065596Y283268D01*
X1064619Y285626D01*
X1062814Y287431D01*
X1060456Y288408D01*
X1057904Y288408D01*
X1055546Y287431D01*
X1053741Y285626D01*
X1052764Y283268D01*
X1052764Y280716D01*
X1053222Y279609D01*
X1052219Y278606D01*
X990839Y278606D01*
X983219Y270986D01*
X920311Y270986D01*
X921030Y271466D01*
X921924Y272360D01*
X922626Y273411D01*
X923109Y274579D01*
X923356Y275818D01*
X923356Y276450D01*
X916940Y276450D01*
X916940Y276450D01*
X923356Y276450D01*
X923356Y277082D01*
X923109Y278321D01*
X922626Y279489D01*
X922155Y280194D01*
X945645Y280194D01*
X946084Y279755D01*
X946084Y278124D01*
X947061Y275766D01*
X948866Y273961D01*
X951224Y272984D01*
X953776Y272984D01*
X956134Y273961D01*
X957939Y275766D01*
X958850Y277965D01*
X959761Y275766D01*
X961566Y273961D01*
X963924Y272984D01*
X966476Y272984D01*
X968834Y273961D01*
X970639Y275766D01*
X971616Y278124D01*
X971616Y280676D01*
X970639Y283034D01*
X968834Y284839D01*
X966476Y285816D01*
X964845Y285816D01*
X958056Y292605D01*
X958056Y292605D01*
X957767Y292894D01*
X1233191Y292894D01*
X1233964Y292121D01*
X1233964Y210799D01*
X1233191Y210026D01*
X956040Y210026D01*
X956214Y210200D01*
X956916Y211251D01*
X957399Y212419D01*
X957646Y213658D01*
X957646Y214290D01*
X951230Y214290D01*
X951230Y214290D01*
X957646Y214290D01*
X957646Y214922D01*
X957399Y216161D01*
X956916Y217329D01*
X956214Y218380D01*
X955320Y219274D01*
X954269Y219976D01*
X953101Y220459D01*
X951862Y220706D01*
X951230Y220706D01*
X951230Y214290D01*
X951230Y214290D01*
X951230Y220706D01*
X950598Y220706D01*
X949359Y220459D01*
X948191Y219976D01*
X947140Y219274D01*
X946246Y218380D01*
X945544Y217329D01*
X945061Y216161D01*
X944814Y214922D01*
X944814Y214290D01*
X951230Y214290D01*
X951230Y214290D01*
X944814Y214290D01*
X944814Y213658D01*
X945061Y212419D01*
X945544Y211251D01*
X946246Y210200D01*
X946420Y210026D01*
X227351Y210026D01*
X225584Y208259D01*
X217964Y200639D01*
X217964Y10139D01*
X212111Y4286D01*
X84836Y4286D01*
X84836Y9684D01*
X100091Y9684D01*
X110251Y19844D01*
X110251Y19844D01*
X113506Y23099D01*
X113506Y103901D01*
X110251Y107156D01*
X98266Y119141D01*
X98266Y249159D01*
X108981Y259874D01*
X911048Y259874D01*
X913124Y259014D01*
X915676Y259014D01*
X917752Y259874D01*
X987821Y259874D01*
X991076Y263129D01*
X995441Y267494D01*
X1007875Y267494D01*
X1008788Y266581D01*
X1008021Y265814D01*
X1007044Y263456D01*
X1007044Y260904D01*
X1008021Y258546D01*
X1009821Y256745D01*
X1009370Y256444D01*
X1008476Y255550D01*
X1007774Y254499D01*
X1007291Y253331D01*
X1007044Y252092D01*
X1007044Y251460D01*
X1013460Y251460D01*
X1013460Y251460D01*
X1007044Y251460D01*
X1007044Y250828D01*
X1007291Y249589D01*
X1007774Y248421D01*
X1008476Y247370D01*
X1009370Y246476D01*
X1010421Y245774D01*
X1011589Y245291D01*
X1012828Y245044D01*
X1013460Y245044D01*
X1013460Y251460D01*
X1013460Y251460D01*
X1013460Y245044D01*
X1014092Y245044D01*
X1015331Y245291D01*
X1016499Y245774D01*
X1017550Y246476D01*
X1018444Y247370D01*
X1019146Y248421D01*
X1019629Y249589D01*
X1019876Y250828D01*
X1019876Y251460D01*
X1013460Y251460D01*
X1013460Y251460D01*
X1019876Y251460D01*
X1019876Y252092D01*
X1019629Y253331D01*
X1019146Y254499D01*
X1018444Y255550D01*
X1017550Y256444D01*
X1017099Y256745D01*
X1018899Y258546D01*
X1019876Y260904D01*
X1019876Y263456D01*
X1018899Y265814D01*
X1018132Y266581D01*
X1019045Y267494D01*
X1076650Y267494D01*
X1075857Y267166D01*
X1074597Y266324D01*
X1073526Y265253D01*
X1072684Y263993D01*
X1072105Y262593D01*
X1071809Y261108D01*
X1071809Y260709D01*
X1079141Y260709D01*
X1079141Y259991D01*
X1071809Y259991D01*
X1071809Y259592D01*
X1072105Y258107D01*
X1072684Y256707D01*
X1073526Y255447D01*
X1074597Y254376D01*
X1075857Y253534D01*
X1077257Y252955D01*
X1078742Y252659D01*
X1079141Y252659D01*
X1079141Y259991D01*
X1079859Y259991D01*
X1079859Y252659D01*
X1080258Y252659D01*
X1081743Y252955D01*
X1083143Y253534D01*
X1084403Y254376D01*
X1085474Y255447D01*
X1086316Y256707D01*
X1086895Y258107D01*
X1087098Y259123D01*
X1087944Y257079D01*
X1090199Y254824D01*
X1093146Y253604D01*
X1096334Y253604D01*
X1099281Y254824D01*
X1101536Y257079D01*
X1102756Y260026D01*
X1102756Y263214D01*
X1101536Y266161D01*
X1100202Y267494D01*
X1106409Y267494D01*
X1107069Y266834D01*
X1109624Y260446D01*
X1109624Y259528D01*
X1111225Y255663D01*
X1113428Y253460D01*
X1087525Y253460D01*
X1079495Y245430D01*
X1078224Y245430D01*
X1075866Y244453D01*
X1074061Y242648D01*
X1073084Y240290D01*
X1073084Y237738D01*
X1074061Y235380D01*
X1075866Y233575D01*
X1078224Y232598D01*
X1080776Y232598D01*
X1083134Y233575D01*
X1084939Y235380D01*
X1085916Y237738D01*
X1085916Y239009D01*
X1091287Y244380D01*
X1113428Y244380D01*
X1111225Y242177D01*
X1109624Y238312D01*
X1109624Y234128D01*
X1109700Y233945D01*
X1108879Y230661D01*
X1107040Y228822D01*
X1097826Y228822D01*
X1099281Y229424D01*
X1101536Y231679D01*
X1102756Y234626D01*
X1134977Y273409D02*
X1134977Y280741D01*
X1134977Y273409D02*
X1134259Y273409D01*
X1134259Y280741D01*
X1133860Y280741D01*
X1132375Y280445D01*
X1130975Y279866D01*
X1129715Y279024D01*
X1128644Y277953D01*
X1127802Y276693D01*
X1127223Y275293D01*
X1126927Y273808D01*
X1126927Y273409D01*
X1134259Y273409D01*
X1134259Y272691D01*
X1126927Y272691D01*
X1126927Y272292D01*
X1127223Y270807D01*
X1127802Y269407D01*
X1128644Y268147D01*
X1129715Y267076D01*
X1130975Y266234D01*
X1132375Y265655D01*
X1133860Y265359D01*
X1134259Y265359D01*
X1134259Y272691D01*
X1134977Y272691D01*
X1134977Y265359D01*
X1135376Y265359D01*
X1136861Y265655D01*
X1138261Y266234D01*
X1139521Y267076D01*
X1140592Y268147D01*
X1141434Y269407D01*
X1142013Y270807D01*
X1142309Y272292D01*
X1142309Y272691D01*
X1134977Y272691D01*
X1134977Y273409D01*
X1142309Y273409D01*
X1142309Y273808D01*
X1142013Y275293D01*
X1141434Y276693D01*
X1140592Y277953D01*
X1139521Y279024D01*
X1138261Y279866D01*
X1136861Y280445D01*
X1135376Y280741D01*
X1134977Y280741D01*
X1201779Y226131D02*
X1201779Y218799D01*
X1201061Y218799D01*
X1201061Y226131D01*
X1200662Y226131D01*
X1199177Y225835D01*
X1197777Y225256D01*
X1196517Y224414D01*
X1195446Y223343D01*
X1194604Y222083D01*
X1194025Y220683D01*
X1193729Y219198D01*
X1193729Y218799D01*
X1201061Y218799D01*
X1201061Y218081D01*
X1193729Y218081D01*
X1193729Y217682D01*
X1194025Y216197D01*
X1194604Y214797D01*
X1195446Y213537D01*
X1196517Y212466D01*
X1197777Y211624D01*
X1199177Y211045D01*
X1200662Y210749D01*
X1201061Y210749D01*
X1201061Y218081D01*
X1201779Y218081D01*
X1201779Y210749D01*
X1202178Y210749D01*
X1203663Y211045D01*
X1205063Y211624D01*
X1206323Y212466D01*
X1207394Y213537D01*
X1208236Y214797D01*
X1208815Y216197D01*
X1209111Y217682D01*
X1209111Y218081D01*
X1201779Y218081D01*
X1201779Y218799D01*
X1209111Y218799D01*
X1209111Y219198D01*
X1208815Y220683D01*
X1208236Y222083D01*
X1207394Y223343D01*
X1206323Y224414D01*
X1205063Y225256D01*
X1203663Y225835D01*
X1202178Y226131D01*
X1201779Y226131D01*
X1018540Y285750D02*
X1018540Y292166D01*
X1018540Y285750D02*
X1018540Y285750D01*
X1018540Y292166D01*
X1017908Y292166D01*
X1016669Y291919D01*
X1015501Y291436D01*
X1014450Y290734D01*
X1013556Y289840D01*
X1012854Y288789D01*
X1012371Y287621D01*
X1012124Y286382D01*
X1012124Y285750D01*
X1018540Y285750D01*
X1018540Y285750D01*
X1012124Y285750D01*
X1012124Y285118D01*
X1012371Y283879D01*
X1012854Y282711D01*
X1013556Y281660D01*
X1014450Y280766D01*
X1015501Y280064D01*
X1016669Y279581D01*
X1017908Y279334D01*
X1018540Y279334D01*
X1018540Y285750D01*
X1018540Y285750D01*
X1018540Y279334D01*
X1019172Y279334D01*
X1020411Y279581D01*
X1021579Y280064D01*
X1022630Y280766D01*
X1023524Y281660D01*
X1024226Y282711D01*
X1024709Y283879D01*
X1024956Y285118D01*
X1024956Y285750D01*
X1018540Y285750D01*
X1018540Y285750D01*
X1024956Y285750D01*
X1024956Y286382D01*
X1024709Y287621D01*
X1024226Y288789D01*
X1023524Y289840D01*
X1022630Y290734D01*
X1021579Y291436D01*
X1020411Y291919D01*
X1019172Y292166D01*
X1018540Y292166D01*
X122279Y73731D02*
X122279Y66399D01*
X121561Y66399D01*
X121561Y73731D01*
X121162Y73731D01*
X119677Y73435D01*
X118277Y72856D01*
X117017Y72014D01*
X115946Y70943D01*
X115104Y69683D01*
X114525Y68283D01*
X114229Y66798D01*
X114229Y66399D01*
X121561Y66399D01*
X121561Y65681D01*
X114229Y65681D01*
X114229Y65282D01*
X114525Y63797D01*
X115104Y62397D01*
X115946Y61137D01*
X117017Y60066D01*
X118277Y59224D01*
X119677Y58645D01*
X121162Y58349D01*
X121561Y58349D01*
X121561Y65681D01*
X122279Y65681D01*
X122279Y58349D01*
X122678Y58349D01*
X124163Y58645D01*
X125563Y59224D01*
X126823Y60066D01*
X127894Y61137D01*
X128736Y62397D01*
X129315Y63797D01*
X129611Y65282D01*
X129611Y65681D01*
X122279Y65681D01*
X122279Y66399D01*
X129611Y66399D01*
X129611Y66798D01*
X129315Y68283D01*
X128736Y69683D01*
X127894Y70943D01*
X126823Y72014D01*
X125563Y72856D01*
X124163Y73435D01*
X122678Y73731D01*
X122279Y73731D01*
X1153556Y260026D02*
X1153556Y263214D01*
X1152336Y266161D01*
X1150081Y268416D01*
X1147134Y269636D01*
X1143946Y269636D01*
X1140999Y268416D01*
X1138744Y266161D01*
X1137524Y263214D01*
X1137524Y260026D01*
X1138744Y257079D01*
X1140999Y254824D01*
X1143946Y253604D01*
X1147134Y253604D01*
X1150081Y254824D01*
X1152336Y257079D01*
X1153556Y260026D01*
X911860Y233406D02*
X911860Y226990D01*
X911860Y226990D01*
X911860Y233406D01*
X911228Y233406D01*
X909989Y233159D01*
X908821Y232676D01*
X907770Y231974D01*
X906876Y231080D01*
X906174Y230029D01*
X905691Y228861D01*
X905444Y227622D01*
X905444Y226990D01*
X911860Y226990D01*
X911860Y226990D01*
X905444Y226990D01*
X905444Y226358D01*
X905691Y225119D01*
X906174Y223951D01*
X906876Y222900D01*
X907770Y222006D01*
X908821Y221304D01*
X909989Y220821D01*
X911228Y220574D01*
X911860Y220574D01*
X911860Y226990D01*
X911860Y226990D01*
X911860Y220574D01*
X912492Y220574D01*
X913731Y220821D01*
X914899Y221304D01*
X915950Y222006D01*
X916844Y222900D01*
X917546Y223951D01*
X918029Y225119D01*
X918276Y226358D01*
X918276Y226990D01*
X911860Y226990D01*
X911860Y226990D01*
X918276Y226990D01*
X918276Y227622D01*
X918029Y228861D01*
X917546Y230029D01*
X916844Y231080D01*
X915950Y231974D01*
X914899Y232676D01*
X913731Y233159D01*
X912492Y233406D01*
X911860Y233406D01*
X122279Y48331D02*
X122279Y40999D01*
X121561Y40999D01*
X121561Y48331D01*
X121162Y48331D01*
X119677Y48035D01*
X118277Y47456D01*
X117017Y46614D01*
X115946Y45543D01*
X115104Y44283D01*
X114525Y42883D01*
X114229Y41398D01*
X114229Y40999D01*
X121561Y40999D01*
X121561Y40281D01*
X114229Y40281D01*
X114229Y39882D01*
X114525Y38397D01*
X115104Y36997D01*
X115946Y35737D01*
X117017Y34666D01*
X118277Y33824D01*
X119677Y33245D01*
X121162Y32949D01*
X121561Y32949D01*
X121561Y40281D01*
X122279Y40281D01*
X122279Y32949D01*
X122678Y32949D01*
X124163Y33245D01*
X125563Y33824D01*
X126823Y34666D01*
X127894Y35737D01*
X128736Y36997D01*
X129315Y38397D01*
X129611Y39882D01*
X129611Y40281D01*
X122279Y40281D01*
X122279Y40999D01*
X129611Y40999D01*
X129611Y41398D01*
X129315Y42883D01*
X128736Y44283D01*
X127894Y45543D01*
X126823Y46614D01*
X125563Y47456D01*
X124163Y48035D01*
X122678Y48331D01*
X122279Y48331D01*
X122279Y95609D02*
X122279Y102941D01*
X122279Y95609D02*
X121561Y95609D01*
X121561Y102941D01*
X121162Y102941D01*
X119677Y102645D01*
X118277Y102066D01*
X117017Y101224D01*
X115946Y100153D01*
X115104Y98893D01*
X114525Y97493D01*
X114229Y96008D01*
X114229Y95609D01*
X121561Y95609D01*
X121561Y94891D01*
X114229Y94891D01*
X114229Y94492D01*
X114525Y93007D01*
X115104Y91607D01*
X115946Y90347D01*
X117017Y89276D01*
X118277Y88434D01*
X119677Y87855D01*
X121162Y87559D01*
X121561Y87559D01*
X121561Y94891D01*
X122279Y94891D01*
X122279Y87559D01*
X122678Y87559D01*
X124163Y87855D01*
X125563Y88434D01*
X126823Y89276D01*
X127894Y90347D01*
X128736Y91607D01*
X129315Y93007D01*
X129611Y94492D01*
X129611Y94891D01*
X122279Y94891D01*
X122279Y95609D01*
X129611Y95609D01*
X129611Y96008D01*
X129315Y97493D01*
X128736Y98893D01*
X127894Y100153D01*
X126823Y101224D01*
X125563Y102066D01*
X124163Y102645D01*
X122678Y102941D01*
X122279Y102941D01*
X170539Y220069D02*
X170539Y227401D01*
X170539Y220069D02*
X169821Y220069D01*
X169821Y227401D01*
X169422Y227401D01*
X167937Y227105D01*
X166537Y226526D01*
X165277Y225684D01*
X164206Y224613D01*
X163364Y223353D01*
X162785Y221953D01*
X162489Y220468D01*
X162489Y220069D01*
X169821Y220069D01*
X169821Y219351D01*
X162489Y219351D01*
X162489Y218952D01*
X162785Y217467D01*
X163364Y216067D01*
X164206Y214807D01*
X165277Y213736D01*
X166537Y212894D01*
X167937Y212315D01*
X169422Y212019D01*
X169821Y212019D01*
X169821Y219351D01*
X170539Y219351D01*
X170539Y212019D01*
X170938Y212019D01*
X172423Y212315D01*
X173823Y212894D01*
X175083Y213736D01*
X176154Y214807D01*
X176996Y216067D01*
X177575Y217467D01*
X177871Y218952D01*
X177871Y219351D01*
X170539Y219351D01*
X170539Y220069D01*
X177871Y220069D01*
X177871Y220468D01*
X177575Y221953D01*
X176996Y223353D01*
X176154Y224613D01*
X175083Y225684D01*
X173823Y226526D01*
X172423Y227105D01*
X170938Y227401D01*
X170539Y227401D01*
X193399Y250549D02*
X193399Y257881D01*
X193399Y250549D02*
X192681Y250549D01*
X192681Y257881D01*
X192282Y257881D01*
X190797Y257585D01*
X189397Y257006D01*
X188137Y256164D01*
X187066Y255093D01*
X186224Y253833D01*
X185645Y252433D01*
X185349Y250948D01*
X185349Y250549D01*
X192681Y250549D01*
X192681Y249831D01*
X185349Y249831D01*
X185349Y249432D01*
X185645Y247947D01*
X186224Y246547D01*
X187066Y245287D01*
X188137Y244216D01*
X189397Y243374D01*
X190797Y242795D01*
X192282Y242499D01*
X192681Y242499D01*
X192681Y249831D01*
X193399Y249831D01*
X193399Y242499D01*
X193798Y242499D01*
X195283Y242795D01*
X196683Y243374D01*
X197943Y244216D01*
X199014Y245287D01*
X199856Y246547D01*
X200435Y247947D01*
X200731Y249432D01*
X200731Y249831D01*
X193399Y249831D01*
X193399Y250549D01*
X200731Y250549D01*
X200731Y250948D01*
X200435Y252433D01*
X199856Y253833D01*
X199014Y255093D01*
X197943Y256164D01*
X196683Y257006D01*
X195283Y257585D01*
X193798Y257881D01*
X193399Y257881D01*
X55384Y40156D02*
X53816Y40156D01*
X53816Y41124D01*
X63016Y41124D01*
X63016Y40156D01*
X55384Y40156D01*
X916940Y276450D02*
X916940Y276450D01*
X916940Y271322D01*
X916940Y271323D01*
X916940Y276450D01*
X1185824Y238312D02*
X1187425Y242177D01*
X1185824Y238312D02*
X1185824Y234128D01*
X1185900Y233945D01*
X1185079Y230661D01*
X1173080Y218662D01*
X1133684Y218662D01*
X1139590Y224568D01*
X1139941Y224919D01*
X1143475Y225704D01*
X1147632Y225704D01*
X1151497Y227305D01*
X1151730Y227539D01*
X1151855Y227566D01*
X1152024Y227833D01*
X1154455Y230263D01*
X1156056Y234128D01*
X1156056Y238312D01*
X1154455Y242177D01*
X1152252Y244380D01*
X1164280Y244380D01*
X1164089Y244241D01*
X1162919Y243071D01*
X1161946Y241732D01*
X1161194Y240257D01*
X1160683Y238683D01*
X1160454Y237236D01*
X1169924Y237236D01*
X1169924Y235204D01*
X1160454Y235204D01*
X1160683Y233757D01*
X1161194Y232183D01*
X1161946Y230708D01*
X1162919Y229369D01*
X1164089Y228199D01*
X1165428Y227226D01*
X1166903Y226474D01*
X1168477Y225963D01*
X1169924Y225734D01*
X1169924Y235204D01*
X1171956Y235204D01*
X1171956Y225734D01*
X1173403Y225963D01*
X1174977Y226474D01*
X1176452Y227226D01*
X1177791Y228199D01*
X1178961Y229369D01*
X1179934Y230708D01*
X1180686Y232183D01*
X1181197Y233757D01*
X1181426Y235204D01*
X1171956Y235204D01*
X1171956Y237236D01*
X1181426Y237236D01*
X1181197Y238683D01*
X1180686Y240257D01*
X1179934Y241732D01*
X1178961Y243071D01*
X1177791Y244241D01*
X1177600Y244380D01*
X1189628Y244380D01*
X1187425Y242177D01*
X215953Y8128D02*
X84836Y8128D01*
X106663Y16256D02*
X217964Y16256D01*
X99077Y24384D02*
X84836Y24384D01*
X113506Y24384D02*
X217964Y24384D01*
X102394Y32512D02*
X65956Y32512D01*
X113506Y32512D02*
X217964Y32512D01*
X63016Y40640D02*
X53816Y40640D01*
X63984Y40640D02*
X88541Y40640D01*
X89259Y40640D02*
X102394Y40640D01*
X113506Y40640D02*
X121561Y40640D01*
X122279Y40640D02*
X217964Y40640D01*
X102394Y48768D02*
X65956Y48768D01*
X113506Y48768D02*
X217964Y48768D01*
X102394Y56896D02*
X62431Y56896D01*
X113506Y56896D02*
X217964Y56896D01*
X67290Y65024D02*
X63976Y65024D01*
X74571Y65024D02*
X75289Y65024D01*
X82570Y65024D02*
X102394Y65024D01*
X113506Y65024D02*
X114280Y65024D01*
X121561Y65024D02*
X122279Y65024D01*
X129560Y65024D02*
X217964Y65024D01*
X72002Y73152D02*
X63976Y73152D01*
X74571Y73152D02*
X75289Y73152D01*
X77858Y73152D02*
X102394Y73152D01*
X113506Y73152D02*
X118992Y73152D01*
X121561Y73152D02*
X122279Y73152D01*
X124848Y73152D02*
X217964Y73152D01*
X102394Y81280D02*
X63976Y81280D01*
X113506Y81280D02*
X217964Y81280D01*
X88945Y89408D02*
X63976Y89408D01*
X93621Y89408D02*
X94339Y89408D01*
X99015Y89408D02*
X102394Y89408D01*
X113506Y89408D02*
X116885Y89408D01*
X121561Y89408D02*
X122279Y89408D01*
X126955Y89408D02*
X217964Y89408D01*
X86602Y97536D02*
X77216Y97536D01*
X93621Y97536D02*
X94339Y97536D01*
X101358Y97536D02*
X102394Y97536D01*
X113506Y97536D02*
X114542Y97536D01*
X121561Y97536D02*
X122279Y97536D01*
X129298Y97536D02*
X217964Y97536D01*
X96029Y105664D02*
X77216Y105664D01*
X111743Y105664D02*
X217964Y105664D01*
X87901Y113792D02*
X79319Y113792D01*
X103615Y113792D02*
X217964Y113792D01*
X87154Y121920D02*
X77216Y121920D01*
X98266Y121920D02*
X217964Y121920D01*
X87154Y130048D02*
X80740Y130048D01*
X98266Y130048D02*
X217964Y130048D01*
X87154Y138176D02*
X77216Y138176D01*
X98266Y138176D02*
X217964Y138176D01*
X87154Y146304D02*
X80335Y146304D01*
X98266Y146304D02*
X217964Y146304D01*
X87154Y154432D02*
X77216Y154432D01*
X98266Y154432D02*
X217964Y154432D01*
X87154Y162560D02*
X77216Y162560D01*
X98266Y162560D02*
X217964Y162560D01*
X87154Y170688D02*
X79319Y170688D01*
X98266Y170688D02*
X217964Y170688D01*
X87154Y178816D02*
X77216Y178816D01*
X98266Y178816D02*
X217964Y178816D01*
X58780Y186944D02*
X49731Y186944D01*
X63141Y186944D02*
X63859Y186944D01*
X68220Y186944D02*
X87154Y186944D01*
X98266Y186944D02*
X217964Y186944D01*
X46395Y195072D02*
X45330Y195072D01*
X48388Y195072D02*
X56063Y195072D01*
X63141Y195072D02*
X63859Y195072D01*
X70937Y195072D02*
X87154Y195072D01*
X98266Y195072D02*
X217964Y195072D01*
X87154Y203200D02*
X52927Y203200D01*
X98266Y203200D02*
X220525Y203200D01*
X56035Y211328D02*
X52596Y211328D01*
X61871Y211328D02*
X62589Y211328D01*
X68425Y211328D02*
X87154Y211328D01*
X98266Y211328D02*
X945512Y211328D01*
X956948Y211328D02*
X1061860Y211328D01*
X1177150Y211328D02*
X1198492Y211328D01*
X1201061Y211328D02*
X1201779Y211328D01*
X1204348Y211328D02*
X1233964Y211328D01*
X28320Y219456D02*
X17219Y219456D01*
X37616Y219456D02*
X38584Y219456D01*
X44636Y219456D02*
X55378Y219456D01*
X61871Y219456D02*
X62589Y219456D01*
X69082Y219456D02*
X87154Y219456D01*
X98266Y219456D02*
X169821Y219456D01*
X170539Y219456D02*
X947413Y219456D01*
X951230Y219456D02*
X951230Y219456D01*
X955047Y219456D02*
X1053732Y219456D01*
X1134478Y219456D02*
X1173874Y219456D01*
X1185278Y219456D02*
X1193780Y219456D01*
X1201061Y219456D02*
X1201779Y219456D01*
X1209060Y219456D02*
X1233964Y219456D01*
X87154Y227584D02*
X9091Y227584D01*
X98266Y227584D02*
X174384Y227584D01*
X210426Y227584D02*
X905444Y227584D01*
X911860Y227584D02*
X911860Y227584D01*
X918276Y227584D02*
X985914Y227584D01*
X1151866Y227584D02*
X1164936Y227584D01*
X1169924Y227584D02*
X1171956Y227584D01*
X1176944Y227584D02*
X1182002Y227584D01*
X1202666Y227584D02*
X1211224Y227584D01*
X1232256Y227584D02*
X1233964Y227584D01*
X87154Y235712D02*
X26416Y235712D01*
X98266Y235712D02*
X144178Y235712D01*
X218554Y235712D02*
X853468Y235712D01*
X866112Y235712D02*
X977786Y235712D01*
X1065390Y235712D02*
X1073923Y235712D01*
X1085077Y235712D02*
X1086724Y235712D01*
X1102756Y235712D02*
X1109624Y235712D01*
X1156056Y235712D02*
X1169924Y235712D01*
X1171956Y235712D02*
X1185824Y235712D01*
X1206856Y235712D02*
X1211224Y235712D01*
X1232256Y235712D02*
X1233964Y235712D01*
X87154Y243840D02*
X46701Y243840D01*
X98266Y243840D02*
X102804Y243840D01*
X115636Y243840D02*
X123124Y243840D01*
X184772Y243840D02*
X188700Y243840D01*
X192681Y243840D02*
X193399Y243840D01*
X197380Y243840D02*
X200038Y243840D01*
X993762Y243840D02*
X1075252Y243840D01*
X1090747Y243840D02*
X1092190Y243840D01*
X1097290Y243840D02*
X1112888Y243840D01*
X1152792Y243840D02*
X1163688Y243840D01*
X1178192Y243840D02*
X1189088Y243840D01*
X1203592Y243840D02*
X1211224Y243840D01*
X1232256Y243840D02*
X1233964Y243840D01*
X87154Y251968D02*
X54829Y251968D01*
X101075Y251968D02*
X110376Y251968D01*
X176644Y251968D02*
X185552Y251968D01*
X192681Y251968D02*
X193399Y251968D01*
X200528Y251968D02*
X208166Y251968D01*
X985634Y251968D02*
X1007044Y251968D01*
X1019876Y251968D02*
X1086033Y251968D01*
X1225918Y251968D02*
X1233964Y251968D01*
X93489Y260096D02*
X62957Y260096D01*
X988043Y260096D02*
X1007379Y260096D01*
X1019541Y260096D02*
X1079141Y260096D01*
X1079859Y260096D02*
X1086724Y260096D01*
X1102756Y260096D02*
X1109624Y260096D01*
X1130656Y260096D02*
X1137524Y260096D01*
X1153556Y260096D02*
X1160534Y260096D01*
X1181346Y260096D02*
X1185824Y260096D01*
X1206856Y260096D02*
X1211224Y260096D01*
X1232256Y260096D02*
X1233964Y260096D01*
X101617Y268224D02*
X71085Y268224D01*
X1128408Y268224D02*
X1128593Y268224D01*
X1134259Y268224D02*
X1134977Y268224D01*
X1140643Y268224D02*
X1140808Y268224D01*
X1150272Y268224D02*
X1162740Y268224D01*
X1169924Y268224D02*
X1171956Y268224D01*
X1179140Y268224D02*
X1188072Y268224D01*
X1204608Y268224D02*
X1213472Y268224D01*
X1230008Y268224D02*
X1233964Y268224D01*
X162490Y276352D02*
X79213Y276352D01*
X169821Y276352D02*
X170539Y276352D01*
X177870Y276352D02*
X862010Y276352D01*
X868426Y276352D02*
X868426Y276352D01*
X874842Y276352D02*
X910524Y276352D01*
X916940Y276352D02*
X916940Y276352D01*
X923356Y276352D02*
X946818Y276352D01*
X958182Y276352D02*
X959518Y276352D01*
X970882Y276352D02*
X988585Y276352D01*
X1113265Y276352D02*
X1127661Y276352D01*
X1134259Y276352D02*
X1134977Y276352D01*
X1141575Y276352D02*
X1233964Y276352D01*
X1012251Y284480D02*
X969194Y284480D01*
X1018540Y284480D02*
X1018540Y284480D01*
X1024829Y284480D02*
X1053266Y284480D01*
X1065094Y284480D02*
X1233964Y284480D01*
X1233477Y292608D02*
X958053Y292608D01*
X8128Y231394D02*
X8128Y228547D01*
X16256Y231394D02*
X16256Y220419D01*
X24384Y214606D02*
X24384Y231394D01*
X32512Y239554D02*
X32512Y220590D01*
X40640Y222363D02*
X40640Y239554D01*
X48768Y195452D02*
X48768Y187907D01*
X48768Y206526D02*
X48768Y207494D01*
X48768Y214532D02*
X48768Y245907D01*
X56896Y31274D02*
X56896Y27686D01*
X56896Y40156D02*
X56896Y41124D01*
X56896Y50006D02*
X56896Y51361D01*
X56896Y185166D02*
X56896Y189080D01*
X56896Y192681D02*
X56896Y193399D01*
X56896Y197000D02*
X56896Y210357D01*
X56896Y215541D02*
X56896Y216259D01*
X56896Y221443D02*
X56896Y254035D01*
X65024Y31687D02*
X65024Y27686D01*
X65024Y40156D02*
X65024Y41124D01*
X65024Y49593D02*
X65024Y91694D01*
X65024Y185166D02*
X65024Y185501D01*
X65024Y192681D02*
X65024Y193399D01*
X65024Y200579D02*
X65024Y208733D01*
X65024Y215541D02*
X65024Y216259D01*
X65024Y223067D02*
X65024Y262163D01*
X73152Y58552D02*
X73152Y27686D01*
X73152Y65681D02*
X73152Y66399D01*
X73152Y73528D02*
X73152Y91694D01*
X73152Y185166D02*
X73152Y270291D01*
X81280Y39526D02*
X81280Y27686D01*
X81280Y40281D02*
X81280Y40999D01*
X81280Y41754D02*
X81280Y61700D01*
X81280Y65681D02*
X81280Y66399D01*
X81280Y70380D02*
X81280Y278419D01*
X89408Y9684D02*
X89408Y4286D01*
X89408Y20796D02*
X89408Y32949D01*
X89408Y40281D02*
X89408Y40999D01*
X89408Y48331D02*
X89408Y89055D01*
X89408Y94891D02*
X89408Y95609D01*
X89408Y101445D02*
X89408Y112285D01*
X89408Y256015D02*
X89408Y280194D01*
X97536Y9684D02*
X97536Y4286D01*
X97536Y22843D02*
X97536Y88398D01*
X97536Y94891D02*
X97536Y95609D01*
X97536Y102102D02*
X97536Y104157D01*
X97536Y264143D02*
X97536Y280194D01*
X105664Y15257D02*
X105664Y4286D01*
X105664Y111743D02*
X105664Y239638D01*
X105664Y250582D02*
X105664Y256557D01*
X105664Y270986D02*
X105664Y280194D01*
X113792Y240608D02*
X113792Y4286D01*
X113792Y255384D02*
X113792Y259874D01*
X113792Y270986D02*
X113792Y280194D01*
X121920Y40281D02*
X121920Y4286D01*
X121920Y40999D02*
X121920Y65681D01*
X121920Y66399D02*
X121920Y94891D01*
X121920Y95609D02*
X121920Y247428D01*
X121920Y255492D02*
X121920Y259874D01*
X121920Y270986D02*
X121920Y280194D01*
X130048Y236154D02*
X130048Y4286D01*
X130048Y255492D02*
X130048Y259874D01*
X130048Y270986D02*
X130048Y280194D01*
X138176Y242348D02*
X138176Y4286D01*
X138176Y255492D02*
X138176Y259874D01*
X138176Y270986D02*
X138176Y280194D01*
X146304Y233288D02*
X146304Y4286D01*
X146304Y255492D02*
X146304Y259874D01*
X146304Y270986D02*
X146304Y280194D01*
X154432Y234258D02*
X154432Y4286D01*
X154432Y255492D02*
X154432Y259874D01*
X154432Y270986D02*
X154432Y280194D01*
X162560Y218596D02*
X162560Y4286D01*
X162560Y219351D02*
X162560Y220069D01*
X162560Y220824D02*
X162560Y234728D01*
X162560Y255492D02*
X162560Y259874D01*
X162560Y270986D02*
X162560Y274476D01*
X162560Y275231D02*
X162560Y275949D01*
X162560Y276704D02*
X162560Y280194D01*
X170688Y212019D02*
X170688Y4286D01*
X170688Y219351D02*
X170688Y220069D01*
X170688Y227401D02*
X170688Y231280D01*
X170688Y255492D02*
X170688Y259874D01*
X170688Y275231D02*
X170688Y275949D01*
X178816Y223298D02*
X178816Y4286D01*
X178816Y249796D02*
X178816Y259874D01*
X178816Y270986D02*
X178816Y280194D01*
X186944Y223298D02*
X186944Y4286D01*
X186944Y241668D02*
X186944Y245470D01*
X186944Y249831D02*
X186944Y250549D01*
X186944Y254910D02*
X186944Y259874D01*
X186944Y270986D02*
X186944Y280194D01*
X195072Y223298D02*
X195072Y4286D01*
X195072Y241522D02*
X195072Y242753D01*
X195072Y249831D02*
X195072Y250549D01*
X195072Y257627D02*
X195072Y259874D01*
X195072Y270986D02*
X195072Y280194D01*
X203200Y223298D02*
X203200Y4286D01*
X203200Y247002D02*
X203200Y259874D01*
X203200Y270986D02*
X203200Y280194D01*
X211328Y228486D02*
X211328Y4286D01*
X211328Y255130D02*
X211328Y259874D01*
X211328Y270986D02*
X211328Y280194D01*
X219456Y236614D02*
X219456Y202131D01*
X219456Y255492D02*
X219456Y259874D01*
X219456Y270986D02*
X219456Y280194D01*
X227584Y237268D02*
X227584Y210026D01*
X227584Y255492D02*
X227584Y259874D01*
X227584Y270986D02*
X227584Y280194D01*
X235712Y237268D02*
X235712Y210026D01*
X235712Y255492D02*
X235712Y259874D01*
X235712Y270986D02*
X235712Y280194D01*
X243840Y237268D02*
X243840Y210026D01*
X243840Y255492D02*
X243840Y259874D01*
X243840Y270986D02*
X243840Y280194D01*
X251968Y237268D02*
X251968Y210026D01*
X251968Y255492D02*
X251968Y259874D01*
X251968Y270986D02*
X251968Y280194D01*
X260096Y237268D02*
X260096Y210026D01*
X260096Y255492D02*
X260096Y259874D01*
X260096Y270986D02*
X260096Y280194D01*
X268224Y237268D02*
X268224Y210026D01*
X268224Y255492D02*
X268224Y259874D01*
X268224Y270986D02*
X268224Y280194D01*
X276352Y237268D02*
X276352Y210026D01*
X276352Y255492D02*
X276352Y259874D01*
X276352Y270986D02*
X276352Y280194D01*
X284480Y237268D02*
X284480Y210026D01*
X284480Y255492D02*
X284480Y259874D01*
X284480Y270986D02*
X284480Y280194D01*
X292608Y237268D02*
X292608Y210026D01*
X292608Y255492D02*
X292608Y259874D01*
X292608Y270986D02*
X292608Y280194D01*
X300736Y237268D02*
X300736Y210026D01*
X300736Y255492D02*
X300736Y259874D01*
X300736Y270986D02*
X300736Y280194D01*
X308864Y237268D02*
X308864Y210026D01*
X308864Y255492D02*
X308864Y259874D01*
X308864Y270986D02*
X308864Y280194D01*
X316992Y237268D02*
X316992Y210026D01*
X316992Y255492D02*
X316992Y259874D01*
X316992Y270986D02*
X316992Y280194D01*
X325120Y237268D02*
X325120Y210026D01*
X325120Y255492D02*
X325120Y259874D01*
X325120Y270986D02*
X325120Y280194D01*
X333248Y237268D02*
X333248Y210026D01*
X333248Y255492D02*
X333248Y259874D01*
X333248Y270986D02*
X333248Y280194D01*
X341376Y237268D02*
X341376Y210026D01*
X341376Y255492D02*
X341376Y259874D01*
X341376Y270986D02*
X341376Y280194D01*
X349504Y237268D02*
X349504Y210026D01*
X349504Y255492D02*
X349504Y259874D01*
X349504Y270986D02*
X349504Y280194D01*
X357632Y237268D02*
X357632Y210026D01*
X357632Y255492D02*
X357632Y259874D01*
X357632Y270986D02*
X357632Y280194D01*
X365760Y237268D02*
X365760Y210026D01*
X365760Y255492D02*
X365760Y259874D01*
X365760Y270986D02*
X365760Y280194D01*
X373888Y237268D02*
X373888Y210026D01*
X373888Y255492D02*
X373888Y259874D01*
X373888Y270986D02*
X373888Y280194D01*
X382016Y237268D02*
X382016Y210026D01*
X382016Y255492D02*
X382016Y259874D01*
X382016Y270986D02*
X382016Y280194D01*
X390144Y237268D02*
X390144Y210026D01*
X390144Y255492D02*
X390144Y259874D01*
X390144Y270986D02*
X390144Y280194D01*
X398272Y237268D02*
X398272Y210026D01*
X398272Y255492D02*
X398272Y259874D01*
X398272Y270986D02*
X398272Y280194D01*
X406400Y237268D02*
X406400Y210026D01*
X406400Y255492D02*
X406400Y259874D01*
X406400Y270986D02*
X406400Y280194D01*
X414528Y237268D02*
X414528Y210026D01*
X414528Y255492D02*
X414528Y259874D01*
X414528Y270986D02*
X414528Y280194D01*
X422656Y237268D02*
X422656Y210026D01*
X422656Y255492D02*
X422656Y259874D01*
X422656Y270986D02*
X422656Y280194D01*
X430784Y237268D02*
X430784Y210026D01*
X430784Y255492D02*
X430784Y259874D01*
X430784Y270986D02*
X430784Y280194D01*
X438912Y237268D02*
X438912Y210026D01*
X438912Y255492D02*
X438912Y259874D01*
X438912Y270986D02*
X438912Y280194D01*
X447040Y237268D02*
X447040Y210026D01*
X447040Y255492D02*
X447040Y259874D01*
X447040Y270986D02*
X447040Y280194D01*
X455168Y237268D02*
X455168Y210026D01*
X455168Y255492D02*
X455168Y259874D01*
X455168Y270986D02*
X455168Y280194D01*
X463296Y237268D02*
X463296Y210026D01*
X463296Y255492D02*
X463296Y259874D01*
X463296Y270986D02*
X463296Y280194D01*
X471424Y237268D02*
X471424Y210026D01*
X471424Y255492D02*
X471424Y259874D01*
X471424Y270986D02*
X471424Y280194D01*
X479552Y237268D02*
X479552Y210026D01*
X479552Y255492D02*
X479552Y259874D01*
X479552Y270986D02*
X479552Y280194D01*
X487680Y237268D02*
X487680Y210026D01*
X487680Y255492D02*
X487680Y259874D01*
X487680Y270986D02*
X487680Y280194D01*
X495808Y237268D02*
X495808Y210026D01*
X495808Y255492D02*
X495808Y259874D01*
X495808Y270986D02*
X495808Y280194D01*
X503936Y237268D02*
X503936Y210026D01*
X503936Y255492D02*
X503936Y259874D01*
X503936Y270986D02*
X503936Y280194D01*
X512064Y237268D02*
X512064Y210026D01*
X512064Y255492D02*
X512064Y259874D01*
X512064Y270986D02*
X512064Y280194D01*
X520192Y237268D02*
X520192Y210026D01*
X520192Y255492D02*
X520192Y259874D01*
X520192Y270986D02*
X520192Y280194D01*
X528320Y237268D02*
X528320Y210026D01*
X528320Y255492D02*
X528320Y259874D01*
X528320Y270986D02*
X528320Y280194D01*
X536448Y237268D02*
X536448Y210026D01*
X536448Y255492D02*
X536448Y259874D01*
X536448Y270986D02*
X536448Y280194D01*
X544576Y237268D02*
X544576Y210026D01*
X544576Y255492D02*
X544576Y259874D01*
X544576Y270986D02*
X544576Y280194D01*
X552704Y237268D02*
X552704Y210026D01*
X552704Y255492D02*
X552704Y259874D01*
X552704Y270986D02*
X552704Y280194D01*
X560832Y237268D02*
X560832Y210026D01*
X560832Y255492D02*
X560832Y259874D01*
X560832Y270986D02*
X560832Y280194D01*
X568960Y237268D02*
X568960Y210026D01*
X568960Y255492D02*
X568960Y259874D01*
X568960Y270986D02*
X568960Y280194D01*
X577088Y237268D02*
X577088Y210026D01*
X577088Y255492D02*
X577088Y259874D01*
X577088Y270986D02*
X577088Y280194D01*
X585216Y237268D02*
X585216Y210026D01*
X585216Y255492D02*
X585216Y259874D01*
X585216Y270986D02*
X585216Y280194D01*
X593344Y237268D02*
X593344Y210026D01*
X593344Y255492D02*
X593344Y259874D01*
X593344Y270986D02*
X593344Y280194D01*
X601472Y237268D02*
X601472Y210026D01*
X601472Y255492D02*
X601472Y259874D01*
X601472Y270986D02*
X601472Y280194D01*
X609600Y237268D02*
X609600Y210026D01*
X609600Y255492D02*
X609600Y259874D01*
X609600Y270986D02*
X609600Y280194D01*
X617728Y237268D02*
X617728Y210026D01*
X617728Y255492D02*
X617728Y259874D01*
X617728Y270986D02*
X617728Y280194D01*
X625856Y237268D02*
X625856Y210026D01*
X625856Y255492D02*
X625856Y259874D01*
X625856Y270986D02*
X625856Y280194D01*
X633984Y237268D02*
X633984Y210026D01*
X633984Y255492D02*
X633984Y259874D01*
X633984Y270986D02*
X633984Y280194D01*
X642112Y237268D02*
X642112Y210026D01*
X642112Y255492D02*
X642112Y259874D01*
X642112Y270986D02*
X642112Y280194D01*
X650240Y237268D02*
X650240Y210026D01*
X650240Y255492D02*
X650240Y259874D01*
X650240Y270986D02*
X650240Y280194D01*
X658368Y237268D02*
X658368Y210026D01*
X658368Y255492D02*
X658368Y259874D01*
X658368Y270986D02*
X658368Y280194D01*
X666496Y237268D02*
X666496Y210026D01*
X666496Y255492D02*
X666496Y259874D01*
X666496Y270986D02*
X666496Y280194D01*
X674624Y237268D02*
X674624Y210026D01*
X674624Y255492D02*
X674624Y259874D01*
X674624Y270986D02*
X674624Y280194D01*
X682752Y237268D02*
X682752Y210026D01*
X682752Y255492D02*
X682752Y259874D01*
X682752Y270986D02*
X682752Y280194D01*
X690880Y237268D02*
X690880Y210026D01*
X690880Y255492D02*
X690880Y259874D01*
X690880Y270986D02*
X690880Y280194D01*
X699008Y237268D02*
X699008Y210026D01*
X699008Y255492D02*
X699008Y259874D01*
X699008Y270986D02*
X699008Y280194D01*
X707136Y237268D02*
X707136Y210026D01*
X707136Y255492D02*
X707136Y259874D01*
X707136Y270986D02*
X707136Y280194D01*
X715264Y237268D02*
X715264Y210026D01*
X715264Y255492D02*
X715264Y259874D01*
X715264Y270986D02*
X715264Y280194D01*
X723392Y237268D02*
X723392Y210026D01*
X723392Y255492D02*
X723392Y259874D01*
X723392Y270986D02*
X723392Y280194D01*
X731520Y237268D02*
X731520Y210026D01*
X731520Y255492D02*
X731520Y259874D01*
X731520Y270986D02*
X731520Y280194D01*
X739648Y237268D02*
X739648Y210026D01*
X739648Y255492D02*
X739648Y259874D01*
X739648Y270986D02*
X739648Y280194D01*
X747776Y237268D02*
X747776Y210026D01*
X747776Y255492D02*
X747776Y259874D01*
X747776Y270986D02*
X747776Y280194D01*
X755904Y237268D02*
X755904Y210026D01*
X755904Y255492D02*
X755904Y259874D01*
X755904Y270986D02*
X755904Y280194D01*
X764032Y237268D02*
X764032Y210026D01*
X764032Y255492D02*
X764032Y259874D01*
X764032Y270986D02*
X764032Y280194D01*
X772160Y237268D02*
X772160Y210026D01*
X772160Y255492D02*
X772160Y259874D01*
X772160Y270986D02*
X772160Y280194D01*
X780288Y237268D02*
X780288Y210026D01*
X780288Y255492D02*
X780288Y259874D01*
X780288Y270986D02*
X780288Y280194D01*
X788416Y237268D02*
X788416Y210026D01*
X788416Y255492D02*
X788416Y259874D01*
X788416Y270986D02*
X788416Y280194D01*
X796544Y237268D02*
X796544Y210026D01*
X796544Y255492D02*
X796544Y259874D01*
X796544Y270986D02*
X796544Y280194D01*
X804672Y237268D02*
X804672Y210026D01*
X804672Y255492D02*
X804672Y259874D01*
X804672Y270986D02*
X804672Y280194D01*
X812800Y237268D02*
X812800Y210026D01*
X812800Y255492D02*
X812800Y259874D01*
X812800Y270986D02*
X812800Y280194D01*
X820928Y237268D02*
X820928Y210026D01*
X820928Y255492D02*
X820928Y259874D01*
X820928Y270986D02*
X820928Y280194D01*
X829056Y237268D02*
X829056Y210026D01*
X829056Y255492D02*
X829056Y259874D01*
X829056Y270986D02*
X829056Y280194D01*
X837184Y237268D02*
X837184Y210026D01*
X837184Y255492D02*
X837184Y259874D01*
X837184Y270986D02*
X837184Y280194D01*
X845312Y237268D02*
X845312Y210026D01*
X845312Y255492D02*
X845312Y259874D01*
X845312Y270986D02*
X845312Y280194D01*
X853440Y233646D02*
X853440Y210026D01*
X853440Y234610D02*
X853440Y234610D01*
X853440Y235574D02*
X853440Y237268D01*
X853440Y255492D02*
X853440Y259874D01*
X853440Y270986D02*
X853440Y280194D01*
X861568Y228422D02*
X861568Y210026D01*
X861568Y234610D02*
X861568Y234610D01*
X861568Y255492D02*
X861568Y259874D01*
X861568Y270986D02*
X861568Y280194D01*
X869696Y237268D02*
X869696Y210026D01*
X869696Y255492D02*
X869696Y259874D01*
X869696Y276196D02*
X869696Y276196D01*
X877824Y237268D02*
X877824Y210026D01*
X877824Y255492D02*
X877824Y259874D01*
X877824Y270986D02*
X877824Y280194D01*
X885952Y237268D02*
X885952Y210026D01*
X885952Y255492D02*
X885952Y259874D01*
X885952Y270986D02*
X885952Y280194D01*
X894080Y237268D02*
X894080Y210026D01*
X894080Y255492D02*
X894080Y259874D01*
X894080Y270986D02*
X894080Y280194D01*
X902208Y237268D02*
X902208Y210026D01*
X902208Y255492D02*
X902208Y259874D01*
X902208Y270986D02*
X902208Y280194D01*
X910336Y220751D02*
X910336Y210026D01*
X910336Y226990D02*
X910336Y226990D01*
X910336Y233229D02*
X910336Y237268D01*
X910336Y255492D02*
X910336Y259874D01*
X910336Y270986D02*
X910336Y280194D01*
X918464Y237268D02*
X918464Y210026D01*
X918464Y255492D02*
X918464Y259874D01*
X918464Y276450D02*
X918464Y276450D01*
X926592Y237268D02*
X926592Y210026D01*
X926592Y255492D02*
X926592Y259874D01*
X926592Y270986D02*
X926592Y280194D01*
X934720Y237268D02*
X934720Y210026D01*
X934720Y255492D02*
X934720Y259874D01*
X934720Y270986D02*
X934720Y280194D01*
X942848Y237268D02*
X942848Y210026D01*
X942848Y255492D02*
X942848Y259874D01*
X942848Y270986D02*
X942848Y280194D01*
X950976Y214290D02*
X950976Y214290D01*
X950976Y220706D02*
X950976Y237268D01*
X950976Y255492D02*
X950976Y259874D01*
X950976Y270986D02*
X950976Y273087D01*
X959104Y237268D02*
X959104Y210026D01*
X959104Y255492D02*
X959104Y259874D01*
X959104Y270986D02*
X959104Y277351D01*
X959104Y291557D02*
X959104Y292894D01*
X967232Y237268D02*
X967232Y210026D01*
X967232Y255492D02*
X967232Y259874D01*
X967232Y270986D02*
X967232Y273297D01*
X967232Y285503D02*
X967232Y292894D01*
X975360Y237268D02*
X975360Y210026D01*
X975360Y255492D02*
X975360Y259874D01*
X975360Y270986D02*
X975360Y292894D01*
X983488Y230010D02*
X983488Y210026D01*
X983488Y254114D02*
X983488Y259874D01*
X983488Y271255D02*
X983488Y292894D01*
X991616Y221882D02*
X991616Y210026D01*
X991616Y245986D02*
X991616Y263669D01*
X991616Y278606D02*
X991616Y292894D01*
X999744Y220758D02*
X999744Y210026D01*
X999744Y238982D02*
X999744Y267494D01*
X999744Y278606D02*
X999744Y292894D01*
X1007872Y220758D02*
X1007872Y210026D01*
X1007872Y238982D02*
X1007872Y248275D01*
X1007872Y251460D02*
X1007872Y251460D01*
X1007872Y254645D02*
X1007872Y258905D01*
X1007872Y265455D02*
X1007872Y267494D01*
X1007872Y278606D02*
X1007872Y292894D01*
X1016000Y220758D02*
X1016000Y210026D01*
X1016000Y238982D02*
X1016000Y245567D01*
X1016000Y251460D02*
X1016000Y251460D01*
X1016000Y278606D02*
X1016000Y279858D01*
X1016000Y285750D02*
X1016000Y285750D01*
X1016000Y291643D02*
X1016000Y292894D01*
X1024128Y220758D02*
X1024128Y210026D01*
X1024128Y238982D02*
X1024128Y267494D01*
X1024128Y278606D02*
X1024128Y282565D01*
X1024128Y285750D02*
X1024128Y285750D01*
X1024128Y288935D02*
X1024128Y292894D01*
X1032256Y220758D02*
X1032256Y210026D01*
X1032256Y238982D02*
X1032256Y267494D01*
X1032256Y278606D02*
X1032256Y292894D01*
X1040384Y220758D02*
X1040384Y210026D01*
X1040384Y238982D02*
X1040384Y267494D01*
X1040384Y278606D02*
X1040384Y292894D01*
X1048512Y220758D02*
X1048512Y210026D01*
X1048512Y238982D02*
X1048512Y267494D01*
X1048512Y278606D02*
X1048512Y292894D01*
X1056640Y216548D02*
X1056640Y210026D01*
X1056640Y238982D02*
X1056640Y267494D01*
X1056640Y287885D02*
X1056640Y292894D01*
X1064768Y210598D02*
X1064768Y210026D01*
X1064768Y236334D02*
X1064768Y267494D01*
X1064768Y285267D02*
X1064768Y292894D01*
X1072896Y210598D02*
X1072896Y210026D01*
X1072896Y228822D02*
X1072896Y256390D01*
X1072896Y259991D02*
X1072896Y260709D01*
X1072896Y264310D02*
X1072896Y267494D01*
X1072896Y278606D02*
X1072896Y292894D01*
X1081024Y210598D02*
X1081024Y210026D01*
X1081024Y228822D02*
X1081024Y232701D01*
X1081024Y246959D02*
X1081024Y252811D01*
X1081024Y259991D02*
X1081024Y260709D01*
X1081024Y278606D02*
X1081024Y292894D01*
X1089152Y210598D02*
X1089152Y210026D01*
X1089152Y228822D02*
X1089152Y230472D01*
X1089152Y241968D02*
X1089152Y242245D01*
X1089152Y253460D02*
X1089152Y255872D01*
X1089152Y278606D02*
X1089152Y292894D01*
X1097280Y210598D02*
X1097280Y210026D01*
X1097280Y243844D02*
X1097280Y244380D01*
X1097280Y253460D02*
X1097280Y253996D01*
X1097280Y278606D02*
X1097280Y292894D01*
X1105408Y210598D02*
X1105408Y210026D01*
X1105408Y228822D02*
X1105408Y244380D01*
X1105408Y253460D02*
X1105408Y267494D01*
X1105408Y278606D02*
X1105408Y292894D01*
X1113536Y210598D02*
X1113536Y210026D01*
X1113536Y276081D02*
X1113536Y292894D01*
X1121664Y210598D02*
X1121664Y210026D01*
X1121664Y272136D02*
X1121664Y292894D01*
X1129792Y210598D02*
X1129792Y210026D01*
X1129792Y253460D02*
X1129792Y257442D01*
X1129792Y265798D02*
X1129792Y267025D01*
X1129792Y272691D02*
X1129792Y273409D01*
X1129792Y279075D02*
X1129792Y292894D01*
X1137920Y210598D02*
X1137920Y210026D01*
X1137920Y218662D02*
X1137920Y222898D01*
X1137920Y253460D02*
X1137920Y259069D01*
X1137920Y264171D02*
X1137920Y266093D01*
X1137920Y272691D02*
X1137920Y273409D01*
X1137920Y280007D02*
X1137920Y292894D01*
X1146048Y210598D02*
X1146048Y210026D01*
X1146048Y218662D02*
X1146048Y225704D01*
X1146048Y253460D02*
X1146048Y253604D01*
X1146048Y269636D02*
X1146048Y292894D01*
X1154176Y210598D02*
X1154176Y210026D01*
X1154176Y218662D02*
X1154176Y229984D01*
X1154176Y242456D02*
X1154176Y244380D01*
X1154176Y253460D02*
X1154176Y292894D01*
X1162304Y210598D02*
X1162304Y210026D01*
X1162304Y218662D02*
X1162304Y230216D01*
X1162304Y235204D02*
X1162304Y237236D01*
X1162304Y242224D02*
X1162304Y244380D01*
X1162304Y253460D02*
X1162304Y255616D01*
X1162304Y260604D02*
X1162304Y262636D01*
X1162304Y267624D02*
X1162304Y292894D01*
X1170432Y210598D02*
X1170432Y210026D01*
X1170432Y218662D02*
X1170432Y235204D01*
X1170432Y262636D02*
X1170432Y292894D01*
X1178560Y212738D02*
X1178560Y210026D01*
X1178560Y224142D02*
X1178560Y228968D01*
X1178560Y235204D02*
X1178560Y237236D01*
X1178560Y243472D02*
X1178560Y244380D01*
X1178560Y253460D02*
X1178560Y254368D01*
X1178560Y260604D02*
X1178560Y262636D01*
X1178560Y268872D02*
X1178560Y292894D01*
X1186688Y220866D02*
X1186688Y210026D01*
X1186688Y240398D02*
X1186688Y244380D01*
X1186688Y253460D02*
X1186688Y257442D01*
X1186688Y265798D02*
X1186688Y292894D01*
X1194816Y214480D02*
X1194816Y210026D01*
X1194816Y218081D02*
X1194816Y218799D01*
X1194816Y222400D02*
X1194816Y225704D01*
X1194816Y272136D02*
X1194816Y292894D01*
X1202944Y210901D02*
X1202944Y210026D01*
X1202944Y218081D02*
X1202944Y218799D01*
X1202944Y225979D02*
X1202944Y227952D01*
X1202944Y269888D02*
X1202944Y292894D01*
X1211072Y244531D02*
X1211072Y210026D01*
X1211072Y259480D02*
X1211072Y292894D01*
X1219200Y225704D02*
X1219200Y210026D01*
X1219200Y246736D02*
X1219200Y250852D01*
X1219200Y271950D02*
X1219200Y292894D01*
X1227328Y225704D02*
X1227328Y210026D01*
X1227328Y246736D02*
X1227328Y252552D01*
X1227328Y270688D02*
X1227328Y292894D01*
D19*
X93980Y95250D03*
X121920Y40640D03*
X121920Y66040D03*
X121920Y95250D03*
D22*
X868426Y276196D03*
X859790Y234610D03*
X951230Y214290D03*
X1013460Y251460D03*
X1018540Y285750D03*
D18*
X916940Y279908D02*
X911860Y279908D01*
X916940Y279908D02*
X922020Y279908D01*
X917702Y271272D02*
X927862Y271272D01*
X916686Y272288D02*
X914146Y272288D01*
X916686Y272288D02*
X917702Y271272D01*
X913638Y272288D02*
X912114Y272288D01*
X911098Y271272D01*
X916940Y276450D02*
X916940Y279908D01*
X916940Y276450D02*
X916940Y272542D01*
X916686Y272288D01*
X868426Y279908D02*
X863346Y279908D01*
X868426Y279908D02*
X874014Y279908D01*
X868680Y271272D02*
X863346Y271272D01*
X868680Y271272D02*
X874014Y271272D01*
X868426Y276196D02*
X868426Y279908D01*
X868426Y276196D02*
X868426Y271526D01*
X868680Y271272D01*
D19*
X170180Y219710D03*
X170180Y275590D03*
X193040Y250190D03*
D21*
X170180Y280162D02*
X163322Y280162D01*
X170180Y280162D02*
X177546Y280162D01*
X170180Y271018D02*
X163322Y271018D01*
X170180Y271018D02*
X177546Y271018D01*
X170180Y275590D02*
X170180Y280162D01*
X170180Y275590D02*
X170180Y271018D01*
D19*
X1201420Y218440D03*
X1079500Y260350D03*
X1134618Y273050D03*
D16*
X1079500Y264446D02*
X1079500Y260350D01*
X1079500Y264446D02*
X1076960Y266986D01*
X1079500Y260350D02*
X1084946Y260350D01*
X1086216Y259080D01*
X954986Y210534D02*
X951230Y214290D01*
X954986Y210534D02*
X955802Y210534D01*
X951230Y214290D02*
X947474Y210534D01*
X944626Y210534D01*
D15*
X50800Y110490D03*
X63500Y110490D03*
D16*
X50800Y110490D02*
X76200Y110490D01*
D15*
X50800Y173990D03*
X63500Y173990D03*
D16*
X50800Y173990D02*
X76200Y173990D01*
D15*
X50800Y148590D03*
X63500Y148590D03*
D16*
X50800Y148590D02*
X76200Y148590D01*
D15*
X50800Y129540D03*
X63500Y129540D03*
D16*
X50800Y129540D02*
X76200Y129540D01*
D15*
X50800Y15240D03*
X63500Y15240D03*
D20*
X50800Y15240D01*
D23*
X1013460Y273050D02*
X1018540Y273050D01*
X1013460Y273050D02*
X1008380Y273050D01*
D22*
X1013460Y262180D03*
D18*
X1013460Y267970D02*
X1013460Y273050D01*
X1013460Y267970D02*
X1008380Y273050D01*
X1013460Y267970D02*
X1013460Y262180D01*
X1013460Y267970D02*
X1018540Y273050D01*
D23*
X97790Y15240D02*
X63500Y15240D01*
X97790Y15240D02*
X107950Y25400D01*
X1111250Y270510D02*
X1120140Y261620D01*
X1111250Y270510D02*
X1109980Y271780D01*
X1108710Y273050D01*
X1068070Y273050D01*
X1066800Y273050D01*
X1065276Y273050D01*
X1057910Y273050D01*
X1053084Y273050D01*
X1018540Y273050D01*
D16*
X1109980Y271780D02*
X1115060Y259080D01*
X1122680Y266700D02*
X1111250Y270510D01*
D22*
X914400Y265430D03*
D23*
X106680Y265430D01*
X993140Y273050D02*
X1008380Y273050D01*
X993140Y273050D02*
X985520Y265430D01*
X914400Y265430D01*
D22*
X1059180Y281992D03*
D16*
X1067435Y273685D02*
X1066800Y273050D01*
X1067435Y273685D02*
X1068070Y273050D01*
D23*
X106680Y265430D02*
X92710Y251460D01*
X92710Y116840D01*
X107950Y101600D01*
X107950Y25400D01*
D16*
X1059180Y274320D02*
X1059180Y281992D01*
X1059180Y274320D02*
X1057910Y273050D01*
X1059180Y279146D02*
X1065276Y273050D01*
X1059180Y279146D02*
X1059180Y281992D01*
X1059180Y279146D02*
X1053084Y273050D01*
D21*
X1188720Y228600D02*
X1196340Y236220D01*
X1188720Y228600D02*
X1174750Y214630D01*
X994410Y224790D02*
X977900Y241300D01*
D22*
X149860Y238760D03*
D21*
X1064260Y214630D02*
X1174750Y214630D01*
X977900Y241300D02*
X218440Y241300D01*
X168910Y238760D02*
X149860Y238760D01*
X994410Y224790D02*
X1054100Y224790D01*
X1064260Y214630D01*
X180340Y227330D02*
X168910Y238760D01*
X204470Y227330D02*
X218440Y241300D01*
X204470Y227330D02*
X180340Y227330D01*
X1188720Y228600D02*
X1191260Y238760D01*
X1188720Y228600D02*
X1200150Y231140D01*
X0Y281940D02*
X-3620Y278320D01*
D15*
X0Y281940D03*
D16*
X25400Y281940D01*
D15*
X12700Y281940D03*
D22*
X129540Y242570D03*
D21*
X133350Y246380D01*
X1129030Y219710D02*
X1137920Y228600D01*
X1145540Y236220D01*
X168910Y246380D02*
X133350Y246380D01*
X215900Y246380D02*
X979170Y246380D01*
X995680Y229870D01*
X1068070Y219710D02*
X1129030Y219710D01*
X1057910Y229870D02*
X995680Y229870D01*
X1057910Y229870D02*
X1068070Y219710D01*
X182880Y232410D02*
X168910Y246380D01*
X201930Y232410D02*
X215900Y246380D01*
X201930Y232410D02*
X182880Y232410D01*
X1137920Y228600D02*
X1140460Y238760D01*
X1137920Y228600D02*
X1149350Y231140D01*
D16*
X1214120Y254000D02*
X1221740Y261620D01*
X1214120Y254000D02*
X1209040Y248920D01*
X1089406Y248920D01*
X1079500Y239014D01*
D18*
X1214120Y254000D02*
X1224280Y256540D01*
X1214120Y254000D02*
X1216660Y264160D01*
D22*
X1079500Y239014D03*
D15*
X0Y262890D03*
D22*
X965200Y279400D03*
D18*
X953770Y290830D01*
X78740Y290830D02*
X50800Y262890D01*
X0Y262890D01*
X78740Y290830D02*
X953770Y290830D01*
D15*
X0Y243840D03*
D22*
X952500Y279400D03*
D18*
X947420Y284480D01*
X40640Y243840D02*
X0Y243840D01*
X81280Y284480D02*
X947420Y284480D01*
X81280Y284480D02*
X40640Y243840D01*
D15*
X12700Y262890D03*
X12700Y243840D03*
D21*
X1112520Y228600D02*
X1120140Y236220D01*
X1112520Y228600D02*
X1108710Y224790D01*
X1070610Y224790D01*
X996950Y234950D02*
X980440Y251460D01*
X115570Y251460D02*
X109220Y245110D01*
D22*
X109220Y245110D03*
D21*
X213360Y251460D02*
X980440Y251460D01*
X996950Y234950D02*
X1060450Y234950D01*
X1070610Y224790D01*
X185420Y237490D02*
X171450Y251460D01*
X185420Y237490D02*
X199390Y237490D01*
X213360Y251460D01*
X171450Y251460D02*
X115570Y251460D01*
X1112520Y228600D02*
X1115060Y238760D01*
X1112520Y228600D02*
X1123950Y231140D01*
M02*
