M48
;GenerationSoftware,Autodesk,EAGLE,9.6.2*%
;CreationDate,2022-07-13T20:55:59Z*%
FMAT,2
ICI,OFF
METRIC,TZ,000.000
T4C0.400
T3C0.550
T2C0.600
T1C1.000
%
G90
M71
T1
X109474Y26162
X122174Y23622
X109474Y23622
X114554Y23622
X112014Y26162
X117094Y26162
X117094Y23622
X119634Y26162
X112014Y23622
X119634Y23622
X122174Y26162
X114554Y26162
T2
X5080Y4064
X6350Y4064
X4572Y20701
X3556Y19685
X6350Y12954
X5080Y1524
X6350Y1524
X0Y28194
X3810Y21463
X1270Y28194
X0Y26289
X1270Y26289
X1270Y24384
X0Y24384
X6350Y14859
X5080Y11049
X6350Y11049
X5080Y17399
X6350Y17399
X5080Y14859
X2794Y20447
X5080Y12954
T3
X7493Y6604
X8890Y4064
X6223Y21590
X6350Y19304
X9398Y9525
X12192Y4064
X12192Y6604
X113462Y27305
X107950Y26035
X19304Y25019
X17018Y27559
X120142Y21844
X17018Y21971
X12192Y9525
T4
X91694Y27645
X91186Y22699
X12954Y24257
X107950Y23901
X105918Y28199
X96520Y27940
X95250Y27940
X14986Y23876
X101346Y26218
X10922Y24511
X101854Y28575
X101346Y25146
X95123Y21429
X85979Y23461
X86843Y27620
X91440Y26543
M30