G04 EAGLE Gerber RS-274X export*
G75*
%MOMM*%
%FSLAX34Y34*%
%LPD*%
%INseide unten*%
%IPPOS*%
%AMOC8*
5,1,8,0,0,1.08239X$1,22.5*%
G01*
%ADD10C,0.203200*%
%ADD11C,0.000000*%
%ADD12C,0.127000*%
%ADD13C,0.152400*%
%ADD14C,0.101600*%


D10*
X259334Y83566D02*
X259334Y94243D01*
X252216Y83566D01*
X252216Y94243D01*
X244081Y92464D02*
X240522Y94243D01*
X244081Y92464D02*
X247640Y88905D01*
X247640Y85346D01*
X245861Y83566D01*
X242301Y83566D01*
X240522Y85346D01*
X240522Y87125D01*
X242301Y88905D01*
X247640Y88905D01*
X230608Y94243D02*
X230608Y83566D01*
X235946Y88905D02*
X230608Y94243D01*
X228828Y88905D02*
X235946Y88905D01*
X224252Y90684D02*
X224252Y83566D01*
X224252Y90684D02*
X220693Y94243D01*
X217134Y90684D01*
X217134Y83566D01*
X217134Y88905D02*
X224252Y88905D01*
X205440Y94243D02*
X205440Y83566D01*
X210779Y83566D01*
X212558Y85346D01*
X212558Y88905D01*
X210779Y90684D01*
X205440Y90684D01*
X200864Y90684D02*
X197305Y83566D01*
X193746Y90684D01*
X189170Y85346D02*
X189170Y83566D01*
X189170Y85346D02*
X187391Y85346D01*
X187391Y83566D01*
X189170Y83566D01*
X259334Y75193D02*
X259334Y64516D01*
X259334Y75193D02*
X252216Y75193D01*
X255775Y69855D02*
X259334Y69855D01*
X247640Y71634D02*
X245861Y71634D01*
X245861Y64516D01*
X247640Y64516D02*
X244081Y64516D01*
X245861Y75193D02*
X245861Y76973D01*
X239844Y75193D02*
X238065Y75193D01*
X238065Y64516D01*
X239844Y64516D02*
X236285Y64516D01*
X230269Y66296D02*
X230269Y73414D01*
X230269Y66296D02*
X228489Y64516D01*
X228489Y71634D02*
X232048Y71634D01*
X222473Y64516D02*
X218914Y64516D01*
X222473Y64516D02*
X224252Y66296D01*
X224252Y69855D01*
X222473Y71634D01*
X218914Y71634D01*
X217134Y69855D01*
X217134Y68075D01*
X224252Y68075D01*
X212558Y64516D02*
X212558Y71634D01*
X212558Y68075D02*
X208999Y71634D01*
X207220Y71634D01*
X259334Y52584D02*
X259334Y45466D01*
X259334Y52584D02*
X255775Y56143D01*
X252216Y52584D01*
X252216Y45466D01*
X252216Y50805D02*
X259334Y50805D01*
X240522Y56143D02*
X240522Y45466D01*
X245861Y45466D01*
X247640Y47246D01*
X247640Y50805D01*
X245861Y52584D01*
X240522Y52584D01*
X228828Y56143D02*
X228828Y45466D01*
X234167Y45466D01*
X235946Y47246D01*
X235946Y50805D01*
X234167Y52584D01*
X228828Y52584D01*
X224252Y50805D02*
X217134Y50805D01*
X210779Y56143D02*
X207220Y56143D01*
X210779Y56143D02*
X212558Y54364D01*
X212558Y47246D01*
X210779Y45466D01*
X207220Y45466D01*
X205440Y47246D01*
X205440Y54364D01*
X207220Y56143D01*
X200864Y52584D02*
X200864Y45466D01*
X200864Y52584D02*
X195526Y52584D01*
X193746Y50805D01*
X193746Y45466D01*
X259334Y37093D02*
X259334Y29975D01*
X255775Y26416D01*
X252216Y29975D01*
X252216Y37093D01*
X247640Y33534D02*
X244081Y37093D01*
X244081Y26416D01*
X247640Y26416D02*
X240522Y26416D01*
X235946Y26416D02*
X235946Y28196D01*
X234167Y28196D01*
X234167Y26416D01*
X235946Y26416D01*
X230099Y33534D02*
X226540Y37093D01*
X226540Y26416D01*
X230099Y26416D02*
X222981Y26416D01*
D11*
X70200Y200100D02*
X70208Y200714D01*
X70230Y201327D01*
X70268Y201939D01*
X70320Y202550D01*
X70388Y203160D01*
X70471Y203768D01*
X70568Y204374D01*
X70680Y204977D01*
X70807Y205578D01*
X70949Y206175D01*
X71106Y206768D01*
X71276Y207357D01*
X71462Y207942D01*
X71661Y208522D01*
X71875Y209097D01*
X72103Y209667D01*
X72345Y210231D01*
X72600Y210789D01*
X72869Y211340D01*
X73152Y211885D01*
X73448Y212422D01*
X73757Y212953D01*
X74079Y213475D01*
X74413Y213989D01*
X74760Y214495D01*
X75120Y214992D01*
X75491Y215481D01*
X75875Y215960D01*
X76270Y216429D01*
X76676Y216889D01*
X77094Y217339D01*
X77522Y217778D01*
X77961Y218206D01*
X78411Y218624D01*
X78871Y219030D01*
X79340Y219425D01*
X79819Y219809D01*
X80308Y220180D01*
X80805Y220540D01*
X81311Y220887D01*
X81825Y221221D01*
X82347Y221543D01*
X82878Y221852D01*
X83415Y222148D01*
X83960Y222431D01*
X84511Y222700D01*
X85069Y222955D01*
X85633Y223197D01*
X86203Y223425D01*
X86778Y223639D01*
X87358Y223838D01*
X87943Y224024D01*
X88532Y224194D01*
X89125Y224351D01*
X89722Y224493D01*
X90323Y224620D01*
X90926Y224732D01*
X91532Y224829D01*
X92140Y224912D01*
X92750Y224980D01*
X93361Y225032D01*
X93973Y225070D01*
X94586Y225092D01*
X95200Y225100D01*
X95814Y225092D01*
X96427Y225070D01*
X97039Y225032D01*
X97650Y224980D01*
X98260Y224912D01*
X98868Y224829D01*
X99474Y224732D01*
X100077Y224620D01*
X100678Y224493D01*
X101275Y224351D01*
X101868Y224194D01*
X102457Y224024D01*
X103042Y223838D01*
X103622Y223639D01*
X104197Y223425D01*
X104767Y223197D01*
X105331Y222955D01*
X105889Y222700D01*
X106440Y222431D01*
X106985Y222148D01*
X107522Y221852D01*
X108053Y221543D01*
X108575Y221221D01*
X109089Y220887D01*
X109595Y220540D01*
X110092Y220180D01*
X110581Y219809D01*
X111060Y219425D01*
X111529Y219030D01*
X111989Y218624D01*
X112439Y218206D01*
X112878Y217778D01*
X113306Y217339D01*
X113724Y216889D01*
X114130Y216429D01*
X114525Y215960D01*
X114909Y215481D01*
X115280Y214992D01*
X115640Y214495D01*
X115987Y213989D01*
X116321Y213475D01*
X116643Y212953D01*
X116952Y212422D01*
X117248Y211885D01*
X117531Y211340D01*
X117800Y210789D01*
X118055Y210231D01*
X118297Y209667D01*
X118525Y209097D01*
X118739Y208522D01*
X118938Y207942D01*
X119124Y207357D01*
X119294Y206768D01*
X119451Y206175D01*
X119593Y205578D01*
X119720Y204977D01*
X119832Y204374D01*
X119929Y203768D01*
X120012Y203160D01*
X120080Y202550D01*
X120132Y201939D01*
X120170Y201327D01*
X120192Y200714D01*
X120200Y200100D01*
X120192Y199486D01*
X120170Y198873D01*
X120132Y198261D01*
X120080Y197650D01*
X120012Y197040D01*
X119929Y196432D01*
X119832Y195826D01*
X119720Y195223D01*
X119593Y194622D01*
X119451Y194025D01*
X119294Y193432D01*
X119124Y192843D01*
X118938Y192258D01*
X118739Y191678D01*
X118525Y191103D01*
X118297Y190533D01*
X118055Y189969D01*
X117800Y189411D01*
X117531Y188860D01*
X117248Y188315D01*
X116952Y187778D01*
X116643Y187247D01*
X116321Y186725D01*
X115987Y186211D01*
X115640Y185705D01*
X115280Y185208D01*
X114909Y184719D01*
X114525Y184240D01*
X114130Y183771D01*
X113724Y183311D01*
X113306Y182861D01*
X112878Y182422D01*
X112439Y181994D01*
X111989Y181576D01*
X111529Y181170D01*
X111060Y180775D01*
X110581Y180391D01*
X110092Y180020D01*
X109595Y179660D01*
X109089Y179313D01*
X108575Y178979D01*
X108053Y178657D01*
X107522Y178348D01*
X106985Y178052D01*
X106440Y177769D01*
X105889Y177500D01*
X105331Y177245D01*
X104767Y177003D01*
X104197Y176775D01*
X103622Y176561D01*
X103042Y176362D01*
X102457Y176176D01*
X101868Y176006D01*
X101275Y175849D01*
X100678Y175707D01*
X100077Y175580D01*
X99474Y175468D01*
X98868Y175371D01*
X98260Y175288D01*
X97650Y175220D01*
X97039Y175168D01*
X96427Y175130D01*
X95814Y175108D01*
X95200Y175100D01*
X94586Y175108D01*
X93973Y175130D01*
X93361Y175168D01*
X92750Y175220D01*
X92140Y175288D01*
X91532Y175371D01*
X90926Y175468D01*
X90323Y175580D01*
X89722Y175707D01*
X89125Y175849D01*
X88532Y176006D01*
X87943Y176176D01*
X87358Y176362D01*
X86778Y176561D01*
X86203Y176775D01*
X85633Y177003D01*
X85069Y177245D01*
X84511Y177500D01*
X83960Y177769D01*
X83415Y178052D01*
X82878Y178348D01*
X82347Y178657D01*
X81825Y178979D01*
X81311Y179313D01*
X80805Y179660D01*
X80308Y180020D01*
X79819Y180391D01*
X79340Y180775D01*
X78871Y181170D01*
X78411Y181576D01*
X77961Y181994D01*
X77522Y182422D01*
X77094Y182861D01*
X76676Y183311D01*
X76270Y183771D01*
X75875Y184240D01*
X75491Y184719D01*
X75120Y185208D01*
X74760Y185705D01*
X74413Y186211D01*
X74079Y186725D01*
X73757Y187247D01*
X73448Y187778D01*
X73152Y188315D01*
X72869Y188860D01*
X72600Y189411D01*
X72345Y189969D01*
X72103Y190533D01*
X71875Y191103D01*
X71661Y191678D01*
X71462Y192258D01*
X71276Y192843D01*
X71106Y193432D01*
X70949Y194025D01*
X70807Y194622D01*
X70680Y195223D01*
X70568Y195826D01*
X70471Y196432D01*
X70388Y197040D01*
X70320Y197650D01*
X70268Y198261D01*
X70230Y198873D01*
X70208Y199486D01*
X70200Y200100D01*
X144780Y114300D02*
X148590Y110490D01*
X148590Y12700D01*
X152400Y8890D01*
X267970Y8890D01*
X270510Y11430D01*
X270510Y171450D01*
X228600Y213360D01*
X5080Y205740D02*
X2540Y203200D01*
X2540Y118110D01*
X6350Y114300D01*
X144780Y114300D01*
D12*
X88779Y145415D02*
X81915Y145415D01*
X88779Y145415D02*
X88779Y148847D01*
X87635Y149991D01*
X85347Y149991D01*
X84203Y148847D01*
X84203Y145415D01*
X84203Y147703D02*
X81915Y149991D01*
X81915Y152899D02*
X88779Y152899D01*
X81915Y157475D01*
X88779Y157475D01*
X86491Y160383D02*
X88779Y162671D01*
X81915Y162671D01*
X81915Y160383D02*
X81915Y164959D01*
D13*
X42418Y140215D02*
X42418Y131572D01*
X42418Y140215D02*
X38096Y140215D01*
X36656Y138775D01*
X36656Y135894D01*
X38096Y134453D01*
X42418Y134453D01*
X39537Y134453D02*
X36656Y131572D01*
X36656Y155285D02*
X38096Y156725D01*
X40977Y156725D01*
X42418Y155285D01*
X42418Y149523D01*
X40977Y148082D01*
X38096Y148082D01*
X36656Y149523D01*
X36656Y152404D01*
X39537Y152404D01*
X42418Y172212D02*
X42418Y180855D01*
X38096Y180855D01*
X36656Y179415D01*
X36656Y177974D01*
X38096Y176534D01*
X36656Y175093D01*
X36656Y173653D01*
X38096Y172212D01*
X42418Y172212D01*
X42418Y176534D02*
X38096Y176534D01*
D11*
X101600Y213360D02*
X228600Y213360D01*
X101600Y213360D02*
X93980Y205740D01*
X5080Y205740D01*
D13*
X45546Y201175D02*
X51308Y201175D01*
X51308Y196854D01*
X48427Y198294D01*
X46986Y198294D01*
X45546Y196854D01*
X45546Y193973D01*
X46986Y192532D01*
X49867Y192532D01*
X51308Y193973D01*
X41953Y195413D02*
X41953Y201175D01*
X41953Y195413D02*
X39072Y192532D01*
X36191Y195413D01*
X36191Y201175D01*
D14*
X56000Y161550D02*
X71000Y161550D01*
X71000Y130550D02*
X56000Y130550D01*
D11*
X141050Y139700D02*
X141052Y139841D01*
X141058Y139982D01*
X141068Y140122D01*
X141082Y140262D01*
X141100Y140402D01*
X141121Y140541D01*
X141147Y140680D01*
X141176Y140818D01*
X141210Y140954D01*
X141247Y141090D01*
X141288Y141225D01*
X141333Y141359D01*
X141382Y141491D01*
X141434Y141622D01*
X141490Y141751D01*
X141550Y141878D01*
X141613Y142004D01*
X141679Y142128D01*
X141750Y142251D01*
X141823Y142371D01*
X141900Y142489D01*
X141980Y142605D01*
X142064Y142718D01*
X142150Y142829D01*
X142240Y142938D01*
X142333Y143044D01*
X142428Y143147D01*
X142527Y143248D01*
X142628Y143346D01*
X142732Y143441D01*
X142839Y143533D01*
X142948Y143622D01*
X143060Y143707D01*
X143174Y143790D01*
X143290Y143870D01*
X143409Y143946D01*
X143530Y144018D01*
X143652Y144088D01*
X143777Y144153D01*
X143903Y144216D01*
X144031Y144274D01*
X144161Y144329D01*
X144292Y144381D01*
X144425Y144428D01*
X144559Y144472D01*
X144694Y144513D01*
X144830Y144549D01*
X144967Y144581D01*
X145105Y144610D01*
X145243Y144635D01*
X145383Y144655D01*
X145523Y144672D01*
X145663Y144685D01*
X145804Y144694D01*
X145944Y144699D01*
X146085Y144700D01*
X146226Y144697D01*
X146367Y144690D01*
X146507Y144679D01*
X146647Y144664D01*
X146787Y144645D01*
X146926Y144623D01*
X147064Y144596D01*
X147202Y144566D01*
X147338Y144531D01*
X147474Y144493D01*
X147608Y144451D01*
X147742Y144405D01*
X147874Y144356D01*
X148004Y144302D01*
X148133Y144245D01*
X148260Y144185D01*
X148386Y144121D01*
X148509Y144053D01*
X148631Y143982D01*
X148751Y143908D01*
X148868Y143830D01*
X148983Y143749D01*
X149096Y143665D01*
X149207Y143578D01*
X149315Y143487D01*
X149420Y143394D01*
X149523Y143297D01*
X149623Y143198D01*
X149720Y143096D01*
X149814Y142991D01*
X149905Y142884D01*
X149993Y142774D01*
X150078Y142662D01*
X150160Y142547D01*
X150239Y142430D01*
X150314Y142311D01*
X150386Y142190D01*
X150454Y142067D01*
X150519Y141942D01*
X150581Y141815D01*
X150638Y141686D01*
X150693Y141556D01*
X150743Y141425D01*
X150790Y141292D01*
X150833Y141158D01*
X150872Y141022D01*
X150907Y140886D01*
X150939Y140749D01*
X150966Y140611D01*
X150990Y140472D01*
X151010Y140332D01*
X151026Y140192D01*
X151038Y140052D01*
X151046Y139911D01*
X151050Y139770D01*
X151050Y139630D01*
X151046Y139489D01*
X151038Y139348D01*
X151026Y139208D01*
X151010Y139068D01*
X150990Y138928D01*
X150966Y138789D01*
X150939Y138651D01*
X150907Y138514D01*
X150872Y138378D01*
X150833Y138242D01*
X150790Y138108D01*
X150743Y137975D01*
X150693Y137844D01*
X150638Y137714D01*
X150581Y137585D01*
X150519Y137458D01*
X150454Y137333D01*
X150386Y137210D01*
X150314Y137089D01*
X150239Y136970D01*
X150160Y136853D01*
X150078Y136738D01*
X149993Y136626D01*
X149905Y136516D01*
X149814Y136409D01*
X149720Y136304D01*
X149623Y136202D01*
X149523Y136103D01*
X149420Y136006D01*
X149315Y135913D01*
X149207Y135822D01*
X149096Y135735D01*
X148983Y135651D01*
X148868Y135570D01*
X148751Y135492D01*
X148631Y135418D01*
X148509Y135347D01*
X148386Y135279D01*
X148260Y135215D01*
X148133Y135155D01*
X148004Y135098D01*
X147874Y135044D01*
X147742Y134995D01*
X147608Y134949D01*
X147474Y134907D01*
X147338Y134869D01*
X147202Y134834D01*
X147064Y134804D01*
X146926Y134777D01*
X146787Y134755D01*
X146647Y134736D01*
X146507Y134721D01*
X146367Y134710D01*
X146226Y134703D01*
X146085Y134700D01*
X145944Y134701D01*
X145804Y134706D01*
X145663Y134715D01*
X145523Y134728D01*
X145383Y134745D01*
X145243Y134765D01*
X145105Y134790D01*
X144967Y134819D01*
X144830Y134851D01*
X144694Y134887D01*
X144559Y134928D01*
X144425Y134972D01*
X144292Y135019D01*
X144161Y135071D01*
X144031Y135126D01*
X143903Y135184D01*
X143777Y135247D01*
X143652Y135312D01*
X143530Y135382D01*
X143409Y135454D01*
X143290Y135530D01*
X143174Y135610D01*
X143060Y135693D01*
X142948Y135778D01*
X142839Y135867D01*
X142732Y135959D01*
X142628Y136054D01*
X142527Y136152D01*
X142428Y136253D01*
X142333Y136356D01*
X142240Y136462D01*
X142150Y136571D01*
X142064Y136682D01*
X141980Y136795D01*
X141900Y136911D01*
X141823Y137029D01*
X141750Y137149D01*
X141679Y137272D01*
X141613Y137396D01*
X141550Y137522D01*
X141490Y137649D01*
X141434Y137778D01*
X141382Y137909D01*
X141333Y138041D01*
X141288Y138175D01*
X141247Y138310D01*
X141210Y138446D01*
X141176Y138582D01*
X141147Y138720D01*
X141121Y138859D01*
X141100Y138998D01*
X141082Y139138D01*
X141068Y139278D01*
X141058Y139418D01*
X141052Y139559D01*
X141050Y139700D01*
X115650Y139700D02*
X115652Y139841D01*
X115658Y139982D01*
X115668Y140122D01*
X115682Y140262D01*
X115700Y140402D01*
X115721Y140541D01*
X115747Y140680D01*
X115776Y140818D01*
X115810Y140954D01*
X115847Y141090D01*
X115888Y141225D01*
X115933Y141359D01*
X115982Y141491D01*
X116034Y141622D01*
X116090Y141751D01*
X116150Y141878D01*
X116213Y142004D01*
X116279Y142128D01*
X116350Y142251D01*
X116423Y142371D01*
X116500Y142489D01*
X116580Y142605D01*
X116664Y142718D01*
X116750Y142829D01*
X116840Y142938D01*
X116933Y143044D01*
X117028Y143147D01*
X117127Y143248D01*
X117228Y143346D01*
X117332Y143441D01*
X117439Y143533D01*
X117548Y143622D01*
X117660Y143707D01*
X117774Y143790D01*
X117890Y143870D01*
X118009Y143946D01*
X118130Y144018D01*
X118252Y144088D01*
X118377Y144153D01*
X118503Y144216D01*
X118631Y144274D01*
X118761Y144329D01*
X118892Y144381D01*
X119025Y144428D01*
X119159Y144472D01*
X119294Y144513D01*
X119430Y144549D01*
X119567Y144581D01*
X119705Y144610D01*
X119843Y144635D01*
X119983Y144655D01*
X120123Y144672D01*
X120263Y144685D01*
X120404Y144694D01*
X120544Y144699D01*
X120685Y144700D01*
X120826Y144697D01*
X120967Y144690D01*
X121107Y144679D01*
X121247Y144664D01*
X121387Y144645D01*
X121526Y144623D01*
X121664Y144596D01*
X121802Y144566D01*
X121938Y144531D01*
X122074Y144493D01*
X122208Y144451D01*
X122342Y144405D01*
X122474Y144356D01*
X122604Y144302D01*
X122733Y144245D01*
X122860Y144185D01*
X122986Y144121D01*
X123109Y144053D01*
X123231Y143982D01*
X123351Y143908D01*
X123468Y143830D01*
X123583Y143749D01*
X123696Y143665D01*
X123807Y143578D01*
X123915Y143487D01*
X124020Y143394D01*
X124123Y143297D01*
X124223Y143198D01*
X124320Y143096D01*
X124414Y142991D01*
X124505Y142884D01*
X124593Y142774D01*
X124678Y142662D01*
X124760Y142547D01*
X124839Y142430D01*
X124914Y142311D01*
X124986Y142190D01*
X125054Y142067D01*
X125119Y141942D01*
X125181Y141815D01*
X125238Y141686D01*
X125293Y141556D01*
X125343Y141425D01*
X125390Y141292D01*
X125433Y141158D01*
X125472Y141022D01*
X125507Y140886D01*
X125539Y140749D01*
X125566Y140611D01*
X125590Y140472D01*
X125610Y140332D01*
X125626Y140192D01*
X125638Y140052D01*
X125646Y139911D01*
X125650Y139770D01*
X125650Y139630D01*
X125646Y139489D01*
X125638Y139348D01*
X125626Y139208D01*
X125610Y139068D01*
X125590Y138928D01*
X125566Y138789D01*
X125539Y138651D01*
X125507Y138514D01*
X125472Y138378D01*
X125433Y138242D01*
X125390Y138108D01*
X125343Y137975D01*
X125293Y137844D01*
X125238Y137714D01*
X125181Y137585D01*
X125119Y137458D01*
X125054Y137333D01*
X124986Y137210D01*
X124914Y137089D01*
X124839Y136970D01*
X124760Y136853D01*
X124678Y136738D01*
X124593Y136626D01*
X124505Y136516D01*
X124414Y136409D01*
X124320Y136304D01*
X124223Y136202D01*
X124123Y136103D01*
X124020Y136006D01*
X123915Y135913D01*
X123807Y135822D01*
X123696Y135735D01*
X123583Y135651D01*
X123468Y135570D01*
X123351Y135492D01*
X123231Y135418D01*
X123109Y135347D01*
X122986Y135279D01*
X122860Y135215D01*
X122733Y135155D01*
X122604Y135098D01*
X122474Y135044D01*
X122342Y134995D01*
X122208Y134949D01*
X122074Y134907D01*
X121938Y134869D01*
X121802Y134834D01*
X121664Y134804D01*
X121526Y134777D01*
X121387Y134755D01*
X121247Y134736D01*
X121107Y134721D01*
X120967Y134710D01*
X120826Y134703D01*
X120685Y134700D01*
X120544Y134701D01*
X120404Y134706D01*
X120263Y134715D01*
X120123Y134728D01*
X119983Y134745D01*
X119843Y134765D01*
X119705Y134790D01*
X119567Y134819D01*
X119430Y134851D01*
X119294Y134887D01*
X119159Y134928D01*
X119025Y134972D01*
X118892Y135019D01*
X118761Y135071D01*
X118631Y135126D01*
X118503Y135184D01*
X118377Y135247D01*
X118252Y135312D01*
X118130Y135382D01*
X118009Y135454D01*
X117890Y135530D01*
X117774Y135610D01*
X117660Y135693D01*
X117548Y135778D01*
X117439Y135867D01*
X117332Y135959D01*
X117228Y136054D01*
X117127Y136152D01*
X117028Y136253D01*
X116933Y136356D01*
X116840Y136462D01*
X116750Y136571D01*
X116664Y136682D01*
X116580Y136795D01*
X116500Y136911D01*
X116423Y137029D01*
X116350Y137149D01*
X116279Y137272D01*
X116213Y137396D01*
X116150Y137522D01*
X116090Y137649D01*
X116034Y137778D01*
X115982Y137909D01*
X115933Y138041D01*
X115888Y138175D01*
X115847Y138310D01*
X115810Y138446D01*
X115776Y138582D01*
X115747Y138720D01*
X115721Y138859D01*
X115700Y138998D01*
X115682Y139138D01*
X115668Y139278D01*
X115658Y139418D01*
X115652Y139559D01*
X115650Y139700D01*
X115650Y165100D02*
X115652Y165241D01*
X115658Y165382D01*
X115668Y165522D01*
X115682Y165662D01*
X115700Y165802D01*
X115721Y165941D01*
X115747Y166080D01*
X115776Y166218D01*
X115810Y166354D01*
X115847Y166490D01*
X115888Y166625D01*
X115933Y166759D01*
X115982Y166891D01*
X116034Y167022D01*
X116090Y167151D01*
X116150Y167278D01*
X116213Y167404D01*
X116279Y167528D01*
X116350Y167651D01*
X116423Y167771D01*
X116500Y167889D01*
X116580Y168005D01*
X116664Y168118D01*
X116750Y168229D01*
X116840Y168338D01*
X116933Y168444D01*
X117028Y168547D01*
X117127Y168648D01*
X117228Y168746D01*
X117332Y168841D01*
X117439Y168933D01*
X117548Y169022D01*
X117660Y169107D01*
X117774Y169190D01*
X117890Y169270D01*
X118009Y169346D01*
X118130Y169418D01*
X118252Y169488D01*
X118377Y169553D01*
X118503Y169616D01*
X118631Y169674D01*
X118761Y169729D01*
X118892Y169781D01*
X119025Y169828D01*
X119159Y169872D01*
X119294Y169913D01*
X119430Y169949D01*
X119567Y169981D01*
X119705Y170010D01*
X119843Y170035D01*
X119983Y170055D01*
X120123Y170072D01*
X120263Y170085D01*
X120404Y170094D01*
X120544Y170099D01*
X120685Y170100D01*
X120826Y170097D01*
X120967Y170090D01*
X121107Y170079D01*
X121247Y170064D01*
X121387Y170045D01*
X121526Y170023D01*
X121664Y169996D01*
X121802Y169966D01*
X121938Y169931D01*
X122074Y169893D01*
X122208Y169851D01*
X122342Y169805D01*
X122474Y169756D01*
X122604Y169702D01*
X122733Y169645D01*
X122860Y169585D01*
X122986Y169521D01*
X123109Y169453D01*
X123231Y169382D01*
X123351Y169308D01*
X123468Y169230D01*
X123583Y169149D01*
X123696Y169065D01*
X123807Y168978D01*
X123915Y168887D01*
X124020Y168794D01*
X124123Y168697D01*
X124223Y168598D01*
X124320Y168496D01*
X124414Y168391D01*
X124505Y168284D01*
X124593Y168174D01*
X124678Y168062D01*
X124760Y167947D01*
X124839Y167830D01*
X124914Y167711D01*
X124986Y167590D01*
X125054Y167467D01*
X125119Y167342D01*
X125181Y167215D01*
X125238Y167086D01*
X125293Y166956D01*
X125343Y166825D01*
X125390Y166692D01*
X125433Y166558D01*
X125472Y166422D01*
X125507Y166286D01*
X125539Y166149D01*
X125566Y166011D01*
X125590Y165872D01*
X125610Y165732D01*
X125626Y165592D01*
X125638Y165452D01*
X125646Y165311D01*
X125650Y165170D01*
X125650Y165030D01*
X125646Y164889D01*
X125638Y164748D01*
X125626Y164608D01*
X125610Y164468D01*
X125590Y164328D01*
X125566Y164189D01*
X125539Y164051D01*
X125507Y163914D01*
X125472Y163778D01*
X125433Y163642D01*
X125390Y163508D01*
X125343Y163375D01*
X125293Y163244D01*
X125238Y163114D01*
X125181Y162985D01*
X125119Y162858D01*
X125054Y162733D01*
X124986Y162610D01*
X124914Y162489D01*
X124839Y162370D01*
X124760Y162253D01*
X124678Y162138D01*
X124593Y162026D01*
X124505Y161916D01*
X124414Y161809D01*
X124320Y161704D01*
X124223Y161602D01*
X124123Y161503D01*
X124020Y161406D01*
X123915Y161313D01*
X123807Y161222D01*
X123696Y161135D01*
X123583Y161051D01*
X123468Y160970D01*
X123351Y160892D01*
X123231Y160818D01*
X123109Y160747D01*
X122986Y160679D01*
X122860Y160615D01*
X122733Y160555D01*
X122604Y160498D01*
X122474Y160444D01*
X122342Y160395D01*
X122208Y160349D01*
X122074Y160307D01*
X121938Y160269D01*
X121802Y160234D01*
X121664Y160204D01*
X121526Y160177D01*
X121387Y160155D01*
X121247Y160136D01*
X121107Y160121D01*
X120967Y160110D01*
X120826Y160103D01*
X120685Y160100D01*
X120544Y160101D01*
X120404Y160106D01*
X120263Y160115D01*
X120123Y160128D01*
X119983Y160145D01*
X119843Y160165D01*
X119705Y160190D01*
X119567Y160219D01*
X119430Y160251D01*
X119294Y160287D01*
X119159Y160328D01*
X119025Y160372D01*
X118892Y160419D01*
X118761Y160471D01*
X118631Y160526D01*
X118503Y160584D01*
X118377Y160647D01*
X118252Y160712D01*
X118130Y160782D01*
X118009Y160854D01*
X117890Y160930D01*
X117774Y161010D01*
X117660Y161093D01*
X117548Y161178D01*
X117439Y161267D01*
X117332Y161359D01*
X117228Y161454D01*
X117127Y161552D01*
X117028Y161653D01*
X116933Y161756D01*
X116840Y161862D01*
X116750Y161971D01*
X116664Y162082D01*
X116580Y162195D01*
X116500Y162311D01*
X116423Y162429D01*
X116350Y162549D01*
X116279Y162672D01*
X116213Y162796D01*
X116150Y162922D01*
X116090Y163049D01*
X116034Y163178D01*
X115982Y163309D01*
X115933Y163441D01*
X115888Y163575D01*
X115847Y163710D01*
X115810Y163846D01*
X115776Y163982D01*
X115747Y164120D01*
X115721Y164259D01*
X115700Y164398D01*
X115682Y164538D01*
X115668Y164678D01*
X115658Y164818D01*
X115652Y164959D01*
X115650Y165100D01*
X166450Y165100D02*
X166452Y165241D01*
X166458Y165382D01*
X166468Y165522D01*
X166482Y165662D01*
X166500Y165802D01*
X166521Y165941D01*
X166547Y166080D01*
X166576Y166218D01*
X166610Y166354D01*
X166647Y166490D01*
X166688Y166625D01*
X166733Y166759D01*
X166782Y166891D01*
X166834Y167022D01*
X166890Y167151D01*
X166950Y167278D01*
X167013Y167404D01*
X167079Y167528D01*
X167150Y167651D01*
X167223Y167771D01*
X167300Y167889D01*
X167380Y168005D01*
X167464Y168118D01*
X167550Y168229D01*
X167640Y168338D01*
X167733Y168444D01*
X167828Y168547D01*
X167927Y168648D01*
X168028Y168746D01*
X168132Y168841D01*
X168239Y168933D01*
X168348Y169022D01*
X168460Y169107D01*
X168574Y169190D01*
X168690Y169270D01*
X168809Y169346D01*
X168930Y169418D01*
X169052Y169488D01*
X169177Y169553D01*
X169303Y169616D01*
X169431Y169674D01*
X169561Y169729D01*
X169692Y169781D01*
X169825Y169828D01*
X169959Y169872D01*
X170094Y169913D01*
X170230Y169949D01*
X170367Y169981D01*
X170505Y170010D01*
X170643Y170035D01*
X170783Y170055D01*
X170923Y170072D01*
X171063Y170085D01*
X171204Y170094D01*
X171344Y170099D01*
X171485Y170100D01*
X171626Y170097D01*
X171767Y170090D01*
X171907Y170079D01*
X172047Y170064D01*
X172187Y170045D01*
X172326Y170023D01*
X172464Y169996D01*
X172602Y169966D01*
X172738Y169931D01*
X172874Y169893D01*
X173008Y169851D01*
X173142Y169805D01*
X173274Y169756D01*
X173404Y169702D01*
X173533Y169645D01*
X173660Y169585D01*
X173786Y169521D01*
X173909Y169453D01*
X174031Y169382D01*
X174151Y169308D01*
X174268Y169230D01*
X174383Y169149D01*
X174496Y169065D01*
X174607Y168978D01*
X174715Y168887D01*
X174820Y168794D01*
X174923Y168697D01*
X175023Y168598D01*
X175120Y168496D01*
X175214Y168391D01*
X175305Y168284D01*
X175393Y168174D01*
X175478Y168062D01*
X175560Y167947D01*
X175639Y167830D01*
X175714Y167711D01*
X175786Y167590D01*
X175854Y167467D01*
X175919Y167342D01*
X175981Y167215D01*
X176038Y167086D01*
X176093Y166956D01*
X176143Y166825D01*
X176190Y166692D01*
X176233Y166558D01*
X176272Y166422D01*
X176307Y166286D01*
X176339Y166149D01*
X176366Y166011D01*
X176390Y165872D01*
X176410Y165732D01*
X176426Y165592D01*
X176438Y165452D01*
X176446Y165311D01*
X176450Y165170D01*
X176450Y165030D01*
X176446Y164889D01*
X176438Y164748D01*
X176426Y164608D01*
X176410Y164468D01*
X176390Y164328D01*
X176366Y164189D01*
X176339Y164051D01*
X176307Y163914D01*
X176272Y163778D01*
X176233Y163642D01*
X176190Y163508D01*
X176143Y163375D01*
X176093Y163244D01*
X176038Y163114D01*
X175981Y162985D01*
X175919Y162858D01*
X175854Y162733D01*
X175786Y162610D01*
X175714Y162489D01*
X175639Y162370D01*
X175560Y162253D01*
X175478Y162138D01*
X175393Y162026D01*
X175305Y161916D01*
X175214Y161809D01*
X175120Y161704D01*
X175023Y161602D01*
X174923Y161503D01*
X174820Y161406D01*
X174715Y161313D01*
X174607Y161222D01*
X174496Y161135D01*
X174383Y161051D01*
X174268Y160970D01*
X174151Y160892D01*
X174031Y160818D01*
X173909Y160747D01*
X173786Y160679D01*
X173660Y160615D01*
X173533Y160555D01*
X173404Y160498D01*
X173274Y160444D01*
X173142Y160395D01*
X173008Y160349D01*
X172874Y160307D01*
X172738Y160269D01*
X172602Y160234D01*
X172464Y160204D01*
X172326Y160177D01*
X172187Y160155D01*
X172047Y160136D01*
X171907Y160121D01*
X171767Y160110D01*
X171626Y160103D01*
X171485Y160100D01*
X171344Y160101D01*
X171204Y160106D01*
X171063Y160115D01*
X170923Y160128D01*
X170783Y160145D01*
X170643Y160165D01*
X170505Y160190D01*
X170367Y160219D01*
X170230Y160251D01*
X170094Y160287D01*
X169959Y160328D01*
X169825Y160372D01*
X169692Y160419D01*
X169561Y160471D01*
X169431Y160526D01*
X169303Y160584D01*
X169177Y160647D01*
X169052Y160712D01*
X168930Y160782D01*
X168809Y160854D01*
X168690Y160930D01*
X168574Y161010D01*
X168460Y161093D01*
X168348Y161178D01*
X168239Y161267D01*
X168132Y161359D01*
X168028Y161454D01*
X167927Y161552D01*
X167828Y161653D01*
X167733Y161756D01*
X167640Y161862D01*
X167550Y161971D01*
X167464Y162082D01*
X167380Y162195D01*
X167300Y162311D01*
X167223Y162429D01*
X167150Y162549D01*
X167079Y162672D01*
X167013Y162796D01*
X166950Y162922D01*
X166890Y163049D01*
X166834Y163178D01*
X166782Y163309D01*
X166733Y163441D01*
X166688Y163575D01*
X166647Y163710D01*
X166610Y163846D01*
X166576Y163982D01*
X166547Y164120D01*
X166521Y164259D01*
X166500Y164398D01*
X166482Y164538D01*
X166468Y164678D01*
X166458Y164818D01*
X166452Y164959D01*
X166450Y165100D01*
M02*
