M48
;GenerationSoftware,Autodesk,EAGLE,9.5.2*%
;CreationDate,2020-02-29T09:18:55Z*%
FMAT,2
ICI,OFF
METRIC,TZ,000.000
T3C0.450
T2C1.000
T1C5.000
%
G90
M71
T1
X9520Y20010
T2
X14605Y13970
X12065Y13970
X12065Y16510
X17145Y16510
X24765Y13970
X24765Y16510
X22225Y13970
X22225Y16510
X19685Y13970
X19685Y16510
X14605Y16510
X17145Y13970
T3
X4191Y16002
X8636Y13970
X21273Y2223
X17463Y12573
X19685Y8890
X23177Y2223
X23336Y5556
X10414Y16002
X21527Y12573
X5080Y16891
X9398Y13208
X16351Y2775
X17463Y3810
X23495Y6667
X20955Y4075
M30