G04 EAGLE Gerber RS-274X export*
G75*
%MOMM*%
%FSLAX34Y34*%
%LPD*%
%INunten Kupfer*%
%IPPOS*%
%AMOC8*
5,1,8,0,0,1.08239X$1,22.5*%
G01*
%ADD10C,0.000000*%
%ADD11R,0.900000X0.500000*%
%ADD12R,2.540000X1.270000*%
%ADD13R,1.508000X1.508000*%
%ADD14C,1.508000*%
%ADD15C,0.754800*%
%ADD16C,0.304800*%
%ADD17C,0.254000*%
%ADD18C,0.609600*%

G36*
X266412Y11445D02*
X266412Y11445D01*
X266538Y11452D01*
X266585Y11465D01*
X266633Y11471D01*
X266752Y11513D01*
X266873Y11548D01*
X266915Y11572D01*
X266961Y11588D01*
X267067Y11657D01*
X267177Y11718D01*
X267224Y11758D01*
X267254Y11777D01*
X267287Y11812D01*
X267364Y11877D01*
X267523Y12036D01*
X267602Y12135D01*
X267686Y12229D01*
X267710Y12271D01*
X267740Y12309D01*
X267794Y12423D01*
X267855Y12534D01*
X267868Y12581D01*
X267889Y12624D01*
X267915Y12748D01*
X267950Y12870D01*
X267955Y12930D01*
X267962Y12965D01*
X267961Y13013D01*
X267969Y13113D01*
X267969Y169767D01*
X267955Y169892D01*
X267948Y170018D01*
X267935Y170065D01*
X267929Y170113D01*
X267887Y170232D01*
X267852Y170353D01*
X267828Y170395D01*
X267812Y170441D01*
X267743Y170547D01*
X267682Y170657D01*
X267642Y170704D01*
X267623Y170734D01*
X267588Y170767D01*
X267523Y170844D01*
X227994Y210373D01*
X227895Y210452D01*
X227801Y210536D01*
X227759Y210560D01*
X227721Y210590D01*
X227607Y210644D01*
X227496Y210705D01*
X227449Y210718D01*
X227406Y210739D01*
X227282Y210765D01*
X227160Y210800D01*
X227100Y210805D01*
X227065Y210812D01*
X227017Y210811D01*
X226917Y210819D01*
X122825Y210819D01*
X122774Y210813D01*
X122724Y210816D01*
X122602Y210794D01*
X122479Y210779D01*
X122431Y210762D01*
X122381Y210753D01*
X122267Y210704D01*
X122151Y210662D01*
X122108Y210634D01*
X122061Y210614D01*
X121962Y210540D01*
X121858Y210473D01*
X121823Y210436D01*
X121782Y210406D01*
X121702Y210311D01*
X121616Y210222D01*
X121590Y210178D01*
X121557Y210139D01*
X121500Y210029D01*
X121437Y209923D01*
X121422Y209875D01*
X121398Y209829D01*
X121368Y209709D01*
X121331Y209591D01*
X121327Y209540D01*
X121314Y209491D01*
X121313Y209367D01*
X121303Y209244D01*
X121310Y209193D01*
X121310Y209142D01*
X121354Y208902D01*
X122741Y203726D01*
X122741Y196474D01*
X120864Y189470D01*
X120285Y188468D01*
X120255Y188398D01*
X120216Y188333D01*
X120186Y188239D01*
X120147Y188148D01*
X120133Y188073D01*
X120110Y188001D01*
X120102Y187903D01*
X120084Y187805D01*
X120088Y187729D01*
X120082Y187654D01*
X120097Y187556D01*
X120102Y187457D01*
X120123Y187384D01*
X120134Y187309D01*
X120170Y187217D01*
X120198Y187122D01*
X120235Y187056D01*
X120263Y186985D01*
X120319Y186904D01*
X120367Y186817D01*
X120418Y186761D01*
X120461Y186699D01*
X120535Y186633D01*
X120602Y186559D01*
X120664Y186516D01*
X120720Y186466D01*
X120807Y186418D01*
X120888Y186362D01*
X120959Y186334D01*
X121025Y186297D01*
X121121Y186270D01*
X121213Y186234D01*
X121288Y186223D01*
X121361Y186202D01*
X121511Y186190D01*
X121558Y186183D01*
X121576Y186185D01*
X121604Y186183D01*
X141880Y186183D01*
X143560Y185487D01*
X149927Y179120D01*
X150623Y177440D01*
X150623Y177303D01*
X150634Y177203D01*
X150636Y177102D01*
X150654Y177030D01*
X150663Y176956D01*
X150696Y176862D01*
X150721Y176764D01*
X150755Y176698D01*
X150780Y176628D01*
X150835Y176544D01*
X150881Y176455D01*
X150929Y176398D01*
X150969Y176335D01*
X151041Y176266D01*
X151106Y176189D01*
X151166Y176145D01*
X151220Y176093D01*
X151306Y176042D01*
X151387Y175982D01*
X151455Y175953D01*
X151519Y175914D01*
X151615Y175884D01*
X151707Y175844D01*
X151780Y175831D01*
X151851Y175808D01*
X151951Y175800D01*
X152050Y175782D01*
X152124Y175786D01*
X152198Y175780D01*
X152298Y175795D01*
X152398Y175800D01*
X152469Y175821D01*
X152543Y175832D01*
X152636Y175869D01*
X152733Y175897D01*
X152798Y175933D01*
X152867Y175961D01*
X152949Y176018D01*
X153037Y176067D01*
X153113Y176132D01*
X153153Y176160D01*
X153177Y176186D01*
X153223Y176225D01*
X157097Y180099D01*
X159180Y182182D01*
X228170Y182182D01*
X237745Y172608D01*
X237745Y171692D01*
X237756Y171592D01*
X237758Y171491D01*
X237776Y171419D01*
X237785Y171345D01*
X237818Y171251D01*
X237843Y171153D01*
X237877Y171087D01*
X237902Y171017D01*
X237957Y170933D01*
X238003Y170844D01*
X238051Y170787D01*
X238091Y170724D01*
X238163Y170655D01*
X238228Y170578D01*
X238288Y170534D01*
X238342Y170482D01*
X238428Y170431D01*
X238509Y170371D01*
X238577Y170342D01*
X238641Y170303D01*
X238737Y170273D01*
X238829Y170233D01*
X238902Y170220D01*
X238973Y170197D01*
X239073Y170189D01*
X239172Y170171D01*
X239246Y170175D01*
X239320Y170169D01*
X239420Y170184D01*
X239520Y170189D01*
X239591Y170210D01*
X239665Y170221D01*
X239758Y170258D01*
X239855Y170286D01*
X239920Y170322D01*
X239989Y170350D01*
X240071Y170407D01*
X240159Y170456D01*
X240235Y170521D01*
X240275Y170549D01*
X240299Y170575D01*
X240345Y170615D01*
X242515Y172785D01*
X245847Y174165D01*
X249453Y174165D01*
X252785Y172785D01*
X255335Y170235D01*
X256715Y166903D01*
X256715Y163297D01*
X255335Y159965D01*
X252785Y157415D01*
X249453Y156035D01*
X245847Y156035D01*
X242515Y157415D01*
X240345Y159585D01*
X240267Y159648D01*
X240194Y159718D01*
X240130Y159756D01*
X240072Y159802D01*
X239981Y159845D01*
X239895Y159897D01*
X239824Y159919D01*
X239757Y159951D01*
X239659Y159972D01*
X239563Y160003D01*
X239489Y160009D01*
X239416Y160024D01*
X239316Y160023D01*
X239216Y160031D01*
X239142Y160020D01*
X239068Y160018D01*
X238971Y159994D01*
X238871Y159979D01*
X238802Y159952D01*
X238730Y159933D01*
X238641Y159887D01*
X238547Y159850D01*
X238486Y159808D01*
X238420Y159774D01*
X238344Y159709D01*
X238261Y159651D01*
X238211Y159596D01*
X238155Y159548D01*
X238095Y159467D01*
X238028Y159393D01*
X237992Y159328D01*
X237947Y159268D01*
X237908Y159175D01*
X237859Y159088D01*
X237839Y159016D01*
X237809Y158948D01*
X237792Y158849D01*
X237764Y158752D01*
X237756Y158652D01*
X237748Y158605D01*
X237750Y158569D01*
X237745Y158508D01*
X237745Y150288D01*
X237748Y150262D01*
X237746Y150236D01*
X237768Y150089D01*
X237785Y149942D01*
X237793Y149917D01*
X237797Y149891D01*
X237852Y149753D01*
X237902Y149614D01*
X237916Y149592D01*
X237926Y149567D01*
X238011Y149446D01*
X238091Y149321D01*
X238110Y149303D01*
X238125Y149281D01*
X238235Y149182D01*
X238342Y149079D01*
X238364Y149065D01*
X238384Y149048D01*
X238514Y148976D01*
X238641Y148900D01*
X238666Y148892D01*
X238689Y148879D01*
X238832Y148839D01*
X238973Y148794D01*
X238999Y148792D01*
X239024Y148784D01*
X239268Y148765D01*
X255822Y148765D01*
X256715Y147872D01*
X256715Y131528D01*
X255822Y130635D01*
X239268Y130635D01*
X239242Y130632D01*
X239216Y130634D01*
X239069Y130612D01*
X238922Y130595D01*
X238897Y130587D01*
X238871Y130583D01*
X238733Y130528D01*
X238594Y130478D01*
X238572Y130464D01*
X238547Y130454D01*
X238426Y130369D01*
X238301Y130289D01*
X238283Y130270D01*
X238261Y130255D01*
X238162Y130145D01*
X238059Y130038D01*
X238045Y130016D01*
X238028Y129996D01*
X237956Y129866D01*
X237880Y129739D01*
X237872Y129714D01*
X237859Y129691D01*
X237819Y129548D01*
X237774Y129407D01*
X237772Y129381D01*
X237764Y129356D01*
X237745Y129112D01*
X237745Y72005D01*
X237759Y71879D01*
X237766Y71753D01*
X237779Y71707D01*
X237785Y71659D01*
X237827Y71540D01*
X237862Y71418D01*
X237886Y71376D01*
X237902Y71330D01*
X237971Y71224D01*
X238032Y71114D01*
X238072Y71068D01*
X238091Y71038D01*
X238126Y71004D01*
X238191Y70928D01*
X239442Y69677D01*
X240249Y67729D01*
X240249Y65621D01*
X239442Y63673D01*
X237952Y62183D01*
X236004Y61376D01*
X233896Y61376D01*
X231948Y62183D01*
X230458Y63673D01*
X229651Y65621D01*
X229651Y67729D01*
X230458Y69677D01*
X231709Y70928D01*
X231788Y71027D01*
X231872Y71121D01*
X231896Y71163D01*
X231926Y71201D01*
X231980Y71315D01*
X232041Y71426D01*
X232054Y71472D01*
X232075Y71516D01*
X232101Y71639D01*
X232136Y71761D01*
X232141Y71822D01*
X232148Y71856D01*
X232147Y71904D01*
X232155Y72005D01*
X232155Y133108D01*
X232144Y133208D01*
X232142Y133309D01*
X232124Y133381D01*
X232115Y133455D01*
X232082Y133549D01*
X232057Y133647D01*
X232023Y133713D01*
X231998Y133783D01*
X231943Y133867D01*
X231897Y133956D01*
X231849Y134013D01*
X231809Y134076D01*
X231737Y134145D01*
X231672Y134222D01*
X231612Y134266D01*
X231558Y134318D01*
X231472Y134369D01*
X231391Y134429D01*
X231323Y134458D01*
X231259Y134497D01*
X231163Y134527D01*
X231071Y134567D01*
X230998Y134580D01*
X230927Y134603D01*
X230827Y134611D01*
X230728Y134629D01*
X230654Y134625D01*
X230580Y134631D01*
X230480Y134616D01*
X230380Y134611D01*
X230309Y134590D01*
X230235Y134579D01*
X230142Y134542D01*
X230045Y134514D01*
X229980Y134478D01*
X229911Y134450D01*
X229829Y134393D01*
X229741Y134344D01*
X229665Y134279D01*
X229625Y134251D01*
X229601Y134225D01*
X229555Y134185D01*
X227385Y132015D01*
X224053Y130635D01*
X220447Y130635D01*
X217115Y132015D01*
X214565Y134565D01*
X213185Y137897D01*
X213185Y141503D01*
X214565Y144835D01*
X217115Y147385D01*
X220447Y148765D01*
X224053Y148765D01*
X227385Y147385D01*
X229555Y145215D01*
X229633Y145152D01*
X229706Y145082D01*
X229770Y145044D01*
X229828Y144998D01*
X229919Y144955D01*
X230005Y144903D01*
X230076Y144881D01*
X230143Y144849D01*
X230241Y144828D01*
X230337Y144797D01*
X230411Y144791D01*
X230484Y144776D01*
X230584Y144777D01*
X230684Y144769D01*
X230758Y144780D01*
X230832Y144782D01*
X230929Y144806D01*
X231029Y144821D01*
X231098Y144848D01*
X231170Y144867D01*
X231259Y144913D01*
X231353Y144950D01*
X231414Y144992D01*
X231480Y145026D01*
X231556Y145091D01*
X231639Y145149D01*
X231689Y145204D01*
X231745Y145252D01*
X231805Y145333D01*
X231872Y145407D01*
X231908Y145472D01*
X231953Y145532D01*
X231992Y145625D01*
X232041Y145712D01*
X232061Y145784D01*
X232091Y145852D01*
X232108Y145951D01*
X232136Y146048D01*
X232144Y146148D01*
X232152Y146195D01*
X232150Y146231D01*
X232155Y146292D01*
X232155Y158508D01*
X232144Y158608D01*
X232142Y158709D01*
X232124Y158781D01*
X232115Y158855D01*
X232082Y158949D01*
X232057Y159047D01*
X232023Y159113D01*
X231998Y159183D01*
X231943Y159267D01*
X231897Y159356D01*
X231849Y159413D01*
X231809Y159476D01*
X231737Y159545D01*
X231672Y159622D01*
X231612Y159666D01*
X231558Y159718D01*
X231472Y159769D01*
X231391Y159829D01*
X231323Y159858D01*
X231259Y159897D01*
X231163Y159927D01*
X231071Y159967D01*
X230998Y159980D01*
X230927Y160003D01*
X230827Y160011D01*
X230728Y160029D01*
X230654Y160025D01*
X230580Y160031D01*
X230480Y160016D01*
X230380Y160011D01*
X230309Y159990D01*
X230235Y159979D01*
X230142Y159942D01*
X230045Y159914D01*
X229980Y159878D01*
X229911Y159850D01*
X229829Y159793D01*
X229741Y159744D01*
X229665Y159679D01*
X229625Y159651D01*
X229601Y159625D01*
X229555Y159585D01*
X227385Y157415D01*
X224053Y156035D01*
X220447Y156035D01*
X217115Y157415D01*
X214565Y159965D01*
X213185Y163297D01*
X213185Y166903D01*
X214565Y170235D01*
X217115Y172785D01*
X219234Y173662D01*
X219278Y173687D01*
X219325Y173704D01*
X219430Y173771D01*
X219538Y173832D01*
X219576Y173865D01*
X219618Y173893D01*
X219704Y173982D01*
X219797Y174066D01*
X219825Y174107D01*
X219860Y174143D01*
X219924Y174250D01*
X219995Y174352D01*
X220013Y174399D01*
X220039Y174442D01*
X220077Y174561D01*
X220123Y174677D01*
X220130Y174726D01*
X220145Y174774D01*
X220155Y174898D01*
X220173Y175021D01*
X220169Y175072D01*
X220173Y175122D01*
X220155Y175245D01*
X220144Y175369D01*
X220129Y175417D01*
X220122Y175466D01*
X220076Y175582D01*
X220037Y175700D01*
X220011Y175744D01*
X219993Y175790D01*
X219922Y175892D01*
X219858Y175999D01*
X219823Y176035D01*
X219794Y176076D01*
X219702Y176160D01*
X219615Y176249D01*
X219572Y176276D01*
X219535Y176310D01*
X219426Y176370D01*
X219322Y176437D01*
X219274Y176454D01*
X219230Y176478D01*
X219110Y176512D01*
X218993Y176554D01*
X218943Y176559D01*
X218895Y176573D01*
X218651Y176593D01*
X202844Y176593D01*
X202680Y176574D01*
X202516Y176557D01*
X202507Y176554D01*
X202497Y176553D01*
X202343Y176497D01*
X202186Y176444D01*
X202178Y176439D01*
X202169Y176435D01*
X202031Y176346D01*
X201891Y176258D01*
X201884Y176251D01*
X201877Y176246D01*
X201762Y176128D01*
X201646Y176011D01*
X201641Y176003D01*
X201634Y175996D01*
X201550Y175854D01*
X201463Y175714D01*
X201460Y175705D01*
X201455Y175697D01*
X201405Y175539D01*
X201353Y175383D01*
X201352Y175374D01*
X201349Y175365D01*
X201336Y175200D01*
X201321Y175036D01*
X201322Y175027D01*
X201321Y175017D01*
X201346Y174853D01*
X201368Y174691D01*
X201372Y174682D01*
X201373Y174673D01*
X201434Y174519D01*
X201493Y174365D01*
X201498Y174358D01*
X201502Y174349D01*
X201596Y174213D01*
X201688Y174077D01*
X201695Y174070D01*
X201701Y174063D01*
X201823Y173952D01*
X201944Y173840D01*
X201954Y173834D01*
X201959Y173829D01*
X201986Y173815D01*
X202116Y173735D01*
X203417Y172789D01*
X204539Y171667D01*
X205472Y170383D01*
X206192Y168970D01*
X206637Y167599D01*
X197826Y167599D01*
X197800Y167596D01*
X197774Y167598D01*
X197627Y167576D01*
X197480Y167559D01*
X197455Y167551D01*
X197429Y167547D01*
X197292Y167492D01*
X197152Y167442D01*
X197130Y167428D01*
X197105Y167418D01*
X196984Y167333D01*
X196859Y167253D01*
X196847Y167240D01*
X196800Y167285D01*
X196777Y167299D01*
X196758Y167316D01*
X196628Y167388D01*
X196501Y167464D01*
X196476Y167472D01*
X196453Y167485D01*
X196310Y167525D01*
X196169Y167570D01*
X196143Y167572D01*
X196118Y167580D01*
X195874Y167599D01*
X187063Y167599D01*
X187508Y168970D01*
X188228Y170383D01*
X189161Y171667D01*
X190283Y172789D01*
X191612Y173755D01*
X191684Y173803D01*
X191823Y173893D01*
X191830Y173900D01*
X191838Y173905D01*
X191950Y174024D01*
X192066Y174143D01*
X192071Y174151D01*
X192077Y174158D01*
X192159Y174300D01*
X192245Y174442D01*
X192247Y174451D01*
X192252Y174460D01*
X192300Y174617D01*
X192351Y174774D01*
X192352Y174784D01*
X192354Y174793D01*
X192365Y174957D01*
X192379Y175122D01*
X192377Y175131D01*
X192378Y175141D01*
X192351Y175304D01*
X192327Y175466D01*
X192324Y175475D01*
X192322Y175485D01*
X192260Y175636D01*
X192198Y175790D01*
X192193Y175798D01*
X192189Y175807D01*
X192093Y175941D01*
X191999Y176076D01*
X191992Y176083D01*
X191987Y176090D01*
X191863Y176199D01*
X191741Y176310D01*
X191732Y176314D01*
X191725Y176321D01*
X191581Y176398D01*
X191436Y176478D01*
X191426Y176481D01*
X191418Y176485D01*
X191259Y176528D01*
X191100Y176573D01*
X191089Y176574D01*
X191081Y176576D01*
X191052Y176577D01*
X190856Y176593D01*
X162126Y176593D01*
X162000Y176578D01*
X161874Y176572D01*
X161828Y176558D01*
X161780Y176553D01*
X161661Y176510D01*
X161539Y176475D01*
X161497Y176452D01*
X161452Y176435D01*
X161345Y176367D01*
X161235Y176305D01*
X161189Y176266D01*
X161159Y176246D01*
X161125Y176212D01*
X161049Y176147D01*
X154865Y169963D01*
X154818Y169903D01*
X154763Y169850D01*
X154710Y169767D01*
X154649Y169690D01*
X154616Y169621D01*
X154575Y169556D01*
X154542Y169464D01*
X154500Y169375D01*
X154484Y169300D01*
X154458Y169228D01*
X154447Y169130D01*
X154426Y169034D01*
X154428Y168958D01*
X154419Y168882D01*
X154431Y168784D01*
X154432Y168686D01*
X154451Y168611D01*
X154460Y168536D01*
X154506Y168394D01*
X154517Y168348D01*
X154526Y168330D01*
X154535Y168303D01*
X155115Y166903D01*
X155115Y163297D01*
X153735Y159965D01*
X151819Y158049D01*
X151756Y157971D01*
X151686Y157898D01*
X151648Y157834D01*
X151602Y157776D01*
X151559Y157685D01*
X151507Y157599D01*
X151485Y157528D01*
X151453Y157461D01*
X151432Y157363D01*
X151401Y157267D01*
X151395Y157193D01*
X151380Y157120D01*
X151381Y157020D01*
X151373Y156920D01*
X151384Y156846D01*
X151386Y156772D01*
X151410Y156675D01*
X151425Y156575D01*
X151452Y156506D01*
X151471Y156434D01*
X151517Y156345D01*
X151554Y156251D01*
X151596Y156190D01*
X151630Y156124D01*
X151695Y156048D01*
X151753Y155965D01*
X151808Y155915D01*
X151856Y155859D01*
X151937Y155799D01*
X152011Y155732D01*
X152076Y155696D01*
X152136Y155651D01*
X152229Y155612D01*
X152316Y155563D01*
X152388Y155543D01*
X152456Y155513D01*
X152555Y155496D01*
X152652Y155468D01*
X152752Y155460D01*
X152799Y155452D01*
X152835Y155454D01*
X152896Y155449D01*
X167387Y155449D01*
X167438Y155454D01*
X167488Y155452D01*
X167610Y155474D01*
X167734Y155489D01*
X167781Y155506D01*
X167831Y155515D01*
X167945Y155564D01*
X168062Y155606D01*
X168104Y155633D01*
X168150Y155654D01*
X168250Y155728D01*
X168355Y155795D01*
X168390Y155831D01*
X168430Y155861D01*
X168510Y155956D01*
X168597Y156046D01*
X168623Y156089D01*
X168655Y156127D01*
X168712Y156238D01*
X168776Y156345D01*
X168791Y156393D01*
X168814Y156438D01*
X168844Y156558D01*
X168882Y156677D01*
X168886Y156727D01*
X168898Y156776D01*
X168900Y156900D01*
X168910Y157024D01*
X168902Y157074D01*
X168903Y157124D01*
X168877Y157246D01*
X168858Y157369D01*
X168840Y157416D01*
X168829Y157465D01*
X168775Y157577D01*
X168729Y157693D01*
X168701Y157734D01*
X168679Y157780D01*
X168601Y157877D01*
X168530Y157979D01*
X168493Y158013D01*
X168462Y158052D01*
X168364Y158129D01*
X168272Y158212D01*
X168228Y158237D01*
X168188Y158268D01*
X167970Y158379D01*
X167178Y158707D01*
X165057Y160828D01*
X163909Y163600D01*
X163909Y166600D01*
X165057Y169372D01*
X167178Y171493D01*
X169950Y172641D01*
X172950Y172641D01*
X175722Y171493D01*
X177843Y169372D01*
X178991Y166600D01*
X178991Y163600D01*
X177843Y160828D01*
X175722Y158707D01*
X174930Y158379D01*
X174886Y158355D01*
X174838Y158338D01*
X174734Y158270D01*
X174625Y158210D01*
X174588Y158176D01*
X174545Y158149D01*
X174459Y158059D01*
X174367Y157976D01*
X174338Y157934D01*
X174303Y157898D01*
X174239Y157791D01*
X174169Y157689D01*
X174150Y157642D01*
X174124Y157599D01*
X174086Y157481D01*
X174041Y157365D01*
X174033Y157315D01*
X174018Y157267D01*
X174008Y157143D01*
X173990Y157020D01*
X173994Y156970D01*
X173990Y156920D01*
X174009Y156797D01*
X174019Y156673D01*
X174034Y156625D01*
X174042Y156575D01*
X174088Y156459D01*
X174126Y156341D01*
X174152Y156298D01*
X174171Y156251D01*
X174242Y156149D01*
X174306Y156043D01*
X174341Y156006D01*
X174370Y155965D01*
X174462Y155882D01*
X174549Y155793D01*
X174591Y155765D01*
X174628Y155732D01*
X174737Y155672D01*
X174842Y155604D01*
X174889Y155587D01*
X174933Y155563D01*
X175053Y155529D01*
X175170Y155488D01*
X175220Y155482D01*
X175269Y155468D01*
X175513Y155449D01*
X179063Y155449D01*
X181295Y153217D01*
X187626Y146886D01*
X187646Y146870D01*
X187663Y146850D01*
X187782Y146761D01*
X187899Y146669D01*
X187922Y146658D01*
X187943Y146643D01*
X188080Y146584D01*
X188214Y146520D01*
X188239Y146515D01*
X188263Y146505D01*
X188410Y146478D01*
X188554Y146447D01*
X188580Y146448D01*
X188606Y146443D01*
X188755Y146451D01*
X188903Y146453D01*
X188928Y146459D01*
X188954Y146461D01*
X189097Y146502D01*
X189241Y146538D01*
X189264Y146550D01*
X189289Y146557D01*
X189419Y146630D01*
X189551Y146698D01*
X189571Y146715D01*
X189594Y146728D01*
X189780Y146886D01*
X190283Y147389D01*
X191567Y148322D01*
X192980Y149042D01*
X194351Y149487D01*
X194351Y140676D01*
X194354Y140650D01*
X194352Y140624D01*
X194374Y140477D01*
X194391Y140330D01*
X194399Y140305D01*
X194403Y140279D01*
X194458Y140142D01*
X194508Y140002D01*
X194522Y139980D01*
X194532Y139955D01*
X194617Y139834D01*
X194697Y139709D01*
X194710Y139697D01*
X194665Y139650D01*
X194651Y139627D01*
X194634Y139608D01*
X194562Y139478D01*
X194486Y139351D01*
X194478Y139326D01*
X194465Y139303D01*
X194425Y139160D01*
X194380Y139019D01*
X194377Y138993D01*
X194370Y138968D01*
X194351Y138724D01*
X194351Y129913D01*
X192980Y130358D01*
X191567Y131078D01*
X190283Y132011D01*
X189799Y132495D01*
X189721Y132557D01*
X189648Y132627D01*
X189584Y132665D01*
X189526Y132711D01*
X189435Y132754D01*
X189349Y132806D01*
X189278Y132828D01*
X189211Y132860D01*
X189113Y132881D01*
X189017Y132912D01*
X188943Y132918D01*
X188870Y132934D01*
X188770Y132932D01*
X188670Y132940D01*
X188596Y132929D01*
X188522Y132928D01*
X188425Y132903D01*
X188325Y132888D01*
X188256Y132861D01*
X188184Y132843D01*
X188095Y132797D01*
X188001Y132759D01*
X187940Y132717D01*
X187874Y132683D01*
X187797Y132618D01*
X187715Y132561D01*
X187665Y132505D01*
X187609Y132457D01*
X187549Y132376D01*
X187482Y132302D01*
X187446Y132237D01*
X187401Y132177D01*
X187362Y132085D01*
X187313Y131997D01*
X187293Y131925D01*
X187263Y131857D01*
X187246Y131758D01*
X187218Y131661D01*
X187210Y131561D01*
X187202Y131514D01*
X187204Y131478D01*
X187199Y131418D01*
X187199Y128894D01*
X187213Y128768D01*
X187220Y128642D01*
X187233Y128596D01*
X187239Y128548D01*
X187281Y128429D01*
X187316Y128307D01*
X187340Y128265D01*
X187356Y128219D01*
X187425Y128113D01*
X187486Y128003D01*
X187526Y127957D01*
X187545Y127927D01*
X187580Y127893D01*
X187645Y127817D01*
X212599Y102863D01*
X212599Y45826D01*
X212613Y45700D01*
X212620Y45574D01*
X212633Y45528D01*
X212639Y45480D01*
X212681Y45361D01*
X212716Y45239D01*
X212740Y45197D01*
X212756Y45151D01*
X212825Y45045D01*
X212886Y44935D01*
X212926Y44889D01*
X212945Y44859D01*
X212980Y44825D01*
X213045Y44749D01*
X214042Y43752D01*
X214849Y41804D01*
X214849Y39696D01*
X214042Y37748D01*
X212552Y36258D01*
X210604Y35451D01*
X208496Y35451D01*
X206548Y36258D01*
X205058Y37748D01*
X204251Y39696D01*
X204251Y41804D01*
X205058Y43752D01*
X206055Y44749D01*
X206134Y44848D01*
X206218Y44942D01*
X206242Y44984D01*
X206272Y45022D01*
X206326Y45136D01*
X206387Y45247D01*
X206400Y45293D01*
X206421Y45337D01*
X206447Y45460D01*
X206482Y45582D01*
X206487Y45643D01*
X206494Y45677D01*
X206493Y45725D01*
X206501Y45826D01*
X206501Y99706D01*
X206487Y99831D01*
X206480Y99958D01*
X206467Y100004D01*
X206461Y100052D01*
X206419Y100171D01*
X206384Y100293D01*
X206360Y100335D01*
X206344Y100381D01*
X206275Y100487D01*
X206214Y100597D01*
X206174Y100643D01*
X206155Y100673D01*
X206120Y100707D01*
X206055Y100783D01*
X181101Y125737D01*
X181101Y132854D01*
X181090Y132954D01*
X181088Y133055D01*
X181070Y133127D01*
X181061Y133201D01*
X181028Y133295D01*
X181003Y133393D01*
X180969Y133459D01*
X180944Y133529D01*
X180889Y133613D01*
X180843Y133702D01*
X180795Y133759D01*
X180755Y133822D01*
X180683Y133891D01*
X180618Y133968D01*
X180558Y134012D01*
X180504Y134064D01*
X180418Y134115D01*
X180337Y134175D01*
X180269Y134204D01*
X180205Y134243D01*
X180109Y134273D01*
X180017Y134313D01*
X179944Y134326D01*
X179873Y134349D01*
X179773Y134357D01*
X179674Y134375D01*
X179600Y134371D01*
X179526Y134377D01*
X179426Y134362D01*
X179326Y134357D01*
X179255Y134336D01*
X179181Y134325D01*
X179088Y134288D01*
X178991Y134260D01*
X178926Y134224D01*
X178857Y134196D01*
X178775Y134139D01*
X178687Y134090D01*
X178611Y134025D01*
X178571Y133997D01*
X178547Y133971D01*
X178501Y133931D01*
X176585Y132015D01*
X173253Y130635D01*
X169647Y130635D01*
X166315Y132015D01*
X163765Y134565D01*
X162385Y137897D01*
X162385Y141503D01*
X163765Y144835D01*
X165681Y146751D01*
X165744Y146829D01*
X165814Y146902D01*
X165852Y146966D01*
X165898Y147024D01*
X165941Y147115D01*
X165993Y147201D01*
X166015Y147272D01*
X166047Y147339D01*
X166068Y147437D01*
X166099Y147533D01*
X166105Y147607D01*
X166120Y147680D01*
X166119Y147780D01*
X166127Y147880D01*
X166116Y147954D01*
X166114Y148028D01*
X166090Y148125D01*
X166075Y148225D01*
X166048Y148294D01*
X166029Y148366D01*
X165983Y148455D01*
X165946Y148549D01*
X165904Y148610D01*
X165870Y148676D01*
X165805Y148752D01*
X165747Y148835D01*
X165692Y148885D01*
X165644Y148941D01*
X165563Y149001D01*
X165489Y149068D01*
X165424Y149104D01*
X165364Y149149D01*
X165271Y149188D01*
X165184Y149237D01*
X165112Y149257D01*
X165044Y149287D01*
X164945Y149304D01*
X164848Y149332D01*
X164748Y149340D01*
X164701Y149348D01*
X164665Y149346D01*
X164604Y149351D01*
X150113Y149351D01*
X150062Y149346D01*
X150012Y149348D01*
X149890Y149326D01*
X149766Y149311D01*
X149719Y149294D01*
X149669Y149285D01*
X149555Y149236D01*
X149438Y149194D01*
X149396Y149167D01*
X149350Y149146D01*
X149250Y149072D01*
X149145Y149005D01*
X149110Y148969D01*
X149070Y148939D01*
X148990Y148844D01*
X148903Y148754D01*
X148877Y148711D01*
X148845Y148673D01*
X148788Y148562D01*
X148724Y148455D01*
X148709Y148407D01*
X148686Y148362D01*
X148656Y148242D01*
X148618Y148123D01*
X148614Y148073D01*
X148602Y148024D01*
X148600Y147900D01*
X148590Y147776D01*
X148598Y147726D01*
X148597Y147676D01*
X148623Y147554D01*
X148642Y147431D01*
X148660Y147384D01*
X148671Y147335D01*
X148725Y147223D01*
X148771Y147107D01*
X148799Y147066D01*
X148821Y147020D01*
X148899Y146923D01*
X148970Y146821D01*
X149007Y146787D01*
X149038Y146748D01*
X149136Y146671D01*
X149228Y146588D01*
X149272Y146563D01*
X149312Y146532D01*
X149530Y146421D01*
X150322Y146093D01*
X152443Y143972D01*
X153591Y141200D01*
X153591Y138200D01*
X152443Y135429D01*
X151251Y134237D01*
X151188Y134158D01*
X151119Y134086D01*
X151080Y134022D01*
X151034Y133964D01*
X150991Y133873D01*
X150940Y133787D01*
X150917Y133716D01*
X150885Y133648D01*
X150864Y133550D01*
X150833Y133455D01*
X150828Y133380D01*
X150812Y133308D01*
X150814Y133207D01*
X150806Y133107D01*
X150817Y133034D01*
X150818Y132959D01*
X150842Y132862D01*
X150857Y132763D01*
X150885Y132693D01*
X150903Y132621D01*
X150949Y132532D01*
X150986Y132439D01*
X151028Y132378D01*
X151062Y132312D01*
X151128Y132235D01*
X151185Y132153D01*
X151240Y132103D01*
X151288Y132046D01*
X151369Y131986D01*
X151444Y131919D01*
X151509Y131883D01*
X151569Y131839D01*
X151661Y131799D01*
X151749Y131751D01*
X151820Y131730D01*
X151889Y131701D01*
X151987Y131683D01*
X152084Y131656D01*
X152184Y131648D01*
X152232Y131639D01*
X152267Y131641D01*
X152328Y131636D01*
X161600Y131636D01*
X163832Y129404D01*
X170679Y122557D01*
X172911Y120325D01*
X172911Y44922D01*
X172913Y44904D01*
X172912Y44890D01*
X172913Y44883D01*
X172912Y44870D01*
X172934Y44723D01*
X172951Y44576D01*
X172960Y44551D01*
X172964Y44525D01*
X173019Y44387D01*
X173069Y44248D01*
X173083Y44226D01*
X173093Y44201D01*
X173177Y44080D01*
X173258Y43955D01*
X173277Y43937D01*
X173291Y43915D01*
X173402Y43816D01*
X173508Y43713D01*
X173531Y43699D01*
X173550Y43682D01*
X173680Y43610D01*
X173807Y43534D01*
X173832Y43526D01*
X173855Y43513D01*
X173998Y43473D01*
X174139Y43428D01*
X174165Y43426D01*
X174191Y43418D01*
X174434Y43399D01*
X175679Y43399D01*
X177627Y42592D01*
X179117Y41102D01*
X179924Y39154D01*
X179924Y37046D01*
X179117Y35098D01*
X177627Y33608D01*
X175679Y32801D01*
X173571Y32801D01*
X171623Y33608D01*
X170133Y35098D01*
X169326Y37046D01*
X169326Y38456D01*
X169312Y38582D01*
X169305Y38708D01*
X169292Y38754D01*
X169286Y38802D01*
X169244Y38921D01*
X169209Y39043D01*
X169185Y39085D01*
X169169Y39131D01*
X169100Y39237D01*
X169039Y39347D01*
X168999Y39393D01*
X168980Y39423D01*
X168945Y39457D01*
X168880Y39533D01*
X166814Y41600D01*
X166814Y117169D01*
X166799Y117294D01*
X166793Y117421D01*
X166779Y117467D01*
X166774Y117515D01*
X166731Y117634D01*
X166696Y117755D01*
X166673Y117798D01*
X166656Y117843D01*
X166588Y117949D01*
X166526Y118060D01*
X166487Y118106D01*
X166467Y118136D01*
X166433Y118169D01*
X166368Y118246D01*
X159521Y125093D01*
X159422Y125171D01*
X159328Y125256D01*
X159286Y125279D01*
X159248Y125309D01*
X159134Y125363D01*
X159023Y125424D01*
X158976Y125438D01*
X158933Y125458D01*
X158809Y125485D01*
X158688Y125519D01*
X158627Y125524D01*
X158592Y125532D01*
X158544Y125531D01*
X158444Y125539D01*
X109862Y125539D01*
X107630Y127771D01*
X88846Y146555D01*
X88747Y146634D01*
X88653Y146718D01*
X88611Y146742D01*
X88573Y146772D01*
X88459Y146826D01*
X88348Y146887D01*
X88301Y146900D01*
X88258Y146921D01*
X88134Y146947D01*
X88012Y146982D01*
X87952Y146987D01*
X87917Y146994D01*
X87869Y146993D01*
X87769Y147001D01*
X79048Y147001D01*
X79022Y146998D01*
X78996Y147000D01*
X78849Y146978D01*
X78702Y146961D01*
X78677Y146953D01*
X78651Y146949D01*
X78513Y146894D01*
X78374Y146844D01*
X78352Y146830D01*
X78327Y146820D01*
X78206Y146735D01*
X78081Y146655D01*
X78063Y146636D01*
X78041Y146621D01*
X77942Y146511D01*
X77839Y146404D01*
X77825Y146382D01*
X77808Y146362D01*
X77736Y146232D01*
X77660Y146105D01*
X77652Y146080D01*
X77639Y146057D01*
X77599Y145914D01*
X77554Y145773D01*
X77552Y145747D01*
X77544Y145722D01*
X77525Y145478D01*
X77525Y139249D01*
X77539Y139124D01*
X77546Y138998D01*
X77559Y138951D01*
X77565Y138903D01*
X77607Y138784D01*
X77642Y138663D01*
X77666Y138621D01*
X77682Y138575D01*
X77751Y138469D01*
X77812Y138359D01*
X77852Y138312D01*
X77871Y138282D01*
X77906Y138249D01*
X77971Y138172D01*
X78033Y138110D01*
X78368Y137531D01*
X78541Y136885D01*
X78541Y135573D01*
X71500Y135573D01*
X71474Y135570D01*
X71448Y135572D01*
X71301Y135550D01*
X71154Y135534D01*
X71129Y135525D01*
X71103Y135521D01*
X70966Y135466D01*
X70826Y135416D01*
X70804Y135402D01*
X70780Y135392D01*
X70658Y135308D01*
X70533Y135227D01*
X70515Y135208D01*
X70493Y135193D01*
X70394Y135083D01*
X70291Y134976D01*
X70277Y134953D01*
X70259Y134934D01*
X70188Y134804D01*
X70112Y134677D01*
X70104Y134652D01*
X70091Y134629D01*
X70051Y134486D01*
X70005Y134345D01*
X70003Y134319D01*
X69996Y134293D01*
X69977Y134050D01*
X69977Y129009D01*
X66665Y129009D01*
X66019Y129182D01*
X65440Y129517D01*
X64967Y129990D01*
X64632Y130569D01*
X64519Y130991D01*
X64464Y131130D01*
X64414Y131271D01*
X64400Y131292D01*
X64391Y131315D01*
X64306Y131438D01*
X64225Y131564D01*
X64207Y131582D01*
X64193Y131602D01*
X64082Y131702D01*
X63974Y131806D01*
X63953Y131819D01*
X63934Y131836D01*
X63804Y131909D01*
X63675Y131985D01*
X63651Y131993D01*
X63630Y132005D01*
X63486Y132046D01*
X63343Y132092D01*
X63318Y132094D01*
X63295Y132100D01*
X63145Y132107D01*
X62996Y132119D01*
X62971Y132116D01*
X62946Y132117D01*
X62799Y132090D01*
X62651Y132068D01*
X62628Y132059D01*
X62604Y132054D01*
X62466Y131994D01*
X62327Y131939D01*
X62307Y131925D01*
X62284Y131915D01*
X62164Y131826D01*
X62041Y131740D01*
X62024Y131722D01*
X62005Y131707D01*
X61908Y131593D01*
X61808Y131481D01*
X61796Y131460D01*
X61780Y131441D01*
X61712Y131307D01*
X61639Y131176D01*
X61632Y131152D01*
X61621Y131130D01*
X61585Y130985D01*
X61583Y130976D01*
X60632Y130025D01*
X60072Y130025D01*
X60046Y130022D01*
X60020Y130024D01*
X59873Y130002D01*
X59726Y129985D01*
X59701Y129977D01*
X59675Y129973D01*
X59537Y129918D01*
X59398Y129868D01*
X59376Y129854D01*
X59351Y129844D01*
X59230Y129759D01*
X59105Y129679D01*
X59087Y129660D01*
X59065Y129645D01*
X58966Y129535D01*
X58863Y129428D01*
X58849Y129406D01*
X58832Y129386D01*
X58760Y129256D01*
X58684Y129129D01*
X58676Y129104D01*
X58663Y129081D01*
X58623Y128938D01*
X58578Y128797D01*
X58576Y128771D01*
X58568Y128746D01*
X58549Y128502D01*
X58549Y128321D01*
X58563Y128196D01*
X58570Y128069D01*
X58583Y128023D01*
X58589Y127975D01*
X58631Y127856D01*
X58666Y127735D01*
X58690Y127692D01*
X58706Y127647D01*
X58775Y127541D01*
X58836Y127430D01*
X58876Y127384D01*
X58895Y127354D01*
X58930Y127321D01*
X58995Y127244D01*
X64317Y121922D01*
X64416Y121844D01*
X64510Y121759D01*
X64552Y121736D01*
X64590Y121706D01*
X64704Y121652D01*
X64815Y121591D01*
X64861Y121577D01*
X64905Y121557D01*
X65028Y121530D01*
X65150Y121496D01*
X65211Y121491D01*
X65246Y121483D01*
X65294Y121484D01*
X65394Y121476D01*
X150488Y121476D01*
X160211Y111753D01*
X160211Y35994D01*
X160226Y35868D01*
X160232Y35742D01*
X160246Y35696D01*
X160251Y35648D01*
X160294Y35529D01*
X160329Y35407D01*
X160352Y35365D01*
X160369Y35319D01*
X160437Y35213D01*
X160499Y35103D01*
X160538Y35057D01*
X160558Y35027D01*
X160592Y34993D01*
X160657Y34917D01*
X162079Y33495D01*
X162178Y33416D01*
X162272Y33332D01*
X162314Y33308D01*
X162352Y33278D01*
X162466Y33224D01*
X162577Y33163D01*
X162624Y33150D01*
X162667Y33129D01*
X162791Y33103D01*
X162913Y33068D01*
X162973Y33063D01*
X163008Y33056D01*
X163056Y33057D01*
X163156Y33049D01*
X164566Y33049D01*
X166514Y32242D01*
X168005Y30752D01*
X168811Y28804D01*
X168811Y26696D01*
X168005Y24748D01*
X166514Y23258D01*
X164566Y22451D01*
X162459Y22451D01*
X160511Y23258D01*
X159020Y24748D01*
X158214Y26696D01*
X158214Y28106D01*
X158199Y28232D01*
X158193Y28358D01*
X158179Y28404D01*
X158174Y28452D01*
X158131Y28571D01*
X158096Y28693D01*
X158073Y28735D01*
X158056Y28781D01*
X157988Y28887D01*
X157926Y28997D01*
X157887Y29043D01*
X157867Y29073D01*
X157833Y29107D01*
X157768Y29183D01*
X153731Y33220D01*
X153653Y33282D01*
X153580Y33352D01*
X153516Y33390D01*
X153458Y33436D01*
X153367Y33479D01*
X153281Y33531D01*
X153210Y33554D01*
X153143Y33585D01*
X153045Y33607D01*
X152949Y33637D01*
X152875Y33643D01*
X152802Y33659D01*
X152702Y33657D01*
X152602Y33665D01*
X152528Y33654D01*
X152454Y33653D01*
X152357Y33628D01*
X152257Y33613D01*
X152188Y33586D01*
X152116Y33568D01*
X152026Y33522D01*
X151933Y33485D01*
X151872Y33442D01*
X151806Y33408D01*
X151729Y33343D01*
X151647Y33286D01*
X151597Y33231D01*
X151541Y33182D01*
X151481Y33102D01*
X151414Y33027D01*
X151378Y32962D01*
X151333Y32902D01*
X151294Y32810D01*
X151245Y32722D01*
X151225Y32650D01*
X151195Y32582D01*
X151178Y32483D01*
X151150Y32387D01*
X151142Y32287D01*
X151134Y32239D01*
X151136Y32203D01*
X151131Y32143D01*
X151131Y14383D01*
X151145Y14258D01*
X151152Y14132D01*
X151165Y14085D01*
X151171Y14037D01*
X151213Y13918D01*
X151248Y13797D01*
X151272Y13755D01*
X151288Y13709D01*
X151357Y13603D01*
X151418Y13493D01*
X151458Y13446D01*
X151477Y13416D01*
X151512Y13383D01*
X151577Y13306D01*
X153006Y11877D01*
X153105Y11798D01*
X153199Y11714D01*
X153241Y11690D01*
X153279Y11660D01*
X153393Y11606D01*
X153504Y11545D01*
X153551Y11532D01*
X153594Y11511D01*
X153718Y11485D01*
X153840Y11450D01*
X153900Y11445D01*
X153935Y11438D01*
X153983Y11439D01*
X154083Y11431D01*
X266287Y11431D01*
X266412Y11445D01*
G37*
G36*
X47062Y147248D02*
X47062Y147248D01*
X47136Y147250D01*
X47233Y147274D01*
X47333Y147289D01*
X47402Y147317D01*
X47474Y147335D01*
X47564Y147381D01*
X47657Y147418D01*
X47718Y147460D01*
X47784Y147494D01*
X47861Y147560D01*
X47943Y147617D01*
X47993Y147672D01*
X48049Y147720D01*
X48109Y147801D01*
X48176Y147876D01*
X48212Y147941D01*
X48257Y148000D01*
X48296Y148093D01*
X48345Y148181D01*
X48365Y148252D01*
X48395Y148320D01*
X48412Y148419D01*
X48440Y148516D01*
X48440Y148527D01*
X55500Y148527D01*
X55526Y148530D01*
X55552Y148527D01*
X55699Y148549D01*
X55846Y148566D01*
X55871Y148575D01*
X55897Y148579D01*
X56034Y148634D01*
X56174Y148684D01*
X56196Y148698D01*
X56220Y148708D01*
X56342Y148792D01*
X56467Y148873D01*
X56485Y148892D01*
X56507Y148907D01*
X56606Y149017D01*
X56709Y149124D01*
X56723Y149147D01*
X56740Y149166D01*
X56812Y149296D01*
X56888Y149423D01*
X56896Y149448D01*
X56909Y149471D01*
X56949Y149614D01*
X56995Y149755D01*
X56997Y149781D01*
X57004Y149807D01*
X57023Y150050D01*
X57023Y158050D01*
X57023Y163091D01*
X60335Y163091D01*
X60981Y162918D01*
X61560Y162583D01*
X62033Y162110D01*
X62368Y161531D01*
X62481Y161109D01*
X62536Y160969D01*
X62586Y160829D01*
X62600Y160808D01*
X62609Y160785D01*
X62694Y160662D01*
X62775Y160536D01*
X62793Y160518D01*
X62807Y160498D01*
X62918Y160398D01*
X63026Y160294D01*
X63047Y160281D01*
X63066Y160264D01*
X63196Y160191D01*
X63325Y160115D01*
X63349Y160107D01*
X63370Y160095D01*
X63514Y160054D01*
X63657Y160008D01*
X63682Y160006D01*
X63705Y160000D01*
X63855Y159993D01*
X64004Y159981D01*
X64029Y159984D01*
X64054Y159983D01*
X64201Y160010D01*
X64349Y160032D01*
X64372Y160041D01*
X64396Y160046D01*
X64534Y160106D01*
X64673Y160161D01*
X64693Y160175D01*
X64716Y160185D01*
X64836Y160274D01*
X64959Y160360D01*
X64976Y160378D01*
X64995Y160393D01*
X65092Y160507D01*
X65192Y160619D01*
X65204Y160640D01*
X65220Y160659D01*
X65288Y160793D01*
X65361Y160924D01*
X65368Y160948D01*
X65379Y160970D01*
X65415Y161115D01*
X65417Y161124D01*
X66390Y162096D01*
X66429Y162106D01*
X66502Y162115D01*
X66597Y162148D01*
X66694Y162173D01*
X66761Y162207D01*
X66831Y162232D01*
X66915Y162287D01*
X67004Y162333D01*
X67061Y162381D01*
X67123Y162421D01*
X67193Y162493D01*
X67270Y162558D01*
X67314Y162618D01*
X67366Y162672D01*
X67417Y162758D01*
X67477Y162839D01*
X67506Y162907D01*
X67544Y162971D01*
X67575Y163067D01*
X67615Y163159D01*
X67628Y163232D01*
X67651Y163303D01*
X67659Y163403D01*
X67676Y163502D01*
X67673Y163576D01*
X67679Y163650D01*
X67664Y163750D01*
X67659Y163850D01*
X67638Y163921D01*
X67627Y163995D01*
X67590Y164088D01*
X67562Y164185D01*
X67526Y164250D01*
X67498Y164319D01*
X67441Y164401D01*
X67392Y164489D01*
X67327Y164565D01*
X67299Y164605D01*
X67273Y164629D01*
X67233Y164675D01*
X57603Y174305D01*
X57504Y174384D01*
X57410Y174468D01*
X57368Y174492D01*
X57330Y174522D01*
X57216Y174576D01*
X57105Y174637D01*
X57059Y174650D01*
X57015Y174671D01*
X56892Y174697D01*
X56770Y174732D01*
X56709Y174737D01*
X56674Y174744D01*
X56626Y174743D01*
X56526Y174751D01*
X33528Y174751D01*
X33502Y174748D01*
X33476Y174750D01*
X33329Y174728D01*
X33182Y174711D01*
X33157Y174703D01*
X33131Y174699D01*
X32993Y174644D01*
X32854Y174594D01*
X32832Y174580D01*
X32807Y174570D01*
X32686Y174485D01*
X32561Y174405D01*
X32543Y174386D01*
X32521Y174371D01*
X32422Y174261D01*
X32319Y174154D01*
X32305Y174132D01*
X32288Y174112D01*
X32216Y173982D01*
X32140Y173855D01*
X32132Y173830D01*
X32119Y173807D01*
X32079Y173664D01*
X32034Y173523D01*
X32032Y173497D01*
X32024Y173472D01*
X32005Y173228D01*
X32005Y170818D01*
X31112Y169925D01*
X6604Y169925D01*
X6578Y169922D01*
X6552Y169924D01*
X6405Y169902D01*
X6258Y169885D01*
X6233Y169877D01*
X6207Y169873D01*
X6069Y169818D01*
X5930Y169768D01*
X5908Y169754D01*
X5883Y169744D01*
X5762Y169659D01*
X5637Y169579D01*
X5619Y169560D01*
X5597Y169545D01*
X5498Y169435D01*
X5395Y169328D01*
X5381Y169306D01*
X5364Y169286D01*
X5292Y169156D01*
X5216Y169029D01*
X5208Y169004D01*
X5195Y168981D01*
X5155Y168838D01*
X5110Y168697D01*
X5108Y168671D01*
X5100Y168646D01*
X5081Y168402D01*
X5081Y168148D01*
X5084Y168122D01*
X5082Y168096D01*
X5104Y167949D01*
X5121Y167802D01*
X5129Y167777D01*
X5133Y167751D01*
X5188Y167613D01*
X5238Y167474D01*
X5252Y167452D01*
X5262Y167427D01*
X5347Y167306D01*
X5427Y167181D01*
X5446Y167163D01*
X5461Y167141D01*
X5571Y167042D01*
X5678Y166939D01*
X5700Y166925D01*
X5720Y166908D01*
X5850Y166836D01*
X5977Y166760D01*
X6002Y166752D01*
X6025Y166739D01*
X6168Y166699D01*
X6309Y166654D01*
X6335Y166652D01*
X6360Y166644D01*
X6604Y166625D01*
X31112Y166625D01*
X32005Y165732D01*
X32005Y162168D01*
X32019Y162042D01*
X32026Y161916D01*
X32039Y161870D01*
X32045Y161822D01*
X32087Y161703D01*
X32122Y161581D01*
X32146Y161539D01*
X32162Y161493D01*
X32231Y161387D01*
X32292Y161277D01*
X32332Y161231D01*
X32351Y161201D01*
X32386Y161167D01*
X32451Y161091D01*
X33975Y159567D01*
X45859Y147683D01*
X45937Y147620D01*
X46010Y147550D01*
X46074Y147512D01*
X46132Y147466D01*
X46223Y147423D01*
X46309Y147372D01*
X46380Y147349D01*
X46447Y147317D01*
X46545Y147296D01*
X46641Y147265D01*
X46715Y147259D01*
X46788Y147244D01*
X46888Y147245D01*
X46988Y147237D01*
X47062Y147248D01*
G37*
G36*
X116638Y155454D02*
X116638Y155454D01*
X116688Y155452D01*
X116810Y155474D01*
X116934Y155489D01*
X116981Y155506D01*
X117031Y155515D01*
X117145Y155564D01*
X117262Y155606D01*
X117304Y155633D01*
X117350Y155654D01*
X117450Y155728D01*
X117555Y155795D01*
X117590Y155831D01*
X117630Y155861D01*
X117710Y155956D01*
X117797Y156046D01*
X117823Y156089D01*
X117855Y156127D01*
X117912Y156238D01*
X117976Y156345D01*
X117991Y156393D01*
X118014Y156438D01*
X118044Y156558D01*
X118082Y156677D01*
X118086Y156727D01*
X118098Y156776D01*
X118100Y156900D01*
X118110Y157024D01*
X118102Y157074D01*
X118103Y157124D01*
X118077Y157246D01*
X118058Y157369D01*
X118040Y157416D01*
X118029Y157465D01*
X117975Y157577D01*
X117929Y157693D01*
X117901Y157734D01*
X117879Y157780D01*
X117801Y157877D01*
X117730Y157979D01*
X117693Y158013D01*
X117662Y158052D01*
X117564Y158129D01*
X117472Y158212D01*
X117428Y158237D01*
X117388Y158268D01*
X117170Y158379D01*
X116378Y158707D01*
X114257Y160828D01*
X112995Y163875D01*
X112982Y163898D01*
X112974Y163923D01*
X112898Y164051D01*
X112826Y164180D01*
X112808Y164200D01*
X112795Y164222D01*
X112691Y164329D01*
X112592Y164438D01*
X112570Y164453D01*
X112552Y164472D01*
X112427Y164552D01*
X112305Y164636D01*
X112281Y164646D01*
X112259Y164660D01*
X112119Y164710D01*
X111981Y164764D01*
X111955Y164768D01*
X111930Y164777D01*
X111783Y164793D01*
X111636Y164815D01*
X111610Y164813D01*
X111584Y164816D01*
X111437Y164799D01*
X111289Y164786D01*
X111264Y164778D01*
X111238Y164775D01*
X111005Y164700D01*
X110130Y164337D01*
X78046Y164337D01*
X77947Y164326D01*
X77846Y164324D01*
X77774Y164306D01*
X77700Y164297D01*
X77606Y164263D01*
X77508Y164239D01*
X77442Y164205D01*
X77372Y164180D01*
X77288Y164125D01*
X77198Y164079D01*
X77142Y164031D01*
X77079Y163991D01*
X77010Y163919D01*
X76933Y163853D01*
X76889Y163794D01*
X76837Y163740D01*
X76786Y163654D01*
X76726Y163573D01*
X76696Y163505D01*
X76658Y163441D01*
X76628Y163345D01*
X76588Y163253D01*
X76575Y163180D01*
X76552Y163109D01*
X76544Y163009D01*
X76526Y162910D01*
X76530Y162836D01*
X76524Y162762D01*
X76539Y162663D01*
X76544Y162562D01*
X76565Y162491D01*
X76576Y162417D01*
X76613Y162324D01*
X76641Y162227D01*
X76677Y162162D01*
X76705Y162093D01*
X76762Y162011D01*
X76811Y161923D01*
X76876Y161847D01*
X76903Y161807D01*
X76930Y161783D01*
X76969Y161737D01*
X77162Y161545D01*
X77260Y161466D01*
X77354Y161382D01*
X77397Y161358D01*
X77435Y161328D01*
X77549Y161274D01*
X77659Y161213D01*
X77706Y161200D01*
X77750Y161179D01*
X77873Y161153D01*
X77995Y161118D01*
X78055Y161113D01*
X78090Y161106D01*
X78139Y161107D01*
X78239Y161099D01*
X92450Y161099D01*
X97654Y155895D01*
X97753Y155816D01*
X97847Y155732D01*
X97889Y155708D01*
X97927Y155678D01*
X98041Y155624D01*
X98152Y155563D01*
X98199Y155550D01*
X98242Y155529D01*
X98366Y155503D01*
X98488Y155468D01*
X98548Y155463D01*
X98583Y155456D01*
X98631Y155457D01*
X98731Y155449D01*
X116587Y155449D01*
X116638Y155454D01*
G37*
%LPC*%
G36*
X199349Y142199D02*
X199349Y142199D01*
X199349Y149487D01*
X200720Y149042D01*
X202133Y148322D01*
X203417Y147389D01*
X204539Y146267D01*
X205472Y144983D01*
X206192Y143570D01*
X206637Y142199D01*
X199349Y142199D01*
G37*
%LPD*%
%LPC*%
G36*
X199349Y162601D02*
X199349Y162601D01*
X206637Y162601D01*
X206192Y161230D01*
X205472Y159817D01*
X204539Y158533D01*
X203417Y157411D01*
X202133Y156478D01*
X200720Y155758D01*
X199349Y155313D01*
X199349Y162601D01*
G37*
%LPD*%
%LPC*%
G36*
X199349Y137201D02*
X199349Y137201D01*
X206637Y137201D01*
X206192Y135830D01*
X205472Y134417D01*
X204539Y133133D01*
X203417Y132011D01*
X202133Y131078D01*
X200720Y130358D01*
X199349Y129913D01*
X199349Y137201D01*
G37*
%LPD*%
%LPC*%
G36*
X192980Y155758D02*
X192980Y155758D01*
X191567Y156478D01*
X190283Y157411D01*
X189161Y158533D01*
X188228Y159817D01*
X187508Y161230D01*
X187063Y162601D01*
X194351Y162601D01*
X194351Y155313D01*
X192980Y155758D01*
G37*
%LPD*%
%LPC*%
G36*
X48459Y151573D02*
X48459Y151573D01*
X48459Y152885D01*
X48666Y153656D01*
X48681Y153756D01*
X48705Y153855D01*
X48706Y153928D01*
X48717Y154000D01*
X48709Y154102D01*
X48710Y154204D01*
X48692Y154300D01*
X48688Y154348D01*
X48677Y154383D01*
X48666Y154444D01*
X48459Y155215D01*
X48459Y156527D01*
X53977Y156527D01*
X53977Y151573D01*
X48459Y151573D01*
G37*
%LPD*%
%LPC*%
G36*
X48459Y159573D02*
X48459Y159573D01*
X48459Y160885D01*
X48632Y161531D01*
X48967Y162110D01*
X49440Y162583D01*
X50019Y162918D01*
X50665Y163091D01*
X53977Y163091D01*
X53977Y159573D01*
X48459Y159573D01*
G37*
%LPD*%
%LPC*%
G36*
X73023Y129009D02*
X73023Y129009D01*
X73023Y132527D01*
X78541Y132527D01*
X78541Y131215D01*
X78368Y130569D01*
X78033Y129990D01*
X77560Y129517D01*
X76981Y129182D01*
X76335Y129009D01*
X73023Y129009D01*
G37*
%LPD*%
D10*
X70200Y200100D02*
X70208Y200714D01*
X70230Y201327D01*
X70268Y201939D01*
X70320Y202550D01*
X70388Y203160D01*
X70471Y203768D01*
X70568Y204374D01*
X70680Y204977D01*
X70807Y205578D01*
X70949Y206175D01*
X71106Y206768D01*
X71276Y207357D01*
X71462Y207942D01*
X71661Y208522D01*
X71875Y209097D01*
X72103Y209667D01*
X72345Y210231D01*
X72600Y210789D01*
X72869Y211340D01*
X73152Y211885D01*
X73448Y212422D01*
X73757Y212953D01*
X74079Y213475D01*
X74413Y213989D01*
X74760Y214495D01*
X75120Y214992D01*
X75491Y215481D01*
X75875Y215960D01*
X76270Y216429D01*
X76676Y216889D01*
X77094Y217339D01*
X77522Y217778D01*
X77961Y218206D01*
X78411Y218624D01*
X78871Y219030D01*
X79340Y219425D01*
X79819Y219809D01*
X80308Y220180D01*
X80805Y220540D01*
X81311Y220887D01*
X81825Y221221D01*
X82347Y221543D01*
X82878Y221852D01*
X83415Y222148D01*
X83960Y222431D01*
X84511Y222700D01*
X85069Y222955D01*
X85633Y223197D01*
X86203Y223425D01*
X86778Y223639D01*
X87358Y223838D01*
X87943Y224024D01*
X88532Y224194D01*
X89125Y224351D01*
X89722Y224493D01*
X90323Y224620D01*
X90926Y224732D01*
X91532Y224829D01*
X92140Y224912D01*
X92750Y224980D01*
X93361Y225032D01*
X93973Y225070D01*
X94586Y225092D01*
X95200Y225100D01*
X95814Y225092D01*
X96427Y225070D01*
X97039Y225032D01*
X97650Y224980D01*
X98260Y224912D01*
X98868Y224829D01*
X99474Y224732D01*
X100077Y224620D01*
X100678Y224493D01*
X101275Y224351D01*
X101868Y224194D01*
X102457Y224024D01*
X103042Y223838D01*
X103622Y223639D01*
X104197Y223425D01*
X104767Y223197D01*
X105331Y222955D01*
X105889Y222700D01*
X106440Y222431D01*
X106985Y222148D01*
X107522Y221852D01*
X108053Y221543D01*
X108575Y221221D01*
X109089Y220887D01*
X109595Y220540D01*
X110092Y220180D01*
X110581Y219809D01*
X111060Y219425D01*
X111529Y219030D01*
X111989Y218624D01*
X112439Y218206D01*
X112878Y217778D01*
X113306Y217339D01*
X113724Y216889D01*
X114130Y216429D01*
X114525Y215960D01*
X114909Y215481D01*
X115280Y214992D01*
X115640Y214495D01*
X115987Y213989D01*
X116321Y213475D01*
X116643Y212953D01*
X116952Y212422D01*
X117248Y211885D01*
X117531Y211340D01*
X117800Y210789D01*
X118055Y210231D01*
X118297Y209667D01*
X118525Y209097D01*
X118739Y208522D01*
X118938Y207942D01*
X119124Y207357D01*
X119294Y206768D01*
X119451Y206175D01*
X119593Y205578D01*
X119720Y204977D01*
X119832Y204374D01*
X119929Y203768D01*
X120012Y203160D01*
X120080Y202550D01*
X120132Y201939D01*
X120170Y201327D01*
X120192Y200714D01*
X120200Y200100D01*
X120192Y199486D01*
X120170Y198873D01*
X120132Y198261D01*
X120080Y197650D01*
X120012Y197040D01*
X119929Y196432D01*
X119832Y195826D01*
X119720Y195223D01*
X119593Y194622D01*
X119451Y194025D01*
X119294Y193432D01*
X119124Y192843D01*
X118938Y192258D01*
X118739Y191678D01*
X118525Y191103D01*
X118297Y190533D01*
X118055Y189969D01*
X117800Y189411D01*
X117531Y188860D01*
X117248Y188315D01*
X116952Y187778D01*
X116643Y187247D01*
X116321Y186725D01*
X115987Y186211D01*
X115640Y185705D01*
X115280Y185208D01*
X114909Y184719D01*
X114525Y184240D01*
X114130Y183771D01*
X113724Y183311D01*
X113306Y182861D01*
X112878Y182422D01*
X112439Y181994D01*
X111989Y181576D01*
X111529Y181170D01*
X111060Y180775D01*
X110581Y180391D01*
X110092Y180020D01*
X109595Y179660D01*
X109089Y179313D01*
X108575Y178979D01*
X108053Y178657D01*
X107522Y178348D01*
X106985Y178052D01*
X106440Y177769D01*
X105889Y177500D01*
X105331Y177245D01*
X104767Y177003D01*
X104197Y176775D01*
X103622Y176561D01*
X103042Y176362D01*
X102457Y176176D01*
X101868Y176006D01*
X101275Y175849D01*
X100678Y175707D01*
X100077Y175580D01*
X99474Y175468D01*
X98868Y175371D01*
X98260Y175288D01*
X97650Y175220D01*
X97039Y175168D01*
X96427Y175130D01*
X95814Y175108D01*
X95200Y175100D01*
X94586Y175108D01*
X93973Y175130D01*
X93361Y175168D01*
X92750Y175220D01*
X92140Y175288D01*
X91532Y175371D01*
X90926Y175468D01*
X90323Y175580D01*
X89722Y175707D01*
X89125Y175849D01*
X88532Y176006D01*
X87943Y176176D01*
X87358Y176362D01*
X86778Y176561D01*
X86203Y176775D01*
X85633Y177003D01*
X85069Y177245D01*
X84511Y177500D01*
X83960Y177769D01*
X83415Y178052D01*
X82878Y178348D01*
X82347Y178657D01*
X81825Y178979D01*
X81311Y179313D01*
X80805Y179660D01*
X80308Y180020D01*
X79819Y180391D01*
X79340Y180775D01*
X78871Y181170D01*
X78411Y181576D01*
X77961Y181994D01*
X77522Y182422D01*
X77094Y182861D01*
X76676Y183311D01*
X76270Y183771D01*
X75875Y184240D01*
X75491Y184719D01*
X75120Y185208D01*
X74760Y185705D01*
X74413Y186211D01*
X74079Y186725D01*
X73757Y187247D01*
X73448Y187778D01*
X73152Y188315D01*
X72869Y188860D01*
X72600Y189411D01*
X72345Y189969D01*
X72103Y190533D01*
X71875Y191103D01*
X71661Y191678D01*
X71462Y192258D01*
X71276Y192843D01*
X71106Y193432D01*
X70949Y194025D01*
X70807Y194622D01*
X70680Y195223D01*
X70568Y195826D01*
X70471Y196432D01*
X70388Y197040D01*
X70320Y197650D01*
X70268Y198261D01*
X70230Y198873D01*
X70208Y199486D01*
X70200Y200100D01*
X144780Y114300D02*
X148590Y110490D01*
X148590Y12700D01*
X152400Y8890D01*
X267970Y8890D01*
X270510Y11430D01*
X270510Y171450D01*
X228600Y213360D01*
X5080Y205740D02*
X2540Y203200D01*
X2540Y118110D01*
X6350Y114300D01*
X144780Y114300D01*
X101600Y213360D02*
X228600Y213360D01*
X101600Y213360D02*
X93980Y205740D01*
X5080Y205740D01*
D11*
X55500Y134050D03*
X55500Y142050D03*
X55500Y150050D03*
X55500Y158050D03*
X71500Y158050D03*
X71500Y150050D03*
X71500Y142050D03*
X71500Y134050D03*
D12*
X17780Y139700D03*
X17780Y158750D03*
X17780Y177800D03*
D13*
X247650Y139700D03*
D14*
X247650Y165100D03*
X222250Y139700D03*
X222250Y165100D03*
X196850Y139700D03*
X196850Y165100D03*
X146050Y165100D03*
D10*
X141050Y139700D02*
X141052Y139841D01*
X141058Y139982D01*
X141068Y140122D01*
X141082Y140262D01*
X141100Y140402D01*
X141121Y140541D01*
X141147Y140680D01*
X141176Y140818D01*
X141210Y140954D01*
X141247Y141090D01*
X141288Y141225D01*
X141333Y141359D01*
X141382Y141491D01*
X141434Y141622D01*
X141490Y141751D01*
X141550Y141878D01*
X141613Y142004D01*
X141679Y142128D01*
X141750Y142251D01*
X141823Y142371D01*
X141900Y142489D01*
X141980Y142605D01*
X142064Y142718D01*
X142150Y142829D01*
X142240Y142938D01*
X142333Y143044D01*
X142428Y143147D01*
X142527Y143248D01*
X142628Y143346D01*
X142732Y143441D01*
X142839Y143533D01*
X142948Y143622D01*
X143060Y143707D01*
X143174Y143790D01*
X143290Y143870D01*
X143409Y143946D01*
X143530Y144018D01*
X143652Y144088D01*
X143777Y144153D01*
X143903Y144216D01*
X144031Y144274D01*
X144161Y144329D01*
X144292Y144381D01*
X144425Y144428D01*
X144559Y144472D01*
X144694Y144513D01*
X144830Y144549D01*
X144967Y144581D01*
X145105Y144610D01*
X145243Y144635D01*
X145383Y144655D01*
X145523Y144672D01*
X145663Y144685D01*
X145804Y144694D01*
X145944Y144699D01*
X146085Y144700D01*
X146226Y144697D01*
X146367Y144690D01*
X146507Y144679D01*
X146647Y144664D01*
X146787Y144645D01*
X146926Y144623D01*
X147064Y144596D01*
X147202Y144566D01*
X147338Y144531D01*
X147474Y144493D01*
X147608Y144451D01*
X147742Y144405D01*
X147874Y144356D01*
X148004Y144302D01*
X148133Y144245D01*
X148260Y144185D01*
X148386Y144121D01*
X148509Y144053D01*
X148631Y143982D01*
X148751Y143908D01*
X148868Y143830D01*
X148983Y143749D01*
X149096Y143665D01*
X149207Y143578D01*
X149315Y143487D01*
X149420Y143394D01*
X149523Y143297D01*
X149623Y143198D01*
X149720Y143096D01*
X149814Y142991D01*
X149905Y142884D01*
X149993Y142774D01*
X150078Y142662D01*
X150160Y142547D01*
X150239Y142430D01*
X150314Y142311D01*
X150386Y142190D01*
X150454Y142067D01*
X150519Y141942D01*
X150581Y141815D01*
X150638Y141686D01*
X150693Y141556D01*
X150743Y141425D01*
X150790Y141292D01*
X150833Y141158D01*
X150872Y141022D01*
X150907Y140886D01*
X150939Y140749D01*
X150966Y140611D01*
X150990Y140472D01*
X151010Y140332D01*
X151026Y140192D01*
X151038Y140052D01*
X151046Y139911D01*
X151050Y139770D01*
X151050Y139630D01*
X151046Y139489D01*
X151038Y139348D01*
X151026Y139208D01*
X151010Y139068D01*
X150990Y138928D01*
X150966Y138789D01*
X150939Y138651D01*
X150907Y138514D01*
X150872Y138378D01*
X150833Y138242D01*
X150790Y138108D01*
X150743Y137975D01*
X150693Y137844D01*
X150638Y137714D01*
X150581Y137585D01*
X150519Y137458D01*
X150454Y137333D01*
X150386Y137210D01*
X150314Y137089D01*
X150239Y136970D01*
X150160Y136853D01*
X150078Y136738D01*
X149993Y136626D01*
X149905Y136516D01*
X149814Y136409D01*
X149720Y136304D01*
X149623Y136202D01*
X149523Y136103D01*
X149420Y136006D01*
X149315Y135913D01*
X149207Y135822D01*
X149096Y135735D01*
X148983Y135651D01*
X148868Y135570D01*
X148751Y135492D01*
X148631Y135418D01*
X148509Y135347D01*
X148386Y135279D01*
X148260Y135215D01*
X148133Y135155D01*
X148004Y135098D01*
X147874Y135044D01*
X147742Y134995D01*
X147608Y134949D01*
X147474Y134907D01*
X147338Y134869D01*
X147202Y134834D01*
X147064Y134804D01*
X146926Y134777D01*
X146787Y134755D01*
X146647Y134736D01*
X146507Y134721D01*
X146367Y134710D01*
X146226Y134703D01*
X146085Y134700D01*
X145944Y134701D01*
X145804Y134706D01*
X145663Y134715D01*
X145523Y134728D01*
X145383Y134745D01*
X145243Y134765D01*
X145105Y134790D01*
X144967Y134819D01*
X144830Y134851D01*
X144694Y134887D01*
X144559Y134928D01*
X144425Y134972D01*
X144292Y135019D01*
X144161Y135071D01*
X144031Y135126D01*
X143903Y135184D01*
X143777Y135247D01*
X143652Y135312D01*
X143530Y135382D01*
X143409Y135454D01*
X143290Y135530D01*
X143174Y135610D01*
X143060Y135693D01*
X142948Y135778D01*
X142839Y135867D01*
X142732Y135959D01*
X142628Y136054D01*
X142527Y136152D01*
X142428Y136253D01*
X142333Y136356D01*
X142240Y136462D01*
X142150Y136571D01*
X142064Y136682D01*
X141980Y136795D01*
X141900Y136911D01*
X141823Y137029D01*
X141750Y137149D01*
X141679Y137272D01*
X141613Y137396D01*
X141550Y137522D01*
X141490Y137649D01*
X141434Y137778D01*
X141382Y137909D01*
X141333Y138041D01*
X141288Y138175D01*
X141247Y138310D01*
X141210Y138446D01*
X141176Y138582D01*
X141147Y138720D01*
X141121Y138859D01*
X141100Y138998D01*
X141082Y139138D01*
X141068Y139278D01*
X141058Y139418D01*
X141052Y139559D01*
X141050Y139700D01*
X115650Y139700D02*
X115652Y139841D01*
X115658Y139982D01*
X115668Y140122D01*
X115682Y140262D01*
X115700Y140402D01*
X115721Y140541D01*
X115747Y140680D01*
X115776Y140818D01*
X115810Y140954D01*
X115847Y141090D01*
X115888Y141225D01*
X115933Y141359D01*
X115982Y141491D01*
X116034Y141622D01*
X116090Y141751D01*
X116150Y141878D01*
X116213Y142004D01*
X116279Y142128D01*
X116350Y142251D01*
X116423Y142371D01*
X116500Y142489D01*
X116580Y142605D01*
X116664Y142718D01*
X116750Y142829D01*
X116840Y142938D01*
X116933Y143044D01*
X117028Y143147D01*
X117127Y143248D01*
X117228Y143346D01*
X117332Y143441D01*
X117439Y143533D01*
X117548Y143622D01*
X117660Y143707D01*
X117774Y143790D01*
X117890Y143870D01*
X118009Y143946D01*
X118130Y144018D01*
X118252Y144088D01*
X118377Y144153D01*
X118503Y144216D01*
X118631Y144274D01*
X118761Y144329D01*
X118892Y144381D01*
X119025Y144428D01*
X119159Y144472D01*
X119294Y144513D01*
X119430Y144549D01*
X119567Y144581D01*
X119705Y144610D01*
X119843Y144635D01*
X119983Y144655D01*
X120123Y144672D01*
X120263Y144685D01*
X120404Y144694D01*
X120544Y144699D01*
X120685Y144700D01*
X120826Y144697D01*
X120967Y144690D01*
X121107Y144679D01*
X121247Y144664D01*
X121387Y144645D01*
X121526Y144623D01*
X121664Y144596D01*
X121802Y144566D01*
X121938Y144531D01*
X122074Y144493D01*
X122208Y144451D01*
X122342Y144405D01*
X122474Y144356D01*
X122604Y144302D01*
X122733Y144245D01*
X122860Y144185D01*
X122986Y144121D01*
X123109Y144053D01*
X123231Y143982D01*
X123351Y143908D01*
X123468Y143830D01*
X123583Y143749D01*
X123696Y143665D01*
X123807Y143578D01*
X123915Y143487D01*
X124020Y143394D01*
X124123Y143297D01*
X124223Y143198D01*
X124320Y143096D01*
X124414Y142991D01*
X124505Y142884D01*
X124593Y142774D01*
X124678Y142662D01*
X124760Y142547D01*
X124839Y142430D01*
X124914Y142311D01*
X124986Y142190D01*
X125054Y142067D01*
X125119Y141942D01*
X125181Y141815D01*
X125238Y141686D01*
X125293Y141556D01*
X125343Y141425D01*
X125390Y141292D01*
X125433Y141158D01*
X125472Y141022D01*
X125507Y140886D01*
X125539Y140749D01*
X125566Y140611D01*
X125590Y140472D01*
X125610Y140332D01*
X125626Y140192D01*
X125638Y140052D01*
X125646Y139911D01*
X125650Y139770D01*
X125650Y139630D01*
X125646Y139489D01*
X125638Y139348D01*
X125626Y139208D01*
X125610Y139068D01*
X125590Y138928D01*
X125566Y138789D01*
X125539Y138651D01*
X125507Y138514D01*
X125472Y138378D01*
X125433Y138242D01*
X125390Y138108D01*
X125343Y137975D01*
X125293Y137844D01*
X125238Y137714D01*
X125181Y137585D01*
X125119Y137458D01*
X125054Y137333D01*
X124986Y137210D01*
X124914Y137089D01*
X124839Y136970D01*
X124760Y136853D01*
X124678Y136738D01*
X124593Y136626D01*
X124505Y136516D01*
X124414Y136409D01*
X124320Y136304D01*
X124223Y136202D01*
X124123Y136103D01*
X124020Y136006D01*
X123915Y135913D01*
X123807Y135822D01*
X123696Y135735D01*
X123583Y135651D01*
X123468Y135570D01*
X123351Y135492D01*
X123231Y135418D01*
X123109Y135347D01*
X122986Y135279D01*
X122860Y135215D01*
X122733Y135155D01*
X122604Y135098D01*
X122474Y135044D01*
X122342Y134995D01*
X122208Y134949D01*
X122074Y134907D01*
X121938Y134869D01*
X121802Y134834D01*
X121664Y134804D01*
X121526Y134777D01*
X121387Y134755D01*
X121247Y134736D01*
X121107Y134721D01*
X120967Y134710D01*
X120826Y134703D01*
X120685Y134700D01*
X120544Y134701D01*
X120404Y134706D01*
X120263Y134715D01*
X120123Y134728D01*
X119983Y134745D01*
X119843Y134765D01*
X119705Y134790D01*
X119567Y134819D01*
X119430Y134851D01*
X119294Y134887D01*
X119159Y134928D01*
X119025Y134972D01*
X118892Y135019D01*
X118761Y135071D01*
X118631Y135126D01*
X118503Y135184D01*
X118377Y135247D01*
X118252Y135312D01*
X118130Y135382D01*
X118009Y135454D01*
X117890Y135530D01*
X117774Y135610D01*
X117660Y135693D01*
X117548Y135778D01*
X117439Y135867D01*
X117332Y135959D01*
X117228Y136054D01*
X117127Y136152D01*
X117028Y136253D01*
X116933Y136356D01*
X116840Y136462D01*
X116750Y136571D01*
X116664Y136682D01*
X116580Y136795D01*
X116500Y136911D01*
X116423Y137029D01*
X116350Y137149D01*
X116279Y137272D01*
X116213Y137396D01*
X116150Y137522D01*
X116090Y137649D01*
X116034Y137778D01*
X115982Y137909D01*
X115933Y138041D01*
X115888Y138175D01*
X115847Y138310D01*
X115810Y138446D01*
X115776Y138582D01*
X115747Y138720D01*
X115721Y138859D01*
X115700Y138998D01*
X115682Y139138D01*
X115668Y139278D01*
X115658Y139418D01*
X115652Y139559D01*
X115650Y139700D01*
X115650Y165100D02*
X115652Y165241D01*
X115658Y165382D01*
X115668Y165522D01*
X115682Y165662D01*
X115700Y165802D01*
X115721Y165941D01*
X115747Y166080D01*
X115776Y166218D01*
X115810Y166354D01*
X115847Y166490D01*
X115888Y166625D01*
X115933Y166759D01*
X115982Y166891D01*
X116034Y167022D01*
X116090Y167151D01*
X116150Y167278D01*
X116213Y167404D01*
X116279Y167528D01*
X116350Y167651D01*
X116423Y167771D01*
X116500Y167889D01*
X116580Y168005D01*
X116664Y168118D01*
X116750Y168229D01*
X116840Y168338D01*
X116933Y168444D01*
X117028Y168547D01*
X117127Y168648D01*
X117228Y168746D01*
X117332Y168841D01*
X117439Y168933D01*
X117548Y169022D01*
X117660Y169107D01*
X117774Y169190D01*
X117890Y169270D01*
X118009Y169346D01*
X118130Y169418D01*
X118252Y169488D01*
X118377Y169553D01*
X118503Y169616D01*
X118631Y169674D01*
X118761Y169729D01*
X118892Y169781D01*
X119025Y169828D01*
X119159Y169872D01*
X119294Y169913D01*
X119430Y169949D01*
X119567Y169981D01*
X119705Y170010D01*
X119843Y170035D01*
X119983Y170055D01*
X120123Y170072D01*
X120263Y170085D01*
X120404Y170094D01*
X120544Y170099D01*
X120685Y170100D01*
X120826Y170097D01*
X120967Y170090D01*
X121107Y170079D01*
X121247Y170064D01*
X121387Y170045D01*
X121526Y170023D01*
X121664Y169996D01*
X121802Y169966D01*
X121938Y169931D01*
X122074Y169893D01*
X122208Y169851D01*
X122342Y169805D01*
X122474Y169756D01*
X122604Y169702D01*
X122733Y169645D01*
X122860Y169585D01*
X122986Y169521D01*
X123109Y169453D01*
X123231Y169382D01*
X123351Y169308D01*
X123468Y169230D01*
X123583Y169149D01*
X123696Y169065D01*
X123807Y168978D01*
X123915Y168887D01*
X124020Y168794D01*
X124123Y168697D01*
X124223Y168598D01*
X124320Y168496D01*
X124414Y168391D01*
X124505Y168284D01*
X124593Y168174D01*
X124678Y168062D01*
X124760Y167947D01*
X124839Y167830D01*
X124914Y167711D01*
X124986Y167590D01*
X125054Y167467D01*
X125119Y167342D01*
X125181Y167215D01*
X125238Y167086D01*
X125293Y166956D01*
X125343Y166825D01*
X125390Y166692D01*
X125433Y166558D01*
X125472Y166422D01*
X125507Y166286D01*
X125539Y166149D01*
X125566Y166011D01*
X125590Y165872D01*
X125610Y165732D01*
X125626Y165592D01*
X125638Y165452D01*
X125646Y165311D01*
X125650Y165170D01*
X125650Y165030D01*
X125646Y164889D01*
X125638Y164748D01*
X125626Y164608D01*
X125610Y164468D01*
X125590Y164328D01*
X125566Y164189D01*
X125539Y164051D01*
X125507Y163914D01*
X125472Y163778D01*
X125433Y163642D01*
X125390Y163508D01*
X125343Y163375D01*
X125293Y163244D01*
X125238Y163114D01*
X125181Y162985D01*
X125119Y162858D01*
X125054Y162733D01*
X124986Y162610D01*
X124914Y162489D01*
X124839Y162370D01*
X124760Y162253D01*
X124678Y162138D01*
X124593Y162026D01*
X124505Y161916D01*
X124414Y161809D01*
X124320Y161704D01*
X124223Y161602D01*
X124123Y161503D01*
X124020Y161406D01*
X123915Y161313D01*
X123807Y161222D01*
X123696Y161135D01*
X123583Y161051D01*
X123468Y160970D01*
X123351Y160892D01*
X123231Y160818D01*
X123109Y160747D01*
X122986Y160679D01*
X122860Y160615D01*
X122733Y160555D01*
X122604Y160498D01*
X122474Y160444D01*
X122342Y160395D01*
X122208Y160349D01*
X122074Y160307D01*
X121938Y160269D01*
X121802Y160234D01*
X121664Y160204D01*
X121526Y160177D01*
X121387Y160155D01*
X121247Y160136D01*
X121107Y160121D01*
X120967Y160110D01*
X120826Y160103D01*
X120685Y160100D01*
X120544Y160101D01*
X120404Y160106D01*
X120263Y160115D01*
X120123Y160128D01*
X119983Y160145D01*
X119843Y160165D01*
X119705Y160190D01*
X119567Y160219D01*
X119430Y160251D01*
X119294Y160287D01*
X119159Y160328D01*
X119025Y160372D01*
X118892Y160419D01*
X118761Y160471D01*
X118631Y160526D01*
X118503Y160584D01*
X118377Y160647D01*
X118252Y160712D01*
X118130Y160782D01*
X118009Y160854D01*
X117890Y160930D01*
X117774Y161010D01*
X117660Y161093D01*
X117548Y161178D01*
X117439Y161267D01*
X117332Y161359D01*
X117228Y161454D01*
X117127Y161552D01*
X117028Y161653D01*
X116933Y161756D01*
X116840Y161862D01*
X116750Y161971D01*
X116664Y162082D01*
X116580Y162195D01*
X116500Y162311D01*
X116423Y162429D01*
X116350Y162549D01*
X116279Y162672D01*
X116213Y162796D01*
X116150Y162922D01*
X116090Y163049D01*
X116034Y163178D01*
X115982Y163309D01*
X115933Y163441D01*
X115888Y163575D01*
X115847Y163710D01*
X115810Y163846D01*
X115776Y163982D01*
X115747Y164120D01*
X115721Y164259D01*
X115700Y164398D01*
X115682Y164538D01*
X115668Y164678D01*
X115658Y164818D01*
X115652Y164959D01*
X115650Y165100D01*
D14*
X171450Y139700D03*
D10*
X166450Y165100D02*
X166452Y165241D01*
X166458Y165382D01*
X166468Y165522D01*
X166482Y165662D01*
X166500Y165802D01*
X166521Y165941D01*
X166547Y166080D01*
X166576Y166218D01*
X166610Y166354D01*
X166647Y166490D01*
X166688Y166625D01*
X166733Y166759D01*
X166782Y166891D01*
X166834Y167022D01*
X166890Y167151D01*
X166950Y167278D01*
X167013Y167404D01*
X167079Y167528D01*
X167150Y167651D01*
X167223Y167771D01*
X167300Y167889D01*
X167380Y168005D01*
X167464Y168118D01*
X167550Y168229D01*
X167640Y168338D01*
X167733Y168444D01*
X167828Y168547D01*
X167927Y168648D01*
X168028Y168746D01*
X168132Y168841D01*
X168239Y168933D01*
X168348Y169022D01*
X168460Y169107D01*
X168574Y169190D01*
X168690Y169270D01*
X168809Y169346D01*
X168930Y169418D01*
X169052Y169488D01*
X169177Y169553D01*
X169303Y169616D01*
X169431Y169674D01*
X169561Y169729D01*
X169692Y169781D01*
X169825Y169828D01*
X169959Y169872D01*
X170094Y169913D01*
X170230Y169949D01*
X170367Y169981D01*
X170505Y170010D01*
X170643Y170035D01*
X170783Y170055D01*
X170923Y170072D01*
X171063Y170085D01*
X171204Y170094D01*
X171344Y170099D01*
X171485Y170100D01*
X171626Y170097D01*
X171767Y170090D01*
X171907Y170079D01*
X172047Y170064D01*
X172187Y170045D01*
X172326Y170023D01*
X172464Y169996D01*
X172602Y169966D01*
X172738Y169931D01*
X172874Y169893D01*
X173008Y169851D01*
X173142Y169805D01*
X173274Y169756D01*
X173404Y169702D01*
X173533Y169645D01*
X173660Y169585D01*
X173786Y169521D01*
X173909Y169453D01*
X174031Y169382D01*
X174151Y169308D01*
X174268Y169230D01*
X174383Y169149D01*
X174496Y169065D01*
X174607Y168978D01*
X174715Y168887D01*
X174820Y168794D01*
X174923Y168697D01*
X175023Y168598D01*
X175120Y168496D01*
X175214Y168391D01*
X175305Y168284D01*
X175393Y168174D01*
X175478Y168062D01*
X175560Y167947D01*
X175639Y167830D01*
X175714Y167711D01*
X175786Y167590D01*
X175854Y167467D01*
X175919Y167342D01*
X175981Y167215D01*
X176038Y167086D01*
X176093Y166956D01*
X176143Y166825D01*
X176190Y166692D01*
X176233Y166558D01*
X176272Y166422D01*
X176307Y166286D01*
X176339Y166149D01*
X176366Y166011D01*
X176390Y165872D01*
X176410Y165732D01*
X176426Y165592D01*
X176438Y165452D01*
X176446Y165311D01*
X176450Y165170D01*
X176450Y165030D01*
X176446Y164889D01*
X176438Y164748D01*
X176426Y164608D01*
X176410Y164468D01*
X176390Y164328D01*
X176366Y164189D01*
X176339Y164051D01*
X176307Y163914D01*
X176272Y163778D01*
X176233Y163642D01*
X176190Y163508D01*
X176143Y163375D01*
X176093Y163244D01*
X176038Y163114D01*
X175981Y162985D01*
X175919Y162858D01*
X175854Y162733D01*
X175786Y162610D01*
X175714Y162489D01*
X175639Y162370D01*
X175560Y162253D01*
X175478Y162138D01*
X175393Y162026D01*
X175305Y161916D01*
X175214Y161809D01*
X175120Y161704D01*
X175023Y161602D01*
X174923Y161503D01*
X174820Y161406D01*
X174715Y161313D01*
X174607Y161222D01*
X174496Y161135D01*
X174383Y161051D01*
X174268Y160970D01*
X174151Y160892D01*
X174031Y160818D01*
X173909Y160747D01*
X173786Y160679D01*
X173660Y160615D01*
X173533Y160555D01*
X173404Y160498D01*
X173274Y160444D01*
X173142Y160395D01*
X173008Y160349D01*
X172874Y160307D01*
X172738Y160269D01*
X172602Y160234D01*
X172464Y160204D01*
X172326Y160177D01*
X172187Y160155D01*
X172047Y160136D01*
X171907Y160121D01*
X171767Y160110D01*
X171626Y160103D01*
X171485Y160100D01*
X171344Y160101D01*
X171204Y160106D01*
X171063Y160115D01*
X170923Y160128D01*
X170783Y160145D01*
X170643Y160165D01*
X170505Y160190D01*
X170367Y160219D01*
X170230Y160251D01*
X170094Y160287D01*
X169959Y160328D01*
X169825Y160372D01*
X169692Y160419D01*
X169561Y160471D01*
X169431Y160526D01*
X169303Y160584D01*
X169177Y160647D01*
X169052Y160712D01*
X168930Y160782D01*
X168809Y160854D01*
X168690Y160930D01*
X168574Y161010D01*
X168460Y161093D01*
X168348Y161178D01*
X168239Y161267D01*
X168132Y161359D01*
X168028Y161454D01*
X167927Y161552D01*
X167828Y161653D01*
X167733Y161756D01*
X167640Y161862D01*
X167550Y161971D01*
X167464Y162082D01*
X167380Y162195D01*
X167300Y162311D01*
X167223Y162429D01*
X167150Y162549D01*
X167079Y162672D01*
X167013Y162796D01*
X166950Y162922D01*
X166890Y163049D01*
X166834Y163178D01*
X166782Y163309D01*
X166733Y163441D01*
X166688Y163575D01*
X166647Y163710D01*
X166610Y163846D01*
X166576Y163982D01*
X166547Y164120D01*
X166521Y164259D01*
X166500Y164398D01*
X166482Y164538D01*
X166468Y164678D01*
X166458Y164818D01*
X166452Y164959D01*
X166450Y165100D01*
D12*
X17780Y196850D03*
D15*
X41910Y160020D03*
X86360Y139700D03*
X212725Y22225D03*
X174625Y125730D03*
X196850Y88900D03*
X231775Y22225D03*
X233363Y55563D03*
X104140Y160020D03*
X215265Y125730D03*
X50800Y168910D03*
X93980Y132080D03*
D16*
X55500Y134050D02*
X55500Y126428D01*
X63500Y118428D01*
X149225Y118428D01*
X157163Y110490D01*
D15*
X163513Y27750D03*
D16*
X55500Y134050D02*
X43750Y134050D01*
X38100Y139700D01*
X17780Y139700D01*
X157163Y110490D02*
X157163Y34100D01*
X163513Y27750D01*
X71500Y142050D02*
X55500Y142050D01*
X71500Y142050D02*
X71500Y150050D01*
X111125Y128588D02*
X160338Y128588D01*
X169863Y119063D02*
X169863Y42863D01*
X174625Y38100D01*
D15*
X174625Y38100D03*
D16*
X169863Y119063D02*
X160338Y128588D01*
X55500Y142050D02*
X47180Y142050D01*
X30480Y158750D01*
X17780Y158750D01*
X71500Y150050D02*
X89663Y150050D01*
X111125Y128588D01*
D17*
X146050Y165100D02*
X160338Y179388D01*
X227013Y179388D01*
X234950Y171450D01*
D15*
X234950Y66675D03*
D17*
X234950Y171450D01*
D18*
X50800Y196850D02*
X17780Y196850D01*
X78740Y168910D02*
X109220Y168910D01*
X121920Y181610D01*
X140970Y181610D01*
X146050Y176530D01*
X146050Y165100D01*
X78740Y168910D02*
X50800Y196850D01*
D15*
X209550Y40750D03*
D16*
X209550Y101600D01*
X184150Y127000D01*
X184150Y146050D01*
X177800Y152400D01*
X96838Y152400D01*
X91188Y158050D02*
X71500Y158050D01*
X91188Y158050D02*
X96838Y152400D01*
X58420Y177800D02*
X17780Y177800D01*
X58420Y177800D02*
X71500Y164720D01*
X71500Y158050D01*
M02*
