G04 EAGLE Gerber X2 export*
G75*
%MOMM*%
%FSLAX34Y34*%
%LPD*%
%AMOC8*
5,1,8,0,0,1.08239X$1,22.5*%
G01*
%ADD10C,0.000000*%
%ADD11R,1.000000X0.600000*%
%ADD12R,1.371600X1.625600*%
%ADD13R,1.451600X0.551600*%
%ADD14R,1.701600X0.901600*%


D10*
X0Y-36000D02*
X3000Y-39000D01*
X32500Y-39000D01*
X39000Y-45500D01*
X39000Y-97500D01*
X45500Y-104000D01*
X156000Y-104000D01*
X162500Y-97500D01*
X162500Y130000D01*
X156000Y136500D01*
X81500Y136500D01*
X65500Y120500D01*
X7000Y120500D01*
X0Y113500D01*
X0Y107500D01*
X0Y94000D02*
X0Y75000D01*
X1000Y74000D01*
X4000Y74000D01*
X5000Y73000D01*
X5000Y70000D02*
X4000Y69000D01*
X1000Y69000D01*
X0Y68000D01*
X5000Y70000D02*
X5000Y73000D01*
X0Y68000D02*
X0Y42500D01*
X1000Y41500D01*
X4000Y41500D01*
X5000Y40500D01*
X5000Y37500D02*
X4000Y36500D01*
X1000Y36500D01*
X0Y35500D01*
X5000Y37500D02*
X5000Y40500D01*
X0Y42000D02*
X0Y35500D01*
X0Y16500D02*
X1000Y15500D01*
X4000Y15500D01*
X5000Y14500D01*
X5000Y11500D02*
X4000Y10500D01*
X1000Y10500D01*
X0Y9500D01*
X5000Y11500D02*
X5000Y14500D01*
X0Y-16500D02*
X0Y-36000D01*
X0Y-9500D02*
X0Y9500D01*
X0Y16500D02*
X0Y35500D01*
X0Y-9500D02*
X1000Y-10500D01*
X4000Y-10500D02*
X5000Y-11500D01*
X4000Y-10500D02*
X1000Y-10500D01*
X5000Y-11500D02*
X5000Y-14500D01*
X4000Y-15500D01*
X1000Y-15500D01*
X0Y-16500D01*
X1000Y106500D02*
X0Y107500D01*
X1000Y106500D02*
X4000Y106500D01*
X5000Y105500D01*
X5000Y96000D01*
X4000Y95000D01*
X1000Y95000D01*
X0Y94000D01*
D11*
X57000Y106000D03*
X57000Y98000D03*
X57000Y90000D03*
X57000Y82000D03*
X73000Y82000D03*
X73000Y90000D03*
X73000Y98000D03*
X73000Y106000D03*
X57000Y64000D03*
X57000Y56000D03*
X57000Y48000D03*
X57000Y40000D03*
X73000Y40000D03*
X73000Y48000D03*
X73000Y56000D03*
X73000Y64000D03*
X57000Y22000D03*
X57000Y14000D03*
X57000Y6000D03*
X57000Y-2000D03*
X73000Y-2000D03*
X73000Y6000D03*
X73000Y14000D03*
X73000Y22000D03*
D12*
X57000Y-91000D03*
X94000Y-90500D03*
D13*
X6500Y0D03*
X6500Y6500D03*
X6500Y19500D03*
X6500Y26000D03*
X6500Y32500D03*
X6500Y45500D03*
X6500Y52000D03*
X6500Y58500D03*
X6500Y65000D03*
X6500Y78000D03*
X6500Y84500D03*
X6500Y91000D03*
X6500Y-6500D03*
X6500Y-19500D03*
X6500Y-26000D03*
X6500Y-32500D03*
D11*
X73000Y-44500D03*
X73000Y-36500D03*
X73000Y-28500D03*
X73000Y-20500D03*
X57000Y-20500D03*
X57000Y-28500D03*
X57000Y-36500D03*
X57000Y-44500D03*
D13*
X6500Y110500D03*
D14*
X145600Y127000D03*
X145600Y114300D03*
X145600Y101600D03*
X145600Y88900D03*
X145600Y76200D03*
X145600Y63500D03*
X145600Y50800D03*
X145600Y38100D03*
X145600Y25400D03*
X145600Y12700D03*
X145600Y0D03*
X145600Y-12700D03*
X145600Y-25400D03*
X145600Y-38100D03*
X145600Y-50800D03*
X145600Y-63500D03*
X145600Y-76200D03*
M02*
