M48
;GenerationSoftware,Autodesk,EAGLE,9.0.1*%
;CreationDate,2018-05-31T04:46:56Z*%
FMAT,2
ICI,OFF
METRIC,TZ,000.000
T3C0.200
T2C0.250
T1C0.350
%
G90
M71
T1
X13050Y12700
X1950Y3250
X1950Y650
X13050Y0
X13050Y-5100
X13050Y1900
X13050Y8250
X13050Y-1950
X1950Y-1950
X1950Y11050
X1950Y6500
T2
X0Y3250
X0Y11050
X0Y6500
X0Y-1950
X0Y650
X0Y0
X0Y1950
X0Y2600
X0Y4550
X0Y5200
X0Y5850
X0Y8450
X0Y7800
X0Y9100
X0Y-650
X0Y-3250
X0Y-2600
T3
X650Y7800
X650Y9100
X650Y3250
X650Y650
X650Y-1950
X650Y0
X650Y6500
X650Y11050
X650Y1950
X650Y2600
X650Y4550
X650Y-650
X650Y5200
X650Y-3250
X650Y5850
X650Y8450
X650Y-2600
M30