G04 EAGLE Gerber X2 export*
G75*
%MOMM*%
%FSLAX34Y34*%
%LPD*%
%AMOC8*
5,1,8,0,0,1.08239X$1,22.5*%
G01*
%ADD10C,0.203200*%
%ADD11C,0.000000*%
%ADD12R,0.900000X0.500000*%
%ADD13R,1.270000X1.524000*%
%ADD14R,1.350000X0.450000*%
%ADD15R,1.600000X0.800000*%
%ADD16C,0.400000*%
%ADD17C,0.254000*%
%ADD18C,0.550000*%
%ADD19C,0.406400*%
%ADD20C,0.450000*%
%ADD21C,0.304800*%


D10*
X114984Y-96484D02*
X104316Y-96484D01*
X104316Y-93521D01*
X104318Y-93414D01*
X104324Y-93307D01*
X104333Y-93201D01*
X104347Y-93095D01*
X104364Y-92989D01*
X104385Y-92884D01*
X104410Y-92780D01*
X104439Y-92677D01*
X104471Y-92575D01*
X104507Y-92474D01*
X104547Y-92375D01*
X104590Y-92277D01*
X104637Y-92181D01*
X104687Y-92086D01*
X104740Y-91993D01*
X104797Y-91903D01*
X104857Y-91814D01*
X104920Y-91728D01*
X104986Y-91644D01*
X105056Y-91562D01*
X105128Y-91483D01*
X105203Y-91407D01*
X105281Y-91333D01*
X105361Y-91263D01*
X105444Y-91195D01*
X105529Y-91130D01*
X105616Y-91069D01*
X105706Y-91010D01*
X105798Y-90955D01*
X105891Y-90903D01*
X105987Y-90855D01*
X106084Y-90810D01*
X106182Y-90768D01*
X106282Y-90731D01*
X106384Y-90696D01*
X106486Y-90666D01*
X106590Y-90639D01*
X106694Y-90616D01*
X106800Y-90597D01*
X106906Y-90582D01*
X107012Y-90570D01*
X107119Y-90562D01*
X107226Y-90558D01*
X107332Y-90558D01*
X107439Y-90562D01*
X107546Y-90570D01*
X107652Y-90582D01*
X107758Y-90597D01*
X107864Y-90616D01*
X107968Y-90639D01*
X108072Y-90666D01*
X108174Y-90696D01*
X108276Y-90731D01*
X108376Y-90768D01*
X108474Y-90810D01*
X108571Y-90855D01*
X108667Y-90903D01*
X108761Y-90955D01*
X108852Y-91010D01*
X108942Y-91069D01*
X109029Y-91130D01*
X109114Y-91195D01*
X109197Y-91263D01*
X109277Y-91333D01*
X109355Y-91407D01*
X109430Y-91483D01*
X109502Y-91562D01*
X109572Y-91644D01*
X109638Y-91728D01*
X109701Y-91814D01*
X109761Y-91903D01*
X109818Y-91993D01*
X109871Y-92086D01*
X109921Y-92181D01*
X109968Y-92277D01*
X110011Y-92375D01*
X110051Y-92474D01*
X110087Y-92575D01*
X110119Y-92677D01*
X110148Y-92780D01*
X110173Y-92884D01*
X110194Y-92989D01*
X110211Y-93095D01*
X110225Y-93201D01*
X110234Y-93307D01*
X110240Y-93414D01*
X110242Y-93521D01*
X110243Y-93521D02*
X110243Y-96484D01*
X110243Y-92928D02*
X114984Y-90557D01*
X110835Y-84445D02*
X112021Y-81481D01*
X110836Y-84445D02*
X110805Y-84516D01*
X110771Y-84586D01*
X110734Y-84654D01*
X110693Y-84719D01*
X110648Y-84783D01*
X110601Y-84844D01*
X110550Y-84903D01*
X110497Y-84960D01*
X110441Y-85013D01*
X110382Y-85064D01*
X110321Y-85111D01*
X110257Y-85156D01*
X110192Y-85197D01*
X110124Y-85235D01*
X110054Y-85269D01*
X109983Y-85300D01*
X109911Y-85327D01*
X109837Y-85350D01*
X109762Y-85370D01*
X109686Y-85386D01*
X109609Y-85398D01*
X109532Y-85406D01*
X109455Y-85410D01*
X109377Y-85411D01*
X109300Y-85407D01*
X109222Y-85400D01*
X109146Y-85388D01*
X109070Y-85373D01*
X108994Y-85354D01*
X108920Y-85331D01*
X108847Y-85305D01*
X108776Y-85275D01*
X108706Y-85241D01*
X108638Y-85204D01*
X108572Y-85163D01*
X108508Y-85119D01*
X108446Y-85072D01*
X108387Y-85022D01*
X108331Y-84969D01*
X108277Y-84913D01*
X108226Y-84855D01*
X108178Y-84794D01*
X108133Y-84731D01*
X108091Y-84665D01*
X108053Y-84598D01*
X108018Y-84528D01*
X107987Y-84457D01*
X107959Y-84385D01*
X107936Y-84311D01*
X107915Y-84236D01*
X107899Y-84161D01*
X107886Y-84084D01*
X107878Y-84007D01*
X107873Y-83930D01*
X107872Y-83852D01*
X107876Y-83690D01*
X107884Y-83528D01*
X107896Y-83367D01*
X107912Y-83206D01*
X107932Y-83045D01*
X107955Y-82885D01*
X107983Y-82726D01*
X108014Y-82567D01*
X108049Y-82409D01*
X108088Y-82252D01*
X108131Y-82096D01*
X108177Y-81941D01*
X108227Y-81787D01*
X108281Y-81634D01*
X108339Y-81483D01*
X108400Y-81333D01*
X108464Y-81185D01*
X112020Y-81481D02*
X112051Y-81410D01*
X112085Y-81340D01*
X112122Y-81272D01*
X112163Y-81207D01*
X112208Y-81143D01*
X112255Y-81082D01*
X112306Y-81023D01*
X112359Y-80966D01*
X112415Y-80913D01*
X112474Y-80862D01*
X112535Y-80815D01*
X112599Y-80770D01*
X112664Y-80729D01*
X112732Y-80691D01*
X112802Y-80657D01*
X112873Y-80626D01*
X112945Y-80599D01*
X113019Y-80576D01*
X113094Y-80556D01*
X113170Y-80540D01*
X113247Y-80528D01*
X113324Y-80520D01*
X113401Y-80516D01*
X113479Y-80515D01*
X113556Y-80519D01*
X113634Y-80526D01*
X113710Y-80538D01*
X113786Y-80553D01*
X113862Y-80572D01*
X113936Y-80595D01*
X114009Y-80621D01*
X114080Y-80651D01*
X114150Y-80685D01*
X114218Y-80722D01*
X114284Y-80763D01*
X114348Y-80807D01*
X114410Y-80854D01*
X114469Y-80904D01*
X114525Y-80957D01*
X114579Y-81013D01*
X114630Y-81071D01*
X114678Y-81132D01*
X114723Y-81195D01*
X114765Y-81261D01*
X114803Y-81328D01*
X114838Y-81398D01*
X114869Y-81468D01*
X114897Y-81541D01*
X114920Y-81615D01*
X114941Y-81690D01*
X114957Y-81765D01*
X114970Y-81842D01*
X114978Y-81919D01*
X114983Y-81996D01*
X114984Y-82074D01*
X114984Y-82075D02*
X114978Y-82312D01*
X114966Y-82550D01*
X114949Y-82787D01*
X114925Y-83023D01*
X114897Y-83259D01*
X114863Y-83495D01*
X114823Y-83729D01*
X114778Y-83962D01*
X114727Y-84195D01*
X114671Y-84426D01*
X114609Y-84655D01*
X114542Y-84883D01*
X114469Y-85110D01*
X114391Y-85334D01*
X107872Y-76498D02*
X107872Y-72942D01*
X104316Y-75312D02*
X113206Y-75312D01*
X113288Y-75310D01*
X113370Y-75304D01*
X113452Y-75295D01*
X113533Y-75282D01*
X113613Y-75265D01*
X113693Y-75244D01*
X113771Y-75220D01*
X113848Y-75192D01*
X113924Y-75161D01*
X113999Y-75126D01*
X114071Y-75087D01*
X114142Y-75046D01*
X114211Y-75001D01*
X114277Y-74953D01*
X114342Y-74902D01*
X114404Y-74848D01*
X114463Y-74791D01*
X114520Y-74732D01*
X114574Y-74670D01*
X114625Y-74605D01*
X114673Y-74539D01*
X114718Y-74470D01*
X114759Y-74399D01*
X114798Y-74327D01*
X114833Y-74252D01*
X114864Y-74176D01*
X114892Y-74099D01*
X114916Y-74021D01*
X114937Y-73941D01*
X114954Y-73861D01*
X114967Y-73780D01*
X114976Y-73698D01*
X114982Y-73616D01*
X114984Y-73534D01*
X114984Y-72942D01*
X78484Y-91743D02*
X78484Y-94113D01*
X78482Y-94208D01*
X78476Y-94304D01*
X78467Y-94399D01*
X78453Y-94493D01*
X78436Y-94587D01*
X78415Y-94680D01*
X78390Y-94773D01*
X78362Y-94864D01*
X78330Y-94954D01*
X78294Y-95042D01*
X78255Y-95129D01*
X78212Y-95215D01*
X78166Y-95299D01*
X78117Y-95380D01*
X78064Y-95460D01*
X78008Y-95537D01*
X77950Y-95613D01*
X77888Y-95685D01*
X77823Y-95755D01*
X77755Y-95823D01*
X77685Y-95888D01*
X77613Y-95950D01*
X77537Y-96008D01*
X77460Y-96064D01*
X77380Y-96117D01*
X77299Y-96166D01*
X77215Y-96212D01*
X77129Y-96255D01*
X77042Y-96294D01*
X76954Y-96330D01*
X76864Y-96362D01*
X76773Y-96390D01*
X76680Y-96415D01*
X76587Y-96436D01*
X76493Y-96453D01*
X76399Y-96467D01*
X76304Y-96476D01*
X76208Y-96482D01*
X76113Y-96484D01*
X70187Y-96484D01*
X70092Y-96482D01*
X69996Y-96476D01*
X69901Y-96467D01*
X69807Y-96453D01*
X69713Y-96436D01*
X69620Y-96415D01*
X69527Y-96390D01*
X69436Y-96362D01*
X69346Y-96330D01*
X69258Y-96294D01*
X69171Y-96255D01*
X69085Y-96212D01*
X69002Y-96166D01*
X68920Y-96117D01*
X68840Y-96064D01*
X68763Y-96008D01*
X68687Y-95950D01*
X68615Y-95888D01*
X68545Y-95823D01*
X68477Y-95755D01*
X68412Y-95685D01*
X68350Y-95613D01*
X68292Y-95537D01*
X68236Y-95460D01*
X68183Y-95380D01*
X68134Y-95299D01*
X68088Y-95215D01*
X68045Y-95129D01*
X68006Y-95042D01*
X67970Y-94954D01*
X67938Y-94864D01*
X67910Y-94773D01*
X67885Y-94680D01*
X67864Y-94587D01*
X67847Y-94493D01*
X67833Y-94399D01*
X67824Y-94304D01*
X67818Y-94209D01*
X67816Y-94113D01*
X67816Y-91743D01*
X71372Y-88148D02*
X71372Y-84592D01*
X67816Y-86963D02*
X76706Y-86963D01*
X76788Y-86961D01*
X76870Y-86955D01*
X76952Y-86946D01*
X77033Y-86933D01*
X77113Y-86916D01*
X77193Y-86895D01*
X77271Y-86871D01*
X77348Y-86843D01*
X77424Y-86812D01*
X77499Y-86777D01*
X77571Y-86738D01*
X77642Y-86697D01*
X77711Y-86652D01*
X77777Y-86604D01*
X77842Y-86553D01*
X77904Y-86499D01*
X77963Y-86442D01*
X78020Y-86383D01*
X78074Y-86321D01*
X78125Y-86256D01*
X78173Y-86190D01*
X78218Y-86121D01*
X78259Y-86050D01*
X78298Y-85978D01*
X78333Y-85903D01*
X78364Y-85827D01*
X78392Y-85750D01*
X78416Y-85672D01*
X78437Y-85592D01*
X78454Y-85512D01*
X78467Y-85431D01*
X78476Y-85349D01*
X78482Y-85267D01*
X78484Y-85185D01*
X78484Y-84592D01*
X78484Y-79359D02*
X71372Y-79359D01*
X71372Y-75803D01*
X72557Y-75803D01*
X76706Y-71805D02*
X67816Y-71805D01*
X76706Y-71805D02*
X76788Y-71803D01*
X76870Y-71797D01*
X76952Y-71788D01*
X77033Y-71775D01*
X77113Y-71758D01*
X77193Y-71737D01*
X77271Y-71713D01*
X77348Y-71685D01*
X77424Y-71654D01*
X77499Y-71619D01*
X77571Y-71580D01*
X77642Y-71539D01*
X77711Y-71494D01*
X77777Y-71446D01*
X77842Y-71395D01*
X77904Y-71341D01*
X77963Y-71284D01*
X78020Y-71225D01*
X78074Y-71163D01*
X78125Y-71098D01*
X78173Y-71032D01*
X78218Y-70963D01*
X78259Y-70892D01*
X78298Y-70820D01*
X78333Y-70745D01*
X78364Y-70669D01*
X78392Y-70592D01*
X78416Y-70514D01*
X78437Y-70434D01*
X78454Y-70354D01*
X78467Y-70273D01*
X78476Y-70191D01*
X78482Y-70109D01*
X78484Y-70027D01*
D11*
X3000Y-39000D02*
X0Y-36000D01*
X3000Y-39000D02*
X32500Y-39000D01*
X39000Y-45500D01*
X39000Y-97500D01*
X45500Y-104000D01*
X156000Y-104000D01*
X162500Y-97500D01*
X162500Y130000D01*
X156000Y136500D01*
X81500Y136500D01*
X65500Y120500D01*
X7000Y120500D01*
X0Y113500D01*
X0Y107500D01*
X0Y94000D02*
X0Y75000D01*
X1000Y74000D01*
X4000Y74000D01*
X5000Y73000D01*
X5000Y70000D02*
X4000Y69000D01*
X1000Y69000D01*
X0Y68000D01*
X5000Y70000D02*
X5000Y73000D01*
X0Y68000D02*
X0Y42500D01*
X1000Y41500D01*
X4000Y41500D01*
X5000Y40500D01*
X5000Y37500D02*
X4000Y36500D01*
X1000Y36500D01*
X0Y35500D01*
X5000Y37500D02*
X5000Y40500D01*
X0Y42000D02*
X0Y35500D01*
X0Y16500D02*
X1000Y15500D01*
X4000Y15500D01*
X5000Y14500D01*
X5000Y11500D02*
X4000Y10500D01*
X1000Y10500D01*
X0Y9500D01*
X5000Y11500D02*
X5000Y14500D01*
X0Y-16500D02*
X0Y-36000D01*
X0Y-9500D02*
X0Y9500D01*
X0Y16500D02*
X0Y35500D01*
X0Y-9500D02*
X1000Y-10500D01*
X4000Y-10500D02*
X5000Y-11500D01*
X4000Y-10500D02*
X1000Y-10500D01*
X5000Y-11500D02*
X5000Y-14500D01*
X4000Y-15500D01*
X1000Y-15500D01*
X0Y-16500D01*
X1000Y106500D02*
X0Y107500D01*
X1000Y106500D02*
X4000Y106500D01*
X5000Y105500D01*
X5000Y96000D01*
X4000Y95000D01*
X1000Y95000D01*
X0Y94000D01*
D12*
X57000Y106000D03*
X57000Y98000D03*
X57000Y90000D03*
X57000Y82000D03*
X73000Y82000D03*
X73000Y90000D03*
X73000Y98000D03*
X73000Y106000D03*
X57000Y64000D03*
X57000Y56000D03*
X57000Y48000D03*
X57000Y40000D03*
X73000Y40000D03*
X73000Y48000D03*
X73000Y56000D03*
X73000Y64000D03*
X57000Y22000D03*
X57000Y14000D03*
X57000Y6000D03*
X57000Y-2000D03*
X73000Y-2000D03*
X73000Y6000D03*
X73000Y14000D03*
X73000Y22000D03*
D13*
X57000Y-91000D03*
X94000Y-90500D03*
D14*
X6500Y0D03*
X6500Y6500D03*
X6500Y19500D03*
X6500Y26000D03*
X6500Y32500D03*
X6500Y45500D03*
X6500Y52000D03*
X6500Y58500D03*
X6500Y65000D03*
X6500Y78000D03*
X6500Y84500D03*
X6500Y91000D03*
X6500Y-6500D03*
X6500Y-19500D03*
X6500Y-26000D03*
X6500Y-32500D03*
D12*
X73000Y-44500D03*
X73000Y-36500D03*
X73000Y-28500D03*
X73000Y-20500D03*
X57000Y-20500D03*
X57000Y-28500D03*
X57000Y-36500D03*
X57000Y-44500D03*
D14*
X6500Y110500D03*
D15*
X145600Y127000D03*
X145600Y114300D03*
X145600Y101600D03*
X145600Y88900D03*
X145600Y76200D03*
X145600Y63500D03*
X145600Y50800D03*
X145600Y38100D03*
X145600Y25400D03*
X145600Y12700D03*
X145600Y0D03*
X145600Y-12700D03*
X145600Y-25400D03*
X145600Y-38100D03*
X145600Y-50800D03*
X145600Y-63500D03*
X145600Y-76200D03*
D16*
X6500Y0D03*
D17*
X26000Y0D01*
X45500Y6000D01*
X57000Y6000D01*
D16*
X6500Y32500D03*
D18*
X19500Y32500D03*
D19*
X6500Y32500D01*
D20*
X0Y110500D03*
X0Y65000D03*
X0Y32500D03*
D21*
X57000Y106000D02*
X73000Y106000D01*
D17*
X6500Y110500D02*
X3270Y110500D01*
D21*
X57000Y14000D02*
X73000Y14000D01*
X57000Y14000D02*
X45500Y14000D01*
X26000Y6500D01*
D18*
X19500Y6500D03*
D21*
X26000Y6500D01*
D16*
X6500Y6500D03*
D19*
X19500Y6500D01*
D20*
X0Y6500D03*
D17*
X3270Y6500D02*
X6500Y6500D01*
D16*
X6500Y-19500D03*
D20*
X0Y-19500D03*
D16*
X6500Y65000D03*
X6500Y110500D03*
D18*
X19500Y-19500D03*
X19500Y110500D03*
X19500Y65000D03*
D19*
X6500Y65000D01*
X6500Y110500D02*
X19500Y110500D01*
D21*
X45500Y106000D02*
X57000Y106000D01*
X45500Y106000D02*
X19500Y110500D01*
X84500Y106000D02*
X130500Y127000D01*
X135890Y127000D01*
X145600Y127000D01*
X84500Y106000D02*
X73000Y106000D01*
D19*
X19500Y-19500D02*
X6500Y-19500D01*
D18*
X130500Y127000D03*
X130500Y0D03*
X130500Y-51000D03*
D21*
X130500Y0D02*
X145600Y0D01*
X145600Y-51000D02*
X136500Y-51000D01*
D19*
X145600Y-51000D02*
X145600Y-50800D01*
D21*
X84500Y14000D02*
X73000Y14000D01*
X84500Y14000D02*
X130500Y19000D01*
D18*
X130500Y19000D03*
X130500Y82500D03*
X130500Y-19500D03*
D21*
X45500Y-12000D02*
X19500Y-19500D01*
X45500Y-12000D02*
X84500Y-12000D01*
X130500Y-19500D01*
X45500Y73000D02*
X19500Y65000D01*
X45500Y73000D02*
X84500Y73000D01*
X130500Y82500D01*
D17*
X139700Y124460D02*
X135890Y127000D01*
X139700Y124460D02*
X139700Y129540D01*
X135890Y127000D01*
X139700Y-48260D02*
X130810Y-50800D01*
X139700Y-48260D02*
X139700Y-53340D01*
X130810Y-50800D01*
X130500Y-51000D02*
X136500Y-51000D01*
X130810Y-50800D02*
X130500Y-51000D01*
X6500Y6500D02*
X0Y6500D01*
D16*
X6500Y19500D03*
D17*
X26000Y19500D01*
X45500Y22000D01*
X57000Y22000D01*
D16*
X6500Y26000D03*
D17*
X24500Y26000D01*
X34000Y30000D01*
X40500Y37500D01*
X49000Y40000D01*
X57000Y40000D01*
D16*
X6500Y45500D03*
D17*
X26000Y45500D01*
X45500Y48000D01*
X57000Y48000D01*
D16*
X6500Y52000D03*
D17*
X26000Y52000D01*
X45500Y56000D01*
X57000Y56000D01*
D16*
X6500Y58500D03*
D17*
X26000Y58500D01*
X45500Y64000D01*
X57000Y64000D01*
D16*
X6500Y84500D03*
D17*
X26000Y84500D01*
X45500Y90000D01*
X57000Y90000D01*
D16*
X6500Y78000D03*
D17*
X26000Y78000D01*
X45500Y82000D01*
X57000Y82000D01*
D16*
X6500Y91000D03*
D17*
X26000Y91000D01*
X45500Y98000D01*
X57000Y98000D01*
X57000Y-79000D02*
X57000Y-91000D01*
X52000Y-87000D02*
X57000Y-79000D01*
X62000Y-87000D01*
X57000Y-79000D02*
X57000Y-73270D01*
X57000Y-36500D02*
X51000Y-36500D01*
X49530Y-63500D02*
X57000Y-73270D01*
X49530Y-63500D02*
X44450Y-53340D01*
X44450Y-41910D01*
X46990Y-38100D01*
X51000Y-36500D01*
X94000Y-78500D02*
X94000Y-90500D01*
X99000Y-87000D02*
X94000Y-78500D01*
X89000Y-87000D01*
X94000Y-74500D02*
X92000Y-68000D01*
X94000Y-74500D02*
X94000Y-78500D01*
X85500Y-63500D02*
X69500Y-63500D01*
X85500Y-63500D02*
X92000Y-68000D01*
X61000Y-59500D02*
X57000Y-52000D01*
X61000Y-59500D02*
X64500Y-62000D01*
X69500Y-63500D01*
X57000Y-50500D02*
X57000Y-44500D01*
X57000Y-50500D02*
X57000Y-52000D01*
X57000Y-50500D02*
X54500Y-44500D01*
X59500Y-44500D02*
X57000Y-50500D01*
X130160Y-74930D02*
X133350Y-76200D01*
X145600Y-76200D01*
X84500Y-44500D02*
X73000Y-44500D01*
X84500Y-44500D02*
X97500Y-50000D01*
X116500Y-67000D01*
X130160Y-74930D01*
X133350Y-76200D02*
X139700Y-73660D01*
X139700Y-78740D01*
X133350Y-76200D01*
D20*
X0Y0D03*
X0Y19500D03*
X0Y26000D03*
X0Y45500D03*
X0Y52000D03*
X0Y58500D03*
X0Y84500D03*
X0Y78000D03*
X0Y91000D03*
D16*
X6500Y-6500D03*
D20*
X0Y-6500D03*
D16*
X6500Y-32500D03*
D20*
X0Y-32500D03*
X0Y-26000D03*
D16*
X6500Y-26000D03*
D17*
X6500Y-32500D02*
X32500Y-32500D01*
X45500Y-28500D02*
X57000Y-28500D01*
X45500Y-28500D02*
X32500Y-32500D01*
X32500Y-26000D02*
X6500Y-26000D01*
X45000Y-20500D02*
X57000Y-20500D01*
X45000Y-20500D02*
X32500Y-26000D01*
X26000Y-6500D02*
X6500Y-6500D01*
X26000Y-6500D02*
X45500Y-2000D01*
X57000Y-2000D01*
X134620Y114300D02*
X145600Y114300D01*
X134620Y114300D02*
X133350Y114300D01*
X130300Y114300D01*
X84500Y98000D01*
X73000Y98000D01*
X134620Y114300D02*
X139700Y116840D01*
X139700Y111760D02*
X134620Y114300D01*
X133350Y114300D02*
X139700Y116840D01*
X139700Y111760D01*
X133350Y114300D01*
X134620Y101600D02*
X145600Y101600D01*
X134620Y101600D02*
X133350Y101600D01*
X130100Y101600D01*
X85000Y90000D01*
X73000Y90000D01*
X134620Y101600D02*
X139700Y104140D01*
X139700Y99060D02*
X134620Y101600D01*
X133350Y101600D02*
X139700Y104140D01*
X139700Y99060D01*
X133350Y101600D01*
X136389Y89670D02*
X145600Y88900D01*
X130400Y90170D02*
X84500Y82000D01*
X73000Y82000D01*
X130810Y90170D02*
X135425Y89566D01*
X139700Y86360D01*
X139700Y91440D01*
X130810Y90170D01*
X130400Y90170D02*
X136389Y89670D01*
X135425Y89566D02*
X145600Y88900D01*
X145600Y76200D02*
X130253Y74934D01*
X130252Y74934D02*
X130200Y74930D01*
X85000Y64000D01*
X73000Y64000D01*
X130810Y74930D02*
X139700Y78740D01*
X139700Y73660D01*
X130810Y74930D01*
X130253Y74934D02*
X130252Y74934D01*
X130200Y74930D02*
X130810Y74930D01*
X133350Y63500D02*
X145600Y63500D01*
X133350Y63500D02*
X130500Y63500D01*
X84500Y56000D01*
X73000Y56000D01*
X133350Y63500D02*
X139700Y66040D01*
X139700Y60960D01*
X133350Y63500D01*
X133350Y50800D02*
X145600Y50800D01*
X133350Y50800D02*
X130800Y50800D01*
X84500Y48000D01*
X73000Y48000D01*
X133350Y50800D02*
X139700Y53340D01*
X139700Y48260D01*
X133350Y50800D01*
X84500Y40000D02*
X73000Y40000D01*
X84500Y40000D02*
X133040Y38000D01*
X130600Y38100D01*
X133350Y38100D01*
X145600Y38100D01*
X139700Y40640D02*
X133350Y38100D01*
X139700Y40640D02*
X139700Y35560D01*
X133350Y38100D01*
X136518Y26207D02*
X145600Y25400D01*
X131300Y26670D02*
X85500Y22000D01*
X73000Y22000D01*
X132080Y26670D02*
X136272Y27369D01*
X139700Y27940D01*
X139700Y22860D01*
X130810Y26670D01*
X131300Y26670D02*
X136518Y26207D01*
X136272Y27369D02*
X131300Y26670D01*
X136589Y11942D02*
X145600Y12700D01*
X130192Y11393D02*
X85000Y6000D01*
X73000Y6000D01*
X132080Y11430D02*
X140970Y15240D01*
X140970Y10160D01*
X132080Y11430D01*
X130192Y11393D02*
X136589Y11942D01*
X132080Y11430D02*
X130192Y11393D01*
X131940Y-11430D02*
X145600Y-12700D01*
X131940Y-11430D02*
X85000Y-2000D01*
X73000Y-2000D01*
X132080Y-11430D02*
X136192Y-10843D01*
X140970Y-10160D01*
X140970Y-15240D01*
X132080Y-11430D01*
X131940Y-11430D02*
X136192Y-10843D01*
X145600Y-25400D02*
X130312Y-27905D01*
X130100Y-27940D01*
X85500Y-20500D01*
X73000Y-20500D01*
X132080Y-27940D02*
X140970Y-22860D01*
X140970Y-27940D01*
X132080Y-27940D01*
X130312Y-27905D01*
X133350Y-38100D02*
X145600Y-38100D01*
X133350Y-38100D02*
X129800Y-38100D01*
X85000Y-28500D01*
X73000Y-28500D01*
X133350Y-38100D02*
X139700Y-35560D01*
X139700Y-40640D01*
X133350Y-38100D01*
X133350Y-63500D02*
X129500Y-63500D01*
X133350Y-63500D02*
X145600Y-63500D01*
X84500Y-36500D02*
X73000Y-36500D01*
X84500Y-36500D02*
X102500Y-42500D01*
X115500Y-57000D01*
X129500Y-63500D01*
X133350Y-63500D02*
X139700Y-60960D01*
X139700Y-66040D01*
X133350Y-63500D01*
M02*
