G04 EAGLE Gerber X2 export*
%TF.Part,Single*%
%TF.FileFunction,Other,bottom copper*%
%TF.FilePolarity,Positive*%
%TF.GenerationSoftware,Autodesk,EAGLE,9.6.2*%
%TF.CreationDate,2020-07-07T11:12:48Z*%
G75*
%MOMM*%
%FSLAX34Y34*%
%LPD*%
%INbottom copper*%
%AMOC8*
5,1,8,0,0,1.08239X$1,22.5*%
G01*
%ADD10C,0.000000*%
%ADD11R,1.350000X0.450000*%
%ADD12C,0.454000*%
%ADD13C,0.254000*%
%ADD14C,0.935000*%
%ADD15C,0.304800*%
%ADD16C,0.127000*%
%ADD17C,0.680000*%
%ADD18C,0.203200*%


D10*
X0Y-23000D02*
X3000Y-26000D01*
X17000Y-26000D01*
X39750Y136500D02*
X195500Y136500D01*
X39750Y136500D02*
X23750Y120500D01*
X7000Y120500D01*
X0Y113500D01*
X0Y107500D01*
X0Y94000D02*
X0Y75000D01*
X1000Y74000D01*
X4000Y74000D01*
X5000Y73000D01*
X5000Y70000D02*
X4000Y69000D01*
X1000Y69000D01*
X0Y68000D01*
X5000Y70000D02*
X5000Y73000D01*
X0Y68000D02*
X0Y42500D01*
X1000Y41500D01*
X4000Y41500D01*
X5000Y40500D01*
X5000Y37500D02*
X4000Y36500D01*
X1000Y36500D01*
X0Y35500D01*
X5000Y37500D02*
X5000Y40500D01*
X0Y-16500D02*
X0Y-23000D01*
X0Y-3000D02*
X0Y9500D01*
X0Y16500D02*
X0Y35500D01*
X0Y-3000D02*
X1000Y-4000D01*
X4000Y-4000D02*
X5000Y-5000D01*
X4000Y-4000D02*
X1000Y-4000D01*
X5000Y-5000D02*
X5000Y-14500D01*
X4000Y-15500D01*
X1000Y-15500D01*
X0Y-16500D01*
X1000Y106500D02*
X0Y107500D01*
X1000Y106500D02*
X4000Y106500D01*
X5000Y105500D01*
X5000Y96000D01*
X4000Y95000D01*
X1000Y95000D01*
X0Y94000D01*
X0Y16500D02*
X1000Y15500D01*
X4000Y15500D01*
X5000Y14500D01*
X5000Y11500D01*
X4000Y10500D01*
X1000Y10500D01*
X0Y9500D01*
X17000Y-26000D02*
X25500Y-34500D01*
X193500Y-34500D01*
X198500Y-29500D01*
X198500Y133500D01*
X195500Y136500D01*
D11*
X2000Y91000D03*
X2000Y84500D03*
X2000Y78000D03*
X2000Y65000D03*
X2000Y58500D03*
X2000Y52000D03*
X2000Y45500D03*
X2000Y32500D03*
X2000Y26000D03*
X2000Y19500D03*
X2000Y6500D03*
X2000Y0D03*
X2000Y-19500D03*
X2000Y110500D03*
D12*
X6500Y0D03*
X0Y0D03*
D13*
X2000Y0D02*
X13500Y0D01*
D12*
X0Y65000D03*
X6500Y65000D03*
X0Y110500D03*
X6500Y110500D03*
X0Y6500D03*
D14*
X44516Y-22388D03*
D12*
X0Y-19500D03*
X6500Y-19500D03*
X6500Y6500D03*
X6500Y32500D03*
X0Y32500D03*
D14*
X106018Y99112D03*
X59644Y60400D03*
X27644Y37888D03*
X56144Y25750D03*
D15*
X6500Y110500D02*
X0Y110500D01*
D13*
X12000Y35000D02*
X6500Y32500D01*
X12000Y30600D02*
X12000Y35000D01*
X12000Y30600D02*
X6500Y32500D01*
X6500Y65000D02*
X12000Y67500D01*
X12000Y63100D01*
X6500Y65000D01*
X12500Y8500D02*
X12500Y4600D01*
X7000Y6500D01*
X12000Y-18000D02*
X12000Y-22000D01*
X6500Y-19500D01*
X6500Y110500D02*
X10730Y112423D01*
X10730Y108577D01*
X6500Y110500D01*
D16*
X6500Y65000D02*
X2000Y65000D01*
D14*
X40662Y105604D03*
D13*
X12500Y8500D02*
X6500Y6500D01*
X12000Y-18000D02*
X6500Y-19500D01*
D14*
X25644Y8750D03*
D17*
X21500Y66500D03*
D14*
X84644Y66900D03*
D18*
X11786Y7196D02*
X11786Y6500D01*
X11786Y7196D02*
X11766Y7271D01*
X11766Y9147D01*
X11578Y9849D01*
X13884Y9849D01*
X14851Y10816D01*
X14851Y15214D01*
X15175Y15214D01*
X17686Y17725D01*
X17686Y21275D01*
X16261Y22700D01*
X17786Y24225D01*
X17786Y27775D01*
X15275Y30286D01*
X11766Y30286D01*
X11766Y31729D01*
X11786Y31804D01*
X11786Y32500D01*
X6500Y32500D01*
X6500Y32500D01*
X11786Y32500D01*
X11786Y33196D01*
X11766Y33271D01*
X11766Y35147D01*
X11578Y35849D01*
X13884Y35849D01*
X14851Y36816D01*
X14851Y41214D01*
X15375Y41214D01*
X17886Y43725D01*
X17886Y47275D01*
X16311Y48850D01*
X17686Y50225D01*
X17686Y53775D01*
X16261Y55200D01*
X17786Y56725D01*
X17786Y60275D01*
X15275Y62786D01*
X11766Y62786D01*
X11766Y64229D01*
X11786Y64304D01*
X11786Y65000D01*
X6500Y65000D01*
X6500Y65000D01*
X11786Y65000D01*
X11786Y65696D01*
X11766Y65771D01*
X11766Y67647D01*
X11578Y68349D01*
X13884Y68349D01*
X14851Y69316D01*
X14851Y73714D01*
X15275Y73714D01*
X17786Y76225D01*
X17786Y79775D01*
X16261Y81300D01*
X17686Y82725D01*
X17686Y86275D01*
X16211Y87750D01*
X17686Y89225D01*
X17686Y92775D01*
X15175Y95286D01*
X14851Y95286D01*
X14851Y105804D01*
X13884Y106771D01*
X11536Y106771D01*
X11766Y107001D01*
X11766Y109729D01*
X11786Y109804D01*
X11786Y110500D01*
X11766Y110500D01*
X11766Y110500D01*
X11786Y110500D01*
X11786Y111196D01*
X11766Y111271D01*
X11766Y113999D01*
X9999Y115766D01*
X7271Y115766D01*
X7196Y115786D01*
X6551Y115786D01*
X8249Y117484D01*
X24999Y117484D01*
X26766Y119251D01*
X40999Y133484D01*
X194251Y133484D01*
X195484Y132251D01*
X195484Y-28251D01*
X192251Y-31484D01*
X26749Y-31484D01*
X18249Y-22984D01*
X11520Y-22984D01*
X11560Y-22914D01*
X11766Y-22147D01*
X11766Y-20271D01*
X11786Y-20196D01*
X11786Y-19500D01*
X6500Y-19500D01*
X6500Y-19500D01*
X11786Y-19500D01*
X11786Y-18804D01*
X11766Y-18729D01*
X11766Y-16853D01*
X11578Y-16151D01*
X13884Y-16151D01*
X14851Y-15184D01*
X14851Y-4286D01*
X15275Y-4286D01*
X17786Y-1775D01*
X17786Y1775D01*
X15275Y4286D01*
X11766Y4286D01*
X11766Y5729D01*
X11786Y5804D01*
X11786Y6500D01*
X6500Y6500D01*
X6500Y6500D01*
X11786Y6500D01*
X168001Y38724D02*
X168001Y41276D01*
X167024Y43634D01*
X165220Y45439D01*
X162862Y46416D01*
X160309Y46416D01*
X157951Y45439D01*
X156146Y43634D01*
X155169Y41276D01*
X155169Y38724D01*
X156146Y36366D01*
X157067Y35445D01*
X156657Y-6269D01*
X155457Y-7470D01*
X154480Y-9828D01*
X154480Y-12380D01*
X155457Y-14738D01*
X157262Y-16543D01*
X159620Y-17520D01*
X162172Y-17520D01*
X164530Y-16543D01*
X166335Y-14738D01*
X167312Y-12380D01*
X167312Y-9828D01*
X166335Y-7470D01*
X165229Y-6363D01*
X165260Y-3205D01*
X165926Y-3872D01*
X166977Y-4574D01*
X168145Y-5057D01*
X169384Y-5304D01*
X170016Y-5304D01*
X170016Y1112D01*
X170016Y1112D01*
X170016Y-5304D01*
X170648Y-5304D01*
X171887Y-5057D01*
X173055Y-4574D01*
X174106Y-3872D01*
X175000Y-2978D01*
X175702Y-1927D01*
X176185Y-759D01*
X176432Y480D01*
X176432Y1112D01*
X170016Y1112D01*
X170016Y1112D01*
X176432Y1112D01*
X176432Y1744D01*
X176185Y2983D01*
X175702Y4151D01*
X175000Y5202D01*
X174106Y6096D01*
X173055Y6798D01*
X171887Y7281D01*
X170648Y7528D01*
X170016Y7528D01*
X170016Y1112D01*
X170016Y1112D01*
X170016Y7528D01*
X169384Y7528D01*
X168145Y7281D01*
X166977Y6798D01*
X165926Y6096D01*
X165345Y5515D01*
X165634Y34976D01*
X167024Y36366D01*
X168001Y38724D01*
X99500Y1416D02*
X99500Y-5000D01*
X99500Y-5000D01*
X99500Y1416D01*
X98868Y1416D01*
X97629Y1169D01*
X96461Y686D01*
X95410Y-16D01*
X94516Y-910D01*
X93814Y-1961D01*
X93331Y-3129D01*
X93084Y-4368D01*
X93084Y-5000D01*
X99500Y-5000D01*
X99500Y-5000D01*
X93084Y-5000D01*
X93084Y-5632D01*
X93331Y-6871D01*
X93814Y-8039D01*
X94516Y-9090D01*
X95410Y-9984D01*
X96461Y-10686D01*
X97629Y-11169D01*
X98868Y-11416D01*
X99500Y-11416D01*
X99500Y-5000D01*
X99500Y-5000D01*
X99500Y-11416D01*
X100132Y-11416D01*
X101371Y-11169D01*
X102539Y-10686D01*
X103590Y-9984D01*
X104484Y-9090D01*
X105186Y-8039D01*
X105669Y-6871D01*
X105916Y-5632D01*
X105916Y-5000D01*
X99500Y-5000D01*
X99500Y-5000D01*
X105916Y-5000D01*
X105916Y-4368D01*
X105669Y-3129D01*
X105186Y-1961D01*
X104484Y-910D01*
X103590Y-16D01*
X102539Y686D01*
X101371Y1169D01*
X100132Y1416D01*
X99500Y1416D01*
X85003Y67259D02*
X85003Y74591D01*
X85003Y67259D02*
X84285Y67259D01*
X84285Y74591D01*
X83886Y74591D01*
X82401Y74295D01*
X81001Y73716D01*
X79741Y72874D01*
X78670Y71803D01*
X77828Y70543D01*
X77249Y69143D01*
X76953Y67658D01*
X76953Y67259D01*
X84285Y67259D01*
X84285Y66541D01*
X76953Y66541D01*
X76953Y66142D01*
X77249Y64657D01*
X77828Y63257D01*
X78670Y61997D01*
X79741Y60926D01*
X81001Y60084D01*
X82401Y59505D01*
X83886Y59209D01*
X84285Y59209D01*
X84285Y66541D01*
X85003Y66541D01*
X85003Y59209D01*
X85402Y59209D01*
X86887Y59505D01*
X88287Y60084D01*
X89547Y60926D01*
X90618Y61997D01*
X91460Y63257D01*
X92039Y64657D01*
X92335Y66142D01*
X92335Y66541D01*
X85003Y66541D01*
X85003Y67259D01*
X92335Y67259D01*
X92335Y67658D01*
X92039Y69143D01*
X91460Y70543D01*
X90618Y71803D01*
X89547Y72874D01*
X88287Y73716D01*
X86887Y74295D01*
X85402Y74591D01*
X85003Y74591D01*
X26003Y16441D02*
X26003Y9109D01*
X25285Y9109D01*
X25285Y16441D01*
X24886Y16441D01*
X23401Y16145D01*
X22001Y15566D01*
X20741Y14724D01*
X19670Y13653D01*
X18828Y12393D01*
X18249Y10993D01*
X17953Y9508D01*
X17953Y9109D01*
X25285Y9109D01*
X25285Y8391D01*
X17953Y8391D01*
X17953Y7992D01*
X18249Y6507D01*
X18828Y5107D01*
X19670Y3847D01*
X20741Y2776D01*
X22001Y1934D01*
X23401Y1355D01*
X24886Y1059D01*
X25285Y1059D01*
X25285Y8391D01*
X26003Y8391D01*
X26003Y1059D01*
X26402Y1059D01*
X27887Y1355D01*
X29287Y1934D01*
X30547Y2776D01*
X31618Y3847D01*
X32460Y5107D01*
X33039Y6507D01*
X33335Y7992D01*
X33335Y8391D01*
X26003Y8391D01*
X26003Y9109D01*
X33335Y9109D01*
X33335Y9508D01*
X33039Y10993D01*
X32460Y12393D01*
X31618Y13653D01*
X30547Y14724D01*
X29287Y15566D01*
X27887Y16145D01*
X26402Y16441D01*
X26003Y16441D01*
X56503Y26109D02*
X56503Y33441D01*
X56503Y26109D02*
X55785Y26109D01*
X55785Y33441D01*
X55386Y33441D01*
X53901Y33145D01*
X52501Y32566D01*
X51241Y31724D01*
X50170Y30653D01*
X49328Y29393D01*
X48749Y27993D01*
X48453Y26508D01*
X48453Y26109D01*
X55785Y26109D01*
X55785Y25391D01*
X48453Y25391D01*
X48453Y24992D01*
X48749Y23507D01*
X49328Y22107D01*
X50170Y20847D01*
X51241Y19776D01*
X52501Y18934D01*
X53901Y18355D01*
X55386Y18059D01*
X55785Y18059D01*
X55785Y25391D01*
X56503Y25391D01*
X56503Y18059D01*
X56902Y18059D01*
X58387Y18355D01*
X59787Y18934D01*
X61047Y19776D01*
X62118Y20847D01*
X62960Y22107D01*
X63539Y23507D01*
X63835Y24992D01*
X63835Y25391D01*
X56503Y25391D01*
X56503Y26109D01*
X63835Y26109D01*
X63835Y26508D01*
X63539Y27993D01*
X62960Y29393D01*
X62118Y30653D01*
X61047Y31724D01*
X59787Y32566D01*
X58387Y33145D01*
X56902Y33441D01*
X56503Y33441D01*
X60003Y60759D02*
X60003Y68091D01*
X60003Y60759D02*
X59285Y60759D01*
X59285Y68091D01*
X58886Y68091D01*
X57401Y67795D01*
X56001Y67216D01*
X54741Y66374D01*
X53670Y65303D01*
X52828Y64043D01*
X52249Y62643D01*
X51953Y61158D01*
X51953Y60759D01*
X59285Y60759D01*
X59285Y60041D01*
X51953Y60041D01*
X51953Y59642D01*
X52249Y58157D01*
X52828Y56757D01*
X53670Y55497D01*
X54741Y54426D01*
X56001Y53584D01*
X57401Y53005D01*
X58886Y52709D01*
X59285Y52709D01*
X59285Y60041D01*
X60003Y60041D01*
X60003Y52709D01*
X60402Y52709D01*
X61887Y53005D01*
X63287Y53584D01*
X64547Y54426D01*
X65618Y55497D01*
X66460Y56757D01*
X67039Y58157D01*
X67335Y59642D01*
X67335Y60041D01*
X60003Y60041D01*
X60003Y60759D01*
X67335Y60759D01*
X67335Y61158D01*
X67039Y62643D01*
X66460Y64043D01*
X65618Y65303D01*
X64547Y66374D01*
X63287Y67216D01*
X61887Y67795D01*
X60402Y68091D01*
X60003Y68091D01*
X44875Y-14697D02*
X44875Y-22029D01*
X44157Y-22029D01*
X44157Y-14697D01*
X43758Y-14697D01*
X42273Y-14993D01*
X40873Y-15572D01*
X39613Y-16414D01*
X38542Y-17485D01*
X37700Y-18745D01*
X37121Y-20145D01*
X36825Y-21630D01*
X36825Y-22029D01*
X44157Y-22029D01*
X44157Y-22747D01*
X36825Y-22747D01*
X36825Y-23146D01*
X37121Y-24631D01*
X37700Y-26031D01*
X38542Y-27291D01*
X39613Y-28362D01*
X40873Y-29204D01*
X42273Y-29783D01*
X43758Y-30079D01*
X44157Y-30079D01*
X44157Y-22747D01*
X44875Y-22747D01*
X44875Y-30079D01*
X45274Y-30079D01*
X46759Y-29783D01*
X48159Y-29204D01*
X49419Y-28362D01*
X50490Y-27291D01*
X51332Y-26031D01*
X51911Y-24631D01*
X52207Y-23146D01*
X52207Y-22747D01*
X44875Y-22747D01*
X44875Y-22029D01*
X52207Y-22029D01*
X52207Y-21630D01*
X51911Y-20145D01*
X51332Y-18745D01*
X50490Y-17485D01*
X49419Y-16414D01*
X48159Y-15572D01*
X46759Y-14993D01*
X45274Y-14697D01*
X44875Y-14697D01*
X106377Y99471D02*
X106377Y106803D01*
X106377Y99471D02*
X105659Y99471D01*
X105659Y106803D01*
X105260Y106803D01*
X103775Y106507D01*
X102375Y105928D01*
X101115Y105086D01*
X100044Y104015D01*
X99202Y102755D01*
X98623Y101355D01*
X98327Y99870D01*
X98327Y99471D01*
X105659Y99471D01*
X105659Y98753D01*
X98327Y98753D01*
X98327Y98354D01*
X98623Y96869D01*
X99202Y95469D01*
X100044Y94209D01*
X101115Y93138D01*
X102375Y92296D01*
X103775Y91717D01*
X105260Y91421D01*
X105659Y91421D01*
X105659Y98753D01*
X106377Y98753D01*
X106377Y91421D01*
X106776Y91421D01*
X108261Y91717D01*
X109661Y92296D01*
X110921Y93138D01*
X111992Y94209D01*
X112834Y95469D01*
X113413Y96869D01*
X113709Y98354D01*
X113709Y98753D01*
X106377Y98753D01*
X106377Y99471D01*
X113709Y99471D01*
X113709Y99870D01*
X113413Y101355D01*
X112834Y102755D01*
X111992Y104015D01*
X110921Y105086D01*
X109661Y105928D01*
X108261Y106507D01*
X106776Y106803D01*
X106377Y106803D01*
X28003Y45579D02*
X28003Y38247D01*
X27285Y38247D01*
X27285Y45579D01*
X26886Y45579D01*
X25401Y45283D01*
X24001Y44704D01*
X22741Y43862D01*
X21670Y42791D01*
X20828Y41531D01*
X20249Y40131D01*
X19953Y38646D01*
X19953Y38247D01*
X27285Y38247D01*
X27285Y37529D01*
X19953Y37529D01*
X19953Y37130D01*
X20249Y35645D01*
X20828Y34245D01*
X21670Y32985D01*
X22741Y31914D01*
X24001Y31072D01*
X25401Y30493D01*
X26886Y30197D01*
X27285Y30197D01*
X27285Y37529D01*
X28003Y37529D01*
X28003Y30197D01*
X28402Y30197D01*
X29887Y30493D01*
X31287Y31072D01*
X32547Y31914D01*
X33618Y32985D01*
X34460Y34245D01*
X35039Y35645D01*
X35335Y37130D01*
X35335Y37529D01*
X28003Y37529D01*
X28003Y38247D01*
X35335Y38247D01*
X35335Y38646D01*
X35039Y40131D01*
X34460Y41531D01*
X33618Y42791D01*
X32547Y43862D01*
X31287Y44704D01*
X29887Y45283D01*
X28402Y45579D01*
X28003Y45579D01*
X41021Y105963D02*
X41021Y113295D01*
X41021Y105963D02*
X40303Y105963D01*
X40303Y113295D01*
X39904Y113295D01*
X38419Y112999D01*
X37019Y112420D01*
X35759Y111578D01*
X34688Y110507D01*
X33846Y109247D01*
X33267Y107847D01*
X32971Y106362D01*
X32971Y105963D01*
X40303Y105963D01*
X40303Y105245D01*
X32971Y105245D01*
X32971Y104846D01*
X33267Y103361D01*
X33846Y101961D01*
X34688Y100701D01*
X35759Y99630D01*
X37019Y98788D01*
X38419Y98209D01*
X39904Y97913D01*
X40303Y97913D01*
X40303Y105245D01*
X41021Y105245D01*
X41021Y97913D01*
X41420Y97913D01*
X42905Y98209D01*
X44305Y98788D01*
X45565Y99630D01*
X46636Y100701D01*
X47478Y101961D01*
X48057Y103361D01*
X48353Y104846D01*
X48353Y105245D01*
X41021Y105245D01*
X41021Y105963D01*
X48353Y105963D01*
X48353Y106362D01*
X48057Y107847D01*
X47478Y109247D01*
X46636Y110507D01*
X45565Y111578D01*
X44305Y112420D01*
X42905Y112999D01*
X41420Y113295D01*
X41021Y113295D01*
X21500Y72916D02*
X21500Y66500D01*
X21500Y66500D01*
X21500Y72916D01*
X20868Y72916D01*
X19629Y72669D01*
X18461Y72186D01*
X17410Y71484D01*
X16516Y70590D01*
X15814Y69539D01*
X15331Y68371D01*
X15084Y67132D01*
X15084Y66500D01*
X21500Y66500D01*
X21500Y66500D01*
X15084Y66500D01*
X15084Y65868D01*
X15331Y64629D01*
X15814Y63461D01*
X16516Y62410D01*
X17410Y61516D01*
X18461Y60814D01*
X19629Y60331D01*
X20868Y60084D01*
X21500Y60084D01*
X21500Y66500D01*
X21500Y66500D01*
X21500Y60084D01*
X22132Y60084D01*
X23371Y60331D01*
X24539Y60814D01*
X25590Y61516D01*
X26484Y62410D01*
X27186Y63461D01*
X27669Y64629D01*
X27916Y65868D01*
X27916Y66500D01*
X21500Y66500D01*
X21500Y66500D01*
X27916Y66500D01*
X27916Y67132D01*
X27669Y68371D01*
X27186Y69539D01*
X26484Y70590D01*
X25590Y71484D01*
X24539Y72186D01*
X23371Y72669D01*
X22132Y72916D01*
X21500Y72916D01*
X19649Y-24384D02*
X37071Y-24384D01*
X44157Y-24384D02*
X44875Y-24384D01*
X51961Y-24384D02*
X195484Y-24384D01*
X39850Y-16256D02*
X11606Y-16256D01*
X44157Y-16256D02*
X44875Y-16256D01*
X49182Y-16256D02*
X156975Y-16256D01*
X164818Y-16256D02*
X195484Y-16256D01*
X93874Y-8128D02*
X14851Y-8128D01*
X99500Y-8128D02*
X99500Y-8128D01*
X105126Y-8128D02*
X155184Y-8128D01*
X166608Y-8128D02*
X195484Y-8128D01*
X95435Y0D02*
X17786Y0D01*
X99500Y0D02*
X99500Y0D01*
X103565Y0D02*
X156719Y0D01*
X170016Y0D02*
X170016Y0D01*
X176336Y0D02*
X195484Y0D01*
X17953Y8128D02*
X11766Y8128D01*
X25285Y8128D02*
X26003Y8128D01*
X33335Y8128D02*
X156799Y8128D01*
X165371Y8128D02*
X195484Y8128D01*
X23957Y16256D02*
X16217Y16256D01*
X25285Y16256D02*
X26003Y16256D01*
X27331Y16256D02*
X156878Y16256D01*
X165451Y16256D02*
X195484Y16256D01*
X48574Y24384D02*
X17786Y24384D01*
X55785Y24384D02*
X56503Y24384D01*
X63714Y24384D02*
X156958Y24384D01*
X165531Y24384D02*
X195484Y24384D01*
X22143Y32512D02*
X11786Y32512D01*
X27285Y32512D02*
X28003Y32512D01*
X33145Y32512D02*
X52421Y32512D01*
X55785Y32512D02*
X56503Y32512D01*
X59867Y32512D02*
X157038Y32512D01*
X165610Y32512D02*
X195484Y32512D01*
X20459Y40640D02*
X14851Y40640D01*
X27285Y40640D02*
X28003Y40640D01*
X34829Y40640D02*
X155169Y40640D01*
X168001Y40640D02*
X195484Y40640D01*
X195484Y48768D02*
X16393Y48768D01*
X17786Y56896D02*
X52771Y56896D01*
X59285Y56896D02*
X60003Y56896D01*
X66517Y56896D02*
X195484Y56896D01*
X15252Y65024D02*
X11786Y65024D01*
X21500Y65024D02*
X21500Y65024D01*
X27748Y65024D02*
X53484Y65024D01*
X59285Y65024D02*
X60003Y65024D01*
X65804Y65024D02*
X77175Y65024D01*
X84285Y65024D02*
X85003Y65024D01*
X92112Y65024D02*
X195484Y65024D01*
X80157Y73152D02*
X14851Y73152D01*
X84285Y73152D02*
X85003Y73152D01*
X89131Y73152D02*
X195484Y73152D01*
X195484Y81280D02*
X16281Y81280D01*
X17686Y89408D02*
X195484Y89408D01*
X98490Y97536D02*
X14851Y97536D01*
X105659Y97536D02*
X106377Y97536D01*
X113546Y97536D02*
X195484Y97536D01*
X40303Y105664D02*
X14851Y105664D01*
X41021Y105664D02*
X101980Y105664D01*
X105659Y105664D02*
X106377Y105664D01*
X110056Y105664D02*
X195484Y105664D01*
X195484Y113792D02*
X11766Y113792D01*
X29435Y121920D02*
X195484Y121920D01*
X195484Y130048D02*
X37563Y130048D01*
X8128Y-19500D02*
X8128Y-19500D01*
X8128Y6500D02*
X8128Y6500D01*
X8128Y32500D02*
X8128Y32500D01*
X8128Y65000D02*
X8128Y65000D01*
X8128Y115766D02*
X8128Y117363D01*
X16256Y-3305D02*
X16256Y-22984D01*
X16256Y3305D02*
X16256Y16295D01*
X16256Y29305D02*
X16256Y42095D01*
X16256Y61805D02*
X16256Y62800D01*
X16256Y66500D02*
X16256Y66500D01*
X16256Y70200D02*
X16256Y74695D01*
X16256Y87705D02*
X16256Y87795D01*
X16256Y94205D02*
X16256Y117484D01*
X24384Y1159D02*
X24384Y-29119D01*
X24384Y8391D02*
X24384Y9109D01*
X24384Y16341D02*
X24384Y30914D01*
X24384Y37529D02*
X24384Y38247D01*
X24384Y44862D02*
X24384Y60750D01*
X24384Y66500D02*
X24384Y66500D01*
X24384Y72250D02*
X24384Y117484D01*
X32512Y5233D02*
X32512Y-31484D01*
X32512Y8391D02*
X32512Y9109D01*
X32512Y12267D02*
X32512Y31891D01*
X32512Y37529D02*
X32512Y38247D01*
X32512Y43885D02*
X32512Y124997D01*
X40640Y-29048D02*
X40640Y-31484D01*
X40640Y-22747D02*
X40640Y-22029D01*
X40640Y-15728D02*
X40640Y105245D01*
X40640Y105963D02*
X40640Y133125D01*
X48768Y-28797D02*
X48768Y-31484D01*
X48768Y-22747D02*
X48768Y-22029D01*
X48768Y-15979D02*
X48768Y23460D01*
X48768Y25391D02*
X48768Y26109D01*
X48768Y28040D02*
X48768Y133484D01*
X56896Y18059D02*
X56896Y-31484D01*
X56896Y25391D02*
X56896Y26109D01*
X56896Y33441D02*
X56896Y53214D01*
X56896Y60041D02*
X56896Y60759D01*
X56896Y67586D02*
X56896Y133484D01*
X65024Y54903D02*
X65024Y-31484D01*
X65024Y60041D02*
X65024Y60759D01*
X65024Y65897D02*
X65024Y133484D01*
X73152Y133484D02*
X73152Y-31484D01*
X81280Y-31484D02*
X81280Y59969D01*
X81280Y66541D02*
X81280Y67259D01*
X81280Y73831D02*
X81280Y133484D01*
X89408Y60833D02*
X89408Y-31484D01*
X89408Y66541D02*
X89408Y67259D01*
X89408Y72967D02*
X89408Y133484D01*
X97536Y-11131D02*
X97536Y-31484D01*
X97536Y-5000D02*
X97536Y-5000D01*
X97536Y1131D02*
X97536Y133484D01*
X105664Y-6885D02*
X105664Y-31484D01*
X105664Y-5000D02*
X105664Y-5000D01*
X105664Y-3115D02*
X105664Y98753D01*
X105664Y99471D02*
X105664Y133484D01*
X113792Y133484D02*
X113792Y-31484D01*
X121920Y-31484D02*
X121920Y133484D01*
X130048Y133484D02*
X130048Y-31484D01*
X138176Y-31484D02*
X138176Y133484D01*
X146304Y133484D02*
X146304Y-31484D01*
X154432Y-31484D02*
X154432Y133484D01*
X162560Y-17359D02*
X162560Y-31484D01*
X162560Y46416D02*
X162560Y133484D01*
X170688Y-5296D02*
X170688Y-31484D01*
X170688Y1112D02*
X170688Y1112D01*
X170688Y7520D02*
X170688Y133484D01*
X178816Y133484D02*
X178816Y-31484D01*
X186944Y-31484D02*
X186944Y133484D01*
X195072Y132663D02*
X195072Y-28663D01*
D17*
X170016Y1112D03*
X99500Y-5000D03*
D12*
X6500Y19500D03*
X0Y19500D03*
D13*
X2000Y19500D02*
X13400Y19500D01*
D12*
X6500Y26000D03*
D16*
X2000Y26000D01*
D13*
X13500Y26000D01*
D12*
X0Y26000D03*
X6500Y45500D03*
D16*
X2000Y45500D01*
D12*
X0Y45500D03*
D13*
X2000Y45500D02*
X13600Y45500D01*
D12*
X6500Y52000D03*
X0Y52000D03*
D13*
X2000Y52000D02*
X13400Y52000D01*
D12*
X6500Y58500D03*
X0Y58500D03*
D13*
X2000Y58500D02*
X13500Y58500D01*
D12*
X6500Y84500D03*
D16*
X2000Y84500D01*
D12*
X0Y84500D03*
D13*
X2000Y84500D02*
X13400Y84500D01*
D12*
X6500Y78000D03*
X0Y78000D03*
D13*
X2000Y78000D02*
X13500Y78000D01*
D12*
X6500Y91000D03*
X0Y91000D03*
D13*
X2000Y91000D02*
X13400Y91000D01*
D17*
X160896Y-11104D03*
X161585Y40000D03*
D13*
X161569Y39974D01*
X161550Y39949D01*
X161529Y39927D01*
X161506Y39906D01*
X161481Y39888D01*
X161454Y39873D01*
X161426Y39860D01*
X161396Y39850D01*
X160896Y-11104D01*
M02*
