M48
;GenerationSoftware,Autodesk,EAGLE,9.6.2*%
;CreationDate,2020-07-07T11:12:48Z*%
FMAT,2
ICI,OFF
METRIC,TZ,000.000
T3C0.254
T2C0.400
T1C0.550
%
G90
M71
T1
X8464Y6690
X5964Y6040
X2764Y3789
X5614Y2575
X4066Y10560
X2564Y875
X10602Y9911
X4452Y-2239
T2
X16090Y-1110
X2150Y6650
X16159Y4000
X17002Y111
X9950Y-500
T3
X0Y0
X0Y6500
X650Y6500
X0Y11050
X650Y11050
X0Y650
X0Y-1950
X650Y-1950
X650Y650
X650Y3250
X0Y3250
X0Y1950
X650Y2600
X0Y2600
X650Y4550
X0Y4550
X650Y5200
X0Y5200
X650Y5850
X0Y5850
X650Y8450
X0Y8450
X650Y7800
X0Y7800
X650Y9100
X0Y9100
X650Y1950
X650Y0
M30